<svg xmlns="http://www.w3.org/2000/svg" xmlns:xlink="http://www.w3.org/1999/xlink" version="1.1" width="941.6071989133463" height="784.5946646838181"><desc>title%20Ph%C3%A2n%20quy%E1%BB%81n%20ng%C6%B0%E1%BB%9Di%20d%C3%B9ng%20v%C3%A0o%20nh%C3%A0%0A%0Abottomparticipants%20%0A%0Aactor%20Landlord%0Aentity%20Client%0Aentity%20Backend%0Adatabase%20Database%0A%0ALandlord%20-%3E%20Client%3A%20Truy%20c%E1%BA%ADp%20v%C3%A0o%20trang%20ph%C3%A2n%20quy%E1%BB%81n%0A%0Aactivate%20Landlord%0Aactivate%20Client%0A%0AClient%20--%3E%20Landlord%3A%20Hi%E1%BB%83n%20th%E1%BB%8B%20form%20ph%C3%A2n%20quy%E1%BB%81n%20ng%C6%B0%E1%BB%9Di%20d%C3%B9ng%0A%0ALandlord%20-%3E%20Client%3A%20Ch%E1%BB%8Dn%20ng%C6%B0%E1%BB%9Di%20d%C3%B9ng%20v%C3%A0%20quy%E1%BB%81n%0A%0AClient%20-%3E%20Backend%3A%20G%E1%BB%ADi%20th%C3%B4ng%20tin%20ph%C3%A2n%20quy%E1%BB%81n%0A%0Aactivate%20Backend%0A%0ABackend%20-%3E%20Backend%3A%20X%C3%A1c%20th%E1%BB%B1c%20th%C3%B4ng%20tin%0A%0ABackend%20-%3E%20Database%3A%20G%E1%BB%ADi%20th%C3%B4ng%20tin%0A%0Aactivate%20Database%0A%0ADatabase%20-%3E%20Database%3A%20L%C6%B0u%20tr%E1%BB%AF%20d%E1%BB%AF%20li%E1%BB%87u%0A%0ADatabase%20-%3E%20Backend%3A%20G%E1%BB%ADi%20d%E1%BB%AF%20li%E1%BB%87u%20%C4%91%C3%A3%20t%E1%BA%A1o%0A%0Adeactivate%20Database%0A%0ABackend%20-%3E%20Client%3A%20Th%C3%B4ng%20b%C3%A1o%20ph%C3%A2n%20quy%E1%BB%81n%20th%C3%A0nh%20c%C3%B4ng%0A%0Adeactivate%20Backend%0A%0AClient%20-%3E%20Landlord%3A%20Th%C3%B4ng%20b%C3%A1o%20ph%C3%A2n%20quy%E1%BB%81n%20th%C3%A0nh%20c%C3%B4ng%0A%0Adeactivate%20Landlord%0Adeactivate%20Client%0A</desc><defs/><g><g/><g/><g/><g/><g/><g/><g/><g/><g/><g/><g/><g/><g/><g/><g/><g/><g/><g/><g/><g/><g/><g/><g/><g/><g/><g/><g/><g/><g/><g/><g/><g/><g/><g/><g/><g/><g/><g/><g/><g/><g/><g/><g/><g/><g/><g/><g/><g/><g/><g/><g/><g/><g/><g/><g/><g/><g/><g/><g/><g/><g/><g/><g/><g/><g/><g/><g/><g/><g/><g/><g/><g/><g/><g/><g/><g/><g/><g/><g/><g/><g/><g/><g/><g/><g/><g/><g/><g/><g/><g/><g/><g/><g/><g/><g/><g/><g/><g/><g/><g/><g/><g/><g/><g/><g/><g/><g/><g/><g/><g/><g/><g/><g/><g/><g><rect fill="white" stroke="none" x="0" y="0" width="941" height="784"/></g><g/><g><path fill="none" stroke="black" paint-order="fill stroke markers" d=" M 36.69657809042969 128.73625218881818 L 36.69657809042969 693.9342863688181" stroke-miterlimit="10" stroke-width="1.3612669416666667" stroke-dasharray="12.565541,5.445067766666667"/><path fill="none" stroke="black" paint-order="fill stroke markers" d=" M 340.14272330403645 128.73625218881818 L 340.14272330403645 693.9342863688181" stroke-miterlimit="10" stroke-width="1.3612669416666667" stroke-dasharray="12.565541,5.445067766666667"/><path fill="none" stroke="black" paint-order="fill stroke markers" d=" M 627.4614576289714 128.73625218881818 L 627.4614576289714 693.9342863688181" stroke-miterlimit="10" stroke-width="1.3612669416666667" stroke-dasharray="12.565541,5.445067766666667"/><path fill="none" stroke="black" paint-order="fill stroke markers" d=" M 805.5962625105469 128.73625218881818 L 805.5962625105469 693.9342863688181" stroke-miterlimit="10" stroke-width="1.3612669416666667" stroke-dasharray="12.565541,5.445067766666667"/></g><g><g><path fill="white" stroke="black" paint-order="fill stroke markers" d=" M 46.00764397142969 59.63834222981819 A 9.311065881 9.311065881 0 1 1 46.00763931589714 59.62903116548903 M 36.69657809042969 68.9494081108182 L 36.69657809042969 88.8783561368182 M 24.93523171442969 76.13689756281819 L 48.45792446642969 76.13689756281819 M 36.69657809042969 88.8783561368182 L 24.93523171442969 107.50048789881819 M 36.69657809042969 88.8783561368182 L 48.45792446642969 107.50048789881819" stroke-miterlimit="10" stroke-width="2.7769845610000004" stroke-dasharray=""/></g><g><g/><text fill="black" stroke="none" font-family="sans-serif" font-size="11pt" font-style="normal" font-weight="normal" text-decoration="normal" x="8.167601650000002" y="123.83569119881818" text-anchor="start" dominant-baseline="alphabetic" xml:space="preserve">Landlord</text></g><g><path fill="white" stroke="black" paint-order="fill stroke markers" d=" M 364.40050020453646 79.63263106901819 A 24.2577769005 24.2577769005 0 1 1 364.40048807564904 79.60837329616064 M 314.4964541230365 106.11199561831819 L 365.78899248503643 106.11199561831819" stroke-miterlimit="10" stroke-width="2.7769845610000004" stroke-dasharray=""/></g><g><g/><text fill="black" stroke="none" font-family="sans-serif" font-size="11pt" font-style="normal" font-weight="normal" text-decoration="normal" x="321.4025728523763" y="123.83569119881818" text-anchor="start" dominant-baseline="alphabetic" xml:space="preserve">Client</text></g><g><path fill="white" stroke="black" paint-order="fill stroke markers" d=" M 651.7192345294714 79.63263106901819 A 24.2577769005 24.2577769005 0 1 1 651.7192224005839 79.60837329616064 M 601.8151884479714 106.11199561831819 L 653.1077268099714 106.11199561831819" stroke-miterlimit="10" stroke-width="2.7769845610000004" stroke-dasharray=""/></g><g><g/><text fill="black" stroke="none" font-family="sans-serif" font-size="11pt" font-style="normal" font-weight="normal" text-decoration="normal" x="598.9360593745769" y="123.83569119881818" text-anchor="start" dominant-baseline="alphabetic" xml:space="preserve">Backend</text></g><g><path fill="white" stroke="black" paint-order="fill stroke markers" d=" M 781.746865692547 96.71925372081819 L 781.746865692547 62.41532679081819 L 829.4456593285469 62.41532679081819 L 829.4456593285469 96.71925372081819" stroke-miterlimit="10" stroke-width="2.7769845610000004" stroke-dasharray=""/><path fill="white" stroke="black" paint-order="fill stroke markers" d=" M 829.4456593285469 61.22285694991819 L 829.4444668686432 61.33066749483481 L 829.4408896081771 61.43846725878678 L 829.4349279048719 61.546245461887544 L 829.4265823548925 61.65399132640659 L 829.4158537927873 61.761694077847274 L 829.4027432914035 61.86934294602419 L 829.3872521617802 61.976927166140236 L 829.3693819530176 62.084435979863045 L 829.3491344521216 62.19185863640084 L 829.3265116838254 62.299184393577484 L 829.301515910387 62.4064025189067 L 829.274149631363 62.51350229066531 L 829.2444155833584 62.62047299896537 L 829.2123167397533 62.7273039468252 L 829.1778563104052 62.83398445123905 L 829.1410377413284 62.94050384424536 L 829.1018647143491 63.04685147399361 L 829.0603411467373 63.15301670580944 L 829.0164711908153 63.25898892325815 L 828.9702592335419 63.364757529206294 L 828.9217098960746 63.47031194688142 L 828.8708280333066 63.575641620929716 L 828.8176187333817 63.68073601847156 L 828.7620873171854 63.78558463015478 L 828.7042393378134 63.89017697120557 L 828.6440805800153 63.994502582477 L 828.5816170596166 64.09855103149486 L 828.5168550229174 64.20231191350096 L 828.4498009460674 64.3057748524936 L 828.3804615344185 64.40892950226505 L 828.3088437218538 64.51176554743633 L 828.2349546700951 64.61427270448858 L 828.1588017679861 64.71644072279157 L 828.0803926307533 64.81825938562858 L 827.9997350992452 64.91971851121816 L 827.9168372391478 65.02080795373233 L 827.8317073401779 65.12151760431107 L 827.7443539152545 65.22183739207324 L 827.6547856996473 65.32175728512367 L 827.5630116501032 65.42126729155632 L 827.4690409439509 65.52035746045347 L 827.3728829781822 65.6190178828808 L 827.2745473685142 65.71723869287828 L 827.1740439484254 65.81501006844678 L 827.0713827681742 65.91232223253022 L 826.9665740937932 66.00916545399325 L 826.8596284060623 66.10553004859446 L 826.7505563994613 66.20140637995469 L 826.6393689811 66.29678486052069 L 826.5260772696274 66.39165595252388 L 826.4106925941205 66.48601016893414 L 826.2932264929505 66.57983807440844 L 826.1736907126295 66.67313028623443 L 826.0520972066363 66.76587747526865 L 825.9284581342199 66.85807036686953 L 825.8027858591845 66.94969974182469 L 825.6750929486531 67.04075643727302 L 825.54539217181 67.13123134762085 L 825.4136964986251 67.22111542545254 L 825.2800190985558 67.3103996824352 L 825.1443733392309 67.39907519021754 L 825.0067727851131 67.4871330813227 L 824.8672311961432 67.57456455003492 L 824.7257625263638 67.6613608532802 L 824.5823809225241 67.74751331150055 L 824.4371007226649 67.83301330952195 L 824.2899364546851 67.91785229741582 L 824.140902834889 68.00202179135408 L 823.990014766514 68.08551337445749 L 823.8372873382417 68.1683186976373 L 823.6827358226874 68.25042948043021 L 823.526375674874 68.33183751182635 L 823.3682225306857 68.41253465109044 L 823.2082922053054 68.4925128285758 L 823.0466006916322 68.5717640465313 L 822.8831641586829 68.65028037990122 L 822.7179989499743 68.72805397711764 L 822.55112158189 68.80507706088565 L 822.3825487420276 68.88134192896105 L 822.2122972875304 68.95684095492061 L 822.0403842434023 69.03156658892462 L 821.8668268008042 69.10551135847197 L 821.6916423153359 69.17866786914732 L 821.5148483052999 69.25102880536058 L 821.3364624499499 69.3225869310784 L 821.1565025877226 69.39333509054786 L 820.9749867144545 69.46326620901198 L 820.7919329815816 69.53237329341717 L 820.6073596943246 69.60064943311258 L 820.4212853098584 69.66808780054113 L 820.2337284354664 69.7346816519223 L 820.0447078266798 69.80042432792644 L 819.8542423854019 69.86530925434072 L 819.662351158018 69.92932994272657 L 819.4690533334913 69.9924799910685 L 819.2743682414427 70.05475308441433 L 819.0783153502196 70.1161429955066 L 818.8809142649474 70.17664358540536 L 818.6821847255703 70.23624880410202 L 818.4821466048766 70.29495269112441 L 818.2808199065116 70.35274937613272 L 818.0782247629776 70.40963307950663 L 817.8743814336198 70.46559811292322 L 817.6693103026015 70.52063887992576 L 817.4630318768648 70.57474987648341 L 817.2555667840804 70.62792569154163 L 817.0469357705847 70.68016100756323 L 816.8371596993053 70.73145060106012 L 816.6262595476743 70.78178934311569 L 816.4142564055312 70.8311721998977 L 816.2011714730136 70.8795942331616 L 815.9870260584372 70.92705060074444 L 815.7718415761649 70.973536557049 L 815.5556395444656 71.01904745351838 L 815.3384415833625 71.06357873910088 L 815.1202694124705 71.10712596070502 L 814.901144848825 71.14968476364494 L 814.6810898046996 71.19125089207583 L 814.4601262854155 71.23182018941947 L 814.2382763871406 71.27138859877994 L 814.0155622946795 71.30995216334925 L 813.792006279256 71.34750702680313 L 813.5676306962856 71.38404943368649 L 813.3424579831393 71.4195757297891 L 813.1165106569009 71.45408236251096 L 812.8898113121147 71.48756588121756 L 812.6623826185263 71.52002293758491 L 812.4342473188154 71.55145028593446 L 812.2054282263222 71.58184478355753 L 811.9759482227648 71.61120339102969 L 811.7458302559528 71.63952317251467 L 811.5150973374907 71.66680129605793 L 811.2837725404784 71.69303503386982 L 811.0518789972025 71.71822176259843 L 810.8194398968244 71.7423589635919 L 810.5864784830603 71.7654442231502 L 810.3530180518574 71.78747523276665 L 810.1190819490644 71.80844978935863 L 809.8846935680964 71.82836579548797 L 809.6498763475964 71.84722125957065 L 809.4146537690908 71.86501429607597 L 809.1790493546412 71.8817431257151 L 808.9430866644929 71.89740607561903 L 808.7067892947182 71.91200157950583 L 808.4701808748572 71.92552817783725 L 808.2332850655546 71.93798451796474 L 807.9961255561941 71.94936935426468 L 807.7587260625289 71.95968154826289 L 807.5211103243105 71.96892006874862 L 807.2833021029148 71.97708399187748 L 807.0453251789658 71.98417250126396 L 806.8072033499574 71.99018488806304 L 806.5689604278742 71.99512055104105 L 806.3306202368099 71.99897899663581 L 806.0922066105849 72.00175983900598 L 805.8537433903631 72.00346280006961 L 805.615254422268 72.00408770953204 L 805.3767635549974 72.00363450490285 L 805.1382946374396 72.0021032315021 L 804.8998715162874 71.99949404245586 L 804.6615180336544 71.9958071986809 L 804.42325802469 71.99104306885846 L 804.1851153151968 71.98520212939759 L 803.9471137192471 71.97828496438737 L 803.7092770368023 71.97029226553852 L 803.4716290513323 71.96122483211428 L 803.2341935274378 71.95108357085043 L 802.9969942084731 71.93986949586466 L 802.7600548141727 71.92758372855508 L 802.5233990382784 71.91422749748824 L 802.2870505461706 71.89980213827607 L 802.0510329725015 71.8843090934425 L 801.815369918832 71.86774991227908 L 801.5800849512708 71.85012625069015 L 801.3452015981188 71.83143987102717 L 801.1107433475155 71.81169264191253 L 800.8767336450907 71.79088653805269 L 800.6431958916193 71.7690236400407 L 800.4101534406824 71.74610613414815 L 800.1776295963307 71.72213631210651 L 799.9456476107548 71.69711657087802 L 799.7142306819602 71.67104941241597 L 799.4834019514467 71.64393744341446 L 799.2531845018951 71.6157833750478 L 799.0236013548586 71.58659002269937 L 798.7946754684602 71.55636030568009 L 798.5664297350983 71.52509724693644 L 798.3388869791556 71.49280397274828 L 798.1120699547183 71.45948371241609 L 797.8860013432999 71.42513979793813 L 797.6607037515729 71.38977566367726 L 797.4361997091088 71.35339484601741 L 797.2125116661249 71.31600098301004 L 796.989661991239 71.27759781401028 L 796.7676729692329 71.23818917930303 L 796.5465667988238 71.19777901971894 L 796.3263655904444 71.15637137624027 L 796.1070913640323 71.11397038959687 L 795.8887660468271 71.07058029985207 L 795.6714114711787 71.02620544597868 L 795.4550493723636 70.98085026542512 L 795.2397013864113 70.93451929367163 L 795.0253890479411 70.8872171637768 L 794.8121337880079 70.8389486059142 L 794.5999569319605 70.78971844689937 L 794.3888796973072 70.7395316097072 L 794.1789231915958 70.6883931129796 L 793.9701084103019 70.6363080705236 L 793.7624562347296 70.58328169080006 L 793.5559874299234 70.52931927640276 L 793.3507226425918 70.47442622352818 L 793.1466823990423 70.41860802143584 L 792.9438871031293 70.36187025189946 L 792.7423570342136 70.3042185886487 L 792.5421123451339 70.24565879680183 L 792.3431730601923 70.18619673228926 L 792.1455590731515 70.12583834126788 L 791.9492901452456 70.06458965952649 L 791.7543859032038 70.00245681188221 L 791.5608658372879 69.93944601156807 L 791.3687492993431 69.87556355961155 L 791.1780555008634 69.81081584420461 L 790.9888035110694 69.74520934006487 L 790.8010122550024 69.67875060778805 L 790.6147005116318 69.61144629319199 L 790.4298869119764 69.54330312665208 L 790.2465899372423 69.47432792242817 L 790.0648279169741 69.40452757798322 L 789.8846190272226 69.3339090732935 L 789.7059812887263 69.26247947015062 L 789.5289325651104 69.19024591145539 L 789.3534905610995 69.11721562050347 L 789.1796728207481 69.0433959002631 L 789.0074967256852 68.96879413264479 L 788.8369794933768 68.89341777776313 L 788.6681381754042 68.81727437319081 L 788.5009896557583 68.74037153320482 L 788.335550649152 68.66271694802508 L 788.1718376993477 68.58431838304537 L 788.0098671775045 68.5051836780569 L 787.8496552805392 68.4253207464642 L 787.691218029508 68.34473757449386 L 787.5345712680042 68.26344222039596 L 787.3797306605734 68.18144281363814 L 787.2267116911471 68.09874755409275 L 787.0755296614948 68.01536471121685 L 786.9261996896935 67.9313026232252 L 786.778736708616 67.84656969625658 L 786.6331554644374 67.76117440353308 L 786.489470515161 67.67512528451279 L 786.3476962291618 67.5884309440359 L 786.2078467837504 67.50110005146425 L 786.0699361637546 67.41314133981427 L 785.9339781601216 67.32456360488388 L 785.7999863685385 67.23537570437271 L 785.6679741880728 67.14558655699653 L 785.5379548198324 67.05520514159522 L 785.4099412656459 66.96424049623502 L 785.283946326762 66.87270171730466 L 785.1599826025697 66.78059795860575 L 785.038062489338 66.68793843043741 L 784.9181981789766 66.59473239867523 L 784.8004016578167 66.50098918384472 L 784.6846847054122 66.40671816018926 L 784.571058893362 66.31192875473263 L 784.4595355841526 66.2166304463364 L 784.3501259300219 66.120832764752 L 784.2428408718442 66.02454528966774 L 784.137691138036 65.92777764975091 L 784.034687243483 65.83053952168484 L 783.9338394884886 65.73284062920132 L 783.8351579577445 65.63469074210818 L 783.7386525193216 65.53609967531233 L 783.6443328236832 65.4370772878383 L 783.5522083027201 65.33763348184232 L 783.462288168808 65.23777820162212 L 783.374581413885 65.13752143262249 L 783.2890968085537 65.03687320043682 L 783.2058429012035 64.93584356980442 L 783.1248280171554 64.83444264360419 L 783.0460602578306 64.73268056184422 L 782.9695474999394 64.63056750064791 L 782.8952973946936 64.52811367123628 L 782.823317367042 64.42532931890689 L 782.7536146149273 64.32222472200931 L 782.6861961085668 64.21881019091732 L 782.6210685897548 64.11509606699785 L 782.5582385711889 64.01109272157687 L 782.4977123358187 63.90681055490224 L 782.4394959362172 63.80225999510374 L 782.383595193976 63.697451497150205 L 782.3300156991226 63.59239554180411 L 782.2787628095617 63.48710263457343 L 782.2298416505399 63.381583304661156 L 782.1832571141321 63.27584810391234 L 782.1390138587532 63.16990760575894 L 782.0971163086917 63.06377240416249 L 782.057568653668 62.95745311255472 L 782.0203748484143 62.85096036277616 L 781.9855386122805 62.744304804013076 L 781.9530634288608 62.63749710173245 L 781.9229525456468 62.530547936615505 L 781.8952089737015 62.423468003489624 L 781.8698354873592 62.316268010258895 L 781.8468346239472 62.208958676833305 L 781.8262086835327 62.10155073405677 L 781.8079597286926 61.99405492263407 L 781.7920895843072 61.88648199205676 L 781.7785998373777 61.77884269952825 L 781.7674918368674 61.6711478088881 L 781.7587666935674 61.56340808953563 L 781.7524252799844 61.45563431535299 L 781.7484682302548 61.34783726362778 L 781.7468959400801 61.24002771397536 L 781.7477085666881 61.13221644726084 L 781.7509060288166 61.02441424452105 L 781.7564880067223 60.916631885886424 L 781.764453942212 60.808880149503025 L 781.7748030386987 60.70116981045468 L 781.7875342612815 60.59351163968555 L 781.8026463368486 60.48591640292299 L 781.8201377542052 60.378394859601016 L 781.840006764224 60.27095776178435 L 781.8622513800207 60.163615853093255 L 781.8868693771522 60.05637986762915 L 781.9138582938391 59.949260528901206 L 781.9432154312125 59.84226854875404 L 781.974937853583 59.7354146262965 L 782.0090223887349 59.62870944683179 L 782.0454656282429 59.52216368078894 L 782.0842639278137 59.41578798265577 L 782.1254134076494 59.30959298991343 L 782.1689099528364 59.203589321972714 L 782.2147492137565 59.09778757911208 L 782.2629266065217 58.992198341417634 L 782.3134373134329 58.88683216772516 L 782.3662762834615 58.78169959456423 L 782.4214382327547 58.67681113510454 L 782.4789176451633 58.57217727810464 L 782.538708772794 58.46780848686303 L 782.6008056365839 58.36371519817185 L 782.6652020268984 58.25990782127324 L 782.7318915041523 58.15639673681838 L 782.8008673994531 58.053192295829454 L 782.8721228152689 57.950304818664556 L 782.9456506261175 57.84774459398567 L 783.0214434792791 57.745521877729786 L 783.0994937955315 57.64364689208335 L 783.1797937699083 57.54212982446004 L 783.2623353724787 57.44098082648201 L 783.3471103491514 57.340210012964775 L 783.4341102224994 57.2398274609057 L 783.5233262926077 57.13984320847635 L 783.6147496379439 57.040267254018644 L 783.7083711162494 56.94110955504505 L 783.8041813654544 56.84238002724283 L 783.902170804614 56.74408854348249 L 784.0023296348659 56.646244932830506 L 784.1046478404104 56.54885897956639 L 784.2091151895122 56.45194042220433 L 784.3157212355237 56.35549895251929 L 784.424455317929 56.25954421457787 L 784.5353065634102 56.16408580377391 L 784.6482638869356 56.06913326586893 L 784.7633159928668 55.974696096037604 L 784.8804513760889 55.88078373791821 L 784.9996583231613 55.7874055826683 L 785.1209249134887 55.694570968025594 L 785.2442390205131 55.60228917737418 L 785.3695883129266 55.51056943881623 L 785.4969602559042 55.41942092424918 L 785.6263421123581 55.328852748448504 L 785.7577209442102 55.23887396815633 L 785.8910836136868 55.14949358117568 L 786.0264167846321 55.0607205254708 L 786.163706923842 54.97256367827326 L 786.3029403024168 54.88503185519433 L 786.4441029971347 54.79813380934336 L 786.5871808918438 54.71187823045254 L 786.7321596788739 54.62627374400786 L 786.8790248604672 54.541328910386646 L 787.0277617502279 54.45705222400146 L 787.1783554745908 54.373452112450714 L 787.3307909743093 54.290536935675895 L 787.48505300596 54.20831498512558 L 787.6411261434687 54.12679448292632 L 787.7989947796515 54.0459835810604 L 787.9586431277764 53.965890360550645 L 788.1200552231415 53.88652283065238 L 788.283214924672 53.80788892805245 L 788.4481059165336 53.72999651607559 L 788.6147117097645 53.652853383898076 L 788.7830156439243 53.57646724576885 L 788.9530008887596 53.50084574023808 L 789.1246504458878 53.42599642939328 L 789.2979471504963 53.35192679810317 L 789.4728736730588 53.278644253269164 L 789.6494125210689 53.20615612308466 L 789.827546040789 53.13446965630228 L 790.0072564190156 53.06359202150896 L 790.1885256848605 52.99353030640911 L 790.3713357115481 52.924291517115876 L 790.5556682182283 52.85588257745046 L 790.7415047718041 52.78831032824984 L 790.9288267887747 52.72158152668263 L 791.1176155370946 52.65570284557336 L 791.3078521380464 52.590680872735255 L 791.4995175681286 52.52652211031142 L 791.6925926609576 52.463232974124615 L 791.8870581091853 52.40081979303573 L 792.0828944664289 52.33928880831086 L 792.2800821492157 52.278646172997206 L 792.478601438942 52.21889795130775 L 792.678432483844 52.160050118014894 L 792.8795553009837 52.1021085578529 L 793.0819497782473 52.045079064929524 L 793.2855956763557 51.98896734214652 L 793.4904726308885 51.933779000629414 L 793.6965601543211 51.87951955916637 L 793.903837638073 51.826194443656306 L 794.1122843545685 51.77380898656634 L 794.3218794593097 51.72236842639853 L 794.5326019929606 51.67187790716602 L 794.7444308834437 51.622342477878675 L 794.9573449480463 51.57376709203812 L 795.1713228955394 51.526156607142475 L 795.3863433283067 51.47951578420055 L 795.6023847444839 51.43384928725578 L 795.8194255401094 51.38916168291979 L 796.0374440112847 51.34545743991578 L 796.2564183563443 51.302740928631636 L 796.476326678036 51.261016420682886 L 796.6971469857112 51.220288088485546 L 796.9188571975229 51.18056000483891 L 797.1414351426348 51.14183614251822 L 797.3648585634378 51.10412037387746 L 797.589105117776 51.06741647046204 L 797.8141523811809 51.03172810263173 L 798.0399778491136 50.99705883919358 L 798.2665589392157 50.96341214704502 L 798.4938729935668 50.930791390827245 L 798.7218972809509 50.899199832588685 L 798.9506089991294 50.86864063145883 L 799.179985277121 50.83911684333235 L 799.4100031774891 50.81063142056343 L 799.6406396986353 50.78318721167063 L 799.8718717770996 50.75678696105195 L 800.1036762898669 50.731433308710464 L 800.3360300566793 50.70712878999027 L 800.5689098423535 50.683875835323 L 800.8022923591051 50.66167676998473 L 801.0361542688769 50.6405338138635 L 801.2704721856727 50.6204490812373 L 801.5052226778962 50.60142458056266 L 801.7403822706938 50.583462214273794 L 801.9759274483022 50.566563778592354 L 802.2118346563998 50.55073096334783 L 802.4480803044626 50.53596535180856 L 802.6846407681223 50.52226842052339 L 802.9214923915301 50.50964153917403 L 803.1586114897208 50.49808597043808 L 803.3959743509822 50.48760286986282 L 803.633557239226 50.47819328574954 L 803.8713363963612 50.46985815904882 L 804.1092880446706 50.462598323266384 L 804.3473883891874 50.456414504379765 L 804.5856136200755 50.45130732076569 L 804.8239399150106 50.44727728313828 L 805.0623434415616 50.444324794497916 L 805.3008003595744 50.44245015009101 L 805.5392868235563 50.44165353738045 L 805.7777789850593 50.44193503602685 L 806.0162529950661 50.443294617880554 L 806.2546850063745 50.445732146984525 L 806.493051175982 50.44924737958788 L 806.7313276674703 50.45383996417029 L 806.9694906533888 50.459509441477124 L 807.2075163176373 50.46625524456538 L 807.4453808578478 50.474076698860365 L 807.6830604877645 50.48297302222316 L 807.9205314396226 50.49294332502887 L 808.1577699665245 50.50398661025549 L 808.3947523448154 50.51610177358371 L 808.631454876455 50.52928760350731 L 808.8678538913873 50.54354278145426 L 809.103925749908 50.55886588191867 L 809.3396468450276 50.575255372603245 L 809.5749936048333 50.592709614572584 L 809.8099424948451 50.61122686241703 L 810.0444700203699 50.630805264427224 L 810.2785527288506 50.651442862779284 L 810.5121672122114 50.67313759373059 L 810.7452901091984 50.695887287826096 L 810.9778981077166 50.71968967011537 L 811.2099679471596 50.74454236038002 L 811.4414764207371 50.77044287337172 L 811.6724003777946 50.797388619060754 L 811.9027167261288 50.825376902895016 L 812.1324024342968 50.85440492606945 L 812.3614345339191 50.88446978580591 L 812.5897901219768 50.9155684756435 L 812.8174463631012 50.947697885739125 L 813.044380491858 50.980854803178566 L 813.2705698150234 51.01503591229771 L 813.4959917138536 51.05023779501413 L 813.7206236463466 51.08645693116888 L 813.9444431494962 51.12368969887854 L 814.1674278415388 51.16193237489736 L 814.3895554241908 51.201181134989596 L 814.6108036848793 51.241432054311964 L 814.8311504989624 51.28268110780607 L 815.0505738319423 51.32492417060092 L 815.2690517416687 51.368157018425464 L 815.4865623805326 51.41237532803093 L 815.7030839976514 51.45757467762322 L 815.9185949410438 51.503750547305025 L 816.1330736597951 51.55089831952786 L 816.3464987062121 51.5990132795538 L 816.558848737968 51.64809061592693 L 816.7701025202367 51.69812542095451 L 816.9802389278159 51.749112691197745 L 817.1892369472399 51.801047327972086 L 817.3970756788812 51.85392413785714 L 817.6037343390394 51.90773783321599 L 817.8091922620212 51.962483032723924 L 818.0134289022051 52.01815426190663 L 818.2164238360974 52.07474595368758 L 818.418156764374 52.132252448944755 L 818.6186075139101 52.190667997076545 L 818.8177560397977 52.24998675657682 L 819.0155824273503 52.310202795619055 L 819.2120668940939 52.371310092649544 L 819.4071897917457 52.43330253698949 L 819.6009316081785 52.49617392944612 L 819.7932729693719 52.559917982932596 L 819.9841946413503 52.62452832309667 L 820.1736775321054 52.68999848895818 L 820.3617026935063 52.7563219335551 L 820.5482513231934 52.823492024598224 L 820.7333047664591 52.89150204513444 L 820.9168445181134 52.960345194218355 L 821.0988522243341 53.03001458759244 L 821.2793096845022 53.10050325837541 L 821.458198853022 53.171804157758935 L 821.6355018411258 53.243910155712484 L 821.8112009186626 53.31681404169635 L 821.985278515871 53.39050852538269 L 822.1577172251363 53.46498623738456 L 822.3284998027312 53.5402397299928 L 822.4976091705405 53.61626147792087 L 822.6650284177681 53.69304387905734 L 822.830740802629 53.770579255226075 L 822.9947297540226 53.848859852954064 L 823.1569788731906 53.92787784424677 L 823.3174719353563 54.00762532737092 L 823.4761928913471 54.08809432764465 L 823.6331258691996 54.16927679823499 L 823.7882551757469 54.251164620962534 L 823.9415652981878 54.33374960711325 L 824.0930409056375 54.41702349825734 L 824.2426668506616 54.500977967075094 L 824.3904281707904 54.58560461818958 L 824.5363100900149 54.670894989006214 L 824.6802980202648 54.75684055055899 L 824.822377562867 54.84343270836337 L 824.9625345099857 54.93066280327574 L 825.100754846043 55.0185221123593 L 825.2370247491203 55.107001849756344 L 825.3713305923411 55.196093167566886 L 825.5036589452329 55.28578715673337 L 825.6339965750706 55.37607484793163 L 825.7623304481999 55.46694721246779 L 825.8886477313406 55.55839516318112 L 826.0129357928693 55.65040955535275 L 826.1351822040837 55.742981187620146 L 826.2553747404444 55.83610080289723 L 826.373501382798 55.92975908930006 L 826.4895503185787 56.02394668107806 L 826.6035099429896 56.11865415955053 L 826.7153688601633 56.213872054048544 L 826.8251158843011 56.30959084286201 L 826.9327400407923 56.405800954191804 L 827.0382305673107 56.50249276710697 L 827.1415769148917 56.5996566125068 L 827.2427687489867 56.69728277408771 L 827.3417959504966 56.79536148931491 L 827.4386486167836 56.89388295039859 L 827.5333170626619 56.99283730527477 L 827.6257918213659 57.09221465859041 L 827.7160636454967 57.19200507269298 L 827.804123507947 57.29219856862425 L 827.8899626028041 57.39278512711811 L 827.9735723462301 57.49375468960253 L 828.05494437732 57.59509715920541 L 828.1340705589389 57.69680240176424 L 828.2109429785344 57.79886024683951 L 828.2855539489285 57.90126048873177 L 828.3578960090865 58.003992887502164 L 828.4279619248628 58.10704716999642 L 828.4957446897238 58.21041303087217 L 828.5612375254498 58.31408013362946 L 828.6244338828117 58.41803811164441 L 828.6853274422264 58.52227656920584 L 828.7439121143888 58.62678508255487 L 828.8001820408804 58.731553200927245 L 828.8541315947556 58.83657044759845 L 828.9057553811039 58.94182632093131 L 828.9550482375895 59.04731029542622 L 829.0020052349681 59.153011822773635 L 829.046621677579 59.25892033290889 L 829.088893103815 59.36502523506925 L 829.1288152865689 59.471315918852895 L 829.1663842336555 59.57778175528004 L 829.2015961882115 59.684412097855756 L 829.2344476290709 59.79119628363465 L 829.2649352711168 59.89812363428712 L 829.2930560656105 60.005183457167206 L 829.3188072004958 60.11236504638185 L 829.342186100681 60.21965768386144 L 829.3631904282953 60.327050640431644 L 829.3818180829236 60.43453317688629 L 829.3980672018158 60.5420945450613 L 829.4119361600738 60.6497239889095 L 829.423423570813 60.757410745576195 L 829.4325282853022 60.86514404647545 L 829.4392493930774 60.972913118366954 L 829.4435862220333 61.08070718443333 L 829.4455383384909 61.188515465357796 M 829.4456593285469 95.52678387991818 L 829.4444668686432 95.6345944248348 L 829.4408896081771 95.74239418878678 L 829.4349279048719 95.85017239188754 L 829.4265823548925 95.95791825640659 L 829.4158537927873 96.06562100784727 L 829.4027432914035 96.1732698760242 L 829.3872521617802 96.28085409614023 L 829.3693819530176 96.38836290986303 L 829.3491344521216 96.49578556640084 L 829.3265116838254 96.60311132357748 L 829.301515910387 96.7103294489067 L 829.274149631363 96.8174292206653 L 829.2444155833584 96.92439992896537 L 829.2123167397533 97.0312308768252 L 829.1778563104052 97.13791138123905 L 829.1410377413284 97.24443077424536 L 829.1018647143491 97.35077840399362 L 829.0603411467373 97.45694363580944 L 829.0164711908153 97.56291585325815 L 828.9702592335419 97.66868445920629 L 828.9217098960746 97.77423887688141 L 828.8708280333066 97.8795685509297 L 828.8176187333817 97.98466294847155 L 828.7620873171854 98.08951156015478 L 828.7042393378134 98.19410390120557 L 828.6440805800153 98.29842951247699 L 828.5816170596166 98.40247796149485 L 828.5168550229174 98.50623884350097 L 828.4498009460674 98.60970178249359 L 828.3804615344185 98.71285643226504 L 828.3088437218538 98.81569247743631 L 828.2349546700951 98.91819963448859 L 828.1588017679861 99.02036765279156 L 828.0803926307533 99.12218631562857 L 827.9997350992452 99.22364544121817 L 827.9168372391478 99.32473488373233 L 827.8317073401779 99.42544453431107 L 827.7443539152545 99.52576432207324 L 827.6547856996473 99.62568421512367 L 827.5630116501032 99.72519422155631 L 827.4690409439509 99.82428439045346 L 827.3728829781822 99.92294481288079 L 827.2745473685142 100.02116562287829 L 827.1740439484254 100.11893699844678 L 827.0713827681742 100.2162491625302 L 826.9665740937932 100.31309238399325 L 826.8596284060623 100.40945697859446 L 826.7505563994613 100.50533330995468 L 826.6393689811 100.60071179052068 L 826.5260772696274 100.69558288252388 L 826.4106925941205 100.78993709893413 L 826.2932264929505 100.88376500440843 L 826.1736907126295 100.97705721623441 L 826.0520972066363 101.06980440526866 L 825.9284581342199 101.16199729686952 L 825.8027858591845 101.25362667182469 L 825.6750929486531 101.34468336727302 L 825.54539217181 101.43515827762084 L 825.4136964986251 101.52504235545253 L 825.2800190985558 101.61432661243519 L 825.1443733392309 101.70300212021755 L 825.0067727851131 101.7910600113227 L 824.8672311961432 101.87849148003492 L 824.7257625263638 101.9652877832802 L 824.5823809225241 102.05144024150056 L 824.4371007226649 102.13694023952193 L 824.2899364546851 102.22177922741581 L 824.140902834889 102.30594872135407 L 823.990014766514 102.38944030445748 L 823.8372873382417 102.47224562763729 L 823.6827358226874 102.5543564104302 L 823.526375674874 102.63576444182635 L 823.3682225306857 102.71646158109044 L 823.2082922053054 102.79643975857579 L 823.0466006916322 102.8756909765313 L 822.8831641586829 102.95420730990122 L 822.7179989499743 103.03198090711763 L 822.55112158189 103.10900399088564 L 822.3825487420276 103.18526885896105 L 822.2122972875304 103.2607678849206 L 822.0403842434023 103.33549351892461 L 821.8668268008042 103.40943828847196 L 821.6916423153359 103.48259479914732 L 821.5148483052999 103.55495573536056 L 821.3364624499499 103.6265138610784 L 821.1565025877226 103.69726202054787 L 820.9749867144545 103.76719313901197 L 820.7919329815816 103.83630022341715 L 820.6073596943246 103.90457636311257 L 820.4212853098584 103.97201473054113 L 820.2337284354664 104.03860858192229 L 820.0447078266798 104.10435125792642 L 819.8542423854019 104.1692361843407 L 819.662351158018 104.23325687272656 L 819.4690533334913 104.29640692106851 L 819.2743682414427 104.35868001441433 L 819.0783153502196 104.4200699255066 L 818.8809142649474 104.48057051540535 L 818.6821847255703 104.54017573410202 L 818.4821466048766 104.5988796211244 L 818.2808199065116 104.65667630613272 L 818.0782247629776 104.71356000950664 L 817.8743814336198 104.7695250429232 L 817.6693103026015 104.82456580992574 L 817.4630318768648 104.87867680648341 L 817.2555667840804 104.93185262154162 L 817.0469357705847 104.98408793756322 L 816.8371596993053 105.0353775310601 L 816.6262595476743 105.08571627311568 L 816.4142564055312 105.13509912989768 L 816.2011714730136 105.1835211631616 L 815.9870260584372 105.23097753074444 L 815.7718415761649 105.27746348704899 L 815.5556395444656 105.32297438351839 L 815.3384415833625 105.36750566910086 L 815.1202694124705 105.41105289070501 L 814.901144848825 105.45361169364494 L 814.6810898046996 105.49517782207583 L 814.4601262854155 105.53574711941947 L 814.2382763871406 105.57531552877992 L 814.0155622946795 105.61387909334925 L 813.792006279256 105.65143395680312 L 813.5676306962856 105.68797636368647 L 813.3424579831393 105.72350265978909 L 813.1165106569009 105.75800929251095 L 812.8898113121147 105.79149281121755 L 812.6623826185263 105.82394986758491 L 812.4342473188154 105.85537721593445 L 812.2054282263222 105.88577171355752 L 811.9759482227648 105.9151303210297 L 811.7458302559528 105.94345010251467 L 811.5150973374907 105.97072822605791 L 811.2837725404784 105.99696196386981 L 811.0518789972025 106.02214869259844 L 810.8194398968244 106.04628589359189 L 810.5864784830603 106.0693711531502 L 810.3530180518574 106.09140216276666 L 810.1190819490644 106.11237671935864 L 809.8846935680964 106.13229272548797 L 809.6498763475964 106.15114818957065 L 809.4146537690908 106.16894122607596 L 809.1790493546412 106.1856700557151 L 808.9430866644929 106.20133300561903 L 808.7067892947182 106.21592850950582 L 808.4701808748572 106.22945510783724 L 808.2332850655546 106.24191144796474 L 807.9961255561941 106.25329628426466 L 807.7587260625289 106.2636084782629 L 807.5211103243105 106.2728469987486 L 807.2833021029148 106.28101092187747 L 807.0453251789658 106.28809943126396 L 806.8072033499574 106.29411181806304 L 806.5689604278742 106.29904748104106 L 806.3306202368099 106.30290592663582 L 806.0922066105849 106.30568676900597 L 805.8537433903631 106.30738973006962 L 805.615254422268 106.30801463953205 L 805.3767635549974 106.30756143490284 L 805.1382946374396 106.3060301615021 L 804.8998715162874 106.30342097245587 L 804.6615180336544 106.29973412868088 L 804.42325802469 106.29496999885845 L 804.1851153151968 106.28912905939758 L 803.9471137192471 106.28221189438736 L 803.7092770368023 106.27421919553852 L 803.4716290513323 106.26515176211427 L 803.2341935274378 106.25501050085043 L 802.9969942084731 106.24379642586464 L 802.7600548141727 106.23151065855508 L 802.5233990382784 106.21815442748823 L 802.2870505461706 106.20372906827606 L 802.0510329725015 106.1882360234425 L 801.815369918832 106.17167684227908 L 801.5800849512708 106.15405318069014 L 801.3452015981188 106.13536680102716 L 801.1107433475155 106.11561957191253 L 800.8767336450907 106.09481346805269 L 800.6431958916193 106.0729505700407 L 800.4101534406824 106.05003306414814 L 800.1776295963307 106.0260632421065 L 799.9456476107548 106.00104350087803 L 799.7142306819602 105.97497634241597 L 799.4834019514467 105.94786437341445 L 799.2531845018951 105.9197103050478 L 799.0236013548586 105.89051695269937 L 798.7946754684602 105.86028723568009 L 798.5664297350983 105.82902417693644 L 798.3388869791556 105.79673090274827 L 798.1120699547183 105.76341064241608 L 797.8860013432999 105.72906672793813 L 797.6607037515729 105.69370259367726 L 797.4361997091088 105.6573217760174 L 797.2125116661249 105.61992791301003 L 796.989661991239 105.58152474401028 L 796.7676729692329 105.54211610930304 L 796.5465667988238 105.50170594971894 L 796.3263655904444 105.46029830624026 L 796.1070913640323 105.41789731959686 L 795.8887660468271 105.37450722985206 L 795.6714114711787 105.33013237597868 L 795.4550493723636 105.28477719542511 L 795.2397013864113 105.23844622367163 L 795.0253890479411 105.1911440937768 L 794.8121337880079 105.14287553591419 L 794.5999569319605 105.09364537689936 L 794.3888796973072 105.0434585397072 L 794.1789231915958 104.99232004297959 L 793.9701084103019 104.9402350005236 L 793.7624562347296 104.88720862080007 L 793.5559874299234 104.83324620640276 L 793.3507226425918 104.77835315352817 L 793.1466823990423 104.72253495143585 L 792.9438871031293 104.66579718189945 L 792.7423570342136 104.60814551864868 L 792.5421123451339 104.54958572680184 L 792.3431730601923 104.49012366228926 L 792.1455590731515 104.42976527126788 L 791.9492901452456 104.36851658952648 L 791.7543859032038 104.30638374188221 L 791.5608658372879 104.24337294156805 L 791.3687492993431 104.17949048961154 L 791.1780555008634 104.11474277420461 L 790.9888035110694 104.04913627006486 L 790.8010122550024 103.98267753778805 L 790.6147005116318 103.91537322319199 L 790.4298869119764 103.84723005665208 L 790.2465899372423 103.77825485242818 L 790.0648279169741 103.70845450798322 L 789.8846190272226 103.63783600329349 L 789.7059812887263 103.56640640015061 L 789.5289325651104 103.49417284145538 L 789.3534905610995 103.42114255050346 L 789.1796728207481 103.3473228302631 L 789.0074967256852 103.27272106264479 L 788.8369794933768 103.19734470776314 L 788.6681381754042 103.1212013031908 L 788.5009896557583 103.04429846320481 L 788.335550649152 102.96664387802507 L 788.1718376993477 102.88824531304537 L 788.0098671775045 102.8091106080569 L 787.8496552805392 102.72924767646418 L 787.691218029508 102.64866450449387 L 787.5345712680042 102.56736915039596 L 787.3797306605734 102.48536974363815 L 787.2267116911471 102.40267448409276 L 787.0755296614948 102.31929164121684 L 786.9261996896935 102.2352295532252 L 786.778736708616 102.15049662625658 L 786.6331554644374 102.06510133353308 L 786.489470515161 101.97905221451278 L 786.3476962291618 101.89235787403591 L 786.2078467837504 101.80502698146424 L 786.0699361637546 101.71706826981428 L 785.9339781601216 101.62849053488388 L 785.7999863685385 101.53930263437272 L 785.6679741880728 101.44951348699652 L 785.5379548198324 101.35913207159521 L 785.4099412656459 101.26816742623502 L 785.283946326762 101.17662864730465 L 785.1599826025697 101.08452488860574 L 785.038062489338 100.9918653604374 L 784.9181981789766 100.89865932867522 L 784.8004016578167 100.80491611384473 L 784.6846847054122 100.71064509018925 L 784.571058893362 100.61585568473262 L 784.4595355841526 100.5205573763364 L 784.3501259300219 100.424759694752 L 784.2428408718442 100.32847221966773 L 784.137691138036 100.2317045797509 L 784.034687243483 100.13446645168483 L 783.9338394884886 100.03676755920131 L 783.8351579577445 99.93861767210817 L 783.7386525193216 99.84002660531232 L 783.6443328236832 99.7410042178383 L 783.5522083027201 99.64156041184232 L 783.462288168808 99.54170513162211 L 783.374581413885 99.4414483626225 L 783.2890968085537 99.34080013043682 L 783.2058429012035 99.23977049980442 L 783.1248280171554 99.13836957360418 L 783.0460602578306 99.03660749184422 L 782.9695474999394 98.9344944306479 L 782.8952973946936 98.83204060123627 L 782.823317367042 98.72925624890688 L 782.7536146149273 98.6261516520093 L 782.6861961085668 98.52273712091731 L 782.6210685897548 98.41902299699785 L 782.5582385711889 98.31501965157686 L 782.4977123358187 98.21073748490224 L 782.4394959362172 98.10618692510373 L 782.383595193976 98.0013784271502 L 782.3300156991226 97.89632247180411 L 782.2787628095617 97.79102956457344 L 782.2298416505399 97.68551023466115 L 782.1832571141321 97.57977503391233 L 782.1390138587532 97.47383453575894 L 782.0971163086917 97.3676993341625 L 782.057568653668 97.2613800425547 L 782.0203748484143 97.15488729277617 L 781.9855386122805 97.04823173401307 L 781.9530634288608 96.94142403173245 L 781.9229525456468 96.8344748666155 L 781.8952089737015 96.72739493348962 L 781.8698354873592 96.6201949402589 L 781.8468346239472 96.51288560683331 L 781.8262086835327 96.40547766405678 L 781.8079597286926 96.29798185263407 L 781.7920895843072 96.19040892205675 L 781.7785998373777 96.08276962952824 L 781.7674918368674 95.9750747388881 L 781.7587666935674 95.86733501953563 L 781.7524252799844 95.75956124535298 L 781.7484682302548 95.65176419362778 L 781.7468959400801 95.54395464397535" stroke-miterlimit="10" stroke-width="2.7769845610000004" stroke-dasharray=""/></g><g><g/><text fill="black" stroke="none" font-family="sans-serif" font-size="11pt" font-style="normal" font-weight="normal" text-decoration="normal" x="774.2183175642579" y="123.83569119881818" text-anchor="start" dominant-baseline="alphabetic" xml:space="preserve">Database</text></g><g><path fill="white" stroke="black" paint-order="fill stroke markers" d=" M 46.00764397142969 725.8696088203181 A 9.311065881 9.311065881 0 1 1 46.00763931589714 725.860297755989 M 36.69657809042969 735.1806747013181 L 36.69657809042969 755.1096227273181 M 24.93523171442969 742.3681641533182 L 48.45792446642969 742.3681641533182 M 36.69657809042969 755.1096227273181 L 24.93523171442969 773.7317544893182 M 36.69657809042969 755.1096227273181 L 48.45792446642969 773.7317544893182" stroke-miterlimit="10" stroke-width="2.7769845610000004" stroke-dasharray=""/></g><g><g/><text fill="black" stroke="none" font-family="sans-serif" font-size="11pt" font-style="normal" font-weight="normal" text-decoration="normal" x="8.167601650000002" y="710.2694896688181" text-anchor="start" dominant-baseline="alphabetic" xml:space="preserve">Landlord</text></g><g><path fill="white" stroke="black" paint-order="fill stroke markers" d=" M 364.40050020453646 741.3717167520181 A 24.2577769005 24.2577769005 0 1 1 364.40048807564904 741.3474589791605 M 314.4964541230365 767.851081301318 L 365.78899248503643 767.851081301318" stroke-miterlimit="10" stroke-width="2.7769845610000004" stroke-dasharray=""/></g><g><g/><text fill="black" stroke="none" font-family="sans-serif" font-size="11pt" font-style="normal" font-weight="normal" text-decoration="normal" x="321.4025728523763" y="710.2694896688181" text-anchor="start" dominant-baseline="alphabetic" xml:space="preserve">Client</text></g><g><path fill="white" stroke="black" paint-order="fill stroke markers" d=" M 651.7192345294714 741.3717167520181 A 24.2577769005 24.2577769005 0 1 1 651.7192224005839 741.3474589791605 M 601.8151884479714 767.851081301318 L 653.1077268099714 767.851081301318" stroke-miterlimit="10" stroke-width="2.7769845610000004" stroke-dasharray=""/></g><g><g/><text fill="black" stroke="none" font-family="sans-serif" font-size="11pt" font-style="normal" font-weight="normal" text-decoration="normal" x="598.9360593745769" y="710.2694896688181" text-anchor="start" dominant-baseline="alphabetic" xml:space="preserve">Backend</text></g><g><path fill="white" stroke="black" paint-order="fill stroke markers" d=" M 781.746865692547 763.032196327818 L 781.746865692547 728.7282693978179 L 829.4456593285469 728.7282693978179 L 829.4456593285469 763.032196327818" stroke-miterlimit="10" stroke-width="2.7769845610000004" stroke-dasharray=""/><path fill="white" stroke="black" paint-order="fill stroke markers" d=" M 829.4456593285469 727.5357995569179 L 829.4444668686432 727.6436101018346 L 829.4408896081771 727.7514098657865 L 829.4349279048719 727.8591880688873 L 829.4265823548925 727.9669339334064 L 829.4158537927873 728.0746366848471 L 829.4027432914035 728.1822855530239 L 829.3872521617802 728.28986977314 L 829.3693819530176 728.3973785868628 L 829.3491344521216 728.5048012434006 L 829.3265116838254 728.6121270005773 L 829.301515910387 728.7193451259064 L 829.274149631363 728.826444897665 L 829.2444155833584 728.9334156059651 L 829.2123167397533 729.040246553825 L 829.1778563104052 729.1469270582388 L 829.1410377413284 729.253446451245 L 829.1018647143491 729.3597940809933 L 829.0603411467373 729.4659593128092 L 829.0164711908153 729.5719315302579 L 828.9702592335419 729.677700136206 L 828.9217098960746 729.7832545538812 L 828.8708280333066 729.8885842279294 L 828.8176187333817 729.9936786254713 L 828.7620873171854 730.0985272371545 L 828.7042393378134 730.2031195782054 L 828.6440805800153 730.3074451894768 L 828.5816170596166 730.4114936384946 L 828.5168550229174 730.5152545205007 L 828.4498009460674 730.6187174594934 L 828.3804615344185 730.7218721092648 L 828.3088437218538 730.824708154436 L 828.2349546700951 730.9272153114883 L 828.1588017679861 731.0293833297914 L 828.0803926307533 731.1312019926283 L 827.9997350992452 731.232661118218 L 827.9168372391478 731.333750560732 L 827.8317073401779 731.4344602113108 L 827.7443539152545 731.534779999073 L 827.6547856996473 731.6346998921234 L 827.5630116501032 731.7342098985561 L 827.4690409439509 731.8333000674533 L 827.3728829781822 731.9319604898806 L 827.2745473685142 732.030181299878 L 827.1740439484254 732.1279526754465 L 827.0713827681742 732.2252648395299 L 826.9665740937932 732.322108060993 L 826.8596284060623 732.4184726555942 L 826.7505563994613 732.5143489869545 L 826.6393689811 732.6097274675204 L 826.5260772696274 732.7045985595237 L 826.4106925941205 732.7989527759339 L 826.2932264929505 732.8927806814082 L 826.1736907126295 732.9860728932342 L 826.0520972066363 733.0788200822684 L 825.9284581342199 733.1710129738693 L 825.8027858591845 733.2626423488244 L 825.6750929486531 733.3536990442727 L 825.54539217181 733.4441739546206 L 825.4136964986251 733.5340580324523 L 825.2800190985558 733.623342289435 L 825.1443733392309 733.7120177972173 L 825.0067727851131 733.8000756883224 L 824.8672311961432 733.8875071570346 L 824.7257625263638 733.97430346028 L 824.5823809225241 734.0604559185003 L 824.4371007226649 734.1459559165216 L 824.2899364546851 734.2307949044156 L 824.140902834889 734.3149643983538 L 823.990014766514 734.3984559814572 L 823.8372873382417 734.4812613046371 L 823.6827358226874 734.5633720874299 L 823.526375674874 734.6447801188261 L 823.3682225306857 734.7254772580902 L 823.2082922053054 734.8054554355756 L 823.0466006916322 734.884706653531 L 822.8831641586829 734.963222986901 L 822.7179989499743 735.0409965841174 L 822.55112158189 735.1180196678854 L 822.3825487420276 735.1942845359608 L 822.2122972875304 735.2697835619203 L 822.0403842434023 735.3445091959244 L 821.8668268008042 735.4184539654717 L 821.6916423153359 735.4916104761471 L 821.5148483052999 735.5639714123603 L 821.3364624499499 735.6355295380781 L 821.1565025877226 735.7062776975476 L 820.9749867144545 735.7762088160117 L 820.7919329815816 735.845315900417 L 820.6073596943246 735.9135920401123 L 820.4212853098584 735.9810304075409 L 820.2337284354664 736.047624258922 L 820.0447078266798 736.1133669349261 L 819.8542423854019 736.1782518613404 L 819.662351158018 736.2422725497263 L 819.4690533334913 736.3054225980683 L 819.2743682414427 736.367695691414 L 819.0783153502196 736.4290856025063 L 818.8809142649474 736.4895861924051 L 818.6821847255703 736.5491914111018 L 818.4821466048766 736.6078952981242 L 818.2808199065116 736.6656919831324 L 818.0782247629776 736.7225756865064 L 817.8743814336198 736.778540719923 L 817.6693103026015 736.8335814869255 L 817.4630318768648 736.8876924834832 L 817.2555667840804 736.9408682985414 L 817.0469357705847 736.993103614563 L 816.8371596993053 737.0443932080599 L 816.6262595476743 737.0947319501155 L 816.4142564055312 737.1441148068974 L 816.2011714730136 737.1925368401613 L 815.9870260584372 737.2399932077442 L 815.7718415761649 737.2864791640487 L 815.5556395444656 737.3319900605181 L 815.3384415833625 737.3765213461006 L 815.1202694124705 737.4200685677048 L 814.901144848825 737.4626273706447 L 814.6810898046996 737.5041934990755 L 814.4601262854155 737.5447627964193 L 814.2382763871406 737.5843312057797 L 814.0155622946795 737.622894770349 L 813.792006279256 737.6604496338028 L 813.5676306962856 737.6969920406863 L 813.3424579831393 737.7325183367889 L 813.1165106569009 737.7670249695107 L 812.8898113121147 737.8005084882172 L 812.6623826185263 737.8329655445847 L 812.4342473188154 737.8643928929342 L 812.2054282263222 737.8947873905573 L 811.9759482227648 737.9241459980294 L 811.7458302559528 737.9524657795145 L 811.5150973374907 737.9797439030576 L 811.2837725404784 738.0059776408696 L 811.0518789972025 738.0311643695982 L 810.8194398968244 738.0553015705916 L 810.5864784830603 738.07838683015 L 810.3530180518574 738.1004178397664 L 810.1190819490644 738.1213923963584 L 809.8846935680964 738.1413084024878 L 809.6498763475964 738.1601638665704 L 809.4146537690908 738.1779569030757 L 809.1790493546412 738.1946857327149 L 808.9430866644929 738.2103486826188 L 808.7067892947182 738.2249441865056 L 808.4701808748572 738.238470784837 L 808.2332850655546 738.2509271249645 L 807.9961255561941 738.2623119612645 L 807.7587260625289 738.2726241552626 L 807.5211103243105 738.2818626757484 L 807.2833021029148 738.2900265988773 L 807.0453251789658 738.2971151082637 L 806.8072033499574 738.3031274950628 L 806.5689604278742 738.3080631580408 L 806.3306202368099 738.3119216036356 L 806.0922066105849 738.3147024460058 L 805.8537433903631 738.3164054070694 L 805.615254422268 738.3170303165318 L 805.3767635549974 738.3165771119026 L 805.1382946374396 738.3150458385019 L 804.8998715162874 738.3124366494557 L 804.6615180336544 738.3087498056807 L 804.42325802469 738.3039856758583 L 804.1851153151968 738.2981447363974 L 803.9471137192471 738.2912275713871 L 803.7092770368023 738.2832348725383 L 803.4716290513323 738.2741674391141 L 803.2341935274378 738.2640261778502 L 802.9969942084731 738.2528121028644 L 802.7600548141727 738.2405263355548 L 802.5233990382784 738.227170104488 L 802.2870505461706 738.2127447452758 L 802.0510329725015 738.1972517004423 L 801.815369918832 738.1806925192789 L 801.5800849512708 738.16306885769 L 801.3452015981188 738.144382478027 L 801.1107433475155 738.1246352489122 L 800.8767336450907 738.1038291450525 L 800.6431958916193 738.0819662470404 L 800.4101534406824 738.0590487411479 L 800.1776295963307 738.0350789191062 L 799.9456476107548 738.0100591778778 L 799.7142306819602 737.9839920194157 L 799.4834019514467 737.9568800504142 L 799.2531845018951 737.9287259820476 L 799.0236013548586 737.8995326296991 L 798.7946754684602 737.8693029126798 L 798.5664297350983 737.8380398539362 L 798.3388869791556 737.8057465797481 L 798.1120699547183 737.7724263194158 L 797.8860013432999 737.7380824049379 L 797.6607037515729 737.702718270677 L 797.4361997091088 737.6663374530171 L 797.2125116661249 737.6289435900098 L 796.989661991239 737.59054042101 L 796.7676729692329 737.5511317863028 L 796.5465667988238 737.5107216267187 L 796.3263655904444 737.46931398324 L 796.1070913640323 737.4269129965966 L 795.8887660468271 737.3835229068518 L 795.6714114711787 737.3391480529784 L 795.4550493723636 737.2937928724249 L 795.2397013864113 737.2474619006714 L 795.0253890479411 737.2001597707765 L 794.8121337880079 737.1518912129139 L 794.5999569319605 737.1026610538992 L 794.3888796973072 737.052474216707 L 794.1789231915958 737.0013357199794 L 793.9701084103019 736.9492506775233 L 793.7624562347296 736.8962242977998 L 793.5559874299234 736.8422618834026 L 793.3507226425918 736.787368830528 L 793.1466823990423 736.7315506284356 L 792.9438871031293 736.6748128588993 L 792.7423570342136 736.6171611956485 L 792.5421123451339 736.5586014038016 L 792.3431730601923 736.4991393392891 L 792.1455590731515 736.4387809482677 L 791.9492901452456 736.3775322665263 L 791.7543859032038 736.315399418882 L 791.5608658372879 736.2523886185678 L 791.3687492993431 736.1885061666113 L 791.1780555008634 736.1237584512044 L 790.9888035110694 736.0581519470646 L 790.8010122550024 735.9916932147878 L 790.6147005116318 735.9243889001917 L 790.4298869119764 735.8562457336518 L 790.2465899372423 735.7872705294279 L 790.0648279169741 735.717470184983 L 789.8846190272226 735.6468516802933 L 789.7059812887263 735.5754220771504 L 789.5289325651104 735.5031885184551 L 789.3534905610995 735.4301582275032 L 789.1796728207481 735.3563385072629 L 789.0074967256852 735.2817367396445 L 788.8369794933768 735.2063603847629 L 788.6681381754042 735.1302169801905 L 788.5009896557583 735.0533141402045 L 788.335550649152 734.9756595550248 L 788.1718376993477 734.8972609900451 L 788.0098671775045 734.8181262850567 L 787.8496552805392 734.7382633534639 L 787.691218029508 734.6576801814936 L 787.5345712680042 734.5763848273957 L 787.3797306605734 734.4943854206379 L 787.2267116911471 734.4116901610925 L 787.0755296614948 734.3283073182166 L 786.9261996896935 734.2442452302249 L 786.778736708616 734.1595123032563 L 786.6331554644374 734.0741170105329 L 786.489470515161 733.9880678915125 L 786.3476962291618 733.9013735510357 L 786.2078467837504 733.814042658464 L 786.0699361637546 733.726083946814 L 785.9339781601216 733.6375062118836 L 785.7999863685385 733.5483183113724 L 785.6679741880728 733.4585291639963 L 785.5379548198324 733.368147748595 L 785.4099412656459 733.2771831032347 L 785.283946326762 733.1856443243045 L 785.1599826025697 733.0935405656055 L 785.038062489338 733.0008810374371 L 784.9181981789766 732.907675005675 L 784.8004016578167 732.8139317908444 L 784.6846847054122 732.719660767189 L 784.571058893362 732.6248713617324 L 784.4595355841526 732.5295730533361 L 784.3501259300219 732.4337753717517 L 784.2428408718442 732.3374878966675 L 784.137691138036 732.2407202567507 L 784.034687243483 732.1434821286846 L 783.9338394884886 732.045783236201 L 783.8351579577445 731.947633349108 L 783.7386525193216 731.8490422823121 L 783.6443328236832 731.750019894838 L 783.5522083027201 731.6505760888421 L 783.462288168808 731.5507208086219 L 783.374581413885 731.4504640396223 L 783.2890968085537 731.3498158074366 L 783.2058429012035 731.2487861768042 L 783.1248280171554 731.147385250604 L 783.0460602578306 731.0456231688439 L 782.9695474999394 730.9435101076476 L 782.8952973946936 730.841056278236 L 782.823317367042 730.7382719259066 L 782.7536146149273 730.635167329009 L 782.6861961085668 730.5317527979171 L 782.6210685897548 730.4280386739975 L 782.5582385711889 730.3240353285767 L 782.4977123358187 730.219753161902 L 782.4394959362172 730.1152026021035 L 782.383595193976 730.01039410415 L 782.3300156991226 729.9053381488038 L 782.2787628095617 729.8000452415732 L 782.2298416505399 729.6945259116609 L 782.1832571141321 729.5887907109121 L 782.1390138587532 729.4828502127586 L 782.0971163086917 729.3767150111622 L 782.057568653668 729.2703957195545 L 782.0203748484143 729.1639029697759 L 781.9855386122805 729.0572474110128 L 781.9530634288608 728.9504397087322 L 781.9229525456468 728.8434905436153 L 781.8952089737015 728.7364106104894 L 781.8698354873592 728.6292106172587 L 781.8468346239472 728.521901283833 L 781.8262086835327 728.4144933410565 L 781.8079597286926 728.3069975296338 L 781.7920895843072 728.1994245990566 L 781.7785998373777 728.091785306528 L 781.7674918368674 727.9840904158879 L 781.7587666935674 727.8763506965354 L 781.7524252799844 727.7685769223527 L 781.7484682302548 727.6607798706275 L 781.7468959400801 727.5529703209751 L 781.7477085666881 727.4451590542606 L 781.7509060288166 727.3373568515208 L 781.7564880067223 727.2295744928862 L 781.764453942212 727.1218227565028 L 781.7748030386987 727.0141124174544 L 781.7875342612815 726.9064542466853 L 781.8026463368486 726.7988590099227 L 781.8201377542052 726.6913374666008 L 781.840006764224 726.583900368784 L 781.8622513800207 726.476558460093 L 781.8868693771522 726.3693224746289 L 781.9138582938391 726.2622031359009 L 781.9432154312125 726.1552111557538 L 781.974937853583 726.0483572332962 L 782.0090223887349 725.9416520538315 L 782.0454656282429 725.8351062877887 L 782.0842639278137 725.7287305896555 L 782.1254134076494 725.6225355969132 L 782.1689099528364 725.5165319289724 L 782.2147492137565 725.4107301861118 L 782.2629266065217 725.3051409484174 L 782.3134373134329 725.1997747747249 L 782.3662762834615 725.0946422015639 L 782.4214382327547 724.9897537421043 L 782.4789176451633 724.8851198851044 L 782.538708772794 724.7807510938628 L 782.6008056365839 724.6766578051715 L 782.6652020268984 724.572850428273 L 782.7318915041523 724.4693393438181 L 782.8008673994531 724.3661349028292 L 782.8721228152689 724.2632474256643 L 782.9456506261175 724.1606872009854 L 783.0214434792791 724.0584644847295 L 783.0994937955315 723.9565894990831 L 783.1797937699083 723.8550724314598 L 783.2623353724787 723.7539234334818 L 783.3471103491514 723.6531526199645 L 783.4341102224994 723.5527700679055 L 783.5233262926077 723.4527858154761 L 783.6147496379439 723.3532098610184 L 783.7083711162494 723.2540521620448 L 783.8041813654544 723.1553226342426 L 783.902170804614 723.0570311504822 L 784.0023296348659 722.9591875398303 L 784.1046478404104 722.8618015865661 L 784.2091151895122 722.764883029204 L 784.3157212355237 722.668441559519 L 784.424455317929 722.5724868215776 L 784.5353065634102 722.4770284107736 L 784.6482638869356 722.3820758728687 L 784.7633159928668 722.2876387030374 L 784.8804513760889 722.193726344918 L 784.9996583231613 722.100348189668 L 785.1209249134887 722.0075135750253 L 785.2442390205131 721.915231784374 L 785.3695883129266 721.823512045816 L 785.4969602559042 721.7323635312489 L 785.6263421123581 721.6417953554483 L 785.7577209442102 721.5518165751561 L 785.8910836136868 721.4624361881754 L 786.0264167846321 721.3736631324706 L 786.163706923842 721.285506285273 L 786.3029403024168 721.1979744621941 L 786.4441029971347 721.1110764163432 L 786.5871808918438 721.0248208374522 L 786.7321596788739 720.9392163510076 L 786.8790248604672 720.8542715173865 L 787.0277617502279 720.7699948310012 L 787.1783554745908 720.6863947194505 L 787.3307909743093 720.6034795426756 L 787.48505300596 720.5212575921254 L 787.6411261434687 720.4397370899261 L 787.7989947796515 720.3589261880602 L 787.9586431277764 720.2788329675504 L 788.1200552231415 720.1994654376522 L 788.283214924672 720.1208315350522 L 788.4481059165336 720.0429391230754 L 788.6147117097645 719.9657959908978 L 788.7830156439243 719.8894098527686 L 788.9530008887596 719.8137883472378 L 789.1246504458878 719.738939036393 L 789.2979471504963 719.6648694051029 L 789.4728736730588 719.5915868602689 L 789.6494125210689 719.5190987300844 L 789.827546040789 719.447412263302 L 790.0072564190156 719.3765346285087 L 790.1885256848605 719.3064729134088 L 790.3713357115481 719.2372341241156 L 790.5556682182283 719.1688251844502 L 790.7415047718041 719.1012529352496 L 790.9288267887747 719.0345241336823 L 791.1176155370946 718.9686454525731 L 791.3078521380464 718.903623479735 L 791.4995175681286 718.8394647173112 L 791.6925926609576 718.7761755811243 L 791.8870581091853 718.7137624000354 L 792.0828944664289 718.6522314153106 L 792.2800821492157 718.591588779997 L 792.478601438942 718.5318405583075 L 792.678432483844 718.4729927250146 L 792.8795553009837 718.4150511648527 L 793.0819497782473 718.3580216719292 L 793.2855956763557 718.3019099491463 L 793.4904726308885 718.2467216076292 L 793.6965601543211 718.1924621661661 L 793.903837638073 718.139137050656 L 794.1122843545685 718.0867515935661 L 794.3218794593097 718.0353110333983 L 794.5326019929606 717.9848205141658 L 794.7444308834437 717.9352850848784 L 794.9573449480463 717.8867096990379 L 795.1713228955394 717.8390992141423 L 795.3863433283067 717.7924583912003 L 795.6023847444839 717.7467918942556 L 795.8194255401094 717.7021042899196 L 796.0374440112847 717.6584000469155 L 796.2564183563443 717.6156835356314 L 796.476326678036 717.5739590276826 L 796.6971469857112 717.5332306954853 L 796.9188571975229 717.4935026118386 L 797.1414351426348 717.454778749518 L 797.3648585634378 717.4170629808772 L 797.589105117776 717.3803590774618 L 797.8141523811809 717.3446707096315 L 798.0399778491136 717.3100014461934 L 798.2665589392157 717.2763547540447 L 798.4938729935668 717.243733997827 L 798.7218972809509 717.2121424395884 L 798.9506089991294 717.1815832384585 L 799.179985277121 717.1520594503321 L 799.4100031774891 717.1235740275632 L 799.6406396986353 717.0961298186704 L 799.8718717770996 717.0697295680517 L 800.1036762898669 717.0443759157102 L 800.3360300566793 717.02007139699 L 800.5689098423535 716.9968184423227 L 800.8022923591051 716.9746193769845 L 801.0361542688769 716.9534764208632 L 801.2704721856727 716.9333916882371 L 801.5052226778962 716.9143671875624 L 801.7403822706938 716.8964048212736 L 801.9759274483022 716.8795063855921 L 802.2118346563998 716.8636735703476 L 802.4480803044626 716.8489079588084 L 802.6846407681223 716.8352110275231 L 802.9214923915301 716.8225841461738 L 803.1586114897208 716.8110285774378 L 803.3959743509822 716.8005454768626 L 803.633557239226 716.7911358927493 L 803.8713363963612 716.7828007660486 L 804.1092880446706 716.7755409302662 L 804.3473883891874 716.7693571113795 L 804.5856136200755 716.7642499277655 L 804.8239399150106 716.760219890138 L 805.0623434415616 716.7572674014976 L 805.3008003595744 716.7553927570908 L 805.5392868235563 716.7545961443802 L 805.7777789850593 716.7548776430266 L 806.0162529950661 716.7562372248804 L 806.2546850063745 716.7586747539842 L 806.493051175982 716.7621899865876 L 806.7313276674703 716.7667825711701 L 806.9694906533888 716.7724520484769 L 807.2075163176373 716.7791978515652 L 807.4453808578478 716.7870193058601 L 807.6830604877645 716.7959156292229 L 807.9205314396226 716.8058859320286 L 808.1577699665245 716.8169292172553 L 808.3947523448154 716.8290443805835 L 808.631454876455 716.8422302105071 L 808.8678538913873 716.856485388454 L 809.103925749908 716.8718084889184 L 809.3396468450276 716.888197979603 L 809.5749936048333 716.9056522215724 L 809.8099424948451 716.9241694694168 L 810.0444700203699 716.9437478714269 L 810.2785527288506 716.964385469779 L 810.5121672122114 716.9860802007304 L 810.7452901091984 717.0088298948258 L 810.9778981077166 717.0326322771151 L 811.2099679471596 717.0574849673798 L 811.4414764207371 717.0833854803715 L 811.6724003777946 717.1103312260605 L 811.9027167261288 717.1383195098948 L 812.1324024342968 717.1673475330692 L 812.3614345339191 717.1974123928056 L 812.5897901219768 717.2285110826432 L 812.8174463631012 717.2606404927388 L 813.044380491858 717.2937974101783 L 813.2705698150234 717.3279785192975 L 813.4959917138536 717.3631804020139 L 813.7206236463466 717.3993995381686 L 813.9444431494962 717.4366323058783 L 814.1674278415388 717.4748749818971 L 814.3895554241908 717.5141237419894 L 814.6108036848793 717.5543746613117 L 814.8311504989624 717.5956237148058 L 815.0505738319423 717.6378667776007 L 815.2690517416687 717.6810996254252 L 815.4865623805326 717.7253179350307 L 815.7030839976514 717.770517284623 L 815.9185949410438 717.8166931543047 L 816.1330736597951 717.8638409265276 L 816.3464987062121 717.9119558865535 L 816.558848737968 717.9610332229266 L 816.7701025202367 718.0110680279543 L 816.9802389278159 718.0620552981975 L 817.1892369472399 718.1139899349719 L 817.3970756788812 718.1668667448569 L 817.6037343390394 718.2206804402157 L 817.8091922620212 718.2754256397237 L 818.0134289022051 718.3310968689063 L 818.2164238360974 718.3876885606874 L 818.418156764374 718.4451950559445 L 818.6186075139101 718.5036106040762 L 818.8177560397977 718.5629293635766 L 819.0155824273503 718.6231454026188 L 819.2120668940939 718.6842526996493 L 819.4071897917457 718.7462451439892 L 819.6009316081785 718.8091165364459 L 819.7932729693719 718.8728605899323 L 819.9841946413503 718.9374709300964 L 820.1736775321054 719.0029410959579 L 820.3617026935063 719.0692645405549 L 820.5482513231934 719.1364346315979 L 820.7333047664591 719.2044446521342 L 820.9168445181134 719.2732878012181 L 821.0988522243341 719.3429571945921 L 821.2793096845022 719.4134458653751 L 821.458198853022 719.4847467647587 L 821.6355018411258 719.5568527627122 L 821.8112009186626 719.6297566486961 L 821.985278515871 719.7034511323825 L 822.1577172251363 719.7779288443843 L 822.3284998027312 719.8531823369925 L 822.4976091705405 719.9292040849206 L 822.6650284177681 720.005986486057 L 822.830740802629 720.0835218622258 L 822.9947297540226 720.1618024599538 L 823.1569788731906 720.2408204512466 L 823.3174719353563 720.3205679343706 L 823.4761928913471 720.4010369346444 L 823.6331258691996 720.4822194052348 L 823.7882551757469 720.5641072279623 L 823.9415652981878 720.646692214113 L 824.0930409056375 720.7299661052571 L 824.2426668506616 720.8139205740748 L 824.3904281707904 720.8985472251893 L 824.5363100900149 720.983837596006 L 824.6802980202648 721.0697831575587 L 824.822377562867 721.1563753153631 L 824.9625345099857 721.2436054102754 L 825.100754846043 721.331464719359 L 825.2370247491203 721.4199444567561 L 825.3713305923411 721.5090357745667 L 825.5036589452329 721.5987297637331 L 825.6339965750706 721.6890174549313 L 825.7623304481999 721.7798898194675 L 825.8886477313406 721.8713377701808 L 826.0129357928693 721.9633521623525 L 826.1351822040837 722.0559237946198 L 826.2553747404444 722.149043409897 L 826.373501382798 722.2427016962998 L 826.4895503185787 722.3368892880778 L 826.6035099429896 722.4315967665502 L 826.7153688601633 722.5268146610483 L 826.8251158843011 722.6225334498617 L 826.9327400407923 722.7187435611916 L 827.0382305673107 722.8154353741068 L 827.1415769148917 722.9125992195065 L 827.2427687489867 723.0102253810875 L 827.3417959504966 723.1083040963147 L 827.4386486167836 723.2068255573984 L 827.5333170626619 723.3057799122745 L 827.6257918213659 723.4051572655901 L 827.7160636454967 723.5049476796927 L 827.804123507947 723.605141175624 L 827.8899626028041 723.7057277341179 L 827.9735723462301 723.8066972966022 L 828.05494437732 723.9080397662052 L 828.1340705589389 724.009745008764 L 828.2109429785344 724.1118028538392 L 828.2855539489285 724.2142030957315 L 828.3578960090865 724.3169354945019 L 828.4279619248628 724.4199897769962 L 828.4957446897238 724.5233556378719 L 828.5612375254498 724.6270227406292 L 828.6244338828117 724.7309807186441 L 828.6853274422264 724.8352191762056 L 828.7439121143888 724.9397276895546 L 828.8001820408804 725.044495807927 L 828.8541315947556 725.1495130545982 L 828.9057553811039 725.2547689279311 L 828.9550482375895 725.3602529024259 L 829.0020052349681 725.4659544297734 L 829.046621677579 725.5718629399087 L 829.088893103815 725.6779678420689 L 829.1288152865689 725.7842585258527 L 829.1663842336555 725.8907243622798 L 829.2015961882115 725.9973547048555 L 829.2344476290709 726.1041388906344 L 829.2649352711168 726.2110662412869 L 829.2930560656105 726.3181260641669 L 829.3188072004958 726.4253076533817 L 829.342186100681 726.5326002908612 L 829.3631904282953 726.6399932474313 L 829.3818180829236 726.747475783886 L 829.3980672018158 726.8550371520611 L 829.4119361600738 726.9626665959092 L 829.423423570813 727.0703533525759 L 829.4325282853022 727.1780866534752 L 829.4392493930774 727.2858557253667 L 829.4435862220333 727.3936497914331 L 829.4455383384909 727.5014580723575 M 829.4456593285469 761.839726486918 L 829.4444668686432 761.9475370318347 L 829.4408896081771 762.0553367957866 L 829.4349279048719 762.1631149988874 L 829.4265823548925 762.2708608634065 L 829.4158537927873 762.3785636148472 L 829.4027432914035 762.486212483024 L 829.3872521617802 762.5937967031401 L 829.3693819530176 762.7013055168629 L 829.3491344521216 762.8087281734007 L 829.3265116838254 762.9160539305774 L 829.301515910387 763.0232720559065 L 829.274149631363 763.1303718276652 L 829.2444155833584 763.2373425359652 L 829.2123167397533 763.3441734838251 L 829.1778563104052 763.4508539882389 L 829.1410377413284 763.5573733812453 L 829.1018647143491 763.6637210109934 L 829.0603411467373 763.7698862428093 L 829.0164711908153 763.875858460258 L 828.9702592335419 763.9816270662061 L 828.9217098960746 764.0871814838813 L 828.8708280333066 764.1925111579295 L 828.8176187333817 764.2976055554714 L 828.7620873171854 764.4024541671546 L 828.7042393378134 764.5070465082055 L 828.6440805800153 764.6113721194769 L 828.5816170596166 764.7154205684947 L 828.5168550229174 764.8191814505008 L 828.4498009460674 764.9226443894935 L 828.3804615344185 765.0257990392649 L 828.3088437218538 765.1286350844362 L 828.2349546700951 765.2311422414884 L 828.1588017679861 765.3333102597915 L 828.0803926307533 765.4351289226285 L 827.9997350992452 765.536588048218 L 827.9168372391478 765.6376774907321 L 827.8317073401779 765.7383871413109 L 827.7443539152545 765.838706929073 L 827.6547856996473 765.9386268221235 L 827.5630116501032 766.0381368285562 L 827.4690409439509 766.1372269974534 L 827.3728829781822 766.2358874198807 L 827.2745473685142 766.3341082298781 L 827.1740439484254 766.4318796054466 L 827.0713827681742 766.52919176953 L 826.9665740937932 766.626034990993 L 826.8596284060623 766.7223995855943 L 826.7505563994613 766.8182759169546 L 826.6393689811 766.9136543975205 L 826.5260772696274 767.0085254895238 L 826.4106925941205 767.102879705934 L 826.2932264929505 767.1967076114083 L 826.1736907126295 767.2899998232343 L 826.0520972066363 767.3827470122685 L 825.9284581342199 767.4749399038694 L 825.8027858591845 767.5665692788245 L 825.6750929486531 767.6576259742728 L 825.54539217181 767.7481008846207 L 825.4136964986251 767.8379849624524 L 825.2800190985558 767.9272692194351 L 825.1443733392309 768.0159447272174 L 825.0067727851131 768.1040026183225 L 824.8672311961432 768.1914340870347 L 824.7257625263638 768.2782303902801 L 824.5823809225241 768.3643828485004 L 824.4371007226649 768.4498828465217 L 824.2899364546851 768.5347218344157 L 824.140902834889 768.6188913283539 L 823.990014766514 768.7023829114573 L 823.8372873382417 768.7851882346372 L 823.6827358226874 768.86729901743 L 823.526375674874 768.9487070488262 L 823.3682225306857 769.0294041880903 L 823.2082922053054 769.1093823655757 L 823.0466006916322 769.1886335835311 L 822.8831641586829 769.2671499169011 L 822.7179989499743 769.3449235141175 L 822.55112158189 769.4219465978855 L 822.3825487420276 769.4982114659609 L 822.2122972875304 769.5737104919205 L 822.0403842434023 769.6484361259245 L 821.8668268008042 769.7223808954718 L 821.6916423153359 769.7955374061472 L 821.5148483052999 769.8678983423604 L 821.3364624499499 769.9394564680782 L 821.1565025877226 770.0102046275478 L 820.9749867144545 770.0801357460118 L 820.7919329815816 770.149242830417 L 820.6073596943246 770.2175189701125 L 820.4212853098584 770.284957337541 L 820.2337284354664 770.3515511889221 L 820.0447078266798 770.4172938649263 L 819.8542423854019 770.4821787913405 L 819.662351158018 770.5461994797264 L 819.4690533334913 770.6093495280684 L 819.2743682414427 770.6716226214141 L 819.0783153502196 770.7330125325065 L 818.8809142649474 770.7935131224052 L 818.6821847255703 770.8531183411019 L 818.4821466048766 770.9118222281243 L 818.2808199065116 770.9696189131325 L 818.0782247629776 771.0265026165065 L 817.8743814336198 771.082467649923 L 817.6693103026015 771.1375084169256 L 817.4630318768648 771.1916194134833 L 817.2555667840804 771.2447952285415 L 817.0469357705847 771.2970305445631 L 816.8371596993053 771.34832013806 L 816.6262595476743 771.3986588801156 L 816.4142564055312 771.4480417368975 L 816.2011714730136 771.4964637701614 L 815.9870260584372 771.5439201377443 L 815.7718415761649 771.5904060940488 L 815.5556395444656 771.6359169905182 L 815.3384415833625 771.6804482761007 L 815.1202694124705 771.7239954977049 L 814.901144848825 771.7665543006448 L 814.6810898046996 771.8081204290756 L 814.4601262854155 771.8486897264194 L 814.2382763871406 771.8882581357798 L 814.0155622946795 771.9268217003491 L 813.792006279256 771.964376563803 L 813.5676306962856 772.0009189706864 L 813.3424579831393 772.036445266789 L 813.1165106569009 772.0709518995108 L 812.8898113121147 772.1044354182175 L 812.6623826185263 772.1368924745848 L 812.4342473188154 772.1683198229343 L 812.2054282263222 772.1987143205574 L 811.9759482227648 772.2280729280295 L 811.7458302559528 772.2563927095146 L 811.5150973374907 772.2836708330577 L 811.2837725404784 772.3099045708697 L 811.0518789972025 772.3350912995983 L 810.8194398968244 772.3592285005917 L 810.5864784830603 772.38231376015 L 810.3530180518574 772.4043447697665 L 810.1190819490644 772.4253193263585 L 809.8846935680964 772.4452353324879 L 809.6498763475964 772.4640907965705 L 809.4146537690908 772.4818838330758 L 809.1790493546412 772.498612662715 L 808.9430866644929 772.5142756126189 L 808.7067892947182 772.5288711165057 L 808.4701808748572 772.5423977148371 L 808.2332850655546 772.5548540549646 L 807.9961255561941 772.5662388912646 L 807.7587260625289 772.5765510852627 L 807.5211103243105 772.5857896057485 L 807.2833021029148 772.5939535288774 L 807.0453251789658 772.6010420382638 L 806.8072033499574 772.6070544250629 L 806.5689604278742 772.6119900880409 L 806.3306202368099 772.6158485336357 L 806.0922066105849 772.6186293760059 L 805.8537433903631 772.6203323370695 L 805.615254422268 772.6209572465319 L 805.3767635549974 772.6205040419027 L 805.1382946374396 772.618972768502 L 804.8998715162874 772.6163635794558 L 804.6615180336544 772.6126767356807 L 804.42325802469 772.6079126058584 L 804.1851153151968 772.6020716663975 L 803.9471137192471 772.5951545013872 L 803.7092770368023 772.5871618025384 L 803.4716290513323 772.5780943691142 L 803.2341935274378 772.5679531078503 L 802.9969942084731 772.5567390328645 L 802.7600548141727 772.5444532655549 L 802.5233990382784 772.5310970344881 L 802.2870505461706 772.5166716752759 L 802.0510329725015 772.5011786304424 L 801.815369918832 772.484619449279 L 801.5800849512708 772.46699578769 L 801.3452015981188 772.4483094080271 L 801.1107433475155 772.4285621789123 L 800.8767336450907 772.4077560750526 L 800.6431958916193 772.3858931770405 L 800.4101534406824 772.362975671148 L 800.1776295963307 772.3390058491063 L 799.9456476107548 772.3139861078779 L 799.7142306819602 772.2879189494158 L 799.4834019514467 772.2608069804143 L 799.2531845018951 772.2326529120477 L 799.0236013548586 772.2034595596992 L 798.7946754684602 772.1732298426799 L 798.5664297350983 772.1419667839363 L 798.3388869791556 772.1096735097482 L 798.1120699547183 772.0763532494159 L 797.8860013432999 772.042009334938 L 797.6607037515729 772.0066452006771 L 797.4361997091088 771.9702643830173 L 797.2125116661249 771.9328705200099 L 796.989661991239 771.8944673510101 L 796.7676729692329 771.8550587163029 L 796.5465667988238 771.8146485567188 L 796.3263655904444 771.7732409132401 L 796.1070913640323 771.7308399265967 L 795.8887660468271 771.6874498368519 L 795.6714114711787 771.6430749829785 L 795.4550493723636 771.597719802425 L 795.2397013864113 771.5513888306715 L 795.0253890479411 771.5040867007766 L 794.8121337880079 771.455818142914 L 794.5999569319605 771.4065879838993 L 794.3888796973072 771.3564011467071 L 794.1789231915958 771.3052626499795 L 793.9701084103019 771.2531776075234 L 793.7624562347296 771.2001512277999 L 793.5559874299234 771.1461888134027 L 793.3507226425918 771.091295760528 L 793.1466823990423 771.0354775584357 L 792.9438871031293 770.9787397888994 L 792.7423570342136 770.9210881256486 L 792.5421123451339 770.8625283338017 L 792.3431730601923 770.8030662692892 L 792.1455590731515 770.7427078782678 L 791.9492901452456 770.6814591965264 L 791.7543859032038 770.619326348882 L 791.5608658372879 770.5563155485679 L 791.3687492993431 770.4924330966114 L 791.1780555008634 770.4276853812045 L 790.9888035110694 770.3620788770647 L 790.8010122550024 770.2956201447879 L 790.6147005116318 770.2283158301918 L 790.4298869119764 770.1601726636519 L 790.2465899372423 770.091197459428 L 790.0648279169741 770.0213971149831 L 789.8846190272226 769.9507786102934 L 789.7059812887263 769.8793490071505 L 789.5289325651104 769.8071154484552 L 789.3534905610995 769.7340851575033 L 789.1796728207481 769.660265437263 L 789.0074967256852 769.5856636696446 L 788.8369794933768 769.510287314763 L 788.6681381754042 769.4341439101906 L 788.5009896557583 769.3572410702046 L 788.335550649152 769.2795864850249 L 788.1718376993477 769.2011879200452 L 788.0098671775045 769.1220532150568 L 787.8496552805392 769.042190283464 L 787.691218029508 768.9616071114937 L 787.5345712680042 768.8803117573958 L 787.3797306605734 768.798312350638 L 787.2267116911471 768.7156170910926 L 787.0755296614948 768.6322342482167 L 786.9261996896935 768.548172160225 L 786.778736708616 768.4634392332564 L 786.6331554644374 768.378043940533 L 786.489470515161 768.2919948215126 L 786.3476962291618 768.2053004810358 L 786.2078467837504 768.1179695884641 L 786.0699361637546 768.0300108768141 L 785.9339781601216 767.9414331418837 L 785.7999863685385 767.8522452413725 L 785.6679741880728 767.7624560939964 L 785.5379548198324 767.6720746785951 L 785.4099412656459 767.5811100332348 L 785.283946326762 767.4895712543046 L 785.1599826025697 767.3974674956056 L 785.038062489338 767.3048079674372 L 784.9181981789766 767.211601935675 L 784.8004016578167 767.1178587208445 L 784.6846847054122 767.0235876971891 L 784.571058893362 766.9287982917325 L 784.4595355841526 766.8334999833362 L 784.3501259300219 766.7377023017518 L 784.2428408718442 766.6414148266676 L 784.137691138036 766.5446471867508 L 784.034687243483 766.4474090586847 L 783.9338394884886 766.3497101662011 L 783.8351579577445 766.251560279108 L 783.7386525193216 766.1529692123122 L 783.6443328236832 766.0539468248381 L 783.5522083027201 765.9545030188422 L 783.462288168808 765.854647738622 L 783.374581413885 765.7543909696224 L 783.2890968085537 765.6537427374367 L 783.2058429012035 765.5527131068043 L 783.1248280171554 765.4513121806041 L 783.0460602578306 765.349550098844 L 782.9695474999394 765.2474370376477 L 782.8952973946936 765.1449832082361 L 782.823317367042 765.0421988559067 L 782.7536146149273 764.9390942590092 L 782.6861961085668 764.8356797279172 L 782.6210685897548 764.7319656039977 L 782.5582385711889 764.6279622585768 L 782.4977123358187 764.5236800919021 L 782.4394959362172 764.4191295321036 L 782.383595193976 764.3143210341501 L 782.3300156991226 764.2092650788039 L 782.2787628095617 764.1039721715733 L 782.2298416505399 763.998452841661 L 782.1832571141321 763.8927176409122 L 782.1390138587532 763.7867771427588 L 782.0971163086917 763.6806419411623 L 782.057568653668 763.5743226495546 L 782.0203748484143 763.467829899776 L 781.9855386122805 763.3611743410129 L 781.9530634288608 763.2543666387323 L 781.9229525456468 763.1474174736154 L 781.8952089737015 763.0403375404895 L 781.8698354873592 762.9331375472588 L 781.8468346239472 762.8258282138331 L 781.8262086835327 762.7184202710566 L 781.8079597286926 762.6109244596339 L 781.7920895843072 762.5033515290567 L 781.7785998373777 762.3957122365281 L 781.7674918368674 762.288017345888 L 781.7587666935674 762.1802776265355 L 781.7524252799844 762.0725038523528 L 781.7484682302548 761.9647068006276 L 781.7468959400801 761.8568972509752" stroke-miterlimit="10" stroke-width="2.7769845610000004" stroke-dasharray=""/></g><g><g/><text fill="black" stroke="none" font-family="sans-serif" font-size="11pt" font-style="normal" font-weight="normal" text-decoration="normal" x="774.2183175642579" y="710.2694896688181" text-anchor="start" dominant-baseline="alphabetic" xml:space="preserve">Database</text></g></g><g><path fill="white" stroke="black" paint-order="fill stroke markers" d=" M 28.528976440429688 182.64242307881818 L 44.86417974042969 182.64242307881818 L 44.86417974042969 636.7610748188181 L 28.528976440429688 636.7610748188181 L 28.528976440429688 182.64242307881818" stroke-miterlimit="10" stroke-width="1.3612669416666667" stroke-dasharray=""/><path fill="white" stroke="black" paint-order="fill stroke markers" d=" M 331.97512165403646 182.64242307881818 L 348.31032495403645 182.64242307881818 L 348.31032495403645 636.7610748188181 L 331.97512165403646 636.7610748188181 L 331.97512165403646 182.64242307881818" stroke-miterlimit="10" stroke-width="1.3612669416666667" stroke-dasharray=""/><path fill="white" stroke="black" paint-order="fill stroke markers" d=" M 619.2938559789714 319.8581307988182 L 635.6290592789715 319.8581307988182 L 635.6290592789715 591.0225055788181 L 619.2938559789714 591.0225055788181 L 619.2938559789714 319.8581307988182" stroke-miterlimit="10" stroke-width="1.3612669416666667" stroke-dasharray=""/><path fill="white" stroke="black" paint-order="fill stroke markers" d=" M 797.4286608605469 432.5710335688182 L 813.763864160547 432.5710335688182 L 813.763864160547 545.2839363388182 L 797.4286608605469 545.2839363388182 L 797.4286608605469 432.5710335688182" stroke-miterlimit="10" stroke-width="1.3612669416666667" stroke-dasharray=""/><g><text fill="black" stroke="none" font-family="sans-serif" font-size="16pt" font-style="normal" font-weight="normal" text-decoration="normal" x="314.6391067504883" y="24.651306798181814" text-anchor="start" dominant-baseline="alphabetic" xml:space="preserve">Phnquynngidngvonh</text></g><g><rect fill="white" stroke="none" x="84.77756722371744" y="161.4066587888182" width="207.28416694703125" height="21.23576429"/><text fill="black" stroke="none" font-family="sans-serif" font-size="11pt" font-style="normal" font-weight="normal" text-decoration="normal" x="87.22784771871744" y="176.10834175881817" text-anchor="start" dominant-baseline="alphabetic" xml:space="preserve">Truycpvotrangphnquyn</text></g><g><path fill="none" stroke="black" paint-order="fill stroke markers" d=" M 44.86417974042969 182.64242307881818 L 318.5258042703698 182.64242307881818" stroke-miterlimit="10" stroke-width="1.3612669416666667" stroke-dasharray=""/><g transform="translate(331.97512165403646,182.64242307881818) translate(-331.97512165403646,-182.64242307881818)"><path fill="black" stroke="none" paint-order="stroke fill markers" d=" M 318.3624522373698 175.83608837048484 L 331.97512165403646 182.64242307881818 L 318.3624522373698 189.44875778715152 Z"/></g></g><g><rect fill="white" stroke="none" x="64.19417031209635" y="207.1452280288182" width="248.45096077027344" height="21.23576429"/><text fill="black" stroke="none" font-family="sans-serif" font-size="11pt" font-style="normal" font-weight="normal" text-decoration="normal" x="66.64445080709635" y="221.84691099881817" text-anchor="start" dominant-baseline="alphabetic" xml:space="preserve">Hinthformphnquynngidng</text></g><g><path fill="none" stroke="black" paint-order="fill stroke markers" d=" M 331.97512165403646 228.3809923188182 L 58.31349712409636 228.3809923188182" stroke-miterlimit="10" stroke-width="1.3612669416666667" stroke-dasharray="6.53408132"/><g transform="translate(44.86417974042969,228.3809923188182) translate(-44.86417974042969,-228.3809923188182)"><path fill="black" stroke="none" paint-order="stroke fill markers" d=" M 58.47684915709636 221.57465761048485 L 44.86417974042969 228.3809923188182 L 58.47684915709636 235.18732702715153 Z"/></g></g><g><rect fill="white" stroke="none" x="96.78542550008463" y="252.88379726881823" width="183.26845039429688" height="21.23576429"/><text fill="black" stroke="none" font-family="sans-serif" font-size="11pt" font-style="normal" font-weight="normal" text-decoration="normal" x="99.23570599508463" y="267.5854802388182" text-anchor="start" dominant-baseline="alphabetic" xml:space="preserve">Chnngidngvquyn</text></g><g><path fill="none" stroke="black" paint-order="fill stroke markers" d=" M 44.86417974042969 274.1195615588182 L 318.5258042703698 274.1195615588182" stroke-miterlimit="10" stroke-width="1.3612669416666667" stroke-dasharray=""/><g transform="translate(331.97512165403646,274.1195615588182) translate(-331.97512165403646,-274.1195615588182)"><path fill="black" stroke="none" paint-order="stroke fill markers" d=" M 318.3624522373698 267.31322685048485 L 331.97512165403646 274.1195615588182 L 318.3624522373698 280.92589626715153 Z"/></g></g><g><rect fill="white" stroke="none" x="398.60666226642576" y="298.6223665088182" width="170.39085640015625" height="21.23576429"/><text fill="black" stroke="none" font-family="sans-serif" font-size="11pt" font-style="normal" font-weight="normal" text-decoration="normal" x="401.0569427614258" y="313.32404947881815" text-anchor="start" dominant-baseline="alphabetic" xml:space="preserve">Githngtinphnquyn</text></g><g><path fill="none" stroke="black" paint-order="fill stroke markers" d=" M 348.31032495403645 319.8581307988182 L 605.8445385953047 319.8581307988182" stroke-miterlimit="10" stroke-width="1.3612669416666667" stroke-dasharray=""/><g transform="translate(619.2938559789714,319.8581307988182) translate(-619.2938559789714,-319.8581307988182)"><path fill="black" stroke="none" paint-order="stroke fill markers" d=" M 605.6811865623047 313.05179609048486 L 619.2938559789714 319.8581307988182 L 605.6811865623047 326.66446550715153 Z"/></g></g><g><rect fill="white" stroke="none" x="654.9590498506382" y="344.36093574881824" width="123.919848099375" height="21.23576429"/><text fill="black" stroke="none" font-family="sans-serif" font-size="11pt" font-style="normal" font-weight="normal" text-decoration="normal" x="657.4093303456382" y="359.0626187188182" text-anchor="start" dominant-baseline="alphabetic" xml:space="preserve">Xcthcthngtin</text></g><g><path fill="none" stroke="black" paint-order="fill stroke markers" d=" M 635.6290592789715 365.5967000388182 L 700.9698724789714 365.5967000388182 L 700.9698724789714 386.8324643288182 L 649.0783766626381 386.8324643288182" stroke-miterlimit="10" stroke-width="1.3612669416666667" stroke-dasharray=""/><g transform="translate(635.6290592789715,386.8324643288182) translate(-635.6290592789715,-386.8324643288182)"><path fill="black" stroke="none" paint-order="stroke fill markers" d=" M 649.2417286956381 380.0261296204849 L 635.6290592789715 386.8324643288182 L 649.2417286956381 393.63879903715156 Z"/></g></g><g><rect fill="white" stroke="none" x="671.6841703950716" y="411.3352692788182" width="89.689379349375" height="21.23576429"/><text fill="black" stroke="none" font-family="sans-serif" font-size="11pt" font-style="normal" font-weight="normal" text-decoration="normal" x="674.1344508900717" y="426.0369522488182" text-anchor="start" dominant-baseline="alphabetic" xml:space="preserve">Githngtin</text></g><g><path fill="none" stroke="black" paint-order="fill stroke markers" d=" M 635.6290592789715 432.5710335688182 L 783.9793434768802 432.5710335688182" stroke-miterlimit="10" stroke-width="1.3612669416666667" stroke-dasharray=""/><g transform="translate(797.4286608605469,432.5710335688182) translate(-797.4286608605469,-432.5710335688182)"><path fill="black" stroke="none" paint-order="stroke fill markers" d=" M 783.8159914438802 425.7646988604849 L 797.4286608605469 432.5710335688182 L 783.8159914438802 439.37736827715156 Z"/></g></g><g><rect fill="white" stroke="none" x="833.0938547322137" y="457.07383851881826" width="102.79602302613281" height="21.23576429"/><text fill="black" stroke="none" font-family="sans-serif" font-size="11pt" font-style="normal" font-weight="normal" text-decoration="normal" x="835.5441352272137" y="471.77552148881824" text-anchor="start" dominant-baseline="alphabetic" xml:space="preserve">Lutrdliu</text></g><g><path fill="none" stroke="black" paint-order="fill stroke markers" d=" M 813.763864160547 478.3096028088182 L 879.1046773605469 478.3096028088182 L 879.1046773605469 499.54536709881825 L 827.2131815442136 499.54536709881825" stroke-miterlimit="10" stroke-width="1.3612669416666667" stroke-dasharray=""/><g transform="translate(813.763864160547,499.54536709881825) translate(-813.763864160547,-499.54536709881825)"><path fill="black" stroke="none" paint-order="stroke fill markers" d=" M 827.3765335772136 492.7390323904849 L 813.763864160547 499.54536709881825 L 827.3765335772136 506.3517018071516 Z"/></g></g><g><rect fill="white" stroke="none" x="654.959049850638" y="524.0481720488182" width="123.13962043824219" height="21.23576429"/><text fill="black" stroke="none" font-family="sans-serif" font-size="11pt" font-style="normal" font-weight="normal" text-decoration="normal" x="657.4093303456381" y="538.7498550188182" text-anchor="start" dominant-baseline="alphabetic" xml:space="preserve">Gidliuto</text></g><g><path fill="none" stroke="black" paint-order="fill stroke markers" d=" M 797.4286608605469 545.2839363388182 L 649.0783766626381 545.2839363388182" stroke-miterlimit="10" stroke-width="1.3612669416666667" stroke-dasharray=""/><g transform="translate(635.6290592789715,545.2839363388182) translate(-635.6290592789715,-545.2839363388182)"><path fill="black" stroke="none" paint-order="stroke fill markers" d=" M 649.2417286956381 538.4776016304849 L 635.6290592789715 545.2839363388182 L 649.2417286956381 552.0902710471515 Z"/></g></g><g><rect fill="white" stroke="none" x="367.6403155257031" y="569.7867412888181" width="232.32354988160156" height="21.23576429"/><text fill="black" stroke="none" font-family="sans-serif" font-size="11pt" font-style="normal" font-weight="normal" text-decoration="normal" x="370.0905960207031" y="584.4884242588181" text-anchor="start" dominant-baseline="alphabetic" xml:space="preserve">Thngbophnquynthnhcng</text></g><g><path fill="none" stroke="black" paint-order="fill stroke markers" d=" M 619.2938559789714 591.0225055788181 L 361.7596423377031 591.0225055788181" stroke-miterlimit="10" stroke-width="1.3612669416666667" stroke-dasharray=""/><g transform="translate(348.31032495403645,591.0225055788181) translate(-348.31032495403645,-591.0225055788181)"><path fill="black" stroke="none" paint-order="stroke fill markers" d=" M 361.9229943707031 584.2161708704848 L 348.31032495403645 591.0225055788181 L 361.9229943707031 597.8288402871515 Z"/></g></g><g><rect fill="white" stroke="none" x="72.25787575643228" y="615.5253105288181" width="232.32354988160156" height="21.23576429"/><text fill="black" stroke="none" font-family="sans-serif" font-size="11pt" font-style="normal" font-weight="normal" text-decoration="normal" x="74.70815625143229" y="630.226993498818" text-anchor="start" dominant-baseline="alphabetic" xml:space="preserve">Thngbophnquynthnhcng</text></g><g><path fill="none" stroke="black" paint-order="fill stroke markers" d=" M 331.97512165403646 636.7610748188181 L 58.31349712409636 636.7610748188181" stroke-miterlimit="10" stroke-width="1.3612669416666667" stroke-dasharray=""/><g transform="translate(44.86417974042969,636.7610748188181) translate(-44.86417974042969,-636.7610748188181)"><path fill="black" stroke="none" paint-order="stroke fill markers" d=" M 58.47684915709636 629.9547401104847 L 44.86417974042969 636.7610748188181 L 58.47684915709636 643.5674095271514 Z"/></g></g></g><g/><g/><g/><g/></g></svg>