<svg xmlns="http://www.w3.org/2000/svg" xmlns:xlink="http://www.w3.org/1999/xlink" version="1.1" width="1195.221738344922" height="830.333233923818"><desc>title%20Xem%20danh%20s%C3%A1ch%20h%C3%B3a%20%C4%91%C6%A1n%0A%0Abottomparticipants%0A%0Aactor%20Landlord%0Aentity%20Client%0Aentity%20Backend%0Adatabase%20Database%0A%0ALandlord%20-%3E%20Client%3A%20Ch%E1%BB%8Dn%20m%C3%A0n%20h%C3%ACnh%20danh%20s%C3%A1ch%20h%C3%B3a%20%C4%91%C6%A1n%0Aactivate%20Landlord%0Aactivate%20Client%0A%0AClient%20-%3E%20Backend%3A%20G%E1%BB%ADi%20y%C3%AAu%20c%E1%BA%A7u%20l%E1%BA%A5y%20danh%20s%C3%A1ch%20h%C3%B3a%20%C4%91%C6%A1n%20(k%C3%A8m%20b%E1%BB%99%20l%E1%BB%8Dc%20n%E1%BA%BFu%20c%C3%B3)%0Aactivate%20Backend%0A%0ABackend%20-%3E%20Backend%3A%20Ki%E1%BB%83m%20tra%20quy%E1%BB%81n%0Aactivate%20Database%0ABackend%20-%3E%20Database%3A%20Truy%20v%E1%BA%A5n%20danh%20s%C3%A1ch%20h%C3%B3a%20%C4%91%C6%A1n%20(%C3%A1p%20d%E1%BB%A5ng%20b%E1%BB%99%20l%E1%BB%8Dc)%0ADatabase%20--%3E%20Backend%3A%20Tr%E1%BA%A3%20v%E1%BB%81%20danh%20s%C3%A1ch%20h%C3%B3a%20%C4%91%C6%A1n%0Adeactivate%20Database%0A%0Aalt%20C%C3%B3%20d%E1%BB%AF%20li%E1%BB%87u%0A%20%20%20%20Backend%20--%3E%20Client%3A%20G%E1%BB%ADi%20danh%20s%C3%A1ch%20h%C3%B3a%20%C4%91%C6%A1n%0A%20%20%20%20Client%20--%3E%20Landlord%3A%20Hi%E1%BB%83n%20th%E1%BB%8B%20danh%20s%C3%A1ch%20h%C3%B3a%20%C4%91%C6%A1n%0Aelse%20Kh%C3%B4ng%20c%C3%B3%20d%E1%BB%AF%20li%E1%BB%87u%0A%20%20%20%20Backend%20--%3E%20Client%3A%20Th%C3%B4ng%20b%C3%A1o%20danh%20s%C3%A1ch%20r%E1%BB%97ng%0A%20%20%20%20Client%20--%3E%20Landlord%3A%20Hi%E1%BB%83n%20th%E1%BB%8B%20b%E1%BA%A3ng%20tr%E1%BB%91ng%0Aend%0A%0Adeactivate%20Backend%0Adeactivate%20Client%0Adeactivate%20Landlord%0A</desc><defs/><g><g/><g/><g/><g/><g/><g/><g/><g/><g/><g/><g/><g/><g/><g/><g/><g/><g/><g/><g/><g/><g/><g/><g/><g/><g/><g/><g/><g/><g/><g/><g/><g/><g/><g/><g/><g/><g/><g/><g/><g/><g/><g/><g/><g/><g/><g/><g/><g/><g/><g/><g/><g/><g/><g/><g/><g/><g/><g/><g/><g/><g/><g/><g/><g/><g/><g/><g/><g/><g/><g/><g/><g/><g/><g/><g/><g/><g/><g/><g/><g/><g/><g/><g/><g/><g/><g/><g/><g/><g/><g/><g/><g/><g/><g/><g/><g/><g/><g/><g/><g/><g/><g/><g/><g/><g/><g/><g/><g/><g/><g/><g/><g/><g/><g/><g/><g/><g/><g/><g/><g/><g/><g/><g/><g/><g/><g/><g/><g/><g><rect fill="white" stroke="none" x="0" y="0" width="1195" height="830"/></g><g/><g><path fill="none" stroke="black" paint-order="fill stroke markers" d=" M 81.67601649999999 128.73625218881818 L 81.67601649999999 739.672855608818" stroke-miterlimit="10" stroke-width="1.3612669416666667" stroke-dasharray="12.565541,5.445067766666667"/><path fill="none" stroke="black" paint-order="fill stroke markers" d=" M 372.0656279001302 128.73625218881818 L 372.0656279001302 739.672855608818" stroke-miterlimit="10" stroke-width="1.3612669416666667" stroke-dasharray="12.565541,5.445067766666667"/><path fill="none" stroke="black" paint-order="fill stroke markers" d=" M 797.730751995573 128.73625218881818 L 797.730751995573 739.672855608818" stroke-miterlimit="10" stroke-width="1.3612669416666667" stroke-dasharray="12.565541,5.445067766666667"/><path fill="none" stroke="black" paint-order="fill stroke markers" d=" M 1154.383730094922 128.73625218881818 L 1154.383730094922 739.672855608818" stroke-miterlimit="10" stroke-width="1.3612669416666667" stroke-dasharray="12.565541,5.445067766666667"/></g><g><g><path fill="white" stroke="black" paint-order="fill stroke markers" d=" M 90.987082381 59.63834222981819 A 9.311065881 9.311065881 0 1 1 90.98707772546743 59.62903116548903 M 81.67601649999999 68.9494081108182 L 81.67601649999999 88.8783561368182 M 69.914670124 76.13689756281819 L 93.43736287599998 76.13689756281819 M 81.67601649999999 88.8783561368182 L 69.914670124 107.50048789881819 M 81.67601649999999 88.8783561368182 L 93.43736287599998 107.50048789881819" stroke-miterlimit="10" stroke-width="2.7769845610000004" stroke-dasharray=""/></g><g><g/><text fill="black" stroke="none" font-family="sans-serif" font-size="11pt" font-style="normal" font-weight="normal" text-decoration="normal" x="53.1470400595703" y="123.83569119881818" text-anchor="start" dominant-baseline="alphabetic" xml:space="preserve">Landlord</text></g><g><path fill="white" stroke="black" paint-order="fill stroke markers" d=" M 396.3234048006302 79.63263106901819 A 24.2577769005 24.2577769005 0 1 1 396.3233926717428 79.60837329616064 M 346.41935871913023 106.11199561831819 L 397.7118970811302 106.11199561831819" stroke-miterlimit="10" stroke-width="2.7769845610000004" stroke-dasharray=""/></g><g><g/><text fill="black" stroke="none" font-family="sans-serif" font-size="11pt" font-style="normal" font-weight="normal" text-decoration="normal" x="353.32547744847005" y="123.83569119881818" text-anchor="start" dominant-baseline="alphabetic" xml:space="preserve">Client</text></g><g><path fill="white" stroke="black" paint-order="fill stroke markers" d=" M 821.9885288960729 79.63263106901819 A 24.2577769005 24.2577769005 0 1 1 821.9885167671855 79.60837329616064 M 772.084482814573 106.11199561831819 L 823.377021176573 106.11199561831819" stroke-miterlimit="10" stroke-width="2.7769845610000004" stroke-dasharray=""/></g><g><g/><text fill="black" stroke="none" font-family="sans-serif" font-size="11pt" font-style="normal" font-weight="normal" text-decoration="normal" x="769.2053537411784" y="123.83569119881818" text-anchor="start" dominant-baseline="alphabetic" xml:space="preserve">Backend</text></g><g><path fill="white" stroke="black" paint-order="fill stroke markers" d=" M 1130.5343332769219 96.71925372081819 L 1130.5343332769219 62.41532679081819 L 1178.233126912922 62.41532679081819 L 1178.233126912922 96.71925372081819" stroke-miterlimit="10" stroke-width="2.7769845610000004" stroke-dasharray=""/><path fill="white" stroke="black" paint-order="fill stroke markers" d=" M 1178.233126912922 61.22285694991819 L 1178.2319344530183 61.33066749483481 L 1178.2283571925523 61.43846725878678 L 1178.2223954892468 61.546245461887544 L 1178.2140499392676 61.65399132640659 L 1178.2033213771624 61.761694077847274 L 1178.1902108757786 61.86934294602419 L 1178.1747197461552 61.976927166140236 L 1178.1568495373926 62.084435979863045 L 1178.1366020364967 62.19185863640084 L 1178.1139792682004 62.299184393577484 L 1178.088983494762 62.4064025189067 L 1178.0616172157381 62.51350229066531 L 1178.0318831677334 62.62047299896537 L 1177.9997843241283 62.7273039468252 L 1177.96532389478 62.83398445123905 L 1177.9285053257033 62.94050384424536 L 1177.8893322987242 63.04685147399361 L 1177.8478087311123 63.15301670580944 L 1177.8039387751903 63.25898892325815 L 1177.757726817917 63.364757529206294 L 1177.7091774804496 63.47031194688142 L 1177.6582956176817 63.575641620929716 L 1177.6050863177566 63.68073601847156 L 1177.5495549015604 63.78558463015478 L 1177.4917069221885 63.89017697120557 L 1177.4315481643903 63.994502582477 L 1177.3690846439915 64.09855103149486 L 1177.3043226072925 64.20231191350096 L 1177.2372685304424 64.3057748524936 L 1177.1679291187934 64.40892950226505 L 1177.096311306229 64.51176554743633 L 1177.0224222544703 64.61427270448858 L 1176.946269352361 64.71644072279157 L 1176.8678602151283 64.81825938562858 L 1176.7872026836203 64.91971851121816 L 1176.7043048235228 65.02080795373233 L 1176.619174924553 65.12151760431107 L 1176.5318214996296 65.22183739207324 L 1176.4422532840224 65.32175728512367 L 1176.3504792344781 65.42126729155632 L 1176.2565085283259 65.52035746045347 L 1176.1603505625574 65.6190178828808 L 1176.062014952889 65.71723869287828 L 1175.9615115328004 65.81501006844678 L 1175.858850352549 65.91232223253022 L 1175.754041678168 66.00916545399325 L 1175.6470959904373 66.10553004859446 L 1175.5380239838364 66.20140637995469 L 1175.426836565475 66.29678486052069 L 1175.3135448540024 66.39165595252388 L 1175.1981601784955 66.48601016893414 L 1175.0806940773255 66.57983807440844 L 1174.9611582970047 66.67313028623443 L 1174.8395647910113 66.76587747526865 L 1174.715925718595 66.85807036686953 L 1174.5902534435595 66.94969974182469 L 1174.462560533028 67.04075643727302 L 1174.3328597561851 67.13123134762085 L 1174.201164083 67.22111542545254 L 1174.0674866829308 67.3103996824352 L 1173.931840923606 67.39907519021754 L 1173.794240369488 67.4871330813227 L 1173.6546987805182 67.57456455003492 L 1173.513230110739 67.6613608532802 L 1173.3698485068992 67.74751331150055 L 1173.2245683070398 67.83301330952195 L 1173.0774040390602 67.91785229741582 L 1172.928370419264 68.00202179135408 L 1172.7774823508892 68.08551337445749 L 1172.6247549226168 68.1683186976373 L 1172.4702034070624 68.25042948043021 L 1172.3138432592489 68.33183751182635 L 1172.1556901150607 68.41253465109044 L 1171.9957597896805 68.4925128285758 L 1171.8340682760072 68.5717640465313 L 1171.6706317430578 68.65028037990122 L 1171.5054665343494 68.72805397711764 L 1171.3385891662651 68.80507706088565 L 1171.1700163264027 68.88134192896105 L 1170.9997648719054 68.95684095492061 L 1170.8278518277773 69.03156658892462 L 1170.6542943851794 69.10551135847197 L 1170.479109899711 69.17866786914732 L 1170.302315889675 69.25102880536058 L 1170.1239300343248 69.3225869310784 L 1169.9439701720976 69.39333509054786 L 1169.7624542988294 69.46326620901198 L 1169.5794005659566 69.53237329341717 L 1169.3948272786995 69.60064943311258 L 1169.2087528942334 69.66808780054113 L 1169.0211960198415 69.7346816519223 L 1168.8321754110548 69.80042432792644 L 1168.641709969777 69.86530925434072 L 1168.449818742393 69.92932994272657 L 1168.2565209178663 69.9924799910685 L 1168.0618358258178 70.05475308441433 L 1167.8657829345946 70.1161429955066 L 1167.6683818493225 70.17664358540536 L 1167.4696523099453 70.23624880410202 L 1167.2696141892516 70.29495269112441 L 1167.0682874908866 70.35274937613272 L 1166.8656923473525 70.40963307950663 L 1166.6618490179949 70.46559811292322 L 1166.4567778869764 70.52063887992576 L 1166.2504994612398 70.57474987648341 L 1166.0430343684554 70.62792569154163 L 1165.8344033549597 70.68016100756323 L 1165.6246272836802 70.73145060106012 L 1165.4137271320492 70.78178934311569 L 1165.2017239899062 70.8311721998977 L 1164.9886390573886 70.8795942331616 L 1164.774493642812 70.92705060074444 L 1164.55930916054 70.973536557049 L 1164.3431071288408 71.01904745351838 L 1164.1259091677375 71.06357873910088 L 1163.9077369968454 71.10712596070502 L 1163.6886124332 71.14968476364494 L 1163.4685573890747 71.19125089207583 L 1163.2475938697905 71.23182018941947 L 1163.0257439715156 71.27138859877994 L 1162.8030298790545 71.30995216334925 L 1162.5794738636312 71.34750702680313 L 1162.3550982806605 71.38404943368649 L 1162.1299255675142 71.4195757297891 L 1161.9039782412758 71.45408236251096 L 1161.6772788964897 71.48756588121756 L 1161.4498502029012 71.52002293758491 L 1161.2217149031906 71.55145028593446 L 1160.992895810697 71.58184478355753 L 1160.7634158071398 71.61120339102969 L 1160.5332978403278 71.63952317251467 L 1160.3025649218657 71.66680129605793 L 1160.0712401248534 71.69303503386982 L 1159.8393465815775 71.71822176259843 L 1159.6069074811994 71.7423589635919 L 1159.3739460674353 71.7654442231502 L 1159.1404856362324 71.78747523276665 L 1158.9065495334394 71.80844978935863 L 1158.6721611524715 71.82836579548797 L 1158.4373439319716 71.84722125957065 L 1158.2021213534658 71.86501429607597 L 1157.9665169390162 71.8817431257151 L 1157.730554248868 71.89740607561903 L 1157.4942568790932 71.91200157950583 L 1157.257648459232 71.92552817783725 L 1157.0207526499296 71.93798451796474 L 1156.783593140569 71.94936935426468 L 1156.546193646904 71.95968154826289 L 1156.3085779086855 71.96892006874862 L 1156.0707696872898 71.97708399187748 L 1155.8327927633409 71.98417250126396 L 1155.5946709343325 71.99018488806304 L 1155.3564280122491 71.99512055104105 L 1155.1180878211849 71.99897899663581 L 1154.8796741949598 72.00175983900598 L 1154.6412109747382 72.00346280006961 L 1154.402722006643 72.00408770953204 L 1154.1642311393725 72.00363450490285 L 1153.9257622218147 72.0021032315021 L 1153.6873391006625 71.99949404245586 L 1153.4489856180294 71.9958071986809 L 1153.210725609065 71.99104306885846 L 1152.9725828995718 71.98520212939759 L 1152.734581303622 71.97828496438737 L 1152.4967446211772 71.97029226553852 L 1152.2590966357072 71.96122483211428 L 1152.0216611118128 71.95108357085043 L 1151.784461792848 71.93986949586466 L 1151.5475223985477 71.92758372855508 L 1151.3108666226533 71.91422749748824 L 1151.0745181305456 71.89980213827607 L 1150.8385005568766 71.8843090934425 L 1150.602837503207 71.86774991227908 L 1150.367552535646 71.85012625069015 L 1150.1326691824938 71.83143987102717 L 1149.8982109318906 71.81169264191253 L 1149.6642012294656 71.79088653805269 L 1149.4306634759944 71.7690236400407 L 1149.1976210250573 71.74610613414815 L 1148.9650971807057 71.72213631210651 L 1148.7331151951298 71.69711657087802 L 1148.501698266335 71.67104941241597 L 1148.2708695358217 71.64393744341446 L 1148.04065208627 71.6157833750478 L 1147.8110689392336 71.58659002269937 L 1147.5821430528354 71.55636030568009 L 1147.3538973194734 71.52509724693644 L 1147.1263545635306 71.49280397274828 L 1146.8995375390934 71.45948371241609 L 1146.6734689276748 71.42513979793813 L 1146.4481713359478 71.38977566367726 L 1146.223667293484 71.35339484601741 L 1145.9999792505 71.31600098301004 L 1145.777129575614 71.27759781401028 L 1145.555140553608 71.23818917930303 L 1145.3340343831987 71.19777901971894 L 1145.1138331748195 71.15637137624027 L 1144.8945589484072 71.11397038959687 L 1144.676233631202 71.07058029985207 L 1144.4588790555538 71.02620544597868 L 1144.2425169567387 70.98085026542512 L 1144.0271689707863 70.93451929367163 L 1143.812856632316 70.8872171637768 L 1143.599601372383 70.8389486059142 L 1143.3874245163354 70.78971844689937 L 1143.1763472816822 70.7395316097072 L 1142.966390775971 70.6883931129796 L 1142.757575994677 70.6363080705236 L 1142.5499238191046 70.58328169080006 L 1142.3434550142983 70.52931927640276 L 1142.1381902269668 70.47442622352818 L 1141.9341499834172 70.41860802143584 L 1141.7313546875043 70.36187025189946 L 1141.5298246185887 70.3042185886487 L 1141.3295799295088 70.24565879680183 L 1141.1306406445674 70.18619673228926 L 1140.9330266575266 70.12583834126788 L 1140.7367577296206 70.06458965952649 L 1140.541853487579 70.00245681188221 L 1140.3483334216628 69.93944601156807 L 1140.1562168837181 69.87556355961155 L 1139.9655230852384 69.81081584420461 L 1139.7762710954444 69.74520934006487 L 1139.5884798393774 69.67875060778805 L 1139.4021680960068 69.61144629319199 L 1139.2173544963514 69.54330312665208 L 1139.0340575216173 69.47432792242817 L 1138.852295501349 69.40452757798322 L 1138.6720866115975 69.3339090732935 L 1138.4934488731012 69.26247947015062 L 1138.3164001494854 69.19024591145539 L 1138.1409581454745 69.11721562050347 L 1137.967140405123 69.0433959002631 L 1137.79496431006 68.96879413264479 L 1137.624447077752 68.89341777776313 L 1137.4556057597792 68.81727437319081 L 1137.2884572401333 68.74037153320482 L 1137.1230182335269 68.66271694802508 L 1136.9593052837229 68.58431838304537 L 1136.7973347618795 68.5051836780569 L 1136.637122864914 68.4253207464642 L 1136.478685613883 68.34473757449386 L 1136.3220388523794 68.26344222039596 L 1136.1671982449484 68.18144281363814 L 1136.014179275522 68.09874755409275 L 1135.8629972458698 68.01536471121685 L 1135.7136672740685 67.9313026232252 L 1135.566204292991 67.84656969625658 L 1135.4206230488126 67.76117440353308 L 1135.276938099536 67.67512528451279 L 1135.1351638135368 67.5884309440359 L 1134.9953143681253 67.50110005146425 L 1134.8574037481296 67.41314133981427 L 1134.7214457444966 67.32456360488388 L 1134.5874539529136 67.23537570437271 L 1134.4554417724478 67.14558655699653 L 1134.3254224042075 67.05520514159522 L 1134.197408850021 66.96424049623502 L 1134.0714139111371 66.87270171730466 L 1133.9474501869447 66.78059795860575 L 1133.825530073713 66.68793843043741 L 1133.7056657633516 66.59473239867523 L 1133.5878692421916 66.50098918384472 L 1133.4721522897871 66.40671816018926 L 1133.358526477737 66.31192875473263 L 1133.2470031685275 66.2166304463364 L 1133.137593514397 66.120832764752 L 1133.0303084562192 66.02454528966774 L 1132.925158722411 65.92777764975091 L 1132.822154827858 65.83053952168484 L 1132.7213070728637 65.73284062920132 L 1132.6226255421195 65.63469074210818 L 1132.5261201036967 65.53609967531233 L 1132.431800408058 65.4370772878383 L 1132.3396758870952 65.33763348184232 L 1132.2497557531829 65.23777820162212 L 1132.16204899826 65.13752143262249 L 1132.0765643929287 65.03687320043682 L 1131.9933104855784 64.93584356980442 L 1131.9122956015306 64.83444264360419 L 1131.8335278422057 64.73268056184422 L 1131.7570150843144 64.63056750064791 L 1131.6827649790687 64.52811367123628 L 1131.610784951417 64.42532931890689 L 1131.5410821993023 64.32222472200931 L 1131.4736636929417 64.21881019091732 L 1131.4085361741297 64.11509606699785 L 1131.345706155564 64.01109272157687 L 1131.2851799201937 63.90681055490224 L 1131.2269635205923 63.80225999510374 L 1131.171062778351 63.697451497150205 L 1131.1174832834974 63.59239554180411 L 1131.0662303939368 63.48710263457343 L 1131.0173092349148 63.381583304661156 L 1130.9707246985072 63.27584810391234 L 1130.926481443128 63.16990760575894 L 1130.8845838930667 63.06377240416249 L 1130.845036238043 62.95745311255472 L 1130.8078424327894 62.85096036277616 L 1130.7730061966554 62.744304804013076 L 1130.7405310132358 62.63749710173245 L 1130.7104201300217 62.530547936615505 L 1130.6826765580765 62.423468003489624 L 1130.657303071734 62.316268010258895 L 1130.6343022083222 62.208958676833305 L 1130.6136762679077 62.10155073405677 L 1130.5954273130676 61.99405492263407 L 1130.5795571686822 61.88648199205676 L 1130.5660674217527 61.77884269952825 L 1130.5549594212425 61.6711478088881 L 1130.5462342779424 61.56340808953563 L 1130.5398928643594 61.45563431535299 L 1130.5359358146297 61.34783726362778 L 1130.534363524455 61.24002771397536 L 1130.535176151063 61.13221644726084 L 1130.5383736131917 61.02441424452105 L 1130.5439555910973 60.916631885886424 L 1130.551921526587 60.808880149503025 L 1130.5622706230738 60.70116981045468 L 1130.5750018456565 60.59351163968555 L 1130.5901139212237 60.48591640292299 L 1130.6076053385802 60.378394859601016 L 1130.627474348599 60.27095776178435 L 1130.6497189643958 60.163615853093255 L 1130.6743369615272 60.05637986762915 L 1130.7013258782142 59.949260528901206 L 1130.7306830155876 59.84226854875404 L 1130.762405437958 59.7354146262965 L 1130.7964899731098 59.62870944683179 L 1130.832933212618 59.52216368078894 L 1130.8717315121887 59.41578798265577 L 1130.9128809920244 59.30959298991343 L 1130.9563775372114 59.203589321972714 L 1131.0022167981315 59.09778757911208 L 1131.0503941908967 58.992198341417634 L 1131.1009048978078 58.88683216772516 L 1131.1537438678365 58.78169959456423 L 1131.2089058171296 58.67681113510454 L 1131.2663852295382 58.57217727810464 L 1131.326176357169 58.46780848686303 L 1131.388273220959 58.36371519817185 L 1131.4526696112734 58.25990782127324 L 1131.5193590885272 58.15639673681838 L 1131.588334983828 58.053192295829454 L 1131.6595903996438 57.950304818664556 L 1131.7331182104924 57.84774459398567 L 1131.808911063654 57.745521877729786 L 1131.8869613799066 57.64364689208335 L 1131.9672613542832 57.54212982446004 L 1132.0498029568537 57.44098082648201 L 1132.1345779335265 57.340210012964775 L 1132.2215778068744 57.2398274609057 L 1132.3107938769829 57.13984320847635 L 1132.4022172223188 57.040267254018644 L 1132.4958387006243 56.94110955504505 L 1132.5916489498295 56.84238002724283 L 1132.6896383889891 56.74408854348249 L 1132.7897972192409 56.646244932830506 L 1132.8921154247853 56.54885897956639 L 1132.9965827738872 56.45194042220433 L 1133.1031888198986 56.35549895251929 L 1133.211922902304 56.25954421457787 L 1133.3227741477854 56.16408580377391 L 1133.4357314713106 56.06913326586893 L 1133.5507835772416 55.974696096037604 L 1133.6679189604638 55.88078373791821 L 1133.7871259075364 55.7874055826683 L 1133.9083924978638 55.694570968025594 L 1134.031706604888 55.60228917737418 L 1134.1570558973017 55.51056943881623 L 1134.2844278402792 55.41942092424918 L 1134.413809696733 55.328852748448504 L 1134.5451885285852 55.23887396815633 L 1134.6785511980618 55.14949358117568 L 1134.8138843690072 55.0607205254708 L 1134.951174508217 54.97256367827326 L 1135.0904078867918 54.88503185519433 L 1135.2315705815097 54.79813380934336 L 1135.374648476219 54.71187823045254 L 1135.519627263249 54.62627374400786 L 1135.6664924448423 54.541328910386646 L 1135.815229334603 54.45705222400146 L 1135.965823058966 54.373452112450714 L 1136.1182585586841 54.290536935675895 L 1136.272520590335 54.20831498512558 L 1136.4285937278437 54.12679448292632 L 1136.5864623640266 54.0459835810604 L 1136.7461107121514 53.965890360550645 L 1136.9075228075167 53.88652283065238 L 1137.070682509047 53.80788892805245 L 1137.2355735009087 53.72999651607559 L 1137.4021792941396 53.652853383898076 L 1137.5704832282993 53.57646724576885 L 1137.7404684731346 53.50084574023808 L 1137.912118030263 53.42599642939328 L 1138.0854147348712 53.35192679810317 L 1138.2603412574338 53.278644253269164 L 1138.4368801054438 53.20615612308466 L 1138.615013625164 53.13446965630228 L 1138.7947240033905 53.06359202150896 L 1138.9759932692355 52.99353030640911 L 1139.1588032959232 52.924291517115876 L 1139.3431358026035 52.85588257745046 L 1139.528972356179 52.78831032824984 L 1139.7162943731496 52.72158152668263 L 1139.9050831214697 52.65570284557336 L 1140.0953197224214 52.590680872735255 L 1140.2869851525036 52.52652211031142 L 1140.4800602453327 52.463232974124615 L 1140.6745256935603 52.40081979303573 L 1140.8703620508038 52.33928880831086 L 1141.0675497335908 52.278646172997206 L 1141.266069023317 52.21889795130775 L 1141.4659000682188 52.160050118014894 L 1141.6670228853588 52.1021085578529 L 1141.8694173626225 52.045079064929524 L 1142.0730632607306 51.98896734214652 L 1142.2779402152635 51.933779000629414 L 1142.484027738696 51.87951955916637 L 1142.6913052224481 51.826194443656306 L 1142.8997519389436 51.77380898656634 L 1143.1093470436847 51.72236842639853 L 1143.3200695773357 51.67187790716602 L 1143.5318984678188 51.622342477878675 L 1143.7448125324213 51.57376709203812 L 1143.9587904799143 51.526156607142475 L 1144.1738109126816 51.47951578420055 L 1144.3898523288588 51.43384928725578 L 1144.6068931244845 51.38916168291979 L 1144.8249115956596 51.34545743991578 L 1145.0438859407193 51.302740928631636 L 1145.263794262411 51.261016420682886 L 1145.4846145700863 51.220288088485546 L 1145.7063247818978 51.18056000483891 L 1145.9289027270097 51.14183614251822 L 1146.1523261478128 51.10412037387746 L 1146.376572702151 51.06741647046204 L 1146.601619965556 51.03172810263173 L 1146.8274454334887 50.99705883919358 L 1147.0540265235907 50.96341214704502 L 1147.2813405779418 50.930791390827245 L 1147.509364865326 50.899199832588685 L 1147.7380765835044 50.86864063145883 L 1147.967452861496 50.83911684333235 L 1148.197470761864 50.81063142056343 L 1148.4281072830101 50.78318721167063 L 1148.6593393614746 50.75678696105195 L 1148.891143874242 50.731433308710464 L 1149.1234976410544 50.70712878999027 L 1149.3563774267286 50.683875835323 L 1149.5897599434802 50.66167676998473 L 1149.8236218532518 50.6405338138635 L 1150.0579397700476 50.6204490812373 L 1150.2926902622712 50.60142458056266 L 1150.5278498550688 50.583462214273794 L 1150.7633950326772 50.566563778592354 L 1150.9993022407748 50.55073096334783 L 1151.2355478888376 50.53596535180856 L 1151.4721083524973 50.52226842052339 L 1151.7089599759051 50.50964153917403 L 1151.9460790740957 50.49808597043808 L 1152.1834419353572 50.48760286986282 L 1152.4210248236009 50.47819328574954 L 1152.6588039807364 50.46985815904882 L 1152.8967556290456 50.462598323266384 L 1153.1348559735625 50.456414504379765 L 1153.3730812044505 50.45130732076569 L 1153.6114074993855 50.44727728313828 L 1153.8498110259366 50.444324794497916 L 1154.0882679439494 50.44245015009101 L 1154.3267544079313 50.44165353738045 L 1154.5652465694343 50.44193503602685 L 1154.8037205794412 50.443294617880554 L 1155.0421525907495 50.445732146984525 L 1155.280518760357 50.44924737958788 L 1155.5187952518454 50.45383996417029 L 1155.7569582377637 50.459509441477124 L 1155.9949839020123 50.46625524456538 L 1156.2328484422228 50.474076698860365 L 1156.4705280721396 50.48297302222316 L 1156.7079990239974 50.49294332502887 L 1156.9452375508995 50.50398661025549 L 1157.1822199291905 50.51610177358371 L 1157.4189224608301 50.52928760350731 L 1157.6553214757623 50.54354278145426 L 1157.8913933342828 50.55886588191867 L 1158.1271144294026 50.575255372603245 L 1158.3624611892083 50.592709614572584 L 1158.59741007922 50.61122686241703 L 1158.831937604745 50.630805264427224 L 1159.0660203132256 50.651442862779284 L 1159.2996347965864 50.67313759373059 L 1159.5327576935736 50.695887287826096 L 1159.7653656920916 50.71968967011537 L 1159.9974355315346 50.74454236038002 L 1160.2289440051122 50.77044287337172 L 1160.4598679621695 50.797388619060754 L 1160.6901843105038 50.825376902895016 L 1160.9198700186716 50.85440492606945 L 1161.148902118294 50.88446978580591 L 1161.3772577063517 50.9155684756435 L 1161.6049139474762 50.947697885739125 L 1161.831848076233 50.980854803178566 L 1162.0580373993985 51.01503591229771 L 1162.2834592982285 51.05023779501413 L 1162.5080912307217 51.08645693116888 L 1162.7319107338712 51.12368969887854 L 1162.9548954259137 51.16193237489736 L 1163.1770230085658 51.201181134989596 L 1163.3982712692543 51.241432054311964 L 1163.6186180833374 51.28268110780607 L 1163.8380414163173 51.32492417060092 L 1164.0565193260438 51.368157018425464 L 1164.2740299649076 51.41237532803093 L 1164.4905515820265 51.45757467762322 L 1164.706062525419 51.503750547305025 L 1164.9205412441702 51.55089831952786 L 1165.133966290587 51.5990132795538 L 1165.346316322343 51.64809061592693 L 1165.5575701046116 51.69812542095451 L 1165.767706512191 51.749112691197745 L 1165.976704531615 51.801047327972086 L 1166.184543263256 51.85392413785714 L 1166.3912019234144 51.90773783321599 L 1166.596659846396 51.962483032723924 L 1166.80089648658 52.01815426190663 L 1167.0038914204724 52.07474595368758 L 1167.205624348749 52.132252448944755 L 1167.406075098285 52.190667997076545 L 1167.6052236241728 52.24998675657682 L 1167.8030500117254 52.310202795619055 L 1167.999534478469 52.371310092649544 L 1168.1946573761206 52.43330253698949 L 1168.3883991925534 52.49617392944612 L 1168.5807405537469 52.559917982932596 L 1168.7716622257253 52.62452832309667 L 1168.9611451164806 52.68999848895818 L 1169.1491702778815 52.7563219335551 L 1169.3357189075684 52.823492024598224 L 1169.5207723508342 52.89150204513444 L 1169.7043121024885 52.960345194218355 L 1169.8863198087092 53.03001458759244 L 1170.066777268877 53.10050325837541 L 1170.245666437397 53.171804157758935 L 1170.422969425501 53.243910155712484 L 1170.5986685030375 53.31681404169635 L 1170.772746100246 53.39050852538269 L 1170.9451848095111 53.46498623738456 L 1171.1159673871061 53.5402397299928 L 1171.2850767549155 53.61626147792087 L 1171.452496002143 53.69304387905734 L 1171.618208387004 53.770579255226075 L 1171.7821973383977 53.848859852954064 L 1171.9444464575656 53.92787784424677 L 1172.1049395197313 54.00762532737092 L 1172.263660475722 54.08809432764465 L 1172.4205934535746 54.16927679823499 L 1172.575722760122 54.251164620962534 L 1172.7290328825627 54.33374960711325 L 1172.8805084900125 54.41702349825734 L 1173.0301344350366 54.500977967075094 L 1173.1778957551655 54.58560461818958 L 1173.32377767439 54.670894989006214 L 1173.46776560464 54.75684055055899 L 1173.6098451472421 54.84343270836337 L 1173.7500020943608 54.93066280327574 L 1173.888222430418 55.0185221123593 L 1174.0244923334953 55.107001849756344 L 1174.1587981767161 55.196093167566886 L 1174.291126529608 55.28578715673337 L 1174.4214641594456 55.37607484793163 L 1174.549798032575 55.46694721246779 L 1174.6761153157156 55.55839516318112 L 1174.8004033772443 55.65040955535275 L 1174.9226497884588 55.742981187620146 L 1175.0428423248195 55.83610080289723 L 1175.160968967173 55.92975908930006 L 1175.2770179029537 56.02394668107806 L 1175.3909775273646 56.11865415955053 L 1175.5028364445382 56.213872054048544 L 1175.6125834686761 56.30959084286201 L 1175.7202076251672 56.405800954191804 L 1175.8256981516856 56.50249276710697 L 1175.9290444992669 56.5996566125068 L 1176.0302363333617 56.69728277408771 L 1176.1292635348716 56.79536148931491 L 1176.2261162011587 56.89388295039859 L 1176.320784647037 56.99283730527477 L 1176.413259405741 57.09221465859041 L 1176.5035312298717 57.19200507269298 L 1176.591591092322 57.29219856862425 L 1176.6774301871792 57.39278512711811 L 1176.761039930605 57.49375468960253 L 1176.842411961695 57.59509715920541 L 1176.921538143314 57.69680240176424 L 1176.9984105629094 57.79886024683951 L 1177.0730215333035 57.90126048873177 L 1177.1453635934615 58.003992887502164 L 1177.2154295092378 58.10704716999642 L 1177.2832122740988 58.21041303087217 L 1177.3487051098248 58.31408013362946 L 1177.4119014671867 58.41803811164441 L 1177.4727950266013 58.52227656920584 L 1177.5313796987639 58.62678508255487 L 1177.5876496252554 58.731553200927245 L 1177.6415991791307 58.83657044759845 L 1177.6932229654788 58.94182632093131 L 1177.7425158219646 59.04731029542622 L 1177.789472819343 59.153011822773635 L 1177.834089261954 59.25892033290889 L 1177.87636068819 59.36502523506925 L 1177.9162828709439 59.471315918852895 L 1177.9538518180304 59.57778175528004 L 1177.9890637725866 59.684412097855756 L 1178.021915213446 59.79119628363465 L 1178.0524028554917 59.89812363428712 L 1178.0805236499855 60.005183457167206 L 1178.106274784871 60.11236504638185 L 1178.129653685056 60.21965768386144 L 1178.1506580126704 60.327050640431644 L 1178.1692856672985 60.43453317688629 L 1178.1855347861908 60.5420945450613 L 1178.1994037444488 60.6497239889095 L 1178.210891155188 60.757410745576195 L 1178.2199958696772 60.86514404647545 L 1178.2267169774523 60.972913118366954 L 1178.2310538064085 61.08070718443333 L 1178.233005922866 61.188515465357796 M 1178.233126912922 95.52678387991818 L 1178.2319344530183 95.6345944248348 L 1178.2283571925523 95.74239418878678 L 1178.2223954892468 95.85017239188754 L 1178.2140499392676 95.95791825640659 L 1178.2033213771624 96.06562100784727 L 1178.1902108757786 96.1732698760242 L 1178.1747197461552 96.28085409614023 L 1178.1568495373926 96.38836290986303 L 1178.1366020364967 96.49578556640084 L 1178.1139792682004 96.60311132357748 L 1178.088983494762 96.7103294489067 L 1178.0616172157381 96.8174292206653 L 1178.0318831677334 96.92439992896537 L 1177.9997843241283 97.0312308768252 L 1177.96532389478 97.13791138123905 L 1177.9285053257033 97.24443077424536 L 1177.8893322987242 97.35077840399362 L 1177.8478087311123 97.45694363580944 L 1177.8039387751903 97.56291585325815 L 1177.757726817917 97.66868445920629 L 1177.7091774804496 97.77423887688141 L 1177.6582956176817 97.8795685509297 L 1177.6050863177566 97.98466294847155 L 1177.5495549015604 98.08951156015478 L 1177.4917069221885 98.19410390120557 L 1177.4315481643903 98.29842951247699 L 1177.3690846439915 98.40247796149485 L 1177.3043226072925 98.50623884350097 L 1177.2372685304424 98.60970178249359 L 1177.1679291187934 98.71285643226504 L 1177.096311306229 98.81569247743631 L 1177.0224222544703 98.91819963448859 L 1176.946269352361 99.02036765279156 L 1176.8678602151283 99.12218631562857 L 1176.7872026836203 99.22364544121817 L 1176.7043048235228 99.32473488373233 L 1176.619174924553 99.42544453431107 L 1176.5318214996296 99.52576432207324 L 1176.4422532840224 99.62568421512367 L 1176.3504792344781 99.72519422155631 L 1176.2565085283259 99.82428439045346 L 1176.1603505625574 99.92294481288079 L 1176.062014952889 100.02116562287829 L 1175.9615115328004 100.11893699844678 L 1175.858850352549 100.2162491625302 L 1175.754041678168 100.31309238399325 L 1175.6470959904373 100.40945697859446 L 1175.5380239838364 100.50533330995468 L 1175.426836565475 100.60071179052068 L 1175.3135448540024 100.69558288252388 L 1175.1981601784955 100.78993709893413 L 1175.0806940773255 100.88376500440843 L 1174.9611582970047 100.97705721623441 L 1174.8395647910113 101.06980440526866 L 1174.715925718595 101.16199729686952 L 1174.5902534435595 101.25362667182469 L 1174.462560533028 101.34468336727302 L 1174.3328597561851 101.43515827762084 L 1174.201164083 101.52504235545253 L 1174.0674866829308 101.61432661243519 L 1173.931840923606 101.70300212021755 L 1173.794240369488 101.7910600113227 L 1173.6546987805182 101.87849148003492 L 1173.513230110739 101.9652877832802 L 1173.3698485068992 102.05144024150056 L 1173.2245683070398 102.13694023952193 L 1173.0774040390602 102.22177922741581 L 1172.928370419264 102.30594872135407 L 1172.7774823508892 102.38944030445748 L 1172.6247549226168 102.47224562763729 L 1172.4702034070624 102.5543564104302 L 1172.3138432592489 102.63576444182635 L 1172.1556901150607 102.71646158109044 L 1171.9957597896805 102.79643975857579 L 1171.8340682760072 102.8756909765313 L 1171.6706317430578 102.95420730990122 L 1171.5054665343494 103.03198090711763 L 1171.3385891662651 103.10900399088564 L 1171.1700163264027 103.18526885896105 L 1170.9997648719054 103.2607678849206 L 1170.8278518277773 103.33549351892461 L 1170.6542943851794 103.40943828847196 L 1170.479109899711 103.48259479914732 L 1170.302315889675 103.55495573536056 L 1170.1239300343248 103.6265138610784 L 1169.9439701720976 103.69726202054787 L 1169.7624542988294 103.76719313901197 L 1169.5794005659566 103.83630022341715 L 1169.3948272786995 103.90457636311257 L 1169.2087528942334 103.97201473054113 L 1169.0211960198415 104.03860858192229 L 1168.8321754110548 104.10435125792642 L 1168.641709969777 104.1692361843407 L 1168.449818742393 104.23325687272656 L 1168.2565209178663 104.29640692106851 L 1168.0618358258178 104.35868001441433 L 1167.8657829345946 104.4200699255066 L 1167.6683818493225 104.48057051540535 L 1167.4696523099453 104.54017573410202 L 1167.2696141892516 104.5988796211244 L 1167.0682874908866 104.65667630613272 L 1166.8656923473525 104.71356000950664 L 1166.6618490179949 104.7695250429232 L 1166.4567778869764 104.82456580992574 L 1166.2504994612398 104.87867680648341 L 1166.0430343684554 104.93185262154162 L 1165.8344033549597 104.98408793756322 L 1165.6246272836802 105.0353775310601 L 1165.4137271320492 105.08571627311568 L 1165.2017239899062 105.13509912989768 L 1164.9886390573886 105.1835211631616 L 1164.774493642812 105.23097753074444 L 1164.55930916054 105.27746348704899 L 1164.3431071288408 105.32297438351839 L 1164.1259091677375 105.36750566910086 L 1163.9077369968454 105.41105289070501 L 1163.6886124332 105.45361169364494 L 1163.4685573890747 105.49517782207583 L 1163.2475938697905 105.53574711941947 L 1163.0257439715156 105.57531552877992 L 1162.8030298790545 105.61387909334925 L 1162.5794738636312 105.65143395680312 L 1162.3550982806605 105.68797636368647 L 1162.1299255675142 105.72350265978909 L 1161.9039782412758 105.75800929251095 L 1161.6772788964897 105.79149281121755 L 1161.4498502029012 105.82394986758491 L 1161.2217149031906 105.85537721593445 L 1160.992895810697 105.88577171355752 L 1160.7634158071398 105.9151303210297 L 1160.5332978403278 105.94345010251467 L 1160.3025649218657 105.97072822605791 L 1160.0712401248534 105.99696196386981 L 1159.8393465815775 106.02214869259844 L 1159.6069074811994 106.04628589359189 L 1159.3739460674353 106.0693711531502 L 1159.1404856362324 106.09140216276666 L 1158.9065495334394 106.11237671935864 L 1158.6721611524715 106.13229272548797 L 1158.4373439319716 106.15114818957065 L 1158.2021213534658 106.16894122607596 L 1157.9665169390162 106.1856700557151 L 1157.730554248868 106.20133300561903 L 1157.4942568790932 106.21592850950582 L 1157.257648459232 106.22945510783724 L 1157.0207526499296 106.24191144796474 L 1156.783593140569 106.25329628426466 L 1156.546193646904 106.2636084782629 L 1156.3085779086855 106.2728469987486 L 1156.0707696872898 106.28101092187747 L 1155.8327927633409 106.28809943126396 L 1155.5946709343325 106.29411181806304 L 1155.3564280122491 106.29904748104106 L 1155.1180878211849 106.30290592663582 L 1154.8796741949598 106.30568676900597 L 1154.6412109747382 106.30738973006962 L 1154.402722006643 106.30801463953205 L 1154.1642311393725 106.30756143490284 L 1153.9257622218147 106.3060301615021 L 1153.6873391006625 106.30342097245587 L 1153.4489856180294 106.29973412868088 L 1153.210725609065 106.29496999885845 L 1152.9725828995718 106.28912905939758 L 1152.734581303622 106.28221189438736 L 1152.4967446211772 106.27421919553852 L 1152.2590966357072 106.26515176211427 L 1152.0216611118128 106.25501050085043 L 1151.784461792848 106.24379642586464 L 1151.5475223985477 106.23151065855508 L 1151.3108666226533 106.21815442748823 L 1151.0745181305456 106.20372906827606 L 1150.8385005568766 106.1882360234425 L 1150.602837503207 106.17167684227908 L 1150.367552535646 106.15405318069014 L 1150.1326691824938 106.13536680102716 L 1149.8982109318906 106.11561957191253 L 1149.6642012294656 106.09481346805269 L 1149.4306634759944 106.0729505700407 L 1149.1976210250573 106.05003306414814 L 1148.9650971807057 106.0260632421065 L 1148.7331151951298 106.00104350087803 L 1148.501698266335 105.97497634241597 L 1148.2708695358217 105.94786437341445 L 1148.04065208627 105.9197103050478 L 1147.8110689392336 105.89051695269937 L 1147.5821430528354 105.86028723568009 L 1147.3538973194734 105.82902417693644 L 1147.1263545635306 105.79673090274827 L 1146.8995375390934 105.76341064241608 L 1146.6734689276748 105.72906672793813 L 1146.4481713359478 105.69370259367726 L 1146.223667293484 105.6573217760174 L 1145.9999792505 105.61992791301003 L 1145.777129575614 105.58152474401028 L 1145.555140553608 105.54211610930304 L 1145.3340343831987 105.50170594971894 L 1145.1138331748195 105.46029830624026 L 1144.8945589484072 105.41789731959686 L 1144.676233631202 105.37450722985206 L 1144.4588790555538 105.33013237597868 L 1144.2425169567387 105.28477719542511 L 1144.0271689707863 105.23844622367163 L 1143.812856632316 105.1911440937768 L 1143.599601372383 105.14287553591419 L 1143.3874245163354 105.09364537689936 L 1143.1763472816822 105.0434585397072 L 1142.966390775971 104.99232004297959 L 1142.757575994677 104.9402350005236 L 1142.5499238191046 104.88720862080007 L 1142.3434550142983 104.83324620640276 L 1142.1381902269668 104.77835315352817 L 1141.9341499834172 104.72253495143585 L 1141.7313546875043 104.66579718189945 L 1141.5298246185887 104.60814551864868 L 1141.3295799295088 104.54958572680184 L 1141.1306406445674 104.49012366228926 L 1140.9330266575266 104.42976527126788 L 1140.7367577296206 104.36851658952648 L 1140.541853487579 104.30638374188221 L 1140.3483334216628 104.24337294156805 L 1140.1562168837181 104.17949048961154 L 1139.9655230852384 104.11474277420461 L 1139.7762710954444 104.04913627006486 L 1139.5884798393774 103.98267753778805 L 1139.4021680960068 103.91537322319199 L 1139.2173544963514 103.84723005665208 L 1139.0340575216173 103.77825485242818 L 1138.852295501349 103.70845450798322 L 1138.6720866115975 103.63783600329349 L 1138.4934488731012 103.56640640015061 L 1138.3164001494854 103.49417284145538 L 1138.1409581454745 103.42114255050346 L 1137.967140405123 103.3473228302631 L 1137.79496431006 103.27272106264479 L 1137.624447077752 103.19734470776314 L 1137.4556057597792 103.1212013031908 L 1137.2884572401333 103.04429846320481 L 1137.1230182335269 102.96664387802507 L 1136.9593052837229 102.88824531304537 L 1136.7973347618795 102.8091106080569 L 1136.637122864914 102.72924767646418 L 1136.478685613883 102.64866450449387 L 1136.3220388523794 102.56736915039596 L 1136.1671982449484 102.48536974363815 L 1136.014179275522 102.40267448409276 L 1135.8629972458698 102.31929164121684 L 1135.7136672740685 102.2352295532252 L 1135.566204292991 102.15049662625658 L 1135.4206230488126 102.06510133353308 L 1135.276938099536 101.97905221451278 L 1135.1351638135368 101.89235787403591 L 1134.9953143681253 101.80502698146424 L 1134.8574037481296 101.71706826981428 L 1134.7214457444966 101.62849053488388 L 1134.5874539529136 101.53930263437272 L 1134.4554417724478 101.44951348699652 L 1134.3254224042075 101.35913207159521 L 1134.197408850021 101.26816742623502 L 1134.0714139111371 101.17662864730465 L 1133.9474501869447 101.08452488860574 L 1133.825530073713 100.9918653604374 L 1133.7056657633516 100.89865932867522 L 1133.5878692421916 100.80491611384473 L 1133.4721522897871 100.71064509018925 L 1133.358526477737 100.61585568473262 L 1133.2470031685275 100.5205573763364 L 1133.137593514397 100.424759694752 L 1133.0303084562192 100.32847221966773 L 1132.925158722411 100.2317045797509 L 1132.822154827858 100.13446645168483 L 1132.7213070728637 100.03676755920131 L 1132.6226255421195 99.93861767210817 L 1132.5261201036967 99.84002660531232 L 1132.431800408058 99.7410042178383 L 1132.3396758870952 99.64156041184232 L 1132.2497557531829 99.54170513162211 L 1132.16204899826 99.4414483626225 L 1132.0765643929287 99.34080013043682 L 1131.9933104855784 99.23977049980442 L 1131.9122956015306 99.13836957360418 L 1131.8335278422057 99.03660749184422 L 1131.7570150843144 98.9344944306479 L 1131.6827649790687 98.83204060123627 L 1131.610784951417 98.72925624890688 L 1131.5410821993023 98.6261516520093 L 1131.4736636929417 98.52273712091731 L 1131.4085361741297 98.41902299699785 L 1131.345706155564 98.31501965157686 L 1131.2851799201937 98.21073748490224 L 1131.2269635205923 98.10618692510373 L 1131.171062778351 98.0013784271502 L 1131.1174832834974 97.89632247180411 L 1131.0662303939368 97.79102956457344 L 1131.0173092349148 97.68551023466115 L 1130.9707246985072 97.57977503391233 L 1130.926481443128 97.47383453575894 L 1130.8845838930667 97.3676993341625 L 1130.845036238043 97.2613800425547 L 1130.8078424327894 97.15488729277617 L 1130.7730061966554 97.04823173401307 L 1130.7405310132358 96.94142403173245 L 1130.7104201300217 96.8344748666155 L 1130.6826765580765 96.72739493348962 L 1130.657303071734 96.6201949402589 L 1130.6343022083222 96.51288560683331 L 1130.6136762679077 96.40547766405678 L 1130.5954273130676 96.29798185263407 L 1130.5795571686822 96.19040892205675 L 1130.5660674217527 96.08276962952824 L 1130.5549594212425 95.9750747388881 L 1130.5462342779424 95.86733501953563 L 1130.5398928643594 95.75956124535298 L 1130.5359358146297 95.65176419362778 L 1130.534363524455 95.54395464397535" stroke-miterlimit="10" stroke-width="2.7769845610000004" stroke-dasharray=""/></g><g><g/><text fill="black" stroke="none" font-family="sans-serif" font-size="11pt" font-style="normal" font-weight="normal" text-decoration="normal" x="1123.0057851486329" y="123.83569119881818" text-anchor="start" dominant-baseline="alphabetic" xml:space="preserve">Database</text></g><g><path fill="white" stroke="black" paint-order="fill stroke markers" d=" M 90.987082381 771.6081780603181 A 9.311065881 9.311065881 0 1 1 90.98707772546743 771.5988669959889 M 81.67601649999999 780.9192439413181 L 81.67601649999999 800.8481919673181 M 69.914670124 788.1067333933181 L 93.43736287599998 788.1067333933181 M 81.67601649999999 800.8481919673181 L 69.914670124 819.4703237293181 M 81.67601649999999 800.8481919673181 L 93.43736287599998 819.4703237293181" stroke-miterlimit="10" stroke-width="2.7769845610000004" stroke-dasharray=""/></g><g><g/><text fill="black" stroke="none" font-family="sans-serif" font-size="11pt" font-style="normal" font-weight="normal" text-decoration="normal" x="53.1470400595703" y="756.008058908818" text-anchor="start" dominant-baseline="alphabetic" xml:space="preserve">Landlord</text></g><g><path fill="white" stroke="black" paint-order="fill stroke markers" d=" M 396.3234048006302 787.110285992018 A 24.2577769005 24.2577769005 0 1 1 396.3233926717428 787.0860282191604 M 346.41935871913023 813.589650541318 L 397.7118970811302 813.589650541318" stroke-miterlimit="10" stroke-width="2.7769845610000004" stroke-dasharray=""/></g><g><g/><text fill="black" stroke="none" font-family="sans-serif" font-size="11pt" font-style="normal" font-weight="normal" text-decoration="normal" x="353.32547744847005" y="756.008058908818" text-anchor="start" dominant-baseline="alphabetic" xml:space="preserve">Client</text></g><g><path fill="white" stroke="black" paint-order="fill stroke markers" d=" M 821.9885288960729 787.110285992018 A 24.2577769005 24.2577769005 0 1 1 821.9885167671855 787.0860282191604 M 772.084482814573 813.589650541318 L 823.377021176573 813.589650541318" stroke-miterlimit="10" stroke-width="2.7769845610000004" stroke-dasharray=""/></g><g><g/><text fill="black" stroke="none" font-family="sans-serif" font-size="11pt" font-style="normal" font-weight="normal" text-decoration="normal" x="769.2053537411784" y="756.008058908818" text-anchor="start" dominant-baseline="alphabetic" xml:space="preserve">Backend</text></g><g><path fill="white" stroke="black" paint-order="fill stroke markers" d=" M 1130.5343332769219 808.7707655678181 L 1130.5343332769219 774.466838637818 L 1178.233126912922 774.466838637818 L 1178.233126912922 808.7707655678181" stroke-miterlimit="10" stroke-width="2.7769845610000004" stroke-dasharray=""/><path fill="white" stroke="black" paint-order="fill stroke markers" d=" M 1178.233126912922 773.274368796918 L 1178.2319344530183 773.3821793418347 L 1178.2283571925523 773.4899791057866 L 1178.2223954892468 773.5977573088874 L 1178.2140499392676 773.7055031734064 L 1178.2033213771624 773.8132059248471 L 1178.1902108757786 773.920854793024 L 1178.1747197461552 774.0284390131401 L 1178.1568495373926 774.1359478268629 L 1178.1366020364967 774.2433704834007 L 1178.1139792682004 774.3506962405773 L 1178.088983494762 774.4579143659065 L 1178.0616172157381 774.5650141376651 L 1178.0318831677334 774.6719848459652 L 1177.9997843241283 774.7788157938251 L 1177.96532389478 774.8854962982389 L 1177.9285053257033 774.9920156912451 L 1177.8893322987242 775.0983633209934 L 1177.8478087311123 775.2045285528093 L 1177.8039387751903 775.3105007702579 L 1177.757726817917 775.4162693762061 L 1177.7091774804496 775.5218237938813 L 1177.6582956176817 775.6271534679295 L 1177.6050863177566 775.7322478654713 L 1177.5495549015604 775.8370964771545 L 1177.4917069221885 775.9416888182054 L 1177.4315481643903 776.0460144294768 L 1177.3690846439915 776.1500628784946 L 1177.3043226072925 776.2538237605007 L 1177.2372685304424 776.3572866994934 L 1177.1679291187934 776.4604413492649 L 1177.096311306229 776.5632773944361 L 1177.0224222544703 776.6657845514884 L 1176.946269352361 776.7679525697914 L 1176.8678602151283 776.8697712326284 L 1176.7872026836203 776.971230358218 L 1176.7043048235228 777.0723198007321 L 1176.619174924553 777.1730294513109 L 1176.5318214996296 777.273349239073 L 1176.4422532840224 777.3732691321235 L 1176.3504792344781 777.4727791385561 L 1176.2565085283259 777.5718693074533 L 1176.1603505625574 777.6705297298806 L 1176.062014952889 777.768750539878 L 1175.9615115328004 777.8665219154466 L 1175.858850352549 777.96383407953 L 1175.754041678168 778.060677300993 L 1175.6470959904373 778.1570418955943 L 1175.5380239838364 778.2529182269545 L 1175.426836565475 778.3482967075205 L 1175.3135448540024 778.4431677995237 L 1175.1981601784955 778.537522015934 L 1175.0806940773255 778.6313499214083 L 1174.9611582970047 778.7246421332343 L 1174.8395647910113 778.8173893222685 L 1174.715925718595 778.9095822138694 L 1174.5902534435595 779.0012115888245 L 1174.462560533028 779.0922682842728 L 1174.3328597561851 779.1827431946207 L 1174.201164083 779.2726272724524 L 1174.0674866829308 779.361911529435 L 1173.931840923606 779.4505870372174 L 1173.794240369488 779.5386449283225 L 1173.6546987805182 779.6260763970347 L 1173.513230110739 779.7128727002801 L 1173.3698485068992 779.7990251585004 L 1173.2245683070398 779.8845251565217 L 1173.0774040390602 779.9693641444156 L 1172.928370419264 780.0535336383539 L 1172.7774823508892 780.1370252214573 L 1172.6247549226168 780.2198305446371 L 1172.4702034070624 780.30194132743 L 1172.3138432592489 780.3833493588262 L 1172.1556901150607 780.4640464980903 L 1171.9957597896805 780.5440246755757 L 1171.8340682760072 780.6232758935311 L 1171.6706317430578 780.701792226901 L 1171.5054665343494 780.7795658241174 L 1171.3385891662651 780.8565889078855 L 1171.1700163264027 780.9328537759609 L 1170.9997648719054 781.0083528019204 L 1170.8278518277773 781.0830784359244 L 1170.6542943851794 781.1570232054718 L 1170.479109899711 781.2301797161472 L 1170.302315889675 781.3025406523603 L 1170.1239300343248 781.3740987780782 L 1169.9439701720976 781.4448469375477 L 1169.7624542988294 781.5147780560118 L 1169.5794005659566 781.583885140417 L 1169.3948272786995 781.6521612801124 L 1169.2087528942334 781.7195996475409 L 1169.0211960198415 781.7861934989221 L 1168.8321754110548 781.8519361749262 L 1168.641709969777 781.9168211013405 L 1168.449818742393 781.9808417897264 L 1168.2565209178663 782.0439918380683 L 1168.0618358258178 782.1062649314141 L 1167.8657829345946 782.1676548425064 L 1167.6683818493225 782.2281554324052 L 1167.4696523099453 782.2877606511018 L 1167.2696141892516 782.3464645381242 L 1167.0682874908866 782.4042612231325 L 1166.8656923473525 782.4611449265064 L 1166.6618490179949 782.517109959923 L 1166.4567778869764 782.5721507269255 L 1166.2504994612398 782.6262617234833 L 1166.0430343684554 782.6794375385415 L 1165.8344033549597 782.731672854563 L 1165.6246272836802 782.78296244806 L 1165.4137271320492 782.8333011901155 L 1165.2017239899062 782.8826840468975 L 1164.9886390573886 782.9311060801614 L 1164.774493642812 782.9785624477443 L 1164.55930916054 783.0250484040488 L 1164.3431071288408 783.0705593005182 L 1164.1259091677375 783.1150905861007 L 1163.9077369968454 783.1586378077048 L 1163.6886124332 783.2011966106447 L 1163.4685573890747 783.2427627390756 L 1163.2475938697905 783.2833320364193 L 1163.0257439715156 783.3229004457797 L 1162.8030298790545 783.3614640103491 L 1162.5794738636312 783.3990188738029 L 1162.3550982806605 783.4355612806863 L 1162.1299255675142 783.4710875767889 L 1161.9039782412758 783.5055942095107 L 1161.6772788964897 783.5390777282173 L 1161.4498502029012 783.5715347845847 L 1161.2217149031906 783.6029621329343 L 1160.992895810697 783.6333566305574 L 1160.7634158071398 783.6627152380295 L 1160.5332978403278 783.6910350195145 L 1160.3025649218657 783.7183131430577 L 1160.0712401248534 783.7445468808696 L 1159.8393465815775 783.7697336095982 L 1159.6069074811994 783.7938708105917 L 1159.3739460674353 783.81695607015 L 1159.1404856362324 783.8389870797664 L 1158.9065495334394 783.8599616363584 L 1158.6721611524715 783.8798776424878 L 1158.4373439319716 783.8987331065705 L 1158.2021213534658 783.9165261430758 L 1157.9665169390162 783.933254972715 L 1157.730554248868 783.9489179226189 L 1157.4942568790932 783.9635134265056 L 1157.257648459232 783.977040024837 L 1157.0207526499296 783.9894963649646 L 1156.783593140569 784.0008812012645 L 1156.546193646904 784.0111933952627 L 1156.3085779086855 784.0204319157484 L 1156.0707696872898 784.0285958388773 L 1155.8327927633409 784.0356843482638 L 1155.5946709343325 784.0416967350628 L 1155.3564280122491 784.0466323980409 L 1155.1180878211849 784.0504908436357 L 1154.8796741949598 784.0532716860058 L 1154.6412109747382 784.0549746470695 L 1154.402722006643 784.0555995565319 L 1154.1642311393725 784.0551463519026 L 1153.9257622218147 784.0536150785019 L 1153.6873391006625 784.0510058894557 L 1153.4489856180294 784.0473190456808 L 1153.210725609065 784.0425549158583 L 1152.9725828995718 784.0367139763974 L 1152.734581303622 784.0297968113872 L 1152.4967446211772 784.0218041125383 L 1152.2590966357072 784.0127366791141 L 1152.0216611118128 784.0025954178502 L 1151.784461792848 783.9913813428644 L 1151.5475223985477 783.9790955755549 L 1151.3108666226533 783.965739344488 L 1151.0745181305456 783.9513139852759 L 1150.8385005568766 783.9358209404423 L 1150.602837503207 783.9192617592789 L 1150.367552535646 783.90163809769 L 1150.1326691824938 783.882951718027 L 1149.8982109318906 783.8632044889123 L 1149.6642012294656 783.8423983850525 L 1149.4306634759944 783.8205354870405 L 1149.1976210250573 783.7976179811479 L 1148.9650971807057 783.7736481591063 L 1148.7331151951298 783.7486284178779 L 1148.501698266335 783.7225612594158 L 1148.2708695358217 783.6954492904142 L 1148.04065208627 783.6672952220476 L 1147.8110689392336 783.6381018696992 L 1147.5821430528354 783.6078721526799 L 1147.3538973194734 783.5766090939362 L 1147.1263545635306 783.5443158197481 L 1146.8995375390934 783.5109955594158 L 1146.6734689276748 783.476651644938 L 1146.4481713359478 783.4412875106771 L 1146.223667293484 783.4049066930172 L 1145.9999792505 783.3675128300099 L 1145.777129575614 783.3291096610101 L 1145.555140553608 783.2897010263029 L 1145.3340343831987 783.2492908667188 L 1145.1138331748195 783.2078832232401 L 1144.8945589484072 783.1654822365966 L 1144.676233631202 783.1220921468519 L 1144.4588790555538 783.0777172929785 L 1144.2425169567387 783.032362112425 L 1144.0271689707863 782.9860311406715 L 1143.812856632316 782.9387290107766 L 1143.599601372383 782.890460452914 L 1143.3874245163354 782.8412302938992 L 1143.1763472816822 782.791043456707 L 1142.966390775971 782.7399049599794 L 1142.757575994677 782.6878199175234 L 1142.5499238191046 782.6347935377999 L 1142.3434550142983 782.5808311234026 L 1142.1381902269668 782.525938070528 L 1141.9341499834172 782.4701198684356 L 1141.7313546875043 782.4133820988993 L 1141.5298246185887 782.3557304356485 L 1141.3295799295088 782.2971706438017 L 1141.1306406445674 782.2377085792891 L 1140.9330266575266 782.1773501882677 L 1140.7367577296206 782.1161015065263 L 1140.541853487579 782.053968658882 L 1140.3483334216628 781.9909578585679 L 1140.1562168837181 781.9270754066114 L 1139.9655230852384 781.8623276912044 L 1139.7762710954444 781.7967211870647 L 1139.5884798393774 781.7302624547879 L 1139.4021680960068 781.6629581401918 L 1139.2173544963514 781.5948149736519 L 1139.0340575216173 781.525839769428 L 1138.852295501349 781.456039424983 L 1138.6720866115975 781.3854209202933 L 1138.4934488731012 781.3139913171505 L 1138.3164001494854 781.2417577584552 L 1138.1409581454745 781.1687274675032 L 1137.967140405123 781.0949077472629 L 1137.79496431006 781.0203059796446 L 1137.624447077752 780.944929624763 L 1137.4556057597792 780.8687862201906 L 1137.2884572401333 780.7918833802046 L 1137.1230182335269 780.7142287950248 L 1136.9593052837229 780.6358302300451 L 1136.7973347618795 780.5566955250567 L 1136.637122864914 780.476832593464 L 1136.478685613883 780.3962494214936 L 1136.3220388523794 780.3149540673958 L 1136.1671982449484 780.2329546606379 L 1136.014179275522 780.1502594010925 L 1135.8629972458698 780.0668765582167 L 1135.7136672740685 779.982814470225 L 1135.566204292991 779.8980815432564 L 1135.4206230488126 779.8126862505329 L 1135.276938099536 779.7266371315126 L 1135.1351638135368 779.6399427910358 L 1134.9953143681253 779.5526118984641 L 1134.8574037481296 779.4646531868141 L 1134.7214457444966 779.3760754518837 L 1134.5874539529136 779.2868875513725 L 1134.4554417724478 779.1970984039964 L 1134.3254224042075 779.106716988595 L 1134.197408850021 779.0157523432348 L 1134.0714139111371 778.9242135643045 L 1133.9474501869447 778.8321098056056 L 1133.825530073713 778.7394502774372 L 1133.7056657633516 778.646244245675 L 1133.5878692421916 778.5525010308445 L 1133.4721522897871 778.4582300071891 L 1133.358526477737 778.3634406017325 L 1133.2470031685275 778.2681422933362 L 1133.137593514397 778.1723446117518 L 1133.0303084562192 778.0760571366676 L 1132.925158722411 777.9792894967508 L 1132.822154827858 777.8820513686846 L 1132.7213070728637 777.7843524762011 L 1132.6226255421195 777.686202589108 L 1132.5261201036967 777.5876115223122 L 1132.431800408058 777.4885891348381 L 1132.3396758870952 777.3891453288421 L 1132.2497557531829 777.289290048622 L 1132.16204899826 777.1890332796223 L 1132.0765643929287 777.0883850474366 L 1131.9933104855784 776.9873554168042 L 1131.9122956015306 776.885954490604 L 1131.8335278422057 776.784192408844 L 1131.7570150843144 776.6820793476477 L 1131.6827649790687 776.5796255182361 L 1131.610784951417 776.4768411659066 L 1131.5410821993023 776.3737365690091 L 1131.4736636929417 776.2703220379171 L 1131.4085361741297 776.1666079139976 L 1131.345706155564 776.0626045685767 L 1131.2851799201937 775.958322401902 L 1131.2269635205923 775.8537718421036 L 1131.171062778351 775.7489633441501 L 1131.1174832834974 775.6439073888039 L 1131.0662303939368 775.5386144815733 L 1131.0173092349148 775.433095151661 L 1130.9707246985072 775.3273599509122 L 1130.926481443128 775.2214194527587 L 1130.8845838930667 775.1152842511623 L 1130.845036238043 775.0089649595545 L 1130.8078424327894 774.902472209776 L 1130.7730061966554 774.7958166510128 L 1130.7405310132358 774.6890089487323 L 1130.7104201300217 774.5820597836154 L 1130.6826765580765 774.4749798504895 L 1130.657303071734 774.3677798572587 L 1130.6343022083222 774.2604705238331 L 1130.6136762679077 774.1530625810566 L 1130.5954273130676 774.0455667696339 L 1130.5795571686822 773.9379938390566 L 1130.5660674217527 773.830354546528 L 1130.5549594212425 773.7226596558879 L 1130.5462342779424 773.6149199365354 L 1130.5398928643594 773.5071461623528 L 1130.5359358146297 773.3993491106276 L 1130.534363524455 773.2915395609751 L 1130.535176151063 773.1837282942606 L 1130.5383736131917 773.0759260915208 L 1130.5439555910973 772.9681437328862 L 1130.551921526587 772.8603919965028 L 1130.5622706230738 772.7526816574544 L 1130.5750018456565 772.6450234866853 L 1130.5901139212237 772.5374282499228 L 1130.6076053385802 772.4299067066008 L 1130.627474348599 772.3224696087841 L 1130.6497189643958 772.215127700093 L 1130.6743369615272 772.107891714629 L 1130.7013258782142 772.000772375901 L 1130.7306830155876 771.8937803957539 L 1130.762405437958 771.7869264732963 L 1130.7964899731098 771.6802212938316 L 1130.832933212618 771.5736755277887 L 1130.8717315121887 771.4672998296555 L 1130.9128809920244 771.3611048369132 L 1130.9563775372114 771.2551011689725 L 1131.0022167981315 771.1492994261118 L 1131.0503941908967 771.0437101884174 L 1131.1009048978078 770.938344014725 L 1131.1537438678365 770.833211441564 L 1131.2089058171296 770.7283229821044 L 1131.2663852295382 770.6236891251044 L 1131.326176357169 770.5193203338629 L 1131.388273220959 770.4152270451716 L 1131.4526696112734 770.3114196682731 L 1131.5193590885272 770.2079085838182 L 1131.588334983828 770.1047041428293 L 1131.6595903996438 770.0018166656644 L 1131.7331182104924 769.8992564409855 L 1131.808911063654 769.7970337247295 L 1131.8869613799066 769.6951587390831 L 1131.9672613542832 769.5936416714599 L 1132.0498029568537 769.4924926734818 L 1132.1345779335265 769.3917218599646 L 1132.2215778068744 769.2913393079056 L 1132.3107938769829 769.1913550554762 L 1132.4022172223188 769.0917791010185 L 1132.4958387006243 768.9926214020448 L 1132.5916489498295 768.8938918742426 L 1132.6896383889891 768.7956003904823 L 1132.7897972192409 768.6977567798303 L 1132.8921154247853 768.6003708265662 L 1132.9965827738872 768.5034522692041 L 1133.1031888198986 768.4070107995191 L 1133.211922902304 768.3110560615777 L 1133.3227741477854 768.2155976507737 L 1133.4357314713106 768.1206451128687 L 1133.5507835772416 768.0262079430374 L 1133.6679189604638 767.932295584918 L 1133.7871259075364 767.8389174296681 L 1133.9083924978638 767.7460828150254 L 1134.031706604888 767.653801024374 L 1134.1570558973017 767.562081285816 L 1134.2844278402792 767.470932771249 L 1134.413809696733 767.3803645954483 L 1134.5451885285852 767.2903858151561 L 1134.6785511980618 767.2010054281754 L 1134.8138843690072 767.1122323724707 L 1134.951174508217 767.024075525273 L 1135.0904078867918 766.9365437021942 L 1135.2315705815097 766.8496456563432 L 1135.374648476219 766.7633900774523 L 1135.519627263249 766.6777855910077 L 1135.6664924448423 766.5928407573865 L 1135.815229334603 766.5085640710013 L 1135.965823058966 766.4249639594506 L 1136.1182585586841 766.3420487826756 L 1136.272520590335 766.2598268321254 L 1136.4285937278437 766.1783063299262 L 1136.5864623640266 766.0974954280603 L 1136.7461107121514 766.0174022075505 L 1136.9075228075167 765.9380346776522 L 1137.070682509047 765.8594007750522 L 1137.2355735009087 765.7815083630754 L 1137.4021792941396 765.7043652308979 L 1137.5704832282993 765.6279790927687 L 1137.7404684731346 765.5523575872379 L 1137.912118030263 765.4775082763931 L 1138.0854147348712 765.4034386451029 L 1138.2603412574338 765.3301561002689 L 1138.4368801054438 765.2576679700844 L 1138.615013625164 765.1859815033021 L 1138.7947240033905 765.1151038685088 L 1138.9759932692355 765.0450421534089 L 1139.1588032959232 764.9758033641157 L 1139.3431358026035 764.9073944244502 L 1139.528972356179 764.8398221752497 L 1139.7162943731496 764.7730933736824 L 1139.9050831214697 764.7072146925732 L 1140.0953197224214 764.642192719735 L 1140.2869851525036 764.5780339573113 L 1140.4800602453327 764.5147448211244 L 1140.6745256935603 764.4523316400355 L 1140.8703620508038 764.3908006553106 L 1141.0675497335908 764.330158019997 L 1141.266069023317 764.2704097983076 L 1141.4659000682188 764.2115619650147 L 1141.6670228853588 764.1536204048527 L 1141.8694173626225 764.0965909119293 L 1142.0730632607306 764.0404791891464 L 1142.2779402152635 763.9852908476292 L 1142.484027738696 763.9310314061662 L 1142.6913052224481 763.8777062906561 L 1142.8997519389436 763.8253208335661 L 1143.1093470436847 763.7738802733984 L 1143.3200695773357 763.7233897541659 L 1143.5318984678188 763.6738543248784 L 1143.7448125324213 763.6252789390379 L 1143.9587904799143 763.5776684541423 L 1144.1738109126816 763.5310276312003 L 1144.3898523288588 763.4853611342556 L 1144.6068931244845 763.4406735299196 L 1144.8249115956596 763.3969692869156 L 1145.0438859407193 763.3542527756315 L 1145.263794262411 763.3125282676826 L 1145.4846145700863 763.2717999354853 L 1145.7063247818978 763.2320718518387 L 1145.9289027270097 763.1933479895181 L 1146.1523261478128 763.1556322208772 L 1146.376572702151 763.1189283174618 L 1146.601619965556 763.0832399496315 L 1146.8274454334887 763.0485706861934 L 1147.0540265235907 763.0149239940448 L 1147.2813405779418 762.9823032378271 L 1147.509364865326 762.9507116795885 L 1147.7380765835044 762.9201524784586 L 1147.967452861496 762.8906286903322 L 1148.197470761864 762.8621432675633 L 1148.4281072830101 762.8346990586705 L 1148.6593393614746 762.8082988080517 L 1148.891143874242 762.7829451557103 L 1149.1234976410544 762.7586406369901 L 1149.3563774267286 762.7353876823228 L 1149.5897599434802 762.7131886169846 L 1149.8236218532518 762.6920456608633 L 1150.0579397700476 762.6719609282371 L 1150.2926902622712 762.6529364275625 L 1150.5278498550688 762.6349740612736 L 1150.7633950326772 762.6180756255922 L 1150.9993022407748 762.6022428103477 L 1151.2355478888376 762.5874771988084 L 1151.4721083524973 762.5737802675231 L 1151.7089599759051 762.5611533861738 L 1151.9460790740957 762.5495978174379 L 1152.1834419353572 762.5391147168626 L 1152.4210248236009 762.5297051327493 L 1152.6588039807364 762.5213700060486 L 1152.8967556290456 762.5141101702662 L 1153.1348559735625 762.5079263513795 L 1153.3730812044505 762.5028191677656 L 1153.6114074993855 762.4987891301381 L 1153.8498110259366 762.4958366414977 L 1154.0882679439494 762.4939619970909 L 1154.3267544079313 762.4931653843803 L 1154.5652465694343 762.4934468830266 L 1154.8037205794412 762.4948064648804 L 1155.0421525907495 762.4972439939843 L 1155.280518760357 762.5007592265877 L 1155.5187952518454 762.5053518111702 L 1155.7569582377637 762.511021288477 L 1155.9949839020123 762.5177670915652 L 1156.2328484422228 762.5255885458602 L 1156.4705280721396 762.534484869223 L 1156.7079990239974 762.5444551720286 L 1156.9452375508995 762.5554984572553 L 1157.1822199291905 762.5676136205835 L 1157.4189224608301 762.5807994505071 L 1157.6553214757623 762.595054628454 L 1157.8913933342828 762.6103777289185 L 1158.1271144294026 762.626767219603 L 1158.3624611892083 762.6442214615724 L 1158.59741007922 762.6627387094169 L 1158.831937604745 762.682317111427 L 1159.0660203132256 762.7029547097791 L 1159.2996347965864 762.7246494407304 L 1159.5327576935736 762.7473991348259 L 1159.7653656920916 762.7712015171152 L 1159.9974355315346 762.7960542073798 L 1160.2289440051122 762.8219547203715 L 1160.4598679621695 762.8489004660605 L 1160.6901843105038 762.8768887498949 L 1160.9198700186716 762.9059167730693 L 1161.148902118294 762.9359816328057 L 1161.3772577063517 762.9670803226433 L 1161.6049139474762 762.9992097327389 L 1161.831848076233 763.0323666501783 L 1162.0580373993985 763.0665477592976 L 1162.2834592982285 763.1017496420139 L 1162.5080912307217 763.1379687781687 L 1162.7319107338712 763.1752015458784 L 1162.9548954259137 763.2134442218971 L 1163.1770230085658 763.2526929819894 L 1163.3982712692543 763.2929439013118 L 1163.6186180833374 763.3341929548059 L 1163.8380414163173 763.3764360176008 L 1164.0565193260438 763.4196688654253 L 1164.2740299649076 763.4638871750308 L 1164.4905515820265 763.5090865246231 L 1164.706062525419 763.5552623943048 L 1164.9205412441702 763.6024101665276 L 1165.133966290587 763.6505251265536 L 1165.346316322343 763.6996024629267 L 1165.5575701046116 763.7496372679543 L 1165.767706512191 763.8006245381976 L 1165.976704531615 763.8525591749719 L 1166.184543263256 763.9054359848569 L 1166.3912019234144 763.9592496802157 L 1166.596659846396 764.0139948797238 L 1166.80089648658 764.0696661089064 L 1167.0038914204724 764.1262578006874 L 1167.205624348749 764.1837642959446 L 1167.406075098285 764.2421798440763 L 1167.6052236241728 764.3014986035766 L 1167.8030500117254 764.3617146426188 L 1167.999534478469 764.4228219396493 L 1168.1946573761206 764.4848143839893 L 1168.3883991925534 764.547685776446 L 1168.5807405537469 764.6114298299324 L 1168.7716622257253 764.6760401700965 L 1168.9611451164806 764.741510335958 L 1169.1491702778815 764.8078337805549 L 1169.3357189075684 764.875003871598 L 1169.5207723508342 764.9430138921342 L 1169.7043121024885 765.0118570412181 L 1169.8863198087092 765.0815264345922 L 1170.066777268877 765.1520151053752 L 1170.245666437397 765.2233160047588 L 1170.422969425501 765.2954220027123 L 1170.5986685030375 765.3683258886962 L 1170.772746100246 765.4420203723826 L 1170.9451848095111 765.5164980843844 L 1171.1159673871061 765.5917515769926 L 1171.2850767549155 765.6677733249206 L 1171.452496002143 765.7445557260571 L 1171.618208387004 765.8220911022258 L 1171.7821973383977 765.9003716999539 L 1171.9444464575656 765.9793896912466 L 1172.1049395197313 766.0591371743707 L 1172.263660475722 766.1396061746444 L 1172.4205934535746 766.2207886452348 L 1172.575722760122 766.3026764679623 L 1172.7290328825627 766.3852614541131 L 1172.8805084900125 766.4685353452571 L 1173.0301344350366 766.5524898140749 L 1173.1778957551655 766.6371164651894 L 1173.32377767439 766.722406836006 L 1173.46776560464 766.8083523975588 L 1173.6098451472421 766.8949445553632 L 1173.7500020943608 766.9821746502755 L 1173.888222430418 767.0700339593591 L 1174.0244923334953 767.1585136967561 L 1174.1587981767161 767.2476050145667 L 1174.291126529608 767.3372990037332 L 1174.4214641594456 767.4275866949314 L 1174.549798032575 767.5184590594675 L 1174.6761153157156 767.6099070101809 L 1174.8004033772443 767.7019214023526 L 1174.9226497884588 767.7944930346199 L 1175.0428423248195 767.887612649897 L 1175.160968967173 767.9812709362999 L 1175.2770179029537 768.0754585280779 L 1175.3909775273646 768.1701660065503 L 1175.5028364445382 768.2653839010484 L 1175.6125834686761 768.3611026898618 L 1175.7202076251672 768.4573128011916 L 1175.8256981516856 768.5540046141068 L 1175.9290444992669 768.6511684595066 L 1176.0302363333617 768.7487946210875 L 1176.1292635348716 768.8468733363147 L 1176.2261162011587 768.9453947973984 L 1176.320784647037 769.0443491522745 L 1176.413259405741 769.1437265055902 L 1176.5035312298717 769.2435169196928 L 1176.591591092322 769.3437104156241 L 1176.6774301871792 769.444296974118 L 1176.761039930605 769.5452665366023 L 1176.842411961695 769.6466090062053 L 1176.921538143314 769.748314248764 L 1176.9984105629094 769.8503720938393 L 1177.0730215333035 769.9527723357315 L 1177.1453635934615 770.0555047345019 L 1177.2154295092378 770.1585590169963 L 1177.2832122740988 770.2619248778719 L 1177.3487051098248 770.3655919806292 L 1177.4119014671867 770.4695499586442 L 1177.4727950266013 770.5737884162056 L 1177.5313796987639 770.6782969295547 L 1177.5876496252554 770.783065047927 L 1177.6415991791307 770.8880822945982 L 1177.6932229654788 770.9933381679311 L 1177.7425158219646 771.098822142426 L 1177.789472819343 771.2045236697735 L 1177.834089261954 771.3104321799087 L 1177.87636068819 771.416537082069 L 1177.9162828709439 771.5228277658528 L 1177.9538518180304 771.6292936022799 L 1177.9890637725866 771.7359239448556 L 1178.021915213446 771.8427081306345 L 1178.0524028554917 771.9496354812869 L 1178.0805236499855 772.056695304167 L 1178.106274784871 772.1638768933817 L 1178.129653685056 772.2711695308612 L 1178.1506580126704 772.3785624874314 L 1178.1692856672985 772.486045023886 L 1178.1855347861908 772.5936063920611 L 1178.1994037444488 772.7012358359093 L 1178.210891155188 772.808922592576 L 1178.2199958696772 772.9166558934753 L 1178.2267169774523 773.0244249653667 L 1178.2310538064085 773.1322190314331 L 1178.233005922866 773.2400273123576 M 1178.233126912922 807.5782957269181 L 1178.2319344530183 807.6861062718348 L 1178.2283571925523 807.7939060357867 L 1178.2223954892468 807.9016842388875 L 1178.2140499392676 808.0094301034065 L 1178.2033213771624 808.1171328548472 L 1178.1902108757786 808.2247817230241 L 1178.1747197461552 808.3323659431402 L 1178.1568495373926 808.439874756863 L 1178.1366020364967 808.5472974134008 L 1178.1139792682004 808.6546231705775 L 1178.088983494762 808.7618412959066 L 1178.0616172157381 808.8689410676652 L 1178.0318831677334 808.9759117759653 L 1177.9997843241283 809.0827427238252 L 1177.96532389478 809.189423228239 L 1177.9285053257033 809.2959426212453 L 1177.8893322987242 809.4022902509935 L 1177.8478087311123 809.5084554828094 L 1177.8039387751903 809.614427700258 L 1177.757726817917 809.7201963062062 L 1177.7091774804496 809.8257507238814 L 1177.6582956176817 809.9310803979296 L 1177.6050863177566 810.0361747954714 L 1177.5495549015604 810.1410234071546 L 1177.4917069221885 810.2456157482055 L 1177.4315481643903 810.3499413594769 L 1177.3690846439915 810.4539898084947 L 1177.3043226072925 810.5577506905008 L 1177.2372685304424 810.6612136294935 L 1177.1679291187934 810.764368279265 L 1177.096311306229 810.8672043244362 L 1177.0224222544703 810.9697114814885 L 1176.946269352361 811.0718794997915 L 1176.8678602151283 811.1736981626285 L 1176.7872026836203 811.2751572882181 L 1176.7043048235228 811.3762467307322 L 1176.619174924553 811.476956381311 L 1176.5318214996296 811.5772761690731 L 1176.4422532840224 811.6771960621236 L 1176.3504792344781 811.7767060685562 L 1176.2565085283259 811.8757962374534 L 1176.1603505625574 811.9744566598807 L 1176.062014952889 812.0726774698782 L 1175.9615115328004 812.1704488454467 L 1175.858850352549 812.2677610095301 L 1175.754041678168 812.3646042309931 L 1175.6470959904373 812.4609688255944 L 1175.5380239838364 812.5568451569546 L 1175.426836565475 812.6522236375206 L 1175.3135448540024 812.7470947295238 L 1175.1981601784955 812.8414489459341 L 1175.0806940773255 812.9352768514084 L 1174.9611582970047 813.0285690632344 L 1174.8395647910113 813.1213162522686 L 1174.715925718595 813.2135091438695 L 1174.5902534435595 813.3051385188246 L 1174.462560533028 813.3961952142729 L 1174.3328597561851 813.4866701246208 L 1174.201164083 813.5765542024525 L 1174.0674866829308 813.6658384594351 L 1173.931840923606 813.7545139672175 L 1173.794240369488 813.8425718583226 L 1173.6546987805182 813.9300033270348 L 1173.513230110739 814.0167996302802 L 1173.3698485068992 814.1029520885005 L 1173.2245683070398 814.1884520865218 L 1173.0774040390602 814.2732910744157 L 1172.928370419264 814.357460568354 L 1172.7774823508892 814.4409521514574 L 1172.6247549226168 814.5237574746373 L 1172.4702034070624 814.6058682574301 L 1172.3138432592489 814.6872762888263 L 1172.1556901150607 814.7679734280904 L 1171.9957597896805 814.8479516055758 L 1171.8340682760072 814.9272028235312 L 1171.6706317430578 815.0057191569011 L 1171.5054665343494 815.0834927541175 L 1171.3385891662651 815.1605158378856 L 1171.1700163264027 815.236780705961 L 1170.9997648719054 815.3122797319205 L 1170.8278518277773 815.3870053659246 L 1170.6542943851794 815.4609501354719 L 1170.479109899711 815.5341066461473 L 1170.302315889675 815.6064675823604 L 1170.1239300343248 815.6780257080783 L 1169.9439701720976 815.7487738675478 L 1169.7624542988294 815.8187049860119 L 1169.5794005659566 815.8878120704171 L 1169.3948272786995 815.9560882101125 L 1169.2087528942334 816.023526577541 L 1169.0211960198415 816.0901204289222 L 1168.8321754110548 816.1558631049263 L 1168.641709969777 816.2207480313406 L 1168.449818742393 816.2847687197265 L 1168.2565209178663 816.3479187680684 L 1168.0618358258178 816.4101918614142 L 1167.8657829345946 816.4715817725065 L 1167.6683818493225 816.5320823624053 L 1167.4696523099453 816.591687581102 L 1167.2696141892516 816.6503914681243 L 1167.0682874908866 816.7081881531326 L 1166.8656923473525 816.7650718565066 L 1166.6618490179949 816.8210368899231 L 1166.4567778869764 816.8760776569256 L 1166.2504994612398 816.9301886534834 L 1166.0430343684554 816.9833644685416 L 1165.8344033549597 817.0355997845631 L 1165.6246272836802 817.08688937806 L 1165.4137271320492 817.1372281201157 L 1165.2017239899062 817.1866109768976 L 1164.9886390573886 817.2350330101615 L 1164.774493642812 817.2824893777444 L 1164.55930916054 817.3289753340489 L 1164.3431071288408 817.3744862305183 L 1164.1259091677375 817.4190175161008 L 1163.9077369968454 817.462564737705 L 1163.6886124332 817.5051235406448 L 1163.4685573890747 817.5466896690757 L 1163.2475938697905 817.5872589664194 L 1163.0257439715156 817.6268273757798 L 1162.8030298790545 817.6653909403492 L 1162.5794738636312 817.702945803803 L 1162.3550982806605 817.7394882106864 L 1162.1299255675142 817.775014506789 L 1161.9039782412758 817.8095211395108 L 1161.6772788964897 817.8430046582175 L 1161.4498502029012 817.8754617145848 L 1161.2217149031906 817.9068890629344 L 1160.992895810697 817.9372835605575 L 1160.7634158071398 817.9666421680296 L 1160.5332978403278 817.9949619495146 L 1160.3025649218657 818.0222400730578 L 1160.0712401248534 818.0484738108697 L 1159.8393465815775 818.0736605395983 L 1159.6069074811994 818.0977977405918 L 1159.3739460674353 818.1208830001501 L 1159.1404856362324 818.1429140097665 L 1158.9065495334394 818.1638885663585 L 1158.6721611524715 818.1838045724879 L 1158.4373439319716 818.2026600365706 L 1158.2021213534658 818.2204530730759 L 1157.9665169390162 818.2371819027151 L 1157.730554248868 818.252844852619 L 1157.4942568790932 818.2674403565057 L 1157.257648459232 818.2809669548371 L 1157.0207526499296 818.2934232949647 L 1156.783593140569 818.3048081312646 L 1156.546193646904 818.3151203252628 L 1156.3085779086855 818.3243588457485 L 1156.0707696872898 818.3325227688774 L 1155.8327927633409 818.3396112782639 L 1155.5946709343325 818.3456236650629 L 1155.3564280122491 818.350559328041 L 1155.1180878211849 818.3544177736358 L 1154.8796741949598 818.3571986160059 L 1154.6412109747382 818.3589015770696 L 1154.402722006643 818.359526486532 L 1154.1642311393725 818.3590732819027 L 1153.9257622218147 818.357542008502 L 1153.6873391006625 818.3549328194558 L 1153.4489856180294 818.3512459756807 L 1153.210725609065 818.3464818458584 L 1152.9725828995718 818.3406409063975 L 1152.734581303622 818.3337237413873 L 1152.4967446211772 818.3257310425385 L 1152.2590966357072 818.3166636091142 L 1152.0216611118128 818.3065223478503 L 1151.784461792848 818.2953082728645 L 1151.5475223985477 818.283022505555 L 1151.3108666226533 818.2696662744881 L 1151.0745181305456 818.255240915276 L 1150.8385005568766 818.2397478704424 L 1150.602837503207 818.223188689279 L 1150.367552535646 818.2055650276901 L 1150.1326691824938 818.1868786480271 L 1149.8982109318906 818.1671314189124 L 1149.6642012294656 818.1463253150526 L 1149.4306634759944 818.1244624170406 L 1149.1976210250573 818.101544911148 L 1148.9650971807057 818.0775750891064 L 1148.7331151951298 818.052555347878 L 1148.501698266335 818.0264881894159 L 1148.2708695358217 817.9993762204143 L 1148.04065208627 817.9712221520477 L 1147.8110689392336 817.9420287996993 L 1147.5821430528354 817.91179908268 L 1147.3538973194734 817.8805360239363 L 1147.1263545635306 817.8482427497482 L 1146.8995375390934 817.814922489416 L 1146.6734689276748 817.7805785749381 L 1146.4481713359478 817.7452144406772 L 1146.223667293484 817.7088336230173 L 1145.9999792505 817.67143976001 L 1145.777129575614 817.6330365910102 L 1145.555140553608 817.593627956303 L 1145.3340343831987 817.5532177967189 L 1145.1138331748195 817.5118101532402 L 1144.8945589484072 817.4694091665967 L 1144.676233631202 817.426019076852 L 1144.4588790555538 817.3816442229786 L 1144.2425169567387 817.336289042425 L 1144.0271689707863 817.2899580706716 L 1143.812856632316 817.2426559407767 L 1143.599601372383 817.1943873829141 L 1143.3874245163354 817.1451572238993 L 1143.1763472816822 817.0949703867071 L 1142.966390775971 817.0438318899795 L 1142.757575994677 816.9917468475235 L 1142.5499238191046 816.9387204678 L 1142.3434550142983 816.8847580534027 L 1142.1381902269668 816.8298650005281 L 1141.9341499834172 816.7740467984357 L 1141.7313546875043 816.7173090288994 L 1141.5298246185887 816.6596573656486 L 1141.3295799295088 816.6010975738018 L 1141.1306406445674 816.5416355092892 L 1140.9330266575266 816.4812771182678 L 1140.7367577296206 816.4200284365264 L 1140.541853487579 816.3578955888821 L 1140.3483334216628 816.294884788568 L 1140.1562168837181 816.2310023366115 L 1139.9655230852384 816.1662546212045 L 1139.7762710954444 816.1006481170648 L 1139.5884798393774 816.034189384788 L 1139.4021680960068 815.9668850701919 L 1139.2173544963514 815.898741903652 L 1139.0340575216173 815.8297666994281 L 1138.852295501349 815.7599663549831 L 1138.6720866115975 815.6893478502934 L 1138.4934488731012 815.6179182471506 L 1138.3164001494854 815.5456846884553 L 1138.1409581454745 815.4726543975033 L 1137.967140405123 815.398834677263 L 1137.79496431006 815.3242329096447 L 1137.624447077752 815.248856554763 L 1137.4556057597792 815.1727131501907 L 1137.2884572401333 815.0958103102047 L 1137.1230182335269 815.0181557250249 L 1136.9593052837229 814.9397571600452 L 1136.7973347618795 814.8606224550568 L 1136.637122864914 814.7807595234641 L 1136.478685613883 814.7001763514937 L 1136.3220388523794 814.6188809973959 L 1136.1671982449484 814.536881590638 L 1136.014179275522 814.4541863310926 L 1135.8629972458698 814.3708034882168 L 1135.7136672740685 814.2867414002251 L 1135.566204292991 814.2020084732565 L 1135.4206230488126 814.116613180533 L 1135.276938099536 814.0305640615127 L 1135.1351638135368 813.9438697210359 L 1134.9953143681253 813.8565388284642 L 1134.8574037481296 813.7685801168142 L 1134.7214457444966 813.6800023818838 L 1134.5874539529136 813.5908144813726 L 1134.4554417724478 813.5010253339965 L 1134.3254224042075 813.4106439185952 L 1134.197408850021 813.3196792732349 L 1134.0714139111371 813.2281404943046 L 1133.9474501869447 813.1360367356057 L 1133.825530073713 813.0433772074373 L 1133.7056657633516 812.9501711756751 L 1133.5878692421916 812.8564279608446 L 1133.4721522897871 812.7621569371892 L 1133.358526477737 812.6673675317326 L 1133.2470031685275 812.5720692233363 L 1133.137593514397 812.4762715417519 L 1133.0303084562192 812.3799840666677 L 1132.925158722411 812.2832164267509 L 1132.822154827858 812.1859782986847 L 1132.7213070728637 812.0882794062012 L 1132.6226255421195 811.9901295191081 L 1132.5261201036967 811.8915384523123 L 1132.431800408058 811.7925160648382 L 1132.3396758870952 811.6930722588422 L 1132.2497557531829 811.5932169786221 L 1132.16204899826 811.4929602096224 L 1132.0765643929287 811.3923119774367 L 1131.9933104855784 811.2912823468043 L 1131.9122956015306 811.1898814206041 L 1131.8335278422057 811.0881193388441 L 1131.7570150843144 810.9860062776478 L 1131.6827649790687 810.8835524482362 L 1131.610784951417 810.7807680959068 L 1131.5410821993023 810.6776634990092 L 1131.4736636929417 810.5742489679172 L 1131.4085361741297 810.4705348439977 L 1131.345706155564 810.3665314985768 L 1131.2851799201937 810.2622493319021 L 1131.2269635205923 810.1576987721037 L 1131.171062778351 810.0528902741502 L 1131.1174832834974 809.947834318804 L 1131.0662303939368 809.8425414115734 L 1131.0173092349148 809.737022081661 L 1130.9707246985072 809.6312868809123 L 1130.926481443128 809.5253463827588 L 1130.8845838930667 809.4192111811624 L 1130.845036238043 809.3128918895546 L 1130.8078424327894 809.2063991397761 L 1130.7730061966554 809.099743581013 L 1130.7405310132358 808.9929358787324 L 1130.7104201300217 808.8859867136155 L 1130.6826765580765 808.7789067804896 L 1130.657303071734 808.6717067872588 L 1130.6343022083222 808.5643974538332 L 1130.6136762679077 808.4569895110567 L 1130.5954273130676 808.349493699634 L 1130.5795571686822 808.2419207690567 L 1130.5660674217527 808.1342814765281 L 1130.5549594212425 808.026586585888 L 1130.5462342779424 807.9188468665355 L 1130.5398928643594 807.8110730923529 L 1130.5359358146297 807.7032760406277 L 1130.534363524455 807.5954664909752" stroke-miterlimit="10" stroke-width="2.7769845610000004" stroke-dasharray=""/></g><g><g/><text fill="black" stroke="none" font-family="sans-serif" font-size="11pt" font-style="normal" font-weight="normal" text-decoration="normal" x="1123.0057851486329" y="756.008058908818" text-anchor="start" dominant-baseline="alphabetic" xml:space="preserve">Database</text></g></g><g><path fill="white" stroke="black" paint-order="fill stroke markers" d=" M 73.50841485 182.64242307881818 L 89.84361814999998 182.64242307881818 L 89.84361814999998 682.499644058818 L 73.50841485 682.499644058818 L 73.50841485 182.64242307881818" stroke-miterlimit="10" stroke-width="1.3612669416666667" stroke-dasharray=""/><path fill="white" stroke="black" paint-order="fill stroke markers" d=" M 363.8980262501302 182.64242307881818 L 380.2332295501302 182.64242307881818 L 380.2332295501302 682.499644058818 L 363.8980262501302 682.499644058818 L 363.8980262501302 182.64242307881818" stroke-miterlimit="10" stroke-width="1.3612669416666667" stroke-dasharray=""/><path fill="white" stroke="black" paint-order="fill stroke markers" d=" M 789.5631503455729 228.3809923188182 L 805.898353645573 228.3809923188182 L 805.898353645573 682.499644058818 L 789.5631503455729 682.499644058818 L 789.5631503455729 228.3809923188182" stroke-miterlimit="10" stroke-width="1.3612669416666667" stroke-dasharray=""/><path fill="white" stroke="black" paint-order="fill stroke markers" d=" M 1146.2161284449219 295.3553258488182 L 1162.551331744922 295.3553258488182 L 1162.551331744922 386.8324643288182 L 1146.2161284449219 386.8324643288182 L 1146.2161284449219 295.3553258488182" stroke-miterlimit="10" stroke-width="1.3612669416666667" stroke-dasharray=""/><g><text fill="black" stroke="none" font-family="sans-serif" font-size="16pt" font-style="normal" font-weight="normal" text-decoration="normal" x="480.81522369384766" y="24.651306798181814" text-anchor="start" dominant-baseline="alphabetic" xml:space="preserve">Xemdanhschhan</text></g><g><rect fill="white" stroke="none" x="109.17360872166667" y="161.4066587888182" width="235.39442695679688" height="21.23576429"/><text fill="black" stroke="none" font-family="sans-serif" font-size="11pt" font-style="normal" font-weight="normal" text-decoration="normal" x="111.62388921666667" y="176.10834175881817" text-anchor="start" dominant-baseline="alphabetic" xml:space="preserve">Chnmnhnhdanhschhan</text></g><g><path fill="none" stroke="black" paint-order="fill stroke markers" d=" M 89.84361814999998 182.64242307881818 L 350.44870886646356 182.64242307881818" stroke-miterlimit="10" stroke-width="1.3612669416666667" stroke-dasharray=""/><g transform="translate(363.8980262501302,182.64242307881818) translate(-363.8980262501302,-182.64242307881818)"><path fill="black" stroke="none" paint-order="stroke fill markers" d=" M 350.28535683346354 175.83608837048484 L 363.8980262501302 182.64242307881818 L 350.28535683346354 189.44875778715152 Z"/></g></g><g><rect fill="white" stroke="none" x="399.5632201217968" y="207.1452280288182" width="370.6699091345312" height="21.23576429"/><text fill="black" stroke="none" font-family="sans-serif" font-size="11pt" font-style="normal" font-weight="normal" text-decoration="normal" x="402.0135006167968" y="221.84691099881817" text-anchor="start" dominant-baseline="alphabetic" xml:space="preserve">Giyuculydanhschhan(kmblcnuc)</text></g><g><path fill="none" stroke="black" paint-order="fill stroke markers" d=" M 380.2332295501302 228.3809923188182 L 776.1138329619063 228.3809923188182" stroke-miterlimit="10" stroke-width="1.3612669416666667" stroke-dasharray=""/><g transform="translate(789.5631503455729,228.3809923188182) translate(-789.5631503455729,-228.3809923188182)"><path fill="black" stroke="none" paint-order="stroke fill markers" d=" M 775.9504809289062 221.57465761048485 L 789.5631503455729 228.3809923188182 L 775.9504809289062 235.18732702715153 Z"/></g></g><g><rect fill="white" stroke="none" x="825.2283442172397" y="252.88379726881823" width="103.49751533570313" height="21.23576429"/><text fill="black" stroke="none" font-family="sans-serif" font-size="11pt" font-style="normal" font-weight="normal" text-decoration="normal" x="827.6786247122398" y="267.5854802388182" text-anchor="start" dominant-baseline="alphabetic" xml:space="preserve">Kimtraquyn</text></g><g><path fill="none" stroke="black" paint-order="fill stroke markers" d=" M 805.898353645573 274.1195615588182 L 871.239166845573 274.1195615588182 L 871.239166845573 295.3553258488182 L 819.3476710292397 295.3553258488182" stroke-miterlimit="10" stroke-width="1.3612669416666667" stroke-dasharray=""/><g transform="translate(805.898353645573,295.3553258488182) translate(-805.898353645573,-295.3553258488182)"><path fill="black" stroke="none" paint-order="stroke fill markers" d=" M 819.5110230622397 288.5489911404849 L 805.898353645573 295.3553258488182 L 819.5110230622397 302.16166055715155 Z"/></g></g><g><rect fill="white" stroke="none" x="825.2283442172396" y="319.8581307988182" width="301.6577631384375" height="21.23576429"/><text fill="black" stroke="none" font-family="sans-serif" font-size="11pt" font-style="normal" font-weight="normal" text-decoration="normal" x="827.6786247122396" y="334.5598137688182" text-anchor="start" dominant-baseline="alphabetic" xml:space="preserve">Truyvndanhschhan(pdngblc)</text></g><g><path fill="none" stroke="black" paint-order="fill stroke markers" d=" M 805.898353645573 341.0938950888182 L 1132.766811061255 341.0938950888182" stroke-miterlimit="10" stroke-width="1.3612669416666667" stroke-dasharray=""/><g transform="translate(1146.2161284449219,341.0938950888182) translate(-1146.2161284449219,-341.0938950888182)"><path fill="black" stroke="none" paint-order="stroke fill markers" d=" M 1132.6034590282552 334.2875603804849 L 1146.2161284449219 341.0938950888182 L 1132.6034590282552 347.90022979715155 Z"/></g></g><g><rect fill="white" stroke="none" x="887.9806406649935" y="365.5967000388182" width="176.15320076050781" height="21.23576429"/><text fill="black" stroke="none" font-family="sans-serif" font-size="11pt" font-style="normal" font-weight="normal" text-decoration="normal" x="890.4309211599935" y="380.2983830088182" text-anchor="start" dominant-baseline="alphabetic" xml:space="preserve">Trvdanhschhan</text></g><g><path fill="none" stroke="black" paint-order="fill stroke markers" d=" M 1146.2161284449219 386.8324643288182 L 819.3476710292397 386.8324643288182" stroke-miterlimit="10" stroke-width="1.3612669416666667" stroke-dasharray="6.53408132"/><g transform="translate(805.898353645573,386.8324643288182) translate(-805.898353645573,-386.8324643288182)"><path fill="black" stroke="none" paint-order="stroke fill markers" d=" M 819.5110230622397 380.0261296204849 L 805.898353645573 386.8324643288182 L 819.5110230622397 393.63879903715156 Z"/></g></g><g><rect fill="white" stroke="none" x="505.08571920626946" y="455.4403181888182" width="159.62494148316406" height="21.23576429"/><text fill="black" stroke="none" font-family="sans-serif" font-size="11pt" font-style="normal" font-weight="normal" text-decoration="normal" x="507.5359997012695" y="470.1420011588182" text-anchor="start" dominant-baseline="alphabetic" xml:space="preserve">Gidanhschhan</text></g><g><path fill="none" stroke="black" paint-order="fill stroke markers" d=" M 789.5631503455729 476.6760824788182 L 393.68254693379686 476.6760824788182" stroke-miterlimit="10" stroke-width="1.3612669416666667" stroke-dasharray="6.53408132"/><g transform="translate(380.2332295501302,476.6760824788182) translate(-380.2332295501302,-476.6760824788182)"><path fill="black" stroke="none" paint-order="stroke fill markers" d=" M 393.8458989667969 469.8697477704849 L 380.2332295501302 476.6760824788182 L 393.8458989667969 483.48241718715155 Z"/></g></g><g><rect fill="white" stroke="none" x="134.44204133885418" y="501.17888742881814" width="184.85756172242188" height="21.23576429"/><text fill="black" stroke="none" font-family="sans-serif" font-size="11pt" font-style="normal" font-weight="normal" text-decoration="normal" x="136.89232183385417" y="515.8805703988181" text-anchor="start" dominant-baseline="alphabetic" xml:space="preserve">Hinthdanhschhan</text></g><g><path fill="none" stroke="black" paint-order="fill stroke markers" d=" M 363.8980262501302 522.4146517188182 L 103.29293553366665 522.4146517188182" stroke-miterlimit="10" stroke-width="1.3612669416666667" stroke-dasharray="6.53408132"/><g transform="translate(89.84361814999998,522.4146517188182) translate(-89.84361814999998,-522.4146517188182)"><path fill="black" stroke="none" paint-order="stroke fill markers" d=" M 103.45628756666665 515.6083170104848 L 89.84361814999998 522.4146517188182 L 103.45628756666665 529.2209864271515 Z"/></g></g><g><rect fill="white" stroke="none" x="494.8280364059765" y="591.022505578818" width="180.14030708375" height="21.23576429"/><text fill="black" stroke="none" font-family="sans-serif" font-size="11pt" font-style="normal" font-weight="normal" text-decoration="normal" x="497.2783169009765" y="605.724188548818" text-anchor="start" dominant-baseline="alphabetic" xml:space="preserve">Thngbodanhschrng</text></g><g><path fill="none" stroke="black" paint-order="fill stroke markers" d=" M 789.5631503455729 612.258269868818 L 393.68254693379686 612.258269868818" stroke-miterlimit="10" stroke-width="1.3612669416666667" stroke-dasharray="6.53408132"/><g transform="translate(380.2332295501302,612.258269868818) translate(-380.2332295501302,-612.258269868818)"><path fill="black" stroke="none" paint-order="stroke fill markers" d=" M 393.8458989667969 605.4519351604847 L 380.2332295501302 612.258269868818 L 393.8458989667969 619.0646045771514 Z"/></g></g><g><rect fill="white" stroke="none" x="162.4806918515495" y="636.761074818818" width="128.78026069703125" height="21.23576429"/><text fill="black" stroke="none" font-family="sans-serif" font-size="11pt" font-style="normal" font-weight="normal" text-decoration="normal" x="164.93097234654948" y="651.462757788818" text-anchor="start" dominant-baseline="alphabetic" xml:space="preserve">Hinthbngtrng</text></g><g><path fill="none" stroke="black" paint-order="fill stroke markers" d=" M 363.8980262501302 657.996839108818 L 103.29293553366665 657.996839108818" stroke-miterlimit="10" stroke-width="1.3612669416666667" stroke-dasharray="6.53408132"/><g transform="translate(89.84361814999998,657.996839108818) translate(-89.84361814999998,-657.996839108818)"><path fill="black" stroke="none" paint-order="stroke fill markers" d=" M 103.45628756666665 651.1905044004847 L 89.84361814999998 657.996839108818 L 103.45628756666665 664.8031738171513 Z"/></g></g><g><g/><path fill="none" stroke="black" paint-order="fill stroke markers" d=" M 16.33520329999999 411.3352692788182 L 854.903963545573 411.3352692788182 L 854.903963545573 682.499644058818 L 16.33520329999999 682.499644058818 L 16.33520329999999 411.3352692788182 Z" stroke-miterlimit="10" stroke-width="2.3336004714285714" stroke-dasharray=""/><path fill="white" stroke="black" paint-order="fill stroke markers" d=" M 16.33520329999999 411.3352692788182 L 16.33520329999999 430.9375132388182 L 62.6944068970703 430.9375132388182 L 72.4955288770703 421.1363912588182 L 72.4955288770703 411.3352692788182 L 16.33520329999999 411.3352692788182" stroke-miterlimit="10" stroke-width="2.3336004714285714" stroke-dasharray=""/><text fill="black" stroke="none" font-family="sans-serif" font-size="8.8pt" font-style="normal" font-weight="bold" text-decoration="normal" x="32.67040659999999" y="424.4034319188182" text-anchor="start" dominant-baseline="alphabetic" xml:space="preserve">alt</text><g><rect fill="white" stroke="none" x="86.3804516820703" y="412.6420855428182" width="70.73279060425781" height="16.988611432000003"/></g><text fill="black" stroke="none" font-family="sans-serif" font-size="8.8pt" font-style="normal" font-weight="bold" text-decoration="normal" x="88.8307321770703" y="424.4034319188182" text-anchor="start" dominant-baseline="alphabetic" xml:space="preserve">[Cdliu]</text><g><path fill="none" stroke="black" paint-order="fill stroke markers" d=" M 16.33520329999999 546.9174566688181 L 854.903963545573 546.9174566688181" stroke-miterlimit="10" stroke-width="2.3336004714285714" stroke-dasharray="4.083800825"/></g><g/><g><rect fill="white" stroke="none" x="86.3804516820703" y="548.224272932818" width="109.17599739136719" height="16.988611432000003"/></g><text fill="black" stroke="none" font-family="sans-serif" font-size="8.8pt" font-style="normal" font-weight="bold" text-decoration="normal" x="88.8307321770703" y="559.9856193088181" text-anchor="start" dominant-baseline="alphabetic" xml:space="preserve">[Khngcdliu]</text></g><g/></g><g/><g/><g/><g/></g></svg>