<svg xmlns="http://www.w3.org/2000/svg" xmlns:xlink="http://www.w3.org/1999/xlink" version="1.1" width="892.0006842677735" height="830.333233923818"><desc>title%20Xem%20chi%20ti%E1%BA%BFt%20h%C3%B3a%20%C4%91%C6%A1n%0A%0Abottomparticipants%0A%0Aactor%20Landlord%0Aentity%20Client%0Aentity%20Backend%0Adatabase%20Database%0A%0ALandlord%20-%3E%20Client%3A%20Ch%E1%BB%8Dn%20h%C3%B3a%20%C4%91%C6%A1n%20c%E1%BA%A7n%20xem%20chi%20ti%E1%BA%BFt%0Aactivate%20Landlord%0Aactivate%20Client%0A%0AClient%20-%3E%20Backend%3A%20G%E1%BB%ADi%20ID%20h%C3%B3a%20%C4%91%C6%A1n%20c%E1%BA%A7n%20xem%0Aactivate%20Backend%0A%0ABackend%20-%3E%20Backend%3A%20Ki%E1%BB%83m%20tra%20quy%E1%BB%81n%0Aactivate%20Database%0ABackend%20-%3E%20Database%3A%20Truy%20v%E1%BA%A5n%20chi%20ti%E1%BA%BFt%20h%C3%B3a%20%C4%91%C6%A1n%0ADatabase%20--%3E%20Backend%3A%20Tr%E1%BA%A3%20v%E1%BB%81%20chi%20ti%E1%BA%BFt%20h%C3%B3a%20%C4%91%C6%A1n%0Adeactivate%20Database%0A%0Aalt%20C%C3%B3%20d%E1%BB%AF%20li%E1%BB%87u%0A%20%20%20%20Backend%20--%3E%20Client%3A%20G%E1%BB%ADi%20th%C3%B4ng%20tin%20chi%20ti%E1%BA%BFt%20h%C3%B3a%20%C4%91%C6%A1n%0A%20%20%20%20Client%20--%3E%20Landlord%3A%20Hi%E1%BB%83n%20th%E1%BB%8B%20chi%20ti%E1%BA%BFt%20h%C3%B3a%20%C4%91%C6%A1n%0Aelse%20Kh%C3%B4ng%20c%C3%B3%20d%E1%BB%AF%20li%E1%BB%87u%0A%20%20%20%20Backend%20--%3E%20Client%3A%20Th%C3%B4ng%20b%C3%A1o%20kh%C3%B4ng%20t%C3%ACm%20th%E1%BA%A5y%20h%C3%B3a%20%C4%91%C6%A1n%0A%20%20%20%20Client%20--%3E%20Landlord%3A%20Hi%E1%BB%83n%20th%E1%BB%8B%20th%C3%B4ng%20b%C3%A1o%20l%E1%BB%97i%0Aend%0A%0Adeactivate%20Backend%0Adeactivate%20Client%0Adeactivate%20Landlord%0A</desc><defs/><g><g/><g/><g/><g/><g/><g/><g/><g/><g/><g/><g/><g/><g/><g/><g/><g/><g/><g/><g/><g/><g/><g/><g/><g/><g/><g/><g/><g/><g/><g/><g/><g/><g/><g/><g/><g/><g/><g/><g/><g/><g/><g/><g/><g/><g/><g/><g/><g/><g/><g/><g/><g/><g/><g/><g/><g/><g/><g/><g/><g/><g/><g/><g/><g/><g/><g/><g/><g/><g/><g/><g/><g/><g/><g/><g/><g/><g/><g/><g/><g/><g/><g/><g/><g/><g/><g/><g/><g/><g/><g/><g/><g/><g/><g/><g/><g/><g/><g/><g/><g/><g/><g/><g/><g/><g/><g/><g/><g/><g/><g/><g/><g/><g/><g/><g/><g/><g><rect fill="white" stroke="none" x="0" y="0" width="892" height="830"/></g><g/><g><path fill="none" stroke="black" paint-order="fill stroke markers" d=" M 81.67601649999999 128.73625218881818 L 81.67601649999999 739.672855608818" stroke-miterlimit="10" stroke-width="1.3612669416666667" stroke-dasharray="12.565541,5.445067766666667"/><path fill="none" stroke="black" paint-order="fill stroke markers" d=" M 341.0634764108724 128.73625218881818 L 341.0634764108724 739.672855608818" stroke-miterlimit="10" stroke-width="1.3612669416666667" stroke-dasharray="12.565541,5.445067766666667"/><path fill="none" stroke="black" paint-order="fill stroke markers" d=" M 629.8138666195964 128.73625218881818 L 629.8138666195964 739.672855608818" stroke-miterlimit="10" stroke-width="1.3612669416666667" stroke-dasharray="12.565541,5.445067766666667"/><path fill="none" stroke="black" paint-order="fill stroke markers" d=" M 851.1626760177735 128.73625218881818 L 851.1626760177735 739.672855608818" stroke-miterlimit="10" stroke-width="1.3612669416666667" stroke-dasharray="12.565541,5.445067766666667"/></g><g><g><path fill="white" stroke="black" paint-order="fill stroke markers" d=" M 90.987082381 59.63834222981819 A 9.311065881 9.311065881 0 1 1 90.98707772546743 59.62903116548903 M 81.67601649999999 68.9494081108182 L 81.67601649999999 88.8783561368182 M 69.914670124 76.13689756281819 L 93.43736287599998 76.13689756281819 M 81.67601649999999 88.8783561368182 L 69.914670124 107.50048789881819 M 81.67601649999999 88.8783561368182 L 93.43736287599998 107.50048789881819" stroke-miterlimit="10" stroke-width="2.7769845610000004" stroke-dasharray=""/></g><g><g/><text fill="black" stroke="none" font-family="sans-serif" font-size="11pt" font-style="normal" font-weight="normal" text-decoration="normal" x="53.1470400595703" y="123.83569119881818" text-anchor="start" dominant-baseline="alphabetic" xml:space="preserve">Landlord</text></g><g><path fill="white" stroke="black" paint-order="fill stroke markers" d=" M 365.3212533113724 79.63263106901819 A 24.2577769005 24.2577769005 0 1 1 365.321241182485 79.60837329616064 M 315.4172072298724 106.11199561831819 L 366.7097455918724 106.11199561831819" stroke-miterlimit="10" stroke-width="2.7769845610000004" stroke-dasharray=""/></g><g><g/><text fill="black" stroke="none" font-family="sans-serif" font-size="11pt" font-style="normal" font-weight="normal" text-decoration="normal" x="322.32332595921224" y="123.83569119881818" text-anchor="start" dominant-baseline="alphabetic" xml:space="preserve">Client</text></g><g><path fill="white" stroke="black" paint-order="fill stroke markers" d=" M 654.0716435200964 79.63263106901819 A 24.2577769005 24.2577769005 0 1 1 654.0716313912089 79.60837329616064 M 604.1675974385964 106.11199561831819 L 655.4601358005964 106.11199561831819" stroke-miterlimit="10" stroke-width="2.7769845610000004" stroke-dasharray=""/></g><g><g/><text fill="black" stroke="none" font-family="sans-serif" font-size="11pt" font-style="normal" font-weight="normal" text-decoration="normal" x="601.2884683652019" y="123.83569119881818" text-anchor="start" dominant-baseline="alphabetic" xml:space="preserve">Backend</text></g><g><path fill="white" stroke="black" paint-order="fill stroke markers" d=" M 827.3132791997735 96.71925372081819 L 827.3132791997735 62.41532679081819 L 875.0120728357734 62.41532679081819 L 875.0120728357734 96.71925372081819" stroke-miterlimit="10" stroke-width="2.7769845610000004" stroke-dasharray=""/><path fill="white" stroke="black" paint-order="fill stroke markers" d=" M 875.0120728357734 61.22285694991819 L 875.0108803758698 61.33066749483481 L 875.0073031154037 61.43846725878678 L 875.0013414120984 61.546245461887544 L 874.9929958621191 61.65399132640659 L 874.9822673000139 61.761694077847274 L 874.96915679863 61.86934294602419 L 874.9536656690068 61.976927166140236 L 874.9357954602442 62.084435979863045 L 874.9155479593481 62.19185863640084 L 874.892925191052 62.299184393577484 L 874.8679294176136 62.4064025189067 L 874.8405631385896 62.51350229066531 L 874.810829090585 62.62047299896537 L 874.7787302469799 62.7273039468252 L 874.7442698176318 62.83398445123905 L 874.707451248555 62.94050384424536 L 874.6682782215756 63.04685147399361 L 874.6267546539639 63.15301670580944 L 874.5828846980419 63.25898892325815 L 874.5366727407685 63.364757529206294 L 874.4881234033012 63.47031194688142 L 874.4372415405331 63.575641620929716 L 874.3840322406082 63.68073601847156 L 874.328500824412 63.78558463015478 L 874.27065284504 63.89017697120557 L 874.2104940872418 63.994502582477 L 874.1480305668432 64.09855103149486 L 874.083268530144 64.20231191350096 L 874.016214453294 64.3057748524936 L 873.9468750416451 64.40892950226505 L 873.8752572290804 64.51176554743633 L 873.8013681773217 64.61427270448858 L 873.7252152752127 64.71644072279157 L 873.6468061379799 64.81825938562858 L 873.5661486064718 64.91971851121816 L 873.4832507463743 65.02080795373233 L 873.3981208474045 65.12151760431107 L 873.310767422481 65.22183739207324 L 873.2211992068738 65.32175728512367 L 873.1294251573298 65.42126729155632 L 873.0354544511774 65.52035746045347 L 872.9392964854088 65.6190178828808 L 872.8409608757407 65.71723869287828 L 872.740457455652 65.81501006844678 L 872.6377962754008 65.91232223253022 L 872.5329876010197 66.00916545399325 L 872.4260419132888 66.10553004859446 L 872.3169699066879 66.20140637995469 L 872.2057824883266 66.29678486052069 L 872.092490776854 66.39165595252388 L 871.9771061013471 66.48601016893414 L 871.859640000177 66.57983807440844 L 871.7401042198561 66.67313028623443 L 871.6185107138629 66.76587747526865 L 871.4948716414465 66.85807036686953 L 871.3691993664111 66.94969974182469 L 871.2415064558796 67.04075643727302 L 871.1118056790366 67.13123134762085 L 870.9801100058517 67.22111542545254 L 870.8464326057824 67.3103996824352 L 870.7107868464575 67.39907519021754 L 870.5731862923396 67.4871330813227 L 870.4336447033697 67.57456455003492 L 870.2921760335904 67.6613608532802 L 870.1487944297506 67.74751331150055 L 870.0035142298915 67.83301330952195 L 869.8563499619116 67.91785229741582 L 869.7073163421155 68.00202179135408 L 869.5564282737406 68.08551337445749 L 869.4037008454683 68.1683186976373 L 869.249149329914 68.25042948043021 L 869.0927891821005 68.33183751182635 L 868.9346360379122 68.41253465109044 L 868.774705712532 68.4925128285758 L 868.6130141988588 68.5717640465313 L 868.4495776659095 68.65028037990122 L 868.2844124572009 68.72805397711764 L 868.1175350891166 68.80507706088565 L 867.9489622492541 68.88134192896105 L 867.778710794757 68.95684095492061 L 867.6067977506289 69.03156658892462 L 867.4332403080308 69.10551135847197 L 867.2580558225625 69.17866786914732 L 867.0812618125265 69.25102880536058 L 866.9028759571764 69.3225869310784 L 866.7229160949491 69.39333509054786 L 866.5414002216811 69.46326620901198 L 866.3583464888081 69.53237329341717 L 866.1737732015512 69.60064943311258 L 865.987698817085 69.66808780054113 L 865.800141942693 69.7346816519223 L 865.6111213339063 69.80042432792644 L 865.4206558926285 69.86530925434072 L 865.2287646652446 69.92932994272657 L 865.0354668407178 69.9924799910685 L 864.8407817486693 70.05475308441433 L 864.6447288574461 70.1161429955066 L 864.4473277721739 70.17664358540536 L 864.2485982327969 70.23624880410202 L 864.0485601121031 70.29495269112441 L 863.8472334137382 70.35274937613272 L 863.6446382702042 70.40963307950663 L 863.4407949408463 70.46559811292322 L 863.2357238098281 70.52063887992576 L 863.0294453840913 70.57474987648341 L 862.821980291307 70.62792569154163 L 862.6133492778113 70.68016100756323 L 862.4035732065319 70.73145060106012 L 862.1926730549009 70.78178934311569 L 861.9806699127578 70.8311721998977 L 861.7675849802401 70.8795942331616 L 861.5534395656638 70.92705060074444 L 861.3382550833915 70.973536557049 L 861.1220530516922 71.01904745351838 L 860.9048550905891 71.06357873910088 L 860.6866829196971 71.10712596070502 L 860.4675583560515 71.14968476364494 L 860.2475033119262 71.19125089207583 L 860.0265397926421 71.23182018941947 L 859.8046898943671 71.27138859877994 L 859.5819758019061 71.30995216334925 L 859.3584197864826 71.34750702680313 L 859.1340442035122 71.38404943368649 L 858.9088714903659 71.4195757297891 L 858.6829241641275 71.45408236251096 L 858.4562248193413 71.48756588121756 L 858.2287961257529 71.52002293758491 L 858.000660826042 71.55145028593446 L 857.7718417335487 71.58184478355753 L 857.5423617299914 71.61120339102969 L 857.3122437631794 71.63952317251467 L 857.0815108447173 71.66680129605793 L 856.8501860477049 71.69303503386982 L 856.6182925044291 71.71822176259843 L 856.385853404051 71.7423589635919 L 856.1528919902869 71.7654442231502 L 855.9194315590839 71.78747523276665 L 855.6854954562909 71.80844978935863 L 855.451107075323 71.82836579548797 L 855.216289854823 71.84722125957065 L 854.9810672763174 71.86501429607597 L 854.7454628618677 71.8817431257151 L 854.5095001717194 71.89740607561903 L 854.2732028019448 71.91200157950583 L 854.0365943820838 71.92552817783725 L 853.7996985727812 71.93798451796474 L 853.5625390634207 71.94936935426468 L 853.3251395697555 71.95968154826289 L 853.087523831537 71.96892006874862 L 852.8497156101414 71.97708399187748 L 852.6117386861923 71.98417250126396 L 852.373616857184 71.99018488806304 L 852.1353739351008 71.99512055104105 L 851.8970337440364 71.99897899663581 L 851.6586201178114 72.00175983900598 L 851.4201568975897 72.00346280006961 L 851.1816679294946 72.00408770953204 L 850.943177062224 72.00363450490285 L 850.7047081446661 72.0021032315021 L 850.4662850235139 71.99949404245586 L 850.227931540881 71.9958071986809 L 849.9896715319165 71.99104306885846 L 849.7515288224233 71.98520212939759 L 849.5135272264737 71.97828496438737 L 849.2756905440289 71.97029226553852 L 849.0380425585589 71.96122483211428 L 848.8006070346644 71.95108357085043 L 848.5634077156997 71.93986949586466 L 848.3264683213993 71.92758372855508 L 848.089812545505 71.91422749748824 L 847.8534640533971 71.89980213827607 L 847.6174464797281 71.8843090934425 L 847.3817834260585 71.86774991227908 L 847.1464984584974 71.85012625069015 L 846.9116151053454 71.83143987102717 L 846.6771568547421 71.81169264191253 L 846.4431471523172 71.79088653805269 L 846.2096093988458 71.7690236400407 L 845.976566947909 71.74610613414815 L 845.7440431035573 71.72213631210651 L 845.5120611179814 71.69711657087802 L 845.2806441891868 71.67104941241597 L 845.0498154586733 71.64393744341446 L 844.8195980091217 71.6157833750478 L 844.5900148620851 71.58659002269937 L 844.3610889756868 71.55636030568009 L 844.1328432423248 71.52509724693644 L 843.9053004863822 71.49280397274828 L 843.6784834619449 71.45948371241609 L 843.4524148505265 71.42513979793813 L 843.2271172587995 71.38977566367726 L 843.0026132163354 71.35339484601741 L 842.7789251733515 71.31600098301004 L 842.5560754984656 71.27759781401028 L 842.3340864764594 71.23818917930303 L 842.1129803060504 71.19777901971894 L 841.892779097671 71.15637137624027 L 841.6735048712588 71.11397038959687 L 841.4551795540536 71.07058029985207 L 841.2378249784052 71.02620544597868 L 841.0214628795902 70.98085026542512 L 840.8061148936379 70.93451929367163 L 840.5918025551676 70.8872171637768 L 840.3785472952345 70.8389486059142 L 840.1663704391871 70.78971844689937 L 839.9552932045337 70.7395316097072 L 839.7453366988224 70.6883931129796 L 839.5365219175285 70.6363080705236 L 839.3288697419562 70.58328169080006 L 839.12240093715 70.52931927640276 L 838.9171361498184 70.47442622352818 L 838.7130959062689 70.41860802143584 L 838.5103006103559 70.36187025189946 L 838.3087705414401 70.3042185886487 L 838.1085258523605 70.24565879680183 L 837.9095865674188 70.18619673228926 L 837.7119725803781 70.12583834126788 L 837.5157036524722 70.06458965952649 L 837.3207994104304 70.00245681188221 L 837.1272793445145 69.93944601156807 L 836.9351628065697 69.87556355961155 L 836.7444690080899 69.81081584420461 L 836.5552170182959 69.74520934006487 L 836.367425762229 69.67875060778805 L 836.1811140188584 69.61144629319199 L 835.996300419203 69.54330312665208 L 835.8130034444689 69.47432792242817 L 835.6312414242007 69.40452757798322 L 835.4510325344492 69.3339090732935 L 835.2723947959529 69.26247947015062 L 835.095346072337 69.19024591145539 L 834.9199040683261 69.11721562050347 L 834.7460863279747 69.0433959002631 L 834.5739102329118 68.96879413264479 L 834.4033930006034 68.89341777776313 L 834.2345516826308 68.81727437319081 L 834.0674031629849 68.74037153320482 L 833.9019641563785 68.66271694802508 L 833.7382512065743 68.58431838304537 L 833.576280684731 68.5051836780569 L 833.4160687877658 68.4253207464642 L 833.2576315367346 68.34473757449386 L 833.1009847752308 68.26344222039596 L 832.9461441678 68.18144281363814 L 832.7931251983737 68.09874755409275 L 832.6419431687214 68.01536471121685 L 832.49261319692 67.9313026232252 L 832.3451502158425 67.84656969625658 L 832.199568971664 67.76117440353308 L 832.0558840223875 67.67512528451279 L 831.9141097363884 67.5884309440359 L 831.7742602909769 67.50110005146425 L 831.6363496709812 67.41314133981427 L 831.5003916673481 67.32456360488388 L 831.3663998757651 67.23537570437271 L 831.2343876952993 67.14558655699653 L 831.104368327059 67.05520514159522 L 830.9763547728725 66.96424049623502 L 830.8503598339886 66.87270171730466 L 830.7263961097963 66.78059795860575 L 830.6044759965646 66.68793843043741 L 830.4846116862032 66.59473239867523 L 830.3668151650432 66.50098918384472 L 830.2510982126388 66.40671816018926 L 830.1374724005885 66.31192875473263 L 830.0259490913792 66.2166304463364 L 829.9165394372485 66.120832764752 L 829.8092543790708 66.02454528966774 L 829.7041046452625 65.92777764975091 L 829.6011007507095 65.83053952168484 L 829.5002529957152 65.73284062920132 L 829.4015714649711 65.63469074210818 L 829.3050660265482 65.53609967531233 L 829.2107463309097 65.4370772878383 L 829.1186218099467 65.33763348184232 L 829.0287016760345 65.23777820162212 L 828.9409949211116 65.13752143262249 L 828.8555103157803 65.03687320043682 L 828.77225640843 64.93584356980442 L 828.691241524382 64.83444264360419 L 828.6124737650572 64.73268056184422 L 828.535961007166 64.63056750064791 L 828.4617109019201 64.52811367123628 L 828.3897308742686 64.42532931890689 L 828.3200281221539 64.32222472200931 L 828.2526096157934 64.21881019091732 L 828.1874820969814 64.11509606699785 L 828.1246520784155 64.01109272157687 L 828.0641258430453 63.90681055490224 L 828.0059094434438 63.80225999510374 L 827.9500087012026 63.697451497150205 L 827.8964292063491 63.59239554180411 L 827.8451763167883 63.48710263457343 L 827.7962551577665 63.381583304661156 L 827.7496706213586 63.27584810391234 L 827.7054273659797 63.16990760575894 L 827.6635298159183 63.06377240416249 L 827.6239821608946 62.95745311255472 L 827.5867883556409 62.85096036277616 L 827.5519521195071 62.744304804013076 L 827.5194769360874 62.63749710173245 L 827.4893660528734 62.530547936615505 L 827.4616224809281 62.423468003489624 L 827.4362489945858 62.316268010258895 L 827.4132481311738 62.208958676833305 L 827.3926221907593 62.10155073405677 L 827.3743732359192 61.99405492263407 L 827.3585030915337 61.88648199205676 L 827.3450133446042 61.77884269952825 L 827.333905344094 61.6711478088881 L 827.325180200794 61.56340808953563 L 827.318838787211 61.45563431535299 L 827.3148817374814 61.34783726362778 L 827.3133094473067 61.24002771397536 L 827.3141220739146 61.13221644726084 L 827.3173195360432 61.02441424452105 L 827.3229015139489 60.916631885886424 L 827.3308674494385 60.808880149503025 L 827.3412165459252 60.70116981045468 L 827.3539477685081 60.59351163968555 L 827.3690598440752 60.48591640292299 L 827.3865512614318 60.378394859601016 L 827.4064202714505 60.27095776178435 L 827.4286648872472 60.163615853093255 L 827.4532828843787 60.05637986762915 L 827.4802718010657 59.949260528901206 L 827.509628938439 59.84226854875404 L 827.5413513608096 59.7354146262965 L 827.5754358959615 59.62870944683179 L 827.6118791354695 59.52216368078894 L 827.6506774350403 59.41578798265577 L 827.691826914876 59.30959298991343 L 827.735323460063 59.203589321972714 L 827.781162720983 59.09778757911208 L 827.8293401137482 58.992198341417634 L 827.8798508206595 58.88683216772516 L 827.9326897906881 58.78169959456423 L 827.9878517399812 58.67681113510454 L 828.0453311523898 58.57217727810464 L 828.1051222800206 58.46780848686303 L 828.1672191438105 58.36371519817185 L 828.231615534125 58.25990782127324 L 828.2983050113788 58.15639673681838 L 828.3672809066796 58.053192295829454 L 828.4385363224955 57.950304818664556 L 828.5120641333441 57.84774459398567 L 828.5878569865057 57.745521877729786 L 828.6659073027581 57.64364689208335 L 828.7462072771349 57.54212982446004 L 828.8287488797052 57.44098082648201 L 828.913523856378 57.340210012964775 L 829.000523729726 57.2398274609057 L 829.0897397998343 57.13984320847635 L 829.1811631451704 57.040267254018644 L 829.274784623476 56.94110955504505 L 829.370594872681 56.84238002724283 L 829.4685843118406 56.74408854348249 L 829.5687431420924 56.646244932830506 L 829.671061347637 56.54885897956639 L 829.7755286967388 56.45194042220433 L 829.8821347427503 56.35549895251929 L 829.9908688251555 56.25954421457787 L 830.1017200706368 56.16408580377391 L 830.2146773941622 56.06913326586893 L 830.3297295000933 55.974696096037604 L 830.4468648833155 55.88078373791821 L 830.5660718303878 55.7874055826683 L 830.6873384207153 55.694570968025594 L 830.8106525277396 55.60228917737418 L 830.9360018201531 55.51056943881623 L 831.0633737631308 55.41942092424918 L 831.1927556195847 55.328852748448504 L 831.3241344514367 55.23887396815633 L 831.4574971209133 55.14949358117568 L 831.5928302918587 55.0607205254708 L 831.7301204310686 54.97256367827326 L 831.8693538096434 54.88503185519433 L 832.0105165043612 54.79813380934336 L 832.1535943990704 54.71187823045254 L 832.2985731861005 54.62627374400786 L 832.4454383676938 54.541328910386646 L 832.5941752574545 54.45705222400146 L 832.7447689818174 54.373452112450714 L 832.8972044815358 54.290536935675895 L 833.0514665131866 54.20831498512558 L 833.2075396506953 54.12679448292632 L 833.365408286878 54.0459835810604 L 833.525056635003 53.965890360550645 L 833.6864687303681 53.88652283065238 L 833.8496284318986 53.80788892805245 L 834.0145194237601 53.72999651607559 L 834.1811252169911 53.652853383898076 L 834.3494291511508 53.57646724576885 L 834.5194143959861 53.50084574023808 L 834.6910639531144 53.42599642939328 L 834.8643606577228 53.35192679810317 L 835.0392871802853 53.278644253269164 L 835.2158260282955 53.20615612308466 L 835.3939595480156 53.13446965630228 L 835.5736699262421 53.06359202150896 L 835.754939192087 52.99353030640911 L 835.9377492187747 52.924291517115876 L 836.1220817254549 52.85588257745046 L 836.3079182790307 52.78831032824984 L 836.4952402960013 52.72158152668263 L 836.6840290443212 52.65570284557336 L 836.874265645273 52.590680872735255 L 837.0659310753551 52.52652211031142 L 837.2590061681842 52.463232974124615 L 837.4534716164119 52.40081979303573 L 837.6493079736555 52.33928880831086 L 837.8464956564422 52.278646172997206 L 838.0450149461685 52.21889795130775 L 838.2448459910705 52.160050118014894 L 838.4459688082103 52.1021085578529 L 838.6483632854739 52.045079064929524 L 838.8520091835823 51.98896734214652 L 839.056886138115 51.933779000629414 L 839.2629736615477 51.87951955916637 L 839.4702511452996 51.826194443656306 L 839.6786978617951 51.77380898656634 L 839.8882929665363 51.72236842639853 L 840.0990155001872 51.67187790716602 L 840.3108443906702 51.622342477878675 L 840.5237584552729 51.57376709203812 L 840.737736402766 51.526156607142475 L 840.9527568355333 51.47951578420055 L 841.1687982517104 51.43384928725578 L 841.3858390473359 51.38916168291979 L 841.6038575185113 51.34545743991578 L 841.8228318635709 51.302740928631636 L 842.0427401852626 51.261016420682886 L 842.2635604929378 51.220288088485546 L 842.4852707047495 51.18056000483891 L 842.7078486498614 51.14183614251822 L 842.9312720706644 51.10412037387746 L 843.1555186250025 51.06741647046204 L 843.3805658884074 51.03172810263173 L 843.6063913563402 50.99705883919358 L 843.8329724464422 50.96341214704502 L 844.0602865007934 50.930791390827245 L 844.2883107881775 50.899199832588685 L 844.5170225063559 50.86864063145883 L 844.7463987843475 50.83911684333235 L 844.9764166847157 50.81063142056343 L 845.2070532058618 50.78318721167063 L 845.4382852843262 50.75678696105195 L 845.6700897970935 50.731433308710464 L 845.9024435639059 50.70712878999027 L 846.1353233495801 50.683875835323 L 846.3687058663317 50.66167676998473 L 846.6025677761035 50.6405338138635 L 846.8368856928993 50.6204490812373 L 847.0716361851228 50.60142458056266 L 847.3067957779203 50.583462214273794 L 847.5423409555287 50.566563778592354 L 847.7782481636264 50.55073096334783 L 848.0144938116891 50.53596535180856 L 848.2510542753489 50.52226842052339 L 848.4879058987567 50.50964153917403 L 848.7250249969474 50.49808597043808 L 848.9623878582088 50.48760286986282 L 849.1999707464525 50.47819328574954 L 849.4377499035878 50.46985815904882 L 849.6757015518972 50.462598323266384 L 849.9138018964139 50.456414504379765 L 850.1520271273021 50.45130732076569 L 850.3903534222371 50.44727728313828 L 850.6287569487881 50.444324794497916 L 850.867213866801 50.44245015009101 L 851.1057003307828 50.44165353738045 L 851.3441924922859 50.44193503602685 L 851.5826665022927 50.443294617880554 L 851.8210985136011 50.445732146984525 L 852.0594646832086 50.44924737958788 L 852.2977411746969 50.45383996417029 L 852.5359041606154 50.459509441477124 L 852.7739298248639 50.46625524456538 L 853.0117943650744 50.474076698860365 L 853.249473994991 50.48297302222316 L 853.4869449468491 50.49294332502887 L 853.724183473751 50.50398661025549 L 853.961165852042 50.51610177358371 L 854.1978683836816 50.52928760350731 L 854.4342673986139 50.54354278145426 L 854.6703392571345 50.55886588191867 L 854.9060603522541 50.575255372603245 L 855.1414071120598 50.592709614572584 L 855.3763560020717 50.61122686241703 L 855.6108835275965 50.630805264427224 L 855.8449662360772 50.651442862779284 L 856.0785807194379 50.67313759373059 L 856.311703616425 50.695887287826096 L 856.5443116149431 50.71968967011537 L 856.7763814543862 50.74454236038002 L 857.0078899279637 50.77044287337172 L 857.2388138850212 50.797388619060754 L 857.4691302333554 50.825376902895016 L 857.6988159415233 50.85440492606945 L 857.9278480411457 50.88446978580591 L 858.1562036292033 50.9155684756435 L 858.3838598703278 50.947697885739125 L 858.6107939990845 50.980854803178566 L 858.8369833222499 51.01503591229771 L 859.0624052210802 51.05023779501413 L 859.2870371535731 51.08645693116888 L 859.5108566567228 51.12368969887854 L 859.7338413487654 51.16193237489736 L 859.9559689314174 51.201181134989596 L 860.1772171921059 51.241432054311964 L 860.397564006189 51.28268110780607 L 860.6169873391689 51.32492417060092 L 860.8354652488953 51.368157018425464 L 861.0529758877592 51.41237532803093 L 861.269497504878 51.45757467762322 L 861.4850084482704 51.503750547305025 L 861.6994871670216 51.55089831952786 L 861.9129122134386 51.5990132795538 L 862.1252622451946 51.64809061592693 L 862.3365160274633 51.69812542095451 L 862.5466524350425 51.749112691197745 L 862.7556504544665 51.801047327972086 L 862.9634891861077 51.85392413785714 L 863.170147846266 51.90773783321599 L 863.3756057692477 51.962483032723924 L 863.5798424094316 52.01815426190663 L 863.782837343324 52.07474595368758 L 863.9845702716005 52.132252448944755 L 864.1850210211367 52.190667997076545 L 864.3841695470243 52.24998675657682 L 864.5819959345769 52.310202795619055 L 864.7784804013205 52.371310092649544 L 864.9736032989723 52.43330253698949 L 865.167345115405 52.49617392944612 L 865.3596864765984 52.559917982932596 L 865.5506081485769 52.62452832309667 L 865.740091039332 52.68999848895818 L 865.9281162007329 52.7563219335551 L 866.11466483042 52.823492024598224 L 866.2997182736857 52.89150204513444 L 866.48325802534 52.960345194218355 L 866.6652657315607 53.03001458759244 L 866.8457231917288 53.10050325837541 L 867.0246123602486 53.171804157758935 L 867.2019153483524 53.243910155712484 L 867.3776144258892 53.31681404169635 L 867.5516920230975 53.39050852538269 L 867.7241307323628 53.46498623738456 L 867.8949133099578 53.5402397299928 L 868.0640226777671 53.61626147792087 L 868.2314419249947 53.69304387905734 L 868.3971543098555 53.770579255226075 L 868.5611432612492 53.848859852954064 L 868.7233923804172 53.92787784424677 L 868.8838854425828 54.00762532737092 L 869.0426063985736 54.08809432764465 L 869.1995393764262 54.16927679823499 L 869.3546686829735 54.251164620962534 L 869.5079788054144 54.33374960711325 L 869.6594544128641 54.41702349825734 L 869.8090803578882 54.500977967075094 L 869.956841678017 54.58560461818958 L 870.1027235972415 54.670894989006214 L 870.2467115274914 54.75684055055899 L 870.3887910700936 54.84343270836337 L 870.5289480172123 54.93066280327574 L 870.6671683532695 55.0185221123593 L 870.8034382563469 55.107001849756344 L 870.9377440995677 55.196093167566886 L 871.0700724524595 55.28578715673337 L 871.2004100822971 55.37607484793163 L 871.3287439554265 55.46694721246779 L 871.4550612385672 55.55839516318112 L 871.5793493000958 55.65040955535275 L 871.7015957113102 55.742981187620146 L 871.821788247671 55.83610080289723 L 871.9399148900246 55.92975908930006 L 872.0559638258053 56.02394668107806 L 872.1699234502162 56.11865415955053 L 872.2817823673898 56.213872054048544 L 872.3915293915277 56.30959084286201 L 872.4991535480189 56.405800954191804 L 872.6046440745373 56.50249276710697 L 872.7079904221183 56.5996566125068 L 872.8091822562133 56.69728277408771 L 872.9082094577232 56.79536148931491 L 873.0050621240101 56.89388295039859 L 873.0997305698885 56.99283730527477 L 873.1922053285924 57.09221465859041 L 873.2824771527232 57.19200507269298 L 873.3705370151736 57.29219856862425 L 873.4563761100306 57.39278512711811 L 873.5399858534566 57.49375468960253 L 873.6213578845466 57.59509715920541 L 873.7004840661655 57.69680240176424 L 873.777356485761 57.79886024683951 L 873.8519674561551 57.90126048873177 L 873.9243095163131 58.003992887502164 L 873.9943754320893 58.10704716999642 L 874.0621581969503 58.21041303087217 L 874.1276510326763 58.31408013362946 L 874.1908473900382 58.41803811164441 L 874.2517409494529 58.52227656920584 L 874.3103256216153 58.62678508255487 L 874.366595548107 58.731553200927245 L 874.4205451019822 58.83657044759845 L 874.4721688883304 58.94182632093131 L 874.5214617448161 59.04731029542622 L 874.5684187421947 59.153011822773635 L 874.6130351848055 59.25892033290889 L 874.6553066110416 59.36502523506925 L 874.6952287937954 59.471315918852895 L 874.7327977408821 59.57778175528004 L 874.7680096954381 59.684412097855756 L 874.8008611362975 59.79119628363465 L 874.8313487783433 59.89812363428712 L 874.859469572837 60.005183457167206 L 874.8852207077224 60.11236504638185 L 874.9085996079076 60.21965768386144 L 874.9296039355219 60.327050640431644 L 874.9482315901502 60.43453317688629 L 874.9644807090424 60.5420945450613 L 874.9783496673003 60.6497239889095 L 874.9898370780396 60.757410745576195 L 874.9989417925287 60.86514404647545 L 875.005662900304 60.972913118366954 L 875.0099997292599 61.08070718443333 L 875.0119518457175 61.188515465357796 M 875.0120728357734 95.52678387991818 L 875.0108803758698 95.6345944248348 L 875.0073031154037 95.74239418878678 L 875.0013414120984 95.85017239188754 L 874.9929958621191 95.95791825640659 L 874.9822673000139 96.06562100784727 L 874.96915679863 96.1732698760242 L 874.9536656690068 96.28085409614023 L 874.9357954602442 96.38836290986303 L 874.9155479593481 96.49578556640084 L 874.892925191052 96.60311132357748 L 874.8679294176136 96.7103294489067 L 874.8405631385896 96.8174292206653 L 874.810829090585 96.92439992896537 L 874.7787302469799 97.0312308768252 L 874.7442698176318 97.13791138123905 L 874.707451248555 97.24443077424536 L 874.6682782215756 97.35077840399362 L 874.6267546539639 97.45694363580944 L 874.5828846980419 97.56291585325815 L 874.5366727407685 97.66868445920629 L 874.4881234033012 97.77423887688141 L 874.4372415405331 97.8795685509297 L 874.3840322406082 97.98466294847155 L 874.328500824412 98.08951156015478 L 874.27065284504 98.19410390120557 L 874.2104940872418 98.29842951247699 L 874.1480305668432 98.40247796149485 L 874.083268530144 98.50623884350097 L 874.016214453294 98.60970178249359 L 873.9468750416451 98.71285643226504 L 873.8752572290804 98.81569247743631 L 873.8013681773217 98.91819963448859 L 873.7252152752127 99.02036765279156 L 873.6468061379799 99.12218631562857 L 873.5661486064718 99.22364544121817 L 873.4832507463743 99.32473488373233 L 873.3981208474045 99.42544453431107 L 873.310767422481 99.52576432207324 L 873.2211992068738 99.62568421512367 L 873.1294251573298 99.72519422155631 L 873.0354544511774 99.82428439045346 L 872.9392964854088 99.92294481288079 L 872.8409608757407 100.02116562287829 L 872.740457455652 100.11893699844678 L 872.6377962754008 100.2162491625302 L 872.5329876010197 100.31309238399325 L 872.4260419132888 100.40945697859446 L 872.3169699066879 100.50533330995468 L 872.2057824883266 100.60071179052068 L 872.092490776854 100.69558288252388 L 871.9771061013471 100.78993709893413 L 871.859640000177 100.88376500440843 L 871.7401042198561 100.97705721623441 L 871.6185107138629 101.06980440526866 L 871.4948716414465 101.16199729686952 L 871.3691993664111 101.25362667182469 L 871.2415064558796 101.34468336727302 L 871.1118056790366 101.43515827762084 L 870.9801100058517 101.52504235545253 L 870.8464326057824 101.61432661243519 L 870.7107868464575 101.70300212021755 L 870.5731862923396 101.7910600113227 L 870.4336447033697 101.87849148003492 L 870.2921760335904 101.9652877832802 L 870.1487944297506 102.05144024150056 L 870.0035142298915 102.13694023952193 L 869.8563499619116 102.22177922741581 L 869.7073163421155 102.30594872135407 L 869.5564282737406 102.38944030445748 L 869.4037008454683 102.47224562763729 L 869.249149329914 102.5543564104302 L 869.0927891821005 102.63576444182635 L 868.9346360379122 102.71646158109044 L 868.774705712532 102.79643975857579 L 868.6130141988588 102.8756909765313 L 868.4495776659095 102.95420730990122 L 868.2844124572009 103.03198090711763 L 868.1175350891166 103.10900399088564 L 867.9489622492541 103.18526885896105 L 867.778710794757 103.2607678849206 L 867.6067977506289 103.33549351892461 L 867.4332403080308 103.40943828847196 L 867.2580558225625 103.48259479914732 L 867.0812618125265 103.55495573536056 L 866.9028759571764 103.6265138610784 L 866.7229160949491 103.69726202054787 L 866.5414002216811 103.76719313901197 L 866.3583464888081 103.83630022341715 L 866.1737732015512 103.90457636311257 L 865.987698817085 103.97201473054113 L 865.800141942693 104.03860858192229 L 865.6111213339063 104.10435125792642 L 865.4206558926285 104.1692361843407 L 865.2287646652446 104.23325687272656 L 865.0354668407178 104.29640692106851 L 864.8407817486693 104.35868001441433 L 864.6447288574461 104.4200699255066 L 864.4473277721739 104.48057051540535 L 864.2485982327969 104.54017573410202 L 864.0485601121031 104.5988796211244 L 863.8472334137382 104.65667630613272 L 863.6446382702042 104.71356000950664 L 863.4407949408463 104.7695250429232 L 863.2357238098281 104.82456580992574 L 863.0294453840913 104.87867680648341 L 862.821980291307 104.93185262154162 L 862.6133492778113 104.98408793756322 L 862.4035732065319 105.0353775310601 L 862.1926730549009 105.08571627311568 L 861.9806699127578 105.13509912989768 L 861.7675849802401 105.1835211631616 L 861.5534395656638 105.23097753074444 L 861.3382550833915 105.27746348704899 L 861.1220530516922 105.32297438351839 L 860.9048550905891 105.36750566910086 L 860.6866829196971 105.41105289070501 L 860.4675583560515 105.45361169364494 L 860.2475033119262 105.49517782207583 L 860.0265397926421 105.53574711941947 L 859.8046898943671 105.57531552877992 L 859.5819758019061 105.61387909334925 L 859.3584197864826 105.65143395680312 L 859.1340442035122 105.68797636368647 L 858.9088714903659 105.72350265978909 L 858.6829241641275 105.75800929251095 L 858.4562248193413 105.79149281121755 L 858.2287961257529 105.82394986758491 L 858.000660826042 105.85537721593445 L 857.7718417335487 105.88577171355752 L 857.5423617299914 105.9151303210297 L 857.3122437631794 105.94345010251467 L 857.0815108447173 105.97072822605791 L 856.8501860477049 105.99696196386981 L 856.6182925044291 106.02214869259844 L 856.385853404051 106.04628589359189 L 856.1528919902869 106.0693711531502 L 855.9194315590839 106.09140216276666 L 855.6854954562909 106.11237671935864 L 855.451107075323 106.13229272548797 L 855.216289854823 106.15114818957065 L 854.9810672763174 106.16894122607596 L 854.7454628618677 106.1856700557151 L 854.5095001717194 106.20133300561903 L 854.2732028019448 106.21592850950582 L 854.0365943820838 106.22945510783724 L 853.7996985727812 106.24191144796474 L 853.5625390634207 106.25329628426466 L 853.3251395697555 106.2636084782629 L 853.087523831537 106.2728469987486 L 852.8497156101414 106.28101092187747 L 852.6117386861923 106.28809943126396 L 852.373616857184 106.29411181806304 L 852.1353739351008 106.29904748104106 L 851.8970337440364 106.30290592663582 L 851.6586201178114 106.30568676900597 L 851.4201568975897 106.30738973006962 L 851.1816679294946 106.30801463953205 L 850.943177062224 106.30756143490284 L 850.7047081446661 106.3060301615021 L 850.4662850235139 106.30342097245587 L 850.227931540881 106.29973412868088 L 849.9896715319165 106.29496999885845 L 849.7515288224233 106.28912905939758 L 849.5135272264737 106.28221189438736 L 849.2756905440289 106.27421919553852 L 849.0380425585589 106.26515176211427 L 848.8006070346644 106.25501050085043 L 848.5634077156997 106.24379642586464 L 848.3264683213993 106.23151065855508 L 848.089812545505 106.21815442748823 L 847.8534640533971 106.20372906827606 L 847.6174464797281 106.1882360234425 L 847.3817834260585 106.17167684227908 L 847.1464984584974 106.15405318069014 L 846.9116151053454 106.13536680102716 L 846.6771568547421 106.11561957191253 L 846.4431471523172 106.09481346805269 L 846.2096093988458 106.0729505700407 L 845.976566947909 106.05003306414814 L 845.7440431035573 106.0260632421065 L 845.5120611179814 106.00104350087803 L 845.2806441891868 105.97497634241597 L 845.0498154586733 105.94786437341445 L 844.8195980091217 105.9197103050478 L 844.5900148620851 105.89051695269937 L 844.3610889756868 105.86028723568009 L 844.1328432423248 105.82902417693644 L 843.9053004863822 105.79673090274827 L 843.6784834619449 105.76341064241608 L 843.4524148505265 105.72906672793813 L 843.2271172587995 105.69370259367726 L 843.0026132163354 105.6573217760174 L 842.7789251733515 105.61992791301003 L 842.5560754984656 105.58152474401028 L 842.3340864764594 105.54211610930304 L 842.1129803060504 105.50170594971894 L 841.892779097671 105.46029830624026 L 841.6735048712588 105.41789731959686 L 841.4551795540536 105.37450722985206 L 841.2378249784052 105.33013237597868 L 841.0214628795902 105.28477719542511 L 840.8061148936379 105.23844622367163 L 840.5918025551676 105.1911440937768 L 840.3785472952345 105.14287553591419 L 840.1663704391871 105.09364537689936 L 839.9552932045337 105.0434585397072 L 839.7453366988224 104.99232004297959 L 839.5365219175285 104.9402350005236 L 839.3288697419562 104.88720862080007 L 839.12240093715 104.83324620640276 L 838.9171361498184 104.77835315352817 L 838.7130959062689 104.72253495143585 L 838.5103006103559 104.66579718189945 L 838.3087705414401 104.60814551864868 L 838.1085258523605 104.54958572680184 L 837.9095865674188 104.49012366228926 L 837.7119725803781 104.42976527126788 L 837.5157036524722 104.36851658952648 L 837.3207994104304 104.30638374188221 L 837.1272793445145 104.24337294156805 L 836.9351628065697 104.17949048961154 L 836.7444690080899 104.11474277420461 L 836.5552170182959 104.04913627006486 L 836.367425762229 103.98267753778805 L 836.1811140188584 103.91537322319199 L 835.996300419203 103.84723005665208 L 835.8130034444689 103.77825485242818 L 835.6312414242007 103.70845450798322 L 835.4510325344492 103.63783600329349 L 835.2723947959529 103.56640640015061 L 835.095346072337 103.49417284145538 L 834.9199040683261 103.42114255050346 L 834.7460863279747 103.3473228302631 L 834.5739102329118 103.27272106264479 L 834.4033930006034 103.19734470776314 L 834.2345516826308 103.1212013031908 L 834.0674031629849 103.04429846320481 L 833.9019641563785 102.96664387802507 L 833.7382512065743 102.88824531304537 L 833.576280684731 102.8091106080569 L 833.4160687877658 102.72924767646418 L 833.2576315367346 102.64866450449387 L 833.1009847752308 102.56736915039596 L 832.9461441678 102.48536974363815 L 832.7931251983737 102.40267448409276 L 832.6419431687214 102.31929164121684 L 832.49261319692 102.2352295532252 L 832.3451502158425 102.15049662625658 L 832.199568971664 102.06510133353308 L 832.0558840223875 101.97905221451278 L 831.9141097363884 101.89235787403591 L 831.7742602909769 101.80502698146424 L 831.6363496709812 101.71706826981428 L 831.5003916673481 101.62849053488388 L 831.3663998757651 101.53930263437272 L 831.2343876952993 101.44951348699652 L 831.104368327059 101.35913207159521 L 830.9763547728725 101.26816742623502 L 830.8503598339886 101.17662864730465 L 830.7263961097963 101.08452488860574 L 830.6044759965646 100.9918653604374 L 830.4846116862032 100.89865932867522 L 830.3668151650432 100.80491611384473 L 830.2510982126388 100.71064509018925 L 830.1374724005885 100.61585568473262 L 830.0259490913792 100.5205573763364 L 829.9165394372485 100.424759694752 L 829.8092543790708 100.32847221966773 L 829.7041046452625 100.2317045797509 L 829.6011007507095 100.13446645168483 L 829.5002529957152 100.03676755920131 L 829.4015714649711 99.93861767210817 L 829.3050660265482 99.84002660531232 L 829.2107463309097 99.7410042178383 L 829.1186218099467 99.64156041184232 L 829.0287016760345 99.54170513162211 L 828.9409949211116 99.4414483626225 L 828.8555103157803 99.34080013043682 L 828.77225640843 99.23977049980442 L 828.691241524382 99.13836957360418 L 828.6124737650572 99.03660749184422 L 828.535961007166 98.9344944306479 L 828.4617109019201 98.83204060123627 L 828.3897308742686 98.72925624890688 L 828.3200281221539 98.6261516520093 L 828.2526096157934 98.52273712091731 L 828.1874820969814 98.41902299699785 L 828.1246520784155 98.31501965157686 L 828.0641258430453 98.21073748490224 L 828.0059094434438 98.10618692510373 L 827.9500087012026 98.0013784271502 L 827.8964292063491 97.89632247180411 L 827.8451763167883 97.79102956457344 L 827.7962551577665 97.68551023466115 L 827.7496706213586 97.57977503391233 L 827.7054273659797 97.47383453575894 L 827.6635298159183 97.3676993341625 L 827.6239821608946 97.2613800425547 L 827.5867883556409 97.15488729277617 L 827.5519521195071 97.04823173401307 L 827.5194769360874 96.94142403173245 L 827.4893660528734 96.8344748666155 L 827.4616224809281 96.72739493348962 L 827.4362489945858 96.6201949402589 L 827.4132481311738 96.51288560683331 L 827.3926221907593 96.40547766405678 L 827.3743732359192 96.29798185263407 L 827.3585030915337 96.19040892205675 L 827.3450133446042 96.08276962952824 L 827.333905344094 95.9750747388881 L 827.325180200794 95.86733501953563 L 827.318838787211 95.75956124535298 L 827.3148817374814 95.65176419362778 L 827.3133094473067 95.54395464397535" stroke-miterlimit="10" stroke-width="2.7769845610000004" stroke-dasharray=""/></g><g><g/><text fill="black" stroke="none" font-family="sans-serif" font-size="11pt" font-style="normal" font-weight="normal" text-decoration="normal" x="819.7847310714844" y="123.83569119881818" text-anchor="start" dominant-baseline="alphabetic" xml:space="preserve">Database</text></g><g><path fill="white" stroke="black" paint-order="fill stroke markers" d=" M 90.987082381 771.6081780603181 A 9.311065881 9.311065881 0 1 1 90.98707772546743 771.5988669959889 M 81.67601649999999 780.9192439413181 L 81.67601649999999 800.8481919673181 M 69.914670124 788.1067333933181 L 93.43736287599998 788.1067333933181 M 81.67601649999999 800.8481919673181 L 69.914670124 819.4703237293181 M 81.67601649999999 800.8481919673181 L 93.43736287599998 819.4703237293181" stroke-miterlimit="10" stroke-width="2.7769845610000004" stroke-dasharray=""/></g><g><g/><text fill="black" stroke="none" font-family="sans-serif" font-size="11pt" font-style="normal" font-weight="normal" text-decoration="normal" x="53.1470400595703" y="756.008058908818" text-anchor="start" dominant-baseline="alphabetic" xml:space="preserve">Landlord</text></g><g><path fill="white" stroke="black" paint-order="fill stroke markers" d=" M 365.3212533113724 787.110285992018 A 24.2577769005 24.2577769005 0 1 1 365.321241182485 787.0860282191604 M 315.4172072298724 813.589650541318 L 366.7097455918724 813.589650541318" stroke-miterlimit="10" stroke-width="2.7769845610000004" stroke-dasharray=""/></g><g><g/><text fill="black" stroke="none" font-family="sans-serif" font-size="11pt" font-style="normal" font-weight="normal" text-decoration="normal" x="322.32332595921224" y="756.008058908818" text-anchor="start" dominant-baseline="alphabetic" xml:space="preserve">Client</text></g><g><path fill="white" stroke="black" paint-order="fill stroke markers" d=" M 654.0716435200964 787.110285992018 A 24.2577769005 24.2577769005 0 1 1 654.0716313912089 787.0860282191604 M 604.1675974385964 813.589650541318 L 655.4601358005964 813.589650541318" stroke-miterlimit="10" stroke-width="2.7769845610000004" stroke-dasharray=""/></g><g><g/><text fill="black" stroke="none" font-family="sans-serif" font-size="11pt" font-style="normal" font-weight="normal" text-decoration="normal" x="601.2884683652019" y="756.008058908818" text-anchor="start" dominant-baseline="alphabetic" xml:space="preserve">Backend</text></g><g><path fill="white" stroke="black" paint-order="fill stroke markers" d=" M 827.3132791997735 808.7707655678181 L 827.3132791997735 774.466838637818 L 875.0120728357734 774.466838637818 L 875.0120728357734 808.7707655678181" stroke-miterlimit="10" stroke-width="2.7769845610000004" stroke-dasharray=""/><path fill="white" stroke="black" paint-order="fill stroke markers" d=" M 875.0120728357734 773.274368796918 L 875.0108803758698 773.3821793418347 L 875.0073031154037 773.4899791057866 L 875.0013414120984 773.5977573088874 L 874.9929958621191 773.7055031734064 L 874.9822673000139 773.8132059248471 L 874.96915679863 773.920854793024 L 874.9536656690068 774.0284390131401 L 874.9357954602442 774.1359478268629 L 874.9155479593481 774.2433704834007 L 874.892925191052 774.3506962405773 L 874.8679294176136 774.4579143659065 L 874.8405631385896 774.5650141376651 L 874.810829090585 774.6719848459652 L 874.7787302469799 774.7788157938251 L 874.7442698176318 774.8854962982389 L 874.707451248555 774.9920156912451 L 874.6682782215756 775.0983633209934 L 874.6267546539639 775.2045285528093 L 874.5828846980419 775.3105007702579 L 874.5366727407685 775.4162693762061 L 874.4881234033012 775.5218237938813 L 874.4372415405331 775.6271534679295 L 874.3840322406082 775.7322478654713 L 874.328500824412 775.8370964771545 L 874.27065284504 775.9416888182054 L 874.2104940872418 776.0460144294768 L 874.1480305668432 776.1500628784946 L 874.083268530144 776.2538237605007 L 874.016214453294 776.3572866994934 L 873.9468750416451 776.4604413492649 L 873.8752572290804 776.5632773944361 L 873.8013681773217 776.6657845514884 L 873.7252152752127 776.7679525697914 L 873.6468061379799 776.8697712326284 L 873.5661486064718 776.971230358218 L 873.4832507463743 777.0723198007321 L 873.3981208474045 777.1730294513109 L 873.310767422481 777.273349239073 L 873.2211992068738 777.3732691321235 L 873.1294251573298 777.4727791385561 L 873.0354544511774 777.5718693074533 L 872.9392964854088 777.6705297298806 L 872.8409608757407 777.768750539878 L 872.740457455652 777.8665219154466 L 872.6377962754008 777.96383407953 L 872.5329876010197 778.060677300993 L 872.4260419132888 778.1570418955943 L 872.3169699066879 778.2529182269545 L 872.2057824883266 778.3482967075205 L 872.092490776854 778.4431677995237 L 871.9771061013471 778.537522015934 L 871.859640000177 778.6313499214083 L 871.7401042198561 778.7246421332343 L 871.6185107138629 778.8173893222685 L 871.4948716414465 778.9095822138694 L 871.3691993664111 779.0012115888245 L 871.2415064558796 779.0922682842728 L 871.1118056790366 779.1827431946207 L 870.9801100058517 779.2726272724524 L 870.8464326057824 779.361911529435 L 870.7107868464575 779.4505870372174 L 870.5731862923396 779.5386449283225 L 870.4336447033697 779.6260763970347 L 870.2921760335904 779.7128727002801 L 870.1487944297506 779.7990251585004 L 870.0035142298915 779.8845251565217 L 869.8563499619116 779.9693641444156 L 869.7073163421155 780.0535336383539 L 869.5564282737406 780.1370252214573 L 869.4037008454683 780.2198305446371 L 869.249149329914 780.30194132743 L 869.0927891821005 780.3833493588262 L 868.9346360379122 780.4640464980903 L 868.774705712532 780.5440246755757 L 868.6130141988588 780.6232758935311 L 868.4495776659095 780.701792226901 L 868.2844124572009 780.7795658241174 L 868.1175350891166 780.8565889078855 L 867.9489622492541 780.9328537759609 L 867.778710794757 781.0083528019204 L 867.6067977506289 781.0830784359244 L 867.4332403080308 781.1570232054718 L 867.2580558225625 781.2301797161472 L 867.0812618125265 781.3025406523603 L 866.9028759571764 781.3740987780782 L 866.7229160949491 781.4448469375477 L 866.5414002216811 781.5147780560118 L 866.3583464888081 781.583885140417 L 866.1737732015512 781.6521612801124 L 865.987698817085 781.7195996475409 L 865.800141942693 781.7861934989221 L 865.6111213339063 781.8519361749262 L 865.4206558926285 781.9168211013405 L 865.2287646652446 781.9808417897264 L 865.0354668407178 782.0439918380683 L 864.8407817486693 782.1062649314141 L 864.6447288574461 782.1676548425064 L 864.4473277721739 782.2281554324052 L 864.2485982327969 782.2877606511018 L 864.0485601121031 782.3464645381242 L 863.8472334137382 782.4042612231325 L 863.6446382702042 782.4611449265064 L 863.4407949408463 782.517109959923 L 863.2357238098281 782.5721507269255 L 863.0294453840913 782.6262617234833 L 862.821980291307 782.6794375385415 L 862.6133492778113 782.731672854563 L 862.4035732065319 782.78296244806 L 862.1926730549009 782.8333011901155 L 861.9806699127578 782.8826840468975 L 861.7675849802401 782.9311060801614 L 861.5534395656638 782.9785624477443 L 861.3382550833915 783.0250484040488 L 861.1220530516922 783.0705593005182 L 860.9048550905891 783.1150905861007 L 860.6866829196971 783.1586378077048 L 860.4675583560515 783.2011966106447 L 860.2475033119262 783.2427627390756 L 860.0265397926421 783.2833320364193 L 859.8046898943671 783.3229004457797 L 859.5819758019061 783.3614640103491 L 859.3584197864826 783.3990188738029 L 859.1340442035122 783.4355612806863 L 858.9088714903659 783.4710875767889 L 858.6829241641275 783.5055942095107 L 858.4562248193413 783.5390777282173 L 858.2287961257529 783.5715347845847 L 858.000660826042 783.6029621329343 L 857.7718417335487 783.6333566305574 L 857.5423617299914 783.6627152380295 L 857.3122437631794 783.6910350195145 L 857.0815108447173 783.7183131430577 L 856.8501860477049 783.7445468808696 L 856.6182925044291 783.7697336095982 L 856.385853404051 783.7938708105917 L 856.1528919902869 783.81695607015 L 855.9194315590839 783.8389870797664 L 855.6854954562909 783.8599616363584 L 855.451107075323 783.8798776424878 L 855.216289854823 783.8987331065705 L 854.9810672763174 783.9165261430758 L 854.7454628618677 783.933254972715 L 854.5095001717194 783.9489179226189 L 854.2732028019448 783.9635134265056 L 854.0365943820838 783.977040024837 L 853.7996985727812 783.9894963649646 L 853.5625390634207 784.0008812012645 L 853.3251395697555 784.0111933952627 L 853.087523831537 784.0204319157484 L 852.8497156101414 784.0285958388773 L 852.6117386861923 784.0356843482638 L 852.373616857184 784.0416967350628 L 852.1353739351008 784.0466323980409 L 851.8970337440364 784.0504908436357 L 851.6586201178114 784.0532716860058 L 851.4201568975897 784.0549746470695 L 851.1816679294946 784.0555995565319 L 850.943177062224 784.0551463519026 L 850.7047081446661 784.0536150785019 L 850.4662850235139 784.0510058894557 L 850.227931540881 784.0473190456808 L 849.9896715319165 784.0425549158583 L 849.7515288224233 784.0367139763974 L 849.5135272264737 784.0297968113872 L 849.2756905440289 784.0218041125383 L 849.0380425585589 784.0127366791141 L 848.8006070346644 784.0025954178502 L 848.5634077156997 783.9913813428644 L 848.3264683213993 783.9790955755549 L 848.089812545505 783.965739344488 L 847.8534640533971 783.9513139852759 L 847.6174464797281 783.9358209404423 L 847.3817834260585 783.9192617592789 L 847.1464984584974 783.90163809769 L 846.9116151053454 783.882951718027 L 846.6771568547421 783.8632044889123 L 846.4431471523172 783.8423983850525 L 846.2096093988458 783.8205354870405 L 845.976566947909 783.7976179811479 L 845.7440431035573 783.7736481591063 L 845.5120611179814 783.7486284178779 L 845.2806441891868 783.7225612594158 L 845.0498154586733 783.6954492904142 L 844.8195980091217 783.6672952220476 L 844.5900148620851 783.6381018696992 L 844.3610889756868 783.6078721526799 L 844.1328432423248 783.5766090939362 L 843.9053004863822 783.5443158197481 L 843.6784834619449 783.5109955594158 L 843.4524148505265 783.476651644938 L 843.2271172587995 783.4412875106771 L 843.0026132163354 783.4049066930172 L 842.7789251733515 783.3675128300099 L 842.5560754984656 783.3291096610101 L 842.3340864764594 783.2897010263029 L 842.1129803060504 783.2492908667188 L 841.892779097671 783.2078832232401 L 841.6735048712588 783.1654822365966 L 841.4551795540536 783.1220921468519 L 841.2378249784052 783.0777172929785 L 841.0214628795902 783.032362112425 L 840.8061148936379 782.9860311406715 L 840.5918025551676 782.9387290107766 L 840.3785472952345 782.890460452914 L 840.1663704391871 782.8412302938992 L 839.9552932045337 782.791043456707 L 839.7453366988224 782.7399049599794 L 839.5365219175285 782.6878199175234 L 839.3288697419562 782.6347935377999 L 839.12240093715 782.5808311234026 L 838.9171361498184 782.525938070528 L 838.7130959062689 782.4701198684356 L 838.5103006103559 782.4133820988993 L 838.3087705414401 782.3557304356485 L 838.1085258523605 782.2971706438017 L 837.9095865674188 782.2377085792891 L 837.7119725803781 782.1773501882677 L 837.5157036524722 782.1161015065263 L 837.3207994104304 782.053968658882 L 837.1272793445145 781.9909578585679 L 836.9351628065697 781.9270754066114 L 836.7444690080899 781.8623276912044 L 836.5552170182959 781.7967211870647 L 836.367425762229 781.7302624547879 L 836.1811140188584 781.6629581401918 L 835.996300419203 781.5948149736519 L 835.8130034444689 781.525839769428 L 835.6312414242007 781.456039424983 L 835.4510325344492 781.3854209202933 L 835.2723947959529 781.3139913171505 L 835.095346072337 781.2417577584552 L 834.9199040683261 781.1687274675032 L 834.7460863279747 781.0949077472629 L 834.5739102329118 781.0203059796446 L 834.4033930006034 780.944929624763 L 834.2345516826308 780.8687862201906 L 834.0674031629849 780.7918833802046 L 833.9019641563785 780.7142287950248 L 833.7382512065743 780.6358302300451 L 833.576280684731 780.5566955250567 L 833.4160687877658 780.476832593464 L 833.2576315367346 780.3962494214936 L 833.1009847752308 780.3149540673958 L 832.9461441678 780.2329546606379 L 832.7931251983737 780.1502594010925 L 832.6419431687214 780.0668765582167 L 832.49261319692 779.982814470225 L 832.3451502158425 779.8980815432564 L 832.199568971664 779.8126862505329 L 832.0558840223875 779.7266371315126 L 831.9141097363884 779.6399427910358 L 831.7742602909769 779.5526118984641 L 831.6363496709812 779.4646531868141 L 831.5003916673481 779.3760754518837 L 831.3663998757651 779.2868875513725 L 831.2343876952993 779.1970984039964 L 831.104368327059 779.106716988595 L 830.9763547728725 779.0157523432348 L 830.8503598339886 778.9242135643045 L 830.7263961097963 778.8321098056056 L 830.6044759965646 778.7394502774372 L 830.4846116862032 778.646244245675 L 830.3668151650432 778.5525010308445 L 830.2510982126388 778.4582300071891 L 830.1374724005885 778.3634406017325 L 830.0259490913792 778.2681422933362 L 829.9165394372485 778.1723446117518 L 829.8092543790708 778.0760571366676 L 829.7041046452625 777.9792894967508 L 829.6011007507095 777.8820513686846 L 829.5002529957152 777.7843524762011 L 829.4015714649711 777.686202589108 L 829.3050660265482 777.5876115223122 L 829.2107463309097 777.4885891348381 L 829.1186218099467 777.3891453288421 L 829.0287016760345 777.289290048622 L 828.9409949211116 777.1890332796223 L 828.8555103157803 777.0883850474366 L 828.77225640843 776.9873554168042 L 828.691241524382 776.885954490604 L 828.6124737650572 776.784192408844 L 828.535961007166 776.6820793476477 L 828.4617109019201 776.5796255182361 L 828.3897308742686 776.4768411659066 L 828.3200281221539 776.3737365690091 L 828.2526096157934 776.2703220379171 L 828.1874820969814 776.1666079139976 L 828.1246520784155 776.0626045685767 L 828.0641258430453 775.958322401902 L 828.0059094434438 775.8537718421036 L 827.9500087012026 775.7489633441501 L 827.8964292063491 775.6439073888039 L 827.8451763167883 775.5386144815733 L 827.7962551577665 775.433095151661 L 827.7496706213586 775.3273599509122 L 827.7054273659797 775.2214194527587 L 827.6635298159183 775.1152842511623 L 827.6239821608946 775.0089649595545 L 827.5867883556409 774.902472209776 L 827.5519521195071 774.7958166510128 L 827.5194769360874 774.6890089487323 L 827.4893660528734 774.5820597836154 L 827.4616224809281 774.4749798504895 L 827.4362489945858 774.3677798572587 L 827.4132481311738 774.2604705238331 L 827.3926221907593 774.1530625810566 L 827.3743732359192 774.0455667696339 L 827.3585030915337 773.9379938390566 L 827.3450133446042 773.830354546528 L 827.333905344094 773.7226596558879 L 827.325180200794 773.6149199365354 L 827.318838787211 773.5071461623528 L 827.3148817374814 773.3993491106276 L 827.3133094473067 773.2915395609751 L 827.3141220739146 773.1837282942606 L 827.3173195360432 773.0759260915208 L 827.3229015139489 772.9681437328862 L 827.3308674494385 772.8603919965028 L 827.3412165459252 772.7526816574544 L 827.3539477685081 772.6450234866853 L 827.3690598440752 772.5374282499228 L 827.3865512614318 772.4299067066008 L 827.4064202714505 772.3224696087841 L 827.4286648872472 772.215127700093 L 827.4532828843787 772.107891714629 L 827.4802718010657 772.000772375901 L 827.509628938439 771.8937803957539 L 827.5413513608096 771.7869264732963 L 827.5754358959615 771.6802212938316 L 827.6118791354695 771.5736755277887 L 827.6506774350403 771.4672998296555 L 827.691826914876 771.3611048369132 L 827.735323460063 771.2551011689725 L 827.781162720983 771.1492994261118 L 827.8293401137482 771.0437101884174 L 827.8798508206595 770.938344014725 L 827.9326897906881 770.833211441564 L 827.9878517399812 770.7283229821044 L 828.0453311523898 770.6236891251044 L 828.1051222800206 770.5193203338629 L 828.1672191438105 770.4152270451716 L 828.231615534125 770.3114196682731 L 828.2983050113788 770.2079085838182 L 828.3672809066796 770.1047041428293 L 828.4385363224955 770.0018166656644 L 828.5120641333441 769.8992564409855 L 828.5878569865057 769.7970337247295 L 828.6659073027581 769.6951587390831 L 828.7462072771349 769.5936416714599 L 828.8287488797052 769.4924926734818 L 828.913523856378 769.3917218599646 L 829.000523729726 769.2913393079056 L 829.0897397998343 769.1913550554762 L 829.1811631451704 769.0917791010185 L 829.274784623476 768.9926214020448 L 829.370594872681 768.8938918742426 L 829.4685843118406 768.7956003904823 L 829.5687431420924 768.6977567798303 L 829.671061347637 768.6003708265662 L 829.7755286967388 768.5034522692041 L 829.8821347427503 768.4070107995191 L 829.9908688251555 768.3110560615777 L 830.1017200706368 768.2155976507737 L 830.2146773941622 768.1206451128687 L 830.3297295000933 768.0262079430374 L 830.4468648833155 767.932295584918 L 830.5660718303878 767.8389174296681 L 830.6873384207153 767.7460828150254 L 830.8106525277396 767.653801024374 L 830.9360018201531 767.562081285816 L 831.0633737631308 767.470932771249 L 831.1927556195847 767.3803645954483 L 831.3241344514367 767.2903858151561 L 831.4574971209133 767.2010054281754 L 831.5928302918587 767.1122323724707 L 831.7301204310686 767.024075525273 L 831.8693538096434 766.9365437021942 L 832.0105165043612 766.8496456563432 L 832.1535943990704 766.7633900774523 L 832.2985731861005 766.6777855910077 L 832.4454383676938 766.5928407573865 L 832.5941752574545 766.5085640710013 L 832.7447689818174 766.4249639594506 L 832.8972044815358 766.3420487826756 L 833.0514665131866 766.2598268321254 L 833.2075396506953 766.1783063299262 L 833.365408286878 766.0974954280603 L 833.525056635003 766.0174022075505 L 833.6864687303681 765.9380346776522 L 833.8496284318986 765.8594007750522 L 834.0145194237601 765.7815083630754 L 834.1811252169911 765.7043652308979 L 834.3494291511508 765.6279790927687 L 834.5194143959861 765.5523575872379 L 834.6910639531144 765.4775082763931 L 834.8643606577228 765.4034386451029 L 835.0392871802853 765.3301561002689 L 835.2158260282955 765.2576679700844 L 835.3939595480156 765.1859815033021 L 835.5736699262421 765.1151038685088 L 835.754939192087 765.0450421534089 L 835.9377492187747 764.9758033641157 L 836.1220817254549 764.9073944244502 L 836.3079182790307 764.8398221752497 L 836.4952402960013 764.7730933736824 L 836.6840290443212 764.7072146925732 L 836.874265645273 764.642192719735 L 837.0659310753551 764.5780339573113 L 837.2590061681842 764.5147448211244 L 837.4534716164119 764.4523316400355 L 837.6493079736555 764.3908006553106 L 837.8464956564422 764.330158019997 L 838.0450149461685 764.2704097983076 L 838.2448459910705 764.2115619650147 L 838.4459688082103 764.1536204048527 L 838.6483632854739 764.0965909119293 L 838.8520091835823 764.0404791891464 L 839.056886138115 763.9852908476292 L 839.2629736615477 763.9310314061662 L 839.4702511452996 763.8777062906561 L 839.6786978617951 763.8253208335661 L 839.8882929665363 763.7738802733984 L 840.0990155001872 763.7233897541659 L 840.3108443906702 763.6738543248784 L 840.5237584552729 763.6252789390379 L 840.737736402766 763.5776684541423 L 840.9527568355333 763.5310276312003 L 841.1687982517104 763.4853611342556 L 841.3858390473359 763.4406735299196 L 841.6038575185113 763.3969692869156 L 841.8228318635709 763.3542527756315 L 842.0427401852626 763.3125282676826 L 842.2635604929378 763.2717999354853 L 842.4852707047495 763.2320718518387 L 842.7078486498614 763.1933479895181 L 842.9312720706644 763.1556322208772 L 843.1555186250025 763.1189283174618 L 843.3805658884074 763.0832399496315 L 843.6063913563402 763.0485706861934 L 843.8329724464422 763.0149239940448 L 844.0602865007934 762.9823032378271 L 844.2883107881775 762.9507116795885 L 844.5170225063559 762.9201524784586 L 844.7463987843475 762.8906286903322 L 844.9764166847157 762.8621432675633 L 845.2070532058618 762.8346990586705 L 845.4382852843262 762.8082988080517 L 845.6700897970935 762.7829451557103 L 845.9024435639059 762.7586406369901 L 846.1353233495801 762.7353876823228 L 846.3687058663317 762.7131886169846 L 846.6025677761035 762.6920456608633 L 846.8368856928993 762.6719609282371 L 847.0716361851228 762.6529364275625 L 847.3067957779203 762.6349740612736 L 847.5423409555287 762.6180756255922 L 847.7782481636264 762.6022428103477 L 848.0144938116891 762.5874771988084 L 848.2510542753489 762.5737802675231 L 848.4879058987567 762.5611533861738 L 848.7250249969474 762.5495978174379 L 848.9623878582088 762.5391147168626 L 849.1999707464525 762.5297051327493 L 849.4377499035878 762.5213700060486 L 849.6757015518972 762.5141101702662 L 849.9138018964139 762.5079263513795 L 850.1520271273021 762.5028191677656 L 850.3903534222371 762.4987891301381 L 850.6287569487881 762.4958366414977 L 850.867213866801 762.4939619970909 L 851.1057003307828 762.4931653843803 L 851.3441924922859 762.4934468830266 L 851.5826665022927 762.4948064648804 L 851.8210985136011 762.4972439939843 L 852.0594646832086 762.5007592265877 L 852.2977411746969 762.5053518111702 L 852.5359041606154 762.511021288477 L 852.7739298248639 762.5177670915652 L 853.0117943650744 762.5255885458602 L 853.249473994991 762.534484869223 L 853.4869449468491 762.5444551720286 L 853.724183473751 762.5554984572553 L 853.961165852042 762.5676136205835 L 854.1978683836816 762.5807994505071 L 854.4342673986139 762.595054628454 L 854.6703392571345 762.6103777289185 L 854.9060603522541 762.626767219603 L 855.1414071120598 762.6442214615724 L 855.3763560020717 762.6627387094169 L 855.6108835275965 762.682317111427 L 855.8449662360772 762.7029547097791 L 856.0785807194379 762.7246494407304 L 856.311703616425 762.7473991348259 L 856.5443116149431 762.7712015171152 L 856.7763814543862 762.7960542073798 L 857.0078899279637 762.8219547203715 L 857.2388138850212 762.8489004660605 L 857.4691302333554 762.8768887498949 L 857.6988159415233 762.9059167730693 L 857.9278480411457 762.9359816328057 L 858.1562036292033 762.9670803226433 L 858.3838598703278 762.9992097327389 L 858.6107939990845 763.0323666501783 L 858.8369833222499 763.0665477592976 L 859.0624052210802 763.1017496420139 L 859.2870371535731 763.1379687781687 L 859.5108566567228 763.1752015458784 L 859.7338413487654 763.2134442218971 L 859.9559689314174 763.2526929819894 L 860.1772171921059 763.2929439013118 L 860.397564006189 763.3341929548059 L 860.6169873391689 763.3764360176008 L 860.8354652488953 763.4196688654253 L 861.0529758877592 763.4638871750308 L 861.269497504878 763.5090865246231 L 861.4850084482704 763.5552623943048 L 861.6994871670216 763.6024101665276 L 861.9129122134386 763.6505251265536 L 862.1252622451946 763.6996024629267 L 862.3365160274633 763.7496372679543 L 862.5466524350425 763.8006245381976 L 862.7556504544665 763.8525591749719 L 862.9634891861077 763.9054359848569 L 863.170147846266 763.9592496802157 L 863.3756057692477 764.0139948797238 L 863.5798424094316 764.0696661089064 L 863.782837343324 764.1262578006874 L 863.9845702716005 764.1837642959446 L 864.1850210211367 764.2421798440763 L 864.3841695470243 764.3014986035766 L 864.5819959345769 764.3617146426188 L 864.7784804013205 764.4228219396493 L 864.9736032989723 764.4848143839893 L 865.167345115405 764.547685776446 L 865.3596864765984 764.6114298299324 L 865.5506081485769 764.6760401700965 L 865.740091039332 764.741510335958 L 865.9281162007329 764.8078337805549 L 866.11466483042 764.875003871598 L 866.2997182736857 764.9430138921342 L 866.48325802534 765.0118570412181 L 866.6652657315607 765.0815264345922 L 866.8457231917288 765.1520151053752 L 867.0246123602486 765.2233160047588 L 867.2019153483524 765.2954220027123 L 867.3776144258892 765.3683258886962 L 867.5516920230975 765.4420203723826 L 867.7241307323628 765.5164980843844 L 867.8949133099578 765.5917515769926 L 868.0640226777671 765.6677733249206 L 868.2314419249947 765.7445557260571 L 868.3971543098555 765.8220911022258 L 868.5611432612492 765.9003716999539 L 868.7233923804172 765.9793896912466 L 868.8838854425828 766.0591371743707 L 869.0426063985736 766.1396061746444 L 869.1995393764262 766.2207886452348 L 869.3546686829735 766.3026764679623 L 869.5079788054144 766.3852614541131 L 869.6594544128641 766.4685353452571 L 869.8090803578882 766.5524898140749 L 869.956841678017 766.6371164651894 L 870.1027235972415 766.722406836006 L 870.2467115274914 766.8083523975588 L 870.3887910700936 766.8949445553632 L 870.5289480172123 766.9821746502755 L 870.6671683532695 767.0700339593591 L 870.8034382563469 767.1585136967561 L 870.9377440995677 767.2476050145667 L 871.0700724524595 767.3372990037332 L 871.2004100822971 767.4275866949314 L 871.3287439554265 767.5184590594675 L 871.4550612385672 767.6099070101809 L 871.5793493000958 767.7019214023526 L 871.7015957113102 767.7944930346199 L 871.821788247671 767.887612649897 L 871.9399148900246 767.9812709362999 L 872.0559638258053 768.0754585280779 L 872.1699234502162 768.1701660065503 L 872.2817823673898 768.2653839010484 L 872.3915293915277 768.3611026898618 L 872.4991535480189 768.4573128011916 L 872.6046440745373 768.5540046141068 L 872.7079904221183 768.6511684595066 L 872.8091822562133 768.7487946210875 L 872.9082094577232 768.8468733363147 L 873.0050621240101 768.9453947973984 L 873.0997305698885 769.0443491522745 L 873.1922053285924 769.1437265055902 L 873.2824771527232 769.2435169196928 L 873.3705370151736 769.3437104156241 L 873.4563761100306 769.444296974118 L 873.5399858534566 769.5452665366023 L 873.6213578845466 769.6466090062053 L 873.7004840661655 769.748314248764 L 873.777356485761 769.8503720938393 L 873.8519674561551 769.9527723357315 L 873.9243095163131 770.0555047345019 L 873.9943754320893 770.1585590169963 L 874.0621581969503 770.2619248778719 L 874.1276510326763 770.3655919806292 L 874.1908473900382 770.4695499586442 L 874.2517409494529 770.5737884162056 L 874.3103256216153 770.6782969295547 L 874.366595548107 770.783065047927 L 874.4205451019822 770.8880822945982 L 874.4721688883304 770.9933381679311 L 874.5214617448161 771.098822142426 L 874.5684187421947 771.2045236697735 L 874.6130351848055 771.3104321799087 L 874.6553066110416 771.416537082069 L 874.6952287937954 771.5228277658528 L 874.7327977408821 771.6292936022799 L 874.7680096954381 771.7359239448556 L 874.8008611362975 771.8427081306345 L 874.8313487783433 771.9496354812869 L 874.859469572837 772.056695304167 L 874.8852207077224 772.1638768933817 L 874.9085996079076 772.2711695308612 L 874.9296039355219 772.3785624874314 L 874.9482315901502 772.486045023886 L 874.9644807090424 772.5936063920611 L 874.9783496673003 772.7012358359093 L 874.9898370780396 772.808922592576 L 874.9989417925287 772.9166558934753 L 875.005662900304 773.0244249653667 L 875.0099997292599 773.1322190314331 L 875.0119518457175 773.2400273123576 M 875.0120728357734 807.5782957269181 L 875.0108803758698 807.6861062718348 L 875.0073031154037 807.7939060357867 L 875.0013414120984 807.9016842388875 L 874.9929958621191 808.0094301034065 L 874.9822673000139 808.1171328548472 L 874.96915679863 808.2247817230241 L 874.9536656690068 808.3323659431402 L 874.9357954602442 808.439874756863 L 874.9155479593481 808.5472974134008 L 874.892925191052 808.6546231705775 L 874.8679294176136 808.7618412959066 L 874.8405631385896 808.8689410676652 L 874.810829090585 808.9759117759653 L 874.7787302469799 809.0827427238252 L 874.7442698176318 809.189423228239 L 874.707451248555 809.2959426212453 L 874.6682782215756 809.4022902509935 L 874.6267546539639 809.5084554828094 L 874.5828846980419 809.614427700258 L 874.5366727407685 809.7201963062062 L 874.4881234033012 809.8257507238814 L 874.4372415405331 809.9310803979296 L 874.3840322406082 810.0361747954714 L 874.328500824412 810.1410234071546 L 874.27065284504 810.2456157482055 L 874.2104940872418 810.3499413594769 L 874.1480305668432 810.4539898084947 L 874.083268530144 810.5577506905008 L 874.016214453294 810.6612136294935 L 873.9468750416451 810.764368279265 L 873.8752572290804 810.8672043244362 L 873.8013681773217 810.9697114814885 L 873.7252152752127 811.0718794997915 L 873.6468061379799 811.1736981626285 L 873.5661486064718 811.2751572882181 L 873.4832507463743 811.3762467307322 L 873.3981208474045 811.476956381311 L 873.310767422481 811.5772761690731 L 873.2211992068738 811.6771960621236 L 873.1294251573298 811.7767060685562 L 873.0354544511774 811.8757962374534 L 872.9392964854088 811.9744566598807 L 872.8409608757407 812.0726774698782 L 872.740457455652 812.1704488454467 L 872.6377962754008 812.2677610095301 L 872.5329876010197 812.3646042309931 L 872.4260419132888 812.4609688255944 L 872.3169699066879 812.5568451569546 L 872.2057824883266 812.6522236375206 L 872.092490776854 812.7470947295238 L 871.9771061013471 812.8414489459341 L 871.859640000177 812.9352768514084 L 871.7401042198561 813.0285690632344 L 871.6185107138629 813.1213162522686 L 871.4948716414465 813.2135091438695 L 871.3691993664111 813.3051385188246 L 871.2415064558796 813.3961952142729 L 871.1118056790366 813.4866701246208 L 870.9801100058517 813.5765542024525 L 870.8464326057824 813.6658384594351 L 870.7107868464575 813.7545139672175 L 870.5731862923396 813.8425718583226 L 870.4336447033697 813.9300033270348 L 870.2921760335904 814.0167996302802 L 870.1487944297506 814.1029520885005 L 870.0035142298915 814.1884520865218 L 869.8563499619116 814.2732910744157 L 869.7073163421155 814.357460568354 L 869.5564282737406 814.4409521514574 L 869.4037008454683 814.5237574746373 L 869.249149329914 814.6058682574301 L 869.0927891821005 814.6872762888263 L 868.9346360379122 814.7679734280904 L 868.774705712532 814.8479516055758 L 868.6130141988588 814.9272028235312 L 868.4495776659095 815.0057191569011 L 868.2844124572009 815.0834927541175 L 868.1175350891166 815.1605158378856 L 867.9489622492541 815.236780705961 L 867.778710794757 815.3122797319205 L 867.6067977506289 815.3870053659246 L 867.4332403080308 815.4609501354719 L 867.2580558225625 815.5341066461473 L 867.0812618125265 815.6064675823604 L 866.9028759571764 815.6780257080783 L 866.7229160949491 815.7487738675478 L 866.5414002216811 815.8187049860119 L 866.3583464888081 815.8878120704171 L 866.1737732015512 815.9560882101125 L 865.987698817085 816.023526577541 L 865.800141942693 816.0901204289222 L 865.6111213339063 816.1558631049263 L 865.4206558926285 816.2207480313406 L 865.2287646652446 816.2847687197265 L 865.0354668407178 816.3479187680684 L 864.8407817486693 816.4101918614142 L 864.6447288574461 816.4715817725065 L 864.4473277721739 816.5320823624053 L 864.2485982327969 816.591687581102 L 864.0485601121031 816.6503914681243 L 863.8472334137382 816.7081881531326 L 863.6446382702042 816.7650718565066 L 863.4407949408463 816.8210368899231 L 863.2357238098281 816.8760776569256 L 863.0294453840913 816.9301886534834 L 862.821980291307 816.9833644685416 L 862.6133492778113 817.0355997845631 L 862.4035732065319 817.08688937806 L 862.1926730549009 817.1372281201157 L 861.9806699127578 817.1866109768976 L 861.7675849802401 817.2350330101615 L 861.5534395656638 817.2824893777444 L 861.3382550833915 817.3289753340489 L 861.1220530516922 817.3744862305183 L 860.9048550905891 817.4190175161008 L 860.6866829196971 817.462564737705 L 860.4675583560515 817.5051235406448 L 860.2475033119262 817.5466896690757 L 860.0265397926421 817.5872589664194 L 859.8046898943671 817.6268273757798 L 859.5819758019061 817.6653909403492 L 859.3584197864826 817.702945803803 L 859.1340442035122 817.7394882106864 L 858.9088714903659 817.775014506789 L 858.6829241641275 817.8095211395108 L 858.4562248193413 817.8430046582175 L 858.2287961257529 817.8754617145848 L 858.000660826042 817.9068890629344 L 857.7718417335487 817.9372835605575 L 857.5423617299914 817.9666421680296 L 857.3122437631794 817.9949619495146 L 857.0815108447173 818.0222400730578 L 856.8501860477049 818.0484738108697 L 856.6182925044291 818.0736605395983 L 856.385853404051 818.0977977405918 L 856.1528919902869 818.1208830001501 L 855.9194315590839 818.1429140097665 L 855.6854954562909 818.1638885663585 L 855.451107075323 818.1838045724879 L 855.216289854823 818.2026600365706 L 854.9810672763174 818.2204530730759 L 854.7454628618677 818.2371819027151 L 854.5095001717194 818.252844852619 L 854.2732028019448 818.2674403565057 L 854.0365943820838 818.2809669548371 L 853.7996985727812 818.2934232949647 L 853.5625390634207 818.3048081312646 L 853.3251395697555 818.3151203252628 L 853.087523831537 818.3243588457485 L 852.8497156101414 818.3325227688774 L 852.6117386861923 818.3396112782639 L 852.373616857184 818.3456236650629 L 852.1353739351008 818.350559328041 L 851.8970337440364 818.3544177736358 L 851.6586201178114 818.3571986160059 L 851.4201568975897 818.3589015770696 L 851.1816679294946 818.359526486532 L 850.943177062224 818.3590732819027 L 850.7047081446661 818.357542008502 L 850.4662850235139 818.3549328194558 L 850.227931540881 818.3512459756807 L 849.9896715319165 818.3464818458584 L 849.7515288224233 818.3406409063975 L 849.5135272264737 818.3337237413873 L 849.2756905440289 818.3257310425385 L 849.0380425585589 818.3166636091142 L 848.8006070346644 818.3065223478503 L 848.5634077156997 818.2953082728645 L 848.3264683213993 818.283022505555 L 848.089812545505 818.2696662744881 L 847.8534640533971 818.255240915276 L 847.6174464797281 818.2397478704424 L 847.3817834260585 818.223188689279 L 847.1464984584974 818.2055650276901 L 846.9116151053454 818.1868786480271 L 846.6771568547421 818.1671314189124 L 846.4431471523172 818.1463253150526 L 846.2096093988458 818.1244624170406 L 845.976566947909 818.101544911148 L 845.7440431035573 818.0775750891064 L 845.5120611179814 818.052555347878 L 845.2806441891868 818.0264881894159 L 845.0498154586733 817.9993762204143 L 844.8195980091217 817.9712221520477 L 844.5900148620851 817.9420287996993 L 844.3610889756868 817.91179908268 L 844.1328432423248 817.8805360239363 L 843.9053004863822 817.8482427497482 L 843.6784834619449 817.814922489416 L 843.4524148505265 817.7805785749381 L 843.2271172587995 817.7452144406772 L 843.0026132163354 817.7088336230173 L 842.7789251733515 817.67143976001 L 842.5560754984656 817.6330365910102 L 842.3340864764594 817.593627956303 L 842.1129803060504 817.5532177967189 L 841.892779097671 817.5118101532402 L 841.6735048712588 817.4694091665967 L 841.4551795540536 817.426019076852 L 841.2378249784052 817.3816442229786 L 841.0214628795902 817.336289042425 L 840.8061148936379 817.2899580706716 L 840.5918025551676 817.2426559407767 L 840.3785472952345 817.1943873829141 L 840.1663704391871 817.1451572238993 L 839.9552932045337 817.0949703867071 L 839.7453366988224 817.0438318899795 L 839.5365219175285 816.9917468475235 L 839.3288697419562 816.9387204678 L 839.12240093715 816.8847580534027 L 838.9171361498184 816.8298650005281 L 838.7130959062689 816.7740467984357 L 838.5103006103559 816.7173090288994 L 838.3087705414401 816.6596573656486 L 838.1085258523605 816.6010975738018 L 837.9095865674188 816.5416355092892 L 837.7119725803781 816.4812771182678 L 837.5157036524722 816.4200284365264 L 837.3207994104304 816.3578955888821 L 837.1272793445145 816.294884788568 L 836.9351628065697 816.2310023366115 L 836.7444690080899 816.1662546212045 L 836.5552170182959 816.1006481170648 L 836.367425762229 816.034189384788 L 836.1811140188584 815.9668850701919 L 835.996300419203 815.898741903652 L 835.8130034444689 815.8297666994281 L 835.6312414242007 815.7599663549831 L 835.4510325344492 815.6893478502934 L 835.2723947959529 815.6179182471506 L 835.095346072337 815.5456846884553 L 834.9199040683261 815.4726543975033 L 834.7460863279747 815.398834677263 L 834.5739102329118 815.3242329096447 L 834.4033930006034 815.248856554763 L 834.2345516826308 815.1727131501907 L 834.0674031629849 815.0958103102047 L 833.9019641563785 815.0181557250249 L 833.7382512065743 814.9397571600452 L 833.576280684731 814.8606224550568 L 833.4160687877658 814.7807595234641 L 833.2576315367346 814.7001763514937 L 833.1009847752308 814.6188809973959 L 832.9461441678 814.536881590638 L 832.7931251983737 814.4541863310926 L 832.6419431687214 814.3708034882168 L 832.49261319692 814.2867414002251 L 832.3451502158425 814.2020084732565 L 832.199568971664 814.116613180533 L 832.0558840223875 814.0305640615127 L 831.9141097363884 813.9438697210359 L 831.7742602909769 813.8565388284642 L 831.6363496709812 813.7685801168142 L 831.5003916673481 813.6800023818838 L 831.3663998757651 813.5908144813726 L 831.2343876952993 813.5010253339965 L 831.104368327059 813.4106439185952 L 830.9763547728725 813.3196792732349 L 830.8503598339886 813.2281404943046 L 830.7263961097963 813.1360367356057 L 830.6044759965646 813.0433772074373 L 830.4846116862032 812.9501711756751 L 830.3668151650432 812.8564279608446 L 830.2510982126388 812.7621569371892 L 830.1374724005885 812.6673675317326 L 830.0259490913792 812.5720692233363 L 829.9165394372485 812.4762715417519 L 829.8092543790708 812.3799840666677 L 829.7041046452625 812.2832164267509 L 829.6011007507095 812.1859782986847 L 829.5002529957152 812.0882794062012 L 829.4015714649711 811.9901295191081 L 829.3050660265482 811.8915384523123 L 829.2107463309097 811.7925160648382 L 829.1186218099467 811.6930722588422 L 829.0287016760345 811.5932169786221 L 828.9409949211116 811.4929602096224 L 828.8555103157803 811.3923119774367 L 828.77225640843 811.2912823468043 L 828.691241524382 811.1898814206041 L 828.6124737650572 811.0881193388441 L 828.535961007166 810.9860062776478 L 828.4617109019201 810.8835524482362 L 828.3897308742686 810.7807680959068 L 828.3200281221539 810.6776634990092 L 828.2526096157934 810.5742489679172 L 828.1874820969814 810.4705348439977 L 828.1246520784155 810.3665314985768 L 828.0641258430453 810.2622493319021 L 828.0059094434438 810.1576987721037 L 827.9500087012026 810.0528902741502 L 827.8964292063491 809.947834318804 L 827.8451763167883 809.8425414115734 L 827.7962551577665 809.737022081661 L 827.7496706213586 809.6312868809123 L 827.7054273659797 809.5253463827588 L 827.6635298159183 809.4192111811624 L 827.6239821608946 809.3128918895546 L 827.5867883556409 809.2063991397761 L 827.5519521195071 809.099743581013 L 827.5194769360874 808.9929358787324 L 827.4893660528734 808.8859867136155 L 827.4616224809281 808.7789067804896 L 827.4362489945858 808.6717067872588 L 827.4132481311738 808.5643974538332 L 827.3926221907593 808.4569895110567 L 827.3743732359192 808.349493699634 L 827.3585030915337 808.2419207690567 L 827.3450133446042 808.1342814765281 L 827.333905344094 808.026586585888 L 827.325180200794 807.9188468665355 L 827.318838787211 807.8110730923529 L 827.3148817374814 807.7032760406277 L 827.3133094473067 807.5954664909752" stroke-miterlimit="10" stroke-width="2.7769845610000004" stroke-dasharray=""/></g><g><g/><text fill="black" stroke="none" font-family="sans-serif" font-size="11pt" font-style="normal" font-weight="normal" text-decoration="normal" x="819.7847310714844" y="756.008058908818" text-anchor="start" dominant-baseline="alphabetic" xml:space="preserve">Database</text></g></g><g><path fill="white" stroke="black" paint-order="fill stroke markers" d=" M 73.50841485 182.64242307881818 L 89.84361814999998 182.64242307881818 L 89.84361814999998 682.499644058818 L 73.50841485 682.499644058818 L 73.50841485 182.64242307881818" stroke-miterlimit="10" stroke-width="1.3612669416666667" stroke-dasharray=""/><path fill="white" stroke="black" paint-order="fill stroke markers" d=" M 332.8958747608724 182.64242307881818 L 349.2310780608724 182.64242307881818 L 349.2310780608724 682.499644058818 L 332.8958747608724 682.499644058818 L 332.8958747608724 182.64242307881818" stroke-miterlimit="10" stroke-width="1.3612669416666667" stroke-dasharray=""/><path fill="white" stroke="black" paint-order="fill stroke markers" d=" M 621.6462649695964 228.3809923188182 L 637.9814682695965 228.3809923188182 L 637.9814682695965 682.499644058818 L 621.6462649695964 682.499644058818 L 621.6462649695964 228.3809923188182" stroke-miterlimit="10" stroke-width="1.3612669416666667" stroke-dasharray=""/><path fill="white" stroke="black" paint-order="fill stroke markers" d=" M 842.9950743677734 295.3553258488182 L 859.3302776677735 295.3553258488182 L 859.3302776677735 386.8324643288182 L 842.9950743677734 386.8324643288182 L 842.9950743677734 295.3553258488182" stroke-miterlimit="10" stroke-width="1.3612669416666667" stroke-dasharray=""/><g><text fill="black" stroke="none" font-family="sans-serif" font-size="16pt" font-style="normal" font-weight="normal" text-decoration="normal" x="347.7081756591797" y="24.651306798181814" text-anchor="start" dominant-baseline="alphabetic" xml:space="preserve">Xemchitithan</text></g><g><rect fill="white" stroke="none" x="109.17360872166667" y="161.4066587888182" width="204.39227546753906" height="21.23576429"/><text fill="black" stroke="none" font-family="sans-serif" font-size="11pt" font-style="normal" font-weight="normal" text-decoration="normal" x="111.62388921666667" y="176.10834175881817" text-anchor="start" dominant-baseline="alphabetic" xml:space="preserve">Chnhancnxemchitit</text></g><g><path fill="none" stroke="black" paint-order="fill stroke markers" d=" M 89.84361814999998 182.64242307881818 L 319.44655737720575 182.64242307881818" stroke-miterlimit="10" stroke-width="1.3612669416666667" stroke-dasharray=""/><g transform="translate(332.8958747608724,182.64242307881818) translate(-332.8958747608724,-182.64242307881818)"><path fill="black" stroke="none" paint-order="stroke fill markers" d=" M 319.2832053442057 175.83608837048484 L 332.8958747608724 182.64242307881818 L 319.2832053442057 189.44875778715152 Z"/></g></g><g><rect fill="white" stroke="none" x="402.38353262179686" y="207.1452280288182" width="166.110277786875" height="21.23576429"/><text fill="black" stroke="none" font-family="sans-serif" font-size="11pt" font-style="normal" font-weight="normal" text-decoration="normal" x="404.8338131167969" y="221.84691099881817" text-anchor="start" dominant-baseline="alphabetic" xml:space="preserve">GiIDhancnxem</text></g><g><path fill="none" stroke="black" paint-order="fill stroke markers" d=" M 349.2310780608724 228.3809923188182 L 608.1969475859297 228.3809923188182" stroke-miterlimit="10" stroke-width="1.3612669416666667" stroke-dasharray=""/><g transform="translate(621.6462649695964,228.3809923188182) translate(-621.6462649695964,-228.3809923188182)"><path fill="black" stroke="none" paint-order="stroke fill markers" d=" M 608.0335955529297 221.57465761048485 L 621.6462649695964 228.3809923188182 L 608.0335955529297 235.18732702715153 Z"/></g></g><g><rect fill="white" stroke="none" x="657.3114588412632" y="252.88379726881823" width="103.49751533570313" height="21.23576429"/><text fill="black" stroke="none" font-family="sans-serif" font-size="11pt" font-style="normal" font-weight="normal" text-decoration="normal" x="659.7617393362632" y="267.5854802388182" text-anchor="start" dominant-baseline="alphabetic" xml:space="preserve">Kimtraquyn</text></g><g><path fill="none" stroke="black" paint-order="fill stroke markers" d=" M 637.9814682695965 274.1195615588182 L 703.3222814695964 274.1195615588182 L 703.3222814695964 295.3553258488182 L 651.4307856532631 295.3553258488182" stroke-miterlimit="10" stroke-width="1.3612669416666667" stroke-dasharray=""/><g transform="translate(637.9814682695965,295.3553258488182) translate(-637.9814682695965,-295.3553258488182)"><path fill="black" stroke="none" paint-order="stroke fill markers" d=" M 651.5941376862631 288.5489911404849 L 637.9814682695965 295.3553258488182 L 651.5941376862631 302.16166055715155 Z"/></g></g><g><rect fill="white" stroke="none" x="657.3114588412631" y="319.8581307988182" width="166.35362495484375" height="21.23576429"/><text fill="black" stroke="none" font-family="sans-serif" font-size="11pt" font-style="normal" font-weight="normal" text-decoration="normal" x="659.7617393362631" y="334.5598137688182" text-anchor="start" dominant-baseline="alphabetic" xml:space="preserve">Truyvnchitithan</text></g><g><path fill="none" stroke="black" paint-order="fill stroke markers" d=" M 637.9814682695965 341.0938950888182 L 829.5457569841068 341.0938950888182" stroke-miterlimit="10" stroke-width="1.3612669416666667" stroke-dasharray=""/><g transform="translate(842.9950743677734,341.0938950888182) translate(-842.9950743677734,-341.0938950888182)"><path fill="black" stroke="none" paint-order="stroke fill markers" d=" M 829.3824049511068 334.2875603804849 L 842.9950743677734 341.0938950888182 L 829.3824049511068 347.90022979715155 Z"/></g></g><g><rect fill="white" stroke="none" x="665.0530436190951" y="365.5967000388182" width="150.8704553991797" height="21.23576429"/><text fill="black" stroke="none" font-family="sans-serif" font-size="11pt" font-style="normal" font-weight="normal" text-decoration="normal" x="667.5033241140951" y="380.2983830088182" text-anchor="start" dominant-baseline="alphabetic" xml:space="preserve">Trvchitithan</text></g><g><path fill="none" stroke="black" paint-order="fill stroke markers" d=" M 842.9950743677734 386.8324643288182 L 651.4307856532631 386.8324643288182" stroke-miterlimit="10" stroke-width="1.3612669416666667" stroke-dasharray="6.53408132"/><g transform="translate(637.9814682695965,386.8324643288182) translate(-637.9814682695965,-386.8324643288182)"><path fill="black" stroke="none" paint-order="stroke fill markers" d=" M 651.5941376862631 380.0261296204849 L 637.9814682695965 386.8324643288182 L 651.5941376862631 393.63879903715156 Z"/></g></g><g><rect fill="white" stroke="none" x="388.1101027511914" y="455.4403181888182" width="194.65713752808594" height="21.23576429"/><text fill="black" stroke="none" font-family="sans-serif" font-size="11pt" font-style="normal" font-weight="normal" text-decoration="normal" x="390.5603832461914" y="470.1420011588182" text-anchor="start" dominant-baseline="alphabetic" xml:space="preserve">Githngtinchitithan</text></g><g><path fill="none" stroke="black" paint-order="fill stroke markers" d=" M 621.6462649695964 476.6760824788182 L 362.68039544453904 476.6760824788182" stroke-miterlimit="10" stroke-width="1.3612669416666667" stroke-dasharray="6.53408132"/><g transform="translate(349.2310780608724,476.6760824788182) translate(-349.2310780608724,-476.6760824788182)"><path fill="black" stroke="none" paint-order="stroke fill markers" d=" M 362.84374747753907 469.8697477704849 L 349.2310780608724 476.6760824788182 L 362.84374747753907 483.48241718715155 Z"/></g></g><g><rect fill="white" stroke="none" x="131.58233827488934" y="501.17888742881814" width="159.57481636109375" height="21.23576429"/><text fill="black" stroke="none" font-family="sans-serif" font-size="11pt" font-style="normal" font-weight="normal" text-decoration="normal" x="134.03261876988932" y="515.8805703988181" text-anchor="start" dominant-baseline="alphabetic" xml:space="preserve">Hinthchitithan</text></g><g><path fill="none" stroke="black" paint-order="fill stroke markers" d=" M 332.8958747608724 522.4146517188182 L 103.29293553366665 522.4146517188182" stroke-miterlimit="10" stroke-width="1.3612669416666667" stroke-dasharray="6.53408132"/><g transform="translate(89.84361814999998,522.4146517188182) translate(-89.84361814999998,-522.4146517188182)"><path fill="black" stroke="none" paint-order="stroke fill markers" d=" M 103.45628756666665 515.6083170104848 L 89.84361814999998 522.4146517188182 L 103.45628756666665 529.2209864271515 Z"/></g></g><g><rect fill="white" stroke="none" x="368.56106863253905" y="591.022505578818" width="233.75520576539063" height="21.23576429"/><text fill="black" stroke="none" font-family="sans-serif" font-size="11pt" font-style="normal" font-weight="normal" text-decoration="normal" x="371.01134912753906" y="605.724188548818" text-anchor="start" dominant-baseline="alphabetic" xml:space="preserve">Thngbokhngtmthyhan</text></g><g><path fill="none" stroke="black" paint-order="fill stroke markers" d=" M 621.6462649695964 612.258269868818 L 362.68039544453904 612.258269868818" stroke-miterlimit="10" stroke-width="1.3612669416666667" stroke-dasharray="6.53408132"/><g transform="translate(349.2310780608724,612.258269868818) translate(-349.2310780608724,-612.258269868818)"><path fill="black" stroke="none" paint-order="stroke fill markers" d=" M 362.84374747753907 605.4519351604847 L 349.2310780608724 612.258269868818 L 362.84374747753907 619.0646045771514 Z"/></g></g><g><rect fill="white" stroke="none" x="140.05048555272137" y="636.761074818818" width="142.6385218054297" height="21.23576429"/><text fill="black" stroke="none" font-family="sans-serif" font-size="11pt" font-style="normal" font-weight="normal" text-decoration="normal" x="142.50076604772136" y="651.462757788818" text-anchor="start" dominant-baseline="alphabetic" xml:space="preserve">Hinththngboli</text></g><g><path fill="none" stroke="black" paint-order="fill stroke markers" d=" M 332.8958747608724 657.996839108818 L 103.29293553366665 657.996839108818" stroke-miterlimit="10" stroke-width="1.3612669416666667" stroke-dasharray="6.53408132"/><g transform="translate(89.84361814999998,657.996839108818) translate(-89.84361814999998,-657.996839108818)"><path fill="black" stroke="none" paint-order="stroke fill markers" d=" M 103.45628756666665 651.1905044004847 L 89.84361814999998 657.996839108818 L 103.45628756666665 664.8031738171513 Z"/></g></g><g><g/><path fill="none" stroke="black" paint-order="fill stroke markers" d=" M 16.33520329999999 411.3352692788182 L 686.9870781695964 411.3352692788182 L 686.9870781695964 682.499644058818 L 16.33520329999999 682.499644058818 L 16.33520329999999 411.3352692788182 Z" stroke-miterlimit="10" stroke-width="2.3336004714285714" stroke-dasharray=""/><path fill="white" stroke="black" paint-order="fill stroke markers" d=" M 16.33520329999999 411.3352692788182 L 16.33520329999999 430.9375132388182 L 62.6944068970703 430.9375132388182 L 72.4955288770703 421.1363912588182 L 72.4955288770703 411.3352692788182 L 16.33520329999999 411.3352692788182" stroke-miterlimit="10" stroke-width="2.3336004714285714" stroke-dasharray=""/><text fill="black" stroke="none" font-family="sans-serif" font-size="8.8pt" font-style="normal" font-weight="bold" text-decoration="normal" x="32.67040659999999" y="424.4034319188182" text-anchor="start" dominant-baseline="alphabetic" xml:space="preserve">alt</text><g><rect fill="white" stroke="none" x="86.3804516820703" y="412.6420855428182" width="70.73279060425781" height="16.988611432000003"/></g><text fill="black" stroke="none" font-family="sans-serif" font-size="8.8pt" font-style="normal" font-weight="bold" text-decoration="normal" x="88.8307321770703" y="424.4034319188182" text-anchor="start" dominant-baseline="alphabetic" xml:space="preserve">[Cdliu]</text><g><path fill="none" stroke="black" paint-order="fill stroke markers" d=" M 16.33520329999999 546.9174566688181 L 686.9870781695964 546.9174566688181" stroke-miterlimit="10" stroke-width="2.3336004714285714" stroke-dasharray="4.083800825"/></g><g/><g><rect fill="white" stroke="none" x="86.3804516820703" y="548.224272932818" width="109.17599739136719" height="16.988611432000003"/></g><text fill="black" stroke="none" font-family="sans-serif" font-size="8.8pt" font-style="normal" font-weight="bold" text-decoration="normal" x="88.8307321770703" y="559.9856193088181" text-anchor="start" dominant-baseline="alphabetic" xml:space="preserve">[Khngcdliu]</text></g><g/></g><g/><g/><g/><g/></g></svg>