<svg xmlns="http://www.w3.org/2000/svg" xmlns:xlink="http://www.w3.org/1999/xlink" version="1.1" width="917.9422556972656" height="830.333233923818"><desc>title%20X%C3%B3a%20h%C3%B3a%20%C4%91%C6%A1n%0A%0Abottomparticipants%0A%0Aactor%20Landlord%0Aentity%20Client%0Aentity%20Backend%0Adatabase%20Database%0A%0ALandlord%20-%3E%20Client%3A%20Ch%E1%BB%8Dn%20h%C3%B3a%20%C4%91%C6%A1n%20c%E1%BA%A7n%20x%C3%B3a%0Aactivate%20Landlord%0Aactivate%20Client%0A%0AClient%20-%3E%20Backend%3A%20G%E1%BB%ADi%20ID%20h%C3%B3a%20%C4%91%C6%A1n%20c%E1%BA%A7n%20x%C3%B3a%0Aactivate%20Backend%0A%0ABackend%20-%3E%20Backend%3A%20Ki%E1%BB%83m%20tra%20quy%E1%BB%81n%0Aalt%20Quy%E1%BB%81n%20h%E1%BB%A3p%20l%E1%BB%87%0A%20%20%20%20Backend%20-%3E%20Database%3A%20X%C3%B3a%20h%C3%B3a%20%C4%91%C6%A1n%20kh%E1%BB%8Fi%20c%C6%A1%20s%E1%BB%9F%20d%E1%BB%AF%20li%E1%BB%87u%0A%20%20%20%20Database%20--%3E%20Backend%3A%20X%C3%A1c%20nh%E1%BA%ADn%20h%C3%B3a%20%C4%91%C6%A1n%20%C4%91%C3%A3%20x%C3%B3a%0A%20%20%20%20Backend%20--%3E%20Client%3A%20Th%C3%B4ng%20b%C3%A1o%20x%C3%B3a%20th%C3%A0nh%20c%C3%B4ng%0A%20%20%20%20Client%20--%3E%20Landlord%3A%20Hi%E1%BB%83n%20th%E1%BB%8B%20th%C3%B4ng%20b%C3%A1o%20th%C3%A0nh%20c%C3%B4ng%0Aelse%20Quy%E1%BB%81n%20kh%C3%B4ng%20h%E1%BB%A3p%20l%E1%BB%87%0A%20%20%20%20Backend%20--%3E%20Client%3A%20Th%C3%B4ng%20b%C3%A1o%20l%E1%BB%97i%20quy%E1%BB%81n%20truy%20c%E1%BA%ADp%0A%20%20%20%20Client%20--%3E%20Landlord%3A%20Hi%E1%BB%83n%20th%E1%BB%8B%20th%C3%B4ng%20b%C3%A1o%20th%E1%BA%A5t%20b%E1%BA%A1i%0Aend%0A%0Adeactivate%20Backend%0Adeactivate%20Client%0Adeactivate%20Landlord%0A</desc><defs/><g><g/><g/><g/><g/><g/><g/><g/><g/><g/><g/><g/><g/><g/><g/><g/><g/><g/><g/><g/><g/><g/><g/><g/><g/><g/><g/><g/><g/><g/><g/><g/><g/><g/><g/><g/><g/><g/><g/><g/><g/><g/><g/><g/><g/><g/><g/><g/><g/><g/><g/><g/><g/><g/><g/><g/><g/><g/><g/><g/><g/><g/><g/><g/><g/><g/><g/><g/><g/><g/><g/><g/><g/><g/><g/><g/><g/><g/><g/><g/><g/><g/><g/><g/><g/><g/><g/><g/><g/><g/><g/><g/><g/><g/><g/><g/><g/><g/><g/><g/><g/><g/><g/><g/><g/><g/><g/><g/><g/><g><rect fill="white" stroke="none" x="0" y="0" width="917" height="830"/></g><g/><g><path fill="none" stroke="black" paint-order="fill stroke markers" d=" M 81.67601649999999 128.73625218881818 L 81.67601649999999 739.672855608818" stroke-miterlimit="10" stroke-width="1.3612669416666667" stroke-dasharray="12.565541,5.445067766666667"/><path fill="none" stroke="black" paint-order="fill stroke markers" d=" M 337.1908872995442 128.73625218881818 L 337.1908872995442 739.672855608818" stroke-miterlimit="10" stroke-width="1.3612669416666667" stroke-dasharray="12.565541,5.445067766666667"/><path fill="none" stroke="black" paint-order="fill stroke markers" d=" M 586.163155560026 128.73625218881818 L 586.163155560026 739.672855608818" stroke-miterlimit="10" stroke-width="1.3612669416666667" stroke-dasharray="12.565541,5.445067766666667"/><path fill="none" stroke="black" paint-order="fill stroke markers" d=" M 844.4338408472656 128.73625218881818 L 844.4338408472656 739.672855608818" stroke-miterlimit="10" stroke-width="1.3612669416666667" stroke-dasharray="12.565541,5.445067766666667"/></g><g><g><path fill="white" stroke="black" paint-order="fill stroke markers" d=" M 90.987082381 59.63834222981819 A 9.311065881 9.311065881 0 1 1 90.98707772546743 59.62903116548903 M 81.67601649999999 68.9494081108182 L 81.67601649999999 88.8783561368182 M 69.914670124 76.13689756281819 L 93.43736287599998 76.13689756281819 M 81.67601649999999 88.8783561368182 L 69.914670124 107.50048789881819 M 81.67601649999999 88.8783561368182 L 93.43736287599998 107.50048789881819" stroke-miterlimit="10" stroke-width="2.7769845610000004" stroke-dasharray=""/></g><g><g/><text fill="black" stroke="none" font-family="sans-serif" font-size="11pt" font-style="normal" font-weight="normal" text-decoration="normal" x="53.1470400595703" y="123.83569119881818" text-anchor="start" dominant-baseline="alphabetic" xml:space="preserve">Landlord</text></g><g><path fill="white" stroke="black" paint-order="fill stroke markers" d=" M 361.4486642000442 79.63263106901819 A 24.2577769005 24.2577769005 0 1 1 361.4486520711568 79.60837329616064 M 311.54461811854424 106.11199561831819 L 362.8371564805442 106.11199561831819" stroke-miterlimit="10" stroke-width="2.7769845610000004" stroke-dasharray=""/></g><g><g/><text fill="black" stroke="none" font-family="sans-serif" font-size="11pt" font-style="normal" font-weight="normal" text-decoration="normal" x="318.45073684788406" y="123.83569119881818" text-anchor="start" dominant-baseline="alphabetic" xml:space="preserve">Client</text></g><g><path fill="white" stroke="black" paint-order="fill stroke markers" d=" M 610.4209324605259 79.63263106901819 A 24.2577769005 24.2577769005 0 1 1 610.4209203316385 79.60837329616064 M 560.516886379026 106.11199561831819 L 611.809424741026 106.11199561831819" stroke-miterlimit="10" stroke-width="2.7769845610000004" stroke-dasharray=""/></g><g><g/><text fill="black" stroke="none" font-family="sans-serif" font-size="11pt" font-style="normal" font-weight="normal" text-decoration="normal" x="557.6377573056315" y="123.83569119881818" text-anchor="start" dominant-baseline="alphabetic" xml:space="preserve">Backend</text></g><g><path fill="white" stroke="black" paint-order="fill stroke markers" d=" M 820.5844440292657 96.71925372081819 L 820.5844440292657 62.41532679081819 L 868.2832376652656 62.41532679081819 L 868.2832376652656 96.71925372081819" stroke-miterlimit="10" stroke-width="2.7769845610000004" stroke-dasharray=""/><path fill="white" stroke="black" paint-order="fill stroke markers" d=" M 868.2832376652656 61.22285694991819 L 868.2820452053619 61.33066749483481 L 868.2784679448959 61.43846725878678 L 868.2725062415906 61.546245461887544 L 868.2641606916112 61.65399132640659 L 868.253432129506 61.761694077847274 L 868.2403216281222 61.86934294602419 L 868.2248304984989 61.976927166140236 L 868.2069602897363 62.084435979863045 L 868.1867127888403 62.19185863640084 L 868.1640900205441 62.299184393577484 L 868.1390942471057 62.4064025189067 L 868.1117279680817 62.51350229066531 L 868.0819939200771 62.62047299896537 L 868.049895076472 62.7273039468252 L 868.0154346471239 62.83398445123905 L 867.9786160780471 62.94050384424536 L 867.9394430510678 63.04685147399361 L 867.897919483456 63.15301670580944 L 867.854049527534 63.25898892325815 L 867.8078375702606 63.364757529206294 L 867.7592882327933 63.47031194688142 L 867.7084063700253 63.575641620929716 L 867.6551970701004 63.68073601847156 L 867.5996656539041 63.78558463015478 L 867.5418176745321 63.89017697120557 L 867.481658916734 63.994502582477 L 867.4191953963353 64.09855103149486 L 867.3544333596361 64.20231191350096 L 867.2873792827861 64.3057748524936 L 867.2180398711372 64.40892950226505 L 867.1464220585725 64.51176554743633 L 867.0725330068138 64.61427270448858 L 866.9963801047048 64.71644072279157 L 866.917970967472 64.81825938562858 L 866.8373134359639 64.91971851121816 L 866.7544155758665 65.02080795373233 L 866.6692856768966 65.12151760431107 L 866.5819322519732 65.22183739207324 L 866.492364036366 65.32175728512367 L 866.400589986822 65.42126729155632 L 866.3066192806696 65.52035746045347 L 866.210461314901 65.6190178828808 L 866.1121257052329 65.71723869287828 L 866.0116222851441 65.81501006844678 L 865.9089611048929 65.91232223253022 L 865.8041524305119 66.00916545399325 L 865.697206742781 66.10553004859446 L 865.58813473618 66.20140637995469 L 865.4769473178187 66.29678486052069 L 865.3636556063461 66.39165595252388 L 865.2482709308392 66.48601016893414 L 865.1308048296692 66.57983807440844 L 865.0112690493482 66.67313028623443 L 864.889675543355 66.76587747526865 L 864.7660364709386 66.85807036686953 L 864.6403641959032 66.94969974182469 L 864.5126712853718 67.04075643727302 L 864.3829705085287 67.13123134762085 L 864.2512748353438 67.22111542545254 L 864.1175974352745 67.3103996824352 L 863.9819516759496 67.39907519021754 L 863.8443511218318 67.4871330813227 L 863.7048095328619 67.57456455003492 L 863.5633408630825 67.6613608532802 L 863.4199592592428 67.74751331150055 L 863.2746790593836 67.83301330952195 L 863.1275147914038 67.91785229741582 L 862.9784811716077 68.00202179135408 L 862.8275931032327 68.08551337445749 L 862.6748656749604 68.1683186976373 L 862.5203141594061 68.25042948043021 L 862.3639540115927 68.33183751182635 L 862.2058008674044 68.41253465109044 L 862.0458705420241 68.4925128285758 L 861.8841790283509 68.5717640465313 L 861.7207424954016 68.65028037990122 L 861.555577286693 68.72805397711764 L 861.3886999186087 68.80507706088565 L 861.2201270787463 68.88134192896105 L 861.0498756242491 68.95684095492061 L 860.877962580121 69.03156658892462 L 860.7044051375229 69.10551135847197 L 860.5292206520546 69.17866786914732 L 860.3524266420186 69.25102880536058 L 860.1740407866686 69.3225869310784 L 859.9940809244413 69.39333509054786 L 859.8125650511732 69.46326620901198 L 859.6295113183003 69.53237329341717 L 859.4449380310433 69.60064943311258 L 859.2588636465771 69.66808780054113 L 859.0713067721852 69.7346816519223 L 858.8822861633985 69.80042432792644 L 858.6918207221206 69.86530925434072 L 858.4999294947368 69.92932994272657 L 858.30663167021 69.9924799910685 L 858.1119465781615 70.05475308441433 L 857.9158936869383 70.1161429955066 L 857.7184926016661 70.17664358540536 L 857.519763062289 70.23624880410202 L 857.3197249415953 70.29495269112441 L 857.1183982432303 70.35274937613272 L 856.9158030996963 70.40963307950663 L 856.7119597703385 70.46559811292322 L 856.5068886393202 70.52063887992576 L 856.3006102135835 70.57474987648341 L 856.0931451207991 70.62792569154163 L 855.8845141073034 70.68016100756323 L 855.674738036024 70.73145060106012 L 855.463837884393 70.78178934311569 L 855.2518347422499 70.8311721998977 L 855.0387498097323 70.8795942331616 L 854.8246043951559 70.92705060074444 L 854.6094199128836 70.973536557049 L 854.3932178811843 71.01904745351838 L 854.1760199200812 71.06357873910088 L 853.9578477491892 71.10712596070502 L 853.7387231855437 71.14968476364494 L 853.5186681414183 71.19125089207583 L 853.2977046221342 71.23182018941947 L 853.0758547238593 71.27138859877994 L 852.8531406313982 71.30995216334925 L 852.6295846159747 71.34750702680313 L 852.4052090330043 71.38404943368649 L 852.180036319858 71.4195757297891 L 851.9540889936196 71.45408236251096 L 851.7273896488334 71.48756588121756 L 851.499960955245 71.52002293758491 L 851.2718256555341 71.55145028593446 L 851.0430065630409 71.58184478355753 L 850.8135265594835 71.61120339102969 L 850.5834085926715 71.63952317251467 L 850.3526756742094 71.66680129605793 L 850.1213508771971 71.69303503386982 L 849.8894573339212 71.71822176259843 L 849.6570182335431 71.7423589635919 L 849.424056819779 71.7654442231502 L 849.1905963885761 71.78747523276665 L 848.9566602857831 71.80844978935863 L 848.7222719048151 71.82836579548797 L 848.4874546843151 71.84722125957065 L 848.2522321058095 71.86501429607597 L 848.0166276913599 71.8817431257151 L 847.7806650012116 71.89740607561903 L 847.5443676314369 71.91200157950583 L 847.3077592115759 71.92552817783725 L 847.0708634022733 71.93798451796474 L 846.8337038929128 71.94936935426468 L 846.5963043992476 71.95968154826289 L 846.3586886610292 71.96892006874862 L 846.1208804396335 71.97708399187748 L 845.8829035156845 71.98417250126396 L 845.6447816866761 71.99018488806304 L 845.4065387645929 71.99512055104105 L 845.1681985735286 71.99897899663581 L 844.9297849473036 72.00175983900598 L 844.6913217270818 72.00346280006961 L 844.4528327589867 72.00408770953204 L 844.2143418917161 72.00363450490285 L 843.9758729741583 72.0021032315021 L 843.7374498530061 71.99949404245586 L 843.4990963703731 71.9958071986809 L 843.2608363614087 71.99104306885846 L 843.0226936519155 71.98520212939759 L 842.7846920559658 71.97828496438737 L 842.546855373521 71.97029226553852 L 842.309207388051 71.96122483211428 L 842.0717718641565 71.95108357085043 L 841.8345725451918 71.93986949586466 L 841.5976331508914 71.92758372855508 L 841.3609773749971 71.91422749748824 L 841.1246288828893 71.89980213827607 L 840.8886113092202 71.8843090934425 L 840.6529482555507 71.86774991227908 L 840.4176632879895 71.85012625069015 L 840.1827799348375 71.83143987102717 L 839.9483216842342 71.81169264191253 L 839.7143119818094 71.79088653805269 L 839.480774228338 71.7690236400407 L 839.2477317774011 71.74610613414815 L 839.0152079330494 71.72213631210651 L 838.7832259474735 71.69711657087802 L 838.5518090186789 71.67104941241597 L 838.3209802881654 71.64393744341446 L 838.0907628386138 71.6157833750478 L 837.8611796915773 71.58659002269937 L 837.632253805179 71.55636030568009 L 837.404008071817 71.52509724693644 L 837.1764653158743 71.49280397274828 L 836.949648291437 71.45948371241609 L 836.7235796800186 71.42513979793813 L 836.4982820882916 71.38977566367726 L 836.2737780458275 71.35339484601741 L 836.0500900028436 71.31600098301004 L 835.8272403279577 71.27759781401028 L 835.6052513059516 71.23818917930303 L 835.3841451355426 71.19777901971894 L 835.1639439271631 71.15637137624027 L 834.944669700751 71.11397038959687 L 834.7263443835458 71.07058029985207 L 834.5089898078974 71.02620544597868 L 834.2926277090824 70.98085026542512 L 834.07727972313 70.93451929367163 L 833.8629673846598 70.8872171637768 L 833.6497121247266 70.8389486059142 L 833.4375352686792 70.78971844689937 L 833.2264580340259 70.7395316097072 L 833.0165015283145 70.6883931129796 L 832.8076867470206 70.6363080705236 L 832.6000345714483 70.58328169080006 L 832.3935657666422 70.52931927640276 L 832.1883009793105 70.47442622352818 L 831.984260735761 70.41860802143584 L 831.781465439848 70.36187025189946 L 831.5799353709323 70.3042185886487 L 831.3796906818526 70.24565879680183 L 831.180751396911 70.18619673228926 L 830.9831374098702 70.12583834126788 L 830.7868684819643 70.06458965952649 L 830.5919642399225 70.00245681188221 L 830.3984441740066 69.93944601156807 L 830.2063276360618 69.87556355961155 L 830.0156338375821 69.81081584420461 L 829.8263818477881 69.74520934006487 L 829.6385905917211 69.67875060778805 L 829.4522788483505 69.61144629319199 L 829.2674652486951 69.54330312665208 L 829.084168273961 69.47432792242817 L 828.9024062536928 69.40452757798322 L 828.7221973639413 69.3339090732935 L 828.543559625445 69.26247947015062 L 828.3665109018291 69.19024591145539 L 828.1910688978182 69.11721562050347 L 828.0172511574668 69.0433959002631 L 827.8450750624039 68.96879413264479 L 827.6745578300955 68.89341777776313 L 827.505716512123 68.81727437319081 L 827.338567992477 68.74037153320482 L 827.1731289858707 68.66271694802508 L 827.0094160360665 68.58431838304537 L 826.8474455142232 68.5051836780569 L 826.6872336172579 68.4253207464642 L 826.5287963662267 68.34473757449386 L 826.372149604723 68.26344222039596 L 826.2173089972921 68.18144281363814 L 826.0642900278658 68.09874755409275 L 825.9131079982135 68.01536471121685 L 825.7637780264122 67.9313026232252 L 825.6163150453347 67.84656969625658 L 825.4707338011561 67.76117440353308 L 825.3270488518797 67.67512528451279 L 825.1852745658805 67.5884309440359 L 825.0454251204691 67.50110005146425 L 824.9075145004733 67.41314133981427 L 824.7715564968403 67.32456360488388 L 824.6375647052572 67.23537570437271 L 824.5055525247915 67.14558655699653 L 824.3755331565511 67.05520514159522 L 824.2475196023646 66.96424049623502 L 824.1215246634807 66.87270171730466 L 823.9975609392884 66.78059795860575 L 823.8756408260567 66.68793843043741 L 823.7557765156953 66.59473239867523 L 823.6379799945354 66.50098918384472 L 823.5222630421309 66.40671816018926 L 823.4086372300807 66.31192875473263 L 823.2971139208713 66.2166304463364 L 823.1877042667406 66.120832764752 L 823.080419208563 66.02454528966774 L 822.9752694747547 65.92777764975091 L 822.8722655802017 65.83053952168484 L 822.7714178252073 65.73284062920132 L 822.6727362944632 65.63469074210818 L 822.5762308560403 65.53609967531233 L 822.4819111604019 65.4370772878383 L 822.3897866394389 65.33763348184232 L 822.2998665055267 65.23777820162212 L 822.2121597506037 65.13752143262249 L 822.1266751452724 65.03687320043682 L 822.0434212379222 64.93584356980442 L 821.9624063538741 64.83444264360419 L 821.8836385945493 64.73268056184422 L 821.8071258366581 64.63056750064791 L 821.7328757314123 64.52811367123628 L 821.6608957037607 64.42532931890689 L 821.591192951646 64.32222472200931 L 821.5237744452855 64.21881019091732 L 821.4586469264735 64.11509606699785 L 821.3958169079076 64.01109272157687 L 821.3352906725374 63.90681055490224 L 821.2770742729359 63.80225999510374 L 821.2211735306947 63.697451497150205 L 821.1675940358413 63.59239554180411 L 821.1163411462804 63.48710263457343 L 821.0674199872586 63.381583304661156 L 821.0208354508508 63.27584810391234 L 820.9765921954719 63.16990760575894 L 820.9346946454104 63.06377240416249 L 820.8951469903867 62.95745311255472 L 820.857953185133 62.85096036277616 L 820.8231169489992 62.744304804013076 L 820.7906417655795 62.63749710173245 L 820.7605308823655 62.530547936615505 L 820.7327873104202 62.423468003489624 L 820.7074138240779 62.316268010258895 L 820.6844129606659 62.208958676833305 L 820.6637870202514 62.10155073405677 L 820.6455380654113 61.99405492263407 L 820.6296679210259 61.88648199205676 L 820.6161781740964 61.77884269952825 L 820.6050701735861 61.6711478088881 L 820.5963450302861 61.56340808953563 L 820.5900036167031 61.45563431535299 L 820.5860465669736 61.34783726362778 L 820.5844742767988 61.24002771397536 L 820.5852869034068 61.13221644726084 L 820.5884843655354 61.02441424452105 L 820.594066343441 60.916631885886424 L 820.6020322789307 60.808880149503025 L 820.6123813754174 60.70116981045468 L 820.6251125980002 60.59351163968555 L 820.6402246735673 60.48591640292299 L 820.6577160909239 60.378394859601016 L 820.6775851009427 60.27095776178435 L 820.6998297167394 60.163615853093255 L 820.7244477138709 60.05637986762915 L 820.7514366305578 59.949260528901206 L 820.7807937679312 59.84226854875404 L 820.8125161903017 59.7354146262965 L 820.8466007254536 59.62870944683179 L 820.8830439649616 59.52216368078894 L 820.9218422645324 59.41578798265577 L 820.9629917443681 59.30959298991343 L 821.0064882895551 59.203589321972714 L 821.0523275504752 59.09778757911208 L 821.1005049432404 58.992198341417634 L 821.1510156501516 58.88683216772516 L 821.2038546201802 58.78169959456423 L 821.2590165694734 58.67681113510454 L 821.316495981882 58.57217727810464 L 821.3762871095128 58.46780848686303 L 821.4383839733026 58.36371519817185 L 821.5027803636171 58.25990782127324 L 821.569469840871 58.15639673681838 L 821.6384457361718 58.053192295829454 L 821.7097011519876 57.950304818664556 L 821.7832289628362 57.84774459398567 L 821.8590218159978 57.745521877729786 L 821.9370721322503 57.64364689208335 L 822.017372106627 57.54212982446004 L 822.0999137091974 57.44098082648201 L 822.1846886858701 57.340210012964775 L 822.2716885592181 57.2398274609057 L 822.3609046293265 57.13984320847635 L 822.4523279746626 57.040267254018644 L 822.5459494529681 56.94110955504505 L 822.6417597021731 56.84238002724283 L 822.7397491413327 56.74408854348249 L 822.8399079715846 56.646244932830506 L 822.9422261771291 56.54885897956639 L 823.0466935262309 56.45194042220433 L 823.1532995722424 56.35549895251929 L 823.2620336546477 56.25954421457787 L 823.372884900129 56.16408580377391 L 823.4858422236543 56.06913326586893 L 823.6008943295855 55.974696096037604 L 823.7180297128076 55.88078373791821 L 823.83723665988 55.7874055826683 L 823.9585032502074 55.694570968025594 L 824.0818173572318 55.60228917737418 L 824.2071666496453 55.51056943881623 L 824.334538592623 55.41942092424918 L 824.4639204490768 55.328852748448504 L 824.5952992809289 55.23887396815633 L 824.7286619504055 55.14949358117568 L 824.8639951213509 55.0607205254708 L 825.0012852605607 54.97256367827326 L 825.1405186391355 54.88503185519433 L 825.2816813338534 54.79813380934336 L 825.4247592285625 54.71187823045254 L 825.5697380155926 54.62627374400786 L 825.7166031971859 54.541328910386646 L 825.8653400869466 54.45705222400146 L 826.0159338113095 54.373452112450714 L 826.168369311028 54.290536935675895 L 826.3226313426787 54.20831498512558 L 826.4787044801874 54.12679448292632 L 826.6365731163702 54.0459835810604 L 826.7962214644951 53.965890360550645 L 826.9576335598603 53.88652283065238 L 827.1207932613908 53.80788892805245 L 827.2856842532523 53.72999651607559 L 827.4522900464832 53.652853383898076 L 827.620593980643 53.57646724576885 L 827.7905792254783 53.50084574023808 L 827.9622287826065 53.42599642939328 L 828.135525487215 53.35192679810317 L 828.3104520097775 53.278644253269164 L 828.4869908577876 53.20615612308466 L 828.6651243775077 53.13446965630228 L 828.8448347557343 53.06359202150896 L 829.0261040215792 52.99353030640911 L 829.2089140482668 52.924291517115876 L 829.393246554947 52.85588257745046 L 829.5790831085228 52.78831032824984 L 829.7664051254934 52.72158152668263 L 829.9551938738133 52.65570284557336 L 830.1454304747651 52.590680872735255 L 830.3370959048473 52.52652211031142 L 830.5301709976764 52.463232974124615 L 830.724636445904 52.40081979303573 L 830.9204728031476 52.33928880831086 L 831.1176604859344 52.278646172997206 L 831.3161797756607 52.21889795130775 L 831.5160108205627 52.160050118014894 L 831.7171336377024 52.1021085578529 L 831.919528114966 52.045079064929524 L 832.1231740130744 51.98896734214652 L 832.3280509676072 51.933779000629414 L 832.5341384910398 51.87951955916637 L 832.7414159747917 51.826194443656306 L 832.9498626912872 51.77380898656634 L 833.1594577960284 51.72236842639853 L 833.3701803296793 51.67187790716602 L 833.5820092201624 51.622342477878675 L 833.794923284765 51.57376709203812 L 834.0089012322582 51.526156607142475 L 834.2239216650254 51.47951578420055 L 834.4399630812026 51.43384928725578 L 834.6570038768281 51.38916168291979 L 834.8750223480034 51.34545743991578 L 835.093996693063 51.302740928631636 L 835.3139050147547 51.261016420682886 L 835.53472532243 51.220288088485546 L 835.7564355342416 51.18056000483891 L 835.9790134793535 51.14183614251822 L 836.2024369001565 51.10412037387746 L 836.4266834544947 51.06741647046204 L 836.6517307178996 51.03172810263173 L 836.8775561858323 50.99705883919358 L 837.1041372759344 50.96341214704502 L 837.3314513302855 50.930791390827245 L 837.5594756176696 50.899199832588685 L 837.7881873358481 50.86864063145883 L 838.0175636138397 50.83911684333235 L 838.2475815142078 50.81063142056343 L 838.478218035354 50.78318721167063 L 838.7094501138183 50.75678696105195 L 838.9412546265856 50.731433308710464 L 839.173608393398 50.70712878999027 L 839.4064881790722 50.683875835323 L 839.6398706958238 50.66167676998473 L 839.8737326055956 50.6405338138635 L 840.1080505223914 50.6204490812373 L 840.3428010146149 50.60142458056266 L 840.5779606074125 50.583462214273794 L 840.8135057850209 50.566563778592354 L 841.0494129931185 50.55073096334783 L 841.2856586411813 50.53596535180856 L 841.522219104841 50.52226842052339 L 841.7590707282488 50.50964153917403 L 841.9961898264395 50.49808597043808 L 842.2335526877009 50.48760286986282 L 842.4711355759447 50.47819328574954 L 842.70891473308 50.46985815904882 L 842.9468663813893 50.462598323266384 L 843.1849667259061 50.456414504379765 L 843.4231919567942 50.45130732076569 L 843.6615182517293 50.44727728313828 L 843.8999217782803 50.444324794497916 L 844.1383786962931 50.44245015009101 L 844.376865160275 50.44165353738045 L 844.615357321778 50.44193503602685 L 844.8538313317848 50.443294617880554 L 845.0922633430932 50.445732146984525 L 845.3306295127007 50.44924737958788 L 845.568906004189 50.45383996417029 L 845.8070689901075 50.459509441477124 L 846.045094654356 50.46625524456538 L 846.2829591945665 50.474076698860365 L 846.5206388244832 50.48297302222316 L 846.7581097763413 50.49294332502887 L 846.9953483032432 50.50398661025549 L 847.2323306815341 50.51610177358371 L 847.4690332131737 50.52928760350731 L 847.705432228106 50.54354278145426 L 847.9415040866267 50.55886588191867 L 848.1772251817463 50.575255372603245 L 848.412571941552 50.592709614572584 L 848.6475208315638 50.61122686241703 L 848.8820483570886 50.630805264427224 L 849.1161310655693 50.651442862779284 L 849.3497455489301 50.67313759373059 L 849.5828684459171 50.695887287826096 L 849.8154764444353 50.71968967011537 L 850.0475462838783 50.74454236038002 L 850.2790547574558 50.77044287337172 L 850.5099787145133 50.797388619060754 L 850.7402950628475 50.825376902895016 L 850.9699807710155 50.85440492606945 L 851.1990128706378 50.88446978580591 L 851.4273684586955 50.9155684756435 L 851.6550246998199 50.947697885739125 L 851.8819588285767 50.980854803178566 L 852.1081481517421 51.01503591229771 L 852.3335700505723 51.05023779501413 L 852.5582019830653 51.08645693116888 L 852.782021486215 51.12368969887854 L 853.0050061782575 51.16193237489736 L 853.2271337609095 51.201181134989596 L 853.448382021598 51.241432054311964 L 853.6687288356811 51.28268110780607 L 853.888152168661 51.32492417060092 L 854.1066300783874 51.368157018425464 L 854.3241407172513 51.41237532803093 L 854.5406623343702 51.45757467762322 L 854.7561732777625 51.503750547305025 L 854.9706519965138 51.55089831952786 L 855.1840770429308 51.5990132795538 L 855.3964270746867 51.64809061592693 L 855.6076808569554 51.69812542095451 L 855.8178172645346 51.749112691197745 L 856.0268152839586 51.801047327972086 L 856.2346540155999 51.85392413785714 L 856.4413126757581 51.90773783321599 L 856.6467705987399 51.962483032723924 L 856.8510072389238 52.01815426190663 L 857.0540021728161 52.07474595368758 L 857.2557351010927 52.132252448944755 L 857.4561858506288 52.190667997076545 L 857.6553343765164 52.24998675657682 L 857.853160764069 52.310202795619055 L 858.0496452308126 52.371310092649544 L 858.2447681284644 52.43330253698949 L 858.4385099448972 52.49617392944612 L 858.6308513060906 52.559917982932596 L 858.821772978069 52.62452832309667 L 859.0112558688242 52.68999848895818 L 859.199281030225 52.7563219335551 L 859.3858296599121 52.823492024598224 L 859.5708831031778 52.89150204513444 L 859.7544228548321 52.960345194218355 L 859.9364305610528 53.03001458759244 L 860.1168880212209 53.10050325837541 L 860.2957771897408 53.171804157758935 L 860.4730801778445 53.243910155712484 L 860.6487792553813 53.31681404169635 L 860.8228568525897 53.39050852538269 L 860.995295561855 53.46498623738456 L 861.16607813945 53.5402397299928 L 861.3351875072592 53.61626147792087 L 861.5026067544868 53.69304387905734 L 861.6683191393477 53.770579255226075 L 861.8323080907413 53.848859852954064 L 861.9945572099093 53.92787784424677 L 862.155050272075 54.00762532737092 L 862.3137712280658 54.08809432764465 L 862.4707042059183 54.16927679823499 L 862.6258335124656 54.251164620962534 L 862.7791436349065 54.33374960711325 L 862.9306192423562 54.41702349825734 L 863.0802451873803 54.500977967075094 L 863.2280065075091 54.58560461818958 L 863.3738884267336 54.670894989006214 L 863.5178763569835 54.75684055055899 L 863.6599558995857 54.84343270836337 L 863.8001128467045 54.93066280327574 L 863.9383331827617 55.0185221123593 L 864.074603085839 55.107001849756344 L 864.2089089290598 55.196093167566886 L 864.3412372819516 55.28578715673337 L 864.4715749117893 55.37607484793163 L 864.5999087849186 55.46694721246779 L 864.7262260680593 55.55839516318112 L 864.850514129588 55.65040955535275 L 864.9727605408024 55.742981187620146 L 865.0929530771631 55.83610080289723 L 865.2110797195168 55.92975908930006 L 865.3271286552974 56.02394668107806 L 865.4410882797083 56.11865415955053 L 865.552947196882 56.213872054048544 L 865.6626942210198 56.30959084286201 L 865.770318377511 56.405800954191804 L 865.8758089040294 56.50249276710697 L 865.9791552516105 56.5996566125068 L 866.0803470857054 56.69728277408771 L 866.1793742872153 56.79536148931491 L 866.2762269535023 56.89388295039859 L 866.3708953993806 56.99283730527477 L 866.4633701580846 57.09221465859041 L 866.5536419822154 57.19200507269298 L 866.6417018446657 57.29219856862425 L 866.7275409395228 57.39278512711811 L 866.8111506829488 57.49375468960253 L 866.8925227140387 57.59509715920541 L 866.9716488956576 57.69680240176424 L 867.0485213152531 57.79886024683951 L 867.1231322856472 57.90126048873177 L 867.1954743458052 58.003992887502164 L 867.2655402615815 58.10704716999642 L 867.3333230264425 58.21041303087217 L 867.3988158621685 58.31408013362946 L 867.4620122195304 58.41803811164441 L 867.5229057789451 58.52227656920584 L 867.5814904511075 58.62678508255487 L 867.6377603775991 58.731553200927245 L 867.6917099314743 58.83657044759845 L 867.7433337178226 58.94182632093131 L 867.7926265743082 59.04731029542622 L 867.8395835716868 59.153011822773635 L 867.8842000142977 59.25892033290889 L 867.9264714405338 59.36502523506925 L 867.9663936232876 59.471315918852895 L 868.0039625703743 59.57778175528004 L 868.0391745249302 59.684412097855756 L 868.0720259657896 59.79119628363465 L 868.1025136078355 59.89812363428712 L 868.1306344023292 60.005183457167206 L 868.1563855372145 60.11236504638185 L 868.1797644373997 60.21965768386144 L 868.200768765014 60.327050640431644 L 868.2193964196423 60.43453317688629 L 868.2356455385345 60.5420945450613 L 868.2495144967925 60.6497239889095 L 868.2610019075317 60.757410745576195 L 868.2701066220209 60.86514404647545 L 868.2768277297961 60.972913118366954 L 868.281164558752 61.08070718443333 L 868.2831166752096 61.188515465357796 M 868.2832376652656 95.52678387991818 L 868.2820452053619 95.6345944248348 L 868.2784679448959 95.74239418878678 L 868.2725062415906 95.85017239188754 L 868.2641606916112 95.95791825640659 L 868.253432129506 96.06562100784727 L 868.2403216281222 96.1732698760242 L 868.2248304984989 96.28085409614023 L 868.2069602897363 96.38836290986303 L 868.1867127888403 96.49578556640084 L 868.1640900205441 96.60311132357748 L 868.1390942471057 96.7103294489067 L 868.1117279680817 96.8174292206653 L 868.0819939200771 96.92439992896537 L 868.049895076472 97.0312308768252 L 868.0154346471239 97.13791138123905 L 867.9786160780471 97.24443077424536 L 867.9394430510678 97.35077840399362 L 867.897919483456 97.45694363580944 L 867.854049527534 97.56291585325815 L 867.8078375702606 97.66868445920629 L 867.7592882327933 97.77423887688141 L 867.7084063700253 97.8795685509297 L 867.6551970701004 97.98466294847155 L 867.5996656539041 98.08951156015478 L 867.5418176745321 98.19410390120557 L 867.481658916734 98.29842951247699 L 867.4191953963353 98.40247796149485 L 867.3544333596361 98.50623884350097 L 867.2873792827861 98.60970178249359 L 867.2180398711372 98.71285643226504 L 867.1464220585725 98.81569247743631 L 867.0725330068138 98.91819963448859 L 866.9963801047048 99.02036765279156 L 866.917970967472 99.12218631562857 L 866.8373134359639 99.22364544121817 L 866.7544155758665 99.32473488373233 L 866.6692856768966 99.42544453431107 L 866.5819322519732 99.52576432207324 L 866.492364036366 99.62568421512367 L 866.400589986822 99.72519422155631 L 866.3066192806696 99.82428439045346 L 866.210461314901 99.92294481288079 L 866.1121257052329 100.02116562287829 L 866.0116222851441 100.11893699844678 L 865.9089611048929 100.2162491625302 L 865.8041524305119 100.31309238399325 L 865.697206742781 100.40945697859446 L 865.58813473618 100.50533330995468 L 865.4769473178187 100.60071179052068 L 865.3636556063461 100.69558288252388 L 865.2482709308392 100.78993709893413 L 865.1308048296692 100.88376500440843 L 865.0112690493482 100.97705721623441 L 864.889675543355 101.06980440526866 L 864.7660364709386 101.16199729686952 L 864.6403641959032 101.25362667182469 L 864.5126712853718 101.34468336727302 L 864.3829705085287 101.43515827762084 L 864.2512748353438 101.52504235545253 L 864.1175974352745 101.61432661243519 L 863.9819516759496 101.70300212021755 L 863.8443511218318 101.7910600113227 L 863.7048095328619 101.87849148003492 L 863.5633408630825 101.9652877832802 L 863.4199592592428 102.05144024150056 L 863.2746790593836 102.13694023952193 L 863.1275147914038 102.22177922741581 L 862.9784811716077 102.30594872135407 L 862.8275931032327 102.38944030445748 L 862.6748656749604 102.47224562763729 L 862.5203141594061 102.5543564104302 L 862.3639540115927 102.63576444182635 L 862.2058008674044 102.71646158109044 L 862.0458705420241 102.79643975857579 L 861.8841790283509 102.8756909765313 L 861.7207424954016 102.95420730990122 L 861.555577286693 103.03198090711763 L 861.3886999186087 103.10900399088564 L 861.2201270787463 103.18526885896105 L 861.0498756242491 103.2607678849206 L 860.877962580121 103.33549351892461 L 860.7044051375229 103.40943828847196 L 860.5292206520546 103.48259479914732 L 860.3524266420186 103.55495573536056 L 860.1740407866686 103.6265138610784 L 859.9940809244413 103.69726202054787 L 859.8125650511732 103.76719313901197 L 859.6295113183003 103.83630022341715 L 859.4449380310433 103.90457636311257 L 859.2588636465771 103.97201473054113 L 859.0713067721852 104.03860858192229 L 858.8822861633985 104.10435125792642 L 858.6918207221206 104.1692361843407 L 858.4999294947368 104.23325687272656 L 858.30663167021 104.29640692106851 L 858.1119465781615 104.35868001441433 L 857.9158936869383 104.4200699255066 L 857.7184926016661 104.48057051540535 L 857.519763062289 104.54017573410202 L 857.3197249415953 104.5988796211244 L 857.1183982432303 104.65667630613272 L 856.9158030996963 104.71356000950664 L 856.7119597703385 104.7695250429232 L 856.5068886393202 104.82456580992574 L 856.3006102135835 104.87867680648341 L 856.0931451207991 104.93185262154162 L 855.8845141073034 104.98408793756322 L 855.674738036024 105.0353775310601 L 855.463837884393 105.08571627311568 L 855.2518347422499 105.13509912989768 L 855.0387498097323 105.1835211631616 L 854.8246043951559 105.23097753074444 L 854.6094199128836 105.27746348704899 L 854.3932178811843 105.32297438351839 L 854.1760199200812 105.36750566910086 L 853.9578477491892 105.41105289070501 L 853.7387231855437 105.45361169364494 L 853.5186681414183 105.49517782207583 L 853.2977046221342 105.53574711941947 L 853.0758547238593 105.57531552877992 L 852.8531406313982 105.61387909334925 L 852.6295846159747 105.65143395680312 L 852.4052090330043 105.68797636368647 L 852.180036319858 105.72350265978909 L 851.9540889936196 105.75800929251095 L 851.7273896488334 105.79149281121755 L 851.499960955245 105.82394986758491 L 851.2718256555341 105.85537721593445 L 851.0430065630409 105.88577171355752 L 850.8135265594835 105.9151303210297 L 850.5834085926715 105.94345010251467 L 850.3526756742094 105.97072822605791 L 850.1213508771971 105.99696196386981 L 849.8894573339212 106.02214869259844 L 849.6570182335431 106.04628589359189 L 849.424056819779 106.0693711531502 L 849.1905963885761 106.09140216276666 L 848.9566602857831 106.11237671935864 L 848.7222719048151 106.13229272548797 L 848.4874546843151 106.15114818957065 L 848.2522321058095 106.16894122607596 L 848.0166276913599 106.1856700557151 L 847.7806650012116 106.20133300561903 L 847.5443676314369 106.21592850950582 L 847.3077592115759 106.22945510783724 L 847.0708634022733 106.24191144796474 L 846.8337038929128 106.25329628426466 L 846.5963043992476 106.2636084782629 L 846.3586886610292 106.2728469987486 L 846.1208804396335 106.28101092187747 L 845.8829035156845 106.28809943126396 L 845.6447816866761 106.29411181806304 L 845.4065387645929 106.29904748104106 L 845.1681985735286 106.30290592663582 L 844.9297849473036 106.30568676900597 L 844.6913217270818 106.30738973006962 L 844.4528327589867 106.30801463953205 L 844.2143418917161 106.30756143490284 L 843.9758729741583 106.3060301615021 L 843.7374498530061 106.30342097245587 L 843.4990963703731 106.29973412868088 L 843.2608363614087 106.29496999885845 L 843.0226936519155 106.28912905939758 L 842.7846920559658 106.28221189438736 L 842.546855373521 106.27421919553852 L 842.309207388051 106.26515176211427 L 842.0717718641565 106.25501050085043 L 841.8345725451918 106.24379642586464 L 841.5976331508914 106.23151065855508 L 841.3609773749971 106.21815442748823 L 841.1246288828893 106.20372906827606 L 840.8886113092202 106.1882360234425 L 840.6529482555507 106.17167684227908 L 840.4176632879895 106.15405318069014 L 840.1827799348375 106.13536680102716 L 839.9483216842342 106.11561957191253 L 839.7143119818094 106.09481346805269 L 839.480774228338 106.0729505700407 L 839.2477317774011 106.05003306414814 L 839.0152079330494 106.0260632421065 L 838.7832259474735 106.00104350087803 L 838.5518090186789 105.97497634241597 L 838.3209802881654 105.94786437341445 L 838.0907628386138 105.9197103050478 L 837.8611796915773 105.89051695269937 L 837.632253805179 105.86028723568009 L 837.404008071817 105.82902417693644 L 837.1764653158743 105.79673090274827 L 836.949648291437 105.76341064241608 L 836.7235796800186 105.72906672793813 L 836.4982820882916 105.69370259367726 L 836.2737780458275 105.6573217760174 L 836.0500900028436 105.61992791301003 L 835.8272403279577 105.58152474401028 L 835.6052513059516 105.54211610930304 L 835.3841451355426 105.50170594971894 L 835.1639439271631 105.46029830624026 L 834.944669700751 105.41789731959686 L 834.7263443835458 105.37450722985206 L 834.5089898078974 105.33013237597868 L 834.2926277090824 105.28477719542511 L 834.07727972313 105.23844622367163 L 833.8629673846598 105.1911440937768 L 833.6497121247266 105.14287553591419 L 833.4375352686792 105.09364537689936 L 833.2264580340259 105.0434585397072 L 833.0165015283145 104.99232004297959 L 832.8076867470206 104.9402350005236 L 832.6000345714483 104.88720862080007 L 832.3935657666422 104.83324620640276 L 832.1883009793105 104.77835315352817 L 831.984260735761 104.72253495143585 L 831.781465439848 104.66579718189945 L 831.5799353709323 104.60814551864868 L 831.3796906818526 104.54958572680184 L 831.180751396911 104.49012366228926 L 830.9831374098702 104.42976527126788 L 830.7868684819643 104.36851658952648 L 830.5919642399225 104.30638374188221 L 830.3984441740066 104.24337294156805 L 830.2063276360618 104.17949048961154 L 830.0156338375821 104.11474277420461 L 829.8263818477881 104.04913627006486 L 829.6385905917211 103.98267753778805 L 829.4522788483505 103.91537322319199 L 829.2674652486951 103.84723005665208 L 829.084168273961 103.77825485242818 L 828.9024062536928 103.70845450798322 L 828.7221973639413 103.63783600329349 L 828.543559625445 103.56640640015061 L 828.3665109018291 103.49417284145538 L 828.1910688978182 103.42114255050346 L 828.0172511574668 103.3473228302631 L 827.8450750624039 103.27272106264479 L 827.6745578300955 103.19734470776314 L 827.505716512123 103.1212013031908 L 827.338567992477 103.04429846320481 L 827.1731289858707 102.96664387802507 L 827.0094160360665 102.88824531304537 L 826.8474455142232 102.8091106080569 L 826.6872336172579 102.72924767646418 L 826.5287963662267 102.64866450449387 L 826.372149604723 102.56736915039596 L 826.2173089972921 102.48536974363815 L 826.0642900278658 102.40267448409276 L 825.9131079982135 102.31929164121684 L 825.7637780264122 102.2352295532252 L 825.6163150453347 102.15049662625658 L 825.4707338011561 102.06510133353308 L 825.3270488518797 101.97905221451278 L 825.1852745658805 101.89235787403591 L 825.0454251204691 101.80502698146424 L 824.9075145004733 101.71706826981428 L 824.7715564968403 101.62849053488388 L 824.6375647052572 101.53930263437272 L 824.5055525247915 101.44951348699652 L 824.3755331565511 101.35913207159521 L 824.2475196023646 101.26816742623502 L 824.1215246634807 101.17662864730465 L 823.9975609392884 101.08452488860574 L 823.8756408260567 100.9918653604374 L 823.7557765156953 100.89865932867522 L 823.6379799945354 100.80491611384473 L 823.5222630421309 100.71064509018925 L 823.4086372300807 100.61585568473262 L 823.2971139208713 100.5205573763364 L 823.1877042667406 100.424759694752 L 823.080419208563 100.32847221966773 L 822.9752694747547 100.2317045797509 L 822.8722655802017 100.13446645168483 L 822.7714178252073 100.03676755920131 L 822.6727362944632 99.93861767210817 L 822.5762308560403 99.84002660531232 L 822.4819111604019 99.7410042178383 L 822.3897866394389 99.64156041184232 L 822.2998665055267 99.54170513162211 L 822.2121597506037 99.4414483626225 L 822.1266751452724 99.34080013043682 L 822.0434212379222 99.23977049980442 L 821.9624063538741 99.13836957360418 L 821.8836385945493 99.03660749184422 L 821.8071258366581 98.9344944306479 L 821.7328757314123 98.83204060123627 L 821.6608957037607 98.72925624890688 L 821.591192951646 98.6261516520093 L 821.5237744452855 98.52273712091731 L 821.4586469264735 98.41902299699785 L 821.3958169079076 98.31501965157686 L 821.3352906725374 98.21073748490224 L 821.2770742729359 98.10618692510373 L 821.2211735306947 98.0013784271502 L 821.1675940358413 97.89632247180411 L 821.1163411462804 97.79102956457344 L 821.0674199872586 97.68551023466115 L 821.0208354508508 97.57977503391233 L 820.9765921954719 97.47383453575894 L 820.9346946454104 97.3676993341625 L 820.8951469903867 97.2613800425547 L 820.857953185133 97.15488729277617 L 820.8231169489992 97.04823173401307 L 820.7906417655795 96.94142403173245 L 820.7605308823655 96.8344748666155 L 820.7327873104202 96.72739493348962 L 820.7074138240779 96.6201949402589 L 820.6844129606659 96.51288560683331 L 820.6637870202514 96.40547766405678 L 820.6455380654113 96.29798185263407 L 820.6296679210259 96.19040892205675 L 820.6161781740964 96.08276962952824 L 820.6050701735861 95.9750747388881 L 820.5963450302861 95.86733501953563 L 820.5900036167031 95.75956124535298 L 820.5860465669736 95.65176419362778 L 820.5844742767988 95.54395464397535" stroke-miterlimit="10" stroke-width="2.7769845610000004" stroke-dasharray=""/></g><g><g/><text fill="black" stroke="none" font-family="sans-serif" font-size="11pt" font-style="normal" font-weight="normal" text-decoration="normal" x="813.0558959009766" y="123.83569119881818" text-anchor="start" dominant-baseline="alphabetic" xml:space="preserve">Database</text></g><g><path fill="white" stroke="black" paint-order="fill stroke markers" d=" M 90.987082381 771.6081780603181 A 9.311065881 9.311065881 0 1 1 90.98707772546743 771.5988669959889 M 81.67601649999999 780.9192439413181 L 81.67601649999999 800.8481919673181 M 69.914670124 788.1067333933181 L 93.43736287599998 788.1067333933181 M 81.67601649999999 800.8481919673181 L 69.914670124 819.4703237293181 M 81.67601649999999 800.8481919673181 L 93.43736287599998 819.4703237293181" stroke-miterlimit="10" stroke-width="2.7769845610000004" stroke-dasharray=""/></g><g><g/><text fill="black" stroke="none" font-family="sans-serif" font-size="11pt" font-style="normal" font-weight="normal" text-decoration="normal" x="53.1470400595703" y="756.008058908818" text-anchor="start" dominant-baseline="alphabetic" xml:space="preserve">Landlord</text></g><g><path fill="white" stroke="black" paint-order="fill stroke markers" d=" M 361.4486642000442 787.110285992018 A 24.2577769005 24.2577769005 0 1 1 361.4486520711568 787.0860282191604 M 311.54461811854424 813.589650541318 L 362.8371564805442 813.589650541318" stroke-miterlimit="10" stroke-width="2.7769845610000004" stroke-dasharray=""/></g><g><g/><text fill="black" stroke="none" font-family="sans-serif" font-size="11pt" font-style="normal" font-weight="normal" text-decoration="normal" x="318.45073684788406" y="756.008058908818" text-anchor="start" dominant-baseline="alphabetic" xml:space="preserve">Client</text></g><g><path fill="white" stroke="black" paint-order="fill stroke markers" d=" M 610.4209324605259 787.110285992018 A 24.2577769005 24.2577769005 0 1 1 610.4209203316385 787.0860282191604 M 560.516886379026 813.589650541318 L 611.809424741026 813.589650541318" stroke-miterlimit="10" stroke-width="2.7769845610000004" stroke-dasharray=""/></g><g><g/><text fill="black" stroke="none" font-family="sans-serif" font-size="11pt" font-style="normal" font-weight="normal" text-decoration="normal" x="557.6377573056315" y="756.008058908818" text-anchor="start" dominant-baseline="alphabetic" xml:space="preserve">Backend</text></g><g><path fill="white" stroke="black" paint-order="fill stroke markers" d=" M 820.5844440292657 808.7707655678181 L 820.5844440292657 774.466838637818 L 868.2832376652656 774.466838637818 L 868.2832376652656 808.7707655678181" stroke-miterlimit="10" stroke-width="2.7769845610000004" stroke-dasharray=""/><path fill="white" stroke="black" paint-order="fill stroke markers" d=" M 868.2832376652656 773.274368796918 L 868.2820452053619 773.3821793418347 L 868.2784679448959 773.4899791057866 L 868.2725062415906 773.5977573088874 L 868.2641606916112 773.7055031734064 L 868.253432129506 773.8132059248471 L 868.2403216281222 773.920854793024 L 868.2248304984989 774.0284390131401 L 868.2069602897363 774.1359478268629 L 868.1867127888403 774.2433704834007 L 868.1640900205441 774.3506962405773 L 868.1390942471057 774.4579143659065 L 868.1117279680817 774.5650141376651 L 868.0819939200771 774.6719848459652 L 868.049895076472 774.7788157938251 L 868.0154346471239 774.8854962982389 L 867.9786160780471 774.9920156912451 L 867.9394430510678 775.0983633209934 L 867.897919483456 775.2045285528093 L 867.854049527534 775.3105007702579 L 867.8078375702606 775.4162693762061 L 867.7592882327933 775.5218237938813 L 867.7084063700253 775.6271534679295 L 867.6551970701004 775.7322478654713 L 867.5996656539041 775.8370964771545 L 867.5418176745321 775.9416888182054 L 867.481658916734 776.0460144294768 L 867.4191953963353 776.1500628784946 L 867.3544333596361 776.2538237605007 L 867.2873792827861 776.3572866994934 L 867.2180398711372 776.4604413492649 L 867.1464220585725 776.5632773944361 L 867.0725330068138 776.6657845514884 L 866.9963801047048 776.7679525697914 L 866.917970967472 776.8697712326284 L 866.8373134359639 776.971230358218 L 866.7544155758665 777.0723198007321 L 866.6692856768966 777.1730294513109 L 866.5819322519732 777.273349239073 L 866.492364036366 777.3732691321235 L 866.400589986822 777.4727791385561 L 866.3066192806696 777.5718693074533 L 866.210461314901 777.6705297298806 L 866.1121257052329 777.768750539878 L 866.0116222851441 777.8665219154466 L 865.9089611048929 777.96383407953 L 865.8041524305119 778.060677300993 L 865.697206742781 778.1570418955943 L 865.58813473618 778.2529182269545 L 865.4769473178187 778.3482967075205 L 865.3636556063461 778.4431677995237 L 865.2482709308392 778.537522015934 L 865.1308048296692 778.6313499214083 L 865.0112690493482 778.7246421332343 L 864.889675543355 778.8173893222685 L 864.7660364709386 778.9095822138694 L 864.6403641959032 779.0012115888245 L 864.5126712853718 779.0922682842728 L 864.3829705085287 779.1827431946207 L 864.2512748353438 779.2726272724524 L 864.1175974352745 779.361911529435 L 863.9819516759496 779.4505870372174 L 863.8443511218318 779.5386449283225 L 863.7048095328619 779.6260763970347 L 863.5633408630825 779.7128727002801 L 863.4199592592428 779.7990251585004 L 863.2746790593836 779.8845251565217 L 863.1275147914038 779.9693641444156 L 862.9784811716077 780.0535336383539 L 862.8275931032327 780.1370252214573 L 862.6748656749604 780.2198305446371 L 862.5203141594061 780.30194132743 L 862.3639540115927 780.3833493588262 L 862.2058008674044 780.4640464980903 L 862.0458705420241 780.5440246755757 L 861.8841790283509 780.6232758935311 L 861.7207424954016 780.701792226901 L 861.555577286693 780.7795658241174 L 861.3886999186087 780.8565889078855 L 861.2201270787463 780.9328537759609 L 861.0498756242491 781.0083528019204 L 860.877962580121 781.0830784359244 L 860.7044051375229 781.1570232054718 L 860.5292206520546 781.2301797161472 L 860.3524266420186 781.3025406523603 L 860.1740407866686 781.3740987780782 L 859.9940809244413 781.4448469375477 L 859.8125650511732 781.5147780560118 L 859.6295113183003 781.583885140417 L 859.4449380310433 781.6521612801124 L 859.2588636465771 781.7195996475409 L 859.0713067721852 781.7861934989221 L 858.8822861633985 781.8519361749262 L 858.6918207221206 781.9168211013405 L 858.4999294947368 781.9808417897264 L 858.30663167021 782.0439918380683 L 858.1119465781615 782.1062649314141 L 857.9158936869383 782.1676548425064 L 857.7184926016661 782.2281554324052 L 857.519763062289 782.2877606511018 L 857.3197249415953 782.3464645381242 L 857.1183982432303 782.4042612231325 L 856.9158030996963 782.4611449265064 L 856.7119597703385 782.517109959923 L 856.5068886393202 782.5721507269255 L 856.3006102135835 782.6262617234833 L 856.0931451207991 782.6794375385415 L 855.8845141073034 782.731672854563 L 855.674738036024 782.78296244806 L 855.463837884393 782.8333011901155 L 855.2518347422499 782.8826840468975 L 855.0387498097323 782.9311060801614 L 854.8246043951559 782.9785624477443 L 854.6094199128836 783.0250484040488 L 854.3932178811843 783.0705593005182 L 854.1760199200812 783.1150905861007 L 853.9578477491892 783.1586378077048 L 853.7387231855437 783.2011966106447 L 853.5186681414183 783.2427627390756 L 853.2977046221342 783.2833320364193 L 853.0758547238593 783.3229004457797 L 852.8531406313982 783.3614640103491 L 852.6295846159747 783.3990188738029 L 852.4052090330043 783.4355612806863 L 852.180036319858 783.4710875767889 L 851.9540889936196 783.5055942095107 L 851.7273896488334 783.5390777282173 L 851.499960955245 783.5715347845847 L 851.2718256555341 783.6029621329343 L 851.0430065630409 783.6333566305574 L 850.8135265594835 783.6627152380295 L 850.5834085926715 783.6910350195145 L 850.3526756742094 783.7183131430577 L 850.1213508771971 783.7445468808696 L 849.8894573339212 783.7697336095982 L 849.6570182335431 783.7938708105917 L 849.424056819779 783.81695607015 L 849.1905963885761 783.8389870797664 L 848.9566602857831 783.8599616363584 L 848.7222719048151 783.8798776424878 L 848.4874546843151 783.8987331065705 L 848.2522321058095 783.9165261430758 L 848.0166276913599 783.933254972715 L 847.7806650012116 783.9489179226189 L 847.5443676314369 783.9635134265056 L 847.3077592115759 783.977040024837 L 847.0708634022733 783.9894963649646 L 846.8337038929128 784.0008812012645 L 846.5963043992476 784.0111933952627 L 846.3586886610292 784.0204319157484 L 846.1208804396335 784.0285958388773 L 845.8829035156845 784.0356843482638 L 845.6447816866761 784.0416967350628 L 845.4065387645929 784.0466323980409 L 845.1681985735286 784.0504908436357 L 844.9297849473036 784.0532716860058 L 844.6913217270818 784.0549746470695 L 844.4528327589867 784.0555995565319 L 844.2143418917161 784.0551463519026 L 843.9758729741583 784.0536150785019 L 843.7374498530061 784.0510058894557 L 843.4990963703731 784.0473190456808 L 843.2608363614087 784.0425549158583 L 843.0226936519155 784.0367139763974 L 842.7846920559658 784.0297968113872 L 842.546855373521 784.0218041125383 L 842.309207388051 784.0127366791141 L 842.0717718641565 784.0025954178502 L 841.8345725451918 783.9913813428644 L 841.5976331508914 783.9790955755549 L 841.3609773749971 783.965739344488 L 841.1246288828893 783.9513139852759 L 840.8886113092202 783.9358209404423 L 840.6529482555507 783.9192617592789 L 840.4176632879895 783.90163809769 L 840.1827799348375 783.882951718027 L 839.9483216842342 783.8632044889123 L 839.7143119818094 783.8423983850525 L 839.480774228338 783.8205354870405 L 839.2477317774011 783.7976179811479 L 839.0152079330494 783.7736481591063 L 838.7832259474735 783.7486284178779 L 838.5518090186789 783.7225612594158 L 838.3209802881654 783.6954492904142 L 838.0907628386138 783.6672952220476 L 837.8611796915773 783.6381018696992 L 837.632253805179 783.6078721526799 L 837.404008071817 783.5766090939362 L 837.1764653158743 783.5443158197481 L 836.949648291437 783.5109955594158 L 836.7235796800186 783.476651644938 L 836.4982820882916 783.4412875106771 L 836.2737780458275 783.4049066930172 L 836.0500900028436 783.3675128300099 L 835.8272403279577 783.3291096610101 L 835.6052513059516 783.2897010263029 L 835.3841451355426 783.2492908667188 L 835.1639439271631 783.2078832232401 L 834.944669700751 783.1654822365966 L 834.7263443835458 783.1220921468519 L 834.5089898078974 783.0777172929785 L 834.2926277090824 783.032362112425 L 834.07727972313 782.9860311406715 L 833.8629673846598 782.9387290107766 L 833.6497121247266 782.890460452914 L 833.4375352686792 782.8412302938992 L 833.2264580340259 782.791043456707 L 833.0165015283145 782.7399049599794 L 832.8076867470206 782.6878199175234 L 832.6000345714483 782.6347935377999 L 832.3935657666422 782.5808311234026 L 832.1883009793105 782.525938070528 L 831.984260735761 782.4701198684356 L 831.781465439848 782.4133820988993 L 831.5799353709323 782.3557304356485 L 831.3796906818526 782.2971706438017 L 831.180751396911 782.2377085792891 L 830.9831374098702 782.1773501882677 L 830.7868684819643 782.1161015065263 L 830.5919642399225 782.053968658882 L 830.3984441740066 781.9909578585679 L 830.2063276360618 781.9270754066114 L 830.0156338375821 781.8623276912044 L 829.8263818477881 781.7967211870647 L 829.6385905917211 781.7302624547879 L 829.4522788483505 781.6629581401918 L 829.2674652486951 781.5948149736519 L 829.084168273961 781.525839769428 L 828.9024062536928 781.456039424983 L 828.7221973639413 781.3854209202933 L 828.543559625445 781.3139913171505 L 828.3665109018291 781.2417577584552 L 828.1910688978182 781.1687274675032 L 828.0172511574668 781.0949077472629 L 827.8450750624039 781.0203059796446 L 827.6745578300955 780.944929624763 L 827.505716512123 780.8687862201906 L 827.338567992477 780.7918833802046 L 827.1731289858707 780.7142287950248 L 827.0094160360665 780.6358302300451 L 826.8474455142232 780.5566955250567 L 826.6872336172579 780.476832593464 L 826.5287963662267 780.3962494214936 L 826.372149604723 780.3149540673958 L 826.2173089972921 780.2329546606379 L 826.0642900278658 780.1502594010925 L 825.9131079982135 780.0668765582167 L 825.7637780264122 779.982814470225 L 825.6163150453347 779.8980815432564 L 825.4707338011561 779.8126862505329 L 825.3270488518797 779.7266371315126 L 825.1852745658805 779.6399427910358 L 825.0454251204691 779.5526118984641 L 824.9075145004733 779.4646531868141 L 824.7715564968403 779.3760754518837 L 824.6375647052572 779.2868875513725 L 824.5055525247915 779.1970984039964 L 824.3755331565511 779.106716988595 L 824.2475196023646 779.0157523432348 L 824.1215246634807 778.9242135643045 L 823.9975609392884 778.8321098056056 L 823.8756408260567 778.7394502774372 L 823.7557765156953 778.646244245675 L 823.6379799945354 778.5525010308445 L 823.5222630421309 778.4582300071891 L 823.4086372300807 778.3634406017325 L 823.2971139208713 778.2681422933362 L 823.1877042667406 778.1723446117518 L 823.080419208563 778.0760571366676 L 822.9752694747547 777.9792894967508 L 822.8722655802017 777.8820513686846 L 822.7714178252073 777.7843524762011 L 822.6727362944632 777.686202589108 L 822.5762308560403 777.5876115223122 L 822.4819111604019 777.4885891348381 L 822.3897866394389 777.3891453288421 L 822.2998665055267 777.289290048622 L 822.2121597506037 777.1890332796223 L 822.1266751452724 777.0883850474366 L 822.0434212379222 776.9873554168042 L 821.9624063538741 776.885954490604 L 821.8836385945493 776.784192408844 L 821.8071258366581 776.6820793476477 L 821.7328757314123 776.5796255182361 L 821.6608957037607 776.4768411659066 L 821.591192951646 776.3737365690091 L 821.5237744452855 776.2703220379171 L 821.4586469264735 776.1666079139976 L 821.3958169079076 776.0626045685767 L 821.3352906725374 775.958322401902 L 821.2770742729359 775.8537718421036 L 821.2211735306947 775.7489633441501 L 821.1675940358413 775.6439073888039 L 821.1163411462804 775.5386144815733 L 821.0674199872586 775.433095151661 L 821.0208354508508 775.3273599509122 L 820.9765921954719 775.2214194527587 L 820.9346946454104 775.1152842511623 L 820.8951469903867 775.0089649595545 L 820.857953185133 774.902472209776 L 820.8231169489992 774.7958166510128 L 820.7906417655795 774.6890089487323 L 820.7605308823655 774.5820597836154 L 820.7327873104202 774.4749798504895 L 820.7074138240779 774.3677798572587 L 820.6844129606659 774.2604705238331 L 820.6637870202514 774.1530625810566 L 820.6455380654113 774.0455667696339 L 820.6296679210259 773.9379938390566 L 820.6161781740964 773.830354546528 L 820.6050701735861 773.7226596558879 L 820.5963450302861 773.6149199365354 L 820.5900036167031 773.5071461623528 L 820.5860465669736 773.3993491106276 L 820.5844742767988 773.2915395609751 L 820.5852869034068 773.1837282942606 L 820.5884843655354 773.0759260915208 L 820.594066343441 772.9681437328862 L 820.6020322789307 772.8603919965028 L 820.6123813754174 772.7526816574544 L 820.6251125980002 772.6450234866853 L 820.6402246735673 772.5374282499228 L 820.6577160909239 772.4299067066008 L 820.6775851009427 772.3224696087841 L 820.6998297167394 772.215127700093 L 820.7244477138709 772.107891714629 L 820.7514366305578 772.000772375901 L 820.7807937679312 771.8937803957539 L 820.8125161903017 771.7869264732963 L 820.8466007254536 771.6802212938316 L 820.8830439649616 771.5736755277887 L 820.9218422645324 771.4672998296555 L 820.9629917443681 771.3611048369132 L 821.0064882895551 771.2551011689725 L 821.0523275504752 771.1492994261118 L 821.1005049432404 771.0437101884174 L 821.1510156501516 770.938344014725 L 821.2038546201802 770.833211441564 L 821.2590165694734 770.7283229821044 L 821.316495981882 770.6236891251044 L 821.3762871095128 770.5193203338629 L 821.4383839733026 770.4152270451716 L 821.5027803636171 770.3114196682731 L 821.569469840871 770.2079085838182 L 821.6384457361718 770.1047041428293 L 821.7097011519876 770.0018166656644 L 821.7832289628362 769.8992564409855 L 821.8590218159978 769.7970337247295 L 821.9370721322503 769.6951587390831 L 822.017372106627 769.5936416714599 L 822.0999137091974 769.4924926734818 L 822.1846886858701 769.3917218599646 L 822.2716885592181 769.2913393079056 L 822.3609046293265 769.1913550554762 L 822.4523279746626 769.0917791010185 L 822.5459494529681 768.9926214020448 L 822.6417597021731 768.8938918742426 L 822.7397491413327 768.7956003904823 L 822.8399079715846 768.6977567798303 L 822.9422261771291 768.6003708265662 L 823.0466935262309 768.5034522692041 L 823.1532995722424 768.4070107995191 L 823.2620336546477 768.3110560615777 L 823.372884900129 768.2155976507737 L 823.4858422236543 768.1206451128687 L 823.6008943295855 768.0262079430374 L 823.7180297128076 767.932295584918 L 823.83723665988 767.8389174296681 L 823.9585032502074 767.7460828150254 L 824.0818173572318 767.653801024374 L 824.2071666496453 767.562081285816 L 824.334538592623 767.470932771249 L 824.4639204490768 767.3803645954483 L 824.5952992809289 767.2903858151561 L 824.7286619504055 767.2010054281754 L 824.8639951213509 767.1122323724707 L 825.0012852605607 767.024075525273 L 825.1405186391355 766.9365437021942 L 825.2816813338534 766.8496456563432 L 825.4247592285625 766.7633900774523 L 825.5697380155926 766.6777855910077 L 825.7166031971859 766.5928407573865 L 825.8653400869466 766.5085640710013 L 826.0159338113095 766.4249639594506 L 826.168369311028 766.3420487826756 L 826.3226313426787 766.2598268321254 L 826.4787044801874 766.1783063299262 L 826.6365731163702 766.0974954280603 L 826.7962214644951 766.0174022075505 L 826.9576335598603 765.9380346776522 L 827.1207932613908 765.8594007750522 L 827.2856842532523 765.7815083630754 L 827.4522900464832 765.7043652308979 L 827.620593980643 765.6279790927687 L 827.7905792254783 765.5523575872379 L 827.9622287826065 765.4775082763931 L 828.135525487215 765.4034386451029 L 828.3104520097775 765.3301561002689 L 828.4869908577876 765.2576679700844 L 828.6651243775077 765.1859815033021 L 828.8448347557343 765.1151038685088 L 829.0261040215792 765.0450421534089 L 829.2089140482668 764.9758033641157 L 829.393246554947 764.9073944244502 L 829.5790831085228 764.8398221752497 L 829.7664051254934 764.7730933736824 L 829.9551938738133 764.7072146925732 L 830.1454304747651 764.642192719735 L 830.3370959048473 764.5780339573113 L 830.5301709976764 764.5147448211244 L 830.724636445904 764.4523316400355 L 830.9204728031476 764.3908006553106 L 831.1176604859344 764.330158019997 L 831.3161797756607 764.2704097983076 L 831.5160108205627 764.2115619650147 L 831.7171336377024 764.1536204048527 L 831.919528114966 764.0965909119293 L 832.1231740130744 764.0404791891464 L 832.3280509676072 763.9852908476292 L 832.5341384910398 763.9310314061662 L 832.7414159747917 763.8777062906561 L 832.9498626912872 763.8253208335661 L 833.1594577960284 763.7738802733984 L 833.3701803296793 763.7233897541659 L 833.5820092201624 763.6738543248784 L 833.794923284765 763.6252789390379 L 834.0089012322582 763.5776684541423 L 834.2239216650254 763.5310276312003 L 834.4399630812026 763.4853611342556 L 834.6570038768281 763.4406735299196 L 834.8750223480034 763.3969692869156 L 835.093996693063 763.3542527756315 L 835.3139050147547 763.3125282676826 L 835.53472532243 763.2717999354853 L 835.7564355342416 763.2320718518387 L 835.9790134793535 763.1933479895181 L 836.2024369001565 763.1556322208772 L 836.4266834544947 763.1189283174618 L 836.6517307178996 763.0832399496315 L 836.8775561858323 763.0485706861934 L 837.1041372759344 763.0149239940448 L 837.3314513302855 762.9823032378271 L 837.5594756176696 762.9507116795885 L 837.7881873358481 762.9201524784586 L 838.0175636138397 762.8906286903322 L 838.2475815142078 762.8621432675633 L 838.478218035354 762.8346990586705 L 838.7094501138183 762.8082988080517 L 838.9412546265856 762.7829451557103 L 839.173608393398 762.7586406369901 L 839.4064881790722 762.7353876823228 L 839.6398706958238 762.7131886169846 L 839.8737326055956 762.6920456608633 L 840.1080505223914 762.6719609282371 L 840.3428010146149 762.6529364275625 L 840.5779606074125 762.6349740612736 L 840.8135057850209 762.6180756255922 L 841.0494129931185 762.6022428103477 L 841.2856586411813 762.5874771988084 L 841.522219104841 762.5737802675231 L 841.7590707282488 762.5611533861738 L 841.9961898264395 762.5495978174379 L 842.2335526877009 762.5391147168626 L 842.4711355759447 762.5297051327493 L 842.70891473308 762.5213700060486 L 842.9468663813893 762.5141101702662 L 843.1849667259061 762.5079263513795 L 843.4231919567942 762.5028191677656 L 843.6615182517293 762.4987891301381 L 843.8999217782803 762.4958366414977 L 844.1383786962931 762.4939619970909 L 844.376865160275 762.4931653843803 L 844.615357321778 762.4934468830266 L 844.8538313317848 762.4948064648804 L 845.0922633430932 762.4972439939843 L 845.3306295127007 762.5007592265877 L 845.568906004189 762.5053518111702 L 845.8070689901075 762.511021288477 L 846.045094654356 762.5177670915652 L 846.2829591945665 762.5255885458602 L 846.5206388244832 762.534484869223 L 846.7581097763413 762.5444551720286 L 846.9953483032432 762.5554984572553 L 847.2323306815341 762.5676136205835 L 847.4690332131737 762.5807994505071 L 847.705432228106 762.595054628454 L 847.9415040866267 762.6103777289185 L 848.1772251817463 762.626767219603 L 848.412571941552 762.6442214615724 L 848.6475208315638 762.6627387094169 L 848.8820483570886 762.682317111427 L 849.1161310655693 762.7029547097791 L 849.3497455489301 762.7246494407304 L 849.5828684459171 762.7473991348259 L 849.8154764444353 762.7712015171152 L 850.0475462838783 762.7960542073798 L 850.2790547574558 762.8219547203715 L 850.5099787145133 762.8489004660605 L 850.7402950628475 762.8768887498949 L 850.9699807710155 762.9059167730693 L 851.1990128706378 762.9359816328057 L 851.4273684586955 762.9670803226433 L 851.6550246998199 762.9992097327389 L 851.8819588285767 763.0323666501783 L 852.1081481517421 763.0665477592976 L 852.3335700505723 763.1017496420139 L 852.5582019830653 763.1379687781687 L 852.782021486215 763.1752015458784 L 853.0050061782575 763.2134442218971 L 853.2271337609095 763.2526929819894 L 853.448382021598 763.2929439013118 L 853.6687288356811 763.3341929548059 L 853.888152168661 763.3764360176008 L 854.1066300783874 763.4196688654253 L 854.3241407172513 763.4638871750308 L 854.5406623343702 763.5090865246231 L 854.7561732777625 763.5552623943048 L 854.9706519965138 763.6024101665276 L 855.1840770429308 763.6505251265536 L 855.3964270746867 763.6996024629267 L 855.6076808569554 763.7496372679543 L 855.8178172645346 763.8006245381976 L 856.0268152839586 763.8525591749719 L 856.2346540155999 763.9054359848569 L 856.4413126757581 763.9592496802157 L 856.6467705987399 764.0139948797238 L 856.8510072389238 764.0696661089064 L 857.0540021728161 764.1262578006874 L 857.2557351010927 764.1837642959446 L 857.4561858506288 764.2421798440763 L 857.6553343765164 764.3014986035766 L 857.853160764069 764.3617146426188 L 858.0496452308126 764.4228219396493 L 858.2447681284644 764.4848143839893 L 858.4385099448972 764.547685776446 L 858.6308513060906 764.6114298299324 L 858.821772978069 764.6760401700965 L 859.0112558688242 764.741510335958 L 859.199281030225 764.8078337805549 L 859.3858296599121 764.875003871598 L 859.5708831031778 764.9430138921342 L 859.7544228548321 765.0118570412181 L 859.9364305610528 765.0815264345922 L 860.1168880212209 765.1520151053752 L 860.2957771897408 765.2233160047588 L 860.4730801778445 765.2954220027123 L 860.6487792553813 765.3683258886962 L 860.8228568525897 765.4420203723826 L 860.995295561855 765.5164980843844 L 861.16607813945 765.5917515769926 L 861.3351875072592 765.6677733249206 L 861.5026067544868 765.7445557260571 L 861.6683191393477 765.8220911022258 L 861.8323080907413 765.9003716999539 L 861.9945572099093 765.9793896912466 L 862.155050272075 766.0591371743707 L 862.3137712280658 766.1396061746444 L 862.4707042059183 766.2207886452348 L 862.6258335124656 766.3026764679623 L 862.7791436349065 766.3852614541131 L 862.9306192423562 766.4685353452571 L 863.0802451873803 766.5524898140749 L 863.2280065075091 766.6371164651894 L 863.3738884267336 766.722406836006 L 863.5178763569835 766.8083523975588 L 863.6599558995857 766.8949445553632 L 863.8001128467045 766.9821746502755 L 863.9383331827617 767.0700339593591 L 864.074603085839 767.1585136967561 L 864.2089089290598 767.2476050145667 L 864.3412372819516 767.3372990037332 L 864.4715749117893 767.4275866949314 L 864.5999087849186 767.5184590594675 L 864.7262260680593 767.6099070101809 L 864.850514129588 767.7019214023526 L 864.9727605408024 767.7944930346199 L 865.0929530771631 767.887612649897 L 865.2110797195168 767.9812709362999 L 865.3271286552974 768.0754585280779 L 865.4410882797083 768.1701660065503 L 865.552947196882 768.2653839010484 L 865.6626942210198 768.3611026898618 L 865.770318377511 768.4573128011916 L 865.8758089040294 768.5540046141068 L 865.9791552516105 768.6511684595066 L 866.0803470857054 768.7487946210875 L 866.1793742872153 768.8468733363147 L 866.2762269535023 768.9453947973984 L 866.3708953993806 769.0443491522745 L 866.4633701580846 769.1437265055902 L 866.5536419822154 769.2435169196928 L 866.6417018446657 769.3437104156241 L 866.7275409395228 769.444296974118 L 866.8111506829488 769.5452665366023 L 866.8925227140387 769.6466090062053 L 866.9716488956576 769.748314248764 L 867.0485213152531 769.8503720938393 L 867.1231322856472 769.9527723357315 L 867.1954743458052 770.0555047345019 L 867.2655402615815 770.1585590169963 L 867.3333230264425 770.2619248778719 L 867.3988158621685 770.3655919806292 L 867.4620122195304 770.4695499586442 L 867.5229057789451 770.5737884162056 L 867.5814904511075 770.6782969295547 L 867.6377603775991 770.783065047927 L 867.6917099314743 770.8880822945982 L 867.7433337178226 770.9933381679311 L 867.7926265743082 771.098822142426 L 867.8395835716868 771.2045236697735 L 867.8842000142977 771.3104321799087 L 867.9264714405338 771.416537082069 L 867.9663936232876 771.5228277658528 L 868.0039625703743 771.6292936022799 L 868.0391745249302 771.7359239448556 L 868.0720259657896 771.8427081306345 L 868.1025136078355 771.9496354812869 L 868.1306344023292 772.056695304167 L 868.1563855372145 772.1638768933817 L 868.1797644373997 772.2711695308612 L 868.200768765014 772.3785624874314 L 868.2193964196423 772.486045023886 L 868.2356455385345 772.5936063920611 L 868.2495144967925 772.7012358359093 L 868.2610019075317 772.808922592576 L 868.2701066220209 772.9166558934753 L 868.2768277297961 773.0244249653667 L 868.281164558752 773.1322190314331 L 868.2831166752096 773.2400273123576 M 868.2832376652656 807.5782957269181 L 868.2820452053619 807.6861062718348 L 868.2784679448959 807.7939060357867 L 868.2725062415906 807.9016842388875 L 868.2641606916112 808.0094301034065 L 868.253432129506 808.1171328548472 L 868.2403216281222 808.2247817230241 L 868.2248304984989 808.3323659431402 L 868.2069602897363 808.439874756863 L 868.1867127888403 808.5472974134008 L 868.1640900205441 808.6546231705775 L 868.1390942471057 808.7618412959066 L 868.1117279680817 808.8689410676652 L 868.0819939200771 808.9759117759653 L 868.049895076472 809.0827427238252 L 868.0154346471239 809.189423228239 L 867.9786160780471 809.2959426212453 L 867.9394430510678 809.4022902509935 L 867.897919483456 809.5084554828094 L 867.854049527534 809.614427700258 L 867.8078375702606 809.7201963062062 L 867.7592882327933 809.8257507238814 L 867.7084063700253 809.9310803979296 L 867.6551970701004 810.0361747954714 L 867.5996656539041 810.1410234071546 L 867.5418176745321 810.2456157482055 L 867.481658916734 810.3499413594769 L 867.4191953963353 810.4539898084947 L 867.3544333596361 810.5577506905008 L 867.2873792827861 810.6612136294935 L 867.2180398711372 810.764368279265 L 867.1464220585725 810.8672043244362 L 867.0725330068138 810.9697114814885 L 866.9963801047048 811.0718794997915 L 866.917970967472 811.1736981626285 L 866.8373134359639 811.2751572882181 L 866.7544155758665 811.3762467307322 L 866.6692856768966 811.476956381311 L 866.5819322519732 811.5772761690731 L 866.492364036366 811.6771960621236 L 866.400589986822 811.7767060685562 L 866.3066192806696 811.8757962374534 L 866.210461314901 811.9744566598807 L 866.1121257052329 812.0726774698782 L 866.0116222851441 812.1704488454467 L 865.9089611048929 812.2677610095301 L 865.8041524305119 812.3646042309931 L 865.697206742781 812.4609688255944 L 865.58813473618 812.5568451569546 L 865.4769473178187 812.6522236375206 L 865.3636556063461 812.7470947295238 L 865.2482709308392 812.8414489459341 L 865.1308048296692 812.9352768514084 L 865.0112690493482 813.0285690632344 L 864.889675543355 813.1213162522686 L 864.7660364709386 813.2135091438695 L 864.6403641959032 813.3051385188246 L 864.5126712853718 813.3961952142729 L 864.3829705085287 813.4866701246208 L 864.2512748353438 813.5765542024525 L 864.1175974352745 813.6658384594351 L 863.9819516759496 813.7545139672175 L 863.8443511218318 813.8425718583226 L 863.7048095328619 813.9300033270348 L 863.5633408630825 814.0167996302802 L 863.4199592592428 814.1029520885005 L 863.2746790593836 814.1884520865218 L 863.1275147914038 814.2732910744157 L 862.9784811716077 814.357460568354 L 862.8275931032327 814.4409521514574 L 862.6748656749604 814.5237574746373 L 862.5203141594061 814.6058682574301 L 862.3639540115927 814.6872762888263 L 862.2058008674044 814.7679734280904 L 862.0458705420241 814.8479516055758 L 861.8841790283509 814.9272028235312 L 861.7207424954016 815.0057191569011 L 861.555577286693 815.0834927541175 L 861.3886999186087 815.1605158378856 L 861.2201270787463 815.236780705961 L 861.0498756242491 815.3122797319205 L 860.877962580121 815.3870053659246 L 860.7044051375229 815.4609501354719 L 860.5292206520546 815.5341066461473 L 860.3524266420186 815.6064675823604 L 860.1740407866686 815.6780257080783 L 859.9940809244413 815.7487738675478 L 859.8125650511732 815.8187049860119 L 859.6295113183003 815.8878120704171 L 859.4449380310433 815.9560882101125 L 859.2588636465771 816.023526577541 L 859.0713067721852 816.0901204289222 L 858.8822861633985 816.1558631049263 L 858.6918207221206 816.2207480313406 L 858.4999294947368 816.2847687197265 L 858.30663167021 816.3479187680684 L 858.1119465781615 816.4101918614142 L 857.9158936869383 816.4715817725065 L 857.7184926016661 816.5320823624053 L 857.519763062289 816.591687581102 L 857.3197249415953 816.6503914681243 L 857.1183982432303 816.7081881531326 L 856.9158030996963 816.7650718565066 L 856.7119597703385 816.8210368899231 L 856.5068886393202 816.8760776569256 L 856.3006102135835 816.9301886534834 L 856.0931451207991 816.9833644685416 L 855.8845141073034 817.0355997845631 L 855.674738036024 817.08688937806 L 855.463837884393 817.1372281201157 L 855.2518347422499 817.1866109768976 L 855.0387498097323 817.2350330101615 L 854.8246043951559 817.2824893777444 L 854.6094199128836 817.3289753340489 L 854.3932178811843 817.3744862305183 L 854.1760199200812 817.4190175161008 L 853.9578477491892 817.462564737705 L 853.7387231855437 817.5051235406448 L 853.5186681414183 817.5466896690757 L 853.2977046221342 817.5872589664194 L 853.0758547238593 817.6268273757798 L 852.8531406313982 817.6653909403492 L 852.6295846159747 817.702945803803 L 852.4052090330043 817.7394882106864 L 852.180036319858 817.775014506789 L 851.9540889936196 817.8095211395108 L 851.7273896488334 817.8430046582175 L 851.499960955245 817.8754617145848 L 851.2718256555341 817.9068890629344 L 851.0430065630409 817.9372835605575 L 850.8135265594835 817.9666421680296 L 850.5834085926715 817.9949619495146 L 850.3526756742094 818.0222400730578 L 850.1213508771971 818.0484738108697 L 849.8894573339212 818.0736605395983 L 849.6570182335431 818.0977977405918 L 849.424056819779 818.1208830001501 L 849.1905963885761 818.1429140097665 L 848.9566602857831 818.1638885663585 L 848.7222719048151 818.1838045724879 L 848.4874546843151 818.2026600365706 L 848.2522321058095 818.2204530730759 L 848.0166276913599 818.2371819027151 L 847.7806650012116 818.252844852619 L 847.5443676314369 818.2674403565057 L 847.3077592115759 818.2809669548371 L 847.0708634022733 818.2934232949647 L 846.8337038929128 818.3048081312646 L 846.5963043992476 818.3151203252628 L 846.3586886610292 818.3243588457485 L 846.1208804396335 818.3325227688774 L 845.8829035156845 818.3396112782639 L 845.6447816866761 818.3456236650629 L 845.4065387645929 818.350559328041 L 845.1681985735286 818.3544177736358 L 844.9297849473036 818.3571986160059 L 844.6913217270818 818.3589015770696 L 844.4528327589867 818.359526486532 L 844.2143418917161 818.3590732819027 L 843.9758729741583 818.357542008502 L 843.7374498530061 818.3549328194558 L 843.4990963703731 818.3512459756807 L 843.2608363614087 818.3464818458584 L 843.0226936519155 818.3406409063975 L 842.7846920559658 818.3337237413873 L 842.546855373521 818.3257310425385 L 842.309207388051 818.3166636091142 L 842.0717718641565 818.3065223478503 L 841.8345725451918 818.2953082728645 L 841.5976331508914 818.283022505555 L 841.3609773749971 818.2696662744881 L 841.1246288828893 818.255240915276 L 840.8886113092202 818.2397478704424 L 840.6529482555507 818.223188689279 L 840.4176632879895 818.2055650276901 L 840.1827799348375 818.1868786480271 L 839.9483216842342 818.1671314189124 L 839.7143119818094 818.1463253150526 L 839.480774228338 818.1244624170406 L 839.2477317774011 818.101544911148 L 839.0152079330494 818.0775750891064 L 838.7832259474735 818.052555347878 L 838.5518090186789 818.0264881894159 L 838.3209802881654 817.9993762204143 L 838.0907628386138 817.9712221520477 L 837.8611796915773 817.9420287996993 L 837.632253805179 817.91179908268 L 837.404008071817 817.8805360239363 L 837.1764653158743 817.8482427497482 L 836.949648291437 817.814922489416 L 836.7235796800186 817.7805785749381 L 836.4982820882916 817.7452144406772 L 836.2737780458275 817.7088336230173 L 836.0500900028436 817.67143976001 L 835.8272403279577 817.6330365910102 L 835.6052513059516 817.593627956303 L 835.3841451355426 817.5532177967189 L 835.1639439271631 817.5118101532402 L 834.944669700751 817.4694091665967 L 834.7263443835458 817.426019076852 L 834.5089898078974 817.3816442229786 L 834.2926277090824 817.336289042425 L 834.07727972313 817.2899580706716 L 833.8629673846598 817.2426559407767 L 833.6497121247266 817.1943873829141 L 833.4375352686792 817.1451572238993 L 833.2264580340259 817.0949703867071 L 833.0165015283145 817.0438318899795 L 832.8076867470206 816.9917468475235 L 832.6000345714483 816.9387204678 L 832.3935657666422 816.8847580534027 L 832.1883009793105 816.8298650005281 L 831.984260735761 816.7740467984357 L 831.781465439848 816.7173090288994 L 831.5799353709323 816.6596573656486 L 831.3796906818526 816.6010975738018 L 831.180751396911 816.5416355092892 L 830.9831374098702 816.4812771182678 L 830.7868684819643 816.4200284365264 L 830.5919642399225 816.3578955888821 L 830.3984441740066 816.294884788568 L 830.2063276360618 816.2310023366115 L 830.0156338375821 816.1662546212045 L 829.8263818477881 816.1006481170648 L 829.6385905917211 816.034189384788 L 829.4522788483505 815.9668850701919 L 829.2674652486951 815.898741903652 L 829.084168273961 815.8297666994281 L 828.9024062536928 815.7599663549831 L 828.7221973639413 815.6893478502934 L 828.543559625445 815.6179182471506 L 828.3665109018291 815.5456846884553 L 828.1910688978182 815.4726543975033 L 828.0172511574668 815.398834677263 L 827.8450750624039 815.3242329096447 L 827.6745578300955 815.248856554763 L 827.505716512123 815.1727131501907 L 827.338567992477 815.0958103102047 L 827.1731289858707 815.0181557250249 L 827.0094160360665 814.9397571600452 L 826.8474455142232 814.8606224550568 L 826.6872336172579 814.7807595234641 L 826.5287963662267 814.7001763514937 L 826.372149604723 814.6188809973959 L 826.2173089972921 814.536881590638 L 826.0642900278658 814.4541863310926 L 825.9131079982135 814.3708034882168 L 825.7637780264122 814.2867414002251 L 825.6163150453347 814.2020084732565 L 825.4707338011561 814.116613180533 L 825.3270488518797 814.0305640615127 L 825.1852745658805 813.9438697210359 L 825.0454251204691 813.8565388284642 L 824.9075145004733 813.7685801168142 L 824.7715564968403 813.6800023818838 L 824.6375647052572 813.5908144813726 L 824.5055525247915 813.5010253339965 L 824.3755331565511 813.4106439185952 L 824.2475196023646 813.3196792732349 L 824.1215246634807 813.2281404943046 L 823.9975609392884 813.1360367356057 L 823.8756408260567 813.0433772074373 L 823.7557765156953 812.9501711756751 L 823.6379799945354 812.8564279608446 L 823.5222630421309 812.7621569371892 L 823.4086372300807 812.6673675317326 L 823.2971139208713 812.5720692233363 L 823.1877042667406 812.4762715417519 L 823.080419208563 812.3799840666677 L 822.9752694747547 812.2832164267509 L 822.8722655802017 812.1859782986847 L 822.7714178252073 812.0882794062012 L 822.6727362944632 811.9901295191081 L 822.5762308560403 811.8915384523123 L 822.4819111604019 811.7925160648382 L 822.3897866394389 811.6930722588422 L 822.2998665055267 811.5932169786221 L 822.2121597506037 811.4929602096224 L 822.1266751452724 811.3923119774367 L 822.0434212379222 811.2912823468043 L 821.9624063538741 811.1898814206041 L 821.8836385945493 811.0881193388441 L 821.8071258366581 810.9860062776478 L 821.7328757314123 810.8835524482362 L 821.6608957037607 810.7807680959068 L 821.591192951646 810.6776634990092 L 821.5237744452855 810.5742489679172 L 821.4586469264735 810.4705348439977 L 821.3958169079076 810.3665314985768 L 821.3352906725374 810.2622493319021 L 821.2770742729359 810.1576987721037 L 821.2211735306947 810.0528902741502 L 821.1675940358413 809.947834318804 L 821.1163411462804 809.8425414115734 L 821.0674199872586 809.737022081661 L 821.0208354508508 809.6312868809123 L 820.9765921954719 809.5253463827588 L 820.9346946454104 809.4192111811624 L 820.8951469903867 809.3128918895546 L 820.857953185133 809.2063991397761 L 820.8231169489992 809.099743581013 L 820.7906417655795 808.9929358787324 L 820.7605308823655 808.8859867136155 L 820.7327873104202 808.7789067804896 L 820.7074138240779 808.6717067872588 L 820.6844129606659 808.5643974538332 L 820.6637870202514 808.4569895110567 L 820.6455380654113 808.349493699634 L 820.6296679210259 808.2419207690567 L 820.6161781740964 808.1342814765281 L 820.6050701735861 808.026586585888 L 820.5963450302861 807.9188468665355 L 820.5900036167031 807.8110730923529 L 820.5860465669736 807.7032760406277 L 820.5844742767988 807.5954664909752" stroke-miterlimit="10" stroke-width="2.7769845610000004" stroke-dasharray=""/></g><g><g/><text fill="black" stroke="none" font-family="sans-serif" font-size="11pt" font-style="normal" font-weight="normal" text-decoration="normal" x="813.0558959009766" y="756.008058908818" text-anchor="start" dominant-baseline="alphabetic" xml:space="preserve">Database</text></g></g><g><path fill="white" stroke="black" paint-order="fill stroke markers" d=" M 73.50841485 182.64242307881818 L 89.84361814999998 182.64242307881818 L 89.84361814999998 682.499644058818 L 73.50841485 682.499644058818 L 73.50841485 182.64242307881818" stroke-miterlimit="10" stroke-width="1.3612669416666667" stroke-dasharray=""/><path fill="white" stroke="black" paint-order="fill stroke markers" d=" M 329.0232856495442 182.64242307881818 L 345.3584889495442 182.64242307881818 L 345.3584889495442 682.499644058818 L 329.0232856495442 682.499644058818 L 329.0232856495442 182.64242307881818" stroke-miterlimit="10" stroke-width="1.3612669416666667" stroke-dasharray=""/><path fill="white" stroke="black" paint-order="fill stroke markers" d=" M 577.9955539100259 228.3809923188182 L 594.330757210026 228.3809923188182 L 594.330757210026 682.499644058818 L 577.9955539100259 682.499644058818 L 577.9955539100259 228.3809923188182" stroke-miterlimit="10" stroke-width="1.3612669416666667" stroke-dasharray=""/><g><text fill="black" stroke="none" font-family="sans-serif" font-size="16pt" font-style="normal" font-weight="normal" text-decoration="normal" x="396.94718170166016" y="24.651306798181814" text-anchor="start" dominant-baseline="alphabetic" xml:space="preserve">Xahan</text></g><g><rect fill="white" stroke="none" x="132.48784059422522" y="161.4066587888182" width="153.89122261109375" height="21.23576429"/><text fill="black" stroke="none" font-family="sans-serif" font-size="11pt" font-style="normal" font-weight="normal" text-decoration="normal" x="134.9381210892252" y="176.10834175881817" text-anchor="start" dominant-baseline="alphabetic" xml:space="preserve">Chnhancnxa</text></g><g><path fill="none" stroke="black" paint-order="fill stroke markers" d=" M 89.84361814999998 182.64242307881818 L 315.57396826587757 182.64242307881818" stroke-miterlimit="10" stroke-width="1.3612669416666667" stroke-dasharray=""/><g transform="translate(329.0232856495442,182.64242307881818) translate(-329.0232856495442,-182.64242307881818)"><path fill="black" stroke="none" paint-order="stroke fill markers" d=" M 315.41061623287754 175.83608837048484 L 329.0232856495442 182.64242307881818 L 315.41061623287754 189.44875778715152 Z"/></g></g><g><rect fill="white" stroke="none" x="380.6512328171093" y="207.1452280288182" width="162.05157722535156" height="21.23576429"/><text fill="black" stroke="none" font-family="sans-serif" font-size="11pt" font-style="normal" font-weight="normal" text-decoration="normal" x="383.1015133121093" y="221.84691099881817" text-anchor="start" dominant-baseline="alphabetic" xml:space="preserve">GiIDhancnxa</text></g><g><path fill="none" stroke="black" paint-order="fill stroke markers" d=" M 345.3584889495442 228.3809923188182 L 564.5462365263593 228.3809923188182" stroke-miterlimit="10" stroke-width="1.3612669416666667" stroke-dasharray=""/><g transform="translate(577.9955539100259,228.3809923188182) translate(-577.9955539100259,-228.3809923188182)"><path fill="black" stroke="none" paint-order="stroke fill markers" d=" M 564.3828844933593 221.57465761048485 L 577.9955539100259 228.3809923188182 L 564.3828844933593 235.18732702715153 Z"/></g></g><g><rect fill="white" stroke="none" x="613.6607477816927" y="252.88379726881823" width="103.49751533570313" height="21.23576429"/><text fill="black" stroke="none" font-family="sans-serif" font-size="11pt" font-style="normal" font-weight="normal" text-decoration="normal" x="616.1110282766928" y="267.5854802388182" text-anchor="start" dominant-baseline="alphabetic" xml:space="preserve">Kimtraquyn</text></g><g><path fill="none" stroke="black" paint-order="fill stroke markers" d=" M 594.330757210026 274.1195615588182 L 659.671570410026 274.1195615588182 L 659.671570410026 295.3553258488182 L 607.7800745936927 295.3553258488182" stroke-miterlimit="10" stroke-width="1.3612669416666667" stroke-dasharray=""/><g transform="translate(594.330757210026,295.3553258488182) translate(-594.330757210026,-295.3553258488182)"><path fill="black" stroke="none" paint-order="stroke fill markers" d=" M 607.9434266266927 288.5489911404849 L 594.330757210026 295.3553258488182 L 607.9434266266927 302.16166055715155 Z"/></g></g><g><rect fill="white" stroke="none" x="613.6607477816926" y="363.9631797088182" width="211.44310249390625" height="21.23576429"/><text fill="black" stroke="none" font-family="sans-serif" font-size="11pt" font-style="normal" font-weight="normal" text-decoration="normal" x="616.1110282766927" y="378.66486267881817" text-anchor="start" dominant-baseline="alphabetic" xml:space="preserve">Xahankhicsdliu</text></g><g><path fill="none" stroke="black" paint-order="fill stroke markers" d=" M 594.330757210026 385.1989439988182 L 830.984523463599 385.1989439988182" stroke-miterlimit="10" stroke-width="1.3612669416666667" stroke-dasharray=""/><g transform="translate(844.4338408472656,385.1989439988182) translate(-844.4338408472656,-385.1989439988182)"><path fill="black" stroke="none" paint-order="stroke fill markers" d=" M 830.821171430599 378.39260929048487 L 844.4338408472656 385.1989439988182 L 830.821171430599 392.00527870715155 Z"/></g></g><g><rect fill="white" stroke="none" x="632.6514399203645" y="409.7017489488182" width="173.4617182165625" height="21.23576429"/><text fill="black" stroke="none" font-family="sans-serif" font-size="11pt" font-style="normal" font-weight="normal" text-decoration="normal" x="635.1017204153645" y="424.40343191881817" text-anchor="start" dominant-baseline="alphabetic" xml:space="preserve">Xcnhnhanxa</text></g><g><path fill="none" stroke="black" paint-order="fill stroke markers" d=" M 844.4338408472656 430.9375132388182 L 607.7800745936927 430.9375132388182" stroke-miterlimit="10" stroke-width="1.3612669416666667" stroke-dasharray="6.53408132"/><g transform="translate(594.330757210026,430.9375132388182) translate(-594.330757210026,-430.9375132388182)"><path fill="black" stroke="none" paint-order="stroke fill markers" d=" M 607.9434266266927 424.1311785304849 L 594.330757210026 430.9375132388182 L 607.9434266266927 437.74384794715155 Z"/></g></g><g><rect fill="white" stroke="none" x="372.01130209201165" y="455.4403181888182" width="179.33143867554688" height="21.23576429"/><text fill="black" stroke="none" font-family="sans-serif" font-size="11pt" font-style="normal" font-weight="normal" text-decoration="normal" x="374.46158258701166" y="470.1420011588182" text-anchor="start" dominant-baseline="alphabetic" xml:space="preserve">Thngboxathnhcng</text></g><g><path fill="none" stroke="black" paint-order="fill stroke markers" d=" M 577.9955539100259 476.6760824788182 L 358.80780633321086 476.6760824788182" stroke-miterlimit="10" stroke-width="1.3612669416666667" stroke-dasharray="6.53408132"/><g transform="translate(345.3584889495442,476.6760824788182) translate(-345.3584889495442,-476.6760824788182)"><path fill="black" stroke="none" paint-order="stroke fill markers" d=" M 358.9711583662109 469.8697477704849 L 345.3584889495442 476.6760824788182 L 358.9711583662109 483.48241718715155 Z"/></g></g><g><rect fill="white" stroke="none" x="109.17360872166661" y="501.17888742881814" width="200.51968635621094" height="21.23576429"/><text fill="black" stroke="none" font-family="sans-serif" font-size="11pt" font-style="normal" font-weight="normal" text-decoration="normal" x="111.62388921666661" y="515.8805703988181" text-anchor="start" dominant-baseline="alphabetic" xml:space="preserve">Hinththngbothnhcng</text></g><g><path fill="none" stroke="black" paint-order="fill stroke markers" d=" M 329.0232856495442 522.4146517188182 L 103.29293553366665 522.4146517188182" stroke-miterlimit="10" stroke-width="1.3612669416666667" stroke-dasharray="6.53408132"/><g transform="translate(89.84361814999998,522.4146517188182) translate(-89.84361814999998,-522.4146517188182)"><path fill="black" stroke="none" paint-order="stroke fill markers" d=" M 103.45628756666665 515.6083170104848 L 89.84361814999998 522.4146517188182 L 103.45628756666665 529.2209864271515 Z"/></g></g><g><rect fill="white" stroke="none" x="364.68847952121087" y="591.022505578818" width="193.97708381714844" height="21.23576429"/><text fill="black" stroke="none" font-family="sans-serif" font-size="11pt" font-style="normal" font-weight="normal" text-decoration="normal" x="367.1387600162109" y="605.724188548818" text-anchor="start" dominant-baseline="alphabetic" xml:space="preserve">Thngboliquyntruycp</text></g><g><path fill="none" stroke="black" paint-order="fill stroke markers" d=" M 577.9955539100259 612.258269868818 L 358.80780633321086 612.258269868818" stroke-miterlimit="10" stroke-width="1.3612669416666667" stroke-dasharray="6.53408132"/><g transform="translate(345.3584889495442,612.258269868818) translate(-345.3584889495442,-612.258269868818)"><path fill="black" stroke="none" paint-order="stroke fill markers" d=" M 358.9711583662109 605.4519351604847 L 345.3584889495442 612.258269868818 L 358.9711583662109 619.0646045771514 Z"/></g></g><g><rect fill="white" stroke="none" x="121.40338319676427" y="636.761074818818" width="176.06013740601563" height="21.23576429"/><text fill="black" stroke="none" font-family="sans-serif" font-size="11pt" font-style="normal" font-weight="normal" text-decoration="normal" x="123.85366369176427" y="651.462757788818" text-anchor="start" dominant-baseline="alphabetic" xml:space="preserve">Hinththngbothtbi</text></g><g><path fill="none" stroke="black" paint-order="fill stroke markers" d=" M 329.0232856495442 657.996839108818 L 103.29293553366665 657.996839108818" stroke-miterlimit="10" stroke-width="1.3612669416666667" stroke-dasharray="6.53408132"/><g transform="translate(89.84361814999998,657.996839108818) translate(-89.84361814999998,-657.996839108818)"><path fill="black" stroke="none" paint-order="stroke fill markers" d=" M 103.45628756666665 651.1905044004847 L 89.84361814999998 657.996839108818 L 103.45628756666665 664.8031738171513 Z"/></g></g><g><g/><path fill="none" stroke="black" paint-order="fill stroke markers" d=" M 16.33520329999999 319.8581307988182 L 901.6070523972656 319.8581307988182 L 901.6070523972656 682.499644058818 L 16.33520329999999 682.499644058818 L 16.33520329999999 319.8581307988182 Z" stroke-miterlimit="10" stroke-width="2.3336004714285714" stroke-dasharray=""/><path fill="white" stroke="black" paint-order="fill stroke markers" d=" M 16.33520329999999 319.8581307988182 L 16.33520329999999 339.4603747588182 L 62.6944068970703 339.4603747588182 L 72.4955288770703 329.6592527788182 L 72.4955288770703 319.8581307988182 L 16.33520329999999 319.8581307988182" stroke-miterlimit="10" stroke-width="2.3336004714285714" stroke-dasharray=""/><text fill="black" stroke="none" font-family="sans-serif" font-size="8.8pt" font-style="normal" font-weight="bold" text-decoration="normal" x="32.67040659999999" y="332.9262934388182" text-anchor="start" dominant-baseline="alphabetic" xml:space="preserve">alt</text><g><rect fill="white" stroke="none" x="86.3804516820703" y="321.1649470628182" width="88.1846186071875" height="16.988611432000003"/></g><text fill="black" stroke="none" font-family="sans-serif" font-size="8.8pt" font-style="normal" font-weight="bold" text-decoration="normal" x="88.8307321770703" y="332.9262934388182" text-anchor="start" dominant-baseline="alphabetic" xml:space="preserve">[Quynhpl]</text><g><path fill="none" stroke="black" paint-order="fill stroke markers" d=" M 16.33520329999999 546.9174566688181 L 901.6070523972656 546.9174566688181" stroke-miterlimit="10" stroke-width="2.3336004714285714" stroke-dasharray="4.083800825"/></g><g/><g><rect fill="white" stroke="none" x="86.3804516820703" y="548.224272932818" width="126.62782539429688" height="16.988611432000003"/></g><text fill="black" stroke="none" font-family="sans-serif" font-size="8.8pt" font-style="normal" font-weight="bold" text-decoration="normal" x="88.8307321770703" y="559.9856193088181" text-anchor="start" dominant-baseline="alphabetic" xml:space="preserve">[Quynkhnghpl]</text></g><g/></g><g/><g/><g/><g/></g></svg>