<svg xmlns="http://www.w3.org/2000/svg" xmlns:xlink="http://www.w3.org/1999/xlink" version="1.1" width="1003.1867026834634" height="1010.0204702238179"><desc>title%20%C4%90%E1%BB%95i%20m%E1%BA%ADt%20kh%E1%BA%A9u%0A%0Abottomparticipants%20%0A%0Aactor%20Landlord%0Aentity%20Client%0Aentity%20Backend%0Adatabase%20Database%0A%0ALandlord%20-%3E%20Client%3A%20Ch%E1%BB%8Dn%20%C4%91%E1%BB%95i%20m%E1%BA%ADt%20kh%E1%BA%A9u%20t%E1%BA%A1i%20menu%0A%0Aactivate%20Landlord%0A%0Aactivate%20Client%0A%0AClient%20-%3E%20Landlord%3A%20Hi%E1%BB%83n%20th%E1%BB%8B%20form%20%C4%91%E1%BB%95i%20m%E1%BA%ADt%20kh%E1%BA%A9u%0A%0ALandlord%20-%3E%20Client%3A%20Nh%E1%BA%ADp%20th%C3%B4ng%20tin%20m%E1%BA%ADt%20kh%E1%BA%A9u%20c%C5%A9%20v%C3%A0%20m%E1%BB%9Bi%0A%0AClient%20-%3E%20Client%3A%20Validate%20th%C3%B4ng%20tin%0A%0Aalt%20Kh%C3%B4ng%20%C4%91%C3%BAng%20y%C3%AAu%20c%E1%BA%A7u%0A%20%20Client%20--%3E%20Landlord%3A%20Th%C3%B4ng%20b%C3%A1o%20l%E1%BB%97i%0Aelse%20%C4%90%C3%BAng%20y%C3%AAu%20c%E1%BA%A7u%0A%20%20Client%20-%3E%20Backend%3A%20G%E1%BB%ADi%20th%C3%B4ng%20tin%0A%20%20%0A%20%20activate%20Backend%0A%20%20%0A%20%20Backend%20-%3E%20Backend%3A%20M%C3%A3%20h%C3%B3a%20m%E1%BA%ADt%20kh%E1%BA%A9u%0A%20%20%0A%20%20Backend%20-%3E%20Database%3A%20G%E1%BB%ADi%20th%C3%B4ng%20tin%0A%20%20%0A%20%20activate%20Database%0A%20%20%0A%20%20Database%20-%3E%20Database%3A%20L%C6%B0u%20th%C3%B4ng%20tin%0A%20%20%0A%20%20Database%20--%3E%20Backend%3A%20Tr%E1%BA%A3%20th%C3%B4ng%20tin%20m%E1%BA%ADt%20kh%E1%BA%A9u%20%C4%91%C3%A3%20m%C3%A3%20h%C3%B3a%0A%20%20%20%20%0A%20%20deactivate%20Database%0A%20%20%0A%20%20Backend%20--%3E%20Client%3A%20Th%C3%B4ng%20b%C3%A1o%20th%C3%A0nh%20c%C3%B4ng%0A%0A%20%20deactivate%20Backend%0A%0A%20%20Client%20--%3E%20Landlord%3A%20Th%C3%B4ng%20b%C3%A1o%20%C4%91%E1%BB%95i%20m%E1%BA%ADt%20kh%E1%BA%A9u%20th%C3%A0nh%20c%C3%B4ng%0A%20%20%0Aend%0A%0Adeactivate%20Landlord%0A%0Adeactivate%20Client%0A</desc><defs/><g><g/><g/><g/><g/><g/><g/><g/><g/><g/><g/><g/><g/><g/><g/><g/><g/><g/><g/><g/><g/><g/><g/><g/><g/><g/><g/><g/><g/><g/><g/><g/><g/><g/><g/><g/><g/><g/><g/><g/><g/><g/><g/><g/><g/><g/><g/><g/><g/><g/><g/><g/><g/><g/><g/><g/><g/><g/><g/><g/><g/><g/><g/><g/><g/><g/><g/><g/><g/><g/><g/><g/><g/><g/><g/><g/><g/><g/><g/><g/><g/><g/><g/><g/><g/><g/><g/><g/><g/><g/><g/><g/><g/><g/><g/><g/><g/><g/><g/><g/><g/><g/><g/><g/><g/><g/><g/><g/><g/><g/><g/><g/><g/><g/><g/><g/><g/><g/><g/><g/><g/><g/><g/><g><rect fill="white" stroke="none" x="0" y="0" width="1003" height="1010"/></g><g/><g><path fill="none" stroke="black" paint-order="fill stroke markers" d=" M 81.67601649999999 128.73625218881818 L 81.67601649999999 919.3600919088179" stroke-miterlimit="10" stroke-width="1.3612669416666667" stroke-dasharray="12.565541,5.445067766666667"/><path fill="none" stroke="black" paint-order="fill stroke markers" d=" M 376.3032682809896 128.73625218881818 L 376.3032682809896 919.3600919088179" stroke-miterlimit="10" stroke-width="1.3612669416666667" stroke-dasharray="12.565541,5.445067766666667"/><path fill="none" stroke="black" paint-order="fill stroke markers" d=" M 582.9205255551432 128.73625218881818 L 582.9205255551432 919.3600919088179" stroke-miterlimit="10" stroke-width="1.3612669416666667" stroke-dasharray="12.565541,5.445067766666667"/><path fill="none" stroke="black" paint-order="fill stroke markers" d=" M 862.3008290939453 128.73625218881818 L 862.3008290939453 919.3600919088179" stroke-miterlimit="10" stroke-width="1.3612669416666667" stroke-dasharray="12.565541,5.445067766666667"/></g><g><g><path fill="white" stroke="black" paint-order="fill stroke markers" d=" M 90.987082381 59.63834222981819 A 9.311065881 9.311065881 0 1 1 90.98707772546743 59.62903116548903 M 81.67601649999999 68.9494081108182 L 81.67601649999999 88.8783561368182 M 69.914670124 76.13689756281819 L 93.43736287599998 76.13689756281819 M 81.67601649999999 88.8783561368182 L 69.914670124 107.50048789881819 M 81.67601649999999 88.8783561368182 L 93.43736287599998 107.50048789881819" stroke-miterlimit="10" stroke-width="2.7769845610000004" stroke-dasharray=""/></g><g><g/><text fill="black" stroke="none" font-family="sans-serif" font-size="11pt" font-style="normal" font-weight="normal" text-decoration="normal" x="53.1470400595703" y="123.83569119881818" text-anchor="start" dominant-baseline="alphabetic" xml:space="preserve">Landlord</text></g><g><path fill="white" stroke="black" paint-order="fill stroke markers" d=" M 400.5610451814896 79.63263106901819 A 24.2577769005 24.2577769005 0 1 1 400.56103305260217 79.60837329616064 M 350.6569990999896 106.11199561831819 L 401.94953746198956 106.11199561831819" stroke-miterlimit="10" stroke-width="2.7769845610000004" stroke-dasharray=""/></g><g><g/><text fill="black" stroke="none" font-family="sans-serif" font-size="11pt" font-style="normal" font-weight="normal" text-decoration="normal" x="357.5631178293294" y="123.83569119881818" text-anchor="start" dominant-baseline="alphabetic" xml:space="preserve">Client</text></g><g><path fill="white" stroke="black" paint-order="fill stroke markers" d=" M 607.1783024556431 79.63263106901819 A 24.2577769005 24.2577769005 0 1 1 607.1782903267557 79.60837329616064 M 557.2742563741432 106.11199561831819 L 608.5667947361432 106.11199561831819" stroke-miterlimit="10" stroke-width="2.7769845610000004" stroke-dasharray=""/></g><g><g/><text fill="black" stroke="none" font-family="sans-serif" font-size="11pt" font-style="normal" font-weight="normal" text-decoration="normal" x="554.3951273007486" y="123.83569119881818" text-anchor="start" dominant-baseline="alphabetic" xml:space="preserve">Backend</text></g><g><path fill="white" stroke="black" paint-order="fill stroke markers" d=" M 838.4514322759453 96.71925372081819 L 838.4514322759453 62.41532679081819 L 886.1502259119452 62.41532679081819 L 886.1502259119452 96.71925372081819" stroke-miterlimit="10" stroke-width="2.7769845610000004" stroke-dasharray=""/><path fill="white" stroke="black" paint-order="fill stroke markers" d=" M 886.1502259119452 61.22285694991819 L 886.1490334520415 61.33066749483481 L 886.1454561915755 61.43846725878678 L 886.1394944882702 61.546245461887544 L 886.1311489382908 61.65399132640659 L 886.1204203761856 61.761694077847274 L 886.1073098748018 61.86934294602419 L 886.0918187451786 61.976927166140236 L 886.073948536416 62.084435979863045 L 886.0537010355199 62.19185863640084 L 886.0310782672237 62.299184393577484 L 886.0060824937854 62.4064025189067 L 885.9787162147613 62.51350229066531 L 885.9489821667568 62.62047299896537 L 885.9168833231516 62.7273039468252 L 885.8824228938036 62.83398445123905 L 885.8456043247268 62.94050384424536 L 885.8064312977474 63.04685147399361 L 885.7649077301356 63.15301670580944 L 885.7210377742136 63.25898892325815 L 885.6748258169403 63.364757529206294 L 885.626276479473 63.47031194688142 L 885.5753946167049 63.575641620929716 L 885.52218531678 63.68073601847156 L 885.4666539005838 63.78558463015478 L 885.4088059212118 63.89017697120557 L 885.3486471634136 63.994502582477 L 885.286183643015 64.09855103149486 L 885.2214216063157 64.20231191350096 L 885.1543675294657 64.3057748524936 L 885.0850281178168 64.40892950226505 L 885.0134103052521 64.51176554743633 L 884.9395212534935 64.61427270448858 L 884.8633683513845 64.71644072279157 L 884.7849592141516 64.81825938562858 L 884.7043016826435 64.91971851121816 L 884.6214038225461 65.02080795373233 L 884.5362739235762 65.12151760431107 L 884.4489204986528 65.22183739207324 L 884.3593522830456 65.32175728512367 L 884.2675782335016 65.42126729155632 L 884.1736075273491 65.52035746045347 L 884.0774495615806 65.6190178828808 L 883.9791139519125 65.71723869287828 L 883.8786105318236 65.81501006844678 L 883.7759493515725 65.91232223253022 L 883.6711406771915 66.00916545399325 L 883.5641949894606 66.10553004859446 L 883.4551229828596 66.20140637995469 L 883.3439355644983 66.29678486052069 L 883.2306438530258 66.39165595252388 L 883.1152591775189 66.48601016893414 L 882.9977930763488 66.57983807440844 L 882.8782572960279 66.67313028623443 L 882.7566637900346 66.76587747526865 L 882.6330247176182 66.85807036686953 L 882.5073524425828 66.94969974182469 L 882.3796595320514 67.04075643727302 L 882.2499587552084 67.13123134762085 L 882.1182630820234 67.22111542545254 L 881.9845856819542 67.3103996824352 L 881.8489399226293 67.39907519021754 L 881.7113393685114 67.4871330813227 L 881.5717977795415 67.57456455003492 L 881.4303291097622 67.6613608532802 L 881.2869475059224 67.74751331150055 L 881.1416673060633 67.83301330952195 L 880.9945030380834 67.91785229741582 L 880.8454694182873 68.00202179135408 L 880.6945813499124 68.08551337445749 L 880.54185392164 68.1683186976373 L 880.3873024060858 68.25042948043021 L 880.2309422582723 68.33183751182635 L 880.072789114084 68.41253465109044 L 879.9128587887037 68.4925128285758 L 879.7511672750305 68.5717640465313 L 879.5877307420812 68.65028037990122 L 879.4225655333727 68.72805397711764 L 879.2556881652883 68.80507706088565 L 879.0871153254259 68.88134192896105 L 878.9168638709288 68.95684095492061 L 878.7449508268006 69.03156658892462 L 878.5713933842026 69.10551135847197 L 878.3962088987342 69.17866786914732 L 878.2194148886982 69.25102880536058 L 878.0410290333482 69.3225869310784 L 877.8610691711209 69.39333509054786 L 877.6795532978529 69.46326620901198 L 877.4964995649799 69.53237329341717 L 877.3119262777229 69.60064943311258 L 877.1258518932567 69.66808780054113 L 876.9382950188648 69.7346816519223 L 876.7492744100781 69.80042432792644 L 876.5588089688002 69.86530925434072 L 876.3669177414164 69.92932994272657 L 876.1736199168896 69.9924799910685 L 875.9789348248411 70.05475308441433 L 875.7828819336179 70.1161429955066 L 875.5854808483457 70.17664358540536 L 875.3867513089687 70.23624880410202 L 875.1867131882749 70.29495269112441 L 874.98538648991 70.35274937613272 L 874.7827913463759 70.40963307950663 L 874.5789480170181 70.46559811292322 L 874.3738768859998 70.52063887992576 L 874.1675984602631 70.57474987648341 L 873.9601333674788 70.62792569154163 L 873.751502353983 70.68016100756323 L 873.5417262827036 70.73145060106012 L 873.3308261310726 70.78178934311569 L 873.1188229889295 70.8311721998977 L 872.9057380564119 70.8795942331616 L 872.6915926418355 70.92705060074444 L 872.4764081595632 70.973536557049 L 872.260206127864 71.01904745351838 L 872.0430081667608 71.06357873910088 L 871.8248359958689 71.10712596070502 L 871.6057114322233 71.14968476364494 L 871.3856563880979 71.19125089207583 L 871.1646928688139 71.23182018941947 L 870.9428429705389 71.27138859877994 L 870.7201288780778 71.30995216334925 L 870.4965728626544 71.34750702680313 L 870.272197279684 71.38404943368649 L 870.0470245665376 71.4195757297891 L 869.8210772402992 71.45408236251096 L 869.594377895513 71.48756588121756 L 869.3669492019246 71.52002293758491 L 869.1388139022138 71.55145028593446 L 868.9099948097205 71.58184478355753 L 868.6805148061632 71.61120339102969 L 868.4503968393511 71.63952317251467 L 868.219663920889 71.66680129605793 L 867.9883391238767 71.69303503386982 L 867.7564455806008 71.71822176259843 L 867.5240064802227 71.7423589635919 L 867.2910450664587 71.7654442231502 L 867.0575846352557 71.78747523276665 L 866.8236485324627 71.80844978935863 L 866.5892601514947 71.82836579548797 L 866.3544429309948 71.84722125957065 L 866.1192203524892 71.86501429607597 L 865.8836159380395 71.8817431257151 L 865.6476532478912 71.89740607561903 L 865.4113558781165 71.91200157950583 L 865.1747474582555 71.92552817783725 L 864.9378516489529 71.93798451796474 L 864.7006921395924 71.94936935426468 L 864.4632926459273 71.95968154826289 L 864.2256769077088 71.96892006874862 L 863.9878686863132 71.97708399187748 L 863.7498917623641 71.98417250126396 L 863.5117699333557 71.99018488806304 L 863.2735270112726 71.99512055104105 L 863.0351868202082 71.99897899663581 L 862.7967731939832 72.00175983900598 L 862.5583099737614 72.00346280006961 L 862.3198210056663 72.00408770953204 L 862.0813301383957 72.00363450490285 L 861.8428612208379 72.0021032315021 L 861.6044380996857 71.99949404245586 L 861.3660846170527 71.9958071986809 L 861.1278246080883 71.99104306885846 L 860.8896818985951 71.98520212939759 L 860.6516803026454 71.97828496438737 L 860.4138436202006 71.97029226553852 L 860.1761956347307 71.96122483211428 L 859.9387601108361 71.95108357085043 L 859.7015607918714 71.93986949586466 L 859.464621397571 71.92758372855508 L 859.2279656216767 71.91422749748824 L 858.9916171295689 71.89980213827607 L 858.7555995558998 71.8843090934425 L 858.5199365022303 71.86774991227908 L 858.2846515346691 71.85012625069015 L 858.0497681815172 71.83143987102717 L 857.8153099309138 71.81169264191253 L 857.581300228489 71.79088653805269 L 857.3477624750176 71.7690236400407 L 857.1147200240807 71.74610613414815 L 856.882196179729 71.72213631210651 L 856.6502141941531 71.69711657087802 L 856.4187972653585 71.67104941241597 L 856.187968534845 71.64393744341446 L 855.9577510852935 71.6157833750478 L 855.7281679382569 71.58659002269937 L 855.4992420518586 71.55636030568009 L 855.2709963184966 71.52509724693644 L 855.043453562554 71.49280397274828 L 854.8166365381167 71.45948371241609 L 854.5905679266982 71.42513979793813 L 854.3652703349712 71.38977566367726 L 854.1407662925071 71.35339484601741 L 853.9170782495232 71.31600098301004 L 853.6942285746373 71.27759781401028 L 853.4722395526312 71.23818917930303 L 853.2511333822222 71.19777901971894 L 853.0309321738428 71.15637137624027 L 852.8116579474306 71.11397038959687 L 852.5933326302254 71.07058029985207 L 852.375978054577 71.02620544597868 L 852.159615955762 70.98085026542512 L 851.9442679698096 70.93451929367163 L 851.7299556313394 70.8872171637768 L 851.5167003714063 70.8389486059142 L 851.3045235153588 70.78971844689937 L 851.0934462807055 70.7395316097072 L 850.8834897749941 70.6883931129796 L 850.6746749937003 70.6363080705236 L 850.4670228181279 70.58328169080006 L 850.2605540133218 70.52931927640276 L 850.0552892259901 70.47442622352818 L 849.8512489824407 70.41860802143584 L 849.6484536865277 70.36187025189946 L 849.4469236176119 70.3042185886487 L 849.2466789285322 70.24565879680183 L 849.0477396435906 70.18619673228926 L 848.8501256565498 70.12583834126788 L 848.653856728644 70.06458965952649 L 848.4589524866021 70.00245681188221 L 848.2654324206862 69.93944601156807 L 848.0733158827414 69.87556355961155 L 847.8826220842617 69.81081584420461 L 847.6933700944677 69.74520934006487 L 847.5055788384008 69.67875060778805 L 847.3192670950301 69.61144629319199 L 847.1344534953747 69.54330312665208 L 846.9511565206407 69.47432792242817 L 846.7693945003725 69.40452757798322 L 846.5891856106209 69.3339090732935 L 846.4105478721247 69.26247947015062 L 846.2334991485087 69.19024591145539 L 846.0580571444979 69.11721562050347 L 845.8842394041465 69.0433959002631 L 845.7120633090835 68.96879413264479 L 845.5415460767751 68.89341777776313 L 845.3727047588026 68.81727437319081 L 845.2055562391566 68.74037153320482 L 845.0401172325503 68.66271694802508 L 844.8764042827461 68.58431838304537 L 844.7144337609028 68.5051836780569 L 844.5542218639375 68.4253207464642 L 844.3957846129064 68.34473757449386 L 844.2391378514026 68.26344222039596 L 844.0842972439717 68.18144281363814 L 843.9312782745453 68.09874755409275 L 843.7800962448931 68.01536471121685 L 843.6307662730918 67.9313026232252 L 843.4833032920143 67.84656969625658 L 843.3377220478358 67.76117440353308 L 843.1940370985593 67.67512528451279 L 843.0522628125601 67.5884309440359 L 842.9124133671487 67.50110005146425 L 842.774502747153 67.41314133981427 L 842.6385447435199 67.32456360488388 L 842.5045529519368 67.23537570437271 L 842.3725407714711 67.14558655699653 L 842.2425214032307 67.05520514159522 L 842.1145078490442 66.96424049623502 L 841.9885129101604 66.87270171730466 L 841.864549185968 66.78059795860575 L 841.7426290727363 66.68793843043741 L 841.6227647623749 66.59473239867523 L 841.504968241215 66.50098918384472 L 841.3892512888106 66.40671816018926 L 841.2756254767603 66.31192875473263 L 841.1641021675509 66.2166304463364 L 841.0546925134203 66.120832764752 L 840.9474074552426 66.02454528966774 L 840.8422577214343 65.92777764975091 L 840.7392538268813 65.83053952168484 L 840.638406071887 65.73284062920132 L 840.5397245411428 65.63469074210818 L 840.4432191027199 65.53609967531233 L 840.3488994070815 65.4370772878383 L 840.2567748861185 65.33763348184232 L 840.1668547522063 65.23777820162212 L 840.0791479972834 65.13752143262249 L 839.993663391952 65.03687320043682 L 839.9104094846018 64.93584356980442 L 839.8293946005538 64.83444264360419 L 839.750626841229 64.73268056184422 L 839.6741140833377 64.63056750064791 L 839.5998639780919 64.52811367123628 L 839.5278839504404 64.42532931890689 L 839.4581811983256 64.32222472200931 L 839.3907626919652 64.21881019091732 L 839.3256351731532 64.11509606699785 L 839.2628051545872 64.01109272157687 L 839.2022789192171 63.90681055490224 L 839.1440625196155 63.80225999510374 L 839.0881617773744 63.697451497150205 L 839.0345822825209 63.59239554180411 L 838.9833293929601 63.48710263457343 L 838.9344082339383 63.381583304661156 L 838.8878236975304 63.27584810391234 L 838.8435804421515 63.16990760575894 L 838.8016828920901 63.06377240416249 L 838.7621352370663 62.95745311255472 L 838.7249414318127 62.85096036277616 L 838.6901051956788 62.744304804013076 L 838.6576300122591 62.63749710173245 L 838.6275191290451 62.530547936615505 L 838.5997755570999 62.423468003489624 L 838.5744020707575 62.316268010258895 L 838.5514012073455 62.208958676833305 L 838.5307752669311 62.10155073405677 L 838.5125263120909 61.99405492263407 L 838.4966561677055 61.88648199205676 L 838.483166420776 61.77884269952825 L 838.4720584202657 61.6711478088881 L 838.4633332769657 61.56340808953563 L 838.4569918633828 61.45563431535299 L 838.4530348136532 61.34783726362778 L 838.4514625234784 61.24002771397536 L 838.4522751500864 61.13221644726084 L 838.455472612215 61.02441424452105 L 838.4610545901206 60.916631885886424 L 838.4690205256103 60.808880149503025 L 838.479369622097 60.70116981045468 L 838.4921008446798 60.59351163968555 L 838.507212920247 60.48591640292299 L 838.5247043376036 60.378394859601016 L 838.5445733476224 60.27095776178435 L 838.566817963419 60.163615853093255 L 838.5914359605505 60.05637986762915 L 838.6184248772374 59.949260528901206 L 838.6477820146108 59.84226854875404 L 838.6795044369813 59.7354146262965 L 838.7135889721333 59.62870944683179 L 838.7500322116413 59.52216368078894 L 838.788830511212 59.41578798265577 L 838.8299799910477 59.30959298991343 L 838.8734765362348 59.203589321972714 L 838.9193157971548 59.09778757911208 L 838.96749318992 58.992198341417634 L 839.0180038968313 58.88683216772516 L 839.0708428668598 58.78169959456423 L 839.126004816153 58.67681113510454 L 839.1834842285616 58.57217727810464 L 839.2432753561924 58.46780848686303 L 839.3053722199822 58.36371519817185 L 839.3697686102968 58.25990782127324 L 839.4364580875506 58.15639673681838 L 839.5054339828514 58.053192295829454 L 839.5766893986672 57.950304818664556 L 839.6502172095159 57.84774459398567 L 839.7260100626775 57.745521877729786 L 839.8040603789299 57.64364689208335 L 839.8843603533066 57.54212982446004 L 839.966901955877 57.44098082648201 L 840.0516769325498 57.340210012964775 L 840.1386768058977 57.2398274609057 L 840.2278928760061 57.13984320847635 L 840.3193162213422 57.040267254018644 L 840.4129376996477 56.94110955504505 L 840.5087479488527 56.84238002724283 L 840.6067373880123 56.74408854348249 L 840.7068962182642 56.646244932830506 L 840.8092144238087 56.54885897956639 L 840.9136817729105 56.45194042220433 L 841.020287818922 56.35549895251929 L 841.1290219013273 56.25954421457787 L 841.2398731468086 56.16408580377391 L 841.352830470334 56.06913326586893 L 841.4678825762651 55.974696096037604 L 841.5850179594872 55.88078373791821 L 841.7042249065596 55.7874055826683 L 841.825491496887 55.694570968025594 L 841.9488056039115 55.60228917737418 L 842.0741548963249 55.51056943881623 L 842.2015268393026 55.41942092424918 L 842.3309086957564 55.328852748448504 L 842.4622875276085 55.23887396815633 L 842.5956501970851 55.14949358117568 L 842.7309833680305 55.0607205254708 L 842.8682735072404 54.97256367827326 L 843.0075068858151 54.88503185519433 L 843.148669580533 54.79813380934336 L 843.2917474752421 54.71187823045254 L 843.4367262622723 54.62627374400786 L 843.5835914438655 54.541328910386646 L 843.7323283336262 54.45705222400146 L 843.8829220579892 54.373452112450714 L 844.0353575577076 54.290536935675895 L 844.1896195893584 54.20831498512558 L 844.345692726867 54.12679448292632 L 844.5035613630498 54.0459835810604 L 844.6632097111748 53.965890360550645 L 844.8246218065399 53.88652283065238 L 844.9877815080704 53.80788892805245 L 845.1526724999319 53.72999651607559 L 845.3192782931628 53.652853383898076 L 845.4875822273226 53.57646724576885 L 845.6575674721579 53.50084574023808 L 845.8292170292862 53.42599642939328 L 846.0025137338946 53.35192679810317 L 846.1774402564571 53.278644253269164 L 846.3539791044673 53.20615612308466 L 846.5321126241873 53.13446965630228 L 846.7118230024139 53.06359202150896 L 846.8930922682588 52.99353030640911 L 847.0759022949464 52.924291517115876 L 847.2602348016267 52.85588257745046 L 847.4460713552024 52.78831032824984 L 847.633393372173 52.72158152668263 L 847.8221821204929 52.65570284557336 L 848.0124187214448 52.590680872735255 L 848.2040841515269 52.52652211031142 L 848.397159244356 52.463232974124615 L 848.5916246925837 52.40081979303573 L 848.7874610498272 52.33928880831086 L 848.984648732614 52.278646172997206 L 849.1831680223403 52.21889795130775 L 849.3829990672423 52.160050118014894 L 849.5841218843821 52.1021085578529 L 849.7865163616457 52.045079064929524 L 849.990162259754 51.98896734214652 L 850.1950392142868 51.933779000629414 L 850.4011267377194 51.87951955916637 L 850.6084042214713 51.826194443656306 L 850.8168509379668 51.77380898656634 L 851.026446042708 51.72236842639853 L 851.237168576359 51.67187790716602 L 851.448997466842 51.622342477878675 L 851.6619115314446 51.57376709203812 L 851.8758894789378 51.526156607142475 L 852.090909911705 51.47951578420055 L 852.3069513278822 51.43384928725578 L 852.5239921235077 51.38916168291979 L 852.742010594683 51.34545743991578 L 852.9609849397426 51.302740928631636 L 853.1808932614344 51.261016420682886 L 853.4017135691096 51.220288088485546 L 853.6234237809213 51.18056000483891 L 853.8460017260331 51.14183614251822 L 854.0694251468361 51.10412037387746 L 854.2936717011743 51.06741647046204 L 854.5187189645792 51.03172810263173 L 854.7445444325119 50.99705883919358 L 854.971125522614 50.96341214704502 L 855.1984395769651 50.930791390827245 L 855.4264638643492 50.899199832588685 L 855.6551755825277 50.86864063145883 L 855.8845518605193 50.83911684333235 L 856.1145697608874 50.81063142056343 L 856.3452062820336 50.78318721167063 L 856.576438360498 50.75678696105195 L 856.8082428732653 50.731433308710464 L 857.0405966400776 50.70712878999027 L 857.2734764257518 50.683875835323 L 857.5068589425034 50.66167676998473 L 857.7407208522752 50.6405338138635 L 857.975038769071 50.6204490812373 L 858.2097892612945 50.60142458056266 L 858.4449488540921 50.583462214273794 L 858.6804940317005 50.566563778592354 L 858.9164012397981 50.55073096334783 L 859.1526468878609 50.53596535180856 L 859.3892073515207 50.52226842052339 L 859.6260589749285 50.50964153917403 L 859.8631780731191 50.49808597043808 L 860.1005409343805 50.48760286986282 L 860.3381238226243 50.47819328574954 L 860.5759029797596 50.46985815904882 L 860.813854628069 50.462598323266384 L 861.0519549725857 50.456414504379765 L 861.2901802034738 50.45130732076569 L 861.5285064984089 50.44727728313828 L 861.7669100249599 50.444324794497916 L 862.0053669429727 50.44245015009101 L 862.2438534069546 50.44165353738045 L 862.4823455684576 50.44193503602685 L 862.7208195784644 50.443294617880554 L 862.9592515897729 50.445732146984525 L 863.1976177593804 50.44924737958788 L 863.4358942508686 50.45383996417029 L 863.6740572367871 50.459509441477124 L 863.9120829010357 50.46625524456538 L 864.1499474412461 50.474076698860365 L 864.3876270711628 50.48297302222316 L 864.6250980230209 50.49294332502887 L 864.8623365499228 50.50398661025549 L 865.0993189282137 50.51610177358371 L 865.3360214598533 50.52928760350731 L 865.5724204747856 50.54354278145426 L 865.8084923333063 50.55886588191867 L 866.0442134284259 50.575255372603245 L 866.2795601882316 50.592709614572584 L 866.5145090782435 50.61122686241703 L 866.7490366037682 50.630805264427224 L 866.983119312249 50.651442862779284 L 867.2167337956097 50.67313759373059 L 867.4498566925968 50.695887287826096 L 867.6824646911149 50.71968967011537 L 867.914534530558 50.74454236038002 L 868.1460430041354 50.77044287337172 L 868.3769669611929 50.797388619060754 L 868.6072833095271 50.825376902895016 L 868.8369690176951 50.85440492606945 L 869.0660011173175 50.88446978580591 L 869.2943567053751 50.9155684756435 L 869.5220129464996 50.947697885739125 L 869.7489470752563 50.980854803178566 L 869.9751363984217 51.01503591229771 L 870.200558297252 51.05023779501413 L 870.4251902297449 51.08645693116888 L 870.6490097328946 51.12368969887854 L 870.8719944249372 51.16193237489736 L 871.0941220075891 51.201181134989596 L 871.3153702682777 51.241432054311964 L 871.5357170823607 51.28268110780607 L 871.7551404153406 51.32492417060092 L 871.973618325067 51.368157018425464 L 872.191128963931 51.41237532803093 L 872.4076505810498 51.45757467762322 L 872.6231615244421 51.503750547305025 L 872.8376402431934 51.55089831952786 L 873.0510652896104 51.5990132795538 L 873.2634153213663 51.64809061592693 L 873.474669103635 51.69812542095451 L 873.6848055112142 51.749112691197745 L 873.8938035306383 51.801047327972086 L 874.1016422622795 51.85392413785714 L 874.3083009224378 51.90773783321599 L 874.5137588454195 51.962483032723924 L 874.7179954856034 52.01815426190663 L 874.9209904194958 52.07474595368758 L 875.1227233477723 52.132252448944755 L 875.3231740973084 52.190667997076545 L 875.522322623196 52.24998675657682 L 875.7201490107486 52.310202795619055 L 875.9166334774923 52.371310092649544 L 876.1117563751441 52.43330253698949 L 876.3054981915768 52.49617392944612 L 876.4978395527702 52.559917982932596 L 876.6887612247486 52.62452832309667 L 876.8782441155038 52.68999848895818 L 877.0662692769047 52.7563219335551 L 877.2528179065918 52.823492024598224 L 877.4378713498575 52.89150204513444 L 877.6214111015117 52.960345194218355 L 877.8034188077324 53.03001458759244 L 877.9838762679005 53.10050325837541 L 878.1627654364204 53.171804157758935 L 878.3400684245241 53.243910155712484 L 878.515767502061 53.31681404169635 L 878.6898450992693 53.39050852538269 L 878.8622838085346 53.46498623738456 L 879.0330663861296 53.5402397299928 L 879.2021757539388 53.61626147792087 L 879.3695950011664 53.69304387905734 L 879.5353073860273 53.770579255226075 L 879.699296337421 53.848859852954064 L 879.8615454565889 53.92787784424677 L 880.0220385187546 54.00762532737092 L 880.1807594747454 54.08809432764465 L 880.3376924525979 54.16927679823499 L 880.4928217591453 54.251164620962534 L 880.6461318815861 54.33374960711325 L 880.7976074890358 54.41702349825734 L 880.94723343406 54.500977967075094 L 881.0949947541887 54.58560461818958 L 881.2408766734133 54.670894989006214 L 881.3848646036631 54.75684055055899 L 881.5269441462654 54.84343270836337 L 881.6671010933841 54.93066280327574 L 881.8053214294413 55.0185221123593 L 881.9415913325187 55.107001849756344 L 882.0758971757394 55.196093167566886 L 882.2082255286313 55.28578715673337 L 882.3385631584689 55.37607484793163 L 882.4668970315983 55.46694721246779 L 882.5932143147389 55.55839516318112 L 882.7175023762676 55.65040955535275 L 882.839748787482 55.742981187620146 L 882.9599413238427 55.83610080289723 L 883.0780679661964 55.92975908930006 L 883.194116901977 56.02394668107806 L 883.3080765263879 56.11865415955053 L 883.4199354435616 56.213872054048544 L 883.5296824676994 56.30959084286201 L 883.6373066241906 56.405800954191804 L 883.7427971507091 56.50249276710697 L 883.8461434982901 56.5996566125068 L 883.947335332385 56.69728277408771 L 884.0463625338949 56.79536148931491 L 884.1432152001819 56.89388295039859 L 884.2378836460603 56.99283730527477 L 884.3303584047642 57.09221465859041 L 884.420630228895 57.19200507269298 L 884.5086900913453 57.29219856862425 L 884.5945291862024 57.39278512711811 L 884.6781389296284 57.49375468960253 L 884.7595109607183 57.59509715920541 L 884.8386371423372 57.69680240176424 L 884.9155095619327 57.79886024683951 L 884.9901205323268 57.90126048873177 L 885.062462592485 58.003992887502164 L 885.1325285082611 58.10704716999642 L 885.2003112731221 58.21041303087217 L 885.2658041088481 58.31408013362946 L 885.3290004662099 58.41803811164441 L 885.3898940256247 58.52227656920584 L 885.4484786977871 58.62678508255487 L 885.5047486242787 58.731553200927245 L 885.5586981781539 58.83657044759845 L 885.6103219645022 58.94182632093131 L 885.6596148209878 59.04731029542622 L 885.7065718183665 59.153011822773635 L 885.7511882609773 59.25892033290889 L 885.7934596872134 59.36502523506925 L 885.8333818699672 59.471315918852895 L 885.8709508170539 59.57778175528004 L 885.9061627716098 59.684412097855756 L 885.9390142124691 59.79119628363465 L 885.9695018545151 59.89812363428712 L 885.9976226490088 60.005183457167206 L 886.0233737838942 60.11236504638185 L 886.0467526840794 60.21965768386144 L 886.0677570116936 60.327050640431644 L 886.0863846663219 60.43453317688629 L 886.1026337852142 60.5420945450613 L 886.1165027434721 60.6497239889095 L 886.1279901542114 60.757410745576195 L 886.1370948687005 60.86514404647545 L 886.1438159764757 60.972913118366954 L 886.1481528054317 61.08070718443333 L 886.1501049218892 61.188515465357796 M 886.1502259119452 95.52678387991818 L 886.1490334520415 95.6345944248348 L 886.1454561915755 95.74239418878678 L 886.1394944882702 95.85017239188754 L 886.1311489382908 95.95791825640659 L 886.1204203761856 96.06562100784727 L 886.1073098748018 96.1732698760242 L 886.0918187451786 96.28085409614023 L 886.073948536416 96.38836290986303 L 886.0537010355199 96.49578556640084 L 886.0310782672237 96.60311132357748 L 886.0060824937854 96.7103294489067 L 885.9787162147613 96.8174292206653 L 885.9489821667568 96.92439992896537 L 885.9168833231516 97.0312308768252 L 885.8824228938036 97.13791138123905 L 885.8456043247268 97.24443077424536 L 885.8064312977474 97.35077840399362 L 885.7649077301356 97.45694363580944 L 885.7210377742136 97.56291585325815 L 885.6748258169403 97.66868445920629 L 885.626276479473 97.77423887688141 L 885.5753946167049 97.8795685509297 L 885.52218531678 97.98466294847155 L 885.4666539005838 98.08951156015478 L 885.4088059212118 98.19410390120557 L 885.3486471634136 98.29842951247699 L 885.286183643015 98.40247796149485 L 885.2214216063157 98.50623884350097 L 885.1543675294657 98.60970178249359 L 885.0850281178168 98.71285643226504 L 885.0134103052521 98.81569247743631 L 884.9395212534935 98.91819963448859 L 884.8633683513845 99.02036765279156 L 884.7849592141516 99.12218631562857 L 884.7043016826435 99.22364544121817 L 884.6214038225461 99.32473488373233 L 884.5362739235762 99.42544453431107 L 884.4489204986528 99.52576432207324 L 884.3593522830456 99.62568421512367 L 884.2675782335016 99.72519422155631 L 884.1736075273491 99.82428439045346 L 884.0774495615806 99.92294481288079 L 883.9791139519125 100.02116562287829 L 883.8786105318236 100.11893699844678 L 883.7759493515725 100.2162491625302 L 883.6711406771915 100.31309238399325 L 883.5641949894606 100.40945697859446 L 883.4551229828596 100.50533330995468 L 883.3439355644983 100.60071179052068 L 883.2306438530258 100.69558288252388 L 883.1152591775189 100.78993709893413 L 882.9977930763488 100.88376500440843 L 882.8782572960279 100.97705721623441 L 882.7566637900346 101.06980440526866 L 882.6330247176182 101.16199729686952 L 882.5073524425828 101.25362667182469 L 882.3796595320514 101.34468336727302 L 882.2499587552084 101.43515827762084 L 882.1182630820234 101.52504235545253 L 881.9845856819542 101.61432661243519 L 881.8489399226293 101.70300212021755 L 881.7113393685114 101.7910600113227 L 881.5717977795415 101.87849148003492 L 881.4303291097622 101.9652877832802 L 881.2869475059224 102.05144024150056 L 881.1416673060633 102.13694023952193 L 880.9945030380834 102.22177922741581 L 880.8454694182873 102.30594872135407 L 880.6945813499124 102.38944030445748 L 880.54185392164 102.47224562763729 L 880.3873024060858 102.5543564104302 L 880.2309422582723 102.63576444182635 L 880.072789114084 102.71646158109044 L 879.9128587887037 102.79643975857579 L 879.7511672750305 102.8756909765313 L 879.5877307420812 102.95420730990122 L 879.4225655333727 103.03198090711763 L 879.2556881652883 103.10900399088564 L 879.0871153254259 103.18526885896105 L 878.9168638709288 103.2607678849206 L 878.7449508268006 103.33549351892461 L 878.5713933842026 103.40943828847196 L 878.3962088987342 103.48259479914732 L 878.2194148886982 103.55495573536056 L 878.0410290333482 103.6265138610784 L 877.8610691711209 103.69726202054787 L 877.6795532978529 103.76719313901197 L 877.4964995649799 103.83630022341715 L 877.3119262777229 103.90457636311257 L 877.1258518932567 103.97201473054113 L 876.9382950188648 104.03860858192229 L 876.7492744100781 104.10435125792642 L 876.5588089688002 104.1692361843407 L 876.3669177414164 104.23325687272656 L 876.1736199168896 104.29640692106851 L 875.9789348248411 104.35868001441433 L 875.7828819336179 104.4200699255066 L 875.5854808483457 104.48057051540535 L 875.3867513089687 104.54017573410202 L 875.1867131882749 104.5988796211244 L 874.98538648991 104.65667630613272 L 874.7827913463759 104.71356000950664 L 874.5789480170181 104.7695250429232 L 874.3738768859998 104.82456580992574 L 874.1675984602631 104.87867680648341 L 873.9601333674788 104.93185262154162 L 873.751502353983 104.98408793756322 L 873.5417262827036 105.0353775310601 L 873.3308261310726 105.08571627311568 L 873.1188229889295 105.13509912989768 L 872.9057380564119 105.1835211631616 L 872.6915926418355 105.23097753074444 L 872.4764081595632 105.27746348704899 L 872.260206127864 105.32297438351839 L 872.0430081667608 105.36750566910086 L 871.8248359958689 105.41105289070501 L 871.6057114322233 105.45361169364494 L 871.3856563880979 105.49517782207583 L 871.1646928688139 105.53574711941947 L 870.9428429705389 105.57531552877992 L 870.7201288780778 105.61387909334925 L 870.4965728626544 105.65143395680312 L 870.272197279684 105.68797636368647 L 870.0470245665376 105.72350265978909 L 869.8210772402992 105.75800929251095 L 869.594377895513 105.79149281121755 L 869.3669492019246 105.82394986758491 L 869.1388139022138 105.85537721593445 L 868.9099948097205 105.88577171355752 L 868.6805148061632 105.9151303210297 L 868.4503968393511 105.94345010251467 L 868.219663920889 105.97072822605791 L 867.9883391238767 105.99696196386981 L 867.7564455806008 106.02214869259844 L 867.5240064802227 106.04628589359189 L 867.2910450664587 106.0693711531502 L 867.0575846352557 106.09140216276666 L 866.8236485324627 106.11237671935864 L 866.5892601514947 106.13229272548797 L 866.3544429309948 106.15114818957065 L 866.1192203524892 106.16894122607596 L 865.8836159380395 106.1856700557151 L 865.6476532478912 106.20133300561903 L 865.4113558781165 106.21592850950582 L 865.1747474582555 106.22945510783724 L 864.9378516489529 106.24191144796474 L 864.7006921395924 106.25329628426466 L 864.4632926459273 106.2636084782629 L 864.2256769077088 106.2728469987486 L 863.9878686863132 106.28101092187747 L 863.7498917623641 106.28809943126396 L 863.5117699333557 106.29411181806304 L 863.2735270112726 106.29904748104106 L 863.0351868202082 106.30290592663582 L 862.7967731939832 106.30568676900597 L 862.5583099737614 106.30738973006962 L 862.3198210056663 106.30801463953205 L 862.0813301383957 106.30756143490284 L 861.8428612208379 106.3060301615021 L 861.6044380996857 106.30342097245587 L 861.3660846170527 106.29973412868088 L 861.1278246080883 106.29496999885845 L 860.8896818985951 106.28912905939758 L 860.6516803026454 106.28221189438736 L 860.4138436202006 106.27421919553852 L 860.1761956347307 106.26515176211427 L 859.9387601108361 106.25501050085043 L 859.7015607918714 106.24379642586464 L 859.464621397571 106.23151065855508 L 859.2279656216767 106.21815442748823 L 858.9916171295689 106.20372906827606 L 858.7555995558998 106.1882360234425 L 858.5199365022303 106.17167684227908 L 858.2846515346691 106.15405318069014 L 858.0497681815172 106.13536680102716 L 857.8153099309138 106.11561957191253 L 857.581300228489 106.09481346805269 L 857.3477624750176 106.0729505700407 L 857.1147200240807 106.05003306414814 L 856.882196179729 106.0260632421065 L 856.6502141941531 106.00104350087803 L 856.4187972653585 105.97497634241597 L 856.187968534845 105.94786437341445 L 855.9577510852935 105.9197103050478 L 855.7281679382569 105.89051695269937 L 855.4992420518586 105.86028723568009 L 855.2709963184966 105.82902417693644 L 855.043453562554 105.79673090274827 L 854.8166365381167 105.76341064241608 L 854.5905679266982 105.72906672793813 L 854.3652703349712 105.69370259367726 L 854.1407662925071 105.6573217760174 L 853.9170782495232 105.61992791301003 L 853.6942285746373 105.58152474401028 L 853.4722395526312 105.54211610930304 L 853.2511333822222 105.50170594971894 L 853.0309321738428 105.46029830624026 L 852.8116579474306 105.41789731959686 L 852.5933326302254 105.37450722985206 L 852.375978054577 105.33013237597868 L 852.159615955762 105.28477719542511 L 851.9442679698096 105.23844622367163 L 851.7299556313394 105.1911440937768 L 851.5167003714063 105.14287553591419 L 851.3045235153588 105.09364537689936 L 851.0934462807055 105.0434585397072 L 850.8834897749941 104.99232004297959 L 850.6746749937003 104.9402350005236 L 850.4670228181279 104.88720862080007 L 850.2605540133218 104.83324620640276 L 850.0552892259901 104.77835315352817 L 849.8512489824407 104.72253495143585 L 849.6484536865277 104.66579718189945 L 849.4469236176119 104.60814551864868 L 849.2466789285322 104.54958572680184 L 849.0477396435906 104.49012366228926 L 848.8501256565498 104.42976527126788 L 848.653856728644 104.36851658952648 L 848.4589524866021 104.30638374188221 L 848.2654324206862 104.24337294156805 L 848.0733158827414 104.17949048961154 L 847.8826220842617 104.11474277420461 L 847.6933700944677 104.04913627006486 L 847.5055788384008 103.98267753778805 L 847.3192670950301 103.91537322319199 L 847.1344534953747 103.84723005665208 L 846.9511565206407 103.77825485242818 L 846.7693945003725 103.70845450798322 L 846.5891856106209 103.63783600329349 L 846.4105478721247 103.56640640015061 L 846.2334991485087 103.49417284145538 L 846.0580571444979 103.42114255050346 L 845.8842394041465 103.3473228302631 L 845.7120633090835 103.27272106264479 L 845.5415460767751 103.19734470776314 L 845.3727047588026 103.1212013031908 L 845.2055562391566 103.04429846320481 L 845.0401172325503 102.96664387802507 L 844.8764042827461 102.88824531304537 L 844.7144337609028 102.8091106080569 L 844.5542218639375 102.72924767646418 L 844.3957846129064 102.64866450449387 L 844.2391378514026 102.56736915039596 L 844.0842972439717 102.48536974363815 L 843.9312782745453 102.40267448409276 L 843.7800962448931 102.31929164121684 L 843.6307662730918 102.2352295532252 L 843.4833032920143 102.15049662625658 L 843.3377220478358 102.06510133353308 L 843.1940370985593 101.97905221451278 L 843.0522628125601 101.89235787403591 L 842.9124133671487 101.80502698146424 L 842.774502747153 101.71706826981428 L 842.6385447435199 101.62849053488388 L 842.5045529519368 101.53930263437272 L 842.3725407714711 101.44951348699652 L 842.2425214032307 101.35913207159521 L 842.1145078490442 101.26816742623502 L 841.9885129101604 101.17662864730465 L 841.864549185968 101.08452488860574 L 841.7426290727363 100.9918653604374 L 841.6227647623749 100.89865932867522 L 841.504968241215 100.80491611384473 L 841.3892512888106 100.71064509018925 L 841.2756254767603 100.61585568473262 L 841.1641021675509 100.5205573763364 L 841.0546925134203 100.424759694752 L 840.9474074552426 100.32847221966773 L 840.8422577214343 100.2317045797509 L 840.7392538268813 100.13446645168483 L 840.638406071887 100.03676755920131 L 840.5397245411428 99.93861767210817 L 840.4432191027199 99.84002660531232 L 840.3488994070815 99.7410042178383 L 840.2567748861185 99.64156041184232 L 840.1668547522063 99.54170513162211 L 840.0791479972834 99.4414483626225 L 839.993663391952 99.34080013043682 L 839.9104094846018 99.23977049980442 L 839.8293946005538 99.13836957360418 L 839.750626841229 99.03660749184422 L 839.6741140833377 98.9344944306479 L 839.5998639780919 98.83204060123627 L 839.5278839504404 98.72925624890688 L 839.4581811983256 98.6261516520093 L 839.3907626919652 98.52273712091731 L 839.3256351731532 98.41902299699785 L 839.2628051545872 98.31501965157686 L 839.2022789192171 98.21073748490224 L 839.1440625196155 98.10618692510373 L 839.0881617773744 98.0013784271502 L 839.0345822825209 97.89632247180411 L 838.9833293929601 97.79102956457344 L 838.9344082339383 97.68551023466115 L 838.8878236975304 97.57977503391233 L 838.8435804421515 97.47383453575894 L 838.8016828920901 97.3676993341625 L 838.7621352370663 97.2613800425547 L 838.7249414318127 97.15488729277617 L 838.6901051956788 97.04823173401307 L 838.6576300122591 96.94142403173245 L 838.6275191290451 96.8344748666155 L 838.5997755570999 96.72739493348962 L 838.5744020707575 96.6201949402589 L 838.5514012073455 96.51288560683331 L 838.5307752669311 96.40547766405678 L 838.5125263120909 96.29798185263407 L 838.4966561677055 96.19040892205675 L 838.483166420776 96.08276962952824 L 838.4720584202657 95.9750747388881 L 838.4633332769657 95.86733501953563 L 838.4569918633828 95.75956124535298 L 838.4530348136532 95.65176419362778 L 838.4514625234784 95.54395464397535" stroke-miterlimit="10" stroke-width="2.7769845610000004" stroke-dasharray=""/></g><g><g/><text fill="black" stroke="none" font-family="sans-serif" font-size="11pt" font-style="normal" font-weight="normal" text-decoration="normal" x="830.9228841476562" y="123.83569119881818" text-anchor="start" dominant-baseline="alphabetic" xml:space="preserve">Database</text></g><g><path fill="white" stroke="black" paint-order="fill stroke markers" d=" M 90.987082381 951.295414360318 A 9.311065881 9.311065881 0 1 1 90.98707772546743 951.2861032959888 M 81.67601649999999 960.606480241318 L 81.67601649999999 980.5354282673179 M 69.914670124 967.793969693318 L 93.43736287599998 967.793969693318 M 81.67601649999999 980.5354282673179 L 69.914670124 999.157560029318 M 81.67601649999999 980.5354282673179 L 93.43736287599998 999.157560029318" stroke-miterlimit="10" stroke-width="2.7769845610000004" stroke-dasharray=""/></g><g><g/><text fill="black" stroke="none" font-family="sans-serif" font-size="11pt" font-style="normal" font-weight="normal" text-decoration="normal" x="53.1470400595703" y="935.6952952088179" text-anchor="start" dominant-baseline="alphabetic" xml:space="preserve">Landlord</text></g><g><path fill="white" stroke="black" paint-order="fill stroke markers" d=" M 400.5610451814896 966.7975222920179 A 24.2577769005 24.2577769005 0 1 1 400.56103305260217 966.7732645191603 M 350.6569990999896 993.2768868413178 L 401.94953746198956 993.2768868413178" stroke-miterlimit="10" stroke-width="2.7769845610000004" stroke-dasharray=""/></g><g><g/><text fill="black" stroke="none" font-family="sans-serif" font-size="11pt" font-style="normal" font-weight="normal" text-decoration="normal" x="357.5631178293294" y="935.6952952088179" text-anchor="start" dominant-baseline="alphabetic" xml:space="preserve">Client</text></g><g><path fill="white" stroke="black" paint-order="fill stroke markers" d=" M 607.1783024556431 966.7975222920179 A 24.2577769005 24.2577769005 0 1 1 607.1782903267557 966.7732645191603 M 557.2742563741432 993.2768868413178 L 608.5667947361432 993.2768868413178" stroke-miterlimit="10" stroke-width="2.7769845610000004" stroke-dasharray=""/></g><g><g/><text fill="black" stroke="none" font-family="sans-serif" font-size="11pt" font-style="normal" font-weight="normal" text-decoration="normal" x="554.3951273007486" y="935.6952952088179" text-anchor="start" dominant-baseline="alphabetic" xml:space="preserve">Backend</text></g><g><path fill="white" stroke="black" paint-order="fill stroke markers" d=" M 838.4514322759453 988.4580018678179 L 838.4514322759453 954.1540749378178 L 886.1502259119452 954.1540749378178 L 886.1502259119452 988.4580018678179" stroke-miterlimit="10" stroke-width="2.7769845610000004" stroke-dasharray=""/><path fill="white" stroke="black" paint-order="fill stroke markers" d=" M 886.1502259119452 952.9616050969178 L 886.1490334520415 953.0694156418344 L 886.1454561915755 953.1772154057863 L 886.1394944882702 953.2849936088871 L 886.1311489382908 953.3927394734062 L 886.1204203761856 953.5004422248469 L 886.1073098748018 953.6080910930237 L 886.0918187451786 953.7156753131399 L 886.073948536416 953.8231841268627 L 886.0537010355199 953.9306067834004 L 886.0310782672237 954.0379325405771 L 886.0060824937854 954.1451506659063 L 885.9787162147613 954.2522504376649 L 885.9489821667568 954.359221145965 L 885.9168833231516 954.4660520938248 L 885.8824228938036 954.5727325982386 L 885.8456043247268 954.6792519912449 L 885.8064312977474 954.7855996209931 L 885.7649077301356 954.891764852809 L 885.7210377742136 954.9977370702577 L 885.6748258169403 955.1035056762058 L 885.626276479473 955.209060093881 L 885.5753946167049 955.3143897679292 L 885.52218531678 955.4194841654711 L 885.4666539005838 955.5243327771543 L 885.4088059212118 955.6289251182052 L 885.3486471634136 955.7332507294766 L 885.286183643015 955.8372991784944 L 885.2214216063157 955.9410600605005 L 885.1543675294657 956.0445229994932 L 885.0850281178168 956.1476776492647 L 885.0134103052521 956.2505136944359 L 884.9395212534935 956.3530208514882 L 884.8633683513845 956.4551888697912 L 884.7849592141516 956.5570075326282 L 884.7043016826435 956.6584666582178 L 884.6214038225461 956.7595561007319 L 884.5362739235762 956.8602657513106 L 884.4489204986528 956.9605855390728 L 884.3593522830456 957.0605054321233 L 884.2675782335016 957.1600154385559 L 884.1736075273491 957.2591056074531 L 884.0774495615806 957.3577660298804 L 883.9791139519125 957.4559868398778 L 883.8786105318236 957.5537582154464 L 883.7759493515725 957.6510703795298 L 883.6711406771915 957.7479136009928 L 883.5641949894606 957.844278195594 L 883.4551229828596 957.9401545269543 L 883.3439355644983 958.0355330075203 L 883.2306438530258 958.1304040995235 L 883.1152591775189 958.2247583159337 L 882.9977930763488 958.318586221408 L 882.8782572960279 958.411878433234 L 882.7566637900346 958.5046256222682 L 882.6330247176182 958.5968185138692 L 882.5073524425828 958.6884478888243 L 882.3796595320514 958.7795045842726 L 882.2499587552084 958.8699794946205 L 882.1182630820234 958.9598635724522 L 881.9845856819542 959.0491478294348 L 881.8489399226293 959.1378233372171 L 881.7113393685114 959.2258812283222 L 881.5717977795415 959.3133126970345 L 881.4303291097622 959.4001090002798 L 881.2869475059224 959.4862614585002 L 881.1416673060633 959.5717614565215 L 880.9945030380834 959.6566004444154 L 880.8454694182873 959.7407699383537 L 880.6945813499124 959.8242615214571 L 880.54185392164 959.9070668446369 L 880.3873024060858 959.9891776274297 L 880.2309422582723 960.070585658826 L 880.072789114084 960.15128279809 L 879.9128587887037 960.2312609755754 L 879.7511672750305 960.3105121935308 L 879.5877307420812 960.3890285269008 L 879.4225655333727 960.4668021241172 L 879.2556881652883 960.5438252078852 L 879.0871153254259 960.6200900759607 L 878.9168638709288 960.6955891019202 L 878.7449508268006 960.7703147359242 L 878.5713933842026 960.8442595054715 L 878.3962088987342 960.917416016147 L 878.2194148886982 960.9897769523601 L 878.0410290333482 961.061335078078 L 877.8610691711209 961.1320832375475 L 877.6795532978529 961.2020143560115 L 877.4964995649799 961.2711214404168 L 877.3119262777229 961.3393975801122 L 877.1258518932567 961.4068359475407 L 876.9382950188648 961.4734297989219 L 876.7492744100781 961.539172474926 L 876.5588089688002 961.6040574013402 L 876.3669177414164 961.6680780897261 L 876.1736199168896 961.7312281380681 L 875.9789348248411 961.7935012314139 L 875.7828819336179 961.8548911425062 L 875.5854808483457 961.9153917324049 L 875.3867513089687 961.9749969511016 L 875.1867131882749 962.033700838124 L 874.98538648991 962.0914975231323 L 874.7827913463759 962.1483812265062 L 874.5789480170181 962.2043462599228 L 874.3738768859998 962.2593870269253 L 874.1675984602631 962.313498023483 L 873.9601333674788 962.3666738385413 L 873.751502353983 962.4189091545628 L 873.5417262827036 962.4701987480597 L 873.3308261310726 962.5205374901153 L 873.1188229889295 962.5699203468972 L 872.9057380564119 962.6183423801612 L 872.6915926418355 962.665798747744 L 872.4764081595632 962.7122847040486 L 872.260206127864 962.757795600518 L 872.0430081667608 962.8023268861004 L 871.8248359958689 962.8458741077046 L 871.6057114322233 962.8884329106445 L 871.3856563880979 962.9299990390754 L 871.1646928688139 962.9705683364191 L 870.9428429705389 963.0101367457795 L 870.7201288780778 963.0487003103489 L 870.4965728626544 963.0862551738027 L 870.272197279684 963.1227975806861 L 870.0470245665376 963.1583238767887 L 869.8210772402992 963.1928305095105 L 869.594377895513 963.2263140282171 L 869.3669492019246 963.2587710845845 L 869.1388139022138 963.2901984329341 L 868.9099948097205 963.3205929305572 L 868.6805148061632 963.3499515380292 L 868.4503968393511 963.3782713195143 L 868.219663920889 963.4055494430575 L 867.9883391238767 963.4317831808694 L 867.7564455806008 963.456969909598 L 867.5240064802227 963.4811071105914 L 867.2910450664587 963.5041923701498 L 867.0575846352557 963.5262233797662 L 866.8236485324627 963.5471979363582 L 866.5892601514947 963.5671139424876 L 866.3544429309948 963.5859694065703 L 866.1192203524892 963.6037624430755 L 865.8836159380395 963.6204912727147 L 865.6476532478912 963.6361542226186 L 865.4113558781165 963.6507497265054 L 865.1747474582555 963.6642763248368 L 864.9378516489529 963.6767326649643 L 864.7006921395924 963.6881175012643 L 864.4632926459273 963.6984296952625 L 864.2256769077088 963.7076682157482 L 863.9878686863132 963.7158321388771 L 863.7498917623641 963.7229206482635 L 863.5117699333557 963.7289330350626 L 863.2735270112726 963.7338686980406 L 863.0351868202082 963.7377271436354 L 862.7967731939832 963.7405079860056 L 862.5583099737614 963.7422109470692 L 862.3198210056663 963.7428358565317 L 862.0813301383957 963.7423826519024 L 861.8428612208379 963.7408513785017 L 861.6044380996857 963.7382421894555 L 861.3660846170527 963.7345553456805 L 861.1278246080883 963.7297912158581 L 860.8896818985951 963.7239502763972 L 860.6516803026454 963.717033111387 L 860.4138436202006 963.7090404125381 L 860.1761956347307 963.6999729791139 L 859.9387601108361 963.68983171785 L 859.7015607918714 963.6786176428642 L 859.464621397571 963.6663318755546 L 859.2279656216767 963.6529756444878 L 858.9916171295689 963.6385502852756 L 858.7555995558998 963.6230572404421 L 858.5199365022303 963.6064980592787 L 858.2846515346691 963.5888743976898 L 858.0497681815172 963.5701880180268 L 857.8153099309138 963.550440788912 L 857.581300228489 963.5296346850523 L 857.3477624750176 963.5077717870403 L 857.1147200240807 963.4848542811477 L 856.882196179729 963.4608844591061 L 856.6502141941531 963.4358647178776 L 856.4187972653585 963.4097975594156 L 856.187968534845 963.382685590414 L 855.9577510852935 963.3545315220474 L 855.7281679382569 963.325338169699 L 855.4992420518586 963.2951084526796 L 855.2709963184966 963.263845393936 L 855.043453562554 963.2315521197479 L 854.8166365381167 963.1982318594156 L 854.5905679266982 963.1638879449378 L 854.3652703349712 963.1285238106768 L 854.1407662925071 963.092142993017 L 853.9170782495232 963.0547491300097 L 853.6942285746373 963.0163459610098 L 853.4722395526312 962.9769373263026 L 853.2511333822222 962.9365271667185 L 853.0309321738428 962.8951195232398 L 852.8116579474306 962.8527185365964 L 852.5933326302254 962.8093284468516 L 852.375978054577 962.7649535929783 L 852.159615955762 962.7195984124247 L 851.9442679698096 962.6732674406712 L 851.7299556313394 962.6259653107763 L 851.5167003714063 962.5776967529138 L 851.3045235153588 962.528466593899 L 851.0934462807055 962.4782797567068 L 850.8834897749941 962.4271412599792 L 850.6746749937003 962.3750562175231 L 850.4670228181279 962.3220298377996 L 850.2605540133218 962.2680674234024 L 850.0552892259901 962.2131743705278 L 849.8512489824407 962.1573561684354 L 849.6484536865277 962.1006183988991 L 849.4469236176119 962.0429667356483 L 849.2466789285322 961.9844069438014 L 849.0477396435906 961.9249448792889 L 848.8501256565498 961.8645864882675 L 848.653856728644 961.8033378065261 L 848.4589524866021 961.7412049588818 L 848.2654324206862 961.6781941585676 L 848.0733158827414 961.6143117066111 L 847.8826220842617 961.5495639912042 L 847.6933700944677 961.4839574870645 L 847.5055788384008 961.4174987547876 L 847.3192670950301 961.3501944401916 L 847.1344534953747 961.2820512736516 L 846.9511565206407 961.2130760694278 L 846.7693945003725 961.1432757249828 L 846.5891856106209 961.0726572202931 L 846.4105478721247 961.0012276171502 L 846.2334991485087 960.9289940584549 L 846.0580571444979 960.855963767503 L 845.8842394041465 960.7821440472627 L 845.7120633090835 960.7075422796444 L 845.5415460767751 960.6321659247627 L 845.3727047588026 960.5560225201904 L 845.2055562391566 960.4791196802043 L 845.0401172325503 960.4014650950246 L 844.8764042827461 960.3230665300449 L 844.7144337609028 960.2439318250565 L 844.5542218639375 960.1640688934638 L 844.3957846129064 960.0834857214934 L 844.2391378514026 960.0021903673955 L 844.0842972439717 959.9201909606377 L 843.9312782745453 959.8374957010923 L 843.7800962448931 959.7541128582164 L 843.6307662730918 959.6700507702247 L 843.4833032920143 959.5853178432561 L 843.3377220478358 959.4999225505327 L 843.1940370985593 959.4138734315123 L 843.0522628125601 959.3271790910355 L 842.9124133671487 959.2398481984638 L 842.774502747153 959.1518894868138 L 842.6385447435199 959.0633117518835 L 842.5045529519368 958.9741238513723 L 842.3725407714711 958.8843347039962 L 842.2425214032307 958.7939532885948 L 842.1145078490442 958.7029886432346 L 841.9885129101604 958.6114498643043 L 841.864549185968 958.5193461056053 L 841.7426290727363 958.426686577437 L 841.6227647623749 958.3334805456748 L 841.504968241215 958.2397373308443 L 841.3892512888106 958.1454663071888 L 841.2756254767603 958.0506769017322 L 841.1641021675509 957.9553785933359 L 841.0546925134203 957.8595809117516 L 840.9474074552426 957.7632934366674 L 840.8422577214343 957.6665257967505 L 840.7392538268813 957.5692876686844 L 840.638406071887 957.4715887762009 L 840.5397245411428 957.3734388891078 L 840.4432191027199 957.2748478223119 L 840.3488994070815 957.1758254348379 L 840.2567748861185 957.0763816288419 L 840.1668547522063 956.9765263486217 L 840.0791479972834 956.8762695796221 L 839.993663391952 956.7756213474364 L 839.9104094846018 956.674591716804 L 839.8293946005538 956.5731907906038 L 839.750626841229 956.4714287088437 L 839.6741140833377 956.3693156476475 L 839.5998639780919 956.2668618182358 L 839.5278839504404 956.1640774659064 L 839.4581811983256 956.0609728690089 L 839.3907626919652 955.9575583379169 L 839.3256351731532 955.8538442139974 L 839.2628051545872 955.7498408685765 L 839.2022789192171 955.6455587019018 L 839.1440625196155 955.5410081421034 L 839.0881617773744 955.4361996441498 L 839.0345822825209 955.3311436888036 L 838.9833293929601 955.2258507815731 L 838.9344082339383 955.1203314516607 L 838.8878236975304 955.014596250912 L 838.8435804421515 954.9086557527585 L 838.8016828920901 954.802520551162 L 838.7621352370663 954.6962012595543 L 838.7249414318127 954.5897085097757 L 838.6901051956788 954.4830529510126 L 838.6576300122591 954.3762452487321 L 838.6275191290451 954.2692960836151 L 838.5997755570999 954.1622161504893 L 838.5744020707575 954.0550161572585 L 838.5514012073455 953.9477068238328 L 838.5307752669311 953.8402988810564 L 838.5125263120909 953.7328030696336 L 838.4966561677055 953.6252301390564 L 838.483166420776 953.5175908465278 L 838.4720584202657 953.4098959558877 L 838.4633332769657 953.3021562365352 L 838.4569918633828 953.1943824623526 L 838.4530348136532 953.0865854106273 L 838.4514625234784 952.9787758609749 L 838.4522751500864 952.8709645942604 L 838.455472612215 952.7631623915206 L 838.4610545901206 952.655380032886 L 838.4690205256103 952.5476282965026 L 838.479369622097 952.4399179574542 L 838.4921008446798 952.3322597866851 L 838.507212920247 952.2246645499225 L 838.5247043376036 952.1171430066006 L 838.5445733476224 952.0097059087839 L 838.566817963419 951.9023640000928 L 838.5914359605505 951.7951280146287 L 838.6184248772374 951.6880086759007 L 838.6477820146108 951.5810166957536 L 838.6795044369813 951.474162773296 L 838.7135889721333 951.3674575938313 L 838.7500322116413 951.2609118277885 L 838.788830511212 951.1545361296553 L 838.8299799910477 951.048341136913 L 838.8734765362348 950.9423374689723 L 838.9193157971548 950.8365357261116 L 838.96749318992 950.7309464884172 L 839.0180038968313 950.6255803147247 L 839.0708428668598 950.5204477415638 L 839.126004816153 950.4155592821041 L 839.1834842285616 950.3109254251042 L 839.2432753561924 950.2065566338626 L 839.3053722199822 950.1024633451714 L 839.3697686102968 949.9986559682728 L 839.4364580875506 949.8951448838179 L 839.5054339828514 949.7919404428291 L 839.5766893986672 949.6890529656641 L 839.6502172095159 949.5864927409852 L 839.7260100626775 949.4842700247293 L 839.8040603789299 949.3823950390829 L 839.8843603533066 949.2808779714596 L 839.966901955877 949.1797289734816 L 840.0516769325498 949.0789581599644 L 840.1386768058977 948.9785756079053 L 840.2278928760061 948.8785913554759 L 840.3193162213422 948.7790154010182 L 840.4129376996477 948.6798577020446 L 840.5087479488527 948.5811281742424 L 840.6067373880123 948.482836690482 L 840.7068962182642 948.3849930798301 L 840.8092144238087 948.287607126566 L 840.9136817729105 948.1906885692039 L 841.020287818922 948.0942470995188 L 841.1290219013273 947.9982923615775 L 841.2398731468086 947.9028339507735 L 841.352830470334 947.8078814128685 L 841.4678825762651 947.7134442430372 L 841.5850179594872 947.6195318849178 L 841.7042249065596 947.5261537296678 L 841.825491496887 947.4333191150251 L 841.9488056039115 947.3410373243738 L 842.0741548963249 947.2493175858158 L 842.2015268393026 947.1581690712487 L 842.3309086957564 947.0676008954481 L 842.4622875276085 946.9776221151559 L 842.5956501970851 946.8882417281752 L 842.7309833680305 946.7994686724704 L 842.8682735072404 946.7113118252728 L 843.0075068858151 946.6237800021939 L 843.148669580533 946.536881956343 L 843.2917474752421 946.4506263774521 L 843.4367262622723 946.3650218910075 L 843.5835914438655 946.2800770573863 L 843.7323283336262 946.195800371001 L 843.8829220579892 946.1122002594503 L 844.0353575577076 946.0292850826754 L 844.1896195893584 945.9470631321252 L 844.345692726867 945.8655426299259 L 844.5035613630498 945.78473172806 L 844.6632097111748 945.7046385075503 L 844.8246218065399 945.625270977652 L 844.9877815080704 945.546637075052 L 845.1526724999319 945.4687446630752 L 845.3192782931628 945.3916015308977 L 845.4875822273226 945.3152153927684 L 845.6575674721579 945.2395938872377 L 845.8292170292862 945.1647445763929 L 846.0025137338946 945.0906749451027 L 846.1774402564571 945.0173924002687 L 846.3539791044673 944.9449042700842 L 846.5321126241873 944.8732178033018 L 846.7118230024139 944.8023401685085 L 846.8930922682588 944.7322784534086 L 847.0759022949464 944.6630396641154 L 847.2602348016267 944.59463072445 L 847.4460713552024 944.5270584752494 L 847.633393372173 944.4603296736822 L 847.8221821204929 944.394450992573 L 848.0124187214448 944.3294290197348 L 848.2040841515269 944.265270257311 L 848.397159244356 944.2019811211242 L 848.5916246925837 944.1395679400352 L 848.7874610498272 944.0780369553104 L 848.984648732614 944.0173943199968 L 849.1831680223403 943.9576460983074 L 849.3829990672423 943.8987982650144 L 849.5841218843821 943.8408567048525 L 849.7865163616457 943.7838272119291 L 849.990162259754 943.7277154891461 L 850.1950392142868 943.672527147629 L 850.4011267377194 943.618267706166 L 850.6084042214713 943.5649425906558 L 850.8168509379668 943.5125571335659 L 851.026446042708 943.4611165733982 L 851.237168576359 943.4106260541656 L 851.448997466842 943.3610906248782 L 851.6619115314446 943.3125152390377 L 851.8758894789378 943.2649047541421 L 852.090909911705 943.2182639312001 L 852.3069513278822 943.1725974342554 L 852.5239921235077 943.1279098299194 L 852.742010594683 943.0842055869153 L 852.9609849397426 943.0414890756313 L 853.1808932614344 942.9997645676824 L 853.4017135691096 942.9590362354851 L 853.6234237809213 942.9193081518384 L 853.8460017260331 942.8805842895179 L 854.0694251468361 942.842868520877 L 854.2936717011743 942.8061646174616 L 854.5187189645792 942.7704762496313 L 854.7445444325119 942.7358069861932 L 854.971125522614 942.7021602940446 L 855.1984395769651 942.6695395378268 L 855.4264638643492 942.6379479795883 L 855.6551755825277 942.6073887784584 L 855.8845518605193 942.5778649903319 L 856.1145697608874 942.549379567563 L 856.3452062820336 942.5219353586702 L 856.576438360498 942.4955351080515 L 856.8082428732653 942.4701814557101 L 857.0405966400776 942.4458769369899 L 857.2734764257518 942.4226239823225 L 857.5068589425034 942.4004249169843 L 857.7407208522752 942.3792819608631 L 857.975038769071 942.3591972282369 L 858.2097892612945 942.3401727275623 L 858.4449488540921 942.3222103612734 L 858.6804940317005 942.3053119255919 L 858.9164012397981 942.2894791103474 L 859.1526468878609 942.2747134988082 L 859.3892073515207 942.2610165675229 L 859.6260589749285 942.2483896861736 L 859.8631780731191 942.2368341174376 L 860.1005409343805 942.2263510168624 L 860.3381238226243 942.2169414327491 L 860.5759029797596 942.2086063060484 L 860.813854628069 942.201346470266 L 861.0519549725857 942.1951626513793 L 861.2901802034738 942.1900554677653 L 861.5285064984089 942.1860254301379 L 861.7669100249599 942.1830729414975 L 862.0053669429727 942.1811982970906 L 862.2438534069546 942.1804016843801 L 862.4823455684576 942.1806831830264 L 862.7208195784644 942.1820427648802 L 862.9592515897729 942.184480293984 L 863.1976177593804 942.1879955265874 L 863.4358942508686 942.1925881111699 L 863.6740572367871 942.1982575884767 L 863.9120829010357 942.205003391565 L 864.1499474412461 942.2128248458599 L 864.3876270711628 942.2217211692227 L 864.6250980230209 942.2316914720284 L 864.8623365499228 942.2427347572551 L 865.0993189282137 942.2548499205833 L 865.3360214598533 942.2680357505069 L 865.5724204747856 942.2822909284538 L 865.8084923333063 942.2976140289182 L 866.0442134284259 942.3140035196028 L 866.2795601882316 942.3314577615722 L 866.5145090782435 942.3499750094167 L 866.7490366037682 942.3695534114268 L 866.983119312249 942.3901910097788 L 867.2167337956097 942.4118857407302 L 867.4498566925968 942.4346354348256 L 867.6824646911149 942.4584378171149 L 867.914534530558 942.4832905073796 L 868.1460430041354 942.5091910203713 L 868.3769669611929 942.5361367660603 L 868.6072833095271 942.5641250498946 L 868.8369690176951 942.5931530730691 L 869.0660011173175 942.6232179328055 L 869.2943567053751 942.654316622643 L 869.5220129464996 942.6864460327387 L 869.7489470752563 942.7196029501781 L 869.9751363984217 942.7537840592973 L 870.200558297252 942.7889859420137 L 870.4251902297449 942.8252050781684 L 870.6490097328946 942.8624378458782 L 870.8719944249372 942.9006805218969 L 871.0941220075891 942.9399292819892 L 871.3153702682777 942.9801802013116 L 871.5357170823607 943.0214292548056 L 871.7551404153406 943.0636723176005 L 871.973618325067 943.106905165425 L 872.191128963931 943.1511234750305 L 872.4076505810498 943.1963228246228 L 872.6231615244421 943.2424986943046 L 872.8376402431934 943.2896464665274 L 873.0510652896104 943.3377614265534 L 873.2634153213663 943.3868387629265 L 873.474669103635 943.4368735679541 L 873.6848055112142 943.4878608381973 L 873.8938035306383 943.5397954749717 L 874.1016422622795 943.5926722848567 L 874.3083009224378 943.6464859802155 L 874.5137588454195 943.7012311797235 L 874.7179954856034 943.7569024089062 L 874.9209904194958 943.8134941006872 L 875.1227233477723 943.8710005959443 L 875.3231740973084 943.9294161440761 L 875.522322623196 943.9887349035764 L 875.7201490107486 944.0489509426186 L 875.9166334774923 944.1100582396491 L 876.1117563751441 944.172050683989 L 876.3054981915768 944.2349220764457 L 876.4978395527702 944.2986661299321 L 876.6887612247486 944.3632764700963 L 876.8782441155038 944.4287466359577 L 877.0662692769047 944.4950700805547 L 877.2528179065918 944.5622401715978 L 877.4378713498575 944.630250192134 L 877.6214111015117 944.6990933412179 L 877.8034188077324 944.768762734592 L 877.9838762679005 944.839251405375 L 878.1627654364204 944.9105523047585 L 878.3400684245241 944.982658302712 L 878.515767502061 945.055562188696 L 878.6898450992693 945.1292566723823 L 878.8622838085346 945.2037343843841 L 879.0330663861296 945.2789878769923 L 879.2021757539388 945.3550096249204 L 879.3695950011664 945.4317920260569 L 879.5353073860273 945.5093274022256 L 879.699296337421 945.5876079999537 L 879.8615454565889 945.6666259912464 L 880.0220385187546 945.7463734743704 L 880.1807594747454 945.8268424746442 L 880.3376924525979 945.9080249452346 L 880.4928217591453 945.9899127679621 L 880.6461318815861 946.0724977541129 L 880.7976074890358 946.1557716452569 L 880.94723343406 946.2397261140746 L 881.0949947541887 946.3243527651891 L 881.2408766734133 946.4096431360058 L 881.3848646036631 946.4955886975586 L 881.5269441462654 946.5821808553629 L 881.6671010933841 946.6694109502753 L 881.8053214294413 946.7572702593588 L 881.9415913325187 946.8457499967559 L 882.0758971757394 946.9348413145665 L 882.2082255286313 947.0245353037329 L 882.3385631584689 947.1148229949312 L 882.4668970315983 947.2056953594673 L 882.5932143147389 947.2971433101807 L 882.7175023762676 947.3891577023523 L 882.839748787482 947.4817293346197 L 882.9599413238427 947.5748489498968 L 883.0780679661964 947.6685072362997 L 883.194116901977 947.7626948280777 L 883.3080765263879 947.8574023065501 L 883.4199354435616 947.9526202010481 L 883.5296824676994 948.0483389898616 L 883.6373066241906 948.1445491011914 L 883.7427971507091 948.2412409141066 L 883.8461434982901 948.3384047595064 L 883.947335332385 948.4360309210873 L 884.0463625338949 948.5341096363145 L 884.1432152001819 948.6326310973982 L 884.2378836460603 948.7315854522743 L 884.3303584047642 948.8309628055899 L 884.420630228895 948.9307532196925 L 884.5086900913453 949.0309467156238 L 884.5945291862024 949.1315332741177 L 884.6781389296284 949.2325028366021 L 884.7595109607183 949.333845306205 L 884.8386371423372 949.4355505487638 L 884.9155095619327 949.537608393839 L 884.9901205323268 949.6400086357313 L 885.062462592485 949.7427410345017 L 885.1325285082611 949.845795316996 L 885.2003112731221 949.9491611778717 L 885.2658041088481 950.052828280629 L 885.3290004662099 950.1567862586439 L 885.3898940256247 950.2610247162054 L 885.4484786977871 950.3655332295544 L 885.5047486242787 950.4703013479268 L 885.5586981781539 950.575318594598 L 885.6103219645022 950.6805744679309 L 885.6596148209878 950.7860584424258 L 885.7065718183665 950.8917599697733 L 885.7511882609773 950.9976684799085 L 885.7934596872134 951.1037733820688 L 885.8333818699672 951.2100640658525 L 885.8709508170539 951.3165299022796 L 885.9061627716098 951.4231602448554 L 885.9390142124691 951.5299444306343 L 885.9695018545151 951.6368717812867 L 885.9976226490088 951.7439316041667 L 886.0233737838942 951.8511131933815 L 886.0467526840794 951.958405830861 L 886.0677570116936 952.0657987874312 L 886.0863846663219 952.1732813238858 L 886.1026337852142 952.2808426920609 L 886.1165027434721 952.3884721359091 L 886.1279901542114 952.4961588925757 L 886.1370948687005 952.6038921934751 L 886.1438159764757 952.7116612653665 L 886.1481528054317 952.8194553314329 L 886.1501049218892 952.9272636123574 M 886.1502259119452 987.2655320269179 L 886.1490334520415 987.3733425718345 L 886.1454561915755 987.4811423357864 L 886.1394944882702 987.5889205388872 L 886.1311489382908 987.6966664034063 L 886.1204203761856 987.804369154847 L 886.1073098748018 987.9120180230238 L 886.0918187451786 988.01960224314 L 886.073948536416 988.1271110568628 L 886.0537010355199 988.2345337134005 L 886.0310782672237 988.3418594705772 L 886.0060824937854 988.4490775959064 L 885.9787162147613 988.556177367665 L 885.9489821667568 988.6631480759651 L 885.9168833231516 988.7699790238249 L 885.8824228938036 988.8766595282387 L 885.8456043247268 988.9831789212451 L 885.8064312977474 989.0895265509932 L 885.7649077301356 989.1956917828091 L 885.7210377742136 989.3016640002578 L 885.6748258169403 989.4074326062059 L 885.626276479473 989.5129870238811 L 885.5753946167049 989.6183166979293 L 885.52218531678 989.7234110954712 L 885.4666539005838 989.8282597071544 L 885.4088059212118 989.9328520482053 L 885.3486471634136 990.0371776594767 L 885.286183643015 990.1412261084945 L 885.2214216063157 990.2449869905006 L 885.1543675294657 990.3484499294933 L 885.0850281178168 990.4516045792648 L 885.0134103052521 990.554440624436 L 884.9395212534935 990.6569477814883 L 884.8633683513845 990.7591157997913 L 884.7849592141516 990.8609344626283 L 884.7043016826435 990.9623935882179 L 884.6214038225461 991.063483030732 L 884.5362739235762 991.1641926813107 L 884.4489204986528 991.2645124690729 L 884.3593522830456 991.3644323621234 L 884.2675782335016 991.463942368556 L 884.1736075273491 991.5630325374532 L 884.0774495615806 991.6616929598805 L 883.9791139519125 991.7599137698779 L 883.8786105318236 991.8576851454465 L 883.7759493515725 991.9549973095299 L 883.6711406771915 992.0518405309929 L 883.5641949894606 992.1482051255941 L 883.4551229828596 992.2440814569544 L 883.3439355644983 992.3394599375204 L 883.2306438530258 992.4343310295236 L 883.1152591775189 992.5286852459338 L 882.9977930763488 992.6225131514082 L 882.8782572960279 992.7158053632342 L 882.7566637900346 992.8085525522683 L 882.6330247176182 992.9007454438693 L 882.5073524425828 992.9923748188244 L 882.3796595320514 993.0834315142727 L 882.2499587552084 993.1739064246206 L 882.1182630820234 993.2637905024523 L 881.9845856819542 993.3530747594349 L 881.8489399226293 993.4417502672172 L 881.7113393685114 993.5298081583223 L 881.5717977795415 993.6172396270346 L 881.4303291097622 993.7040359302799 L 881.2869475059224 993.7901883885003 L 881.1416673060633 993.8756883865216 L 880.9945030380834 993.9605273744155 L 880.8454694182873 994.0446968683538 L 880.6945813499124 994.1281884514572 L 880.54185392164 994.210993774637 L 880.3873024060858 994.2931045574298 L 880.2309422582723 994.3745125888261 L 880.072789114084 994.4552097280902 L 879.9128587887037 994.5351879055755 L 879.7511672750305 994.6144391235309 L 879.5877307420812 994.6929554569009 L 879.4225655333727 994.7707290541173 L 879.2556881652883 994.8477521378853 L 879.0871153254259 994.9240170059608 L 878.9168638709288 994.9995160319203 L 878.7449508268006 995.0742416659243 L 878.5713933842026 995.1481864354716 L 878.3962088987342 995.221342946147 L 878.2194148886982 995.2937038823602 L 878.0410290333482 995.365262008078 L 877.8610691711209 995.4360101675476 L 877.6795532978529 995.5059412860116 L 877.4964995649799 995.5750483704169 L 877.3119262777229 995.6433245101123 L 877.1258518932567 995.7107628775408 L 876.9382950188648 995.777356728922 L 876.7492744100781 995.8430994049261 L 876.5588089688002 995.9079843313403 L 876.3669177414164 995.9720050197262 L 876.1736199168896 996.0351550680682 L 875.9789348248411 996.097428161414 L 875.7828819336179 996.1588180725063 L 875.5854808483457 996.219318662405 L 875.3867513089687 996.2789238811017 L 875.1867131882749 996.3376277681241 L 874.98538648991 996.3954244531324 L 874.7827913463759 996.4523081565063 L 874.5789480170181 996.5082731899229 L 874.3738768859998 996.5633139569254 L 874.1675984602631 996.6174249534831 L 873.9601333674788 996.6706007685414 L 873.751502353983 996.7228360845629 L 873.5417262827036 996.7741256780598 L 873.3308261310726 996.8244644201154 L 873.1188229889295 996.8738472768973 L 872.9057380564119 996.9222693101613 L 872.6915926418355 996.9697256777441 L 872.4764081595632 997.0162116340487 L 872.260206127864 997.0617225305181 L 872.0430081667608 997.1062538161005 L 871.8248359958689 997.1498010377047 L 871.6057114322233 997.1923598406446 L 871.3856563880979 997.2339259690755 L 871.1646928688139 997.2744952664192 L 870.9428429705389 997.3140636757796 L 870.7201288780778 997.352627240349 L 870.4965728626544 997.3901821038028 L 870.272197279684 997.4267245106862 L 870.0470245665376 997.4622508067888 L 869.8210772402992 997.4967574395106 L 869.594377895513 997.5302409582173 L 869.3669492019246 997.5626980145846 L 869.1388139022138 997.5941253629342 L 868.9099948097205 997.6245198605573 L 868.6805148061632 997.6538784680293 L 868.4503968393511 997.6821982495144 L 868.219663920889 997.7094763730576 L 867.9883391238767 997.7357101108695 L 867.7564455806008 997.7608968395981 L 867.5240064802227 997.7850340405915 L 867.2910450664587 997.8081193001499 L 867.0575846352557 997.8301503097663 L 866.8236485324627 997.8511248663583 L 866.5892601514947 997.8710408724877 L 866.3544429309948 997.8898963365704 L 866.1192203524892 997.9076893730756 L 865.8836159380395 997.9244182027148 L 865.6476532478912 997.9400811526187 L 865.4113558781165 997.9546766565055 L 865.1747474582555 997.9682032548369 L 864.9378516489529 997.9806595949644 L 864.7006921395924 997.9920444312644 L 864.4632926459273 998.0023566252626 L 864.2256769077088 998.0115951457483 L 863.9878686863132 998.0197590688772 L 863.7498917623641 998.0268475782636 L 863.5117699333557 998.0328599650627 L 863.2735270112726 998.0377956280407 L 863.0351868202082 998.0416540736355 L 862.7967731939832 998.0444349160057 L 862.5583099737614 998.0461378770693 L 862.3198210056663 998.0467627865318 L 862.0813301383957 998.0463095819025 L 861.8428612208379 998.0447783085018 L 861.6044380996857 998.0421691194556 L 861.3660846170527 998.0384822756805 L 861.1278246080883 998.0337181458582 L 860.8896818985951 998.0278772063973 L 860.6516803026454 998.0209600413871 L 860.4138436202006 998.0129673425382 L 860.1761956347307 998.003899909114 L 859.9387601108361 997.9937586478501 L 859.7015607918714 997.9825445728643 L 859.464621397571 997.9702588055547 L 859.2279656216767 997.9569025744879 L 858.9916171295689 997.9424772152757 L 858.7555995558998 997.9269841704422 L 858.5199365022303 997.9104249892788 L 858.2846515346691 997.8928013276899 L 858.0497681815172 997.8741149480269 L 857.8153099309138 997.8543677189122 L 857.581300228489 997.8335616150524 L 857.3477624750176 997.8116987170404 L 857.1147200240807 997.7887812111478 L 856.882196179729 997.7648113891062 L 856.6502141941531 997.7397916478777 L 856.4187972653585 997.7137244894157 L 856.187968534845 997.6866125204141 L 855.9577510852935 997.6584584520475 L 855.7281679382569 997.6292650996991 L 855.4992420518586 997.5990353826797 L 855.2709963184966 997.5677723239361 L 855.043453562554 997.535479049748 L 854.8166365381167 997.5021587894157 L 854.5905679266982 997.4678148749379 L 854.3652703349712 997.4324507406769 L 854.1407662925071 997.3960699230171 L 853.9170782495232 997.3586760600098 L 853.6942285746373 997.32027289101 L 853.4722395526312 997.2808642563027 L 853.2511333822222 997.2404540967186 L 853.0309321738428 997.1990464532399 L 852.8116579474306 997.1566454665965 L 852.5933326302254 997.1132553768517 L 852.375978054577 997.0688805229784 L 852.159615955762 997.0235253424248 L 851.9442679698096 996.9771943706713 L 851.7299556313394 996.9298922407764 L 851.5167003714063 996.8816236829139 L 851.3045235153588 996.8323935238991 L 851.0934462807055 996.7822066867069 L 850.8834897749941 996.7310681899793 L 850.6746749937003 996.6789831475232 L 850.4670228181279 996.6259567677997 L 850.2605540133218 996.5719943534025 L 850.0552892259901 996.5171013005279 L 849.8512489824407 996.4612830984355 L 849.6484536865277 996.4045453288992 L 849.4469236176119 996.3468936656484 L 849.2466789285322 996.2883338738015 L 849.0477396435906 996.228871809289 L 848.8501256565498 996.1685134182676 L 848.653856728644 996.1072647365262 L 848.4589524866021 996.0451318888819 L 848.2654324206862 995.9821210885677 L 848.0733158827414 995.9182386366112 L 847.8826220842617 995.8534909212043 L 847.6933700944677 995.7878844170646 L 847.5055788384008 995.7214256847877 L 847.3192670950301 995.6541213701917 L 847.1344534953747 995.5859782036517 L 846.9511565206407 995.5170029994279 L 846.7693945003725 995.4472026549829 L 846.5891856106209 995.3765841502932 L 846.4105478721247 995.3051545471503 L 846.2334991485087 995.232920988455 L 846.0580571444979 995.1598906975031 L 845.8842394041465 995.0860709772628 L 845.7120633090835 995.0114692096445 L 845.5415460767751 994.9360928547628 L 845.3727047588026 994.8599494501905 L 845.2055562391566 994.7830466102045 L 845.0401172325503 994.7053920250247 L 844.8764042827461 994.626993460045 L 844.7144337609028 994.5478587550566 L 844.5542218639375 994.4679958234639 L 844.3957846129064 994.3874126514935 L 844.2391378514026 994.3061172973956 L 844.0842972439717 994.2241178906378 L 843.9312782745453 994.1414226310924 L 843.7800962448931 994.0580397882165 L 843.6307662730918 993.9739777002249 L 843.4833032920143 993.8892447732562 L 843.3377220478358 993.8038494805328 L 843.1940370985593 993.7178003615124 L 843.0522628125601 993.6311060210356 L 842.9124133671487 993.543775128464 L 842.774502747153 993.455816416814 L 842.6385447435199 993.3672386818836 L 842.5045529519368 993.2780507813724 L 842.3725407714711 993.1882616339963 L 842.2425214032307 993.0978802185949 L 842.1145078490442 993.0069155732347 L 841.9885129101604 992.9153767943044 L 841.864549185968 992.8232730356054 L 841.7426290727363 992.730613507437 L 841.6227647623749 992.6374074756749 L 841.504968241215 992.5436642608444 L 841.3892512888106 992.4493932371889 L 841.2756254767603 992.3546038317323 L 841.1641021675509 992.259305523336 L 841.0546925134203 992.1635078417517 L 840.9474074552426 992.0672203666675 L 840.8422577214343 991.9704527267506 L 840.7392538268813 991.8732145986845 L 840.638406071887 991.775515706201 L 840.5397245411428 991.6773658191079 L 840.4432191027199 991.578774752312 L 840.3488994070815 991.479752364838 L 840.2567748861185 991.380308558842 L 840.1668547522063 991.2804532786218 L 840.0791479972834 991.1801965096222 L 839.993663391952 991.0795482774365 L 839.9104094846018 990.9785186468041 L 839.8293946005538 990.8771177206039 L 839.750626841229 990.7753556388438 L 839.6741140833377 990.6732425776476 L 839.5998639780919 990.5707887482359 L 839.5278839504404 990.4680043959065 L 839.4581811983256 990.364899799009 L 839.3907626919652 990.261485267917 L 839.3256351731532 990.1577711439975 L 839.2628051545872 990.0537677985766 L 839.2022789192171 989.9494856319019 L 839.1440625196155 989.8449350721035 L 839.0881617773744 989.7401265741499 L 839.0345822825209 989.6350706188038 L 838.9833293929601 989.5297777115732 L 838.9344082339383 989.4242583816608 L 838.8878236975304 989.318523180912 L 838.8435804421515 989.2125826827586 L 838.8016828920901 989.1064474811621 L 838.7621352370663 989.0001281895544 L 838.7249414318127 988.8936354397758 L 838.6901051956788 988.7869798810127 L 838.6576300122591 988.6801721787322 L 838.6275191290451 988.5732230136152 L 838.5997755570999 988.4661430804894 L 838.5744020707575 988.3589430872586 L 838.5514012073455 988.251633753833 L 838.5307752669311 988.1442258110565 L 838.5125263120909 988.0367299996337 L 838.4966561677055 987.9291570690565 L 838.483166420776 987.8215177765279 L 838.4720584202657 987.7138228858878 L 838.4633332769657 987.6060831665353 L 838.4569918633828 987.4983093923527 L 838.4530348136532 987.3905123406274 L 838.4514625234784 987.282702790975" stroke-miterlimit="10" stroke-width="2.7769845610000004" stroke-dasharray=""/></g><g><g/><text fill="black" stroke="none" font-family="sans-serif" font-size="11pt" font-style="normal" font-weight="normal" text-decoration="normal" x="830.9228841476562" y="935.6952952088179" text-anchor="start" dominant-baseline="alphabetic" xml:space="preserve">Database</text></g></g><g><path fill="white" stroke="black" paint-order="fill stroke markers" d=" M 73.50841485 182.64242307881818 L 89.84361814999998 182.64242307881818 L 89.84361814999998 862.1868803588179 L 73.50841485 862.1868803588179 L 73.50841485 182.64242307881818" stroke-miterlimit="10" stroke-width="1.3612669416666667" stroke-dasharray=""/><path fill="white" stroke="black" paint-order="fill stroke markers" d=" M 368.1356666309896 182.64242307881818 L 384.4708699309896 182.64242307881818 L 384.4708699309896 862.1868803588179 L 368.1356666309896 862.1868803588179 L 368.1356666309896 182.64242307881818" stroke-miterlimit="10" stroke-width="1.3612669416666667" stroke-dasharray=""/><path fill="white" stroke="black" paint-order="fill stroke markers" d=" M 574.7529239051431 520.7811313888182 L 591.0881272051432 520.7811313888182 L 591.0881272051432 791.9455061688179 L 574.7529239051431 791.9455061688179 L 574.7529239051431 520.7811313888182" stroke-miterlimit="10" stroke-width="1.3612669416666667" stroke-dasharray=""/><path fill="white" stroke="black" paint-order="fill stroke markers" d=" M 854.1332274439452 633.4940341588181 L 870.4684307439453 633.4940341588181 L 870.4684307439453 746.206936928818 L 854.1332274439452 746.206936928818 L 854.1332274439452 633.4940341588181" stroke-miterlimit="10" stroke-width="1.3612669416666667" stroke-dasharray=""/><g><text fill="black" stroke="none" font-family="sans-serif" font-size="16pt" font-style="normal" font-weight="normal" text-decoration="normal" x="438.66613006591797" y="24.651306798181814" text-anchor="start" dominant-baseline="alphabetic" xml:space="preserve">imtkhu</text></g><g><rect fill="white" stroke="none" x="134.86078828709637" y="161.4066587888182" width="188.25770820679688" height="21.23576429"/><text fill="black" stroke="none" font-family="sans-serif" font-size="11pt" font-style="normal" font-weight="normal" text-decoration="normal" x="137.31106878209636" y="176.10834175881817" text-anchor="start" dominant-baseline="alphabetic" xml:space="preserve">Chnimtkhutimenu</text></g><g><path fill="none" stroke="black" paint-order="fill stroke markers" d=" M 89.84361814999998 182.64242307881818 L 354.68634924732294 182.64242307881818" stroke-miterlimit="10" stroke-width="1.3612669416666667" stroke-dasharray=""/><g transform="translate(368.1356666309896,182.64242307881818) translate(-368.1356666309896,-182.64242307881818)"><path fill="black" stroke="none" paint-order="stroke fill markers" d=" M 354.5229972143229 175.83608837048484 L 368.1356666309896 182.64242307881818 L 354.5229972143229 189.44875778715152 Z"/></g></g><g><rect fill="white" stroke="none" x="140.98462861912762" y="207.1452280288182" width="176.01002754273438" height="21.23576429"/><text fill="black" stroke="none" font-family="sans-serif" font-size="11pt" font-style="normal" font-weight="normal" text-decoration="normal" x="143.4349091141276" y="221.84691099881817" text-anchor="start" dominant-baseline="alphabetic" xml:space="preserve">Hinthformimtkhu</text></g><g><path fill="none" stroke="black" paint-order="fill stroke markers" d=" M 368.1356666309896 228.3809923188182 L 103.29293553366665 228.3809923188182" stroke-miterlimit="10" stroke-width="1.3612669416666667" stroke-dasharray=""/><g transform="translate(89.84361814999998,228.3809923188182) translate(-89.84361814999998,-228.3809923188182)"><path fill="black" stroke="none" paint-order="stroke fill markers" d=" M 103.45628756666665 221.57465761048485 L 89.84361814999998 228.3809923188182 L 103.45628756666665 235.18732702715153 Z"/></g></g><g><rect fill="white" stroke="none" x="112.53795808690104" y="252.88379726881823" width="232.9033686071875" height="21.23576429"/><text fill="black" stroke="none" font-family="sans-serif" font-size="11pt" font-style="normal" font-weight="normal" text-decoration="normal" x="114.98823858190104" y="267.5854802388182" text-anchor="start" dominant-baseline="alphabetic" xml:space="preserve">Nhpthngtinmtkhucvmi</text></g><g><path fill="none" stroke="black" paint-order="fill stroke markers" d=" M 89.84361814999998 274.1195615588182 L 354.68634924732294 274.1195615588182" stroke-miterlimit="10" stroke-width="1.3612669416666667" stroke-dasharray=""/><g transform="translate(368.1356666309896,274.1195615588182) translate(-368.1356666309896,-274.1195615588182)"><path fill="black" stroke="none" paint-order="stroke fill markers" d=" M 354.5229972143229 267.31322685048485 L 368.1356666309896 274.1195615588182 L 354.5229972143229 280.92589626715153 Z"/></g></g><g><rect fill="white" stroke="none" x="403.80086050265623" y="298.6223665088182" width="117.10524238648438" height="21.23576429"/><text fill="black" stroke="none" font-family="sans-serif" font-size="11pt" font-style="normal" font-weight="normal" text-decoration="normal" x="406.25114099765625" y="313.32404947881815" text-anchor="start" dominant-baseline="alphabetic" xml:space="preserve">Validatethngtin</text></g><g><path fill="none" stroke="black" paint-order="fill stroke markers" d=" M 384.4708699309896 319.85813079881814 L 449.8116831309896 319.85813079881814 L 449.8116831309896 341.09389508881816 L 397.92018731465623 341.09389508881816" stroke-miterlimit="10" stroke-width="1.3612669416666667" stroke-dasharray=""/><g transform="translate(384.4708699309896,341.09389508881816) translate(-384.4708699309896,-341.09389508881816)"><path fill="black" stroke="none" paint-order="stroke fill markers" d=" M 398.08353934765626 334.2875603804848 L 384.4708699309896 341.09389508881816 L 398.08353934765626 347.9002297971515 Z"/></g></g><g><rect fill="white" stroke="none" x="182.11918825047528" y="409.70174894881814" width="93.74090828003906" height="21.23576429"/><text fill="black" stroke="none" font-family="sans-serif" font-size="11pt" font-style="normal" font-weight="normal" text-decoration="normal" x="184.56946874547526" y="424.4034319188181" text-anchor="start" dominant-baseline="alphabetic" xml:space="preserve">Thngboli</text></g><g><path fill="none" stroke="black" paint-order="fill stroke markers" d=" M 368.1356666309896 430.93751323881816 L 103.29293553366665 430.93751323881816" stroke-miterlimit="10" stroke-width="1.3612669416666667" stroke-dasharray="6.53408132"/><g transform="translate(89.84361814999998,430.93751323881816) translate(-89.84361814999998,-430.93751323881816)"><path fill="black" stroke="none" paint-order="stroke fill markers" d=" M 103.45628756666665 424.1311785304848 L 89.84361814999998 430.93751323881816 L 103.45628756666665 437.7438479471515 Z"/></g></g><g><rect fill="white" stroke="none" x="434.76720724337883" y="499.54536709881813" width="89.689379349375" height="21.23576429"/><text fill="black" stroke="none" font-family="sans-serif" font-size="11pt" font-style="normal" font-weight="normal" text-decoration="normal" x="437.21748773837885" y="514.2470500688181" text-anchor="start" dominant-baseline="alphabetic" xml:space="preserve">Githngtin</text></g><g><path fill="none" stroke="black" paint-order="fill stroke markers" d=" M 384.4708699309896 520.7811313888182 L 561.3036065214765 520.7811313888182" stroke-miterlimit="10" stroke-width="1.3612669416666667" stroke-dasharray=""/><g transform="translate(574.7529239051431,520.7811313888182) translate(-574.7529239051431,-520.7811313888182)"><path fill="black" stroke="none" paint-order="stroke fill markers" d=" M 561.1402544884764 513.9747966804848 L 574.7529239051431 520.7811313888182 L 561.1402544884764 527.5874660971515 Z"/></g></g><g><rect fill="white" stroke="none" x="610.4181177768099" y="545.2839363388181" width="118.17183174195313" height="21.23576429"/><text fill="black" stroke="none" font-family="sans-serif" font-size="11pt" font-style="normal" font-weight="normal" text-decoration="normal" x="612.86839827181" y="559.9856193088181" text-anchor="start" dominant-baseline="alphabetic" xml:space="preserve">Mhamtkhu</text></g><g><path fill="none" stroke="black" paint-order="fill stroke markers" d=" M 591.0881272051432 566.5197006288181 L 656.4289404051432 566.5197006288181 L 656.4289404051432 587.7554649188181 L 604.5374445888099 587.7554649188181" stroke-miterlimit="10" stroke-width="1.3612669416666667" stroke-dasharray=""/><g transform="translate(591.0881272051432,587.7554649188181) translate(-591.0881272051432,-587.7554649188181)"><path fill="black" stroke="none" paint-order="stroke fill markers" d=" M 604.7007966218099 580.9491302104848 L 591.0881272051432 587.7554649188181 L 604.7007966218099 594.5617996271515 Z"/></g></g><g><rect fill="white" stroke="none" x="677.7659876498567" y="612.258269868818" width="89.689379349375" height="21.23576429"/><text fill="black" stroke="none" font-family="sans-serif" font-size="11pt" font-style="normal" font-weight="normal" text-decoration="normal" x="680.2162681448567" y="626.959952838818" text-anchor="start" dominant-baseline="alphabetic" xml:space="preserve">Githngtin</text></g><g><path fill="none" stroke="black" paint-order="fill stroke markers" d=" M 591.0881272051432 633.4940341588181 L 840.6839100602785 633.4940341588181" stroke-miterlimit="10" stroke-width="1.3612669416666667" stroke-dasharray=""/><g transform="translate(854.1332274439452,633.4940341588181) translate(-854.1332274439452,-633.4940341588181)"><path fill="black" stroke="none" paint-order="stroke fill markers" d=" M 840.5205580272785 626.6876994504847 L 854.1332274439452 633.4940341588181 L 840.5205580272785 640.3003688671514 Z"/></g></g><g><rect fill="white" stroke="none" x="889.798421315612" y="657.996839108818" width="91.33575691285156" height="21.23576429"/><text fill="black" stroke="none" font-family="sans-serif" font-size="11pt" font-style="normal" font-weight="normal" text-decoration="normal" x="892.248701810612" y="672.698522078818" text-anchor="start" dominant-baseline="alphabetic" xml:space="preserve">Luthngtin</text></g><g><path fill="none" stroke="black" paint-order="fill stroke markers" d=" M 870.4684307439453 679.232603398818 L 935.8092439439453 679.232603398818 L 935.8092439439453 700.468367688818 L 883.917748127612 700.468367688818" stroke-miterlimit="10" stroke-width="1.3612669416666667" stroke-dasharray=""/><g transform="translate(870.4684307439453,700.468367688818) translate(-870.4684307439453,-700.468367688818)"><path fill="black" stroke="none" paint-order="stroke fill markers" d=" M 884.081100160612 693.6620329804847 L 870.4684307439453 700.468367688818 L 884.081100160612 707.2747023971514 Z"/></g></g><g><rect fill="white" stroke="none" x="610.4181177768098" y="724.971172638818" width="224.38511909546875" height="21.23576429"/><text fill="black" stroke="none" font-family="sans-serif" font-size="11pt" font-style="normal" font-weight="normal" text-decoration="normal" x="612.8683982718098" y="739.6728556088179" text-anchor="start" dominant-baseline="alphabetic" xml:space="preserve">Trthngtinmtkhumha</text></g><g><path fill="none" stroke="black" paint-order="fill stroke markers" d=" M 854.1332274439452 746.206936928818 L 604.5374445888099 746.206936928818" stroke-miterlimit="10" stroke-width="1.3612669416666667" stroke-dasharray="6.53408132"/><g transform="translate(591.0881272051432,746.206936928818) translate(-591.0881272051432,-746.206936928818)"><path fill="black" stroke="none" paint-order="stroke fill markers" d=" M 604.7007966218099 739.4006022204846 L 591.0881272051432 746.206936928818 L 604.7007966218099 753.0132716371513 Z"/></g></g><g><rect fill="white" stroke="none" x="403.8008605026562" y="770.7097418788179" width="151.62207283082031" height="21.23576429"/><text fill="black" stroke="none" font-family="sans-serif" font-size="11pt" font-style="normal" font-weight="normal" text-decoration="normal" x="406.2511409976562" y="785.4114248488179" text-anchor="start" dominant-baseline="alphabetic" xml:space="preserve">Thngbothnhcng</text></g><g><path fill="none" stroke="black" paint-order="fill stroke markers" d=" M 574.7529239051431 791.9455061688179 L 397.92018731465623 791.9455061688179" stroke-miterlimit="10" stroke-width="1.3612669416666667" stroke-dasharray="6.53408132"/><g transform="translate(384.4708699309896,791.9455061688179) translate(-384.4708699309896,-791.9455061688179)"><path fill="black" stroke="none" paint-order="stroke fill markers" d=" M 398.08353934765626 785.1391714604846 L 384.4708699309896 791.9455061688179 L 398.08353934765626 798.7518408771513 Z"/></g></g><g><rect fill="white" stroke="none" x="109.17360872166667" y="816.4483111188179" width="239.63206733765625" height="21.23576429"/><text fill="black" stroke="none" font-family="sans-serif" font-size="11pt" font-style="normal" font-weight="normal" text-decoration="normal" x="111.62388921666667" y="831.1499940888178" text-anchor="start" dominant-baseline="alphabetic" xml:space="preserve">Thngboimtkhuthnhcng</text></g><g><path fill="none" stroke="black" paint-order="fill stroke markers" d=" M 368.1356666309896 837.6840754088179 L 103.29293553366665 837.6840754088179" stroke-miterlimit="10" stroke-width="1.3612669416666667" stroke-dasharray="6.53408132"/><g transform="translate(89.84361814999998,837.6840754088179) translate(-89.84361814999998,-837.6840754088179)"><path fill="black" stroke="none" paint-order="stroke fill markers" d=" M 103.45628756666665 830.8777407004845 L 89.84361814999998 837.6840754088179 L 103.45628756666665 844.4904101171512 Z"/></g></g><g><g/><path fill="none" stroke="black" paint-order="fill stroke markers" d=" M 16.33520329999999 365.59670003881814 L 986.8514993834635 365.59670003881814 L 986.8514993834635 862.1868803588179 L 16.33520329999999 862.1868803588179 L 16.33520329999999 365.59670003881814 Z" stroke-miterlimit="10" stroke-width="2.3336004714285714" stroke-dasharray=""/><path fill="white" stroke="black" paint-order="fill stroke markers" d=" M 16.33520329999999 365.59670003881814 L 16.33520329999999 385.19894399881815 L 62.6944068970703 385.19894399881815 L 72.4955288770703 375.39782201881815 L 72.4955288770703 365.59670003881814 L 16.33520329999999 365.59670003881814" stroke-miterlimit="10" stroke-width="2.3336004714285714" stroke-dasharray=""/><text fill="black" stroke="none" font-family="sans-serif" font-size="8.8pt" font-style="normal" font-weight="bold" text-decoration="normal" x="32.67040659999999" y="378.66486267881817" text-anchor="start" dominant-baseline="alphabetic" xml:space="preserve">alt</text><g><rect fill="white" stroke="none" x="86.3804516820703" y="366.90351630281816" width="128.70692695679688" height="16.988611432000003"/></g><text fill="black" stroke="none" font-family="sans-serif" font-size="8.8pt" font-style="normal" font-weight="bold" text-decoration="normal" x="88.8307321770703" y="378.66486267881817" text-anchor="start" dominant-baseline="alphabetic" xml:space="preserve">[Khngngyucu]</text><g><path fill="none" stroke="black" paint-order="fill stroke markers" d=" M 16.33520329999999 455.44031818881814 L 986.8514993834635 455.44031818881814" stroke-miterlimit="10" stroke-width="2.3336004714285714" stroke-dasharray="4.083800825"/></g><g/><g><rect fill="white" stroke="none" x="86.3804516820703" y="456.74713445281816" width="89.6222406775" height="16.988611432000003"/></g><text fill="black" stroke="none" font-family="sans-serif" font-size="8.8pt" font-style="normal" font-weight="bold" text-decoration="normal" x="88.8307321770703" y="468.50848082881816" text-anchor="start" dominant-baseline="alphabetic" xml:space="preserve">[ngyucu]</text></g><g/></g><g/><g/><g/><g/></g></svg>