<svg xmlns="http://www.w3.org/2000/svg" xmlns:xlink="http://www.w3.org/1999/xlink" version="1.1" width="1226.6459353480468" height="779.6941036938181"><desc>title%20X%C3%A1c%20nh%E1%BA%ADn%20h%E1%BB%A3p%20%C4%91%E1%BB%93ng%0A%0Abottomparticipants%20%0A%0Aactor%20Renter%0Aentity%20Client%0Aentity%20Backend%0Adatabase%20Database%0A%0A%5B-%3ERenter%3A%20Nh%E1%BA%ADn%20th%C3%B4ng%20b%C3%A1o%5Cnt%E1%BA%A1o%20h%E1%BB%A3p%20%C4%91%E1%BB%93ng%20%0A%0Aactivate%20Renter%0A%0ARenter%20-%3E%20Client%3A%20Truy%20c%E1%BA%ADp%20m%C3%A0n%20h%C3%ACnh%20qu%E1%BA%A3n%20l%C3%BD%20h%E1%BB%A3p%20%C4%91%E1%BB%93ng%0A%0Aactivate%20Client%0A%0AClient%20--%3E%20Renter%3A%20Hi%E1%BB%83n%20th%E1%BB%8B%20chi%20ti%E1%BA%BFt%20h%E1%BB%A3p%20%C4%91%E1%BB%93ng%0A%0ARenter%20-%3E%20Client%3A%20X%C3%A1c%20nh%E1%BA%ADn%2F%20h%E1%BB%A7y%20h%E1%BB%A3p%20%C4%91%E1%BB%93ng%0A%0AClient%20-%3E%20Backend%3A%20G%E1%BB%ADi%20th%C3%B4ng%20tin%20x%C3%A1c%20nh%E1%BA%ADn%0A%0Aactivate%20Backend%0A%0ABackend%20-%3E%20Database%3A%20C%E1%BA%ADp%20nh%E1%BA%ADt%20tr%E1%BA%A1ng%20th%C3%A1i%20h%E1%BB%A3p%20%C4%91%E1%BB%93ng%0A%0Aactivate%20Database%0A%0ADatabase%20-%3E%20Database%3A%20C%E1%BA%ADp%20nh%E1%BA%ADt%20tr%E1%BA%A1ng%20th%C3%A1i%20h%E1%BB%A3p%20%C4%91%E1%BB%93ng%20v%C3%A0%20ph%C3%B2ng%0A%0Adeactivate%20Database%0A%0ADatabase%20--%3E%20Backend%3A%20Tr%E1%BA%A3%20v%E1%BB%81%20d%E1%BB%AF%20li%E1%BB%87u%20sau%20khi%20c%E1%BA%ADp%20nh%E1%BA%ADt%0A%0ABackend%20--%3E%20Client%3A%20Th%C3%B4ng%20b%C3%A1o%20th%C3%A0nh%20c%C3%B4ng%0A%0Adeactivate%20Backend%0A%0AClient%20--%3E%20Renter%3A%20Th%C3%B4ng%20b%C3%A1o%20th%C3%A0nh%20c%C3%B4ng%0A%0Adeactivate%20Client%0A%0Adeactivate%20Renter%0A</desc><defs/><g><g/><g/><g/><g/><g/><g/><g/><g/><g/><g/><g/><g/><g/><g/><g/><g/><g/><g/><g/><g/><g/><g/><g/><g/><g/><g/><g/><g/><g/><g/><g/><g/><g/><g/><g/><g/><g/><g/><g/><g/><g/><g/><g/><g/><g/><g/><g/><g/><g/><g/><g/><g/><g/><g/><g/><g/><g/><g/><g/><g/><g/><g/><g/><g/><g/><g/><g/><g/><g/><g/><g/><g/><g/><g/><g/><g/><g/><g/><g/><g/><g/><g/><g/><g/><g/><g/><g/><g/><g/><g/><g/><g/><g/><g/><g/><g/><g/><g/><g/><g/><g/><g/><g/><g/><g/><g/><g/><g/><g/><g/><g/><g/><g/><g/><g/><g/><g/><g/><g/><g/><g/><g/><g/><g/><g/><g/><g/><g/><g/><g/><g><rect fill="white" stroke="none" x="0" y="0" width="1226" height="779"/></g><g/><g><path fill="none" stroke="black" paint-order="fill stroke markers" d=" M 164.23359028196612 128.73625218881818 L 164.23359028196612 689.0337253788181" stroke-miterlimit="10" stroke-width="1.3612669416666667" stroke-dasharray="12.565541,5.445067766666667"/><path fill="none" stroke="black" paint-order="fill stroke markers" d=" M 463.8357871313151 128.73625218881818 L 463.8357871313151 689.0337253788181" stroke-miterlimit="10" stroke-width="1.3612669416666667" stroke-dasharray="12.565541,5.445067766666667"/><path fill="none" stroke="black" paint-order="fill stroke markers" d=" M 672.092265596875 128.73625218881818 L 672.092265596875 689.0337253788181" stroke-miterlimit="10" stroke-width="1.3612669416666667" stroke-dasharray="12.565541,5.445067766666667"/><path fill="none" stroke="black" paint-order="fill stroke markers" d=" M 932.7610212841146 128.73625218881818 L 932.7610212841146 689.0337253788181" stroke-miterlimit="10" stroke-width="1.3612669416666667" stroke-dasharray="12.565541,5.445067766666667"/></g><g><g><path fill="white" stroke="black" paint-order="fill stroke markers" d=" M 173.5446561629661 59.63834222981819 A 9.311065881 9.311065881 0 1 1 173.54465150743357 59.62903116548903 M 164.23359028196612 68.9494081108182 L 164.23359028196612 88.8783561368182 M 152.4722439059661 76.13689756281819 L 175.99493665796612 76.13689756281819 M 164.23359028196612 88.8783561368182 L 152.4722439059661 107.50048789881819 M 164.23359028196612 88.8783561368182 L 175.99493665796612 107.50048789881819" stroke-miterlimit="10" stroke-width="2.7769845610000004" stroke-dasharray=""/></g><g><g/><text fill="black" stroke="none" font-family="sans-serif" font-size="11pt" font-style="normal" font-weight="normal" text-decoration="normal" x="142.2328807482747" y="123.83569119881818" text-anchor="start" dominant-baseline="alphabetic" xml:space="preserve">Renter</text></g><g><path fill="white" stroke="black" paint-order="fill stroke markers" d=" M 488.0935640318151 79.63263106901819 A 24.2577769005 24.2577769005 0 1 1 488.0935519029277 79.60837329616064 M 438.1895179503151 106.11199561831819 L 489.4820563123151 106.11199561831819" stroke-miterlimit="10" stroke-width="2.7769845610000004" stroke-dasharray=""/></g><g><g/><text fill="black" stroke="none" font-family="sans-serif" font-size="11pt" font-style="normal" font-weight="normal" text-decoration="normal" x="445.09563667965494" y="123.83569119881818" text-anchor="start" dominant-baseline="alphabetic" xml:space="preserve">Client</text></g><g><path fill="white" stroke="black" paint-order="fill stroke markers" d=" M 696.350042497375 79.63263106901819 A 24.2577769005 24.2577769005 0 1 1 696.3500303684875 79.60837329616064 M 646.445996415875 106.11199561831819 L 697.738534777875 106.11199561831819" stroke-miterlimit="10" stroke-width="2.7769845610000004" stroke-dasharray=""/></g><g><g/><text fill="black" stroke="none" font-family="sans-serif" font-size="11pt" font-style="normal" font-weight="normal" text-decoration="normal" x="643.5668673424805" y="123.83569119881818" text-anchor="start" dominant-baseline="alphabetic" xml:space="preserve">Backend</text></g><g><path fill="white" stroke="black" paint-order="fill stroke markers" d=" M 908.9116244661146 96.71925372081819 L 908.9116244661146 62.41532679081819 L 956.6104181021145 62.41532679081819 L 956.6104181021145 96.71925372081819" stroke-miterlimit="10" stroke-width="2.7769845610000004" stroke-dasharray=""/><path fill="white" stroke="black" paint-order="fill stroke markers" d=" M 956.6104181021145 61.22285694991819 L 956.6092256422108 61.33066749483481 L 956.6056483817448 61.43846725878678 L 956.5996866784395 61.546245461887544 L 956.5913411284602 61.65399132640659 L 956.580612566355 61.761694077847274 L 956.5675020649711 61.86934294602419 L 956.5520109353479 61.976927166140236 L 956.5341407265853 62.084435979863045 L 956.5138932256892 62.19185863640084 L 956.4912704573931 62.299184393577484 L 956.4662746839547 62.4064025189067 L 956.4389084049307 62.51350229066531 L 956.4091743569261 62.62047299896537 L 956.377075513321 62.7273039468252 L 956.3426150839729 62.83398445123905 L 956.3057965148961 62.94050384424536 L 956.2666234879167 63.04685147399361 L 956.225099920305 63.15301670580944 L 956.181229964383 63.25898892325815 L 956.1350180071096 63.364757529206294 L 956.0864686696423 63.47031194688142 L 956.0355868068742 63.575641620929716 L 955.9823775069493 63.68073601847156 L 955.9268460907531 63.78558463015478 L 955.8689981113811 63.89017697120557 L 955.8088393535829 63.994502582477 L 955.7463758331843 64.09855103149486 L 955.6816137964851 64.20231191350096 L 955.614559719635 64.3057748524936 L 955.5452203079861 64.40892950226505 L 955.4736024954215 64.51176554743633 L 955.3997134436628 64.61427270448858 L 955.3235605415538 64.71644072279157 L 955.245151404321 64.81825938562858 L 955.1644938728128 64.91971851121816 L 955.0815960127154 65.02080795373233 L 954.9964661137456 65.12151760431107 L 954.9091126888221 65.22183739207324 L 954.8195444732149 65.32175728512367 L 954.7277704236709 65.42126729155632 L 954.6337997175185 65.52035746045347 L 954.5376417517499 65.6190178828808 L 954.4393061420818 65.71723869287828 L 954.338802721993 65.81501006844678 L 954.2361415417419 65.91232223253022 L 954.1313328673608 66.00916545399325 L 954.0243871796299 66.10553004859446 L 953.915315173029 66.20140637995469 L 953.8041277546677 66.29678486052069 L 953.6908360431951 66.39165595252388 L 953.5754513676882 66.48601016893414 L 953.4579852665181 66.57983807440844 L 953.3384494861972 66.67313028623443 L 953.216855980204 66.76587747526865 L 953.0932169077876 66.85807036686953 L 952.9675446327522 66.94969974182469 L 952.8398517222207 67.04075643727302 L 952.7101509453777 67.13123134762085 L 952.5784552721927 67.22111542545254 L 952.4447778721235 67.3103996824352 L 952.3091321127986 67.39907519021754 L 952.1715315586807 67.4871330813227 L 952.0319899697108 67.57456455003492 L 951.8905212999315 67.6613608532802 L 951.7471396960917 67.74751331150055 L 951.6018594962326 67.83301330952195 L 951.4546952282527 67.91785229741582 L 951.3056616084566 68.00202179135408 L 951.1547735400817 68.08551337445749 L 951.0020461118094 68.1683186976373 L 950.847494596255 68.25042948043021 L 950.6911344484416 68.33183751182635 L 950.5329813042533 68.41253465109044 L 950.373050978873 68.4925128285758 L 950.2113594651998 68.5717640465313 L 950.0479229322506 68.65028037990122 L 949.882757723542 68.72805397711764 L 949.7158803554577 68.80507706088565 L 949.5473075155952 68.88134192896105 L 949.3770560610981 68.95684095492061 L 949.2051430169699 69.03156658892462 L 949.0315855743719 69.10551135847197 L 948.8564010889036 69.17866786914732 L 948.6796070788675 69.25102880536058 L 948.5012212235175 69.3225869310784 L 948.3212613612902 69.39333509054786 L 948.1397454880222 69.46326620901198 L 947.9566917551492 69.53237329341717 L 947.7721184678923 69.60064943311258 L 947.586044083426 69.66808780054113 L 947.3984872090341 69.7346816519223 L 947.2094666002474 69.80042432792644 L 947.0190011589696 69.86530925434072 L 946.8271099315857 69.92932994272657 L 946.6338121070589 69.9924799910685 L 946.4391270150104 70.05475308441433 L 946.2430741237872 70.1161429955066 L 946.045673038515 70.17664358540536 L 945.846943499138 70.23624880410202 L 945.6469053784442 70.29495269112441 L 945.4455786800793 70.35274937613272 L 945.2429835365452 70.40963307950663 L 945.0391402071874 70.46559811292322 L 944.8340690761692 70.52063887992576 L 944.6277906504324 70.57474987648341 L 944.4203255576481 70.62792569154163 L 944.2116945441524 70.68016100756323 L 944.001918472873 70.73145060106012 L 943.791018321242 70.78178934311569 L 943.5790151790989 70.8311721998977 L 943.3659302465812 70.8795942331616 L 943.1517848320049 70.92705060074444 L 942.9366003497325 70.973536557049 L 942.7203983180333 71.01904745351838 L 942.5032003569302 71.06357873910088 L 942.2850281860382 71.10712596070502 L 942.0659036223926 71.14968476364494 L 941.8458485782672 71.19125089207583 L 941.6248850589832 71.23182018941947 L 941.4030351607082 71.27138859877994 L 941.1803210682472 71.30995216334925 L 940.9567650528237 71.34750702680313 L 940.7323894698533 71.38404943368649 L 940.507216756707 71.4195757297891 L 940.2812694304686 71.45408236251096 L 940.0545700856824 71.48756588121756 L 939.827141392094 71.52002293758491 L 939.5990060923831 71.55145028593446 L 939.3701869998898 71.58184478355753 L 939.1407069963325 71.61120339102969 L 938.9105890295205 71.63952317251467 L 938.6798561110584 71.66680129605793 L 938.448531314046 71.69303503386982 L 938.2166377707701 71.71822176259843 L 937.9841986703921 71.7423589635919 L 937.751237256628 71.7654442231502 L 937.517776825425 71.78747523276665 L 937.283840722632 71.80844978935863 L 937.049452341664 71.82836579548797 L 936.8146351211641 71.84722125957065 L 936.5794125426585 71.86501429607597 L 936.3438081282088 71.8817431257151 L 936.1078454380605 71.89740607561903 L 935.8715480682858 71.91200157950583 L 935.6349396484248 71.92552817783725 L 935.3980438391222 71.93798451796474 L 935.1608843297618 71.94936935426468 L 934.9234848360966 71.95968154826289 L 934.6858690978781 71.96892006874862 L 934.4480608764825 71.97708399187748 L 934.2100839525334 71.98417250126396 L 933.971962123525 71.99018488806304 L 933.7337192014419 71.99512055104105 L 933.4953790103775 71.99897899663581 L 933.2569653841525 72.00175983900598 L 933.0185021639307 72.00346280006961 L 932.7800131958356 72.00408770953204 L 932.5415223285651 72.00363450490285 L 932.3030534110072 72.0021032315021 L 932.064630289855 71.99949404245586 L 931.826276807222 71.9958071986809 L 931.5880167982576 71.99104306885846 L 931.3498740887644 71.98520212939759 L 931.1118724928148 71.97828496438737 L 930.87403581037 71.97029226553852 L 930.6363878249 71.96122483211428 L 930.3989523010055 71.95108357085043 L 930.1617529820408 71.93986949586466 L 929.9248135877403 71.92758372855508 L 929.688157811846 71.91422749748824 L 929.4518093197382 71.89980213827607 L 929.2157917460692 71.8843090934425 L 928.9801286923996 71.86774991227908 L 928.7448437248385 71.85012625069015 L 928.5099603716865 71.83143987102717 L 928.2755021210832 71.81169264191253 L 928.0414924186583 71.79088653805269 L 927.8079546651869 71.7690236400407 L 927.57491221425 71.74610613414815 L 927.3423883698983 71.72213631210651 L 927.1104063843225 71.69711657087802 L 926.8789894555279 71.67104941241597 L 926.6481607250143 71.64393744341446 L 926.4179432754628 71.6157833750478 L 926.1883601284262 71.58659002269937 L 925.9594342420279 71.55636030568009 L 925.7311885086659 71.52509724693644 L 925.5036457527233 71.49280397274828 L 925.276828728286 71.45948371241609 L 925.0507601168675 71.42513979793813 L 924.8254625251406 71.38977566367726 L 924.6009584826764 71.35339484601741 L 924.3772704396926 71.31600098301004 L 924.1544207648067 71.27759781401028 L 923.9324317428005 71.23818917930303 L 923.7113255723915 71.19777901971894 L 923.4911243640121 71.15637137624027 L 923.2718501375999 71.11397038959687 L 923.0535248203947 71.07058029985207 L 922.8361702447463 71.02620544597868 L 922.6198081459313 70.98085026542512 L 922.404460159979 70.93451929367163 L 922.1901478215087 70.8872171637768 L 921.9768925615756 70.8389486059142 L 921.7647157055281 70.78971844689937 L 921.5536384708748 70.7395316097072 L 921.3436819651635 70.6883931129796 L 921.1348671838696 70.6363080705236 L 920.9272150082973 70.58328169080006 L 920.7207462034911 70.52931927640276 L 920.5154814161594 70.47442622352818 L 920.31144117261 70.41860802143584 L 920.108645876697 70.36187025189946 L 919.9071158077812 70.3042185886487 L 919.7068711187015 70.24565879680183 L 919.5079318337599 70.18619673228926 L 919.3103178467192 70.12583834126788 L 919.1140489188133 70.06458965952649 L 918.9191446767715 70.00245681188221 L 918.7256246108556 69.93944601156807 L 918.5335080729108 69.87556355961155 L 918.342814274431 69.81081584420461 L 918.153562284637 69.74520934006487 L 917.9657710285701 69.67875060778805 L 917.7794592851994 69.61144629319199 L 917.594645685544 69.54330312665208 L 917.41134871081 69.47432792242817 L 917.2295866905417 69.40452757798322 L 917.0493778007902 69.3339090732935 L 916.870740062294 69.26247947015062 L 916.693691338678 69.19024591145539 L 916.5182493346672 69.11721562050347 L 916.3444315943158 69.0433959002631 L 916.1722554992529 68.96879413264479 L 916.0017382669445 68.89341777776313 L 915.8328969489719 68.81727437319081 L 915.665748429326 68.74037153320482 L 915.5003094227196 68.66271694802508 L 915.3365964729154 68.58431838304537 L 915.1746259510721 68.5051836780569 L 915.0144140541069 68.4253207464642 L 914.8559768030757 68.34473757449386 L 914.6993300415719 68.26344222039596 L 914.544489434141 68.18144281363814 L 914.3914704647148 68.09874755409275 L 914.2402884350624 68.01536471121685 L 914.0909584632611 67.9313026232252 L 913.9434954821836 67.84656969625658 L 913.7979142380051 67.76117440353308 L 913.6542292887286 67.67512528451279 L 913.5124550027294 67.5884309440359 L 913.372605557318 67.50110005146425 L 913.2346949373223 67.41314133981427 L 913.0987369336892 67.32456360488388 L 912.9647451421062 67.23537570437271 L 912.8327329616404 67.14558655699653 L 912.7027135934001 67.05520514159522 L 912.5747000392136 66.96424049623502 L 912.4487051003297 66.87270171730466 L 912.3247413761374 66.78059795860575 L 912.2028212629057 66.68793843043741 L 912.0829569525442 66.59473239867523 L 911.9651604313843 66.50098918384472 L 911.8494434789799 66.40671816018926 L 911.7358176669296 66.31192875473263 L 911.6242943577203 66.2166304463364 L 911.5148847035896 66.120832764752 L 911.4075996454119 66.02454528966774 L 911.3024499116036 65.92777764975091 L 911.1994460170506 65.83053952168484 L 911.0985982620563 65.73284062920132 L 910.9999167313122 65.63469074210818 L 910.9034112928892 65.53609967531233 L 910.8090915972508 65.4370772878383 L 910.7169670762878 65.33763348184232 L 910.6270469423756 65.23777820162212 L 910.5393401874527 65.13752143262249 L 910.4538555821214 65.03687320043682 L 910.3706016747711 64.93584356980442 L 910.2895867907231 64.83444264360419 L 910.2108190313983 64.73268056184422 L 910.134306273507 64.63056750064791 L 910.0600561682612 64.52811367123628 L 909.9880761406097 64.42532931890689 L 909.918373388495 64.32222472200931 L 909.8509548821345 64.21881019091732 L 909.7858273633225 64.11509606699785 L 909.7229973447565 64.01109272157687 L 909.6624711093864 63.90681055490224 L 909.6042547097849 63.80225999510374 L 909.5483539675437 63.697451497150205 L 909.4947744726902 63.59239554180411 L 909.4435215831294 63.48710263457343 L 909.3946004241076 63.381583304661156 L 909.3480158876997 63.27584810391234 L 909.3037726323208 63.16990760575894 L 909.2618750822594 63.06377240416249 L 909.2223274272357 62.95745311255472 L 909.185133621982 62.85096036277616 L 909.1502973858481 62.744304804013076 L 909.1178222024284 62.63749710173245 L 909.0877113192145 62.530547936615505 L 909.0599677472692 62.423468003489624 L 909.0345942609268 62.316268010258895 L 909.0115933975148 62.208958676833305 L 908.9909674571004 62.10155073405677 L 908.9727185022602 61.99405492263407 L 908.9568483578748 61.88648199205676 L 908.9433586109453 61.77884269952825 L 908.9322506104351 61.6711478088881 L 908.923525467135 61.56340808953563 L 908.9171840535521 61.45563431535299 L 908.9132270038225 61.34783726362778 L 908.9116547136477 61.24002771397536 L 908.9124673402557 61.13221644726084 L 908.9156648023843 61.02441424452105 L 908.92124678029 60.916631885886424 L 908.9292127157796 60.808880149503025 L 908.9395618122663 60.70116981045468 L 908.9522930348492 60.59351163968555 L 908.9674051104163 60.48591640292299 L 908.9848965277729 60.378394859601016 L 909.0047655377916 60.27095776178435 L 909.0270101535883 60.163615853093255 L 909.0516281507198 60.05637986762915 L 909.0786170674068 59.949260528901206 L 909.1079742047801 59.84226854875404 L 909.1396966271507 59.7354146262965 L 909.1737811623026 59.62870944683179 L 909.2102244018106 59.52216368078894 L 909.2490227013814 59.41578798265577 L 909.290172181217 59.30959298991343 L 909.3336687264041 59.203589321972714 L 909.3795079873241 59.09778757911208 L 909.4276853800893 58.992198341417634 L 909.4781960870006 58.88683216772516 L 909.5310350570292 58.78169959456423 L 909.5861970063223 58.67681113510454 L 909.6436764187309 58.57217727810464 L 909.7034675463617 58.46780848686303 L 909.7655644101516 58.36371519817185 L 909.8299608004661 58.25990782127324 L 909.8966502777199 58.15639673681838 L 909.9656261730207 58.053192295829454 L 910.0368815888365 57.950304818664556 L 910.1104093996852 57.84774459398567 L 910.1862022528468 57.745521877729786 L 910.2642525690992 57.64364689208335 L 910.344552543476 57.54212982446004 L 910.4270941460463 57.44098082648201 L 910.5118691227191 57.340210012964775 L 910.598868996067 57.2398274609057 L 910.6880850661754 57.13984320847635 L 910.7795084115115 57.040267254018644 L 910.873129889817 56.94110955504505 L 910.968940139022 56.84238002724283 L 911.0669295781817 56.74408854348249 L 911.1670884084335 56.646244932830506 L 911.269406613978 56.54885897956639 L 911.3738739630799 56.45194042220433 L 911.4804800090914 56.35549895251929 L 911.5892140914966 56.25954421457787 L 911.7000653369779 56.16408580377391 L 911.8130226605033 56.06913326586893 L 911.9280747664344 55.974696096037604 L 912.0452101496566 55.88078373791821 L 912.1644170967289 55.7874055826683 L 912.2856836870563 55.694570968025594 L 912.4089977940807 55.60228917737418 L 912.5343470864942 55.51056943881623 L 912.6617190294719 55.41942092424918 L 912.7911008859257 55.328852748448504 L 912.9224797177778 55.23887396815633 L 913.0558423872544 55.14949358117568 L 913.1911755581998 55.0607205254708 L 913.3284656974097 54.97256367827326 L 913.4676990759845 54.88503185519433 L 913.6088617707023 54.79813380934336 L 913.7519396654114 54.71187823045254 L 913.8969184524416 54.62627374400786 L 914.0437836340349 54.541328910386646 L 914.1925205237956 54.45705222400146 L 914.3431142481585 54.373452112450714 L 914.4955497478769 54.290536935675895 L 914.6498117795277 54.20831498512558 L 914.8058849170363 54.12679448292632 L 914.9637535532191 54.0459835810604 L 915.1234019013441 53.965890360550645 L 915.2848139967092 53.88652283065238 L 915.4479736982397 53.80788892805245 L 915.6128646901012 53.72999651607559 L 915.7794704833321 53.652853383898076 L 915.9477744174919 53.57646724576885 L 916.1177596623272 53.50084574023808 L 916.2894092194555 53.42599642939328 L 916.4627059240639 53.35192679810317 L 916.6376324466264 53.278644253269164 L 916.8141712946366 53.20615612308466 L 916.9923048143567 53.13446965630228 L 917.1720151925832 53.06359202150896 L 917.3532844584281 52.99353030640911 L 917.5360944851158 52.924291517115876 L 917.720426991796 52.85588257745046 L 917.9062635453718 52.78831032824984 L 918.0935855623424 52.72158152668263 L 918.2823743106622 52.65570284557336 L 918.4726109116141 52.590680872735255 L 918.6642763416962 52.52652211031142 L 918.8573514345253 52.463232974124615 L 919.051816882753 52.40081979303573 L 919.2476532399966 52.33928880831086 L 919.4448409227833 52.278646172997206 L 919.6433602125096 52.21889795130775 L 919.8431912574116 52.160050118014894 L 920.0443140745514 52.1021085578529 L 920.246708551815 52.045079064929524 L 920.4503544499233 51.98896734214652 L 920.6552314044561 51.933779000629414 L 920.8613189278888 51.87951955916637 L 921.0685964116407 51.826194443656306 L 921.2770431281361 51.77380898656634 L 921.4866382328773 51.72236842639853 L 921.6973607665283 51.67187790716602 L 921.9091896570113 51.622342477878675 L 922.1221037216139 51.57376709203812 L 922.3360816691071 51.526156607142475 L 922.5511021018743 51.47951578420055 L 922.7671435180515 51.43384928725578 L 922.984184313677 51.38916168291979 L 923.2022027848524 51.34545743991578 L 923.4211771299119 51.302740928631636 L 923.6410854516037 51.261016420682886 L 923.8619057592789 51.220288088485546 L 924.0836159710906 51.18056000483891 L 924.3061939162025 51.14183614251822 L 924.5296173370054 51.10412037387746 L 924.7538638913436 51.06741647046204 L 924.9789111547485 51.03172810263173 L 925.2047366226813 50.99705883919358 L 925.4313177127833 50.96341214704502 L 925.6586317671345 50.930791390827245 L 925.8866560545185 50.899199832588685 L 926.115367772697 50.86864063145883 L 926.3447440506886 50.83911684333235 L 926.5747619510568 50.81063142056343 L 926.8053984722029 50.78318721167063 L 927.0366305506673 50.75678696105195 L 927.2684350634346 50.731433308710464 L 927.500788830247 50.70712878999027 L 927.7336686159211 50.683875835323 L 927.9670511326727 50.66167676998473 L 928.2009130424445 50.6405338138635 L 928.4352309592404 50.6204490812373 L 928.6699814514639 50.60142458056266 L 928.9051410442614 50.583462214273794 L 929.1406862218698 50.566563778592354 L 929.3765934299674 50.55073096334783 L 929.6128390780302 50.53596535180856 L 929.84939954169 50.52226842052339 L 930.0862511650978 50.50964153917403 L 930.3233702632884 50.49808597043808 L 930.5607331245499 50.48760286986282 L 930.7983160127936 50.47819328574954 L 931.0360951699289 50.46985815904882 L 931.2740468182383 50.462598323266384 L 931.512147162755 50.456414504379765 L 931.7503723936431 50.45130732076569 L 931.9886986885782 50.44727728313828 L 932.2271022151292 50.444324794497916 L 932.465559133142 50.44245015009101 L 932.7040455971239 50.44165353738045 L 932.9425377586269 50.44193503602685 L 933.1810117686338 50.443294617880554 L 933.4194437799422 50.445732146984525 L 933.6578099495497 50.44924737958788 L 933.8960864410379 50.45383996417029 L 934.1342494269564 50.459509441477124 L 934.372275091205 50.46625524456538 L 934.6101396314154 50.474076698860365 L 934.8478192613321 50.48297302222316 L 935.0852902131902 50.49294332502887 L 935.3225287400921 50.50398661025549 L 935.559511118383 50.51610177358371 L 935.7962136500227 50.52928760350731 L 936.032612664955 50.54354278145426 L 936.2686845234756 50.55886588191867 L 936.5044056185952 50.575255372603245 L 936.7397523784009 50.592709614572584 L 936.9747012684128 50.61122686241703 L 937.2092287939375 50.630805264427224 L 937.4433115024183 50.651442862779284 L 937.676925985779 50.67313759373059 L 937.9100488827661 50.695887287826096 L 938.1426568812842 50.71968967011537 L 938.3747267207273 50.74454236038002 L 938.6062351943048 50.77044287337172 L 938.8371591513622 50.797388619060754 L 939.0674754996965 50.825376902895016 L 939.2971612078644 50.85440492606945 L 939.5261933074868 50.88446978580591 L 939.7545488955444 50.9155684756435 L 939.9822051366689 50.947697885739125 L 940.2091392654256 50.980854803178566 L 940.435328588591 51.01503591229771 L 940.6607504874213 51.05023779501413 L 940.8853824199142 51.08645693116888 L 941.1092019230639 51.12368969887854 L 941.3321866151065 51.16193237489736 L 941.5543141977585 51.201181134989596 L 941.775562458447 51.241432054311964 L 941.9959092725301 51.28268110780607 L 942.21533260551 51.32492417060092 L 942.4338105152364 51.368157018425464 L 942.6513211541003 51.41237532803093 L 942.8678427712191 51.45757467762322 L 943.0833537146115 51.503750547305025 L 943.2978324333627 51.55089831952786 L 943.5112574797797 51.5990132795538 L 943.7236075115356 51.64809061592693 L 943.9348612938044 51.69812542095451 L 944.1449977013835 51.749112691197745 L 944.3539957208076 51.801047327972086 L 944.5618344524488 51.85392413785714 L 944.7684931126071 51.90773783321599 L 944.9739510355888 51.962483032723924 L 945.1781876757727 52.01815426190663 L 945.3811826096651 52.07474595368758 L 945.5829155379416 52.132252448944755 L 945.7833662874777 52.190667997076545 L 945.9825148133654 52.24998675657682 L 946.180341200918 52.310202795619055 L 946.3768256676616 52.371310092649544 L 946.5719485653134 52.43330253698949 L 946.7656903817461 52.49617392944612 L 946.9580317429395 52.559917982932596 L 947.148953414918 52.62452832309667 L 947.3384363056731 52.68999848895818 L 947.526461467074 52.7563219335551 L 947.7130100967611 52.823492024598224 L 947.8980635400268 52.89150204513444 L 948.0816032916811 52.960345194218355 L 948.2636109979018 53.03001458759244 L 948.4440684580699 53.10050325837541 L 948.6229576265897 53.171804157758935 L 948.8002606146935 53.243910155712484 L 948.9759596922303 53.31681404169635 L 949.1500372894386 53.39050852538269 L 949.3224759987039 53.46498623738456 L 949.4932585762989 53.5402397299928 L 949.6623679441082 53.61626147792087 L 949.8297871913358 53.69304387905734 L 949.9954995761966 53.770579255226075 L 950.1594885275903 53.848859852954064 L 950.3217376467583 53.92787784424677 L 950.4822307089239 54.00762532737092 L 950.6409516649147 54.08809432764465 L 950.7978846427673 54.16927679823499 L 950.9530139493146 54.251164620962534 L 951.1063240717555 54.33374960711325 L 951.2577996792052 54.41702349825734 L 951.4074256242293 54.500977967075094 L 951.5551869443581 54.58560461818958 L 951.7010688635826 54.670894989006214 L 951.8450567938324 54.75684055055899 L 951.9871363364347 54.84343270836337 L 952.1272932835534 54.93066280327574 L 952.2655136196106 55.0185221123593 L 952.401783522688 55.107001849756344 L 952.5360893659088 55.196093167566886 L 952.6684177188006 55.28578715673337 L 952.7987553486382 55.37607484793163 L 952.9270892217676 55.46694721246779 L 953.0534065049083 55.55839516318112 L 953.1776945664369 55.65040955535275 L 953.2999409776513 55.742981187620146 L 953.420133514012 55.83610080289723 L 953.5382601563657 55.92975908930006 L 953.6543090921464 56.02394668107806 L 953.7682687165573 56.11865415955053 L 953.8801276337309 56.213872054048544 L 953.9898746578688 56.30959084286201 L 954.0974988143599 56.405800954191804 L 954.2029893408784 56.50249276710697 L 954.3063356884594 56.5996566125068 L 954.4075275225543 56.69728277408771 L 954.5065547240642 56.79536148931491 L 954.6034073903512 56.89388295039859 L 954.6980758362296 56.99283730527477 L 954.7905505949335 57.09221465859041 L 954.8808224190643 57.19200507269298 L 954.9688822815147 57.29219856862425 L 955.0547213763717 57.39278512711811 L 955.1383311197977 57.49375468960253 L 955.2197031508877 57.59509715920541 L 955.2988293325066 57.69680240176424 L 955.375701752102 57.79886024683951 L 955.4503127224962 57.90126048873177 L 955.5226547826542 58.003992887502164 L 955.5927206984304 58.10704716999642 L 955.6605034632914 58.21041303087217 L 955.7259962990174 58.31408013362946 L 955.7891926563793 58.41803811164441 L 955.850086215794 58.52227656920584 L 955.9086708879564 58.62678508255487 L 955.964940814448 58.731553200927245 L 956.0188903683232 58.83657044759845 L 956.0705141546715 58.94182632093131 L 956.1198070111571 59.04731029542622 L 956.1667640085358 59.153011822773635 L 956.2113804511466 59.25892033290889 L 956.2536518773827 59.36502523506925 L 956.2935740601365 59.471315918852895 L 956.3311430072232 59.57778175528004 L 956.3663549617792 59.684412097855756 L 956.3992064026386 59.79119628363465 L 956.4296940446844 59.89812363428712 L 956.4578148391781 60.005183457167206 L 956.4835659740635 60.11236504638185 L 956.5069448742487 60.21965768386144 L 956.527949201863 60.327050640431644 L 956.5465768564912 60.43453317688629 L 956.5628259753835 60.5420945450613 L 956.5766949336414 60.6497239889095 L 956.5881823443807 60.757410745576195 L 956.5972870588698 60.86514404647545 L 956.604008166645 60.972913118366954 L 956.608344995601 61.08070718443333 L 956.6102971120586 61.188515465357796 M 956.6104181021145 95.52678387991818 L 956.6092256422108 95.6345944248348 L 956.6056483817448 95.74239418878678 L 956.5996866784395 95.85017239188754 L 956.5913411284602 95.95791825640659 L 956.580612566355 96.06562100784727 L 956.5675020649711 96.1732698760242 L 956.5520109353479 96.28085409614023 L 956.5341407265853 96.38836290986303 L 956.5138932256892 96.49578556640084 L 956.4912704573931 96.60311132357748 L 956.4662746839547 96.7103294489067 L 956.4389084049307 96.8174292206653 L 956.4091743569261 96.92439992896537 L 956.377075513321 97.0312308768252 L 956.3426150839729 97.13791138123905 L 956.3057965148961 97.24443077424536 L 956.2666234879167 97.35077840399362 L 956.225099920305 97.45694363580944 L 956.181229964383 97.56291585325815 L 956.1350180071096 97.66868445920629 L 956.0864686696423 97.77423887688141 L 956.0355868068742 97.8795685509297 L 955.9823775069493 97.98466294847155 L 955.9268460907531 98.08951156015478 L 955.8689981113811 98.19410390120557 L 955.8088393535829 98.29842951247699 L 955.7463758331843 98.40247796149485 L 955.6816137964851 98.50623884350097 L 955.614559719635 98.60970178249359 L 955.5452203079861 98.71285643226504 L 955.4736024954215 98.81569247743631 L 955.3997134436628 98.91819963448859 L 955.3235605415538 99.02036765279156 L 955.245151404321 99.12218631562857 L 955.1644938728128 99.22364544121817 L 955.0815960127154 99.32473488373233 L 954.9964661137456 99.42544453431107 L 954.9091126888221 99.52576432207324 L 954.8195444732149 99.62568421512367 L 954.7277704236709 99.72519422155631 L 954.6337997175185 99.82428439045346 L 954.5376417517499 99.92294481288079 L 954.4393061420818 100.02116562287829 L 954.338802721993 100.11893699844678 L 954.2361415417419 100.2162491625302 L 954.1313328673608 100.31309238399325 L 954.0243871796299 100.40945697859446 L 953.915315173029 100.50533330995468 L 953.8041277546677 100.60071179052068 L 953.6908360431951 100.69558288252388 L 953.5754513676882 100.78993709893413 L 953.4579852665181 100.88376500440843 L 953.3384494861972 100.97705721623441 L 953.216855980204 101.06980440526866 L 953.0932169077876 101.16199729686952 L 952.9675446327522 101.25362667182469 L 952.8398517222207 101.34468336727302 L 952.7101509453777 101.43515827762084 L 952.5784552721927 101.52504235545253 L 952.4447778721235 101.61432661243519 L 952.3091321127986 101.70300212021755 L 952.1715315586807 101.7910600113227 L 952.0319899697108 101.87849148003492 L 951.8905212999315 101.9652877832802 L 951.7471396960917 102.05144024150056 L 951.6018594962326 102.13694023952193 L 951.4546952282527 102.22177922741581 L 951.3056616084566 102.30594872135407 L 951.1547735400817 102.38944030445748 L 951.0020461118094 102.47224562763729 L 950.847494596255 102.5543564104302 L 950.6911344484416 102.63576444182635 L 950.5329813042533 102.71646158109044 L 950.373050978873 102.79643975857579 L 950.2113594651998 102.8756909765313 L 950.0479229322506 102.95420730990122 L 949.882757723542 103.03198090711763 L 949.7158803554577 103.10900399088564 L 949.5473075155952 103.18526885896105 L 949.3770560610981 103.2607678849206 L 949.2051430169699 103.33549351892461 L 949.0315855743719 103.40943828847196 L 948.8564010889036 103.48259479914732 L 948.6796070788675 103.55495573536056 L 948.5012212235175 103.6265138610784 L 948.3212613612902 103.69726202054787 L 948.1397454880222 103.76719313901197 L 947.9566917551492 103.83630022341715 L 947.7721184678923 103.90457636311257 L 947.586044083426 103.97201473054113 L 947.3984872090341 104.03860858192229 L 947.2094666002474 104.10435125792642 L 947.0190011589696 104.1692361843407 L 946.8271099315857 104.23325687272656 L 946.6338121070589 104.29640692106851 L 946.4391270150104 104.35868001441433 L 946.2430741237872 104.4200699255066 L 946.045673038515 104.48057051540535 L 945.846943499138 104.54017573410202 L 945.6469053784442 104.5988796211244 L 945.4455786800793 104.65667630613272 L 945.2429835365452 104.71356000950664 L 945.0391402071874 104.7695250429232 L 944.8340690761692 104.82456580992574 L 944.6277906504324 104.87867680648341 L 944.4203255576481 104.93185262154162 L 944.2116945441524 104.98408793756322 L 944.001918472873 105.0353775310601 L 943.791018321242 105.08571627311568 L 943.5790151790989 105.13509912989768 L 943.3659302465812 105.1835211631616 L 943.1517848320049 105.23097753074444 L 942.9366003497325 105.27746348704899 L 942.7203983180333 105.32297438351839 L 942.5032003569302 105.36750566910086 L 942.2850281860382 105.41105289070501 L 942.0659036223926 105.45361169364494 L 941.8458485782672 105.49517782207583 L 941.6248850589832 105.53574711941947 L 941.4030351607082 105.57531552877992 L 941.1803210682472 105.61387909334925 L 940.9567650528237 105.65143395680312 L 940.7323894698533 105.68797636368647 L 940.507216756707 105.72350265978909 L 940.2812694304686 105.75800929251095 L 940.0545700856824 105.79149281121755 L 939.827141392094 105.82394986758491 L 939.5990060923831 105.85537721593445 L 939.3701869998898 105.88577171355752 L 939.1407069963325 105.9151303210297 L 938.9105890295205 105.94345010251467 L 938.6798561110584 105.97072822605791 L 938.448531314046 105.99696196386981 L 938.2166377707701 106.02214869259844 L 937.9841986703921 106.04628589359189 L 937.751237256628 106.0693711531502 L 937.517776825425 106.09140216276666 L 937.283840722632 106.11237671935864 L 937.049452341664 106.13229272548797 L 936.8146351211641 106.15114818957065 L 936.5794125426585 106.16894122607596 L 936.3438081282088 106.1856700557151 L 936.1078454380605 106.20133300561903 L 935.8715480682858 106.21592850950582 L 935.6349396484248 106.22945510783724 L 935.3980438391222 106.24191144796474 L 935.1608843297618 106.25329628426466 L 934.9234848360966 106.2636084782629 L 934.6858690978781 106.2728469987486 L 934.4480608764825 106.28101092187747 L 934.2100839525334 106.28809943126396 L 933.971962123525 106.29411181806304 L 933.7337192014419 106.29904748104106 L 933.4953790103775 106.30290592663582 L 933.2569653841525 106.30568676900597 L 933.0185021639307 106.30738973006962 L 932.7800131958356 106.30801463953205 L 932.5415223285651 106.30756143490284 L 932.3030534110072 106.3060301615021 L 932.064630289855 106.30342097245587 L 931.826276807222 106.29973412868088 L 931.5880167982576 106.29496999885845 L 931.3498740887644 106.28912905939758 L 931.1118724928148 106.28221189438736 L 930.87403581037 106.27421919553852 L 930.6363878249 106.26515176211427 L 930.3989523010055 106.25501050085043 L 930.1617529820408 106.24379642586464 L 929.9248135877403 106.23151065855508 L 929.688157811846 106.21815442748823 L 929.4518093197382 106.20372906827606 L 929.2157917460692 106.1882360234425 L 928.9801286923996 106.17167684227908 L 928.7448437248385 106.15405318069014 L 928.5099603716865 106.13536680102716 L 928.2755021210832 106.11561957191253 L 928.0414924186583 106.09481346805269 L 927.8079546651869 106.0729505700407 L 927.57491221425 106.05003306414814 L 927.3423883698983 106.0260632421065 L 927.1104063843225 106.00104350087803 L 926.8789894555279 105.97497634241597 L 926.6481607250143 105.94786437341445 L 926.4179432754628 105.9197103050478 L 926.1883601284262 105.89051695269937 L 925.9594342420279 105.86028723568009 L 925.7311885086659 105.82902417693644 L 925.5036457527233 105.79673090274827 L 925.276828728286 105.76341064241608 L 925.0507601168675 105.72906672793813 L 924.8254625251406 105.69370259367726 L 924.6009584826764 105.6573217760174 L 924.3772704396926 105.61992791301003 L 924.1544207648067 105.58152474401028 L 923.9324317428005 105.54211610930304 L 923.7113255723915 105.50170594971894 L 923.4911243640121 105.46029830624026 L 923.2718501375999 105.41789731959686 L 923.0535248203947 105.37450722985206 L 922.8361702447463 105.33013237597868 L 922.6198081459313 105.28477719542511 L 922.404460159979 105.23844622367163 L 922.1901478215087 105.1911440937768 L 921.9768925615756 105.14287553591419 L 921.7647157055281 105.09364537689936 L 921.5536384708748 105.0434585397072 L 921.3436819651635 104.99232004297959 L 921.1348671838696 104.9402350005236 L 920.9272150082973 104.88720862080007 L 920.7207462034911 104.83324620640276 L 920.5154814161594 104.77835315352817 L 920.31144117261 104.72253495143585 L 920.108645876697 104.66579718189945 L 919.9071158077812 104.60814551864868 L 919.7068711187015 104.54958572680184 L 919.5079318337599 104.49012366228926 L 919.3103178467192 104.42976527126788 L 919.1140489188133 104.36851658952648 L 918.9191446767715 104.30638374188221 L 918.7256246108556 104.24337294156805 L 918.5335080729108 104.17949048961154 L 918.342814274431 104.11474277420461 L 918.153562284637 104.04913627006486 L 917.9657710285701 103.98267753778805 L 917.7794592851994 103.91537322319199 L 917.594645685544 103.84723005665208 L 917.41134871081 103.77825485242818 L 917.2295866905417 103.70845450798322 L 917.0493778007902 103.63783600329349 L 916.870740062294 103.56640640015061 L 916.693691338678 103.49417284145538 L 916.5182493346672 103.42114255050346 L 916.3444315943158 103.3473228302631 L 916.1722554992529 103.27272106264479 L 916.0017382669445 103.19734470776314 L 915.8328969489719 103.1212013031908 L 915.665748429326 103.04429846320481 L 915.5003094227196 102.96664387802507 L 915.3365964729154 102.88824531304537 L 915.1746259510721 102.8091106080569 L 915.0144140541069 102.72924767646418 L 914.8559768030757 102.64866450449387 L 914.6993300415719 102.56736915039596 L 914.544489434141 102.48536974363815 L 914.3914704647148 102.40267448409276 L 914.2402884350624 102.31929164121684 L 914.0909584632611 102.2352295532252 L 913.9434954821836 102.15049662625658 L 913.7979142380051 102.06510133353308 L 913.6542292887286 101.97905221451278 L 913.5124550027294 101.89235787403591 L 913.372605557318 101.80502698146424 L 913.2346949373223 101.71706826981428 L 913.0987369336892 101.62849053488388 L 912.9647451421062 101.53930263437272 L 912.8327329616404 101.44951348699652 L 912.7027135934001 101.35913207159521 L 912.5747000392136 101.26816742623502 L 912.4487051003297 101.17662864730465 L 912.3247413761374 101.08452488860574 L 912.2028212629057 100.9918653604374 L 912.0829569525442 100.89865932867522 L 911.9651604313843 100.80491611384473 L 911.8494434789799 100.71064509018925 L 911.7358176669296 100.61585568473262 L 911.6242943577203 100.5205573763364 L 911.5148847035896 100.424759694752 L 911.4075996454119 100.32847221966773 L 911.3024499116036 100.2317045797509 L 911.1994460170506 100.13446645168483 L 911.0985982620563 100.03676755920131 L 910.9999167313122 99.93861767210817 L 910.9034112928892 99.84002660531232 L 910.8090915972508 99.7410042178383 L 910.7169670762878 99.64156041184232 L 910.6270469423756 99.54170513162211 L 910.5393401874527 99.4414483626225 L 910.4538555821214 99.34080013043682 L 910.3706016747711 99.23977049980442 L 910.2895867907231 99.13836957360418 L 910.2108190313983 99.03660749184422 L 910.134306273507 98.9344944306479 L 910.0600561682612 98.83204060123627 L 909.9880761406097 98.72925624890688 L 909.918373388495 98.6261516520093 L 909.8509548821345 98.52273712091731 L 909.7858273633225 98.41902299699785 L 909.7229973447565 98.31501965157686 L 909.6624711093864 98.21073748490224 L 909.6042547097849 98.10618692510373 L 909.5483539675437 98.0013784271502 L 909.4947744726902 97.89632247180411 L 909.4435215831294 97.79102956457344 L 909.3946004241076 97.68551023466115 L 909.3480158876997 97.57977503391233 L 909.3037726323208 97.47383453575894 L 909.2618750822594 97.3676993341625 L 909.2223274272357 97.2613800425547 L 909.185133621982 97.15488729277617 L 909.1502973858481 97.04823173401307 L 909.1178222024284 96.94142403173245 L 909.0877113192145 96.8344748666155 L 909.0599677472692 96.72739493348962 L 909.0345942609268 96.6201949402589 L 909.0115933975148 96.51288560683331 L 908.9909674571004 96.40547766405678 L 908.9727185022602 96.29798185263407 L 908.9568483578748 96.19040892205675 L 908.9433586109453 96.08276962952824 L 908.9322506104351 95.9750747388881 L 908.923525467135 95.86733501953563 L 908.9171840535521 95.75956124535298 L 908.9132270038225 95.65176419362778 L 908.9116547136477 95.54395464397535" stroke-miterlimit="10" stroke-width="2.7769845610000004" stroke-dasharray=""/></g><g><g/><text fill="black" stroke="none" font-family="sans-serif" font-size="11pt" font-style="normal" font-weight="normal" text-decoration="normal" x="901.3830763378255" y="123.83569119881818" text-anchor="start" dominant-baseline="alphabetic" xml:space="preserve">Database</text></g><g><path fill="white" stroke="black" paint-order="fill stroke markers" d=" M 173.5446561629661 720.9690478303181 A 9.311065881 9.311065881 0 1 1 173.54465150743357 720.959736765989 M 164.23359028196612 730.2801137113181 L 164.23359028196612 750.209061737318 M 152.4722439059661 737.4676031633181 L 175.99493665796612 737.4676031633181 M 164.23359028196612 750.209061737318 L 152.4722439059661 768.8311934993181 M 164.23359028196612 750.209061737318 L 175.99493665796612 768.8311934993181" stroke-miterlimit="10" stroke-width="2.7769845610000004" stroke-dasharray=""/></g><g><g/><text fill="black" stroke="none" font-family="sans-serif" font-size="11pt" font-style="normal" font-weight="normal" text-decoration="normal" x="142.2328807482747" y="705.3689286788181" text-anchor="start" dominant-baseline="alphabetic" xml:space="preserve">Renter</text></g><g><path fill="white" stroke="black" paint-order="fill stroke markers" d=" M 488.0935640318151 736.471155762018 A 24.2577769005 24.2577769005 0 1 1 488.0935519029277 736.4468979891604 M 438.1895179503151 762.950520311318 L 489.4820563123151 762.950520311318" stroke-miterlimit="10" stroke-width="2.7769845610000004" stroke-dasharray=""/></g><g><g/><text fill="black" stroke="none" font-family="sans-serif" font-size="11pt" font-style="normal" font-weight="normal" text-decoration="normal" x="445.09563667965494" y="705.3689286788181" text-anchor="start" dominant-baseline="alphabetic" xml:space="preserve">Client</text></g><g><path fill="white" stroke="black" paint-order="fill stroke markers" d=" M 696.350042497375 736.471155762018 A 24.2577769005 24.2577769005 0 1 1 696.3500303684875 736.4468979891604 M 646.445996415875 762.950520311318 L 697.738534777875 762.950520311318" stroke-miterlimit="10" stroke-width="2.7769845610000004" stroke-dasharray=""/></g><g><g/><text fill="black" stroke="none" font-family="sans-serif" font-size="11pt" font-style="normal" font-weight="normal" text-decoration="normal" x="643.5668673424805" y="705.3689286788181" text-anchor="start" dominant-baseline="alphabetic" xml:space="preserve">Backend</text></g><g><path fill="white" stroke="black" paint-order="fill stroke markers" d=" M 908.9116244661146 758.131635337818 L 908.9116244661146 723.8277084078179 L 956.6104181021145 723.8277084078179 L 956.6104181021145 758.131635337818" stroke-miterlimit="10" stroke-width="2.7769845610000004" stroke-dasharray=""/><path fill="white" stroke="black" paint-order="fill stroke markers" d=" M 956.6104181021145 722.6352385669179 L 956.6092256422108 722.7430491118346 L 956.6056483817448 722.8508488757865 L 956.5996866784395 722.9586270788873 L 956.5913411284602 723.0663729434063 L 956.580612566355 723.174075694847 L 956.5675020649711 723.2817245630239 L 956.5520109353479 723.38930878314 L 956.5341407265853 723.4968175968628 L 956.5138932256892 723.6042402534006 L 956.4912704573931 723.7115660105773 L 956.4662746839547 723.8187841359064 L 956.4389084049307 723.925883907665 L 956.4091743569261 724.0328546159651 L 956.377075513321 724.139685563825 L 956.3426150839729 724.2463660682388 L 956.3057965148961 724.352885461245 L 956.2666234879167 724.4592330909933 L 956.225099920305 724.5653983228092 L 956.181229964383 724.6713705402578 L 956.1350180071096 724.777139146206 L 956.0864686696423 724.8826935638812 L 956.0355868068742 724.9880232379294 L 955.9823775069493 725.0931176354712 L 955.9268460907531 725.1979662471545 L 955.8689981113811 725.3025585882053 L 955.8088393535829 725.4068841994767 L 955.7463758331843 725.5109326484945 L 955.6816137964851 725.6146935305006 L 955.614559719635 725.7181564694934 L 955.5452203079861 725.8213111192648 L 955.4736024954215 725.924147164436 L 955.3997134436628 726.0266543214883 L 955.3235605415538 726.1288223397913 L 955.245151404321 726.2306410026283 L 955.1644938728128 726.3321001282179 L 955.0815960127154 726.433189570732 L 954.9964661137456 726.5338992213108 L 954.9091126888221 726.6342190090729 L 954.8195444732149 726.7341389021234 L 954.7277704236709 726.833648908556 L 954.6337997175185 726.9327390774532 L 954.5376417517499 727.0313994998805 L 954.4393061420818 727.129620309878 L 954.338802721993 727.2273916854465 L 954.2361415417419 727.3247038495299 L 954.1313328673608 727.4215470709929 L 954.0243871796299 727.5179116655942 L 953.915315173029 727.6137879969544 L 953.8041277546677 727.7091664775204 L 953.6908360431951 727.8040375695236 L 953.5754513676882 727.8983917859339 L 953.4579852665181 727.9922196914082 L 953.3384494861972 728.0855119032342 L 953.216855980204 728.1782590922684 L 953.0932169077876 728.2704519838693 L 952.9675446327522 728.3620813588244 L 952.8398517222207 728.4531380542727 L 952.7101509453777 728.5436129646206 L 952.5784552721927 728.6334970424523 L 952.4447778721235 728.7227812994349 L 952.3091321127986 728.8114568072173 L 952.1715315586807 728.8995146983224 L 952.0319899697108 728.9869461670346 L 951.8905212999315 729.07374247028 L 951.7471396960917 729.1598949285003 L 951.6018594962326 729.2453949265216 L 951.4546952282527 729.3302339144155 L 951.3056616084566 729.4144034083538 L 951.1547735400817 729.4978949914572 L 951.0020461118094 729.580700314637 L 950.847494596255 729.6628110974299 L 950.6911344484416 729.7442191288261 L 950.5329813042533 729.8249162680902 L 950.373050978873 729.9048944455756 L 950.2113594651998 729.984145663531 L 950.0479229322506 730.0626619969009 L 949.882757723542 730.1404355941173 L 949.7158803554577 730.2174586778854 L 949.5473075155952 730.2937235459608 L 949.3770560610981 730.3692225719203 L 949.2051430169699 730.4439482059244 L 949.0315855743719 730.5178929754717 L 948.8564010889036 730.5910494861471 L 948.6796070788675 730.6634104223602 L 948.5012212235175 730.7349685480781 L 948.3212613612902 730.8057167075476 L 948.1397454880222 730.8756478260117 L 947.9566917551492 730.9447549104169 L 947.7721184678923 731.0130310501123 L 947.586044083426 731.0804694175408 L 947.3984872090341 731.147063268922 L 947.2094666002474 731.2128059449261 L 947.0190011589696 731.2776908713404 L 946.8271099315857 731.3417115597263 L 946.6338121070589 731.4048616080682 L 946.4391270150104 731.467134701414 L 946.2430741237872 731.5285246125063 L 946.045673038515 731.5890252024051 L 945.846943499138 731.6486304211018 L 945.6469053784442 731.7073343081241 L 945.4455786800793 731.7651309931324 L 945.2429835365452 731.8220146965064 L 945.0391402071874 731.8779797299229 L 944.8340690761692 731.9330204969255 L 944.6277906504324 731.9871314934832 L 944.4203255576481 732.0403073085414 L 944.2116945441524 732.092542624563 L 944.001918472873 732.1438322180599 L 943.791018321242 732.1941709601155 L 943.5790151790989 732.2435538168974 L 943.3659302465812 732.2919758501613 L 943.1517848320049 732.3394322177442 L 942.9366003497325 732.3859181740487 L 942.7203983180333 732.4314290705181 L 942.5032003569302 732.4759603561006 L 942.2850281860382 732.5195075777048 L 942.0659036223926 732.5620663806446 L 941.8458485782672 732.6036325090755 L 941.6248850589832 732.6442018064192 L 941.4030351607082 732.6837702157796 L 941.1803210682472 732.722333780349 L 940.9567650528237 732.7598886438028 L 940.7323894698533 732.7964310506862 L 940.507216756707 732.8319573467888 L 940.2812694304686 732.8664639795106 L 940.0545700856824 732.8999474982172 L 939.827141392094 732.9324045545847 L 939.5990060923831 732.9638319029342 L 939.3701869998898 732.9942264005573 L 939.1407069963325 733.0235850080294 L 938.9105890295205 733.0519047895144 L 938.6798561110584 733.0791829130576 L 938.448531314046 733.1054166508695 L 938.2166377707701 733.1306033795981 L 937.9841986703921 733.1547405805916 L 937.751237256628 733.1778258401499 L 937.517776825425 733.1998568497663 L 937.283840722632 733.2208314063583 L 937.049452341664 733.2407474124877 L 936.8146351211641 733.2596028765704 L 936.5794125426585 733.2773959130757 L 936.3438081282088 733.2941247427149 L 936.1078454380605 733.3097876926188 L 935.8715480682858 733.3243831965056 L 935.6349396484248 733.337909794837 L 935.3980438391222 733.3503661349645 L 935.1608843297618 733.3617509712644 L 934.9234848360966 733.3720631652626 L 934.6858690978781 733.3813016857483 L 934.4480608764825 733.3894656088772 L 934.2100839525334 733.3965541182637 L 933.971962123525 733.4025665050627 L 933.7337192014419 733.4075021680408 L 933.4953790103775 733.4113606136356 L 933.2569653841525 733.4141414560057 L 933.0185021639307 733.4158444170694 L 932.7800131958356 733.4164693265318 L 932.5415223285651 733.4160161219025 L 932.3030534110072 733.4144848485018 L 932.064630289855 733.4118756594556 L 931.826276807222 733.4081888156807 L 931.5880167982576 733.4034246858582 L 931.3498740887644 733.3975837463973 L 931.1118724928148 733.3906665813871 L 930.87403581037 733.3826738825383 L 930.6363878249 733.373606449114 L 930.3989523010055 733.3634651878501 L 930.1617529820408 733.3522511128643 L 929.9248135877403 733.3399653455548 L 929.688157811846 733.326609114488 L 929.4518093197382 733.3121837552758 L 929.2157917460692 733.2966907104422 L 928.9801286923996 733.2801315292788 L 928.7448437248385 733.2625078676899 L 928.5099603716865 733.2438214880269 L 928.2755021210832 733.2240742589122 L 928.0414924186583 733.2032681550525 L 927.8079546651869 733.1814052570404 L 927.57491221425 733.1584877511478 L 927.3423883698983 733.1345179291062 L 927.1104063843225 733.1094981878778 L 926.8789894555279 733.0834310294157 L 926.6481607250143 733.0563190604141 L 926.4179432754628 733.0281649920476 L 926.1883601284262 732.9989716396991 L 925.9594342420279 732.9687419226798 L 925.7311885086659 732.9374788639361 L 925.5036457527233 732.905185589748 L 925.276828728286 732.8718653294158 L 925.0507601168675 732.8375214149379 L 924.8254625251406 732.802157280677 L 924.6009584826764 732.7657764630171 L 924.3772704396926 732.7283826000098 L 924.1544207648067 732.68997943101 L 923.9324317428005 732.6505707963028 L 923.7113255723915 732.6101606367187 L 923.4911243640121 732.56875299324 L 923.2718501375999 732.5263520065965 L 923.0535248203947 732.4829619168518 L 922.8361702447463 732.4385870629784 L 922.6198081459313 732.3932318824249 L 922.404460159979 732.3469009106714 L 922.1901478215087 732.2995987807765 L 921.9768925615756 732.2513302229139 L 921.7647157055281 732.2021000638991 L 921.5536384708748 732.1519132267069 L 921.3436819651635 732.1007747299793 L 921.1348671838696 732.0486896875233 L 920.9272150082973 731.9956633077998 L 920.7207462034911 731.9417008934025 L 920.5154814161594 731.8868078405279 L 920.31144117261 731.8309896384355 L 920.108645876697 731.7742518688992 L 919.9071158077812 731.7166002056484 L 919.7068711187015 731.6580404138016 L 919.5079318337599 731.598578349289 L 919.3103178467192 731.5382199582676 L 919.1140489188133 731.4769712765262 L 918.9191446767715 731.4148384288819 L 918.7256246108556 731.3518276285678 L 918.5335080729108 731.2879451766113 L 918.342814274431 731.2231974612043 L 918.153562284637 731.1575909570646 L 917.9657710285701 731.0911322247878 L 917.7794592851994 731.0238279101917 L 917.594645685544 730.9556847436518 L 917.41134871081 730.8867095394279 L 917.2295866905417 730.8169091949829 L 917.0493778007902 730.7462906902932 L 916.870740062294 730.6748610871504 L 916.693691338678 730.6026275284551 L 916.5182493346672 730.5295972375031 L 916.3444315943158 730.4557775172628 L 916.1722554992529 730.3811757496445 L 916.0017382669445 730.3057993947629 L 915.8328969489719 730.2296559901905 L 915.665748429326 730.1527531502045 L 915.5003094227196 730.0750985650247 L 915.3365964729154 729.996700000045 L 915.1746259510721 729.9175652950566 L 915.0144140541069 729.8377023634639 L 914.8559768030757 729.7571191914935 L 914.6993300415719 729.6758238373957 L 914.544489434141 729.5938244306378 L 914.3914704647148 729.5111291710924 L 914.2402884350624 729.4277463282166 L 914.0909584632611 729.3436842402249 L 913.9434954821836 729.2589513132563 L 913.7979142380051 729.1735560205328 L 913.6542292887286 729.0875069015125 L 913.5124550027294 729.0008125610357 L 913.372605557318 728.913481668464 L 913.2346949373223 728.825522956814 L 913.0987369336892 728.7369452218836 L 912.9647451421062 728.6477573213724 L 912.8327329616404 728.5579681739963 L 912.7027135934001 728.467586758595 L 912.5747000392136 728.3766221132347 L 912.4487051003297 728.2850833343044 L 912.3247413761374 728.1929795756055 L 912.2028212629057 728.1003200474371 L 912.0829569525442 728.0071140156749 L 911.9651604313843 727.9133708008444 L 911.8494434789799 727.819099777189 L 911.7358176669296 727.7243103717324 L 911.6242943577203 727.6290120633361 L 911.5148847035896 727.5332143817517 L 911.4075996454119 727.4369269066675 L 911.3024499116036 727.3401592667507 L 911.1994460170506 727.2429211386846 L 911.0985982620563 727.145222246201 L 910.9999167313122 727.0470723591079 L 910.9034112928892 726.9484812923121 L 910.8090915972508 726.849458904838 L 910.7169670762878 726.750015098842 L 910.6270469423756 726.6501598186219 L 910.5393401874527 726.5499030496222 L 910.4538555821214 726.4492548174366 L 910.3706016747711 726.3482251868041 L 910.2895867907231 726.246824260604 L 910.2108190313983 726.1450621788439 L 910.134306273507 726.0429491176476 L 910.0600561682612 725.940495288236 L 909.9880761406097 725.8377109359066 L 909.918373388495 725.734606339009 L 909.8509548821345 725.631191807917 L 909.7858273633225 725.5274776839975 L 909.7229973447565 725.4234743385766 L 909.6624711093864 725.3191921719019 L 909.6042547097849 725.2146416121035 L 909.5483539675437 725.10983311415 L 909.4947744726902 725.0047771588038 L 909.4435215831294 724.8994842515732 L 909.3946004241076 724.7939649216609 L 909.3480158876997 724.6882297209121 L 909.3037726323208 724.5822892227586 L 909.2618750822594 724.4761540211622 L 909.2223274272357 724.3698347295544 L 909.185133621982 724.2633419797759 L 909.1502973858481 724.1566864210128 L 909.1178222024284 724.0498787187322 L 909.0877113192145 723.9429295536153 L 909.0599677472692 723.8358496204894 L 909.0345942609268 723.7286496272586 L 909.0115933975148 723.621340293833 L 908.9909674571004 723.5139323510565 L 908.9727185022602 723.4064365396338 L 908.9568483578748 723.2988636090565 L 908.9433586109453 723.191224316528 L 908.9322506104351 723.0835294258878 L 908.923525467135 722.9757897065354 L 908.9171840535521 722.8680159323527 L 908.9132270038225 722.7602188806275 L 908.9116547136477 722.652409330975 L 908.9124673402557 722.5445980642605 L 908.9156648023843 722.4367958615207 L 908.92124678029 722.3290135028861 L 908.9292127157796 722.2212617665027 L 908.9395618122663 722.1135514274544 L 908.9522930348492 722.0058932566852 L 908.9674051104163 721.8982980199227 L 908.9848965277729 721.7907764766007 L 909.0047655377916 721.683339378784 L 909.0270101535883 721.575997470093 L 909.0516281507198 721.4687614846289 L 909.0786170674068 721.3616421459009 L 909.1079742047801 721.2546501657538 L 909.1396966271507 721.1477962432962 L 909.1737811623026 721.0410910638315 L 909.2102244018106 720.9345452977886 L 909.2490227013814 720.8281695996554 L 909.290172181217 720.7219746069131 L 909.3336687264041 720.6159709389724 L 909.3795079873241 720.5101691961117 L 909.4276853800893 720.4045799584173 L 909.4781960870006 720.2992137847249 L 909.5310350570292 720.1940812115639 L 909.5861970063223 720.0891927521043 L 909.6436764187309 719.9845588951043 L 909.7034675463617 719.8801901038628 L 909.7655644101516 719.7760968151715 L 909.8299608004661 719.672289438273 L 909.8966502777199 719.5687783538181 L 909.9656261730207 719.4655739128292 L 910.0368815888365 719.3626864356643 L 910.1104093996852 719.2601262109854 L 910.1862022528468 719.1579034947295 L 910.2642525690992 719.056028509083 L 910.344552543476 718.9545114414598 L 910.4270941460463 718.8533624434817 L 910.5118691227191 718.7525916299645 L 910.598868996067 718.6522090779055 L 910.6880850661754 718.5522248254761 L 910.7795084115115 718.4526488710184 L 910.873129889817 718.3534911720448 L 910.968940139022 718.2547616442425 L 911.0669295781817 718.1564701604822 L 911.1670884084335 718.0586265498303 L 911.269406613978 717.9612405965661 L 911.3738739630799 717.864322039204 L 911.4804800090914 717.767880569519 L 911.5892140914966 717.6719258315776 L 911.7000653369779 717.5764674207736 L 911.8130226605033 717.4815148828686 L 911.9280747664344 717.3870777130373 L 912.0452101496566 717.293165354918 L 912.1644170967289 717.199787199668 L 912.2856836870563 717.1069525850253 L 912.4089977940807 717.014670794374 L 912.5343470864942 716.9229510558159 L 912.6617190294719 716.8318025412489 L 912.7911008859257 716.7412343654482 L 912.9224797177778 716.651255585156 L 913.0558423872544 716.5618751981754 L 913.1911755581998 716.4731021424706 L 913.3284656974097 716.3849452952729 L 913.4676990759845 716.2974134721941 L 913.6088617707023 716.2105154263431 L 913.7519396654114 716.1242598474522 L 913.8969184524416 716.0386553610076 L 914.0437836340349 715.9537105273864 L 914.1925205237956 715.8694338410012 L 914.3431142481585 715.7858337294505 L 914.4955497478769 715.7029185526756 L 914.6498117795277 715.6206966021253 L 914.8058849170363 715.5391760999261 L 914.9637535532191 715.4583651980602 L 915.1234019013441 715.3782719775504 L 915.2848139967092 715.2989044476521 L 915.4479736982397 715.2202705450521 L 915.6128646901012 715.1423781330753 L 915.7794704833321 715.0652350008978 L 915.9477744174919 714.9888488627686 L 916.1177596623272 714.9132273572378 L 916.2894092194555 714.838378046393 L 916.4627059240639 714.7643084151028 L 916.6376324466264 714.6910258702688 L 916.8141712946366 714.6185377400843 L 916.9923048143567 714.546851273302 L 917.1720151925832 714.4759736385087 L 917.3532844584281 714.4059119234088 L 917.5360944851158 714.3366731341156 L 917.720426991796 714.2682641944501 L 917.9062635453718 714.2006919452496 L 918.0935855623424 714.1339631436823 L 918.2823743106622 714.0680844625731 L 918.4726109116141 714.0030624897349 L 918.6642763416962 713.9389037273112 L 918.8573514345253 713.8756145911243 L 919.051816882753 713.8132014100354 L 919.2476532399966 713.7516704253105 L 919.4448409227833 713.691027789997 L 919.6433602125096 713.6312795683075 L 919.8431912574116 713.5724317350146 L 920.0443140745514 713.5144901748527 L 920.246708551815 713.4574606819292 L 920.4503544499233 713.4013489591463 L 920.6552314044561 713.3461606176292 L 920.8613189278888 713.2919011761661 L 921.0685964116407 713.238576060656 L 921.2770431281361 713.186190603566 L 921.4866382328773 713.1347500433983 L 921.6973607665283 713.0842595241658 L 921.9091896570113 713.0347240948784 L 922.1221037216139 712.9861487090378 L 922.3360816691071 712.9385382241422 L 922.5511021018743 712.8918974012003 L 922.7671435180515 712.8462309042555 L 922.984184313677 712.8015432999196 L 923.2022027848524 712.7578390569155 L 923.4211771299119 712.7151225456314 L 923.6410854516037 712.6733980376825 L 923.8619057592789 712.6326697054852 L 924.0836159710906 712.5929416218386 L 924.3061939162025 712.554217759518 L 924.5296173370054 712.5165019908771 L 924.7538638913436 712.4797980874617 L 924.9789111547485 712.4441097196315 L 925.2047366226813 712.4094404561934 L 925.4313177127833 712.3757937640447 L 925.6586317671345 712.343173007827 L 925.8866560545185 712.3115814495884 L 926.115367772697 712.2810222484585 L 926.3447440506886 712.2514984603321 L 926.5747619510568 712.2230130375632 L 926.8053984722029 712.1955688286704 L 927.0366305506673 712.1691685780517 L 927.2684350634346 712.1438149257102 L 927.500788830247 712.11951040699 L 927.7336686159211 712.0962574523227 L 927.9670511326727 712.0740583869845 L 928.2009130424445 712.0529154308632 L 928.4352309592404 712.032830698237 L 928.6699814514639 712.0138061975624 L 928.9051410442614 711.9958438312735 L 929.1406862218698 711.9789453955921 L 929.3765934299674 711.9631125803476 L 929.6128390780302 711.9483469688083 L 929.84939954169 711.934650037523 L 930.0862511650978 711.9220231561737 L 930.3233702632884 711.9104675874378 L 930.5607331245499 711.8999844868625 L 930.7983160127936 711.8905749027492 L 931.0360951699289 711.8822397760486 L 931.2740468182383 711.8749799402661 L 931.512147162755 711.8687961213794 L 931.7503723936431 711.8636889377655 L 931.9886986885782 711.859658900138 L 932.2271022151292 711.8567064114976 L 932.465559133142 711.8548317670908 L 932.7040455971239 711.8540351543802 L 932.9425377586269 711.8543166530266 L 933.1810117686338 711.8556762348803 L 933.4194437799422 711.8581137639842 L 933.6578099495497 711.8616289965876 L 933.8960864410379 711.8662215811701 L 934.1342494269564 711.8718910584769 L 934.372275091205 711.8786368615652 L 934.6101396314154 711.8864583158601 L 934.8478192613321 711.8953546392229 L 935.0852902131902 711.9053249420285 L 935.3225287400921 711.9163682272552 L 935.559511118383 711.9284833905834 L 935.7962136500227 711.941669220507 L 936.032612664955 711.9559243984539 L 936.2686845234756 711.9712474989184 L 936.5044056185952 711.987636989603 L 936.7397523784009 712.0050912315724 L 936.9747012684128 712.0236084794168 L 937.2092287939375 712.0431868814269 L 937.4433115024183 712.063824479779 L 937.676925985779 712.0855192107304 L 937.9100488827661 712.1082689048258 L 938.1426568812842 712.1320712871151 L 938.3747267207273 712.1569239773797 L 938.6062351943048 712.1828244903714 L 938.8371591513622 712.2097702360604 L 939.0674754996965 712.2377585198948 L 939.2971612078644 712.2667865430692 L 939.5261933074868 712.2968514028056 L 939.7545488955444 712.3279500926432 L 939.9822051366689 712.3600795027388 L 940.2091392654256 712.3932364201783 L 940.435328588591 712.4274175292975 L 940.6607504874213 712.4626194120139 L 940.8853824199142 712.4988385481686 L 941.1092019230639 712.5360713158783 L 941.3321866151065 712.574313991897 L 941.5543141977585 712.6135627519893 L 941.775562458447 712.6538136713117 L 941.9959092725301 712.6950627248058 L 942.21533260551 712.7373057876007 L 942.4338105152364 712.7805386354252 L 942.6513211541003 712.8247569450307 L 942.8678427712191 712.869956294623 L 943.0833537146115 712.9161321643047 L 943.2978324333627 712.9632799365276 L 943.5112574797797 713.0113948965535 L 943.7236075115356 713.0604722329266 L 943.9348612938044 713.1105070379542 L 944.1449977013835 713.1614943081975 L 944.3539957208076 713.2134289449718 L 944.5618344524488 713.2663057548568 L 944.7684931126071 713.3201194502157 L 944.9739510355888 713.3748646497237 L 945.1781876757727 713.4305358789063 L 945.3811826096651 713.4871275706873 L 945.5829155379416 713.5446340659445 L 945.7833662874777 713.6030496140762 L 945.9825148133654 713.6623683735766 L 946.180341200918 713.7225844126187 L 946.3768256676616 713.7836917096492 L 946.5719485653134 713.8456841539892 L 946.7656903817461 713.9085555464459 L 946.9580317429395 713.9722995999323 L 947.148953414918 714.0369099400964 L 947.3384363056731 714.1023801059579 L 947.526461467074 714.1687035505548 L 947.7130100967611 714.2358736415979 L 947.8980635400268 714.3038836621341 L 948.0816032916811 714.3727268112181 L 948.2636109979018 714.4423962045921 L 948.4440684580699 714.5128848753751 L 948.6229576265897 714.5841857747587 L 948.8002606146935 714.6562917727122 L 948.9759596922303 714.7291956586961 L 949.1500372894386 714.8028901423825 L 949.3224759987039 714.8773678543843 L 949.4932585762989 714.9526213469925 L 949.6623679441082 715.0286430949205 L 949.8297871913358 715.105425496057 L 949.9954995761966 715.1829608722257 L 950.1594885275903 715.2612414699538 L 950.3217376467583 715.3402594612465 L 950.4822307089239 715.4200069443706 L 950.6409516649147 715.5004759446443 L 950.7978846427673 715.5816584152348 L 950.9530139493146 715.6635462379622 L 951.1063240717555 715.746131224113 L 951.2577996792052 715.829405115257 L 951.4074256242293 715.9133595840748 L 951.5551869443581 715.9979862351893 L 951.7010688635826 716.0832766060059 L 951.8450567938324 716.1692221675587 L 951.9871363364347 716.2558143253631 L 952.1272932835534 716.3430444202754 L 952.2655136196106 716.430903729359 L 952.401783522688 716.519383466756 L 952.5360893659088 716.6084747845666 L 952.6684177188006 716.6981687737331 L 952.7987553486382 716.7884564649313 L 952.9270892217676 716.8793288294675 L 953.0534065049083 716.9707767801808 L 953.1776945664369 717.0627911723525 L 953.2999409776513 717.1553628046198 L 953.420133514012 717.248482419897 L 953.5382601563657 717.3421407062998 L 953.6543090921464 717.4363282980778 L 953.7682687165573 717.5310357765502 L 953.8801276337309 717.6262536710483 L 953.9898746578688 717.7219724598617 L 954.0974988143599 717.8181825711915 L 954.2029893408784 717.9148743841067 L 954.3063356884594 718.0120382295065 L 954.4075275225543 718.1096643910874 L 954.5065547240642 718.2077431063146 L 954.6034073903512 718.3062645673983 L 954.6980758362296 718.4052189222745 L 954.7905505949335 718.5045962755901 L 954.8808224190643 718.6043866896927 L 954.9688822815147 718.704580185624 L 955.0547213763717 718.8051667441179 L 955.1383311197977 718.9061363066022 L 955.2197031508877 719.0074787762052 L 955.2988293325066 719.1091840187639 L 955.375701752102 719.2112418638392 L 955.4503127224962 719.3136421057314 L 955.5226547826542 719.4163745045018 L 955.5927206984304 719.5194287869962 L 955.6605034632914 719.6227946478718 L 955.7259962990174 719.7264617506291 L 955.7891926563793 719.8304197286441 L 955.850086215794 719.9346581862055 L 955.9086708879564 720.0391666995546 L 955.964940814448 720.143934817927 L 956.0188903683232 720.2489520645981 L 956.0705141546715 720.354207937931 L 956.1198070111571 720.4596919124259 L 956.1667640085358 720.5653934397734 L 956.2113804511466 720.6713019499086 L 956.2536518773827 720.7774068520689 L 956.2935740601365 720.8836975358527 L 956.3311430072232 720.9901633722798 L 956.3663549617792 721.0967937148555 L 956.3992064026386 721.2035779006344 L 956.4296940446844 721.3105052512868 L 956.4578148391781 721.4175650741669 L 956.4835659740635 721.5247466633816 L 956.5069448742487 721.6320393008612 L 956.527949201863 721.7394322574313 L 956.5465768564912 721.846914793886 L 956.5628259753835 721.954476162061 L 956.5766949336414 722.0621056059092 L 956.5881823443807 722.1697923625759 L 956.5972870588698 722.2775256634752 L 956.604008166645 722.3852947353666 L 956.608344995601 722.493088801433 L 956.6102971120586 722.6008970823575 M 956.6104181021145 756.939165496918 L 956.6092256422108 757.0469760418347 L 956.6056483817448 757.1547758057866 L 956.5996866784395 757.2625540088874 L 956.5913411284602 757.3702998734065 L 956.580612566355 757.4780026248471 L 956.5675020649711 757.585651493024 L 956.5520109353479 757.6932357131401 L 956.5341407265853 757.8007445268629 L 956.5138932256892 757.9081671834007 L 956.4912704573931 758.0154929405774 L 956.4662746839547 758.1227110659065 L 956.4389084049307 758.2298108376651 L 956.4091743569261 758.3367815459652 L 956.377075513321 758.4436124938251 L 956.3426150839729 758.5502929982389 L 956.3057965148961 758.6568123912452 L 956.2666234879167 758.7631600209934 L 956.225099920305 758.8693252528093 L 956.181229964383 758.9752974702579 L 956.1350180071096 759.0810660762061 L 956.0864686696423 759.1866204938813 L 956.0355868068742 759.2919501679295 L 955.9823775069493 759.3970445654713 L 955.9268460907531 759.5018931771546 L 955.8689981113811 759.6064855182054 L 955.8088393535829 759.7108111294768 L 955.7463758331843 759.8148595784946 L 955.6816137964851 759.9186204605007 L 955.614559719635 760.0220833994935 L 955.5452203079861 760.1252380492649 L 955.4736024954215 760.2280740944361 L 955.3997134436628 760.3305812514884 L 955.3235605415538 760.4327492697914 L 955.245151404321 760.5345679326284 L 955.1644938728128 760.636027058218 L 955.0815960127154 760.7371165007321 L 954.9964661137456 760.8378261513109 L 954.9091126888221 760.938145939073 L 954.8195444732149 761.0380658321235 L 954.7277704236709 761.1375758385561 L 954.6337997175185 761.2366660074533 L 954.5376417517499 761.3353264298806 L 954.4393061420818 761.4335472398781 L 954.338802721993 761.5313186154466 L 954.2361415417419 761.62863077953 L 954.1313328673608 761.725474000993 L 954.0243871796299 761.8218385955943 L 953.915315173029 761.9177149269545 L 953.8041277546677 762.0130934075205 L 953.6908360431951 762.1079644995237 L 953.5754513676882 762.202318715934 L 953.4579852665181 762.2961466214083 L 953.3384494861972 762.3894388332343 L 953.216855980204 762.4821860222685 L 953.0932169077876 762.5743789138694 L 952.9675446327522 762.6660082888245 L 952.8398517222207 762.7570649842728 L 952.7101509453777 762.8475398946207 L 952.5784552721927 762.9374239724524 L 952.4447778721235 763.026708229435 L 952.3091321127986 763.1153837372174 L 952.1715315586807 763.2034416283225 L 952.0319899697108 763.2908730970347 L 951.8905212999315 763.3776694002801 L 951.7471396960917 763.4638218585004 L 951.6018594962326 763.5493218565217 L 951.4546952282527 763.6341608444156 L 951.3056616084566 763.7183303383539 L 951.1547735400817 763.8018219214573 L 951.0020461118094 763.8846272446372 L 950.847494596255 763.96673802743 L 950.6911344484416 764.0481460588262 L 950.5329813042533 764.1288431980903 L 950.373050978873 764.2088213755757 L 950.2113594651998 764.2880725935311 L 950.0479229322506 764.366588926901 L 949.882757723542 764.4443625241174 L 949.7158803554577 764.5213856078855 L 949.5473075155952 764.5976504759609 L 949.3770560610981 764.6731495019204 L 949.2051430169699 764.7478751359245 L 949.0315855743719 764.8218199054718 L 948.8564010889036 764.8949764161472 L 948.6796070788675 764.9673373523603 L 948.5012212235175 765.0388954780782 L 948.3212613612902 765.1096436375477 L 948.1397454880222 765.1795747560118 L 947.9566917551492 765.248681840417 L 947.7721184678923 765.3169579801124 L 947.586044083426 765.3843963475409 L 947.3984872090341 765.4509901989221 L 947.2094666002474 765.5167328749262 L 947.0190011589696 765.5816178013405 L 946.8271099315857 765.6456384897264 L 946.6338121070589 765.7087885380683 L 946.4391270150104 765.7710616314141 L 946.2430741237872 765.8324515425064 L 946.045673038515 765.8929521324052 L 945.846943499138 765.9525573511019 L 945.6469053784442 766.0112612381242 L 945.4455786800793 766.0690579231325 L 945.2429835365452 766.1259416265065 L 945.0391402071874 766.181906659923 L 944.8340690761692 766.2369474269256 L 944.6277906504324 766.2910584234833 L 944.4203255576481 766.3442342385415 L 944.2116945441524 766.396469554563 L 944.001918472873 766.44775914806 L 943.791018321242 766.4980978901156 L 943.5790151790989 766.5474807468975 L 943.3659302465812 766.5959027801614 L 943.1517848320049 766.6433591477443 L 942.9366003497325 766.6898451040488 L 942.7203983180333 766.7353560005182 L 942.5032003569302 766.7798872861007 L 942.2850281860382 766.8234345077049 L 942.0659036223926 766.8659933106447 L 941.8458485782672 766.9075594390756 L 941.6248850589832 766.9481287364193 L 941.4030351607082 766.9876971457797 L 941.1803210682472 767.0262607103491 L 940.9567650528237 767.0638155738029 L 940.7323894698533 767.1003579806863 L 940.507216756707 767.1358842767889 L 940.2812694304686 767.1703909095107 L 940.0545700856824 767.2038744282174 L 939.827141392094 767.2363314845848 L 939.5990060923831 767.2677588329343 L 939.3701869998898 767.2981533305574 L 939.1407069963325 767.3275119380295 L 938.9105890295205 767.3558317195145 L 938.6798561110584 767.3831098430577 L 938.448531314046 767.4093435808696 L 938.2166377707701 767.4345303095982 L 937.9841986703921 767.4586675105917 L 937.751237256628 767.48175277015 L 937.517776825425 767.5037837797664 L 937.283840722632 767.5247583363584 L 937.049452341664 767.5446743424878 L 936.8146351211641 767.5635298065705 L 936.5794125426585 767.5813228430758 L 936.3438081282088 767.598051672715 L 936.1078454380605 767.6137146226189 L 935.8715480682858 767.6283101265057 L 935.6349396484248 767.641836724837 L 935.3980438391222 767.6542930649646 L 935.1608843297618 767.6656779012645 L 934.9234848360966 767.6759900952627 L 934.6858690978781 767.6852286157484 L 934.4480608764825 767.6933925388773 L 934.2100839525334 767.7004810482638 L 933.971962123525 767.7064934350628 L 933.7337192014419 767.7114290980409 L 933.4953790103775 767.7152875436357 L 933.2569653841525 767.7180683860058 L 933.0185021639307 767.7197713470695 L 932.7800131958356 767.7203962565319 L 932.5415223285651 767.7199430519026 L 932.3030534110072 767.718411778502 L 932.064630289855 767.7158025894557 L 931.826276807222 767.7121157456806 L 931.5880167982576 767.7073516158583 L 931.3498740887644 767.7015106763974 L 931.1118724928148 767.6945935113872 L 930.87403581037 767.6866008125384 L 930.6363878249 767.6775333791142 L 930.3989523010055 767.6673921178502 L 930.1617529820408 767.6561780428644 L 929.9248135877403 767.6438922755549 L 929.688157811846 767.630536044488 L 929.4518093197382 767.6161106852759 L 929.2157917460692 767.6006176404424 L 928.9801286923996 767.5840584592789 L 928.7448437248385 767.56643479769 L 928.5099603716865 767.547748418027 L 928.2755021210832 767.5280011889123 L 928.0414924186583 767.5071950850526 L 927.8079546651869 767.4853321870405 L 927.57491221425 767.462414681148 L 927.3423883698983 767.4384448591063 L 927.1104063843225 767.4134251178779 L 926.8789894555279 767.3873579594158 L 926.6481607250143 767.3602459904142 L 926.4179432754628 767.3320919220477 L 926.1883601284262 767.3028985696992 L 925.9594342420279 767.2726688526799 L 925.7311885086659 767.2414057939362 L 925.5036457527233 767.2091125197481 L 925.276828728286 767.1757922594159 L 925.0507601168675 767.141448344938 L 924.8254625251406 767.1060842106771 L 924.6009584826764 767.0697033930172 L 924.3772704396926 767.0323095300099 L 924.1544207648067 766.9939063610101 L 923.9324317428005 766.9544977263029 L 923.7113255723915 766.9140875667188 L 923.4911243640121 766.8726799232401 L 923.2718501375999 766.8302789365966 L 923.0535248203947 766.7868888468519 L 922.8361702447463 766.7425139929785 L 922.6198081459313 766.697158812425 L 922.404460159979 766.6508278406715 L 922.1901478215087 766.6035257107766 L 921.9768925615756 766.555257152914 L 921.7647157055281 766.5060269938992 L 921.5536384708748 766.455840156707 L 921.3436819651635 766.4047016599794 L 921.1348671838696 766.3526166175234 L 920.9272150082973 766.2995902377999 L 920.7207462034911 766.2456278234026 L 920.5154814161594 766.190734770528 L 920.31144117261 766.1349165684356 L 920.108645876697 766.0781787988993 L 919.9071158077812 766.0205271356485 L 919.7068711187015 765.9619673438017 L 919.5079318337599 765.9025052792891 L 919.3103178467192 765.8421468882677 L 919.1140489188133 765.7808982065263 L 918.9191446767715 765.718765358882 L 918.7256246108556 765.6557545585679 L 918.5335080729108 765.5918721066114 L 918.342814274431 765.5271243912044 L 918.153562284637 765.4615178870647 L 917.9657710285701 765.3950591547879 L 917.7794592851994 765.3277548401918 L 917.594645685544 765.2596116736519 L 917.41134871081 765.190636469428 L 917.2295866905417 765.120836124983 L 917.0493778007902 765.0502176202933 L 916.870740062294 764.9787880171505 L 916.693691338678 764.9065544584552 L 916.5182493346672 764.8335241675032 L 916.3444315943158 764.759704447263 L 916.1722554992529 764.6851026796446 L 916.0017382669445 764.609726324763 L 915.8328969489719 764.5335829201906 L 915.665748429326 764.4566800802046 L 915.5003094227196 764.3790254950248 L 915.3365964729154 764.3006269300452 L 915.1746259510721 764.2214922250567 L 915.0144140541069 764.141629293464 L 914.8559768030757 764.0610461214936 L 914.6993300415719 763.9797507673958 L 914.544489434141 763.8977513606379 L 914.3914704647148 763.8150561010925 L 914.2402884350624 763.7316732582167 L 914.0909584632611 763.647611170225 L 913.9434954821836 763.5628782432564 L 913.7979142380051 763.4774829505329 L 913.6542292887286 763.3914338315126 L 913.5124550027294 763.3047394910358 L 913.372605557318 763.2174085984641 L 913.2346949373223 763.1294498868141 L 913.0987369336892 763.0408721518837 L 912.9647451421062 762.9516842513725 L 912.8327329616404 762.8618951039964 L 912.7027135934001 762.7715136885951 L 912.5747000392136 762.6805490432348 L 912.4487051003297 762.5890102643045 L 912.3247413761374 762.4969065056056 L 912.2028212629057 762.4042469774372 L 912.0829569525442 762.311040945675 L 911.9651604313843 762.2172977308445 L 911.8494434789799 762.1230267071891 L 911.7358176669296 762.0282373017325 L 911.6242943577203 761.9329389933362 L 911.5148847035896 761.8371413117518 L 911.4075996454119 761.7408538366676 L 911.3024499116036 761.6440861967508 L 911.1994460170506 761.5468480686847 L 911.0985982620563 761.4491491762011 L 910.9999167313122 761.350999289108 L 910.9034112928892 761.2524082223122 L 910.8090915972508 761.1533858348381 L 910.7169670762878 761.0539420288421 L 910.6270469423756 760.954086748622 L 910.5393401874527 760.8538299796223 L 910.4538555821214 760.7531817474367 L 910.3706016747711 760.6521521168042 L 910.2895867907231 760.550751190604 L 910.2108190313983 760.448989108844 L 910.134306273507 760.3468760476477 L 910.0600561682612 760.2444222182361 L 909.9880761406097 760.1416378659067 L 909.918373388495 760.0385332690091 L 909.8509548821345 759.9351187379172 L 909.7858273633225 759.8314046139976 L 909.7229973447565 759.7274012685767 L 909.6624711093864 759.623119101902 L 909.6042547097849 759.5185685421036 L 909.5483539675437 759.4137600441501 L 909.4947744726902 759.3087040888039 L 909.4435215831294 759.2034111815733 L 909.3946004241076 759.097891851661 L 909.3480158876997 758.9921566509122 L 909.3037726323208 758.8862161527587 L 909.2618750822594 758.7800809511623 L 909.2223274272357 758.6737616595545 L 909.185133621982 758.567268909776 L 909.1502973858481 758.4606133510129 L 909.1178222024284 758.3538056487323 L 909.0877113192145 758.2468564836154 L 909.0599677472692 758.1397765504895 L 909.0345942609268 758.0325765572587 L 909.0115933975148 757.9252672238331 L 908.9909674571004 757.8178592810566 L 908.9727185022602 757.7103634696339 L 908.9568483578748 757.6027905390566 L 908.9433586109453 757.495151246528 L 908.9322506104351 757.3874563558879 L 908.923525467135 757.2797166365355 L 908.9171840535521 757.1719428623528 L 908.9132270038225 757.0641458106276 L 908.9116547136477 756.9563362609751" stroke-miterlimit="10" stroke-width="2.7769845610000004" stroke-dasharray=""/></g><g><g/><text fill="black" stroke="none" font-family="sans-serif" font-size="11pt" font-style="normal" font-weight="normal" text-decoration="normal" x="901.3830763378255" y="705.3689286788181" text-anchor="start" dominant-baseline="alphabetic" xml:space="preserve">Database</text></g></g><g><path fill="white" stroke="black" paint-order="fill stroke markers" d=" M 156.06598863196612 198.97762637881817 L 172.4011919319661 198.97762637881817 L 172.4011919319661 631.8605138288181 L 156.06598863196612 631.8605138288181 L 156.06598863196612 198.97762637881817" stroke-miterlimit="10" stroke-width="1.3612669416666667" stroke-dasharray=""/><path fill="white" stroke="black" paint-order="fill stroke markers" d=" M 455.6681854813151 244.71619561881818 L 472.0033887813151 244.71619561881818 L 472.0033887813151 631.8605138288181 L 455.6681854813151 631.8605138288181 L 455.6681854813151 244.71619561881818" stroke-miterlimit="10" stroke-width="1.3612669416666667" stroke-dasharray=""/><path fill="white" stroke="black" paint-order="fill stroke markers" d=" M 663.924663946875 381.9319033388182 L 680.259867246875 381.9319033388182 L 680.259867246875 586.1219445888181 L 663.924663946875 586.1219445888181 L 663.924663946875 381.9319033388182" stroke-miterlimit="10" stroke-width="1.3612669416666667" stroke-dasharray=""/><path fill="white" stroke="black" paint-order="fill stroke markers" d=" M 924.5934196341145 427.6704725788182 L 940.9286229341146 427.6704725788182 L 940.9286229341146 494.6448061088182 L 924.5934196341145 494.6448061088182 L 924.5934196341145 427.6704725788182" stroke-miterlimit="10" stroke-width="1.3612669416666667" stroke-dasharray=""/><g><text fill="black" stroke="none" font-family="sans-serif" font-size="16pt" font-style="normal" font-weight="normal" text-decoration="normal" x="519.4261779785156" y="24.651306798181814" text-anchor="start" dominant-baseline="alphabetic" xml:space="preserve">Xcnhnhpng</text></g><g><rect fill="white" stroke="none" x="27.49759222166665" y="161.40665878881816" width="109.23840583863281" height="21.23576429"/><rect fill="white" stroke="none" x="27.49759222166665" y="177.74186208881815" width="96.0315424353125" height="21.23576429"/><text fill="black" stroke="none" font-family="sans-serif" font-size="11pt" font-style="normal" font-weight="normal" text-decoration="normal" x="29.94787271666665" y="176.10834175881814" text-anchor="start" dominant-baseline="alphabetic" xml:space="preserve">Nhnthngbo</text><text fill="black" stroke="none" font-family="sans-serif" font-size="11pt" font-style="normal" font-weight="normal" text-decoration="normal" x="29.94787271666665" y="192.44354505881813" text-anchor="start" dominant-baseline="alphabetic" xml:space="preserve">tohpng</text></g><g><path fill="none" stroke="black" paint-order="fill stroke markers" d=" M 8.16760165 198.97762637881817 L 142.61667124829944 198.97762637881817" stroke-miterlimit="10" stroke-width="1.3612669416666667" stroke-dasharray=""/><g transform="translate(156.06598863196612,198.97762637881817) translate(-156.06598863196612,-198.97762637881817)"><path fill="black" stroke="none" paint-order="stroke fill markers" d=" M 142.45331921529944 192.17129167048483 L 156.06598863196612 198.97762637881817 L 142.45331921529944 205.7839610871515 Z"/></g></g><g><rect fill="white" stroke="none" x="191.73118250363282" y="223.48043132881818" width="244.60701240601563" height="21.23576429"/><text fill="black" stroke="none" font-family="sans-serif" font-size="11pt" font-style="normal" font-weight="normal" text-decoration="normal" x="194.1814629986328" y="238.18211429881816" text-anchor="start" dominant-baseline="alphabetic" xml:space="preserve">Truycpmnhnhqunlhpng</text></g><g><path fill="none" stroke="black" paint-order="fill stroke markers" d=" M 172.4011919319661 244.71619561881818 L 442.21886809764845 244.71619561881818" stroke-miterlimit="10" stroke-width="1.3612669416666667" stroke-dasharray=""/><g transform="translate(455.6681854813151,244.71619561881818) translate(-455.6681854813151,-244.71619561881818)"><path fill="black" stroke="none" paint-order="stroke fill markers" d=" M 442.05551606464843 237.90986091048484 L 455.6681854813151 244.71619561881818 L 442.05551606464843 251.52253032715151 Z"/></g></g><g><rect fill="white" stroke="none" x="230.17068903439454" y="269.21900056881816" width="167.7279993444922" height="21.23576429"/><text fill="black" stroke="none" font-family="sans-serif" font-size="11pt" font-style="normal" font-weight="normal" text-decoration="normal" x="232.62096952939453" y="283.92068353881814" text-anchor="start" dominant-baseline="alphabetic" xml:space="preserve">Hinthchitithpng</text></g><g><path fill="none" stroke="black" paint-order="fill stroke markers" d=" M 455.6681854813151 290.4547648588182 L 185.8505093156328 290.4547648588182" stroke-miterlimit="10" stroke-width="1.3612669416666667" stroke-dasharray="6.53408132"/><g transform="translate(172.4011919319661,290.4547648588182) translate(-172.4011919319661,-290.4547648588182)"><path fill="black" stroke="none" paint-order="stroke fill markers" d=" M 186.0138613486328 283.64843015048484 L 172.4011919319661 290.4547648588182 L 186.0138613486328 297.2610995671515 Z"/></g></g><g><rect fill="white" stroke="none" x="231.3804210900586" y="314.95756980881816" width="165.30853523316406" height="21.23576429"/><text fill="black" stroke="none" font-family="sans-serif" font-size="11pt" font-style="normal" font-weight="normal" text-decoration="normal" x="233.8307015850586" y="329.65925277881814" text-anchor="start" dominant-baseline="alphabetic" xml:space="preserve">Xcnhn/hyhpng</text></g><g><path fill="none" stroke="black" paint-order="fill stroke markers" d=" M 172.4011919319661 336.1933340988182 L 442.21886809764845 336.1933340988182" stroke-miterlimit="10" stroke-width="1.3612669416666667" stroke-dasharray=""/><g transform="translate(455.6681854813151,336.1933340988182) translate(-455.6681854813151,-336.1933340988182)"><path fill="black" stroke="none" paint-order="stroke fill markers" d=" M 442.05551606464843 329.38699939048485 L 455.6681854813151 336.1933340988182 L 442.05551606464843 342.9996688071515 Z"/></g></g><g><rect fill="white" stroke="none" x="491.33337935298175" y="360.69613904881817" width="153.26129402222656" height="21.23576429"/><text fill="black" stroke="none" font-family="sans-serif" font-size="11pt" font-style="normal" font-weight="normal" text-decoration="normal" x="493.78365984798177" y="375.39782201881815" text-anchor="start" dominant-baseline="alphabetic" xml:space="preserve">Githngtinxcnhn</text></g><g><path fill="none" stroke="black" paint-order="fill stroke markers" d=" M 472.0033887813151 381.9319033388182 L 650.4753465632083 381.9319033388182" stroke-miterlimit="10" stroke-width="1.3612669416666667" stroke-dasharray=""/><g transform="translate(663.924663946875,381.9319033388182) translate(-663.924663946875,-381.9319033388182)"><path fill="black" stroke="none" paint-order="stroke fill markers" d=" M 650.3119945302083 375.12556863048485 L 663.924663946875 381.9319033388182 L 650.3119945302083 388.7382380471515 Z"/></g></g><g><rect fill="white" stroke="none" x="704.2891986388541" y="406.4347082888182" width="196.27488960328125" height="21.23576429"/><text fill="black" stroke="none" font-family="sans-serif" font-size="11pt" font-style="normal" font-weight="normal" text-decoration="normal" x="706.7394791338542" y="421.13639125881815" text-anchor="start" dominant-baseline="alphabetic" xml:space="preserve">Cpnhttrngthihpng</text></g><g><path fill="none" stroke="black" paint-order="fill stroke markers" d=" M 680.259867246875 427.6704725788182 L 911.1441022504479 427.6704725788182" stroke-miterlimit="10" stroke-width="1.3612669416666667" stroke-dasharray=""/><g transform="translate(924.5934196341145,427.6704725788182) translate(-924.5934196341145,-427.6704725788182)"><path fill="black" stroke="none" paint-order="stroke fill markers" d=" M 910.9807502174478 420.86413787048485 L 924.5934196341145 427.6704725788182 L 910.9807502174478 434.47680728715153 Z"/></g></g><g><rect fill="white" stroke="none" x="960.2586135057813" y="452.17327752881823" width="260.6700006872656" height="21.23576429"/><text fill="black" stroke="none" font-family="sans-serif" font-size="11pt" font-style="normal" font-weight="normal" text-decoration="normal" x="962.7088940007814" y="466.8749604988182" text-anchor="start" dominant-baseline="alphabetic" xml:space="preserve">Cpnhttrngthihpngvphng</text></g><g><path fill="none" stroke="black" paint-order="fill stroke markers" d=" M 940.9286229341146 473.4090418188182 L 1006.2694361341146 473.4090418188182 L 1006.2694361341146 494.6448061088182 L 954.3779403177813 494.6448061088182" stroke-miterlimit="10" stroke-width="1.3612669416666667" stroke-dasharray=""/><g transform="translate(940.9286229341146,494.6448061088182) translate(-940.9286229341146,-494.6448061088182)"><path fill="black" stroke="none" paint-order="stroke fill markers" d=" M 954.5412923507813 487.8384714004849 L 940.9286229341146 494.6448061088182 L 954.5412923507813 501.45114081715155 Z"/></g></g><g><rect fill="white" stroke="none" x="703.6736586435417" y="519.1476110588181" width="205.67357124390625" height="21.23576429"/><text fill="black" stroke="none" font-family="sans-serif" font-size="11pt" font-style="normal" font-weight="normal" text-decoration="normal" x="706.1239391385417" y="533.8492940288181" text-anchor="start" dominant-baseline="alphabetic" xml:space="preserve">Trvdliusaukhicpnht</text></g><g><path fill="none" stroke="black" paint-order="fill stroke markers" d=" M 932.7610212841146 540.3833753488182 L 693.7091846305417 540.3833753488182" stroke-miterlimit="10" stroke-width="1.3612669416666667" stroke-dasharray="6.53408132"/><g transform="translate(680.259867246875,540.3833753488182) translate(-680.259867246875,-540.3833753488182)"><path fill="black" stroke="none" paint-order="stroke fill markers" d=" M 693.8725366635417 533.5770406404848 L 680.259867246875 540.3833753488182 L 693.8725366635417 547.1897100571515 Z"/></g></g><g><rect fill="white" stroke="none" x="492.1529899486849" y="564.8861802988181" width="151.62207283082031" height="21.23576429"/><text fill="black" stroke="none" font-family="sans-serif" font-size="11pt" font-style="normal" font-weight="normal" text-decoration="normal" x="494.6032704436849" y="579.5878632688181" text-anchor="start" dominant-baseline="alphabetic" xml:space="preserve">Thngbothnhcng</text></g><g><path fill="none" stroke="black" paint-order="fill stroke markers" d=" M 663.924663946875 586.1219445888181 L 485.45270616498175 586.1219445888181" stroke-miterlimit="10" stroke-width="1.3612669416666667" stroke-dasharray="6.53408132"/><g transform="translate(472.0033887813151,586.1219445888181) translate(-472.0033887813151,-586.1219445888181)"><path fill="black" stroke="none" paint-order="stroke fill markers" d=" M 485.6160581979818 579.3156098804848 L 472.0033887813151 586.1219445888181 L 485.6160581979818 592.9282792971514 Z"/></g></g><g><rect fill="white" stroke="none" x="238.22365229123048" y="610.624749538818" width="151.62207283082031" height="21.23576429"/><text fill="black" stroke="none" font-family="sans-serif" font-size="11pt" font-style="normal" font-weight="normal" text-decoration="normal" x="240.67393278623047" y="625.326432508818" text-anchor="start" dominant-baseline="alphabetic" xml:space="preserve">Thngbothnhcng</text></g><g><path fill="none" stroke="black" paint-order="fill stroke markers" d=" M 455.6681854813151 631.8605138288181 L 185.8505093156328 631.8605138288181" stroke-miterlimit="10" stroke-width="1.3612669416666667" stroke-dasharray="6.53408132"/><g transform="translate(172.4011919319661,631.8605138288181) translate(-172.4011919319661,-631.8605138288181)"><path fill="black" stroke="none" paint-order="stroke fill markers" d=" M 186.0138613486328 625.0541791204847 L 172.4011919319661 631.8605138288181 L 186.0138613486328 638.6668485371514 Z"/></g></g></g><g/><g/><g/><g/></g></svg>