<svg xmlns="http://www.w3.org/2000/svg" xmlns:xlink="http://www.w3.org/1999/xlink" version="1.1" width="1018.2499906613932" height="717.6203311538181"><desc>title%20T%E1%BA%A1o%20m%E1%BB%9Bi%20h%E1%BB%A3p%20%C4%91%E1%BB%93ng%0A%0Abottomparticipants%20%0A%0Aactor%20Landlord%0Aentity%20Client%0Aentity%20Backend%0Adatabase%20Database%0A%0ALandlord%20-%3E%20Client%3A%20Ch%E1%BB%8Dn%20ph%C3%B2ng%20c%E1%BA%A7n%20t%E1%BA%A1o%20h%E1%BB%A3p%20%C4%91%E1%BB%93ng%0A%0Aactivate%20Landlord%0A%0Aactivate%20Client%0A%0AClient%20-%3E%20Landlord%3A%20Hi%E1%BB%83n%20th%E1%BB%8B%20form%20nh%E1%BA%ADp%20th%C3%B4ng%20tin%20h%E1%BB%A3p%20%C4%91%E1%BB%93ng%0A%0ALandlord%20-%3E%20Client%3A%20Ch%E1%BB%8Dn%20m%E1%BA%ABu%20h%E1%BB%A3p%20%C4%91%E1%BB%93ng%20v%C3%A0%20%C4%91i%E1%BB%81n%20c%C3%A1c%20th%C3%B4ng%20tin%20ng%C6%B0%E1%BB%9Di%20thu%C3%AA%0A%0AClient%20-%3E%20Backend%3A%20X%C3%A1c%20th%E1%BB%B1c%20th%C3%B4ng%20tin%0A%0Aactivate%20Backend%0A%0ABackend%20-%3E%20Database%3A%20%20G%E1%BB%ADi%20th%C3%B4ng%20tin%0A%0Aactivate%20Database%0A%0ADatabase%20-%3E%20Database%3A%20L%C6%B0u%20tr%E1%BB%AF%20th%C3%B4ng%20tin%0A%0ADatabase%20-%3E%20Backend%3A%20Tr%E1%BA%A3%20v%E1%BB%81%20d%E1%BB%AF%20li%E1%BB%87u%20%C4%91%C3%A3%20t%E1%BA%A1o%0A%0Adeactivate%20Database%0A%0ABackend%20-%3E%20Client%3A%20Th%C3%B4ng%20b%C3%A1o%20t%E1%BA%A1o%20th%C3%A0nh%20c%C3%B4ng%0A%0Adeactivate%20Backend%0A%0AClient%20-%3E%20Landlord%3A%20Th%C3%B4ng%20b%C3%A1o%20t%E1%BA%A1o%20th%C3%A0nh%20c%C3%B4ng%2C%20ch%E1%BB%9D%20ng%C6%B0%E1%BB%9Di%20thu%C3%AA%20x%C3%A1c%20nh%E1%BA%ADn%0A%0Adeactivate%20Client%0Adeactivate%20Landlord%0A</desc><defs/><g><g/><g/><g/><g/><g/><g/><g/><g/><g/><g/><g/><g/><g/><g/><g/><g/><g/><g/><g/><g/><g/><g/><g/><g/><g/><g/><g/><g/><g/><g/><g/><g/><g/><g/><g/><g/><g/><g/><g/><g/><g/><g/><g/><g/><g/><g/><g/><g/><g/><g/><g/><g/><g/><g/><g/><g/><g/><g/><g/><g/><g/><g/><g/><g/><g/><g/><g/><g/><g/><g/><g/><g/><g/><g/><g/><g/><g/><g/><g/><g/><g/><g/><g/><g/><g/><g/><g/><g/><g/><g/><g/><g/><g/><g/><g/><g/><g/><g/><g/><g/><g/><g/><g/><g/><g/><g/><g/><g/><g/><g/><g/><g/><g/><g/><g/><g/><g/><g/><g/><g/><g/><g/><g/><g/><g><rect fill="white" stroke="none" x="0" y="0" width="1018" height="717"/></g><g/><g><path fill="none" stroke="black" paint-order="fill stroke markers" d=" M 36.69657809042969 128.73625218881818 L 36.69657809042969 626.9599528388181" stroke-miterlimit="10" stroke-width="1.3612669416666667" stroke-dasharray="12.565541,5.445067766666667"/><path fill="none" stroke="black" paint-order="fill stroke markers" d=" M 445.1248094856771 128.73625218881818 L 445.1248094856771 626.9599528388181" stroke-miterlimit="10" stroke-width="1.3612669416666667" stroke-dasharray="12.565541,5.445067766666667"/><path fill="none" stroke="black" paint-order="fill stroke markers" d=" M 676.1944593379557 128.73625218881818 L 676.1944593379557 626.9599528388181" stroke-miterlimit="10" stroke-width="1.3612669416666667" stroke-dasharray="12.565541,5.445067766666667"/><path fill="none" stroke="black" paint-order="fill stroke markers" d=" M 870.8575234968749 128.73625218881818 L 870.8575234968749 626.9599528388181" stroke-miterlimit="10" stroke-width="1.3612669416666667" stroke-dasharray="12.565541,5.445067766666667"/></g><g><g><path fill="white" stroke="black" paint-order="fill stroke markers" d=" M 46.00764397142969 59.63834222981819 A 9.311065881 9.311065881 0 1 1 46.00763931589714 59.62903116548903 M 36.69657809042969 68.9494081108182 L 36.69657809042969 88.8783561368182 M 24.93523171442969 76.13689756281819 L 48.45792446642969 76.13689756281819 M 36.69657809042969 88.8783561368182 L 24.93523171442969 107.50048789881819 M 36.69657809042969 88.8783561368182 L 48.45792446642969 107.50048789881819" stroke-miterlimit="10" stroke-width="2.7769845610000004" stroke-dasharray=""/></g><g><g/><text fill="black" stroke="none" font-family="sans-serif" font-size="11pt" font-style="normal" font-weight="normal" text-decoration="normal" x="8.167601650000002" y="123.83569119881818" text-anchor="start" dominant-baseline="alphabetic" xml:space="preserve">Landlord</text></g><g><path fill="white" stroke="black" paint-order="fill stroke markers" d=" M 469.3825863861771 79.63263106901819 A 24.2577769005 24.2577769005 0 1 1 469.38257425728966 79.60837329616064 M 419.4785403046771 106.11199561831819 L 470.77107866667706 106.11199561831819" stroke-miterlimit="10" stroke-width="2.7769845610000004" stroke-dasharray=""/></g><g><g/><text fill="black" stroke="none" font-family="sans-serif" font-size="11pt" font-style="normal" font-weight="normal" text-decoration="normal" x="426.3846590340169" y="123.83569119881818" text-anchor="start" dominant-baseline="alphabetic" xml:space="preserve">Client</text></g><g><path fill="white" stroke="black" paint-order="fill stroke markers" d=" M 700.4522362384556 79.63263106901819 A 24.2577769005 24.2577769005 0 1 1 700.4522241095682 79.60837329616064 M 650.5481901569557 106.11199561831819 L 701.8407285189556 106.11199561831819" stroke-miterlimit="10" stroke-width="2.7769845610000004" stroke-dasharray=""/></g><g><g/><text fill="black" stroke="none" font-family="sans-serif" font-size="11pt" font-style="normal" font-weight="normal" text-decoration="normal" x="647.6690610835611" y="123.83569119881818" text-anchor="start" dominant-baseline="alphabetic" xml:space="preserve">Backend</text></g><g><path fill="white" stroke="black" paint-order="fill stroke markers" d=" M 847.008126678875 96.71925372081819 L 847.008126678875 62.41532679081819 L 894.7069203148749 62.41532679081819 L 894.7069203148749 96.71925372081819" stroke-miterlimit="10" stroke-width="2.7769845610000004" stroke-dasharray=""/><path fill="white" stroke="black" paint-order="fill stroke markers" d=" M 894.7069203148749 61.22285694991819 L 894.7057278549712 61.33066749483481 L 894.7021505945052 61.43846725878678 L 894.6961888911999 61.546245461887544 L 894.6878433412205 61.65399132640659 L 894.6771147791153 61.761694077847274 L 894.6640042777315 61.86934294602419 L 894.6485131481082 61.976927166140236 L 894.6306429393456 62.084435979863045 L 894.6103954384496 62.19185863640084 L 894.5877726701534 62.299184393577484 L 894.562776896715 62.4064025189067 L 894.535410617691 62.51350229066531 L 894.5056765696864 62.62047299896537 L 894.4735777260813 62.7273039468252 L 894.4391172967332 62.83398445123905 L 894.4022987276564 62.94050384424536 L 894.3631257006771 63.04685147399361 L 894.3216021330653 63.15301670580944 L 894.2777321771433 63.25898892325815 L 894.2315202198699 63.364757529206294 L 894.1829708824026 63.47031194688142 L 894.1320890196346 63.575641620929716 L 894.0788797197097 63.68073601847156 L 894.0233483035134 63.78558463015478 L 893.9655003241414 63.89017697120557 L 893.9053415663433 63.994502582477 L 893.8428780459446 64.09855103149486 L 893.7781160092454 64.20231191350096 L 893.7110619323954 64.3057748524936 L 893.6417225207465 64.40892950226505 L 893.5701047081818 64.51176554743633 L 893.4962156564231 64.61427270448858 L 893.4200627543141 64.71644072279157 L 893.3416536170813 64.81825938562858 L 893.2609960855732 64.91971851121816 L 893.1780982254758 65.02080795373233 L 893.0929683265059 65.12151760431107 L 893.0056149015825 65.22183739207324 L 892.9160466859753 65.32175728512367 L 892.8242726364313 65.42126729155632 L 892.7303019302788 65.52035746045347 L 892.6341439645103 65.6190178828808 L 892.5358083548422 65.71723869287828 L 892.4353049347533 65.81501006844678 L 892.3326437545022 65.91232223253022 L 892.2278350801212 66.00916545399325 L 892.1208893923903 66.10553004859446 L 892.0118173857893 66.20140637995469 L 891.900629967428 66.29678486052069 L 891.7873382559554 66.39165595252388 L 891.6719535804485 66.48601016893414 L 891.5544874792785 66.57983807440844 L 891.4349516989575 66.67313028623443 L 891.3133581929643 66.76587747526865 L 891.1897191205479 66.85807036686953 L 891.0640468455125 66.94969974182469 L 890.9363539349811 67.04075643727302 L 890.806653158138 67.13123134762085 L 890.6749574849531 67.22111542545254 L 890.5412800848839 67.3103996824352 L 890.4056343255589 67.39907519021754 L 890.2680337714411 67.4871330813227 L 890.1284921824712 67.57456455003492 L 889.9870235126918 67.6613608532802 L 889.8436419088521 67.74751331150055 L 889.6983617089929 67.83301330952195 L 889.5511974410131 67.91785229741582 L 889.402163821217 68.00202179135408 L 889.251275752842 68.08551337445749 L 889.0985483245697 68.1683186976373 L 888.9439968090155 68.25042948043021 L 888.787636661202 68.33183751182635 L 888.6294835170137 68.41253465109044 L 888.4695531916334 68.4925128285758 L 888.3078616779602 68.5717640465313 L 888.1444251450109 68.65028037990122 L 887.9792599363024 68.72805397711764 L 887.812382568218 68.80507706088565 L 887.6438097283556 68.88134192896105 L 887.4735582738584 68.95684095492061 L 887.3016452297303 69.03156658892462 L 887.1280877871322 69.10551135847197 L 886.9529033016639 69.17866786914732 L 886.7761092916279 69.25102880536058 L 886.5977234362779 69.3225869310784 L 886.4177635740506 69.39333509054786 L 886.2362477007825 69.46326620901198 L 886.0531939679096 69.53237329341717 L 885.8686206806526 69.60064943311258 L 885.6825462961864 69.66808780054113 L 885.4949894217945 69.7346816519223 L 885.3059688130078 69.80042432792644 L 885.1155033717299 69.86530925434072 L 884.9236121443461 69.92932994272657 L 884.7303143198193 69.9924799910685 L 884.5356292277708 70.05475308441433 L 884.3395763365476 70.1161429955066 L 884.1421752512754 70.17664358540536 L 883.9434457118983 70.23624880410202 L 883.7434075912046 70.29495269112441 L 883.5420808928396 70.35274937613272 L 883.3394857493056 70.40963307950663 L 883.1356424199478 70.46559811292322 L 882.9305712889295 70.52063887992576 L 882.7242928631928 70.57474987648341 L 882.5168277704084 70.62792569154163 L 882.3081967569127 70.68016100756323 L 882.0984206856333 70.73145060106012 L 881.8875205340023 70.78178934311569 L 881.6755173918592 70.8311721998977 L 881.4624324593416 70.8795942331616 L 881.2482870447652 70.92705060074444 L 881.0331025624929 70.973536557049 L 880.8169005307936 71.01904745351838 L 880.5997025696905 71.06357873910088 L 880.3815303987985 71.10712596070502 L 880.162405835153 71.14968476364494 L 879.9423507910276 71.19125089207583 L 879.7213872717435 71.23182018941947 L 879.4995373734686 71.27138859877994 L 879.2768232810075 71.30995216334925 L 879.053267265584 71.34750702680313 L 878.8288916826136 71.38404943368649 L 878.6037189694673 71.4195757297891 L 878.3777716432289 71.45408236251096 L 878.1510722984427 71.48756588121756 L 877.9236436048543 71.52002293758491 L 877.6955083051434 71.55145028593446 L 877.4666892126502 71.58184478355753 L 877.2372092090928 71.61120339102969 L 877.0070912422808 71.63952317251467 L 876.7763583238187 71.66680129605793 L 876.5450335268064 71.69303503386982 L 876.3131399835305 71.71822176259843 L 876.0807008831524 71.7423589635919 L 875.8477394693883 71.7654442231502 L 875.6142790381854 71.78747523276665 L 875.3803429353924 71.80844978935863 L 875.1459545544244 71.82836579548797 L 874.9111373339244 71.84722125957065 L 874.6759147554188 71.86501429607597 L 874.4403103409692 71.8817431257151 L 874.2043476508209 71.89740607561903 L 873.9680502810462 71.91200157950583 L 873.7314418611852 71.92552817783725 L 873.4945460518826 71.93798451796474 L 873.2573865425221 71.94936935426468 L 873.0199870488569 71.95968154826289 L 872.7823713106385 71.96892006874862 L 872.5445630892428 71.97708399187748 L 872.3065861652938 71.98417250126396 L 872.0684643362854 71.99018488806304 L 871.8302214142022 71.99512055104105 L 871.5918812231379 71.99897899663581 L 871.3534675969129 72.00175983900598 L 871.1150043766911 72.00346280006961 L 870.876515408596 72.00408770953204 L 870.6380245413254 72.00363450490285 L 870.3995556237676 72.0021032315021 L 870.1611325026154 71.99949404245586 L 869.9227790199824 71.9958071986809 L 869.684519011018 71.99104306885846 L 869.4463763015248 71.98520212939759 L 869.2083747055751 71.97828496438737 L 868.9705380231303 71.97029226553852 L 868.7328900376604 71.96122483211428 L 868.4954545137658 71.95108357085043 L 868.2582551948011 71.93986949586466 L 868.0213158005007 71.92758372855508 L 867.7846600246064 71.91422749748824 L 867.5483115324986 71.89980213827607 L 867.3122939588295 71.8843090934425 L 867.07663090516 71.86774991227908 L 866.8413459375988 71.85012625069015 L 866.6064625844468 71.83143987102717 L 866.3720043338435 71.81169264191253 L 866.1379946314187 71.79088653805269 L 865.9044568779473 71.7690236400407 L 865.6714144270104 71.74610613414815 L 865.4388905826587 71.72213631210651 L 865.2069085970828 71.69711657087802 L 864.9754916682882 71.67104941241597 L 864.7446629377747 71.64393744341446 L 864.5144454882231 71.6157833750478 L 864.2848623411866 71.58659002269937 L 864.0559364547883 71.55636030568009 L 863.8276907214263 71.52509724693644 L 863.6001479654836 71.49280397274828 L 863.3733309410463 71.45948371241609 L 863.1472623296279 71.42513979793813 L 862.9219647379009 71.38977566367726 L 862.6974606954368 71.35339484601741 L 862.4737726524529 71.31600098301004 L 862.250922977567 71.27759781401028 L 862.0289339555609 71.23818917930303 L 861.8078277851519 71.19777901971894 L 861.5876265767724 71.15637137624027 L 861.3683523503603 71.11397038959687 L 861.1500270331551 71.07058029985207 L 860.9326724575067 71.02620544597868 L 860.7163103586917 70.98085026542512 L 860.5009623727393 70.93451929367163 L 860.2866500342691 70.8872171637768 L 860.073394774336 70.8389486059142 L 859.8612179182885 70.78971844689937 L 859.6501406836352 70.7395316097072 L 859.4401841779238 70.6883931129796 L 859.2313693966299 70.6363080705236 L 859.0237172210576 70.58328169080006 L 858.8172484162515 70.52931927640276 L 858.6119836289198 70.47442622352818 L 858.4079433853703 70.41860802143584 L 858.2051480894573 70.36187025189946 L 858.0036180205416 70.3042185886487 L 857.8033733314619 70.24565879680183 L 857.6044340465203 70.18619673228926 L 857.4068200594795 70.12583834126788 L 857.2105511315737 70.06458965952649 L 857.0156468895318 70.00245681188221 L 856.8221268236159 69.93944601156807 L 856.6300102856711 69.87556355961155 L 856.4393164871914 69.81081584420461 L 856.2500644973974 69.74520934006487 L 856.0622732413304 69.67875060778805 L 855.8759614979598 69.61144629319199 L 855.6911478983044 69.54330312665208 L 855.5078509235703 69.47432792242817 L 855.3260889033022 69.40452757798322 L 855.1458800135506 69.3339090732935 L 854.9672422750543 69.26247947015062 L 854.7901935514384 69.19024591145539 L 854.6147515474275 69.11721562050347 L 854.4409338070761 69.0433959002631 L 854.2687577120132 68.96879413264479 L 854.0982404797048 68.89341777776313 L 853.9293991617322 68.81727437319081 L 853.7622506420863 68.74037153320482 L 853.59681163548 68.66271694802508 L 853.4330986856758 68.58431838304537 L 853.2711281638325 68.5051836780569 L 853.1109162668672 68.4253207464642 L 852.952479015836 68.34473757449386 L 852.7958322543323 68.26344222039596 L 852.6409916469014 68.18144281363814 L 852.487972677475 68.09874755409275 L 852.3367906478228 68.01536471121685 L 852.1874606760215 67.9313026232252 L 852.039997694944 67.84656969625658 L 851.8944164507654 67.76117440353308 L 851.750731501489 67.67512528451279 L 851.6089572154898 67.5884309440359 L 851.4691077700784 67.50110005146425 L 851.3311971500826 67.41314133981427 L 851.1952391464496 67.32456360488388 L 851.0612473548665 67.23537570437271 L 850.9292351744008 67.14558655699653 L 850.7992158061604 67.05520514159522 L 850.6712022519739 66.96424049623502 L 850.54520731309 66.87270171730466 L 850.4212435888977 66.78059795860575 L 850.299323475666 66.68793843043741 L 850.1794591653046 66.59473239867523 L 850.0616626441447 66.50098918384472 L 849.9459456917402 66.40671816018926 L 849.83231987969 66.31192875473263 L 849.7207965704806 66.2166304463364 L 849.6113869163499 66.120832764752 L 849.5041018581722 66.02454528966774 L 849.398952124364 65.92777764975091 L 849.295948229811 65.83053952168484 L 849.1951004748166 65.73284062920132 L 849.0964189440725 65.63469074210818 L 848.9999135056496 65.53609967531233 L 848.9055938100112 65.4370772878383 L 848.8134692890482 65.33763348184232 L 848.723549155136 65.23777820162212 L 848.635842400213 65.13752143262249 L 848.5503577948817 65.03687320043682 L 848.4671038875315 64.93584356980442 L 848.3860890034834 64.83444264360419 L 848.3073212441586 64.73268056184422 L 848.2308084862674 64.63056750064791 L 848.1565583810216 64.52811367123628 L 848.08457835337 64.42532931890689 L 848.0148756012553 64.32222472200931 L 847.9474570948948 64.21881019091732 L 847.8823295760828 64.11509606699785 L 847.8194995575169 64.01109272157687 L 847.7589733221467 63.90681055490224 L 847.7007569225452 63.80225999510374 L 847.644856180304 63.697451497150205 L 847.5912766854506 63.59239554180411 L 847.5400237958897 63.48710263457343 L 847.4911026368679 63.381583304661156 L 847.4445181004601 63.27584810391234 L 847.4002748450812 63.16990760575894 L 847.3583772950197 63.06377240416249 L 847.318829639996 62.95745311255472 L 847.2816358347424 62.85096036277616 L 847.2467995986085 62.744304804013076 L 847.2143244151888 62.63749710173245 L 847.1842135319748 62.530547936615505 L 847.1564699600295 62.423468003489624 L 847.1310964736872 62.316268010258895 L 847.1080956102752 62.208958676833305 L 847.0874696698608 62.10155073405677 L 847.0692207150206 61.99405492263407 L 847.0533505706352 61.88648199205676 L 847.0398608237057 61.77884269952825 L 847.0287528231954 61.6711478088881 L 847.0200276798954 61.56340808953563 L 847.0136862663124 61.45563431535299 L 847.0097292165829 61.34783726362778 L 847.0081569264081 61.24002771397536 L 847.0089695530161 61.13221644726084 L 847.0121670151447 61.02441424452105 L 847.0177489930503 60.916631885886424 L 847.02571492854 60.808880149503025 L 847.0360640250267 60.70116981045468 L 847.0487952476095 60.59351163968555 L 847.0639073231766 60.48591640292299 L 847.0813987405332 60.378394859601016 L 847.1012677505521 60.27095776178435 L 847.1235123663487 60.163615853093255 L 847.1481303634802 60.05637986762915 L 847.1751192801671 59.949260528901206 L 847.2044764175405 59.84226854875404 L 847.236198839911 59.7354146262965 L 847.270283375063 59.62870944683179 L 847.306726614571 59.52216368078894 L 847.3455249141417 59.41578798265577 L 847.3866743939774 59.30959298991343 L 847.4301709391644 59.203589321972714 L 847.4760102000845 59.09778757911208 L 847.5241875928497 58.992198341417634 L 847.5746982997609 58.88683216772516 L 847.6275372697895 58.78169959456423 L 847.6826992190827 58.67681113510454 L 847.7401786314913 58.57217727810464 L 847.7999697591221 58.46780848686303 L 847.8620666229119 58.36371519817185 L 847.9264630132265 58.25990782127324 L 847.9931524904803 58.15639673681838 L 848.0621283857811 58.053192295829454 L 848.1333838015969 57.950304818664556 L 848.2069116124455 57.84774459398567 L 848.2827044656071 57.745521877729786 L 848.3607547818596 57.64364689208335 L 848.4410547562363 57.54212982446004 L 848.5235963588067 57.44098082648201 L 848.6083713354794 57.340210012964775 L 848.6953712088274 57.2398274609057 L 848.7845872789358 57.13984320847635 L 848.8760106242719 57.040267254018644 L 848.9696321025774 56.94110955504505 L 849.0654423517824 56.84238002724283 L 849.163431790942 56.74408854348249 L 849.2635906211939 56.646244932830506 L 849.3659088267384 56.54885897956639 L 849.4703761758402 56.45194042220433 L 849.5769822218517 56.35549895251929 L 849.685716304257 56.25954421457787 L 849.7965675497383 56.16408580377391 L 849.9095248732636 56.06913326586893 L 850.0245769791948 55.974696096037604 L 850.1417123624169 55.88078373791821 L 850.2609193094893 55.7874055826683 L 850.3821858998167 55.694570968025594 L 850.5055000068412 55.60228917737418 L 850.6308492992546 55.51056943881623 L 850.7582212422323 55.41942092424918 L 850.8876030986861 55.328852748448504 L 851.0189819305382 55.23887396815633 L 851.1523446000148 55.14949358117568 L 851.2876777709602 55.0607205254708 L 851.42496791017 54.97256367827326 L 851.5642012887448 54.88503185519433 L 851.7053639834627 54.79813380934336 L 851.8484418781718 54.71187823045254 L 851.9934206652019 54.62627374400786 L 852.1402858467952 54.541328910386646 L 852.2890227365559 54.45705222400146 L 852.4396164609188 54.373452112450714 L 852.5920519606373 54.290536935675895 L 852.746313992288 54.20831498512558 L 852.9023871297967 54.12679448292632 L 853.0602557659795 54.0459835810604 L 853.2199041141045 53.965890360550645 L 853.3813162094696 53.88652283065238 L 853.5444759110001 53.80788892805245 L 853.7093669028616 53.72999651607559 L 853.8759726960925 53.652853383898076 L 854.0442766302523 53.57646724576885 L 854.2142618750876 53.50084574023808 L 854.3859114322158 53.42599642939328 L 854.5592081368243 53.35192679810317 L 854.7341346593868 53.278644253269164 L 854.910673507397 53.20615612308466 L 855.088807027117 53.13446965630228 L 855.2685174053436 53.06359202150896 L 855.4497866711885 52.99353030640911 L 855.6325966978761 52.924291517115876 L 855.8169292045563 52.85588257745046 L 856.0027657581321 52.78831032824984 L 856.1900877751027 52.72158152668263 L 856.3788765234226 52.65570284557336 L 856.5691131243744 52.590680872735255 L 856.7607785544566 52.52652211031142 L 856.9538536472857 52.463232974124615 L 857.1483190955133 52.40081979303573 L 857.3441554527569 52.33928880831086 L 857.5413431355437 52.278646172997206 L 857.73986242527 52.21889795130775 L 857.939693470172 52.160050118014894 L 858.1408162873117 52.1021085578529 L 858.3432107645754 52.045079064929524 L 858.5468566626837 51.98896734214652 L 858.7517336172165 51.933779000629414 L 858.9578211406491 51.87951955916637 L 859.165098624401 51.826194443656306 L 859.3735453408965 51.77380898656634 L 859.5831404456377 51.72236842639853 L 859.7938629792886 51.67187790716602 L 860.0056918697717 51.622342477878675 L 860.2186059343743 51.57376709203812 L 860.4325838818675 51.526156607142475 L 860.6476043146347 51.47951578420055 L 860.8636457308119 51.43384928725578 L 861.0806865264374 51.38916168291979 L 861.2987049976127 51.34545743991578 L 861.5176793426723 51.302740928631636 L 861.7375876643641 51.261016420682886 L 861.9584079720393 51.220288088485546 L 862.1801181838509 51.18056000483891 L 862.4026961289628 51.14183614251822 L 862.6261195497658 51.10412037387746 L 862.850366104104 51.06741647046204 L 863.0754133675089 51.03172810263173 L 863.3012388354416 50.99705883919358 L 863.5278199255437 50.96341214704502 L 863.7551339798948 50.930791390827245 L 863.9831582672789 50.899199832588685 L 864.2118699854574 50.86864063145883 L 864.441246263449 50.83911684333235 L 864.6712641638171 50.81063142056343 L 864.9019006849633 50.78318721167063 L 865.1331327634276 50.75678696105195 L 865.364937276195 50.731433308710464 L 865.5972910430073 50.70712878999027 L 865.8301708286815 50.683875835323 L 866.0635533454331 50.66167676998473 L 866.2974152552049 50.6405338138635 L 866.5317331720007 50.6204490812373 L 866.7664836642242 50.60142458056266 L 867.0016432570218 50.583462214273794 L 867.2371884346302 50.566563778592354 L 867.4730956427278 50.55073096334783 L 867.7093412907906 50.53596535180856 L 867.9459017544503 50.52226842052339 L 868.1827533778581 50.50964153917403 L 868.4198724760488 50.49808597043808 L 868.6572353373102 50.48760286986282 L 868.894818225554 50.47819328574954 L 869.1325973826893 50.46985815904882 L 869.3705490309986 50.462598323266384 L 869.6086493755154 50.456414504379765 L 869.8468746064035 50.45130732076569 L 870.0852009013386 50.44727728313828 L 870.3236044278896 50.444324794497916 L 870.5620613459024 50.44245015009101 L 870.8005478098843 50.44165353738045 L 871.0390399713873 50.44193503602685 L 871.2775139813941 50.443294617880554 L 871.5159459927025 50.445732146984525 L 871.75431216231 50.44924737958788 L 871.9925886537983 50.45383996417029 L 872.2307516397168 50.459509441477124 L 872.4687773039653 50.46625524456538 L 872.7066418441758 50.474076698860365 L 872.9443214740925 50.48297302222316 L 873.1817924259506 50.49294332502887 L 873.4190309528525 50.50398661025549 L 873.6560133311434 50.51610177358371 L 873.892715862783 50.52928760350731 L 874.1291148777153 50.54354278145426 L 874.365186736236 50.55886588191867 L 874.6009078313556 50.575255372603245 L 874.8362545911613 50.592709614572584 L 875.0712034811731 50.61122686241703 L 875.3057310066979 50.630805264427224 L 875.5398137151786 50.651442862779284 L 875.7734281985394 50.67313759373059 L 876.0065510955264 50.695887287826096 L 876.2391590940446 50.71968967011537 L 876.4712289334876 50.74454236038002 L 876.7027374070651 50.77044287337172 L 876.9336613641226 50.797388619060754 L 877.1639777124568 50.825376902895016 L 877.3936634206248 50.85440492606945 L 877.6226955202471 50.88446978580591 L 877.8510511083048 50.9155684756435 L 878.0787073494292 50.947697885739125 L 878.305641478186 50.980854803178566 L 878.5318308013514 51.01503591229771 L 878.7572527001817 51.05023779501413 L 878.9818846326746 51.08645693116888 L 879.2057041358242 51.12368969887854 L 879.4286888278668 51.16193237489736 L 879.6508164105188 51.201181134989596 L 879.8720646712073 51.241432054311964 L 880.0924114852904 51.28268110780607 L 880.3118348182703 51.32492417060092 L 880.5303127279967 51.368157018425464 L 880.7478233668606 51.41237532803093 L 880.9643449839795 51.45757467762322 L 881.1798559273718 51.503750547305025 L 881.3943346461231 51.55089831952786 L 881.6077596925401 51.5990132795538 L 881.820109724296 51.64809061592693 L 882.0313635065647 51.69812542095451 L 882.2414999141439 51.749112691197745 L 882.4504979335679 51.801047327972086 L 882.6583366652092 51.85392413785714 L 882.8649953253674 51.90773783321599 L 883.0704532483492 51.962483032723924 L 883.2746898885331 52.01815426190663 L 883.4776848224254 52.07474595368758 L 883.679417750702 52.132252448944755 L 883.8798685002381 52.190667997076545 L 884.0790170261257 52.24998675657682 L 884.2768434136783 52.310202795619055 L 884.473327880422 52.371310092649544 L 884.6684507780737 52.43330253698949 L 884.8621925945065 52.49617392944612 L 885.0545339556999 52.559917982932596 L 885.2454556276783 52.62452832309667 L 885.4349385184335 52.68999848895818 L 885.6229636798344 52.7563219335551 L 885.8095123095214 52.823492024598224 L 885.9945657527871 52.89150204513444 L 886.1781055044414 52.960345194218355 L 886.3601132106621 53.03001458759244 L 886.5405706708302 53.10050325837541 L 886.7194598393501 53.171804157758935 L 886.8967628274538 53.243910155712484 L 887.0724619049906 53.31681404169635 L 887.246539502199 53.39050852538269 L 887.4189782114643 53.46498623738456 L 887.5897607890593 53.5402397299928 L 887.7588701568685 53.61626147792087 L 887.9262894040961 53.69304387905734 L 888.092001788957 53.770579255226075 L 888.2559907403506 53.848859852954064 L 888.4182398595186 53.92787784424677 L 888.5787329216843 54.00762532737092 L 888.7374538776751 54.08809432764465 L 888.8943868555276 54.16927679823499 L 889.049516162075 54.251164620962534 L 889.2028262845158 54.33374960711325 L 889.3543018919655 54.41702349825734 L 889.5039278369896 54.500977967075094 L 889.6516891571184 54.58560461818958 L 889.7975710763429 54.670894989006214 L 889.9415590065928 54.75684055055899 L 890.083638549195 54.84343270836337 L 890.2237954963138 54.93066280327574 L 890.362015832371 55.0185221123593 L 890.4982857354483 55.107001849756344 L 890.6325915786691 55.196093167566886 L 890.7649199315609 55.28578715673337 L 890.8952575613986 55.37607484793163 L 891.0235914345279 55.46694721246779 L 891.1499087176686 55.55839516318112 L 891.2741967791973 55.65040955535275 L 891.3964431904117 55.742981187620146 L 891.5166357267724 55.83610080289723 L 891.6347623691261 55.92975908930006 L 891.7508113049067 56.02394668107806 L 891.8647709293176 56.11865415955053 L 891.9766298464913 56.213872054048544 L 892.0863768706291 56.30959084286201 L 892.1940010271203 56.405800954191804 L 892.2994915536387 56.50249276710697 L 892.4028379012198 56.5996566125068 L 892.5040297353147 56.69728277408771 L 892.6030569368246 56.79536148931491 L 892.6999096031116 56.89388295039859 L 892.7945780489899 56.99283730527477 L 892.8870528076939 57.09221465859041 L 892.9773246318247 57.19200507269298 L 893.065384494275 57.29219856862425 L 893.1512235891321 57.39278512711811 L 893.2348333325581 57.49375468960253 L 893.316205363648 57.59509715920541 L 893.3953315452669 57.69680240176424 L 893.4722039648624 57.79886024683951 L 893.5468149352565 57.90126048873177 L 893.6191569954146 58.003992887502164 L 893.6892229111908 58.10704716999642 L 893.7570056760518 58.21041303087217 L 893.8224985117778 58.31408013362946 L 893.8856948691396 58.41803811164441 L 893.9465884285544 58.52227656920584 L 894.0051731007168 58.62678508255487 L 894.0614430272084 58.731553200927245 L 894.1153925810836 58.83657044759845 L 894.1670163674319 58.94182632093131 L 894.2163092239175 59.04731029542622 L 894.2632662212961 59.153011822773635 L 894.307882663907 59.25892033290889 L 894.3501540901431 59.36502523506925 L 894.3900762728969 59.471315918852895 L 894.4276452199836 59.57778175528004 L 894.4628571745395 59.684412097855756 L 894.4957086153988 59.79119628363465 L 894.5261962574448 59.89812363428712 L 894.5543170519385 60.005183457167206 L 894.5800681868238 60.11236504638185 L 894.603447087009 60.21965768386144 L 894.6244514146233 60.327050640431644 L 894.6430790692516 60.43453317688629 L 894.6593281881438 60.5420945450613 L 894.6731971464018 60.6497239889095 L 894.684684557141 60.757410745576195 L 894.6937892716302 60.86514404647545 L 894.7005103794054 60.972913118366954 L 894.7048472083613 61.08070718443333 L 894.7067993248189 61.188515465357796 M 894.7069203148749 95.52678387991818 L 894.7057278549712 95.6345944248348 L 894.7021505945052 95.74239418878678 L 894.6961888911999 95.85017239188754 L 894.6878433412205 95.95791825640659 L 894.6771147791153 96.06562100784727 L 894.6640042777315 96.1732698760242 L 894.6485131481082 96.28085409614023 L 894.6306429393456 96.38836290986303 L 894.6103954384496 96.49578556640084 L 894.5877726701534 96.60311132357748 L 894.562776896715 96.7103294489067 L 894.535410617691 96.8174292206653 L 894.5056765696864 96.92439992896537 L 894.4735777260813 97.0312308768252 L 894.4391172967332 97.13791138123905 L 894.4022987276564 97.24443077424536 L 894.3631257006771 97.35077840399362 L 894.3216021330653 97.45694363580944 L 894.2777321771433 97.56291585325815 L 894.2315202198699 97.66868445920629 L 894.1829708824026 97.77423887688141 L 894.1320890196346 97.8795685509297 L 894.0788797197097 97.98466294847155 L 894.0233483035134 98.08951156015478 L 893.9655003241414 98.19410390120557 L 893.9053415663433 98.29842951247699 L 893.8428780459446 98.40247796149485 L 893.7781160092454 98.50623884350097 L 893.7110619323954 98.60970178249359 L 893.6417225207465 98.71285643226504 L 893.5701047081818 98.81569247743631 L 893.4962156564231 98.91819963448859 L 893.4200627543141 99.02036765279156 L 893.3416536170813 99.12218631562857 L 893.2609960855732 99.22364544121817 L 893.1780982254758 99.32473488373233 L 893.0929683265059 99.42544453431107 L 893.0056149015825 99.52576432207324 L 892.9160466859753 99.62568421512367 L 892.8242726364313 99.72519422155631 L 892.7303019302788 99.82428439045346 L 892.6341439645103 99.92294481288079 L 892.5358083548422 100.02116562287829 L 892.4353049347533 100.11893699844678 L 892.3326437545022 100.2162491625302 L 892.2278350801212 100.31309238399325 L 892.1208893923903 100.40945697859446 L 892.0118173857893 100.50533330995468 L 891.900629967428 100.60071179052068 L 891.7873382559554 100.69558288252388 L 891.6719535804485 100.78993709893413 L 891.5544874792785 100.88376500440843 L 891.4349516989575 100.97705721623441 L 891.3133581929643 101.06980440526866 L 891.1897191205479 101.16199729686952 L 891.0640468455125 101.25362667182469 L 890.9363539349811 101.34468336727302 L 890.806653158138 101.43515827762084 L 890.6749574849531 101.52504235545253 L 890.5412800848839 101.61432661243519 L 890.4056343255589 101.70300212021755 L 890.2680337714411 101.7910600113227 L 890.1284921824712 101.87849148003492 L 889.9870235126918 101.9652877832802 L 889.8436419088521 102.05144024150056 L 889.6983617089929 102.13694023952193 L 889.5511974410131 102.22177922741581 L 889.402163821217 102.30594872135407 L 889.251275752842 102.38944030445748 L 889.0985483245697 102.47224562763729 L 888.9439968090155 102.5543564104302 L 888.787636661202 102.63576444182635 L 888.6294835170137 102.71646158109044 L 888.4695531916334 102.79643975857579 L 888.3078616779602 102.8756909765313 L 888.1444251450109 102.95420730990122 L 887.9792599363024 103.03198090711763 L 887.812382568218 103.10900399088564 L 887.6438097283556 103.18526885896105 L 887.4735582738584 103.2607678849206 L 887.3016452297303 103.33549351892461 L 887.1280877871322 103.40943828847196 L 886.9529033016639 103.48259479914732 L 886.7761092916279 103.55495573536056 L 886.5977234362779 103.6265138610784 L 886.4177635740506 103.69726202054787 L 886.2362477007825 103.76719313901197 L 886.0531939679096 103.83630022341715 L 885.8686206806526 103.90457636311257 L 885.6825462961864 103.97201473054113 L 885.4949894217945 104.03860858192229 L 885.3059688130078 104.10435125792642 L 885.1155033717299 104.1692361843407 L 884.9236121443461 104.23325687272656 L 884.7303143198193 104.29640692106851 L 884.5356292277708 104.35868001441433 L 884.3395763365476 104.4200699255066 L 884.1421752512754 104.48057051540535 L 883.9434457118983 104.54017573410202 L 883.7434075912046 104.5988796211244 L 883.5420808928396 104.65667630613272 L 883.3394857493056 104.71356000950664 L 883.1356424199478 104.7695250429232 L 882.9305712889295 104.82456580992574 L 882.7242928631928 104.87867680648341 L 882.5168277704084 104.93185262154162 L 882.3081967569127 104.98408793756322 L 882.0984206856333 105.0353775310601 L 881.8875205340023 105.08571627311568 L 881.6755173918592 105.13509912989768 L 881.4624324593416 105.1835211631616 L 881.2482870447652 105.23097753074444 L 881.0331025624929 105.27746348704899 L 880.8169005307936 105.32297438351839 L 880.5997025696905 105.36750566910086 L 880.3815303987985 105.41105289070501 L 880.162405835153 105.45361169364494 L 879.9423507910276 105.49517782207583 L 879.7213872717435 105.53574711941947 L 879.4995373734686 105.57531552877992 L 879.2768232810075 105.61387909334925 L 879.053267265584 105.65143395680312 L 878.8288916826136 105.68797636368647 L 878.6037189694673 105.72350265978909 L 878.3777716432289 105.75800929251095 L 878.1510722984427 105.79149281121755 L 877.9236436048543 105.82394986758491 L 877.6955083051434 105.85537721593445 L 877.4666892126502 105.88577171355752 L 877.2372092090928 105.9151303210297 L 877.0070912422808 105.94345010251467 L 876.7763583238187 105.97072822605791 L 876.5450335268064 105.99696196386981 L 876.3131399835305 106.02214869259844 L 876.0807008831524 106.04628589359189 L 875.8477394693883 106.0693711531502 L 875.6142790381854 106.09140216276666 L 875.3803429353924 106.11237671935864 L 875.1459545544244 106.13229272548797 L 874.9111373339244 106.15114818957065 L 874.6759147554188 106.16894122607596 L 874.4403103409692 106.1856700557151 L 874.2043476508209 106.20133300561903 L 873.9680502810462 106.21592850950582 L 873.7314418611852 106.22945510783724 L 873.4945460518826 106.24191144796474 L 873.2573865425221 106.25329628426466 L 873.0199870488569 106.2636084782629 L 872.7823713106385 106.2728469987486 L 872.5445630892428 106.28101092187747 L 872.3065861652938 106.28809943126396 L 872.0684643362854 106.29411181806304 L 871.8302214142022 106.29904748104106 L 871.5918812231379 106.30290592663582 L 871.3534675969129 106.30568676900597 L 871.1150043766911 106.30738973006962 L 870.876515408596 106.30801463953205 L 870.6380245413254 106.30756143490284 L 870.3995556237676 106.3060301615021 L 870.1611325026154 106.30342097245587 L 869.9227790199824 106.29973412868088 L 869.684519011018 106.29496999885845 L 869.4463763015248 106.28912905939758 L 869.2083747055751 106.28221189438736 L 868.9705380231303 106.27421919553852 L 868.7328900376604 106.26515176211427 L 868.4954545137658 106.25501050085043 L 868.2582551948011 106.24379642586464 L 868.0213158005007 106.23151065855508 L 867.7846600246064 106.21815442748823 L 867.5483115324986 106.20372906827606 L 867.3122939588295 106.1882360234425 L 867.07663090516 106.17167684227908 L 866.8413459375988 106.15405318069014 L 866.6064625844468 106.13536680102716 L 866.3720043338435 106.11561957191253 L 866.1379946314187 106.09481346805269 L 865.9044568779473 106.0729505700407 L 865.6714144270104 106.05003306414814 L 865.4388905826587 106.0260632421065 L 865.2069085970828 106.00104350087803 L 864.9754916682882 105.97497634241597 L 864.7446629377747 105.94786437341445 L 864.5144454882231 105.9197103050478 L 864.2848623411866 105.89051695269937 L 864.0559364547883 105.86028723568009 L 863.8276907214263 105.82902417693644 L 863.6001479654836 105.79673090274827 L 863.3733309410463 105.76341064241608 L 863.1472623296279 105.72906672793813 L 862.9219647379009 105.69370259367726 L 862.6974606954368 105.6573217760174 L 862.4737726524529 105.61992791301003 L 862.250922977567 105.58152474401028 L 862.0289339555609 105.54211610930304 L 861.8078277851519 105.50170594971894 L 861.5876265767724 105.46029830624026 L 861.3683523503603 105.41789731959686 L 861.1500270331551 105.37450722985206 L 860.9326724575067 105.33013237597868 L 860.7163103586917 105.28477719542511 L 860.5009623727393 105.23844622367163 L 860.2866500342691 105.1911440937768 L 860.073394774336 105.14287553591419 L 859.8612179182885 105.09364537689936 L 859.6501406836352 105.0434585397072 L 859.4401841779238 104.99232004297959 L 859.2313693966299 104.9402350005236 L 859.0237172210576 104.88720862080007 L 858.8172484162515 104.83324620640276 L 858.6119836289198 104.77835315352817 L 858.4079433853703 104.72253495143585 L 858.2051480894573 104.66579718189945 L 858.0036180205416 104.60814551864868 L 857.8033733314619 104.54958572680184 L 857.6044340465203 104.49012366228926 L 857.4068200594795 104.42976527126788 L 857.2105511315737 104.36851658952648 L 857.0156468895318 104.30638374188221 L 856.8221268236159 104.24337294156805 L 856.6300102856711 104.17949048961154 L 856.4393164871914 104.11474277420461 L 856.2500644973974 104.04913627006486 L 856.0622732413304 103.98267753778805 L 855.8759614979598 103.91537322319199 L 855.6911478983044 103.84723005665208 L 855.5078509235703 103.77825485242818 L 855.3260889033022 103.70845450798322 L 855.1458800135506 103.63783600329349 L 854.9672422750543 103.56640640015061 L 854.7901935514384 103.49417284145538 L 854.6147515474275 103.42114255050346 L 854.4409338070761 103.3473228302631 L 854.2687577120132 103.27272106264479 L 854.0982404797048 103.19734470776314 L 853.9293991617322 103.1212013031908 L 853.7622506420863 103.04429846320481 L 853.59681163548 102.96664387802507 L 853.4330986856758 102.88824531304537 L 853.2711281638325 102.8091106080569 L 853.1109162668672 102.72924767646418 L 852.952479015836 102.64866450449387 L 852.7958322543323 102.56736915039596 L 852.6409916469014 102.48536974363815 L 852.487972677475 102.40267448409276 L 852.3367906478228 102.31929164121684 L 852.1874606760215 102.2352295532252 L 852.039997694944 102.15049662625658 L 851.8944164507654 102.06510133353308 L 851.750731501489 101.97905221451278 L 851.6089572154898 101.89235787403591 L 851.4691077700784 101.80502698146424 L 851.3311971500826 101.71706826981428 L 851.1952391464496 101.62849053488388 L 851.0612473548665 101.53930263437272 L 850.9292351744008 101.44951348699652 L 850.7992158061604 101.35913207159521 L 850.6712022519739 101.26816742623502 L 850.54520731309 101.17662864730465 L 850.4212435888977 101.08452488860574 L 850.299323475666 100.9918653604374 L 850.1794591653046 100.89865932867522 L 850.0616626441447 100.80491611384473 L 849.9459456917402 100.71064509018925 L 849.83231987969 100.61585568473262 L 849.7207965704806 100.5205573763364 L 849.6113869163499 100.424759694752 L 849.5041018581722 100.32847221966773 L 849.398952124364 100.2317045797509 L 849.295948229811 100.13446645168483 L 849.1951004748166 100.03676755920131 L 849.0964189440725 99.93861767210817 L 848.9999135056496 99.84002660531232 L 848.9055938100112 99.7410042178383 L 848.8134692890482 99.64156041184232 L 848.723549155136 99.54170513162211 L 848.635842400213 99.4414483626225 L 848.5503577948817 99.34080013043682 L 848.4671038875315 99.23977049980442 L 848.3860890034834 99.13836957360418 L 848.3073212441586 99.03660749184422 L 848.2308084862674 98.9344944306479 L 848.1565583810216 98.83204060123627 L 848.08457835337 98.72925624890688 L 848.0148756012553 98.6261516520093 L 847.9474570948948 98.52273712091731 L 847.8823295760828 98.41902299699785 L 847.8194995575169 98.31501965157686 L 847.7589733221467 98.21073748490224 L 847.7007569225452 98.10618692510373 L 847.644856180304 98.0013784271502 L 847.5912766854506 97.89632247180411 L 847.5400237958897 97.79102956457344 L 847.4911026368679 97.68551023466115 L 847.4445181004601 97.57977503391233 L 847.4002748450812 97.47383453575894 L 847.3583772950197 97.3676993341625 L 847.318829639996 97.2613800425547 L 847.2816358347424 97.15488729277617 L 847.2467995986085 97.04823173401307 L 847.2143244151888 96.94142403173245 L 847.1842135319748 96.8344748666155 L 847.1564699600295 96.72739493348962 L 847.1310964736872 96.6201949402589 L 847.1080956102752 96.51288560683331 L 847.0874696698608 96.40547766405678 L 847.0692207150206 96.29798185263407 L 847.0533505706352 96.19040892205675 L 847.0398608237057 96.08276962952824 L 847.0287528231954 95.9750747388881 L 847.0200276798954 95.86733501953563 L 847.0136862663124 95.75956124535298 L 847.0097292165829 95.65176419362778 L 847.0081569264081 95.54395464397535" stroke-miterlimit="10" stroke-width="2.7769845610000004" stroke-dasharray=""/></g><g><g/><text fill="black" stroke="none" font-family="sans-serif" font-size="11pt" font-style="normal" font-weight="normal" text-decoration="normal" x="839.4795785505859" y="123.83569119881818" text-anchor="start" dominant-baseline="alphabetic" xml:space="preserve">Database</text></g><g><path fill="white" stroke="black" paint-order="fill stroke markers" d=" M 46.00764397142969 658.8952752903182 A 9.311065881 9.311065881 0 1 1 46.00763931589714 658.885964225989 M 36.69657809042969 668.2063411713182 L 36.69657809042969 688.1352891973181 M 24.93523171442969 675.3938306233182 L 48.45792446642969 675.3938306233182 M 36.69657809042969 688.1352891973181 L 24.93523171442969 706.7574209593182 M 36.69657809042969 688.1352891973181 L 48.45792446642969 706.7574209593182" stroke-miterlimit="10" stroke-width="2.7769845610000004" stroke-dasharray=""/></g><g><g/><text fill="black" stroke="none" font-family="sans-serif" font-size="11pt" font-style="normal" font-weight="normal" text-decoration="normal" x="8.167601650000002" y="643.2951561388181" text-anchor="start" dominant-baseline="alphabetic" xml:space="preserve">Landlord</text></g><g><path fill="white" stroke="black" paint-order="fill stroke markers" d=" M 469.3825863861771 674.3973832220181 A 24.2577769005 24.2577769005 0 1 1 469.38257425728966 674.3731254491605 M 419.4785403046771 700.876747771318 L 470.77107866667706 700.876747771318" stroke-miterlimit="10" stroke-width="2.7769845610000004" stroke-dasharray=""/></g><g><g/><text fill="black" stroke="none" font-family="sans-serif" font-size="11pt" font-style="normal" font-weight="normal" text-decoration="normal" x="426.3846590340169" y="643.2951561388181" text-anchor="start" dominant-baseline="alphabetic" xml:space="preserve">Client</text></g><g><path fill="white" stroke="black" paint-order="fill stroke markers" d=" M 700.4522362384556 674.3973832220181 A 24.2577769005 24.2577769005 0 1 1 700.4522241095682 674.3731254491605 M 650.5481901569557 700.876747771318 L 701.8407285189556 700.876747771318" stroke-miterlimit="10" stroke-width="2.7769845610000004" stroke-dasharray=""/></g><g><g/><text fill="black" stroke="none" font-family="sans-serif" font-size="11pt" font-style="normal" font-weight="normal" text-decoration="normal" x="647.6690610835611" y="643.2951561388181" text-anchor="start" dominant-baseline="alphabetic" xml:space="preserve">Backend</text></g><g><path fill="white" stroke="black" paint-order="fill stroke markers" d=" M 847.008126678875 696.0578627978181 L 847.008126678875 661.753935867818 L 894.7069203148749 661.753935867818 L 894.7069203148749 696.0578627978181" stroke-miterlimit="10" stroke-width="2.7769845610000004" stroke-dasharray=""/><path fill="white" stroke="black" paint-order="fill stroke markers" d=" M 894.7069203148749 660.561466026918 L 894.7057278549712 660.6692765718346 L 894.7021505945052 660.7770763357865 L 894.6961888911999 660.8848545388873 L 894.6878433412205 660.9926004034064 L 894.6771147791153 661.1003031548471 L 894.6640042777315 661.207952023024 L 894.6485131481082 661.3155362431401 L 894.6306429393456 661.4230450568629 L 894.6103954384496 661.5304677134006 L 894.5877726701534 661.6377934705773 L 894.562776896715 661.7450115959065 L 894.535410617691 661.8521113676651 L 894.5056765696864 661.9590820759652 L 894.4735777260813 662.065913023825 L 894.4391172967332 662.1725935282388 L 894.4022987276564 662.2791129212451 L 894.3631257006771 662.3854605509933 L 894.3216021330653 662.4916257828093 L 894.2777321771433 662.5975980002579 L 894.2315202198699 662.703366606206 L 894.1829708824026 662.8089210238812 L 894.1320890196346 662.9142506979294 L 894.0788797197097 663.0193450954713 L 894.0233483035134 663.1241937071545 L 893.9655003241414 663.2287860482054 L 893.9053415663433 663.3331116594768 L 893.8428780459446 663.4371601084946 L 893.7781160092454 663.5409209905007 L 893.7110619323954 663.6443839294934 L 893.6417225207465 663.7475385792649 L 893.5701047081818 663.8503746244361 L 893.4962156564231 663.9528817814884 L 893.4200627543141 664.0550497997914 L 893.3416536170813 664.1568684626284 L 893.2609960855732 664.258327588218 L 893.1780982254758 664.3594170307321 L 893.0929683265059 664.4601266813108 L 893.0056149015825 664.560446469073 L 892.9160466859753 664.6603663621235 L 892.8242726364313 664.7598763685561 L 892.7303019302788 664.8589665374533 L 892.6341439645103 664.9576269598806 L 892.5358083548422 665.055847769878 L 892.4353049347533 665.1536191454466 L 892.3326437545022 665.25093130953 L 892.2278350801212 665.347774530993 L 892.1208893923903 665.4441391255942 L 892.0118173857893 665.5400154569545 L 891.900629967428 665.6353939375205 L 891.7873382559554 665.7302650295237 L 891.6719535804485 665.824619245934 L 891.5544874792785 665.9184471514083 L 891.4349516989575 666.0117393632343 L 891.3133581929643 666.1044865522684 L 891.1897191205479 666.1966794438694 L 891.0640468455125 666.2883088188245 L 890.9363539349811 666.3793655142728 L 890.806653158138 666.4698404246207 L 890.6749574849531 666.5597245024524 L 890.5412800848839 666.649008759435 L 890.4056343255589 666.7376842672173 L 890.2680337714411 666.8257421583224 L 890.1284921824712 666.9131736270347 L 889.9870235126918 666.99996993028 L 889.8436419088521 667.0861223885004 L 889.6983617089929 667.1716223865217 L 889.5511974410131 667.2564613744156 L 889.402163821217 667.3406308683539 L 889.251275752842 667.4241224514573 L 889.0985483245697 667.5069277746371 L 888.9439968090155 667.58903855743 L 888.787636661202 667.6704465888262 L 888.6294835170137 667.7511437280903 L 888.4695531916334 667.8311219055756 L 888.3078616779602 667.910373123531 L 888.1444251450109 667.988889456901 L 887.9792599363024 668.0666630541174 L 887.812382568218 668.1436861378854 L 887.6438097283556 668.2199510059609 L 887.4735582738584 668.2954500319204 L 887.3016452297303 668.3701756659244 L 887.1280877871322 668.4441204354717 L 886.9529033016639 668.5172769461471 L 886.7761092916279 668.5896378823603 L 886.5977234362779 668.6611960080782 L 886.4177635740506 668.7319441675477 L 886.2362477007825 668.8018752860118 L 886.0531939679096 668.870982370417 L 885.8686206806526 668.9392585101124 L 885.6825462961864 669.0066968775409 L 885.4949894217945 669.0732907289221 L 885.3059688130078 669.1390334049262 L 885.1155033717299 669.2039183313404 L 884.9236121443461 669.2679390197263 L 884.7303143198193 669.3310890680683 L 884.5356292277708 669.3933621614141 L 884.3395763365476 669.4547520725064 L 884.1421752512754 669.5152526624051 L 883.9434457118983 669.5748578811018 L 883.7434075912046 669.6335617681242 L 883.5420808928396 669.6913584531325 L 883.3394857493056 669.7482421565064 L 883.1356424199478 669.804207189923 L 882.9305712889295 669.8592479569255 L 882.7242928631928 669.9133589534832 L 882.5168277704084 669.9665347685415 L 882.3081967569127 670.018770084563 L 882.0984206856333 670.0700596780599 L 881.8875205340023 670.1203984201155 L 881.6755173918592 670.1697812768974 L 881.4624324593416 670.2182033101614 L 881.2482870447652 670.2656596777442 L 881.0331025624929 670.3121456340488 L 880.8169005307936 670.3576565305182 L 880.5997025696905 670.4021878161006 L 880.3815303987985 670.4457350377048 L 880.162405835153 670.4882938406447 L 879.9423507910276 670.5298599690756 L 879.7213872717435 670.5704292664193 L 879.4995373734686 670.6099976757797 L 879.2768232810075 670.6485612403491 L 879.053267265584 670.6861161038029 L 878.8288916826136 670.7226585106863 L 878.6037189694673 670.7581848067889 L 878.3777716432289 670.7926914395107 L 878.1510722984427 670.8261749582173 L 877.9236436048543 670.8586320145847 L 877.6955083051434 670.8900593629343 L 877.4666892126502 670.9204538605574 L 877.2372092090928 670.9498124680294 L 877.0070912422808 670.9781322495145 L 876.7763583238187 671.0054103730577 L 876.5450335268064 671.0316441108696 L 876.3131399835305 671.0568308395982 L 876.0807008831524 671.0809680405916 L 875.8477394693883 671.10405330015 L 875.6142790381854 671.1260843097664 L 875.3803429353924 671.1470588663584 L 875.1459545544244 671.1669748724878 L 874.9111373339244 671.1858303365705 L 874.6759147554188 671.2036233730757 L 874.4403103409692 671.2203522027149 L 874.2043476508209 671.2360151526188 L 873.9680502810462 671.2506106565056 L 873.7314418611852 671.264137254837 L 873.4945460518826 671.2765935949645 L 873.2573865425221 671.2879784312645 L 873.0199870488569 671.2982906252627 L 872.7823713106385 671.3075291457484 L 872.5445630892428 671.3156930688773 L 872.3065861652938 671.3227815782637 L 872.0684643362854 671.3287939650628 L 871.8302214142022 671.3337296280408 L 871.5918812231379 671.3375880736356 L 871.3534675969129 671.3403689160058 L 871.1150043766911 671.3420718770694 L 870.876515408596 671.3426967865319 L 870.6380245413254 671.3422435819026 L 870.3995556237676 671.3407123085019 L 870.1611325026154 671.3381031194557 L 869.9227790199824 671.3344162756807 L 869.684519011018 671.3296521458583 L 869.4463763015248 671.3238112063974 L 869.2083747055751 671.3168940413872 L 868.9705380231303 671.3089013425383 L 868.7328900376604 671.2998339091141 L 868.4954545137658 671.2896926478502 L 868.2582551948011 671.2784785728644 L 868.0213158005007 671.2661928055549 L 867.7846600246064 671.252836574488 L 867.5483115324986 671.2384112152758 L 867.3122939588295 671.2229181704423 L 867.07663090516 671.2063589892789 L 866.8413459375988 671.18873532769 L 866.6064625844468 671.170048948027 L 866.3720043338435 671.1503017189123 L 866.1379946314187 671.1294956150525 L 865.9044568779473 671.1076327170405 L 865.6714144270104 671.0847152111479 L 865.4388905826587 671.0607453891063 L 865.2069085970828 671.0357256478778 L 864.9754916682882 671.0096584894158 L 864.7446629377747 670.9825465204142 L 864.5144454882231 670.9543924520476 L 864.2848623411866 670.9251990996992 L 864.0559364547883 670.8949693826798 L 863.8276907214263 670.8637063239362 L 863.6001479654836 670.8314130497481 L 863.3733309410463 670.7980927894158 L 863.1472623296279 670.763748874938 L 862.9219647379009 670.728384740677 L 862.6974606954368 670.6920039230172 L 862.4737726524529 670.6546100600099 L 862.250922977567 670.61620689101 L 862.0289339555609 670.5767982563028 L 861.8078277851519 670.5363880967187 L 861.5876265767724 670.49498045324 L 861.3683523503603 670.4525794665966 L 861.1500270331551 670.4091893768518 L 860.9326724575067 670.3648145229785 L 860.7163103586917 670.3194593424249 L 860.5009623727393 670.2731283706714 L 860.2866500342691 670.2258262407765 L 860.073394774336 670.177557682914 L 859.8612179182885 670.1283275238992 L 859.6501406836352 670.078140686707 L 859.4401841779238 670.0270021899794 L 859.2313693966299 669.9749171475233 L 859.0237172210576 669.9218907677998 L 858.8172484162515 669.8679283534026 L 858.6119836289198 669.813035300528 L 858.4079433853703 669.7572170984356 L 858.2051480894573 669.7004793288993 L 858.0036180205416 669.6428276656485 L 857.8033733314619 669.5842678738017 L 857.6044340465203 669.5248058092891 L 857.4068200594795 669.4644474182677 L 857.2105511315737 669.4031987365263 L 857.0156468895318 669.341065888882 L 856.8221268236159 669.2780550885678 L 856.6300102856711 669.2141726366114 L 856.4393164871914 669.1494249212044 L 856.2500644973974 669.0838184170647 L 856.0622732413304 669.0173596847878 L 855.8759614979598 668.9500553701918 L 855.6911478983044 668.8819122036518 L 855.5078509235703 668.812936999428 L 855.3260889033022 668.743136654983 L 855.1458800135506 668.6725181502933 L 854.9672422750543 668.6010885471504 L 854.7901935514384 668.5288549884551 L 854.6147515474275 668.4558246975032 L 854.4409338070761 668.3820049772629 L 854.2687577120132 668.3074032096446 L 854.0982404797048 668.2320268547629 L 853.9293991617322 668.1558834501906 L 853.7622506420863 668.0789806102046 L 853.59681163548 668.0013260250248 L 853.4330986856758 667.9229274600451 L 853.2711281638325 667.8437927550567 L 853.1109162668672 667.763929823464 L 852.952479015836 667.6833466514936 L 852.7958322543323 667.6020512973957 L 852.6409916469014 667.5200518906379 L 852.487972677475 667.4373566310925 L 852.3367906478228 667.3539737882166 L 852.1874606760215 667.269911700225 L 852.039997694944 667.1851787732563 L 851.8944164507654 667.0997834805329 L 851.750731501489 667.0137343615125 L 851.6089572154898 666.9270400210357 L 851.4691077700784 666.839709128464 L 851.3311971500826 666.751750416814 L 851.1952391464496 666.6631726818837 L 851.0612473548665 666.5739847813725 L 850.9292351744008 666.4841956339964 L 850.7992158061604 666.393814218595 L 850.6712022519739 666.3028495732348 L 850.54520731309 666.2113107943045 L 850.4212435888977 666.1192070356055 L 850.299323475666 666.0265475074372 L 850.1794591653046 665.933341475675 L 850.0616626441447 665.8395982608445 L 849.9459456917402 665.745327237189 L 849.83231987969 665.6505378317324 L 849.7207965704806 665.5552395233361 L 849.6113869163499 665.4594418417518 L 849.5041018581722 665.3631543666676 L 849.398952124364 665.2663867267507 L 849.295948229811 665.1691485986846 L 849.1951004748166 665.0714497062011 L 849.0964189440725 664.973299819108 L 848.9999135056496 664.8747087523121 L 848.9055938100112 664.7756863648381 L 848.8134692890482 664.6762425588421 L 848.723549155136 664.576387278622 L 848.635842400213 664.4761305096223 L 848.5503577948817 664.3754822774366 L 848.4671038875315 664.2744526468042 L 848.3860890034834 664.173051720604 L 848.3073212441586 664.071289638844 L 848.2308084862674 663.9691765776477 L 848.1565583810216 663.866722748236 L 848.08457835337 663.7639383959066 L 848.0148756012553 663.6608337990091 L 847.9474570948948 663.5574192679171 L 847.8823295760828 663.4537051439976 L 847.8194995575169 663.3497017985767 L 847.7589733221467 663.245419631902 L 847.7007569225452 663.1408690721036 L 847.644856180304 663.03606057415 L 847.5912766854506 662.9310046188039 L 847.5400237958897 662.8257117115733 L 847.4911026368679 662.7201923816609 L 847.4445181004601 662.6144571809122 L 847.4002748450812 662.5085166827587 L 847.3583772950197 662.4023814811623 L 847.318829639996 662.2960621895545 L 847.2816358347424 662.1895694397759 L 847.2467995986085 662.0829138810128 L 847.2143244151888 661.9761061787323 L 847.1842135319748 661.8691570136153 L 847.1564699600295 661.7620770804895 L 847.1310964736872 661.6548770872587 L 847.1080956102752 661.547567753833 L 847.0874696698608 661.4401598110566 L 847.0692207150206 661.3326639996338 L 847.0533505706352 661.2250910690566 L 847.0398608237057 661.117451776528 L 847.0287528231954 661.0097568858879 L 847.0200276798954 660.9020171665354 L 847.0136862663124 660.7942433923528 L 847.0097292165829 660.6864463406275 L 847.0081569264081 660.5786367909751 L 847.0089695530161 660.4708255242606 L 847.0121670151447 660.3630233215208 L 847.0177489930503 660.2552409628862 L 847.02571492854 660.1474892265028 L 847.0360640250267 660.0397788874544 L 847.0487952476095 659.9321207166853 L 847.0639073231766 659.8245254799227 L 847.0813987405332 659.7170039366008 L 847.1012677505521 659.6095668387841 L 847.1235123663487 659.502224930093 L 847.1481303634802 659.394988944629 L 847.1751192801671 659.2878696059009 L 847.2044764175405 659.1808776257539 L 847.236198839911 659.0740237032962 L 847.270283375063 658.9673185238315 L 847.306726614571 658.8607727577887 L 847.3455249141417 658.7543970596555 L 847.3866743939774 658.6482020669132 L 847.4301709391644 658.5421983989725 L 847.4760102000845 658.4363966561118 L 847.5241875928497 658.3308074184174 L 847.5746982997609 658.225441244725 L 847.6275372697895 658.120308671564 L 847.6826992190827 658.0154202121043 L 847.7401786314913 657.9107863551044 L 847.7999697591221 657.8064175638629 L 847.8620666229119 657.7023242751716 L 847.9264630132265 657.598516898273 L 847.9931524904803 657.4950058138181 L 848.0621283857811 657.3918013728293 L 848.1333838015969 657.2889138956643 L 848.2069116124455 657.1863536709855 L 848.2827044656071 657.0841309547295 L 848.3607547818596 656.9822559690831 L 848.4410547562363 656.8807389014598 L 848.5235963588067 656.7795899034818 L 848.6083713354794 656.6788190899646 L 848.6953712088274 656.5784365379055 L 848.7845872789358 656.4784522854761 L 848.8760106242719 656.3788763310184 L 848.9696321025774 656.2797186320448 L 849.0654423517824 656.1809891042426 L 849.163431790942 656.0826976204822 L 849.2635906211939 655.9848540098303 L 849.3659088267384 655.8874680565661 L 849.4703761758402 655.7905494992041 L 849.5769822218517 655.694108029519 L 849.685716304257 655.5981532915777 L 849.7965675497383 655.5026948807737 L 849.9095248732636 655.4077423428687 L 850.0245769791948 655.3133051730374 L 850.1417123624169 655.219392814918 L 850.2609193094893 655.126014659668 L 850.3821858998167 655.0331800450253 L 850.5055000068412 654.940898254374 L 850.6308492992546 654.849178515816 L 850.7582212422323 654.7580300012489 L 850.8876030986861 654.6674618254483 L 851.0189819305382 654.5774830451561 L 851.1523446000148 654.4881026581754 L 851.2876777709602 654.3993296024706 L 851.42496791017 654.311172755273 L 851.5642012887448 654.2236409321941 L 851.7053639834627 654.1367428863432 L 851.8484418781718 654.0504873074523 L 851.9934206652019 653.9648828210077 L 852.1402858467952 653.8799379873865 L 852.2890227365559 653.7956613010012 L 852.4396164609188 653.7120611894505 L 852.5920519606373 653.6291460126756 L 852.746313992288 653.5469240621254 L 852.9023871297967 653.4654035599261 L 853.0602557659795 653.3845926580602 L 853.2199041141045 653.3044994375505 L 853.3813162094696 653.2251319076522 L 853.5444759110001 653.1464980050522 L 853.7093669028616 653.0686055930754 L 853.8759726960925 652.9914624608979 L 854.0442766302523 652.9150763227686 L 854.2142618750876 652.8394548172379 L 854.3859114322158 652.7646055063931 L 854.5592081368243 652.6905358751029 L 854.7341346593868 652.6172533302689 L 854.910673507397 652.5447652000844 L 855.088807027117 652.473078733302 L 855.2685174053436 652.4022010985087 L 855.4497866711885 652.3321393834088 L 855.6325966978761 652.2629005941156 L 855.8169292045563 652.1944916544502 L 856.0027657581321 652.1269194052496 L 856.1900877751027 652.0601906036824 L 856.3788765234226 651.9943119225732 L 856.5691131243744 651.929289949735 L 856.7607785544566 651.8651311873112 L 856.9538536472857 651.8018420511244 L 857.1483190955133 651.7394288700355 L 857.3441554527569 651.6778978853106 L 857.5413431355437 651.617255249997 L 857.73986242527 651.5575070283076 L 857.939693470172 651.4986591950146 L 858.1408162873117 651.4407176348527 L 858.3432107645754 651.3836881419293 L 858.5468566626837 651.3275764191463 L 858.7517336172165 651.2723880776292 L 858.9578211406491 651.2181286361662 L 859.165098624401 651.164803520656 L 859.3735453408965 651.1124180635661 L 859.5831404456377 651.0609775033984 L 859.7938629792886 651.0104869841658 L 860.0056918697717 650.9609515548784 L 860.2186059343743 650.9123761690379 L 860.4325838818675 650.8647656841423 L 860.6476043146347 650.8181248612003 L 860.8636457308119 650.7724583642556 L 861.0806865264374 650.7277707599196 L 861.2987049976127 650.6840665169155 L 861.5176793426723 650.6413500056315 L 861.7375876643641 650.5996254976826 L 861.9584079720393 650.5588971654853 L 862.1801181838509 650.5191690818386 L 862.4026961289628 650.4804452195181 L 862.6261195497658 650.4427294508772 L 862.850366104104 650.4060255474618 L 863.0754133675089 650.3703371796315 L 863.3012388354416 650.3356679161934 L 863.5278199255437 650.3020212240448 L 863.7551339798948 650.269400467827 L 863.9831582672789 650.2378089095885 L 864.2118699854574 650.2072497084586 L 864.441246263449 650.1777259203321 L 864.6712641638171 650.1492404975633 L 864.9019006849633 650.1217962886705 L 865.1331327634276 650.0953960380517 L 865.364937276195 650.0700423857103 L 865.5972910430073 650.0457378669901 L 865.8301708286815 650.0224849123227 L 866.0635533454331 650.0002858469845 L 866.2974152552049 649.9791428908633 L 866.5317331720007 649.9590581582371 L 866.7664836642242 649.9400336575625 L 867.0016432570218 649.9220712912736 L 867.2371884346302 649.9051728555921 L 867.4730956427278 649.8893400403476 L 867.7093412907906 649.8745744288084 L 867.9459017544503 649.8608774975231 L 868.1827533778581 649.8482506161738 L 868.4198724760488 649.8366950474378 L 868.6572353373102 649.8262119468626 L 868.894818225554 649.8168023627493 L 869.1325973826893 649.8084672360486 L 869.3705490309986 649.8012074002662 L 869.6086493755154 649.7950235813795 L 869.8468746064035 649.7899163977655 L 870.0852009013386 649.7858863601381 L 870.3236044278896 649.7829338714977 L 870.5620613459024 649.7810592270909 L 870.8005478098843 649.7802626143803 L 871.0390399713873 649.7805441130266 L 871.2775139813941 649.7819036948804 L 871.5159459927025 649.7843412239843 L 871.75431216231 649.7878564565876 L 871.9925886537983 649.7924490411701 L 872.2307516397168 649.7981185184769 L 872.4687773039653 649.8048643215652 L 872.7066418441758 649.8126857758601 L 872.9443214740925 649.821582099223 L 873.1817924259506 649.8315524020286 L 873.4190309528525 649.8425956872553 L 873.6560133311434 649.8547108505835 L 873.892715862783 649.8678966805071 L 874.1291148777153 649.882151858454 L 874.365186736236 649.8974749589185 L 874.6009078313556 649.913864449603 L 874.8362545911613 649.9313186915724 L 875.0712034811731 649.9498359394169 L 875.3057310066979 649.969414341427 L 875.5398137151786 649.990051939779 L 875.7734281985394 650.0117466707304 L 876.0065510955264 650.0344963648258 L 876.2391590940446 650.0582987471151 L 876.4712289334876 650.0831514373798 L 876.7027374070651 650.1090519503715 L 876.9336613641226 650.1359976960605 L 877.1639777124568 650.1639859798948 L 877.3936634206248 650.1930140030693 L 877.6226955202471 650.2230788628057 L 877.8510511083048 650.2541775526432 L 878.0787073494292 650.2863069627389 L 878.305641478186 650.3194638801783 L 878.5318308013514 650.3536449892975 L 878.7572527001817 650.3888468720139 L 878.9818846326746 650.4250660081686 L 879.2057041358242 650.4622987758784 L 879.4286888278668 650.5005414518971 L 879.6508164105188 650.5397902119894 L 879.8720646712073 650.5800411313118 L 880.0924114852904 650.6212901848058 L 880.3118348182703 650.6635332476008 L 880.5303127279967 650.7067660954252 L 880.7478233668606 650.7509844050307 L 880.9643449839795 650.796183754623 L 881.1798559273718 650.8423596243048 L 881.3943346461231 650.8895073965276 L 881.6077596925401 650.9376223565536 L 881.820109724296 650.9866996929267 L 882.0313635065647 651.0367344979543 L 882.2414999141439 651.0877217681975 L 882.4504979335679 651.1396564049719 L 882.6583366652092 651.1925332148569 L 882.8649953253674 651.2463469102157 L 883.0704532483492 651.3010921097238 L 883.2746898885331 651.3567633389064 L 883.4776848224254 651.4133550306874 L 883.679417750702 651.4708615259445 L 883.8798685002381 651.5292770740763 L 884.0790170261257 651.5885958335766 L 884.2768434136783 651.6488118726188 L 884.473327880422 651.7099191696493 L 884.6684507780737 651.7719116139892 L 884.8621925945065 651.834783006446 L 885.0545339556999 651.8985270599323 L 885.2454556276783 651.9631374000965 L 885.4349385184335 652.0286075659579 L 885.6229636798344 652.0949310105549 L 885.8095123095214 652.162101101598 L 885.9945657527871 652.2301111221342 L 886.1781055044414 652.2989542712181 L 886.3601132106621 652.3686236645922 L 886.5405706708302 652.4391123353752 L 886.7194598393501 652.5104132347587 L 886.8967628274538 652.5825192327122 L 887.0724619049906 652.6554231186961 L 887.246539502199 652.7291176023825 L 887.4189782114643 652.8035953143843 L 887.5897607890593 652.8788488069926 L 887.7588701568685 652.9548705549206 L 887.9262894040961 653.0316529560571 L 888.092001788957 653.1091883322258 L 888.2559907403506 653.1874689299539 L 888.4182398595186 653.2664869212466 L 888.5787329216843 653.3462344043706 L 888.7374538776751 653.4267034046444 L 888.8943868555276 653.5078858752348 L 889.049516162075 653.5897736979623 L 889.2028262845158 653.6723586841131 L 889.3543018919655 653.7556325752571 L 889.5039278369896 653.8395870440748 L 889.6516891571184 653.9242136951893 L 889.7975710763429 654.009504066006 L 889.9415590065928 654.0954496275588 L 890.083638549195 654.1820417853631 L 890.2237954963138 654.2692718802755 L 890.362015832371 654.357131189359 L 890.4982857354483 654.4456109267561 L 890.6325915786691 654.5347022445667 L 890.7649199315609 654.6243962337331 L 890.8952575613986 654.7146839249314 L 891.0235914345279 654.8055562894675 L 891.1499087176686 654.8970042401809 L 891.2741967791973 654.9890186323526 L 891.3964431904117 655.0815902646199 L 891.5166357267724 655.174709879897 L 891.6347623691261 655.2683681662999 L 891.7508113049067 655.3625557580779 L 891.8647709293176 655.4572632365503 L 891.9766298464913 655.5524811310484 L 892.0863768706291 655.6481999198618 L 892.1940010271203 655.7444100311916 L 892.2994915536387 655.8411018441068 L 892.4028379012198 655.9382656895066 L 892.5040297353147 656.0358918510875 L 892.6030569368246 656.1339705663147 L 892.6999096031116 656.2324920273984 L 892.7945780489899 656.3314463822745 L 892.8870528076939 656.4308237355901 L 892.9773246318247 656.5306141496927 L 893.065384494275 656.630807645624 L 893.1512235891321 656.7313942041179 L 893.2348333325581 656.8323637666023 L 893.316205363648 656.9337062362052 L 893.3953315452669 657.035411478764 L 893.4722039648624 657.1374693238392 L 893.5468149352565 657.2398695657315 L 893.6191569954146 657.3426019645019 L 893.6892229111908 657.4456562469962 L 893.7570056760518 657.5490221078719 L 893.8224985117778 657.6526892106292 L 893.8856948691396 657.7566471886441 L 893.9465884285544 657.8608856462056 L 894.0051731007168 657.9653941595546 L 894.0614430272084 658.070162277927 L 894.1153925810836 658.1751795245982 L 894.1670163674319 658.2804353979311 L 894.2163092239175 658.385919372426 L 894.2632662212961 658.4916208997735 L 894.307882663907 658.5975294099087 L 894.3501540901431 658.703634312069 L 894.3900762728969 658.8099249958527 L 894.4276452199836 658.9163908322798 L 894.4628571745395 659.0230211748556 L 894.4957086153988 659.1298053606345 L 894.5261962574448 659.2367327112869 L 894.5543170519385 659.3437925341669 L 894.5800681868238 659.4509741233817 L 894.603447087009 659.5582667608612 L 894.6244514146233 659.6656597174314 L 894.6430790692516 659.773142253886 L 894.6593281881438 659.8807036220611 L 894.6731971464018 659.9883330659093 L 894.684684557141 660.096019822576 L 894.6937892716302 660.2037531234753 L 894.7005103794054 660.3115221953667 L 894.7048472083613 660.4193162614331 L 894.7067993248189 660.5271245423576 M 894.7069203148749 694.8653929569181 L 894.7057278549712 694.9732035018347 L 894.7021505945052 695.0810032657866 L 894.6961888911999 695.1887814688874 L 894.6878433412205 695.2965273334065 L 894.6771147791153 695.4042300848472 L 894.6640042777315 695.511878953024 L 894.6485131481082 695.6194631731402 L 894.6306429393456 695.726971986863 L 894.6103954384496 695.8343946434007 L 894.5877726701534 695.9417204005774 L 894.562776896715 696.0489385259066 L 894.535410617691 696.1560382976652 L 894.5056765696864 696.2630090059653 L 894.4735777260813 696.3698399538251 L 894.4391172967332 696.476520458239 L 894.4022987276564 696.5830398512453 L 894.3631257006771 696.6893874809934 L 894.3216021330653 696.7955527128094 L 894.2777321771433 696.901524930258 L 894.2315202198699 697.0072935362061 L 894.1829708824026 697.1128479538813 L 894.1320890196346 697.2181776279295 L 894.0788797197097 697.3232720254714 L 894.0233483035134 697.4281206371546 L 893.9655003241414 697.5327129782055 L 893.9053415663433 697.6370385894769 L 893.8428780459446 697.7410870384947 L 893.7781160092454 697.8448479205008 L 893.7110619323954 697.9483108594935 L 893.6417225207465 698.051465509265 L 893.5701047081818 698.1543015544362 L 893.4962156564231 698.2568087114885 L 893.4200627543141 698.3589767297915 L 893.3416536170813 698.4607953926285 L 893.2609960855732 698.5622545182181 L 893.1780982254758 698.6633439607322 L 893.0929683265059 698.7640536113109 L 893.0056149015825 698.8643733990731 L 892.9160466859753 698.9642932921236 L 892.8242726364313 699.0638032985562 L 892.7303019302788 699.1628934674534 L 892.6341439645103 699.2615538898807 L 892.5358083548422 699.3597746998781 L 892.4353049347533 699.4575460754467 L 892.3326437545022 699.5548582395301 L 892.2278350801212 699.6517014609931 L 892.1208893923903 699.7480660555943 L 892.0118173857893 699.8439423869546 L 891.900629967428 699.9393208675206 L 891.7873382559554 700.0341919595238 L 891.6719535804485 700.128546175934 L 891.5544874792785 700.2223740814084 L 891.4349516989575 700.3156662932344 L 891.3133581929643 700.4084134822685 L 891.1897191205479 700.5006063738695 L 891.0640468455125 700.5922357488246 L 890.9363539349811 700.6832924442729 L 890.806653158138 700.7737673546208 L 890.6749574849531 700.8636514324525 L 890.5412800848839 700.9529356894351 L 890.4056343255589 701.0416111972174 L 890.2680337714411 701.1296690883225 L 890.1284921824712 701.2171005570348 L 889.9870235126918 701.3038968602801 L 889.8436419088521 701.3900493185005 L 889.6983617089929 701.4755493165218 L 889.5511974410131 701.5603883044157 L 889.402163821217 701.644557798354 L 889.251275752842 701.7280493814574 L 889.0985483245697 701.8108547046372 L 888.9439968090155 701.89296548743 L 888.787636661202 701.9743735188263 L 888.6294835170137 702.0550706580904 L 888.4695531916334 702.1350488355757 L 888.3078616779602 702.2143000535311 L 888.1444251450109 702.2928163869011 L 887.9792599363024 702.3705899841175 L 887.812382568218 702.4476130678855 L 887.6438097283556 702.523877935961 L 887.4735582738584 702.5993769619205 L 887.3016452297303 702.6741025959245 L 887.1280877871322 702.7480473654718 L 886.9529033016639 702.8212038761473 L 886.7761092916279 702.8935648123604 L 886.5977234362779 702.9651229380783 L 886.4177635740506 703.0358710975478 L 886.2362477007825 703.1058022160119 L 886.0531939679096 703.1749093004171 L 885.8686206806526 703.2431854401125 L 885.6825462961864 703.310623807541 L 885.4949894217945 703.3772176589222 L 885.3059688130078 703.4429603349263 L 885.1155033717299 703.5078452613405 L 884.9236121443461 703.5718659497264 L 884.7303143198193 703.6350159980684 L 884.5356292277708 703.6972890914142 L 884.3395763365476 703.7586790025065 L 884.1421752512754 703.8191795924052 L 883.9434457118983 703.8787848111019 L 883.7434075912046 703.9374886981243 L 883.5420808928396 703.9952853831326 L 883.3394857493056 704.0521690865065 L 883.1356424199478 704.1081341199231 L 882.9305712889295 704.1631748869256 L 882.7242928631928 704.2172858834833 L 882.5168277704084 704.2704616985416 L 882.3081967569127 704.3226970145631 L 882.0984206856333 704.37398660806 L 881.8875205340023 704.4243253501156 L 881.6755173918592 704.4737082068975 L 881.4624324593416 704.5221302401615 L 881.2482870447652 704.5695866077443 L 881.0331025624929 704.6160725640489 L 880.8169005307936 704.6615834605183 L 880.5997025696905 704.7061147461008 L 880.3815303987985 704.7496619677049 L 880.162405835153 704.7922207706448 L 879.9423507910276 704.8337868990757 L 879.7213872717435 704.8743561964194 L 879.4995373734686 704.9139246057798 L 879.2768232810075 704.9524881703492 L 879.053267265584 704.990043033803 L 878.8288916826136 705.0265854406864 L 878.6037189694673 705.062111736789 L 878.3777716432289 705.0966183695108 L 878.1510722984427 705.1301018882175 L 877.9236436048543 705.1625589445848 L 877.6955083051434 705.1939862929344 L 877.4666892126502 705.2243807905575 L 877.2372092090928 705.2537393980296 L 877.0070912422808 705.2820591795146 L 876.7763583238187 705.3093373030578 L 876.5450335268064 705.3355710408697 L 876.3131399835305 705.3607577695983 L 876.0807008831524 705.3848949705917 L 875.8477394693883 705.4079802301501 L 875.6142790381854 705.4300112397665 L 875.3803429353924 705.4509857963585 L 875.1459545544244 705.4709018024879 L 874.9111373339244 705.4897572665706 L 874.6759147554188 705.5075503030758 L 874.4403103409692 705.524279132715 L 874.2043476508209 705.539942082619 L 873.9680502810462 705.5545375865057 L 873.7314418611852 705.5680641848371 L 873.4945460518826 705.5805205249646 L 873.2573865425221 705.5919053612646 L 873.0199870488569 705.6022175552628 L 872.7823713106385 705.6114560757485 L 872.5445630892428 705.6196199988774 L 872.3065861652938 705.6267085082638 L 872.0684643362854 705.6327208950629 L 871.8302214142022 705.6376565580409 L 871.5918812231379 705.6415150036357 L 871.3534675969129 705.6442958460059 L 871.1150043766911 705.6459988070695 L 870.876515408596 705.646623716532 L 870.6380245413254 705.6461705119027 L 870.3995556237676 705.644639238502 L 870.1611325026154 705.6420300494558 L 869.9227790199824 705.6383432056807 L 869.684519011018 705.6335790758584 L 869.4463763015248 705.6277381363975 L 869.2083747055751 705.6208209713873 L 868.9705380231303 705.6128282725384 L 868.7328900376604 705.6037608391142 L 868.4954545137658 705.5936195778503 L 868.2582551948011 705.5824055028645 L 868.0213158005007 705.570119735555 L 867.7846600246064 705.5567635044881 L 867.5483115324986 705.542338145276 L 867.3122939588295 705.5268451004424 L 867.07663090516 705.510285919279 L 866.8413459375988 705.4926622576901 L 866.6064625844468 705.4739758780271 L 866.3720043338435 705.4542286489124 L 866.1379946314187 705.4334225450526 L 865.9044568779473 705.4115596470406 L 865.6714144270104 705.388642141148 L 865.4388905826587 705.3646723191064 L 865.2069085970828 705.3396525778779 L 864.9754916682882 705.3135854194159 L 864.7446629377747 705.2864734504143 L 864.5144454882231 705.2583193820477 L 864.2848623411866 705.2291260296993 L 864.0559364547883 705.19889631268 L 863.8276907214263 705.1676332539363 L 863.6001479654836 705.1353399797482 L 863.3733309410463 705.1020197194159 L 863.1472623296279 705.0676758049381 L 862.9219647379009 705.0323116706771 L 862.6974606954368 704.9959308530173 L 862.4737726524529 704.95853699001 L 862.250922977567 704.9201338210102 L 862.0289339555609 704.8807251863029 L 861.8078277851519 704.8403150267188 L 861.5876265767724 704.7989073832401 L 861.3683523503603 704.7565063965967 L 861.1500270331551 704.7131163068519 L 860.9326724575067 704.6687414529786 L 860.7163103586917 704.623386272425 L 860.5009623727393 704.5770553006715 L 860.2866500342691 704.5297531707766 L 860.073394774336 704.4814846129141 L 859.8612179182885 704.4322544538993 L 859.6501406836352 704.3820676167071 L 859.4401841779238 704.3309291199795 L 859.2313693966299 704.2788440775234 L 859.0237172210576 704.2258176977999 L 858.8172484162515 704.1718552834027 L 858.6119836289198 704.1169622305281 L 858.4079433853703 704.0611440284357 L 858.2051480894573 704.0044062588994 L 858.0036180205416 703.9467545956486 L 857.8033733314619 703.8881948038018 L 857.6044340465203 703.8287327392892 L 857.4068200594795 703.7683743482678 L 857.2105511315737 703.7071256665264 L 857.0156468895318 703.6449928188821 L 856.8221268236159 703.5819820185679 L 856.6300102856711 703.5180995666115 L 856.4393164871914 703.4533518512045 L 856.2500644973974 703.3877453470648 L 856.0622732413304 703.3212866147879 L 855.8759614979598 703.2539823001919 L 855.6911478983044 703.1858391336519 L 855.5078509235703 703.1168639294281 L 855.3260889033022 703.0470635849831 L 855.1458800135506 702.9764450802934 L 854.9672422750543 702.9050154771505 L 854.7901935514384 702.8327819184552 L 854.6147515474275 702.7597516275033 L 854.4409338070761 702.685931907263 L 854.2687577120132 702.6113301396447 L 854.0982404797048 702.535953784763 L 853.9293991617322 702.4598103801907 L 853.7622506420863 702.3829075402047 L 853.59681163548 702.3052529550249 L 853.4330986856758 702.2268543900452 L 853.2711281638325 702.1477196850568 L 853.1109162668672 702.0678567534641 L 852.952479015836 701.9872735814937 L 852.7958322543323 701.9059782273958 L 852.6409916469014 701.823978820638 L 852.487972677475 701.7412835610926 L 852.3367906478228 701.6579007182168 L 852.1874606760215 701.573838630225 L 852.039997694944 701.4891057032564 L 851.8944164507654 701.403710410533 L 851.750731501489 701.3176612915126 L 851.6089572154898 701.2309669510358 L 851.4691077700784 701.1436360584642 L 851.3311971500826 701.0556773468142 L 851.1952391464496 700.9670996118838 L 851.0612473548665 700.8779117113726 L 850.9292351744008 700.7881225639965 L 850.7992158061604 700.6977411485951 L 850.6712022519739 700.6067765032349 L 850.54520731309 700.5152377243046 L 850.4212435888977 700.4231339656056 L 850.299323475666 700.3304744374373 L 850.1794591653046 700.2372684056751 L 850.0616626441447 700.1435251908446 L 849.9459456917402 700.0492541671891 L 849.83231987969 699.9544647617325 L 849.7207965704806 699.8591664533362 L 849.6113869163499 699.7633687717519 L 849.5041018581722 699.6670812966677 L 849.398952124364 699.5703136567508 L 849.295948229811 699.4730755286847 L 849.1951004748166 699.3753766362012 L 849.0964189440725 699.2772267491081 L 848.9999135056496 699.1786356823122 L 848.9055938100112 699.0796132948382 L 848.8134692890482 698.9801694888422 L 848.723549155136 698.880314208622 L 848.635842400213 698.7800574396224 L 848.5503577948817 698.6794092074367 L 848.4671038875315 698.5783795768043 L 848.3860890034834 698.4769786506041 L 848.3073212441586 698.375216568844 L 848.2308084862674 698.2731035076478 L 848.1565583810216 698.1706496782361 L 848.08457835337 698.0678653259067 L 848.0148756012553 697.9647607290092 L 847.9474570948948 697.8613461979172 L 847.8823295760828 697.7576320739977 L 847.8194995575169 697.6536287285768 L 847.7589733221467 697.5493465619021 L 847.7007569225452 697.4447960021037 L 847.644856180304 697.3399875041501 L 847.5912766854506 697.234931548804 L 847.5400237958897 697.1296386415734 L 847.4911026368679 697.024119311661 L 847.4445181004601 696.9183841109123 L 847.4002748450812 696.8124436127588 L 847.3583772950197 696.7063084111624 L 847.318829639996 696.5999891195546 L 847.2816358347424 696.493496369776 L 847.2467995986085 696.3868408110129 L 847.2143244151888 696.2800331087324 L 847.1842135319748 696.1730839436154 L 847.1564699600295 696.0660040104896 L 847.1310964736872 695.9588040172588 L 847.1080956102752 695.8514946838332 L 847.0874696698608 695.7440867410567 L 847.0692207150206 695.6365909296339 L 847.0533505706352 695.5290179990567 L 847.0398608237057 695.4213787065281 L 847.0287528231954 695.313683815888 L 847.0200276798954 695.2059440965355 L 847.0136862663124 695.0981703223529 L 847.0097292165829 694.9903732706276 L 847.0081569264081 694.8825637209752" stroke-miterlimit="10" stroke-width="2.7769845610000004" stroke-dasharray=""/></g><g><g/><text fill="black" stroke="none" font-family="sans-serif" font-size="11pt" font-style="normal" font-weight="normal" text-decoration="normal" x="839.4795785505859" y="643.2951561388181" text-anchor="start" dominant-baseline="alphabetic" xml:space="preserve">Database</text></g></g><g><path fill="white" stroke="black" paint-order="fill stroke markers" d=" M 28.528976440429688 182.64242307881818 L 44.86417974042969 182.64242307881818 L 44.86417974042969 569.7867412888181 L 28.528976440429688 569.7867412888181 L 28.528976440429688 182.64242307881818" stroke-miterlimit="10" stroke-width="1.3612669416666667" stroke-dasharray=""/><path fill="white" stroke="black" paint-order="fill stroke markers" d=" M 436.9572078356771 182.64242307881818 L 453.29241113567707 182.64242307881818 L 453.29241113567707 569.7867412888181 L 436.9572078356771 569.7867412888181 L 436.9572078356771 182.64242307881818" stroke-miterlimit="10" stroke-width="1.3612669416666667" stroke-dasharray=""/><path fill="white" stroke="black" paint-order="fill stroke markers" d=" M 668.0268576879556 319.8581307988182 L 684.3620609879557 319.8581307988182 L 684.3620609879557 524.0481720488182 L 668.0268576879556 524.0481720488182 L 668.0268576879556 319.8581307988182" stroke-miterlimit="10" stroke-width="1.3612669416666667" stroke-dasharray=""/><path fill="white" stroke="black" paint-order="fill stroke markers" d=" M 862.6899218468749 365.5967000388182 L 879.025125146875 365.5967000388182 L 879.025125146875 478.30960280881817 L 862.6899218468749 478.30960280881817 L 862.6899218468749 365.5967000388182" stroke-miterlimit="10" stroke-width="1.3612669416666667" stroke-dasharray=""/><g><text fill="black" stroke="none" font-family="sans-serif" font-size="16pt" font-style="normal" font-weight="normal" text-decoration="normal" x="420.9044723510742" y="24.651306798181814" text-anchor="start" dominant-baseline="alphabetic" xml:space="preserve">Tomihpng</text></g><g><rect fill="white" stroke="none" x="139.09751351277995" y="161.4066587888182" width="203.62636055054688" height="21.23576429"/><text fill="black" stroke="none" font-family="sans-serif" font-size="11pt" font-style="normal" font-weight="normal" text-decoration="normal" x="141.54779400777994" y="176.10834175881817" text-anchor="start" dominant-baseline="alphabetic" xml:space="preserve">Chnphngcntohpng</text></g><g><path fill="none" stroke="black" paint-order="fill stroke markers" d=" M 44.86417974042969 182.64242307881818 L 423.50789045201043 182.64242307881818" stroke-miterlimit="10" stroke-width="1.3612669416666667" stroke-dasharray=""/><g transform="translate(436.9572078356771,182.64242307881818) translate(-436.9572078356771,-182.64242307881818)"><path fill="black" stroke="none" paint-order="stroke fill markers" d=" M 423.3445384190104 175.83608837048484 L 436.9572078356771 182.64242307881818 L 423.3445384190104 189.44875778715152 Z"/></g></g><g><rect fill="white" stroke="none" x="115.0710395137565" y="207.1452280288182" width="251.67930854859375" height="21.23576429"/><text fill="black" stroke="none" font-family="sans-serif" font-size="11pt" font-style="normal" font-weight="normal" text-decoration="normal" x="117.5213200087565" y="221.84691099881817" text-anchor="start" dominant-baseline="alphabetic" xml:space="preserve">Hinthformnhpthngtinhpng</text></g><g><path fill="none" stroke="black" paint-order="fill stroke markers" d=" M 436.9572078356771 228.3809923188182 L 58.31349712409636 228.3809923188182" stroke-miterlimit="10" stroke-width="1.3612669416666667" stroke-dasharray=""/><g transform="translate(44.86417974042969,228.3809923188182) translate(-44.86417974042969,-228.3809923188182)"><path fill="black" stroke="none" paint-order="stroke fill markers" d=" M 58.47684915709636 221.57465761048485 L 44.86417974042969 228.3809923188182 L 58.47684915709636 235.18732702715153 Z"/></g></g><g><rect fill="white" stroke="none" x="64.19417031209635" y="252.88379726881823" width="353.4330622107031" height="21.23576429"/><text fill="black" stroke="none" font-family="sans-serif" font-size="11pt" font-style="normal" font-weight="normal" text-decoration="normal" x="66.64445080709635" y="267.5854802388182" text-anchor="start" dominant-baseline="alphabetic" xml:space="preserve">Chnmuhpngvinccthngtinngithu</text></g><g><path fill="none" stroke="black" paint-order="fill stroke markers" d=" M 44.86417974042969 274.1195615588182 L 423.50789045201043 274.1195615588182" stroke-miterlimit="10" stroke-width="1.3612669416666667" stroke-dasharray=""/><g transform="translate(436.9572078356771,274.1195615588182) translate(-436.9572078356771,-274.1195615588182)"><path fill="black" stroke="none" paint-order="stroke fill markers" d=" M 423.3445384190104 267.31322685048485 L 436.9572078356771 274.1195615588182 L 423.3445384190104 280.92589626715153 Z"/></g></g><g><rect fill="white" stroke="none" x="498.6997103621288" y="298.6223665088182" width="123.919848099375" height="21.23576429"/><text fill="black" stroke="none" font-family="sans-serif" font-size="11pt" font-style="normal" font-weight="normal" text-decoration="normal" x="501.14999085712884" y="313.32404947881815" text-anchor="start" dominant-baseline="alphabetic" xml:space="preserve">Xcthcthngtin</text></g><g><path fill="none" stroke="black" paint-order="fill stroke markers" d=" M 453.29241113567707 319.8581307988182 L 654.577540304289 319.8581307988182" stroke-miterlimit="10" stroke-width="1.3612669416666667" stroke-dasharray=""/><g transform="translate(668.0268576879556,319.8581307988182) translate(-668.0268576879556,-319.8581307988182)"><path fill="black" stroke="none" paint-order="stroke fill markers" d=" M 654.4141882712889 313.05179609048486 L 668.0268576879556 319.8581307988182 L 654.4141882712889 326.66446550715153 Z"/></g></g><g><rect fill="white" stroke="none" x="726.6447950898958" y="344.3609357488182" width="93.76239265503906" height="21.23576429"/><text fill="black" stroke="none" font-family="sans-serif" font-size="11pt" font-style="normal" font-weight="normal" text-decoration="normal" x="729.0950755848958" y="359.06261871881816" text-anchor="start" dominant-baseline="alphabetic" xml:space="preserve">Githngtin</text></g><g><path fill="none" stroke="black" paint-order="fill stroke markers" d=" M 684.3620609879557 365.5967000388182 L 849.2406044632082 365.5967000388182" stroke-miterlimit="10" stroke-width="1.3612669416666667" stroke-dasharray=""/><g transform="translate(862.6899218468749,365.5967000388182) translate(-862.6899218468749,-365.5967000388182)"><path fill="black" stroke="none" paint-order="stroke fill markers" d=" M 849.0772524302082 358.79036533048486 L 862.6899218468749 365.5967000388182 L 849.0772524302082 372.40303474715154 Z"/></g></g><g><rect fill="white" stroke="none" x="898.3551157185417" y="390.0995049888182" width="114.17755378785156" height="21.23576429"/><text fill="black" stroke="none" font-family="sans-serif" font-size="11pt" font-style="normal" font-weight="normal" text-decoration="normal" x="900.8053962135417" y="404.80118795881816" text-anchor="start" dominant-baseline="alphabetic" xml:space="preserve">Lutrthngtin</text></g><g><path fill="none" stroke="black" paint-order="fill stroke markers" d=" M 879.025125146875 411.33526927881815 L 944.3659383468749 411.33526927881815 L 944.3659383468749 432.57103356881817 L 892.4744425305416 432.57103356881817" stroke-miterlimit="10" stroke-width="1.3612669416666667" stroke-dasharray=""/><g transform="translate(879.025125146875,432.57103356881817) translate(-879.025125146875,-432.57103356881817)"><path fill="black" stroke="none" paint-order="stroke fill markers" d=" M 892.6377945635417 425.7646988604848 L 879.025125146875 432.57103356881817 L 892.6377945635417 439.3773682771515 Z"/></g></g><g><rect fill="white" stroke="none" x="703.6920515596223" y="457.07383851881815" width="139.66787971558594" height="21.23576429"/><text fill="black" stroke="none" font-family="sans-serif" font-size="11pt" font-style="normal" font-weight="normal" text-decoration="normal" x="706.1423320546223" y="471.77552148881813" text-anchor="start" dominant-baseline="alphabetic" xml:space="preserve">Trvdliuto</text></g><g><path fill="none" stroke="black" paint-order="fill stroke markers" d=" M 862.6899218468749 478.30960280881817 L 697.8113783716224 478.30960280881817" stroke-miterlimit="10" stroke-width="1.3612669416666667" stroke-dasharray=""/><g transform="translate(684.3620609879557,478.30960280881817) translate(-684.3620609879557,-478.30960280881817)"><path fill="black" stroke="none" paint-order="stroke fill markers" d=" M 697.9747304046224 471.50326810048483 L 684.3620609879557 478.30960280881817 L 697.9747304046224 485.1159375171515 Z"/></g></g><g><rect fill="white" stroke="none" x="472.62240170734367" y="502.81240775881815" width="176.07446540894531" height="21.23576429"/><text fill="black" stroke="none" font-family="sans-serif" font-size="11pt" font-style="normal" font-weight="normal" text-decoration="normal" x="475.0726822023437" y="517.5140907288181" text-anchor="start" dominant-baseline="alphabetic" xml:space="preserve">Thngbotothnhcng</text></g><g><path fill="none" stroke="black" paint-order="fill stroke markers" d=" M 668.0268576879556 524.0481720488182 L 466.7417285193437 524.0481720488182" stroke-miterlimit="10" stroke-width="1.3612669416666667" stroke-dasharray=""/><g transform="translate(453.29241113567707,524.0481720488182) translate(-453.29241113567707,-524.0481720488182)"><path fill="black" stroke="none" paint-order="stroke fill markers" d=" M 466.90508055234375 517.2418373404848 L 453.29241113567707 524.0481720488182 L 466.90508055234375 530.8545067571515 Z"/></g></g><g><rect fill="white" stroke="none" x="66.63153298299478" y="548.5509769988181" width="348.5583368689062" height="21.23576429"/><text fill="black" stroke="none" font-family="sans-serif" font-size="11pt" font-style="normal" font-weight="normal" text-decoration="normal" x="69.08181347799479" y="563.2526599688181" text-anchor="start" dominant-baseline="alphabetic" xml:space="preserve">Thngbotothnhcng,chngithuxcnhn</text></g><g><path fill="none" stroke="black" paint-order="fill stroke markers" d=" M 436.9572078356771 569.7867412888181 L 58.31349712409636 569.7867412888181" stroke-miterlimit="10" stroke-width="1.3612669416666667" stroke-dasharray=""/><g transform="translate(44.86417974042969,569.7867412888181) translate(-44.86417974042969,-569.7867412888181)"><path fill="black" stroke="none" paint-order="stroke fill markers" d=" M 58.47684915709636 562.9804065804848 L 44.86417974042969 569.7867412888181 L 58.47684915709636 576.5930759971515 Z"/></g></g></g><g/><g/><g/><g/></g></svg>