<svg xmlns="http://www.w3.org/2000/svg" xmlns:xlink="http://www.w3.org/1999/xlink" version="1.1" width="975.3438059902344" height="830.333233923818"><desc>title%20T%E1%BA%A1o%20d%E1%BB%8Bch%20v%E1%BB%A5%20theo%20nh%C3%A0%0A%0Abottomparticipants%20%0A%0Aactor%20Landlord%0Aentity%20Client%0Aentity%20Backend%0Adatabase%20Database%0A%0ALandlord%20-%3E%20Client%3A%20Ch%E1%BB%8Dn%20nh%C3%A0%20v%C3%A0%20nh%E1%BA%ADp%20th%C3%B4ng%20tin%20d%E1%BB%8Bch%20v%E1%BB%A5%0Aactivate%20Landlord%0Aactivate%20Client%0A%0AClient%20-%3E%20Backend%3A%20G%E1%BB%ADi%20th%C3%B4ng%20tin%20nh%C3%A0%20v%C3%A0%20d%E1%BB%8Bch%20v%E1%BB%A5%0Aactivate%20Backend%0A%0ABackend%20-%3E%20Backend%3A%20Ki%E1%BB%83m%20tra%20quy%E1%BB%81n%0Aalt%20Quy%E1%BB%81n%20h%E1%BB%A3p%20l%E1%BB%87%0A%20%20%20%20Backend%20-%3E%20Database%3A%20Th%C3%AAm%20d%E1%BB%8Bch%20v%E1%BB%A5%20m%E1%BB%9Bi%20cho%20nh%C3%A0%0A%20%20%20%20Database%20--%3E%20Backend%3A%20X%C3%A1c%20nh%E1%BA%ADn%20t%E1%BA%A1o%20d%E1%BB%8Bch%20v%E1%BB%A5%20th%C3%A0nh%20c%C3%B4ng%0A%20%20%20%20Backend%20--%3E%20Client%3A%20Th%C3%B4ng%20b%C3%A1o%20d%E1%BB%8Bch%20v%E1%BB%A5%20%C4%91%C3%A3%20%C4%91%C6%B0%E1%BB%A3c%20t%E1%BA%A1o%0A%20%20%20%20Client%20--%3E%20Landlord%3A%20Hi%E1%BB%83n%20th%E1%BB%8B%20th%C3%B4ng%20b%C3%A1o%20th%C3%A0nh%20c%C3%B4ng%0Aelse%20Quy%E1%BB%81n%20kh%C3%B4ng%20h%E1%BB%A3p%20l%E1%BB%87%0A%20%20%20%20Backend%20--%3E%20Client%3A%20Th%C3%B4ng%20b%C3%A1o%20l%E1%BB%97i%20quy%E1%BB%81n%20truy%20c%E1%BA%ADp%0A%20%20%20%20Client%20--%3E%20Landlord%3A%20Hi%E1%BB%83n%20th%E1%BB%8B%20th%C3%B4ng%20b%C3%A1o%20th%E1%BA%A5t%20b%E1%BA%A1i%0Aend%0A%0Adeactivate%20Backend%0Adeactivate%20Client%0Adeactivate%20Landlord%0A</desc><defs/><g><g/><g/><g/><g/><g/><g/><g/><g/><g/><g/><g/><g/><g/><g/><g/><g/><g/><g/><g/><g/><g/><g/><g/><g/><g/><g/><g/><g/><g/><g/><g/><g/><g/><g/><g/><g/><g/><g/><g/><g/><g/><g/><g/><g/><g/><g/><g/><g/><g/><g/><g/><g/><g/><g/><g/><g/><g/><g/><g/><g/><g/><g/><g/><g/><g/><g/><g/><g/><g/><g/><g/><g/><g/><g/><g/><g/><g/><g/><g/><g/><g/><g/><g/><g/><g/><g/><g/><g/><g/><g/><g/><g/><g/><g/><g/><g/><g/><g/><g/><g/><g/><g/><g/><g/><g/><g/><g/><g/><g/><g/><g/><g/><g/><g/><g/><g/><g/><g/><g/><g/><g/><g/><g><rect fill="white" stroke="none" x="0" y="0" width="975" height="830"/></g><g/><g><path fill="none" stroke="black" paint-order="fill stroke markers" d=" M 81.67601649999999 128.73625218881818 L 81.67601649999999 739.672855608818" stroke-miterlimit="10" stroke-width="1.3612669416666667" stroke-dasharray="12.565541,5.445067766666667"/><path fill="none" stroke="black" paint-order="fill stroke markers" d=" M 372.23023971653646 128.73625218881818 L 372.23023971653646 739.672855608818" stroke-miterlimit="10" stroke-width="1.3612669416666667" stroke-dasharray="12.565541,5.445067766666667"/><path fill="none" stroke="black" paint-order="fill stroke markers" d=" M 636.564019207487 128.73625218881818 L 636.564019207487 739.672855608818" stroke-miterlimit="10" stroke-width="1.3612669416666667" stroke-dasharray="12.565541,5.445067766666667"/><path fill="none" stroke="black" paint-order="fill stroke markers" d=" M 901.8353911402344 128.73625218881818 L 901.8353911402344 739.672855608818" stroke-miterlimit="10" stroke-width="1.3612669416666667" stroke-dasharray="12.565541,5.445067766666667"/></g><g><g><path fill="white" stroke="black" paint-order="fill stroke markers" d=" M 90.987082381 59.63834222981819 A 9.311065881 9.311065881 0 1 1 90.98707772546743 59.62903116548903 M 81.67601649999999 68.9494081108182 L 81.67601649999999 88.8783561368182 M 69.914670124 76.13689756281819 L 93.43736287599998 76.13689756281819 M 81.67601649999999 88.8783561368182 L 69.914670124 107.50048789881819 M 81.67601649999999 88.8783561368182 L 93.43736287599998 107.50048789881819" stroke-miterlimit="10" stroke-width="2.7769845610000004" stroke-dasharray=""/></g><g><g/><text fill="black" stroke="none" font-family="sans-serif" font-size="11pt" font-style="normal" font-weight="normal" text-decoration="normal" x="53.1470400595703" y="123.83569119881818" text-anchor="start" dominant-baseline="alphabetic" xml:space="preserve">Landlord</text></g><g><path fill="white" stroke="black" paint-order="fill stroke markers" d=" M 396.48801661703646 79.63263106901819 A 24.2577769005 24.2577769005 0 1 1 396.48800448814904 79.60837329616064 M 346.5839705355365 106.11199561831819 L 397.87650889753644 106.11199561831819" stroke-miterlimit="10" stroke-width="2.7769845610000004" stroke-dasharray=""/></g><g><g/><text fill="black" stroke="none" font-family="sans-serif" font-size="11pt" font-style="normal" font-weight="normal" text-decoration="normal" x="353.4900892648763" y="123.83569119881818" text-anchor="start" dominant-baseline="alphabetic" xml:space="preserve">Client</text></g><g><path fill="white" stroke="black" paint-order="fill stroke markers" d=" M 660.821796107987 79.63263106901819 A 24.2577769005 24.2577769005 0 1 1 660.8217839790996 79.60837329616064 M 610.917750026487 106.11199561831819 L 662.210288388487 106.11199561831819" stroke-miterlimit="10" stroke-width="2.7769845610000004" stroke-dasharray=""/></g><g><g/><text fill="black" stroke="none" font-family="sans-serif" font-size="11pt" font-style="normal" font-weight="normal" text-decoration="normal" x="608.0386209530925" y="123.83569119881818" text-anchor="start" dominant-baseline="alphabetic" xml:space="preserve">Backend</text></g><g><path fill="white" stroke="black" paint-order="fill stroke markers" d=" M 877.9859943222344 96.71925372081819 L 877.9859943222344 62.41532679081819 L 925.6847879582343 62.41532679081819 L 925.6847879582343 96.71925372081819" stroke-miterlimit="10" stroke-width="2.7769845610000004" stroke-dasharray=""/><path fill="white" stroke="black" paint-order="fill stroke markers" d=" M 925.6847879582343 61.22285694991819 L 925.6835954983306 61.33066749483481 L 925.6800182378646 61.43846725878678 L 925.6740565345593 61.546245461887544 L 925.66571098458 61.65399132640659 L 925.6549824224747 61.761694077847274 L 925.6418719210909 61.86934294602419 L 925.6263807914677 61.976927166140236 L 925.6085105827051 62.084435979863045 L 925.588263081809 62.19185863640084 L 925.5656403135129 62.299184393577484 L 925.5406445400745 62.4064025189067 L 925.5132782610505 62.51350229066531 L 925.4835442130459 62.62047299896537 L 925.4514453694408 62.7273039468252 L 925.4169849400927 62.83398445123905 L 925.3801663710159 62.94050384424536 L 925.3409933440365 63.04685147399361 L 925.2994697764248 63.15301670580944 L 925.2555998205028 63.25898892325815 L 925.2093878632294 63.364757529206294 L 925.1608385257621 63.47031194688142 L 925.109956662994 63.575641620929716 L 925.0567473630691 63.68073601847156 L 925.0012159468729 63.78558463015478 L 924.9433679675009 63.89017697120557 L 924.8832092097027 63.994502582477 L 924.8207456893041 64.09855103149486 L 924.7559836526049 64.20231191350096 L 924.6889295757549 64.3057748524936 L 924.619590164106 64.40892950226505 L 924.5479723515413 64.51176554743633 L 924.4740832997826 64.61427270448858 L 924.3979303976736 64.71644072279157 L 924.3195212604408 64.81825938562858 L 924.2388637289326 64.91971851121816 L 924.1559658688352 65.02080795373233 L 924.0708359698654 65.12151760431107 L 923.9834825449419 65.22183739207324 L 923.8939143293347 65.32175728512367 L 923.8021402797907 65.42126729155632 L 923.7081695736383 65.52035746045347 L 923.6120116078697 65.6190178828808 L 923.5136759982016 65.71723869287828 L 923.4131725781128 65.81501006844678 L 923.3105113978617 65.91232223253022 L 923.2057027234806 66.00916545399325 L 923.0987570357497 66.10553004859446 L 922.9896850291487 66.20140637995469 L 922.8784976107875 66.29678486052069 L 922.7652058993149 66.39165595252388 L 922.649821223808 66.48601016893414 L 922.5323551226379 66.57983807440844 L 922.412819342317 66.67313028623443 L 922.2912258363237 66.76587747526865 L 922.1675867639074 66.85807036686953 L 922.041914488872 66.94969974182469 L 921.9142215783405 67.04075643727302 L 921.7845208014975 67.13123134762085 L 921.6528251283125 67.22111542545254 L 921.5191477282433 67.3103996824352 L 921.3835019689184 67.39907519021754 L 921.2459014148005 67.4871330813227 L 921.1063598258306 67.57456455003492 L 920.9648911560513 67.6613608532802 L 920.8215095522115 67.74751331150055 L 920.6762293523524 67.83301330952195 L 920.5290650843725 67.91785229741582 L 920.3800314645764 68.00202179135408 L 920.2291433962015 68.08551337445749 L 920.0764159679292 68.1683186976373 L 919.9218644523748 68.25042948043021 L 919.7655043045614 68.33183751182635 L 919.6073511603731 68.41253465109044 L 919.4474208349928 68.4925128285758 L 919.2857293213196 68.5717640465313 L 919.1222927883704 68.65028037990122 L 918.9571275796618 68.72805397711764 L 918.7902502115775 68.80507706088565 L 918.621677371715 68.88134192896105 L 918.4514259172179 68.95684095492061 L 918.2795128730897 69.03156658892462 L 918.1059554304917 69.10551135847197 L 917.9307709450234 69.17866786914732 L 917.7539769349873 69.25102880536058 L 917.5755910796373 69.3225869310784 L 917.39563121741 69.39333509054786 L 917.214115344142 69.46326620901198 L 917.031061611269 69.53237329341717 L 916.8464883240121 69.60064943311258 L 916.6604139395458 69.66808780054113 L 916.4728570651539 69.7346816519223 L 916.2838364563672 69.80042432792644 L 916.0933710150894 69.86530925434072 L 915.9014797877055 69.92932994272657 L 915.7081819631787 69.9924799910685 L 915.5134968711302 70.05475308441433 L 915.317443979907 70.1161429955066 L 915.1200428946348 70.17664358540536 L 914.9213133552578 70.23624880410202 L 914.721275234564 70.29495269112441 L 914.5199485361991 70.35274937613272 L 914.317353392665 70.40963307950663 L 914.1135100633072 70.46559811292322 L 913.908438932289 70.52063887992576 L 913.7021605065522 70.57474987648341 L 913.4946954137679 70.62792569154163 L 913.2860644002722 70.68016100756323 L 913.0762883289927 70.73145060106012 L 912.8653881773618 70.78178934311569 L 912.6533850352187 70.8311721998977 L 912.440300102701 70.8795942331616 L 912.2261546881247 70.92705060074444 L 912.0109702058523 70.973536557049 L 911.7947681741531 71.01904745351838 L 911.57757021305 71.06357873910088 L 911.359398042158 71.10712596070502 L 911.1402734785124 71.14968476364494 L 910.920218434387 71.19125089207583 L 910.699254915103 71.23182018941947 L 910.477405016828 71.27138859877994 L 910.254690924367 71.30995216334925 L 910.0311349089435 71.34750702680313 L 909.8067593259731 71.38404943368649 L 909.5815866128268 71.4195757297891 L 909.3556392865884 71.45408236251096 L 909.1289399418022 71.48756588121756 L 908.9015112482138 71.52002293758491 L 908.6733759485029 71.55145028593446 L 908.4445568560096 71.58184478355753 L 908.2150768524523 71.61120339102969 L 907.9849588856403 71.63952317251467 L 907.7542259671782 71.66680129605793 L 907.5229011701658 71.69303503386982 L 907.29100762689 71.71822176259843 L 907.0585685265119 71.7423589635919 L 906.8256071127478 71.7654442231502 L 906.5921466815448 71.78747523276665 L 906.3582105787518 71.80844978935863 L 906.1238221977839 71.82836579548797 L 905.8890049772839 71.84722125957065 L 905.6537823987783 71.86501429607597 L 905.4181779843286 71.8817431257151 L 905.1822152941803 71.89740607561903 L 904.9459179244056 71.91200157950583 L 904.7093095045446 71.92552817783725 L 904.472413695242 71.93798451796474 L 904.2352541858816 71.94936935426468 L 903.9978546922164 71.95968154826289 L 903.7602389539979 71.96892006874862 L 903.5224307326023 71.97708399187748 L 903.2844538086532 71.98417250126396 L 903.0463319796448 71.99018488806304 L 902.8080890575617 71.99512055104105 L 902.5697488664973 71.99897899663581 L 902.3313352402723 72.00175983900598 L 902.0928720200505 72.00346280006961 L 901.8543830519554 72.00408770953204 L 901.6158921846849 72.00363450490285 L 901.377423267127 72.0021032315021 L 901.1390001459748 71.99949404245586 L 900.9006466633418 71.9958071986809 L 900.6623866543774 71.99104306885846 L 900.4242439448842 71.98520212939759 L 900.1862423489346 71.97828496438737 L 899.9484056664897 71.97029226553852 L 899.7107576810198 71.96122483211428 L 899.4733221571253 71.95108357085043 L 899.2361228381606 71.93986949586466 L 898.9991834438601 71.92758372855508 L 898.7625276679659 71.91422749748824 L 898.526179175858 71.89980213827607 L 898.290161602189 71.8843090934425 L 898.0544985485194 71.86774991227908 L 897.8192135809583 71.85012625069015 L 897.5843302278063 71.83143987102717 L 897.349871977203 71.81169264191253 L 897.1158622747781 71.79088653805269 L 896.8823245213067 71.7690236400407 L 896.6492820703698 71.74610613414815 L 896.4167582260181 71.72213631210651 L 896.1847762404423 71.69711657087802 L 895.9533593116477 71.67104941241597 L 895.7225305811342 71.64393744341446 L 895.4923131315826 71.6157833750478 L 895.262729984546 71.58659002269937 L 895.0338040981477 71.55636030568009 L 894.8055583647857 71.52509724693644 L 894.5780156088431 71.49280397274828 L 894.3511985844058 71.45948371241609 L 894.1251299729873 71.42513979793813 L 893.8998323812604 71.38977566367726 L 893.6753283387962 71.35339484601741 L 893.4516402958124 71.31600098301004 L 893.2287906209265 71.27759781401028 L 893.0068015989203 71.23818917930303 L 892.7856954285113 71.19777901971894 L 892.5654942201319 71.15637137624027 L 892.3462199937197 71.11397038959687 L 892.1278946765145 71.07058029985207 L 891.9105401008661 71.02620544597868 L 891.6941780020511 70.98085026542512 L 891.4788300160988 70.93451929367163 L 891.2645176776285 70.8872171637768 L 891.0512624176954 70.8389486059142 L 890.839085561648 70.78971844689937 L 890.6280083269946 70.7395316097072 L 890.4180518212833 70.6883931129796 L 890.2092370399894 70.6363080705236 L 890.001584864417 70.58328169080006 L 889.7951160596109 70.52931927640276 L 889.5898512722792 70.47442622352818 L 889.3858110287298 70.41860802143584 L 889.1830157328168 70.36187025189946 L 888.981485663901 70.3042185886487 L 888.7812409748213 70.24565879680183 L 888.5823016898797 70.18619673228926 L 888.384687702839 70.12583834126788 L 888.1884187749331 70.06458965952649 L 887.9935145328913 70.00245681188221 L 887.7999944669754 69.93944601156807 L 887.6078779290306 69.87556355961155 L 887.4171841305508 69.81081584420461 L 887.2279321407568 69.74520934006487 L 887.0401408846899 69.67875060778805 L 886.8538291413192 69.61144629319199 L 886.6690155416638 69.54330312665208 L 886.4857185669298 69.47432792242817 L 886.3039565466615 69.40452757798322 L 886.12374765691 69.3339090732935 L 885.9451099184138 69.26247947015062 L 885.7680611947978 69.19024591145539 L 885.592619190787 69.11721562050347 L 885.4188014504356 69.0433959002631 L 885.2466253553727 68.96879413264479 L 885.0761081230643 68.89341777776313 L 884.9072668050917 68.81727437319081 L 884.7401182854458 68.74037153320482 L 884.5746792788394 68.66271694802508 L 884.4109663290352 68.58431838304537 L 884.2489958071919 68.5051836780569 L 884.0887839102267 68.4253207464642 L 883.9303466591955 68.34473757449386 L 883.7736998976917 68.26344222039596 L 883.6188592902608 68.18144281363814 L 883.4658403208346 68.09874755409275 L 883.3146582911822 68.01536471121685 L 883.1653283193809 67.9313026232252 L 883.0178653383034 67.84656969625658 L 882.8722840941249 67.76117440353308 L 882.7285991448484 67.67512528451279 L 882.5868248588492 67.5884309440359 L 882.4469754134378 67.50110005146425 L 882.3090647934421 67.41314133981427 L 882.173106789809 67.32456360488388 L 882.039114998226 67.23537570437271 L 881.9071028177602 67.14558655699653 L 881.7770834495199 67.05520514159522 L 881.6490698953334 66.96424049623502 L 881.5230749564495 66.87270171730466 L 881.3991112322572 66.78059795860575 L 881.2771911190255 66.68793843043741 L 881.157326808664 66.59473239867523 L 881.0395302875041 66.50098918384472 L 880.9238133350997 66.40671816018926 L 880.8101875230494 66.31192875473263 L 880.6986642138401 66.2166304463364 L 880.5892545597094 66.120832764752 L 880.4819695015317 66.02454528966774 L 880.3768197677234 65.92777764975091 L 880.2738158731704 65.83053952168484 L 880.1729681181761 65.73284062920132 L 880.074286587432 65.63469074210818 L 879.977781149009 65.53609967531233 L 879.8834614533706 65.4370772878383 L 879.7913369324076 65.33763348184232 L 879.7014167984954 65.23777820162212 L 879.6137100435725 65.13752143262249 L 879.5282254382412 65.03687320043682 L 879.4449715308909 64.93584356980442 L 879.3639566468429 64.83444264360419 L 879.2851888875181 64.73268056184422 L 879.2086761296268 64.63056750064791 L 879.134426024381 64.52811367123628 L 879.0624459967295 64.42532931890689 L 878.9927432446148 64.32222472200931 L 878.9253247382543 64.21881019091732 L 878.8601972194423 64.11509606699785 L 878.7973672008764 64.01109272157687 L 878.7368409655062 63.90681055490224 L 878.6786245659047 63.80225999510374 L 878.6227238236635 63.697451497150205 L 878.56914432881 63.59239554180411 L 878.5178914392492 63.48710263457343 L 878.4689702802274 63.381583304661156 L 878.4223857438195 63.27584810391234 L 878.3781424884406 63.16990760575894 L 878.3362449383792 63.06377240416249 L 878.2966972833555 62.95745311255472 L 878.2595034781018 62.85096036277616 L 878.224667241968 62.744304804013076 L 878.1921920585482 62.63749710173245 L 878.1620811753343 62.530547936615505 L 878.134337603389 62.423468003489624 L 878.1089641170466 62.316268010258895 L 878.0859632536346 62.208958676833305 L 878.0653373132202 62.10155073405677 L 878.04708835838 61.99405492263407 L 878.0312182139946 61.88648199205676 L 878.0177284670651 61.77884269952825 L 878.0066204665549 61.6711478088881 L 877.9978953232549 61.56340808953563 L 877.9915539096719 61.45563431535299 L 877.9875968599423 61.34783726362778 L 877.9860245697676 61.24002771397536 L 877.9868371963755 61.13221644726084 L 877.9900346585041 61.02441424452105 L 877.9956166364097 60.916631885886424 L 878.0035825718994 60.808880149503025 L 878.0139316683861 60.70116981045468 L 878.026662890969 60.59351163968555 L 878.0417749665361 60.48591640292299 L 878.0592663838927 60.378394859601016 L 878.0791353939114 60.27095776178435 L 878.1013800097081 60.163615853093255 L 878.1259980068396 60.05637986762915 L 878.1529869235266 59.949260528901206 L 878.1823440608999 59.84226854875404 L 878.2140664832705 59.7354146262965 L 878.2481510184224 59.62870944683179 L 878.2845942579304 59.52216368078894 L 878.3233925575012 59.41578798265577 L 878.3645420373368 59.30959298991343 L 878.4080385825239 59.203589321972714 L 878.4538778434439 59.09778757911208 L 878.5020552362091 58.992198341417634 L 878.5525659431204 58.88683216772516 L 878.605404913149 58.78169959456423 L 878.6605668624421 58.67681113510454 L 878.7180462748507 58.57217727810464 L 878.7778374024815 58.46780848686303 L 878.8399342662714 58.36371519817185 L 878.9043306565859 58.25990782127324 L 878.9710201338397 58.15639673681838 L 879.0399960291405 58.053192295829454 L 879.1112514449563 57.950304818664556 L 879.184779255805 57.84774459398567 L 879.2605721089666 57.745521877729786 L 879.338622425219 57.64364689208335 L 879.4189223995958 57.54212982446004 L 879.5014640021661 57.44098082648201 L 879.5862389788389 57.340210012964775 L 879.6732388521868 57.2398274609057 L 879.7624549222952 57.13984320847635 L 879.8538782676313 57.040267254018644 L 879.9474997459369 56.94110955504505 L 880.0433099951418 56.84238002724283 L 880.1412994343015 56.74408854348249 L 880.2414582645533 56.646244932830506 L 880.3437764700979 56.54885897956639 L 880.4482438191997 56.45194042220433 L 880.5548498652112 56.35549895251929 L 880.6635839476164 56.25954421457787 L 880.7744351930977 56.16408580377391 L 880.8873925166231 56.06913326586893 L 881.0024446225542 55.974696096037604 L 881.1195800057764 55.88078373791821 L 881.2387869528487 55.7874055826683 L 881.3600535431762 55.694570968025594 L 881.4833676502005 55.60228917737418 L 881.608716942614 55.51056943881623 L 881.7360888855917 55.41942092424918 L 881.8654707420455 55.328852748448504 L 881.9968495738976 55.23887396815633 L 882.1302122433742 55.14949358117568 L 882.2655454143196 55.0607205254708 L 882.4028355535295 54.97256367827326 L 882.5420689321043 54.88503185519433 L 882.6832316268221 54.79813380934336 L 882.8263095215312 54.71187823045254 L 882.9712883085614 54.62627374400786 L 883.1181534901547 54.541328910386646 L 883.2668903799154 54.45705222400146 L 883.4174841042783 54.373452112450714 L 883.5699196039967 54.290536935675895 L 883.7241816356475 54.20831498512558 L 883.8802547731561 54.12679448292632 L 884.0381234093389 54.0459835810604 L 884.1977717574639 53.965890360550645 L 884.359183852829 53.88652283065238 L 884.5223435543595 53.80788892805245 L 884.687234546221 53.72999651607559 L 884.853840339452 53.652853383898076 L 885.0221442736117 53.57646724576885 L 885.192129518447 53.50084574023808 L 885.3637790755753 53.42599642939328 L 885.5370757801837 53.35192679810317 L 885.7120023027462 53.278644253269164 L 885.8885411507564 53.20615612308466 L 886.0666746704765 53.13446965630228 L 886.246385048703 53.06359202150896 L 886.4276543145479 52.99353030640911 L 886.6104643412356 52.924291517115876 L 886.7947968479158 52.85588257745046 L 886.9806334014916 52.78831032824984 L 887.1679554184622 52.72158152668263 L 887.356744166782 52.65570284557336 L 887.5469807677339 52.590680872735255 L 887.738646197816 52.52652211031142 L 887.9317212906451 52.463232974124615 L 888.1261867388728 52.40081979303573 L 888.3220230961164 52.33928880831086 L 888.5192107789031 52.278646172997206 L 888.7177300686294 52.21889795130775 L 888.9175611135314 52.160050118014894 L 889.1186839306712 52.1021085578529 L 889.3210784079348 52.045079064929524 L 889.5247243060431 51.98896734214652 L 889.7296012605759 51.933779000629414 L 889.9356887840086 51.87951955916637 L 890.1429662677605 51.826194443656306 L 890.351412984256 51.77380898656634 L 890.5610080889971 51.72236842639853 L 890.7717306226481 51.67187790716602 L 890.9835595131311 51.622342477878675 L 891.1964735777337 51.57376709203812 L 891.4104515252269 51.526156607142475 L 891.6254719579941 51.47951578420055 L 891.8415133741713 51.43384928725578 L 892.0585541697968 51.38916168291979 L 892.2765726409722 51.34545743991578 L 892.4955469860317 51.302740928631636 L 892.7154553077235 51.261016420682886 L 892.9362756153987 51.220288088485546 L 893.1579858272104 51.18056000483891 L 893.3805637723223 51.14183614251822 L 893.6039871931252 51.10412037387746 L 893.8282337474634 51.06741647046204 L 894.0532810108683 51.03172810263173 L 894.279106478801 50.99705883919358 L 894.5056875689031 50.96341214704502 L 894.7330016232543 50.930791390827245 L 894.9610259106383 50.899199832588685 L 895.1897376288168 50.86864063145883 L 895.4191139068084 50.83911684333235 L 895.6491318071766 50.81063142056343 L 895.8797683283227 50.78318721167063 L 896.1110004067871 50.75678696105195 L 896.3428049195544 50.731433308710464 L 896.5751586863668 50.70712878999027 L 896.808038472041 50.683875835323 L 897.0414209887925 50.66167676998473 L 897.2752828985643 50.6405338138635 L 897.5096008153602 50.6204490812373 L 897.7443513075837 50.60142458056266 L 897.9795109003812 50.583462214273794 L 898.2150560779896 50.566563778592354 L 898.4509632860872 50.55073096334783 L 898.68720893415 50.53596535180856 L 898.9237693978098 50.52226842052339 L 899.1606210212176 50.50964153917403 L 899.3977401194082 50.49808597043808 L 899.6351029806697 50.48760286986282 L 899.8726858689134 50.47819328574954 L 900.1104650260487 50.46985815904882 L 900.3484166743581 50.462598323266384 L 900.5865170188748 50.456414504379765 L 900.824742249763 50.45130732076569 L 901.063068544698 50.44727728313828 L 901.301472071249 50.444324794497916 L 901.5399289892619 50.44245015009101 L 901.7784154532437 50.44165353738045 L 902.0169076147467 50.44193503602685 L 902.2553816247536 50.443294617880554 L 902.493813636062 50.445732146984525 L 902.7321798056695 50.44924737958788 L 902.9704562971577 50.45383996417029 L 903.2086192830762 50.459509441477124 L 903.4466449473248 50.46625524456538 L 903.6845094875353 50.474076698860365 L 903.9221891174519 50.48297302222316 L 904.15966006931 50.49294332502887 L 904.3968985962119 50.50398661025549 L 904.6338809745029 50.51610177358371 L 904.8705835061425 50.52928760350731 L 905.1069825210748 50.54354278145426 L 905.3430543795954 50.55886588191867 L 905.578775474715 50.575255372603245 L 905.8141222345207 50.592709614572584 L 906.0490711245326 50.61122686241703 L 906.2835986500573 50.630805264427224 L 906.5176813585381 50.651442862779284 L 906.7512958418988 50.67313759373059 L 906.9844187388859 50.695887287826096 L 907.217026737404 50.71968967011537 L 907.4490965768471 50.74454236038002 L 907.6806050504246 50.77044287337172 L 907.911529007482 50.797388619060754 L 908.1418453558163 50.825376902895016 L 908.3715310639842 50.85440492606945 L 908.6005631636066 50.88446978580591 L 908.8289187516642 50.9155684756435 L 909.0565749927887 50.947697885739125 L 909.2835091215454 50.980854803178566 L 909.5096984447108 51.01503591229771 L 909.7351203435411 51.05023779501413 L 909.959752276034 51.08645693116888 L 910.1835717791837 51.12368969887854 L 910.4065564712263 51.16193237489736 L 910.6286840538783 51.201181134989596 L 910.8499323145668 51.241432054311964 L 911.0702791286499 51.28268110780607 L 911.2897024616298 51.32492417060092 L 911.5081803713562 51.368157018425464 L 911.7256910102201 51.41237532803093 L 911.9422126273389 51.45757467762322 L 912.1577235707313 51.503750547305025 L 912.3722022894825 51.55089831952786 L 912.5856273358995 51.5990132795538 L 912.7979773676554 51.64809061592693 L 913.0092311499242 51.69812542095451 L 913.2193675575033 51.749112691197745 L 913.4283655769274 51.801047327972086 L 913.6362043085686 51.85392413785714 L 913.8428629687269 51.90773783321599 L 914.0483208917086 51.962483032723924 L 914.2525575318925 52.01815426190663 L 914.4555524657849 52.07474595368758 L 914.6572853940614 52.132252448944755 L 914.8577361435975 52.190667997076545 L 915.0568846694852 52.24998675657682 L 915.2547110570378 52.310202795619055 L 915.4511955237814 52.371310092649544 L 915.6463184214332 52.43330253698949 L 915.8400602378659 52.49617392944612 L 916.0324015990593 52.559917982932596 L 916.2233232710378 52.62452832309667 L 916.4128061617929 52.68999848895818 L 916.6008313231938 52.7563219335551 L 916.7873799528809 52.823492024598224 L 916.9724333961466 52.89150204513444 L 917.1559731478009 52.960345194218355 L 917.3379808540216 53.03001458759244 L 917.5184383141897 53.10050325837541 L 917.6973274827095 53.171804157758935 L 917.8746304708133 53.243910155712484 L 918.0503295483501 53.31681404169635 L 918.2244071455584 53.39050852538269 L 918.3968458548237 53.46498623738456 L 918.5676284324187 53.5402397299928 L 918.736737800228 53.61626147792087 L 918.9041570474556 53.69304387905734 L 919.0698694323164 53.770579255226075 L 919.2338583837101 53.848859852954064 L 919.3961075028781 53.92787784424677 L 919.5566005650437 54.00762532737092 L 919.7153215210345 54.08809432764465 L 919.8722544988871 54.16927679823499 L 920.0273838054344 54.251164620962534 L 920.1806939278753 54.33374960711325 L 920.332169535325 54.41702349825734 L 920.4817954803491 54.500977967075094 L 920.6295568004779 54.58560461818958 L 920.7754387197024 54.670894989006214 L 920.9194266499522 54.75684055055899 L 921.0615061925545 54.84343270836337 L 921.2016631396732 54.93066280327574 L 921.3398834757304 55.0185221123593 L 921.4761533788078 55.107001849756344 L 921.6104592220286 55.196093167566886 L 921.7427875749204 55.28578715673337 L 921.873125204758 55.37607484793163 L 922.0014590778874 55.46694721246779 L 922.127776361028 55.55839516318112 L 922.2520644225567 55.65040955535275 L 922.3743108337711 55.742981187620146 L 922.4945033701318 55.83610080289723 L 922.6126300124855 55.92975908930006 L 922.7286789482662 56.02394668107806 L 922.8426385726771 56.11865415955053 L 922.9544974898507 56.213872054048544 L 923.0642445139886 56.30959084286201 L 923.1718686704797 56.405800954191804 L 923.2773591969982 56.50249276710697 L 923.3807055445792 56.5996566125068 L 923.4818973786741 56.69728277408771 L 923.580924580184 56.79536148931491 L 923.677777246471 56.89388295039859 L 923.7724456923494 56.99283730527477 L 923.8649204510533 57.09221465859041 L 923.9551922751841 57.19200507269298 L 924.0432521376345 57.29219856862425 L 924.1290912324915 57.39278512711811 L 924.2127009759175 57.49375468960253 L 924.2940730070075 57.59509715920541 L 924.3731991886264 57.69680240176424 L 924.4500716082218 57.79886024683951 L 924.524682578616 57.90126048873177 L 924.597024638774 58.003992887502164 L 924.6670905545502 58.10704716999642 L 924.7348733194112 58.21041303087217 L 924.8003661551372 58.31408013362946 L 924.8635625124991 58.41803811164441 L 924.9244560719138 58.52227656920584 L 924.9830407440762 58.62678508255487 L 925.0393106705678 58.731553200927245 L 925.093260224443 58.83657044759845 L 925.1448840107913 58.94182632093131 L 925.194176867277 59.04731029542622 L 925.2411338646556 59.153011822773635 L 925.2857503072664 59.25892033290889 L 925.3280217335025 59.36502523506925 L 925.3679439162563 59.471315918852895 L 925.405512863343 59.57778175528004 L 925.440724817899 59.684412097855756 L 925.4735762587584 59.79119628363465 L 925.5040639008042 59.89812363428712 L 925.5321846952979 60.005183457167206 L 925.5579358301833 60.11236504638185 L 925.5813147303685 60.21965768386144 L 925.6023190579828 60.327050640431644 L 925.620946712611 60.43453317688629 L 925.6371958315033 60.5420945450613 L 925.6510647897612 60.6497239889095 L 925.6625522005005 60.757410745576195 L 925.6716569149896 60.86514404647545 L 925.6783780227648 60.972913118366954 L 925.6827148517208 61.08070718443333 L 925.6846669681784 61.188515465357796 M 925.6847879582343 95.52678387991818 L 925.6835954983306 95.6345944248348 L 925.6800182378646 95.74239418878678 L 925.6740565345593 95.85017239188754 L 925.66571098458 95.95791825640659 L 925.6549824224747 96.06562100784727 L 925.6418719210909 96.1732698760242 L 925.6263807914677 96.28085409614023 L 925.6085105827051 96.38836290986303 L 925.588263081809 96.49578556640084 L 925.5656403135129 96.60311132357748 L 925.5406445400745 96.7103294489067 L 925.5132782610505 96.8174292206653 L 925.4835442130459 96.92439992896537 L 925.4514453694408 97.0312308768252 L 925.4169849400927 97.13791138123905 L 925.3801663710159 97.24443077424536 L 925.3409933440365 97.35077840399362 L 925.2994697764248 97.45694363580944 L 925.2555998205028 97.56291585325815 L 925.2093878632294 97.66868445920629 L 925.1608385257621 97.77423887688141 L 925.109956662994 97.8795685509297 L 925.0567473630691 97.98466294847155 L 925.0012159468729 98.08951156015478 L 924.9433679675009 98.19410390120557 L 924.8832092097027 98.29842951247699 L 924.8207456893041 98.40247796149485 L 924.7559836526049 98.50623884350097 L 924.6889295757549 98.60970178249359 L 924.619590164106 98.71285643226504 L 924.5479723515413 98.81569247743631 L 924.4740832997826 98.91819963448859 L 924.3979303976736 99.02036765279156 L 924.3195212604408 99.12218631562857 L 924.2388637289326 99.22364544121817 L 924.1559658688352 99.32473488373233 L 924.0708359698654 99.42544453431107 L 923.9834825449419 99.52576432207324 L 923.8939143293347 99.62568421512367 L 923.8021402797907 99.72519422155631 L 923.7081695736383 99.82428439045346 L 923.6120116078697 99.92294481288079 L 923.5136759982016 100.02116562287829 L 923.4131725781128 100.11893699844678 L 923.3105113978617 100.2162491625302 L 923.2057027234806 100.31309238399325 L 923.0987570357497 100.40945697859446 L 922.9896850291487 100.50533330995468 L 922.8784976107875 100.60071179052068 L 922.7652058993149 100.69558288252388 L 922.649821223808 100.78993709893413 L 922.5323551226379 100.88376500440843 L 922.412819342317 100.97705721623441 L 922.2912258363237 101.06980440526866 L 922.1675867639074 101.16199729686952 L 922.041914488872 101.25362667182469 L 921.9142215783405 101.34468336727302 L 921.7845208014975 101.43515827762084 L 921.6528251283125 101.52504235545253 L 921.5191477282433 101.61432661243519 L 921.3835019689184 101.70300212021755 L 921.2459014148005 101.7910600113227 L 921.1063598258306 101.87849148003492 L 920.9648911560513 101.9652877832802 L 920.8215095522115 102.05144024150056 L 920.6762293523524 102.13694023952193 L 920.5290650843725 102.22177922741581 L 920.3800314645764 102.30594872135407 L 920.2291433962015 102.38944030445748 L 920.0764159679292 102.47224562763729 L 919.9218644523748 102.5543564104302 L 919.7655043045614 102.63576444182635 L 919.6073511603731 102.71646158109044 L 919.4474208349928 102.79643975857579 L 919.2857293213196 102.8756909765313 L 919.1222927883704 102.95420730990122 L 918.9571275796618 103.03198090711763 L 918.7902502115775 103.10900399088564 L 918.621677371715 103.18526885896105 L 918.4514259172179 103.2607678849206 L 918.2795128730897 103.33549351892461 L 918.1059554304917 103.40943828847196 L 917.9307709450234 103.48259479914732 L 917.7539769349873 103.55495573536056 L 917.5755910796373 103.6265138610784 L 917.39563121741 103.69726202054787 L 917.214115344142 103.76719313901197 L 917.031061611269 103.83630022341715 L 916.8464883240121 103.90457636311257 L 916.6604139395458 103.97201473054113 L 916.4728570651539 104.03860858192229 L 916.2838364563672 104.10435125792642 L 916.0933710150894 104.1692361843407 L 915.9014797877055 104.23325687272656 L 915.7081819631787 104.29640692106851 L 915.5134968711302 104.35868001441433 L 915.317443979907 104.4200699255066 L 915.1200428946348 104.48057051540535 L 914.9213133552578 104.54017573410202 L 914.721275234564 104.5988796211244 L 914.5199485361991 104.65667630613272 L 914.317353392665 104.71356000950664 L 914.1135100633072 104.7695250429232 L 913.908438932289 104.82456580992574 L 913.7021605065522 104.87867680648341 L 913.4946954137679 104.93185262154162 L 913.2860644002722 104.98408793756322 L 913.0762883289927 105.0353775310601 L 912.8653881773618 105.08571627311568 L 912.6533850352187 105.13509912989768 L 912.440300102701 105.1835211631616 L 912.2261546881247 105.23097753074444 L 912.0109702058523 105.27746348704899 L 911.7947681741531 105.32297438351839 L 911.57757021305 105.36750566910086 L 911.359398042158 105.41105289070501 L 911.1402734785124 105.45361169364494 L 910.920218434387 105.49517782207583 L 910.699254915103 105.53574711941947 L 910.477405016828 105.57531552877992 L 910.254690924367 105.61387909334925 L 910.0311349089435 105.65143395680312 L 909.8067593259731 105.68797636368647 L 909.5815866128268 105.72350265978909 L 909.3556392865884 105.75800929251095 L 909.1289399418022 105.79149281121755 L 908.9015112482138 105.82394986758491 L 908.6733759485029 105.85537721593445 L 908.4445568560096 105.88577171355752 L 908.2150768524523 105.9151303210297 L 907.9849588856403 105.94345010251467 L 907.7542259671782 105.97072822605791 L 907.5229011701658 105.99696196386981 L 907.29100762689 106.02214869259844 L 907.0585685265119 106.04628589359189 L 906.8256071127478 106.0693711531502 L 906.5921466815448 106.09140216276666 L 906.3582105787518 106.11237671935864 L 906.1238221977839 106.13229272548797 L 905.8890049772839 106.15114818957065 L 905.6537823987783 106.16894122607596 L 905.4181779843286 106.1856700557151 L 905.1822152941803 106.20133300561903 L 904.9459179244056 106.21592850950582 L 904.7093095045446 106.22945510783724 L 904.472413695242 106.24191144796474 L 904.2352541858816 106.25329628426466 L 903.9978546922164 106.2636084782629 L 903.7602389539979 106.2728469987486 L 903.5224307326023 106.28101092187747 L 903.2844538086532 106.28809943126396 L 903.0463319796448 106.29411181806304 L 902.8080890575617 106.29904748104106 L 902.5697488664973 106.30290592663582 L 902.3313352402723 106.30568676900597 L 902.0928720200505 106.30738973006962 L 901.8543830519554 106.30801463953205 L 901.6158921846849 106.30756143490284 L 901.377423267127 106.3060301615021 L 901.1390001459748 106.30342097245587 L 900.9006466633418 106.29973412868088 L 900.6623866543774 106.29496999885845 L 900.4242439448842 106.28912905939758 L 900.1862423489346 106.28221189438736 L 899.9484056664897 106.27421919553852 L 899.7107576810198 106.26515176211427 L 899.4733221571253 106.25501050085043 L 899.2361228381606 106.24379642586464 L 898.9991834438601 106.23151065855508 L 898.7625276679659 106.21815442748823 L 898.526179175858 106.20372906827606 L 898.290161602189 106.1882360234425 L 898.0544985485194 106.17167684227908 L 897.8192135809583 106.15405318069014 L 897.5843302278063 106.13536680102716 L 897.349871977203 106.11561957191253 L 897.1158622747781 106.09481346805269 L 896.8823245213067 106.0729505700407 L 896.6492820703698 106.05003306414814 L 896.4167582260181 106.0260632421065 L 896.1847762404423 106.00104350087803 L 895.9533593116477 105.97497634241597 L 895.7225305811342 105.94786437341445 L 895.4923131315826 105.9197103050478 L 895.262729984546 105.89051695269937 L 895.0338040981477 105.86028723568009 L 894.8055583647857 105.82902417693644 L 894.5780156088431 105.79673090274827 L 894.3511985844058 105.76341064241608 L 894.1251299729873 105.72906672793813 L 893.8998323812604 105.69370259367726 L 893.6753283387962 105.6573217760174 L 893.4516402958124 105.61992791301003 L 893.2287906209265 105.58152474401028 L 893.0068015989203 105.54211610930304 L 892.7856954285113 105.50170594971894 L 892.5654942201319 105.46029830624026 L 892.3462199937197 105.41789731959686 L 892.1278946765145 105.37450722985206 L 891.9105401008661 105.33013237597868 L 891.6941780020511 105.28477719542511 L 891.4788300160988 105.23844622367163 L 891.2645176776285 105.1911440937768 L 891.0512624176954 105.14287553591419 L 890.839085561648 105.09364537689936 L 890.6280083269946 105.0434585397072 L 890.4180518212833 104.99232004297959 L 890.2092370399894 104.9402350005236 L 890.001584864417 104.88720862080007 L 889.7951160596109 104.83324620640276 L 889.5898512722792 104.77835315352817 L 889.3858110287298 104.72253495143585 L 889.1830157328168 104.66579718189945 L 888.981485663901 104.60814551864868 L 888.7812409748213 104.54958572680184 L 888.5823016898797 104.49012366228926 L 888.384687702839 104.42976527126788 L 888.1884187749331 104.36851658952648 L 887.9935145328913 104.30638374188221 L 887.7999944669754 104.24337294156805 L 887.6078779290306 104.17949048961154 L 887.4171841305508 104.11474277420461 L 887.2279321407568 104.04913627006486 L 887.0401408846899 103.98267753778805 L 886.8538291413192 103.91537322319199 L 886.6690155416638 103.84723005665208 L 886.4857185669298 103.77825485242818 L 886.3039565466615 103.70845450798322 L 886.12374765691 103.63783600329349 L 885.9451099184138 103.56640640015061 L 885.7680611947978 103.49417284145538 L 885.592619190787 103.42114255050346 L 885.4188014504356 103.3473228302631 L 885.2466253553727 103.27272106264479 L 885.0761081230643 103.19734470776314 L 884.9072668050917 103.1212013031908 L 884.7401182854458 103.04429846320481 L 884.5746792788394 102.96664387802507 L 884.4109663290352 102.88824531304537 L 884.2489958071919 102.8091106080569 L 884.0887839102267 102.72924767646418 L 883.9303466591955 102.64866450449387 L 883.7736998976917 102.56736915039596 L 883.6188592902608 102.48536974363815 L 883.4658403208346 102.40267448409276 L 883.3146582911822 102.31929164121684 L 883.1653283193809 102.2352295532252 L 883.0178653383034 102.15049662625658 L 882.8722840941249 102.06510133353308 L 882.7285991448484 101.97905221451278 L 882.5868248588492 101.89235787403591 L 882.4469754134378 101.80502698146424 L 882.3090647934421 101.71706826981428 L 882.173106789809 101.62849053488388 L 882.039114998226 101.53930263437272 L 881.9071028177602 101.44951348699652 L 881.7770834495199 101.35913207159521 L 881.6490698953334 101.26816742623502 L 881.5230749564495 101.17662864730465 L 881.3991112322572 101.08452488860574 L 881.2771911190255 100.9918653604374 L 881.157326808664 100.89865932867522 L 881.0395302875041 100.80491611384473 L 880.9238133350997 100.71064509018925 L 880.8101875230494 100.61585568473262 L 880.6986642138401 100.5205573763364 L 880.5892545597094 100.424759694752 L 880.4819695015317 100.32847221966773 L 880.3768197677234 100.2317045797509 L 880.2738158731704 100.13446645168483 L 880.1729681181761 100.03676755920131 L 880.074286587432 99.93861767210817 L 879.977781149009 99.84002660531232 L 879.8834614533706 99.7410042178383 L 879.7913369324076 99.64156041184232 L 879.7014167984954 99.54170513162211 L 879.6137100435725 99.4414483626225 L 879.5282254382412 99.34080013043682 L 879.4449715308909 99.23977049980442 L 879.3639566468429 99.13836957360418 L 879.2851888875181 99.03660749184422 L 879.2086761296268 98.9344944306479 L 879.134426024381 98.83204060123627 L 879.0624459967295 98.72925624890688 L 878.9927432446148 98.6261516520093 L 878.9253247382543 98.52273712091731 L 878.8601972194423 98.41902299699785 L 878.7973672008764 98.31501965157686 L 878.7368409655062 98.21073748490224 L 878.6786245659047 98.10618692510373 L 878.6227238236635 98.0013784271502 L 878.56914432881 97.89632247180411 L 878.5178914392492 97.79102956457344 L 878.4689702802274 97.68551023466115 L 878.4223857438195 97.57977503391233 L 878.3781424884406 97.47383453575894 L 878.3362449383792 97.3676993341625 L 878.2966972833555 97.2613800425547 L 878.2595034781018 97.15488729277617 L 878.224667241968 97.04823173401307 L 878.1921920585482 96.94142403173245 L 878.1620811753343 96.8344748666155 L 878.134337603389 96.72739493348962 L 878.1089641170466 96.6201949402589 L 878.0859632536346 96.51288560683331 L 878.0653373132202 96.40547766405678 L 878.04708835838 96.29798185263407 L 878.0312182139946 96.19040892205675 L 878.0177284670651 96.08276962952824 L 878.0066204665549 95.9750747388881 L 877.9978953232549 95.86733501953563 L 877.9915539096719 95.75956124535298 L 877.9875968599423 95.65176419362778 L 877.9860245697676 95.54395464397535" stroke-miterlimit="10" stroke-width="2.7769845610000004" stroke-dasharray=""/></g><g><g/><text fill="black" stroke="none" font-family="sans-serif" font-size="11pt" font-style="normal" font-weight="normal" text-decoration="normal" x="870.4574461939453" y="123.83569119881818" text-anchor="start" dominant-baseline="alphabetic" xml:space="preserve">Database</text></g><g><path fill="white" stroke="black" paint-order="fill stroke markers" d=" M 90.987082381 771.6081780603181 A 9.311065881 9.311065881 0 1 1 90.98707772546743 771.5988669959889 M 81.67601649999999 780.9192439413181 L 81.67601649999999 800.8481919673181 M 69.914670124 788.1067333933181 L 93.43736287599998 788.1067333933181 M 81.67601649999999 800.8481919673181 L 69.914670124 819.4703237293181 M 81.67601649999999 800.8481919673181 L 93.43736287599998 819.4703237293181" stroke-miterlimit="10" stroke-width="2.7769845610000004" stroke-dasharray=""/></g><g><g/><text fill="black" stroke="none" font-family="sans-serif" font-size="11pt" font-style="normal" font-weight="normal" text-decoration="normal" x="53.1470400595703" y="756.008058908818" text-anchor="start" dominant-baseline="alphabetic" xml:space="preserve">Landlord</text></g><g><path fill="white" stroke="black" paint-order="fill stroke markers" d=" M 396.48801661703646 787.110285992018 A 24.2577769005 24.2577769005 0 1 1 396.48800448814904 787.0860282191604 M 346.5839705355365 813.589650541318 L 397.87650889753644 813.589650541318" stroke-miterlimit="10" stroke-width="2.7769845610000004" stroke-dasharray=""/></g><g><g/><text fill="black" stroke="none" font-family="sans-serif" font-size="11pt" font-style="normal" font-weight="normal" text-decoration="normal" x="353.4900892648763" y="756.008058908818" text-anchor="start" dominant-baseline="alphabetic" xml:space="preserve">Client</text></g><g><path fill="white" stroke="black" paint-order="fill stroke markers" d=" M 660.821796107987 787.110285992018 A 24.2577769005 24.2577769005 0 1 1 660.8217839790996 787.0860282191604 M 610.917750026487 813.589650541318 L 662.210288388487 813.589650541318" stroke-miterlimit="10" stroke-width="2.7769845610000004" stroke-dasharray=""/></g><g><g/><text fill="black" stroke="none" font-family="sans-serif" font-size="11pt" font-style="normal" font-weight="normal" text-decoration="normal" x="608.0386209530925" y="756.008058908818" text-anchor="start" dominant-baseline="alphabetic" xml:space="preserve">Backend</text></g><g><path fill="white" stroke="black" paint-order="fill stroke markers" d=" M 877.9859943222344 808.7707655678181 L 877.9859943222344 774.466838637818 L 925.6847879582343 774.466838637818 L 925.6847879582343 808.7707655678181" stroke-miterlimit="10" stroke-width="2.7769845610000004" stroke-dasharray=""/><path fill="white" stroke="black" paint-order="fill stroke markers" d=" M 925.6847879582343 773.274368796918 L 925.6835954983306 773.3821793418347 L 925.6800182378646 773.4899791057866 L 925.6740565345593 773.5977573088874 L 925.66571098458 773.7055031734064 L 925.6549824224747 773.8132059248471 L 925.6418719210909 773.920854793024 L 925.6263807914677 774.0284390131401 L 925.6085105827051 774.1359478268629 L 925.588263081809 774.2433704834007 L 925.5656403135129 774.3506962405773 L 925.5406445400745 774.4579143659065 L 925.5132782610505 774.5650141376651 L 925.4835442130459 774.6719848459652 L 925.4514453694408 774.7788157938251 L 925.4169849400927 774.8854962982389 L 925.3801663710159 774.9920156912451 L 925.3409933440365 775.0983633209934 L 925.2994697764248 775.2045285528093 L 925.2555998205028 775.3105007702579 L 925.2093878632294 775.4162693762061 L 925.1608385257621 775.5218237938813 L 925.109956662994 775.6271534679295 L 925.0567473630691 775.7322478654713 L 925.0012159468729 775.8370964771545 L 924.9433679675009 775.9416888182054 L 924.8832092097027 776.0460144294768 L 924.8207456893041 776.1500628784946 L 924.7559836526049 776.2538237605007 L 924.6889295757549 776.3572866994934 L 924.619590164106 776.4604413492649 L 924.5479723515413 776.5632773944361 L 924.4740832997826 776.6657845514884 L 924.3979303976736 776.7679525697914 L 924.3195212604408 776.8697712326284 L 924.2388637289326 776.971230358218 L 924.1559658688352 777.0723198007321 L 924.0708359698654 777.1730294513109 L 923.9834825449419 777.273349239073 L 923.8939143293347 777.3732691321235 L 923.8021402797907 777.4727791385561 L 923.7081695736383 777.5718693074533 L 923.6120116078697 777.6705297298806 L 923.5136759982016 777.768750539878 L 923.4131725781128 777.8665219154466 L 923.3105113978617 777.96383407953 L 923.2057027234806 778.060677300993 L 923.0987570357497 778.1570418955943 L 922.9896850291487 778.2529182269545 L 922.8784976107875 778.3482967075205 L 922.7652058993149 778.4431677995237 L 922.649821223808 778.537522015934 L 922.5323551226379 778.6313499214083 L 922.412819342317 778.7246421332343 L 922.2912258363237 778.8173893222685 L 922.1675867639074 778.9095822138694 L 922.041914488872 779.0012115888245 L 921.9142215783405 779.0922682842728 L 921.7845208014975 779.1827431946207 L 921.6528251283125 779.2726272724524 L 921.5191477282433 779.361911529435 L 921.3835019689184 779.4505870372174 L 921.2459014148005 779.5386449283225 L 921.1063598258306 779.6260763970347 L 920.9648911560513 779.7128727002801 L 920.8215095522115 779.7990251585004 L 920.6762293523524 779.8845251565217 L 920.5290650843725 779.9693641444156 L 920.3800314645764 780.0535336383539 L 920.2291433962015 780.1370252214573 L 920.0764159679292 780.2198305446371 L 919.9218644523748 780.30194132743 L 919.7655043045614 780.3833493588262 L 919.6073511603731 780.4640464980903 L 919.4474208349928 780.5440246755757 L 919.2857293213196 780.6232758935311 L 919.1222927883704 780.701792226901 L 918.9571275796618 780.7795658241174 L 918.7902502115775 780.8565889078855 L 918.621677371715 780.9328537759609 L 918.4514259172179 781.0083528019204 L 918.2795128730897 781.0830784359244 L 918.1059554304917 781.1570232054718 L 917.9307709450234 781.2301797161472 L 917.7539769349873 781.3025406523603 L 917.5755910796373 781.3740987780782 L 917.39563121741 781.4448469375477 L 917.214115344142 781.5147780560118 L 917.031061611269 781.583885140417 L 916.8464883240121 781.6521612801124 L 916.6604139395458 781.7195996475409 L 916.4728570651539 781.7861934989221 L 916.2838364563672 781.8519361749262 L 916.0933710150894 781.9168211013405 L 915.9014797877055 781.9808417897264 L 915.7081819631787 782.0439918380683 L 915.5134968711302 782.1062649314141 L 915.317443979907 782.1676548425064 L 915.1200428946348 782.2281554324052 L 914.9213133552578 782.2877606511018 L 914.721275234564 782.3464645381242 L 914.5199485361991 782.4042612231325 L 914.317353392665 782.4611449265064 L 914.1135100633072 782.517109959923 L 913.908438932289 782.5721507269255 L 913.7021605065522 782.6262617234833 L 913.4946954137679 782.6794375385415 L 913.2860644002722 782.731672854563 L 913.0762883289927 782.78296244806 L 912.8653881773618 782.8333011901155 L 912.6533850352187 782.8826840468975 L 912.440300102701 782.9311060801614 L 912.2261546881247 782.9785624477443 L 912.0109702058523 783.0250484040488 L 911.7947681741531 783.0705593005182 L 911.57757021305 783.1150905861007 L 911.359398042158 783.1586378077048 L 911.1402734785124 783.2011966106447 L 910.920218434387 783.2427627390756 L 910.699254915103 783.2833320364193 L 910.477405016828 783.3229004457797 L 910.254690924367 783.3614640103491 L 910.0311349089435 783.3990188738029 L 909.8067593259731 783.4355612806863 L 909.5815866128268 783.4710875767889 L 909.3556392865884 783.5055942095107 L 909.1289399418022 783.5390777282173 L 908.9015112482138 783.5715347845847 L 908.6733759485029 783.6029621329343 L 908.4445568560096 783.6333566305574 L 908.2150768524523 783.6627152380295 L 907.9849588856403 783.6910350195145 L 907.7542259671782 783.7183131430577 L 907.5229011701658 783.7445468808696 L 907.29100762689 783.7697336095982 L 907.0585685265119 783.7938708105917 L 906.8256071127478 783.81695607015 L 906.5921466815448 783.8389870797664 L 906.3582105787518 783.8599616363584 L 906.1238221977839 783.8798776424878 L 905.8890049772839 783.8987331065705 L 905.6537823987783 783.9165261430758 L 905.4181779843286 783.933254972715 L 905.1822152941803 783.9489179226189 L 904.9459179244056 783.9635134265056 L 904.7093095045446 783.977040024837 L 904.472413695242 783.9894963649646 L 904.2352541858816 784.0008812012645 L 903.9978546922164 784.0111933952627 L 903.7602389539979 784.0204319157484 L 903.5224307326023 784.0285958388773 L 903.2844538086532 784.0356843482638 L 903.0463319796448 784.0416967350628 L 902.8080890575617 784.0466323980409 L 902.5697488664973 784.0504908436357 L 902.3313352402723 784.0532716860058 L 902.0928720200505 784.0549746470695 L 901.8543830519554 784.0555995565319 L 901.6158921846849 784.0551463519026 L 901.377423267127 784.0536150785019 L 901.1390001459748 784.0510058894557 L 900.9006466633418 784.0473190456808 L 900.6623866543774 784.0425549158583 L 900.4242439448842 784.0367139763974 L 900.1862423489346 784.0297968113872 L 899.9484056664897 784.0218041125383 L 899.7107576810198 784.0127366791141 L 899.4733221571253 784.0025954178502 L 899.2361228381606 783.9913813428644 L 898.9991834438601 783.9790955755549 L 898.7625276679659 783.965739344488 L 898.526179175858 783.9513139852759 L 898.290161602189 783.9358209404423 L 898.0544985485194 783.9192617592789 L 897.8192135809583 783.90163809769 L 897.5843302278063 783.882951718027 L 897.349871977203 783.8632044889123 L 897.1158622747781 783.8423983850525 L 896.8823245213067 783.8205354870405 L 896.6492820703698 783.7976179811479 L 896.4167582260181 783.7736481591063 L 896.1847762404423 783.7486284178779 L 895.9533593116477 783.7225612594158 L 895.7225305811342 783.6954492904142 L 895.4923131315826 783.6672952220476 L 895.262729984546 783.6381018696992 L 895.0338040981477 783.6078721526799 L 894.8055583647857 783.5766090939362 L 894.5780156088431 783.5443158197481 L 894.3511985844058 783.5109955594158 L 894.1251299729873 783.476651644938 L 893.8998323812604 783.4412875106771 L 893.6753283387962 783.4049066930172 L 893.4516402958124 783.3675128300099 L 893.2287906209265 783.3291096610101 L 893.0068015989203 783.2897010263029 L 892.7856954285113 783.2492908667188 L 892.5654942201319 783.2078832232401 L 892.3462199937197 783.1654822365966 L 892.1278946765145 783.1220921468519 L 891.9105401008661 783.0777172929785 L 891.6941780020511 783.032362112425 L 891.4788300160988 782.9860311406715 L 891.2645176776285 782.9387290107766 L 891.0512624176954 782.890460452914 L 890.839085561648 782.8412302938992 L 890.6280083269946 782.791043456707 L 890.4180518212833 782.7399049599794 L 890.2092370399894 782.6878199175234 L 890.001584864417 782.6347935377999 L 889.7951160596109 782.5808311234026 L 889.5898512722792 782.525938070528 L 889.3858110287298 782.4701198684356 L 889.1830157328168 782.4133820988993 L 888.981485663901 782.3557304356485 L 888.7812409748213 782.2971706438017 L 888.5823016898797 782.2377085792891 L 888.384687702839 782.1773501882677 L 888.1884187749331 782.1161015065263 L 887.9935145328913 782.053968658882 L 887.7999944669754 781.9909578585679 L 887.6078779290306 781.9270754066114 L 887.4171841305508 781.8623276912044 L 887.2279321407568 781.7967211870647 L 887.0401408846899 781.7302624547879 L 886.8538291413192 781.6629581401918 L 886.6690155416638 781.5948149736519 L 886.4857185669298 781.525839769428 L 886.3039565466615 781.456039424983 L 886.12374765691 781.3854209202933 L 885.9451099184138 781.3139913171505 L 885.7680611947978 781.2417577584552 L 885.592619190787 781.1687274675032 L 885.4188014504356 781.0949077472629 L 885.2466253553727 781.0203059796446 L 885.0761081230643 780.944929624763 L 884.9072668050917 780.8687862201906 L 884.7401182854458 780.7918833802046 L 884.5746792788394 780.7142287950248 L 884.4109663290352 780.6358302300451 L 884.2489958071919 780.5566955250567 L 884.0887839102267 780.476832593464 L 883.9303466591955 780.3962494214936 L 883.7736998976917 780.3149540673958 L 883.6188592902608 780.2329546606379 L 883.4658403208346 780.1502594010925 L 883.3146582911822 780.0668765582167 L 883.1653283193809 779.982814470225 L 883.0178653383034 779.8980815432564 L 882.8722840941249 779.8126862505329 L 882.7285991448484 779.7266371315126 L 882.5868248588492 779.6399427910358 L 882.4469754134378 779.5526118984641 L 882.3090647934421 779.4646531868141 L 882.173106789809 779.3760754518837 L 882.039114998226 779.2868875513725 L 881.9071028177602 779.1970984039964 L 881.7770834495199 779.106716988595 L 881.6490698953334 779.0157523432348 L 881.5230749564495 778.9242135643045 L 881.3991112322572 778.8321098056056 L 881.2771911190255 778.7394502774372 L 881.157326808664 778.646244245675 L 881.0395302875041 778.5525010308445 L 880.9238133350997 778.4582300071891 L 880.8101875230494 778.3634406017325 L 880.6986642138401 778.2681422933362 L 880.5892545597094 778.1723446117518 L 880.4819695015317 778.0760571366676 L 880.3768197677234 777.9792894967508 L 880.2738158731704 777.8820513686846 L 880.1729681181761 777.7843524762011 L 880.074286587432 777.686202589108 L 879.977781149009 777.5876115223122 L 879.8834614533706 777.4885891348381 L 879.7913369324076 777.3891453288421 L 879.7014167984954 777.289290048622 L 879.6137100435725 777.1890332796223 L 879.5282254382412 777.0883850474366 L 879.4449715308909 776.9873554168042 L 879.3639566468429 776.885954490604 L 879.2851888875181 776.784192408844 L 879.2086761296268 776.6820793476477 L 879.134426024381 776.5796255182361 L 879.0624459967295 776.4768411659066 L 878.9927432446148 776.3737365690091 L 878.9253247382543 776.2703220379171 L 878.8601972194423 776.1666079139976 L 878.7973672008764 776.0626045685767 L 878.7368409655062 775.958322401902 L 878.6786245659047 775.8537718421036 L 878.6227238236635 775.7489633441501 L 878.56914432881 775.6439073888039 L 878.5178914392492 775.5386144815733 L 878.4689702802274 775.433095151661 L 878.4223857438195 775.3273599509122 L 878.3781424884406 775.2214194527587 L 878.3362449383792 775.1152842511623 L 878.2966972833555 775.0089649595545 L 878.2595034781018 774.902472209776 L 878.224667241968 774.7958166510128 L 878.1921920585482 774.6890089487323 L 878.1620811753343 774.5820597836154 L 878.134337603389 774.4749798504895 L 878.1089641170466 774.3677798572587 L 878.0859632536346 774.2604705238331 L 878.0653373132202 774.1530625810566 L 878.04708835838 774.0455667696339 L 878.0312182139946 773.9379938390566 L 878.0177284670651 773.830354546528 L 878.0066204665549 773.7226596558879 L 877.9978953232549 773.6149199365354 L 877.9915539096719 773.5071461623528 L 877.9875968599423 773.3993491106276 L 877.9860245697676 773.2915395609751 L 877.9868371963755 773.1837282942606 L 877.9900346585041 773.0759260915208 L 877.9956166364097 772.9681437328862 L 878.0035825718994 772.8603919965028 L 878.0139316683861 772.7526816574544 L 878.026662890969 772.6450234866853 L 878.0417749665361 772.5374282499228 L 878.0592663838927 772.4299067066008 L 878.0791353939114 772.3224696087841 L 878.1013800097081 772.215127700093 L 878.1259980068396 772.107891714629 L 878.1529869235266 772.000772375901 L 878.1823440608999 771.8937803957539 L 878.2140664832705 771.7869264732963 L 878.2481510184224 771.6802212938316 L 878.2845942579304 771.5736755277887 L 878.3233925575012 771.4672998296555 L 878.3645420373368 771.3611048369132 L 878.4080385825239 771.2551011689725 L 878.4538778434439 771.1492994261118 L 878.5020552362091 771.0437101884174 L 878.5525659431204 770.938344014725 L 878.605404913149 770.833211441564 L 878.6605668624421 770.7283229821044 L 878.7180462748507 770.6236891251044 L 878.7778374024815 770.5193203338629 L 878.8399342662714 770.4152270451716 L 878.9043306565859 770.3114196682731 L 878.9710201338397 770.2079085838182 L 879.0399960291405 770.1047041428293 L 879.1112514449563 770.0018166656644 L 879.184779255805 769.8992564409855 L 879.2605721089666 769.7970337247295 L 879.338622425219 769.6951587390831 L 879.4189223995958 769.5936416714599 L 879.5014640021661 769.4924926734818 L 879.5862389788389 769.3917218599646 L 879.6732388521868 769.2913393079056 L 879.7624549222952 769.1913550554762 L 879.8538782676313 769.0917791010185 L 879.9474997459369 768.9926214020448 L 880.0433099951418 768.8938918742426 L 880.1412994343015 768.7956003904823 L 880.2414582645533 768.6977567798303 L 880.3437764700979 768.6003708265662 L 880.4482438191997 768.5034522692041 L 880.5548498652112 768.4070107995191 L 880.6635839476164 768.3110560615777 L 880.7744351930977 768.2155976507737 L 880.8873925166231 768.1206451128687 L 881.0024446225542 768.0262079430374 L 881.1195800057764 767.932295584918 L 881.2387869528487 767.8389174296681 L 881.3600535431762 767.7460828150254 L 881.4833676502005 767.653801024374 L 881.608716942614 767.562081285816 L 881.7360888855917 767.470932771249 L 881.8654707420455 767.3803645954483 L 881.9968495738976 767.2903858151561 L 882.1302122433742 767.2010054281754 L 882.2655454143196 767.1122323724707 L 882.4028355535295 767.024075525273 L 882.5420689321043 766.9365437021942 L 882.6832316268221 766.8496456563432 L 882.8263095215312 766.7633900774523 L 882.9712883085614 766.6777855910077 L 883.1181534901547 766.5928407573865 L 883.2668903799154 766.5085640710013 L 883.4174841042783 766.4249639594506 L 883.5699196039967 766.3420487826756 L 883.7241816356475 766.2598268321254 L 883.8802547731561 766.1783063299262 L 884.0381234093389 766.0974954280603 L 884.1977717574639 766.0174022075505 L 884.359183852829 765.9380346776522 L 884.5223435543595 765.8594007750522 L 884.687234546221 765.7815083630754 L 884.853840339452 765.7043652308979 L 885.0221442736117 765.6279790927687 L 885.192129518447 765.5523575872379 L 885.3637790755753 765.4775082763931 L 885.5370757801837 765.4034386451029 L 885.7120023027462 765.3301561002689 L 885.8885411507564 765.2576679700844 L 886.0666746704765 765.1859815033021 L 886.246385048703 765.1151038685088 L 886.4276543145479 765.0450421534089 L 886.6104643412356 764.9758033641157 L 886.7947968479158 764.9073944244502 L 886.9806334014916 764.8398221752497 L 887.1679554184622 764.7730933736824 L 887.356744166782 764.7072146925732 L 887.5469807677339 764.642192719735 L 887.738646197816 764.5780339573113 L 887.9317212906451 764.5147448211244 L 888.1261867388728 764.4523316400355 L 888.3220230961164 764.3908006553106 L 888.5192107789031 764.330158019997 L 888.7177300686294 764.2704097983076 L 888.9175611135314 764.2115619650147 L 889.1186839306712 764.1536204048527 L 889.3210784079348 764.0965909119293 L 889.5247243060431 764.0404791891464 L 889.7296012605759 763.9852908476292 L 889.9356887840086 763.9310314061662 L 890.1429662677605 763.8777062906561 L 890.351412984256 763.8253208335661 L 890.5610080889971 763.7738802733984 L 890.7717306226481 763.7233897541659 L 890.9835595131311 763.6738543248784 L 891.1964735777337 763.6252789390379 L 891.4104515252269 763.5776684541423 L 891.6254719579941 763.5310276312003 L 891.8415133741713 763.4853611342556 L 892.0585541697968 763.4406735299196 L 892.2765726409722 763.3969692869156 L 892.4955469860317 763.3542527756315 L 892.7154553077235 763.3125282676826 L 892.9362756153987 763.2717999354853 L 893.1579858272104 763.2320718518387 L 893.3805637723223 763.1933479895181 L 893.6039871931252 763.1556322208772 L 893.8282337474634 763.1189283174618 L 894.0532810108683 763.0832399496315 L 894.279106478801 763.0485706861934 L 894.5056875689031 763.0149239940448 L 894.7330016232543 762.9823032378271 L 894.9610259106383 762.9507116795885 L 895.1897376288168 762.9201524784586 L 895.4191139068084 762.8906286903322 L 895.6491318071766 762.8621432675633 L 895.8797683283227 762.8346990586705 L 896.1110004067871 762.8082988080517 L 896.3428049195544 762.7829451557103 L 896.5751586863668 762.7586406369901 L 896.808038472041 762.7353876823228 L 897.0414209887925 762.7131886169846 L 897.2752828985643 762.6920456608633 L 897.5096008153602 762.6719609282371 L 897.7443513075837 762.6529364275625 L 897.9795109003812 762.6349740612736 L 898.2150560779896 762.6180756255922 L 898.4509632860872 762.6022428103477 L 898.68720893415 762.5874771988084 L 898.9237693978098 762.5737802675231 L 899.1606210212176 762.5611533861738 L 899.3977401194082 762.5495978174379 L 899.6351029806697 762.5391147168626 L 899.8726858689134 762.5297051327493 L 900.1104650260487 762.5213700060486 L 900.3484166743581 762.5141101702662 L 900.5865170188748 762.5079263513795 L 900.824742249763 762.5028191677656 L 901.063068544698 762.4987891301381 L 901.301472071249 762.4958366414977 L 901.5399289892619 762.4939619970909 L 901.7784154532437 762.4931653843803 L 902.0169076147467 762.4934468830266 L 902.2553816247536 762.4948064648804 L 902.493813636062 762.4972439939843 L 902.7321798056695 762.5007592265877 L 902.9704562971577 762.5053518111702 L 903.2086192830762 762.511021288477 L 903.4466449473248 762.5177670915652 L 903.6845094875353 762.5255885458602 L 903.9221891174519 762.534484869223 L 904.15966006931 762.5444551720286 L 904.3968985962119 762.5554984572553 L 904.6338809745029 762.5676136205835 L 904.8705835061425 762.5807994505071 L 905.1069825210748 762.595054628454 L 905.3430543795954 762.6103777289185 L 905.578775474715 762.626767219603 L 905.8141222345207 762.6442214615724 L 906.0490711245326 762.6627387094169 L 906.2835986500573 762.682317111427 L 906.5176813585381 762.7029547097791 L 906.7512958418988 762.7246494407304 L 906.9844187388859 762.7473991348259 L 907.217026737404 762.7712015171152 L 907.4490965768471 762.7960542073798 L 907.6806050504246 762.8219547203715 L 907.911529007482 762.8489004660605 L 908.1418453558163 762.8768887498949 L 908.3715310639842 762.9059167730693 L 908.6005631636066 762.9359816328057 L 908.8289187516642 762.9670803226433 L 909.0565749927887 762.9992097327389 L 909.2835091215454 763.0323666501783 L 909.5096984447108 763.0665477592976 L 909.7351203435411 763.1017496420139 L 909.959752276034 763.1379687781687 L 910.1835717791837 763.1752015458784 L 910.4065564712263 763.2134442218971 L 910.6286840538783 763.2526929819894 L 910.8499323145668 763.2929439013118 L 911.0702791286499 763.3341929548059 L 911.2897024616298 763.3764360176008 L 911.5081803713562 763.4196688654253 L 911.7256910102201 763.4638871750308 L 911.9422126273389 763.5090865246231 L 912.1577235707313 763.5552623943048 L 912.3722022894825 763.6024101665276 L 912.5856273358995 763.6505251265536 L 912.7979773676554 763.6996024629267 L 913.0092311499242 763.7496372679543 L 913.2193675575033 763.8006245381976 L 913.4283655769274 763.8525591749719 L 913.6362043085686 763.9054359848569 L 913.8428629687269 763.9592496802157 L 914.0483208917086 764.0139948797238 L 914.2525575318925 764.0696661089064 L 914.4555524657849 764.1262578006874 L 914.6572853940614 764.1837642959446 L 914.8577361435975 764.2421798440763 L 915.0568846694852 764.3014986035766 L 915.2547110570378 764.3617146426188 L 915.4511955237814 764.4228219396493 L 915.6463184214332 764.4848143839893 L 915.8400602378659 764.547685776446 L 916.0324015990593 764.6114298299324 L 916.2233232710378 764.6760401700965 L 916.4128061617929 764.741510335958 L 916.6008313231938 764.8078337805549 L 916.7873799528809 764.875003871598 L 916.9724333961466 764.9430138921342 L 917.1559731478009 765.0118570412181 L 917.3379808540216 765.0815264345922 L 917.5184383141897 765.1520151053752 L 917.6973274827095 765.2233160047588 L 917.8746304708133 765.2954220027123 L 918.0503295483501 765.3683258886962 L 918.2244071455584 765.4420203723826 L 918.3968458548237 765.5164980843844 L 918.5676284324187 765.5917515769926 L 918.736737800228 765.6677733249206 L 918.9041570474556 765.7445557260571 L 919.0698694323164 765.8220911022258 L 919.2338583837101 765.9003716999539 L 919.3961075028781 765.9793896912466 L 919.5566005650437 766.0591371743707 L 919.7153215210345 766.1396061746444 L 919.8722544988871 766.2207886452348 L 920.0273838054344 766.3026764679623 L 920.1806939278753 766.3852614541131 L 920.332169535325 766.4685353452571 L 920.4817954803491 766.5524898140749 L 920.6295568004779 766.6371164651894 L 920.7754387197024 766.722406836006 L 920.9194266499522 766.8083523975588 L 921.0615061925545 766.8949445553632 L 921.2016631396732 766.9821746502755 L 921.3398834757304 767.0700339593591 L 921.4761533788078 767.1585136967561 L 921.6104592220286 767.2476050145667 L 921.7427875749204 767.3372990037332 L 921.873125204758 767.4275866949314 L 922.0014590778874 767.5184590594675 L 922.127776361028 767.6099070101809 L 922.2520644225567 767.7019214023526 L 922.3743108337711 767.7944930346199 L 922.4945033701318 767.887612649897 L 922.6126300124855 767.9812709362999 L 922.7286789482662 768.0754585280779 L 922.8426385726771 768.1701660065503 L 922.9544974898507 768.2653839010484 L 923.0642445139886 768.3611026898618 L 923.1718686704797 768.4573128011916 L 923.2773591969982 768.5540046141068 L 923.3807055445792 768.6511684595066 L 923.4818973786741 768.7487946210875 L 923.580924580184 768.8468733363147 L 923.677777246471 768.9453947973984 L 923.7724456923494 769.0443491522745 L 923.8649204510533 769.1437265055902 L 923.9551922751841 769.2435169196928 L 924.0432521376345 769.3437104156241 L 924.1290912324915 769.444296974118 L 924.2127009759175 769.5452665366023 L 924.2940730070075 769.6466090062053 L 924.3731991886264 769.748314248764 L 924.4500716082218 769.8503720938393 L 924.524682578616 769.9527723357315 L 924.597024638774 770.0555047345019 L 924.6670905545502 770.1585590169963 L 924.7348733194112 770.2619248778719 L 924.8003661551372 770.3655919806292 L 924.8635625124991 770.4695499586442 L 924.9244560719138 770.5737884162056 L 924.9830407440762 770.6782969295547 L 925.0393106705678 770.783065047927 L 925.093260224443 770.8880822945982 L 925.1448840107913 770.9933381679311 L 925.194176867277 771.098822142426 L 925.2411338646556 771.2045236697735 L 925.2857503072664 771.3104321799087 L 925.3280217335025 771.416537082069 L 925.3679439162563 771.5228277658528 L 925.405512863343 771.6292936022799 L 925.440724817899 771.7359239448556 L 925.4735762587584 771.8427081306345 L 925.5040639008042 771.9496354812869 L 925.5321846952979 772.056695304167 L 925.5579358301833 772.1638768933817 L 925.5813147303685 772.2711695308612 L 925.6023190579828 772.3785624874314 L 925.620946712611 772.486045023886 L 925.6371958315033 772.5936063920611 L 925.6510647897612 772.7012358359093 L 925.6625522005005 772.808922592576 L 925.6716569149896 772.9166558934753 L 925.6783780227648 773.0244249653667 L 925.6827148517208 773.1322190314331 L 925.6846669681784 773.2400273123576 M 925.6847879582343 807.5782957269181 L 925.6835954983306 807.6861062718348 L 925.6800182378646 807.7939060357867 L 925.6740565345593 807.9016842388875 L 925.66571098458 808.0094301034065 L 925.6549824224747 808.1171328548472 L 925.6418719210909 808.2247817230241 L 925.6263807914677 808.3323659431402 L 925.6085105827051 808.439874756863 L 925.588263081809 808.5472974134008 L 925.5656403135129 808.6546231705775 L 925.5406445400745 808.7618412959066 L 925.5132782610505 808.8689410676652 L 925.4835442130459 808.9759117759653 L 925.4514453694408 809.0827427238252 L 925.4169849400927 809.189423228239 L 925.3801663710159 809.2959426212453 L 925.3409933440365 809.4022902509935 L 925.2994697764248 809.5084554828094 L 925.2555998205028 809.614427700258 L 925.2093878632294 809.7201963062062 L 925.1608385257621 809.8257507238814 L 925.109956662994 809.9310803979296 L 925.0567473630691 810.0361747954714 L 925.0012159468729 810.1410234071546 L 924.9433679675009 810.2456157482055 L 924.8832092097027 810.3499413594769 L 924.8207456893041 810.4539898084947 L 924.7559836526049 810.5577506905008 L 924.6889295757549 810.6612136294935 L 924.619590164106 810.764368279265 L 924.5479723515413 810.8672043244362 L 924.4740832997826 810.9697114814885 L 924.3979303976736 811.0718794997915 L 924.3195212604408 811.1736981626285 L 924.2388637289326 811.2751572882181 L 924.1559658688352 811.3762467307322 L 924.0708359698654 811.476956381311 L 923.9834825449419 811.5772761690731 L 923.8939143293347 811.6771960621236 L 923.8021402797907 811.7767060685562 L 923.7081695736383 811.8757962374534 L 923.6120116078697 811.9744566598807 L 923.5136759982016 812.0726774698782 L 923.4131725781128 812.1704488454467 L 923.3105113978617 812.2677610095301 L 923.2057027234806 812.3646042309931 L 923.0987570357497 812.4609688255944 L 922.9896850291487 812.5568451569546 L 922.8784976107875 812.6522236375206 L 922.7652058993149 812.7470947295238 L 922.649821223808 812.8414489459341 L 922.5323551226379 812.9352768514084 L 922.412819342317 813.0285690632344 L 922.2912258363237 813.1213162522686 L 922.1675867639074 813.2135091438695 L 922.041914488872 813.3051385188246 L 921.9142215783405 813.3961952142729 L 921.7845208014975 813.4866701246208 L 921.6528251283125 813.5765542024525 L 921.5191477282433 813.6658384594351 L 921.3835019689184 813.7545139672175 L 921.2459014148005 813.8425718583226 L 921.1063598258306 813.9300033270348 L 920.9648911560513 814.0167996302802 L 920.8215095522115 814.1029520885005 L 920.6762293523524 814.1884520865218 L 920.5290650843725 814.2732910744157 L 920.3800314645764 814.357460568354 L 920.2291433962015 814.4409521514574 L 920.0764159679292 814.5237574746373 L 919.9218644523748 814.6058682574301 L 919.7655043045614 814.6872762888263 L 919.6073511603731 814.7679734280904 L 919.4474208349928 814.8479516055758 L 919.2857293213196 814.9272028235312 L 919.1222927883704 815.0057191569011 L 918.9571275796618 815.0834927541175 L 918.7902502115775 815.1605158378856 L 918.621677371715 815.236780705961 L 918.4514259172179 815.3122797319205 L 918.2795128730897 815.3870053659246 L 918.1059554304917 815.4609501354719 L 917.9307709450234 815.5341066461473 L 917.7539769349873 815.6064675823604 L 917.5755910796373 815.6780257080783 L 917.39563121741 815.7487738675478 L 917.214115344142 815.8187049860119 L 917.031061611269 815.8878120704171 L 916.8464883240121 815.9560882101125 L 916.6604139395458 816.023526577541 L 916.4728570651539 816.0901204289222 L 916.2838364563672 816.1558631049263 L 916.0933710150894 816.2207480313406 L 915.9014797877055 816.2847687197265 L 915.7081819631787 816.3479187680684 L 915.5134968711302 816.4101918614142 L 915.317443979907 816.4715817725065 L 915.1200428946348 816.5320823624053 L 914.9213133552578 816.591687581102 L 914.721275234564 816.6503914681243 L 914.5199485361991 816.7081881531326 L 914.317353392665 816.7650718565066 L 914.1135100633072 816.8210368899231 L 913.908438932289 816.8760776569256 L 913.7021605065522 816.9301886534834 L 913.4946954137679 816.9833644685416 L 913.2860644002722 817.0355997845631 L 913.0762883289927 817.08688937806 L 912.8653881773618 817.1372281201157 L 912.6533850352187 817.1866109768976 L 912.440300102701 817.2350330101615 L 912.2261546881247 817.2824893777444 L 912.0109702058523 817.3289753340489 L 911.7947681741531 817.3744862305183 L 911.57757021305 817.4190175161008 L 911.359398042158 817.462564737705 L 911.1402734785124 817.5051235406448 L 910.920218434387 817.5466896690757 L 910.699254915103 817.5872589664194 L 910.477405016828 817.6268273757798 L 910.254690924367 817.6653909403492 L 910.0311349089435 817.702945803803 L 909.8067593259731 817.7394882106864 L 909.5815866128268 817.775014506789 L 909.3556392865884 817.8095211395108 L 909.1289399418022 817.8430046582175 L 908.9015112482138 817.8754617145848 L 908.6733759485029 817.9068890629344 L 908.4445568560096 817.9372835605575 L 908.2150768524523 817.9666421680296 L 907.9849588856403 817.9949619495146 L 907.7542259671782 818.0222400730578 L 907.5229011701658 818.0484738108697 L 907.29100762689 818.0736605395983 L 907.0585685265119 818.0977977405918 L 906.8256071127478 818.1208830001501 L 906.5921466815448 818.1429140097665 L 906.3582105787518 818.1638885663585 L 906.1238221977839 818.1838045724879 L 905.8890049772839 818.2026600365706 L 905.6537823987783 818.2204530730759 L 905.4181779843286 818.2371819027151 L 905.1822152941803 818.252844852619 L 904.9459179244056 818.2674403565057 L 904.7093095045446 818.2809669548371 L 904.472413695242 818.2934232949647 L 904.2352541858816 818.3048081312646 L 903.9978546922164 818.3151203252628 L 903.7602389539979 818.3243588457485 L 903.5224307326023 818.3325227688774 L 903.2844538086532 818.3396112782639 L 903.0463319796448 818.3456236650629 L 902.8080890575617 818.350559328041 L 902.5697488664973 818.3544177736358 L 902.3313352402723 818.3571986160059 L 902.0928720200505 818.3589015770696 L 901.8543830519554 818.359526486532 L 901.6158921846849 818.3590732819027 L 901.377423267127 818.357542008502 L 901.1390001459748 818.3549328194558 L 900.9006466633418 818.3512459756807 L 900.6623866543774 818.3464818458584 L 900.4242439448842 818.3406409063975 L 900.1862423489346 818.3337237413873 L 899.9484056664897 818.3257310425385 L 899.7107576810198 818.3166636091142 L 899.4733221571253 818.3065223478503 L 899.2361228381606 818.2953082728645 L 898.9991834438601 818.283022505555 L 898.7625276679659 818.2696662744881 L 898.526179175858 818.255240915276 L 898.290161602189 818.2397478704424 L 898.0544985485194 818.223188689279 L 897.8192135809583 818.2055650276901 L 897.5843302278063 818.1868786480271 L 897.349871977203 818.1671314189124 L 897.1158622747781 818.1463253150526 L 896.8823245213067 818.1244624170406 L 896.6492820703698 818.101544911148 L 896.4167582260181 818.0775750891064 L 896.1847762404423 818.052555347878 L 895.9533593116477 818.0264881894159 L 895.7225305811342 817.9993762204143 L 895.4923131315826 817.9712221520477 L 895.262729984546 817.9420287996993 L 895.0338040981477 817.91179908268 L 894.8055583647857 817.8805360239363 L 894.5780156088431 817.8482427497482 L 894.3511985844058 817.814922489416 L 894.1251299729873 817.7805785749381 L 893.8998323812604 817.7452144406772 L 893.6753283387962 817.7088336230173 L 893.4516402958124 817.67143976001 L 893.2287906209265 817.6330365910102 L 893.0068015989203 817.593627956303 L 892.7856954285113 817.5532177967189 L 892.5654942201319 817.5118101532402 L 892.3462199937197 817.4694091665967 L 892.1278946765145 817.426019076852 L 891.9105401008661 817.3816442229786 L 891.6941780020511 817.336289042425 L 891.4788300160988 817.2899580706716 L 891.2645176776285 817.2426559407767 L 891.0512624176954 817.1943873829141 L 890.839085561648 817.1451572238993 L 890.6280083269946 817.0949703867071 L 890.4180518212833 817.0438318899795 L 890.2092370399894 816.9917468475235 L 890.001584864417 816.9387204678 L 889.7951160596109 816.8847580534027 L 889.5898512722792 816.8298650005281 L 889.3858110287298 816.7740467984357 L 889.1830157328168 816.7173090288994 L 888.981485663901 816.6596573656486 L 888.7812409748213 816.6010975738018 L 888.5823016898797 816.5416355092892 L 888.384687702839 816.4812771182678 L 888.1884187749331 816.4200284365264 L 887.9935145328913 816.3578955888821 L 887.7999944669754 816.294884788568 L 887.6078779290306 816.2310023366115 L 887.4171841305508 816.1662546212045 L 887.2279321407568 816.1006481170648 L 887.0401408846899 816.034189384788 L 886.8538291413192 815.9668850701919 L 886.6690155416638 815.898741903652 L 886.4857185669298 815.8297666994281 L 886.3039565466615 815.7599663549831 L 886.12374765691 815.6893478502934 L 885.9451099184138 815.6179182471506 L 885.7680611947978 815.5456846884553 L 885.592619190787 815.4726543975033 L 885.4188014504356 815.398834677263 L 885.2466253553727 815.3242329096447 L 885.0761081230643 815.248856554763 L 884.9072668050917 815.1727131501907 L 884.7401182854458 815.0958103102047 L 884.5746792788394 815.0181557250249 L 884.4109663290352 814.9397571600452 L 884.2489958071919 814.8606224550568 L 884.0887839102267 814.7807595234641 L 883.9303466591955 814.7001763514937 L 883.7736998976917 814.6188809973959 L 883.6188592902608 814.536881590638 L 883.4658403208346 814.4541863310926 L 883.3146582911822 814.3708034882168 L 883.1653283193809 814.2867414002251 L 883.0178653383034 814.2020084732565 L 882.8722840941249 814.116613180533 L 882.7285991448484 814.0305640615127 L 882.5868248588492 813.9438697210359 L 882.4469754134378 813.8565388284642 L 882.3090647934421 813.7685801168142 L 882.173106789809 813.6800023818838 L 882.039114998226 813.5908144813726 L 881.9071028177602 813.5010253339965 L 881.7770834495199 813.4106439185952 L 881.6490698953334 813.3196792732349 L 881.5230749564495 813.2281404943046 L 881.3991112322572 813.1360367356057 L 881.2771911190255 813.0433772074373 L 881.157326808664 812.9501711756751 L 881.0395302875041 812.8564279608446 L 880.9238133350997 812.7621569371892 L 880.8101875230494 812.6673675317326 L 880.6986642138401 812.5720692233363 L 880.5892545597094 812.4762715417519 L 880.4819695015317 812.3799840666677 L 880.3768197677234 812.2832164267509 L 880.2738158731704 812.1859782986847 L 880.1729681181761 812.0882794062012 L 880.074286587432 811.9901295191081 L 879.977781149009 811.8915384523123 L 879.8834614533706 811.7925160648382 L 879.7913369324076 811.6930722588422 L 879.7014167984954 811.5932169786221 L 879.6137100435725 811.4929602096224 L 879.5282254382412 811.3923119774367 L 879.4449715308909 811.2912823468043 L 879.3639566468429 811.1898814206041 L 879.2851888875181 811.0881193388441 L 879.2086761296268 810.9860062776478 L 879.134426024381 810.8835524482362 L 879.0624459967295 810.7807680959068 L 878.9927432446148 810.6776634990092 L 878.9253247382543 810.5742489679172 L 878.8601972194423 810.4705348439977 L 878.7973672008764 810.3665314985768 L 878.7368409655062 810.2622493319021 L 878.6786245659047 810.1576987721037 L 878.6227238236635 810.0528902741502 L 878.56914432881 809.947834318804 L 878.5178914392492 809.8425414115734 L 878.4689702802274 809.737022081661 L 878.4223857438195 809.6312868809123 L 878.3781424884406 809.5253463827588 L 878.3362449383792 809.4192111811624 L 878.2966972833555 809.3128918895546 L 878.2595034781018 809.2063991397761 L 878.224667241968 809.099743581013 L 878.1921920585482 808.9929358787324 L 878.1620811753343 808.8859867136155 L 878.134337603389 808.7789067804896 L 878.1089641170466 808.6717067872588 L 878.0859632536346 808.5643974538332 L 878.0653373132202 808.4569895110567 L 878.04708835838 808.349493699634 L 878.0312182139946 808.2419207690567 L 878.0177284670651 808.1342814765281 L 878.0066204665549 808.026586585888 L 877.9978953232549 807.9188468665355 L 877.9915539096719 807.8110730923529 L 877.9875968599423 807.7032760406277 L 877.9860245697676 807.5954664909752" stroke-miterlimit="10" stroke-width="2.7769845610000004" stroke-dasharray=""/></g><g><g/><text fill="black" stroke="none" font-family="sans-serif" font-size="11pt" font-style="normal" font-weight="normal" text-decoration="normal" x="870.4574461939453" y="756.008058908818" text-anchor="start" dominant-baseline="alphabetic" xml:space="preserve">Database</text></g></g><g><path fill="white" stroke="black" paint-order="fill stroke markers" d=" M 73.50841485 182.64242307881818 L 89.84361814999998 182.64242307881818 L 89.84361814999998 682.499644058818 L 73.50841485 682.499644058818 L 73.50841485 182.64242307881818" stroke-miterlimit="10" stroke-width="1.3612669416666667" stroke-dasharray=""/><path fill="white" stroke="black" paint-order="fill stroke markers" d=" M 364.06263806653646 182.64242307881818 L 380.39784136653645 182.64242307881818 L 380.39784136653645 682.499644058818 L 364.06263806653646 682.499644058818 L 364.06263806653646 182.64242307881818" stroke-miterlimit="10" stroke-width="1.3612669416666667" stroke-dasharray=""/><path fill="white" stroke="black" paint-order="fill stroke markers" d=" M 628.396417557487 228.3809923188182 L 644.7316208574871 228.3809923188182 L 644.7316208574871 682.499644058818 L 628.396417557487 682.499644058818 L 628.396417557487 228.3809923188182" stroke-miterlimit="10" stroke-width="1.3612669416666667" stroke-dasharray=""/><g><text fill="black" stroke="none" font-family="sans-serif" font-size="16pt" font-style="normal" font-weight="normal" text-decoration="normal" x="387.8906784057617" y="24.651306798181814" text-anchor="start" dominant-baseline="alphabetic" xml:space="preserve">Todchvtheonh</text></g><g><rect fill="white" stroke="none" x="109.17360872166667" y="161.4066587888182" width="235.55903877320313" height="21.23576429"/><text fill="black" stroke="none" font-family="sans-serif" font-size="11pt" font-style="normal" font-weight="normal" text-decoration="normal" x="111.62388921666667" y="176.10834175881817" text-anchor="start" dominant-baseline="alphabetic" xml:space="preserve">Chnnhvnhpthngtindchv</text></g><g><path fill="none" stroke="black" paint-order="fill stroke markers" d=" M 89.84361814999998 182.64242307881818 L 350.6133206828698 182.64242307881818" stroke-miterlimit="10" stroke-width="1.3612669416666667" stroke-dasharray=""/><g transform="translate(364.06263806653646,182.64242307881818) translate(-364.06263806653646,-182.64242307881818)"><path fill="black" stroke="none" paint-order="stroke fill markers" d=" M 350.4499686498698 175.83608837048484 L 364.06263806653646 182.64242307881818 L 350.4499686498698 189.44875778715152 Z"/></g></g><g><rect fill="white" stroke="none" x="410.24680624240233" y="207.1452280288182" width="188.30064643921875" height="21.23576429"/><text fill="black" stroke="none" font-family="sans-serif" font-size="11pt" font-style="normal" font-weight="normal" text-decoration="normal" x="412.69708673740234" y="221.84691099881817" text-anchor="start" dominant-baseline="alphabetic" xml:space="preserve">Githngtinnhvdchv</text></g><g><path fill="none" stroke="black" paint-order="fill stroke markers" d=" M 380.39784136653645 228.3809923188182 L 614.9471001738203 228.3809923188182" stroke-miterlimit="10" stroke-width="1.3612669416666667" stroke-dasharray=""/><g transform="translate(628.396417557487,228.3809923188182) translate(-628.396417557487,-228.3809923188182)"><path fill="black" stroke="none" paint-order="stroke fill markers" d=" M 614.7837481408203 221.57465761048485 L 628.396417557487 228.3809923188182 L 614.7837481408203 235.18732702715153 Z"/></g></g><g><rect fill="white" stroke="none" x="664.0616114291538" y="252.88379726881823" width="103.49751533570313" height="21.23576429"/><text fill="black" stroke="none" font-family="sans-serif" font-size="11pt" font-style="normal" font-weight="normal" text-decoration="normal" x="666.5118919241538" y="267.5854802388182" text-anchor="start" dominant-baseline="alphabetic" xml:space="preserve">Kimtraquyn</text></g><g><path fill="none" stroke="black" paint-order="fill stroke markers" d=" M 644.7316208574871 274.1195615588182 L 710.072434057487 274.1195615588182 L 710.072434057487 295.3553258488182 L 658.1809382411537 295.3553258488182" stroke-miterlimit="10" stroke-width="1.3612669416666667" stroke-dasharray=""/><g transform="translate(644.7316208574871,295.3553258488182) translate(-644.7316208574871,-295.3553258488182)"><path fill="black" stroke="none" paint-order="stroke fill markers" d=" M 658.3442902741538 288.5489911404849 L 644.7316208574871 295.3553258488182 L 658.3442902741538 302.16166055715155 Z"/></g></g><g><rect fill="white" stroke="none" x="684.136753335892" y="363.9631797088182" width="178.2935053259375" height="21.23576429"/><text fill="black" stroke="none" font-family="sans-serif" font-size="11pt" font-style="normal" font-weight="normal" text-decoration="normal" x="686.587033830892" y="378.66486267881817" text-anchor="start" dominant-baseline="alphabetic" xml:space="preserve">Thmdchvmichonh</text></g><g><path fill="none" stroke="black" paint-order="fill stroke markers" d=" M 644.7316208574871 385.1989439988182 L 888.3860737565677 385.1989439988182" stroke-miterlimit="10" stroke-width="1.3612669416666667" stroke-dasharray=""/><g transform="translate(901.8353911402344,385.1989439988182) translate(-901.8353911402344,-385.1989439988182)"><path fill="black" stroke="none" paint-order="stroke fill markers" d=" M 888.2227217235677 378.39260929048487 L 901.8353911402344 385.1989439988182 L 888.2227217235677 392.00527870715155 Z"/></g></g><g><rect fill="white" stroke="none" x="664.0616114291537" y="409.7017489488182" width="218.44378913941406" height="21.23576429"/><text fill="black" stroke="none" font-family="sans-serif" font-size="11pt" font-style="normal" font-weight="normal" text-decoration="normal" x="666.5118919241537" y="424.40343191881817" text-anchor="start" dominant-baseline="alphabetic" xml:space="preserve">Xcnhntodchvthnhcng</text></g><g><path fill="none" stroke="black" paint-order="fill stroke markers" d=" M 901.8353911402344 430.9375132388182 L 658.1809382411537 430.9375132388182" stroke-miterlimit="10" stroke-width="1.3612669416666667" stroke-dasharray="6.53408132"/><g transform="translate(644.7316208574871,430.9375132388182) translate(-644.7316208574871,-430.9375132388182)"><path fill="black" stroke="none" paint-order="stroke fill markers" d=" M 658.3442902741538 424.1311785304849 L 644.7316208574871 430.9375132388182 L 658.3442902741538 437.74384794715155 Z"/></g></g><g><rect fill="white" stroke="none" x="399.7278319382031" y="455.4403181888182" width="209.3385950476172" height="21.23576429"/><text fill="black" stroke="none" font-family="sans-serif" font-size="11pt" font-style="normal" font-weight="normal" text-decoration="normal" x="402.1781124332031" y="470.1420011588182" text-anchor="start" dominant-baseline="alphabetic" xml:space="preserve">Thngbodchvcto</text></g><g><path fill="none" stroke="black" paint-order="fill stroke markers" d=" M 628.396417557487 476.6760824788182 L 393.8471587502031 476.6760824788182" stroke-miterlimit="10" stroke-width="1.3612669416666667" stroke-dasharray="6.53408132"/><g transform="translate(380.39784136653645,476.6760824788182) translate(-380.39784136653645,-476.6760824788182)"><path fill="black" stroke="none" paint-order="stroke fill markers" d=" M 394.01051078320313 469.8697477704849 L 380.39784136653645 476.6760824788182 L 394.01051078320313 483.48241718715155 Z"/></g></g><g><rect fill="white" stroke="none" x="126.69328493016276" y="501.17888742881814" width="200.51968635621094" height="21.23576429"/><text fill="black" stroke="none" font-family="sans-serif" font-size="11pt" font-style="normal" font-weight="normal" text-decoration="normal" x="129.14356542516276" y="515.8805703988181" text-anchor="start" dominant-baseline="alphabetic" xml:space="preserve">Hinththngbothnhcng</text></g><g><path fill="none" stroke="black" paint-order="fill stroke markers" d=" M 364.06263806653646 522.4146517188182 L 103.29293553366665 522.4146517188182" stroke-miterlimit="10" stroke-width="1.3612669416666667" stroke-dasharray="6.53408132"/><g transform="translate(89.84361814999998,522.4146517188182) translate(-89.84361814999998,-522.4146517188182)"><path fill="black" stroke="none" paint-order="stroke fill markers" d=" M 103.45628756666665 515.6083170104848 L 89.84361814999998 522.4146517188182 L 103.45628756666665 529.2209864271515 Z"/></g></g><g><rect fill="white" stroke="none" x="407.4085875534375" y="591.022505578818" width="193.97708381714844" height="21.23576429"/><text fill="black" stroke="none" font-family="sans-serif" font-size="11pt" font-style="normal" font-weight="normal" text-decoration="normal" x="409.8588680484375" y="605.724188548818" text-anchor="start" dominant-baseline="alphabetic" xml:space="preserve">Thngboliquyntruycp</text></g><g><path fill="none" stroke="black" paint-order="fill stroke markers" d=" M 628.396417557487 612.258269868818 L 393.8471587502031 612.258269868818" stroke-miterlimit="10" stroke-width="1.3612669416666667" stroke-dasharray="6.53408132"/><g transform="translate(380.39784136653645,612.258269868818) translate(-380.39784136653645,-612.258269868818)"><path fill="black" stroke="none" paint-order="stroke fill markers" d=" M 394.01051078320313 605.4519351604847 L 380.39784136653645 612.258269868818 L 394.01051078320313 619.0646045771514 Z"/></g></g><g><rect fill="white" stroke="none" x="138.92305940526043" y="636.761074818818" width="176.06013740601563" height="21.23576429"/><text fill="black" stroke="none" font-family="sans-serif" font-size="11pt" font-style="normal" font-weight="normal" text-decoration="normal" x="141.37333990026042" y="651.462757788818" text-anchor="start" dominant-baseline="alphabetic" xml:space="preserve">Hinththngbothtbi</text></g><g><path fill="none" stroke="black" paint-order="fill stroke markers" d=" M 364.06263806653646 657.996839108818 L 103.29293553366665 657.996839108818" stroke-miterlimit="10" stroke-width="1.3612669416666667" stroke-dasharray="6.53408132"/><g transform="translate(89.84361814999998,657.996839108818) translate(-89.84361814999998,-657.996839108818)"><path fill="black" stroke="none" paint-order="stroke fill markers" d=" M 103.45628756666665 651.1905044004847 L 89.84361814999998 657.996839108818 L 103.45628756666665 664.8031738171513 Z"/></g></g><g><g/><path fill="none" stroke="black" paint-order="fill stroke markers" d=" M 16.33520329999999 319.8581307988182 L 959.0086026902344 319.8581307988182 L 959.0086026902344 682.499644058818 L 16.33520329999999 682.499644058818 L 16.33520329999999 319.8581307988182 Z" stroke-miterlimit="10" stroke-width="2.3336004714285714" stroke-dasharray=""/><path fill="white" stroke="black" paint-order="fill stroke markers" d=" M 16.33520329999999 319.8581307988182 L 16.33520329999999 339.4603747588182 L 62.6944068970703 339.4603747588182 L 72.4955288770703 329.6592527788182 L 72.4955288770703 319.8581307988182 L 16.33520329999999 319.8581307988182" stroke-miterlimit="10" stroke-width="2.3336004714285714" stroke-dasharray=""/><text fill="black" stroke="none" font-family="sans-serif" font-size="8.8pt" font-style="normal" font-weight="bold" text-decoration="normal" x="32.67040659999999" y="332.9262934388182" text-anchor="start" dominant-baseline="alphabetic" xml:space="preserve">alt</text><g><rect fill="white" stroke="none" x="86.3804516820703" y="321.1649470628182" width="88.1846186071875" height="16.988611432000003"/></g><text fill="black" stroke="none" font-family="sans-serif" font-size="8.8pt" font-style="normal" font-weight="bold" text-decoration="normal" x="88.8307321770703" y="332.9262934388182" text-anchor="start" dominant-baseline="alphabetic" xml:space="preserve">[Quynhpl]</text><g><path fill="none" stroke="black" paint-order="fill stroke markers" d=" M 16.33520329999999 546.9174566688181 L 959.0086026902344 546.9174566688181" stroke-miterlimit="10" stroke-width="2.3336004714285714" stroke-dasharray="4.083800825"/></g><g/><g><rect fill="white" stroke="none" x="86.3804516820703" y="548.224272932818" width="126.62782539429688" height="16.988611432000003"/></g><text fill="black" stroke="none" font-family="sans-serif" font-size="8.8pt" font-style="normal" font-weight="bold" text-decoration="normal" x="88.8307321770703" y="559.9856193088181" text-anchor="start" dominant-baseline="alphabetic" xml:space="preserve">[Quynkhnghpl]</text></g><g/></g><g/><g/><g/><g/></g></svg>