<svg xmlns="http://www.w3.org/2000/svg" xmlns:xlink="http://www.w3.org/1999/xlink" version="1.1" width="1055.8995780496743" height="897.307567453818"><desc>title%20X%C3%B3a%20d%E1%BB%8Bch%20v%E1%BB%A5%20(bao%20g%E1%BB%93m%20x%C3%B3a%20trong%20d%E1%BB%8Bch%20v%E1%BB%A5%20ph%C3%B2ng)%0A%0Abottomparticipants%0A%0Aactor%20Landlord%0Aentity%20Client%0Aentity%20Backend%0Adatabase%20Database%0A%0ALandlord%20-%3E%20Client%3A%20Ch%E1%BB%8Dn%20d%E1%BB%8Bch%20v%E1%BB%A5%20c%E1%BA%A7n%20x%C3%B3a%0Aactivate%20Landlord%0Aactivate%20Client%0A%0AClient%20-%3E%20Backend%3A%20G%E1%BB%ADi%20ID%20d%E1%BB%8Bch%20v%E1%BB%A5%20c%E1%BA%A7n%20x%C3%B3a%0Aactivate%20Backend%0A%0ABackend%20-%3E%20Backend%3A%20Ki%E1%BB%83m%20tra%20quy%E1%BB%81n%0Aalt%20Quy%E1%BB%81n%20h%E1%BB%A3p%20l%E1%BB%87%0A%20%20%20%20activate%20Database%0A%20%20%20%20Backend%20-%3E%20Database%3A%20X%C3%B3a%20d%E1%BB%8Bch%20v%E1%BB%A5%20nh%C3%A0%0A%20%20%20%20Database%20-%3E%20Database%3A%20Th%E1%BB%B1c%20hi%E1%BB%87n%20x%C3%B3a%20d%E1%BB%8Bch%20v%E1%BB%A5%20ph%C3%B2ng%0A%20%20%20%20Database%20--%3E%20Backend%3A%20X%C3%A1c%20nh%E1%BA%ADn%20x%C3%B3a%20th%C3%A0nh%20c%C3%B4ng%0A%20%20%20%20Backend%20--%3E%20Client%3A%20Th%C3%B4ng%20b%C3%A1o%20x%C3%B3a%20th%C3%A0nh%20c%C3%B4ng%0A%20%20%20%20Client%20--%3E%20Landlord%3A%20Hi%E1%BB%83n%20th%E1%BB%8B%20th%C3%B4ng%20b%C3%A1o%20th%C3%A0nh%20c%C3%B4ng%0Aelse%20Quy%E1%BB%81n%20kh%C3%B4ng%20h%E1%BB%A3p%20l%E1%BB%87%0A%20%20%20%20Backend%20--%3E%20Client%3A%20Th%C3%B4ng%20b%C3%A1o%20l%E1%BB%97i%20quy%E1%BB%81n%20truy%20c%E1%BA%ADp%0A%20%20%20%20Client%20--%3E%20Landlord%3A%20Hi%E1%BB%83n%20th%E1%BB%8B%20th%C3%B4ng%20b%C3%A1o%20th%E1%BA%A5t%20b%E1%BA%A1i%0Aend%0A%0Adeactivate%20Backend%0Adeactivate%20Client%0Adeactivate%20Landlord%0Adeactivate%20Database</desc><defs/><g><g/><g/><g/><g/><g/><g/><g/><g/><g/><g/><g/><g/><g/><g/><g/><g/><g/><g/><g/><g/><g/><g/><g/><g/><g/><g/><g/><g/><g/><g/><g/><g/><g/><g/><g/><g/><g/><g/><g/><g/><g/><g/><g/><g/><g/><g/><g/><g/><g/><g/><g/><g/><g/><g/><g/><g/><g/><g/><g/><g/><g/><g/><g/><g/><g/><g/><g/><g/><g/><g/><g/><g/><g/><g/><g/><g/><g/><g/><g/><g/><g/><g/><g/><g/><g/><g/><g/><g/><g/><g/><g/><g/><g/><g/><g/><g/><g/><g/><g/><g/><g/><g/><g/><g/><g/><g/><g/><g/><g/><g/><g/><g/><g/><g/><g/><g/><g/><g/><g/><g/><g/><g/><g/><g/><g><rect fill="white" stroke="none" x="0" y="0" width="1055" height="897"/></g><g/><g><path fill="none" stroke="black" paint-order="fill stroke markers" d=" M 81.67601649999999 128.73625218881818 L 81.67601649999999 806.647189138818" stroke-miterlimit="10" stroke-width="1.3612669416666667" stroke-dasharray="12.565541,5.445067766666667"/><path fill="none" stroke="black" paint-order="fill stroke markers" d=" M 337.1908872995442 128.73625218881818 L 337.1908872995442 806.647189138818" stroke-miterlimit="10" stroke-width="1.3612669416666667" stroke-dasharray="12.565541,5.445067766666667"/><path fill="none" stroke="black" paint-order="fill stroke markers" d=" M 586.163155560026 128.73625218881818 L 586.163155560026 806.647189138818" stroke-miterlimit="10" stroke-width="1.3612669416666667" stroke-dasharray="12.565541,5.445067766666667"/><path fill="none" stroke="black" paint-order="fill stroke markers" d=" M 812.3365804367187 128.73625218881818 L 812.3365804367187 806.647189138818" stroke-miterlimit="10" stroke-width="1.3612669416666667" stroke-dasharray="12.565541,5.445067766666667"/></g><g><g><path fill="white" stroke="black" paint-order="fill stroke markers" d=" M 90.987082381 59.63834222981819 A 9.311065881 9.311065881 0 1 1 90.98707772546743 59.62903116548903 M 81.67601649999999 68.9494081108182 L 81.67601649999999 88.8783561368182 M 69.914670124 76.13689756281819 L 93.43736287599998 76.13689756281819 M 81.67601649999999 88.8783561368182 L 69.914670124 107.50048789881819 M 81.67601649999999 88.8783561368182 L 93.43736287599998 107.50048789881819" stroke-miterlimit="10" stroke-width="2.7769845610000004" stroke-dasharray=""/></g><g><g/><text fill="black" stroke="none" font-family="sans-serif" font-size="11pt" font-style="normal" font-weight="normal" text-decoration="normal" x="53.1470400595703" y="123.83569119881818" text-anchor="start" dominant-baseline="alphabetic" xml:space="preserve">Landlord</text></g><g><path fill="white" stroke="black" paint-order="fill stroke markers" d=" M 361.4486642000442 79.63263106901819 A 24.2577769005 24.2577769005 0 1 1 361.4486520711568 79.60837329616064 M 311.54461811854424 106.11199561831819 L 362.8371564805442 106.11199561831819" stroke-miterlimit="10" stroke-width="2.7769845610000004" stroke-dasharray=""/></g><g><g/><text fill="black" stroke="none" font-family="sans-serif" font-size="11pt" font-style="normal" font-weight="normal" text-decoration="normal" x="318.45073684788406" y="123.83569119881818" text-anchor="start" dominant-baseline="alphabetic" xml:space="preserve">Client</text></g><g><path fill="white" stroke="black" paint-order="fill stroke markers" d=" M 610.4209324605259 79.63263106901819 A 24.2577769005 24.2577769005 0 1 1 610.4209203316385 79.60837329616064 M 560.516886379026 106.11199561831819 L 611.809424741026 106.11199561831819" stroke-miterlimit="10" stroke-width="2.7769845610000004" stroke-dasharray=""/></g><g><g/><text fill="black" stroke="none" font-family="sans-serif" font-size="11pt" font-style="normal" font-weight="normal" text-decoration="normal" x="557.6377573056315" y="123.83569119881818" text-anchor="start" dominant-baseline="alphabetic" xml:space="preserve">Backend</text></g><g><path fill="white" stroke="black" paint-order="fill stroke markers" d=" M 788.4871836187187 96.71925372081819 L 788.4871836187187 62.41532679081819 L 836.1859772547186 62.41532679081819 L 836.1859772547186 96.71925372081819" stroke-miterlimit="10" stroke-width="2.7769845610000004" stroke-dasharray=""/><path fill="white" stroke="black" paint-order="fill stroke markers" d=" M 836.1859772547186 61.22285694991819 L 836.184784794815 61.33066749483481 L 836.1812075343489 61.43846725878678 L 836.1752458310436 61.546245461887544 L 836.1669002810643 61.65399132640659 L 836.1561717189591 61.761694077847274 L 836.1430612175752 61.86934294602419 L 836.127570087952 61.976927166140236 L 836.1096998791894 62.084435979863045 L 836.0894523782933 62.19185863640084 L 836.0668296099972 62.299184393577484 L 836.0418338365588 62.4064025189067 L 836.0144675575348 62.51350229066531 L 835.9847335095302 62.62047299896537 L 835.9526346659251 62.7273039468252 L 835.918174236577 62.83398445123905 L 835.8813556675002 62.94050384424536 L 835.8421826405208 63.04685147399361 L 835.8006590729091 63.15301670580944 L 835.7567891169871 63.25898892325815 L 835.7105771597137 63.364757529206294 L 835.6620278222464 63.47031194688142 L 835.6111459594783 63.575641620929716 L 835.5579366595534 63.68073601847156 L 835.5024052433572 63.78558463015478 L 835.4445572639852 63.89017697120557 L 835.384398506187 63.994502582477 L 835.3219349857884 64.09855103149486 L 835.2571729490892 64.20231191350096 L 835.1901188722392 64.3057748524936 L 835.1207794605903 64.40892950226505 L 835.0491616480256 64.51176554743633 L 834.9752725962669 64.61427270448858 L 834.8991196941579 64.71644072279157 L 834.8207105569251 64.81825938562858 L 834.740053025417 64.91971851121816 L 834.6571551653195 65.02080795373233 L 834.5720252663497 65.12151760431107 L 834.4846718414262 65.22183739207324 L 834.395103625819 65.32175728512367 L 834.303329576275 65.42126729155632 L 834.2093588701225 65.52035746045347 L 834.113200904354 65.6190178828808 L 834.0148652946859 65.71723869287828 L 833.914361874597 65.81501006844678 L 833.811700694346 65.91232223253022 L 833.7068920199649 66.00916545399325 L 833.599946332234 66.10553004859446 L 833.4908743256331 66.20140637995469 L 833.3796869072718 66.29678486052069 L 833.2663951957992 66.39165595252388 L 833.1510105202923 66.48601016893414 L 833.0335444191222 66.57983807440844 L 832.9140086388013 66.67313028623443 L 832.7924151328081 66.76587747526865 L 832.6687760603917 66.85807036686953 L 832.5431037853563 66.94969974182469 L 832.4154108748248 67.04075643727302 L 832.2857100979818 67.13123134762085 L 832.1540144247969 67.22111542545254 L 832.0203370247276 67.3103996824352 L 831.8846912654027 67.39907519021754 L 831.7470907112848 67.4871330813227 L 831.6075491223149 67.57456455003492 L 831.4660804525356 67.6613608532802 L 831.3226988486958 67.74751331150055 L 831.1774186488367 67.83301330952195 L 831.0302543808568 67.91785229741582 L 830.8812207610607 68.00202179135408 L 830.7303326926858 68.08551337445749 L 830.5776052644135 68.1683186976373 L 830.4230537488593 68.25042948043021 L 830.2666936010457 68.33183751182635 L 830.1085404568574 68.41253465109044 L 829.9486101314772 68.4925128285758 L 829.786918617804 68.5717640465313 L 829.6234820848547 68.65028037990122 L 829.4583168761461 68.72805397711764 L 829.2914395080618 68.80507706088565 L 829.1228666681993 68.88134192896105 L 828.9526152137022 68.95684095492061 L 828.780702169574 69.03156658892462 L 828.607144726976 69.10551135847197 L 828.4319602415077 69.17866786914732 L 828.2551662314717 69.25102880536058 L 828.0767803761216 69.3225869310784 L 827.8968205138943 69.39333509054786 L 827.7153046406263 69.46326620901198 L 827.5322509077533 69.53237329341717 L 827.3476776204964 69.60064943311258 L 827.1616032360301 69.66808780054113 L 826.9740463616382 69.7346816519223 L 826.7850257528515 69.80042432792644 L 826.5945603115737 69.86530925434072 L 826.4026690841898 69.92932994272657 L 826.209371259663 69.9924799910685 L 826.0146861676145 70.05475308441433 L 825.8186332763913 70.1161429955066 L 825.6212321911191 70.17664358540536 L 825.4225026517421 70.23624880410202 L 825.2224645310483 70.29495269112441 L 825.0211378326834 70.35274937613272 L 824.8185426891494 70.40963307950663 L 824.6146993597915 70.46559811292322 L 824.4096282287733 70.52063887992576 L 824.2033498030365 70.57474987648341 L 823.9958847102522 70.62792569154163 L 823.7872536967565 70.68016100756323 L 823.5774776254771 70.73145060106012 L 823.3665774738461 70.78178934311569 L 823.154574331703 70.8311721998977 L 822.9414893991853 70.8795942331616 L 822.727343984609 70.92705060074444 L 822.5121595023367 70.973536557049 L 822.2959574706374 71.01904745351838 L 822.0787595095343 71.06357873910088 L 821.8605873386423 71.10712596070502 L 821.6414627749967 71.14968476364494 L 821.4214077308714 71.19125089207583 L 821.2004442115873 71.23182018941947 L 820.9785943133123 71.27138859877994 L 820.7558802208513 71.30995216334925 L 820.5323242054278 71.34750702680313 L 820.3079486224574 71.38404943368649 L 820.0827759093111 71.4195757297891 L 819.8568285830727 71.45408236251096 L 819.6301292382865 71.48756588121756 L 819.4027005446981 71.52002293758491 L 819.1745652449872 71.55145028593446 L 818.9457461524939 71.58184478355753 L 818.7162661489366 71.61120339102969 L 818.4861481821246 71.63952317251467 L 818.2554152636625 71.66680129605793 L 818.0240904666501 71.69303503386982 L 817.7921969233743 71.71822176259843 L 817.5597578229962 71.7423589635919 L 817.3267964092321 71.7654442231502 L 817.0933359780291 71.78747523276665 L 816.8593998752361 71.80844978935863 L 816.6250114942682 71.82836579548797 L 816.3901942737682 71.84722125957065 L 816.1549716952626 71.86501429607597 L 815.9193672808129 71.8817431257151 L 815.6834045906646 71.89740607561903 L 815.44710722089 71.91200157950583 L 815.210498801029 71.92552817783725 L 814.9736029917264 71.93798451796474 L 814.7364434823659 71.94936935426468 L 814.4990439887007 71.95968154826289 L 814.2614282504823 71.96892006874862 L 814.0236200290866 71.97708399187748 L 813.7856431051375 71.98417250126396 L 813.5475212761291 71.99018488806304 L 813.309278354046 71.99512055104105 L 813.0709381629816 71.99897899663581 L 812.8325245367566 72.00175983900598 L 812.5940613165349 72.00346280006961 L 812.3555723484398 72.00408770953204 L 812.1170814811692 72.00363450490285 L 811.8786125636113 72.0021032315021 L 811.6401894424591 71.99949404245586 L 811.4018359598261 71.9958071986809 L 811.1635759508617 71.99104306885846 L 810.9254332413685 71.98520212939759 L 810.6874316454189 71.97828496438737 L 810.4495949629741 71.97029226553852 L 810.2119469775041 71.96122483211428 L 809.9745114536096 71.95108357085043 L 809.7373121346449 71.93986949586466 L 809.5003727403445 71.92758372855508 L 809.2637169644502 71.91422749748824 L 809.0273684723423 71.89980213827607 L 808.7913508986733 71.8843090934425 L 808.5556878450037 71.86774991227908 L 808.3204028774426 71.85012625069015 L 808.0855195242906 71.83143987102717 L 807.8510612736873 71.81169264191253 L 807.6170515712624 71.79088653805269 L 807.383513817791 71.7690236400407 L 807.1504713668542 71.74610613414815 L 806.9179475225025 71.72213631210651 L 806.6859655369266 71.69711657087802 L 806.454548608132 71.67104941241597 L 806.2237198776185 71.64393744341446 L 805.9935024280669 71.6157833750478 L 805.7639192810303 71.58659002269937 L 805.534993394632 71.55636030568009 L 805.30674766127 71.52509724693644 L 805.0792049053274 71.49280397274828 L 804.8523878808901 71.45948371241609 L 804.6263192694717 71.42513979793813 L 804.4010216777447 71.38977566367726 L 804.1765176352806 71.35339484601741 L 803.9528295922967 71.31600098301004 L 803.7299799174108 71.27759781401028 L 803.5079908954046 71.23818917930303 L 803.2868847249956 71.19777901971894 L 803.0666835166162 71.15637137624027 L 802.847409290204 71.11397038959687 L 802.6290839729988 71.07058029985207 L 802.4117293973504 71.02620544597868 L 802.1953672985354 70.98085026542512 L 801.9800193125831 70.93451929367163 L 801.7657069741128 70.8872171637768 L 801.5524517141797 70.8389486059142 L 801.3402748581323 70.78971844689937 L 801.129197623479 70.7395316097072 L 800.9192411177676 70.6883931129796 L 800.7104263364737 70.6363080705236 L 800.5027741609014 70.58328169080006 L 800.2963053560952 70.52931927640276 L 800.0910405687636 70.47442622352818 L 799.8870003252141 70.41860802143584 L 799.6842050293011 70.36187025189946 L 799.4826749603853 70.3042185886487 L 799.2824302713057 70.24565879680183 L 799.083490986364 70.18619673228926 L 798.8858769993233 70.12583834126788 L 798.6896080714174 70.06458965952649 L 798.4947038293756 70.00245681188221 L 798.3011837634597 69.93944601156807 L 798.1090672255149 69.87556355961155 L 797.9183734270351 69.81081584420461 L 797.7291214372411 69.74520934006487 L 797.5413301811742 69.67875060778805 L 797.3550184378036 69.61144629319199 L 797.1702048381482 69.54330312665208 L 796.9869078634141 69.47432792242817 L 796.805145843146 69.40452757798322 L 796.6249369533944 69.3339090732935 L 796.4462992148981 69.26247947015062 L 796.2692504912822 69.19024591145539 L 796.0938084872713 69.11721562050347 L 795.9199907469199 69.0433959002631 L 795.747814651857 68.96879413264479 L 795.5772974195486 68.89341777776313 L 795.408456101576 68.81727437319081 L 795.2413075819301 68.74037153320482 L 795.0758685753237 68.66271694802508 L 794.9121556255195 68.58431838304537 L 794.7501851036762 68.5051836780569 L 794.589973206711 68.4253207464642 L 794.4315359556798 68.34473757449386 L 794.274889194176 68.26344222039596 L 794.1200485867452 68.18144281363814 L 793.9670296173188 68.09874755409275 L 793.8158475876666 68.01536471121685 L 793.6665176158652 67.9313026232252 L 793.5190546347877 67.84656969625658 L 793.3734733906092 67.76117440353308 L 793.2297884413327 67.67512528451279 L 793.0880141553336 67.5884309440359 L 792.9481647099221 67.50110005146425 L 792.8102540899264 67.41314133981427 L 792.6742960862933 67.32456360488388 L 792.5403042947103 67.23537570437271 L 792.4082921142445 67.14558655699653 L 792.2782727460042 67.05520514159522 L 792.1502591918177 66.96424049623502 L 792.0242642529338 66.87270171730466 L 791.9003005287415 66.78059795860575 L 791.7783804155098 66.68793843043741 L 791.6585161051484 66.59473239867523 L 791.5407195839884 66.50098918384472 L 791.425002631584 66.40671816018926 L 791.3113768195337 66.31192875473263 L 791.1998535103244 66.2166304463364 L 791.0904438561937 66.120832764752 L 790.983158798016 66.02454528966774 L 790.8780090642077 65.92777764975091 L 790.7750051696547 65.83053952168484 L 790.6741574146604 65.73284062920132 L 790.5754758839163 65.63469074210818 L 790.4789704454934 65.53609967531233 L 790.3846507498549 65.4370772878383 L 790.2925262288919 65.33763348184232 L 790.2026060949797 65.23777820162212 L 790.1148993400568 65.13752143262249 L 790.0294147347255 65.03687320043682 L 789.9461608273753 64.93584356980442 L 789.8651459433272 64.83444264360419 L 789.7863781840024 64.73268056184422 L 789.7098654261112 64.63056750064791 L 789.6356153208653 64.52811367123628 L 789.5636352932138 64.42532931890689 L 789.4939325410991 64.32222472200931 L 789.4265140347386 64.21881019091732 L 789.3613865159266 64.11509606699785 L 789.2985564973607 64.01109272157687 L 789.2380302619905 63.90681055490224 L 789.179813862389 63.80225999510374 L 789.1239131201478 63.697451497150205 L 789.0703336252943 63.59239554180411 L 789.0190807357335 63.48710263457343 L 788.9701595767117 63.381583304661156 L 788.9235750403038 63.27584810391234 L 788.879331784925 63.16990760575894 L 788.8374342348635 63.06377240416249 L 788.7978865798398 62.95745311255472 L 788.7606927745861 62.85096036277616 L 788.7258565384523 62.744304804013076 L 788.6933813550326 62.63749710173245 L 788.6632704718186 62.530547936615505 L 788.6355268998733 62.423468003489624 L 788.610153413531 62.316268010258895 L 788.587152550119 62.208958676833305 L 788.5665266097045 62.10155073405677 L 788.5482776548644 61.99405492263407 L 788.532407510479 61.88648199205676 L 788.5189177635494 61.77884269952825 L 788.5078097630392 61.6711478088881 L 788.4990846197392 61.56340808953563 L 788.4927432061562 61.45563431535299 L 788.4887861564266 61.34783726362778 L 788.4872138662519 61.24002771397536 L 788.4880264928598 61.13221644726084 L 788.4912239549884 61.02441424452105 L 788.4968059328941 60.916631885886424 L 788.5047718683837 60.808880149503025 L 788.5151209648704 60.70116981045468 L 788.5278521874533 60.59351163968555 L 788.5429642630204 60.48591640292299 L 788.560455680377 60.378394859601016 L 788.5803246903959 60.27095776178435 L 788.6025693061924 60.163615853093255 L 788.6271873033239 60.05637986762915 L 788.6541762200109 59.949260528901206 L 788.6835333573842 59.84226854875404 L 788.7152557797548 59.7354146262965 L 788.7493403149067 59.62870944683179 L 788.7857835544147 59.52216368078894 L 788.8245818539855 59.41578798265577 L 788.8657313338211 59.30959298991343 L 788.9092278790082 59.203589321972714 L 788.9550671399282 59.09778757911208 L 789.0032445326934 58.992198341417634 L 789.0537552396047 58.88683216772516 L 789.1065942096333 58.78169959456423 L 789.1617561589264 58.67681113510454 L 789.219235571335 58.57217727810464 L 789.2790266989658 58.46780848686303 L 789.3411235627557 58.36371519817185 L 789.4055199530702 58.25990782127324 L 789.472209430324 58.15639673681838 L 789.5411853256248 58.053192295829454 L 789.6124407414407 57.950304818664556 L 789.6859685522893 57.84774459398567 L 789.7617614054509 57.745521877729786 L 789.8398117217033 57.64364689208335 L 789.9201116960801 57.54212982446004 L 790.0026532986504 57.44098082648201 L 790.0874282753232 57.340210012964775 L 790.1744281486712 57.2398274609057 L 790.2636442187795 57.13984320847635 L 790.3550675641156 57.040267254018644 L 790.4486890424212 56.94110955504505 L 790.5444992916262 56.84238002724283 L 790.6424887307858 56.74408854348249 L 790.7426475610376 56.646244932830506 L 790.8449657665822 56.54885897956639 L 790.949433115684 56.45194042220433 L 791.0560391616955 56.35549895251929 L 791.1647732441007 56.25954421457787 L 791.275624489582 56.16408580377391 L 791.3885818131074 56.06913326586893 L 791.5036339190385 55.974696096037604 L 791.6207693022607 55.88078373791821 L 791.739976249333 55.7874055826683 L 791.8612428396605 55.694570968025594 L 791.984556946685 55.60228917737418 L 792.1099062390983 55.51056943881623 L 792.237278182076 55.41942092424918 L 792.3666600385299 55.328852748448504 L 792.498038870382 55.23887396815633 L 792.6314015398585 55.14949358117568 L 792.7667347108039 55.0607205254708 L 792.9040248500138 54.97256367827326 L 793.0432582285886 54.88503185519433 L 793.1844209233064 54.79813380934336 L 793.3274988180156 54.71187823045254 L 793.4724776050457 54.62627374400786 L 793.619342786639 54.541328910386646 L 793.7680796763997 54.45705222400146 L 793.9186734007626 54.373452112450714 L 794.071108900481 54.290536935675895 L 794.2253709321318 54.20831498512558 L 794.3814440696405 54.12679448292632 L 794.5393127058232 54.0459835810604 L 794.6989610539482 53.965890360550645 L 794.8603731493133 53.88652283065238 L 795.0235328508438 53.80788892805245 L 795.1884238427053 53.72999651607559 L 795.3550296359363 53.652853383898076 L 795.523333570096 53.57646724576885 L 795.6933188149313 53.50084574023808 L 795.8649683720596 53.42599642939328 L 796.038265076668 53.35192679810317 L 796.2131915992305 53.278644253269164 L 796.3897304472407 53.20615612308466 L 796.5678639669608 53.13446965630228 L 796.7475743451873 53.06359202150896 L 796.9288436110322 52.99353030640911 L 797.1116536377199 52.924291517115876 L 797.2959861444001 52.85588257745046 L 797.4818226979759 52.78831032824984 L 797.6691447149465 52.72158152668263 L 797.8579334632664 52.65570284557336 L 798.0481700642182 52.590680872735255 L 798.2398354943003 52.52652211031142 L 798.4329105871294 52.463232974124615 L 798.6273760353571 52.40081979303573 L 798.8232123926007 52.33928880831086 L 799.0204000753874 52.278646172997206 L 799.2189193651137 52.21889795130775 L 799.4187504100157 52.160050118014894 L 799.6198732271555 52.1021085578529 L 799.8222677044191 52.045079064929524 L 800.0259136025275 51.98896734214652 L 800.2307905570602 51.933779000629414 L 800.4368780804929 51.87951955916637 L 800.6441555642448 51.826194443656306 L 800.8526022807403 51.77380898656634 L 801.0621973854815 51.72236842639853 L 801.2729199191324 51.67187790716602 L 801.4847488096154 51.622342477878675 L 801.697662874218 51.57376709203812 L 801.9116408217112 51.526156607142475 L 802.1266612544784 51.47951578420055 L 802.3427026706556 51.43384928725578 L 802.5597434662811 51.38916168291979 L 802.7777619374565 51.34545743991578 L 802.996736282516 51.302740928631636 L 803.2166446042079 51.261016420682886 L 803.437464911883 51.220288088485546 L 803.6591751236947 51.18056000483891 L 803.8817530688066 51.14183614251822 L 804.1051764896096 51.10412037387746 L 804.3294230439477 51.06741647046204 L 804.5544703073526 51.03172810263173 L 804.7802957752854 50.99705883919358 L 805.0068768653874 50.96341214704502 L 805.2341909197386 50.930791390827245 L 805.4622152071227 50.899199832588685 L 805.6909269253011 50.86864063145883 L 805.9203032032927 50.83911684333235 L 806.1503211036609 50.81063142056343 L 806.380957624807 50.78318721167063 L 806.6121897032714 50.75678696105195 L 806.8439942160387 50.731433308710464 L 807.0763479828511 50.70712878999027 L 807.3092277685253 50.683875835323 L 807.5426102852769 50.66167676998473 L 807.7764721950487 50.6405338138635 L 808.0107901118445 50.6204490812373 L 808.245540604068 50.60142458056266 L 808.4807001968655 50.583462214273794 L 808.7162453744739 50.566563778592354 L 808.9521525825716 50.55073096334783 L 809.1883982306343 50.53596535180856 L 809.4249586942941 50.52226842052339 L 809.6618103177019 50.50964153917403 L 809.8989294158926 50.49808597043808 L 810.136292277154 50.48760286986282 L 810.3738751653977 50.47819328574954 L 810.611654322533 50.46985815904882 L 810.8496059708424 50.462598323266384 L 811.0877063153591 50.456414504379765 L 811.3259315462473 50.45130732076569 L 811.5642578411823 50.44727728313828 L 811.8026613677333 50.444324794497916 L 812.0411182857462 50.44245015009101 L 812.279604749728 50.44165353738045 L 812.518096911231 50.44193503602685 L 812.7565709212379 50.443294617880554 L 812.9950029325463 50.445732146984525 L 813.2333691021538 50.44924737958788 L 813.471645593642 50.45383996417029 L 813.7098085795606 50.459509441477124 L 813.9478342438091 50.46625524456538 L 814.1856987840196 50.474076698860365 L 814.4233784139362 50.48297302222316 L 814.6608493657943 50.49294332502887 L 814.8980878926963 50.50398661025549 L 815.1350702709872 50.51610177358371 L 815.3717728026268 50.52928760350731 L 815.6081718175591 50.54354278145426 L 815.8442436760797 50.55886588191867 L 816.0799647711993 50.575255372603245 L 816.315311531005 50.592709614572584 L 816.5502604210169 50.61122686241703 L 816.7847879465417 50.630805264427224 L 817.0188706550224 50.651442862779284 L 817.2524851383831 50.67313759373059 L 817.4856080353702 50.695887287826096 L 817.7182160338883 50.71968967011537 L 817.9502858733314 50.74454236038002 L 818.1817943469089 50.77044287337172 L 818.4127183039664 50.797388619060754 L 818.6430346523006 50.825376902895016 L 818.8727203604685 50.85440492606945 L 819.1017524600909 50.88446978580591 L 819.3301080481485 50.9155684756435 L 819.557764289273 50.947697885739125 L 819.7846984180297 50.980854803178566 L 820.0108877411951 51.01503591229771 L 820.2363096400254 51.05023779501413 L 820.4609415725183 51.08645693116888 L 820.684761075668 51.12368969887854 L 820.9077457677106 51.16193237489736 L 821.1298733503626 51.201181134989596 L 821.3511216110511 51.241432054311964 L 821.5714684251342 51.28268110780607 L 821.7908917581141 51.32492417060092 L 822.0093696678405 51.368157018425464 L 822.2268803067044 51.41237532803093 L 822.4434019238232 51.45757467762322 L 822.6589128672156 51.503750547305025 L 822.8733915859668 51.55089831952786 L 823.0868166323838 51.5990132795538 L 823.2991666641398 51.64809061592693 L 823.5104204464085 51.69812542095451 L 823.7205568539877 51.749112691197745 L 823.9295548734117 51.801047327972086 L 824.1373936050529 51.85392413785714 L 824.3440522652112 51.90773783321599 L 824.5495101881929 51.962483032723924 L 824.7537468283768 52.01815426190663 L 824.9567417622692 52.07474595368758 L 825.1584746905457 52.132252448944755 L 825.3589254400819 52.190667997076545 L 825.5580739659695 52.24998675657682 L 825.7559003535221 52.310202795619055 L 825.9523848202657 52.371310092649544 L 826.1475077179175 52.43330253698949 L 826.3412495343503 52.49617392944612 L 826.5335908955436 52.559917982932596 L 826.7245125675221 52.62452832309667 L 826.9139954582772 52.68999848895818 L 827.1020206196781 52.7563219335551 L 827.2885692493652 52.823492024598224 L 827.4736226926309 52.89150204513444 L 827.6571624442852 52.960345194218355 L 827.8391701505059 53.03001458759244 L 828.019627610674 53.10050325837541 L 828.1985167791938 53.171804157758935 L 828.3758197672976 53.243910155712484 L 828.5515188448344 53.31681404169635 L 828.7255964420427 53.39050852538269 L 828.898035151308 53.46498623738456 L 829.068817728903 53.5402397299928 L 829.2379270967123 53.61626147792087 L 829.4053463439399 53.69304387905734 L 829.5710587288007 53.770579255226075 L 829.7350476801944 53.848859852954064 L 829.8972967993624 53.92787784424677 L 830.057789861528 54.00762532737092 L 830.2165108175188 54.08809432764465 L 830.3734437953714 54.16927679823499 L 830.5285731019187 54.251164620962534 L 830.6818832243596 54.33374960711325 L 830.8333588318093 54.41702349825734 L 830.9829847768334 54.500977967075094 L 831.1307460969622 54.58560461818958 L 831.2766280161867 54.670894989006214 L 831.4206159464366 54.75684055055899 L 831.5626954890388 54.84343270836337 L 831.7028524361575 54.93066280327574 L 831.8410727722147 55.0185221123593 L 831.9773426752921 55.107001849756344 L 832.1116485185129 55.196093167566886 L 832.2439768714047 55.28578715673337 L 832.3743145012423 55.37607484793163 L 832.5026483743717 55.46694721246779 L 832.6289656575124 55.55839516318112 L 832.753253719041 55.65040955535275 L 832.8755001302554 55.742981187620146 L 832.9956926666162 55.83610080289723 L 833.1138193089698 55.92975908930006 L 833.2298682447505 56.02394668107806 L 833.3438278691614 56.11865415955053 L 833.455686786335 56.213872054048544 L 833.5654338104729 56.30959084286201 L 833.673057966964 56.405800954191804 L 833.7785484934825 56.50249276710697 L 833.8818948410635 56.5996566125068 L 833.9830866751585 56.69728277408771 L 834.0821138766684 56.79536148931491 L 834.1789665429553 56.89388295039859 L 834.2736349888337 56.99283730527477 L 834.3661097475376 57.09221465859041 L 834.4563815716684 57.19200507269298 L 834.5444414341188 57.29219856862425 L 834.6302805289758 57.39278512711811 L 834.7138902724018 57.49375468960253 L 834.7952623034918 57.59509715920541 L 834.8743884851107 57.69680240176424 L 834.9512609047061 57.79886024683951 L 835.0258718751003 57.90126048873177 L 835.0982139352584 58.003992887502164 L 835.1682798510345 58.10704716999642 L 835.2360626158955 58.21041303087217 L 835.3015554516215 58.31408013362946 L 835.3647518089833 58.41803811164441 L 835.4256453683981 58.52227656920584 L 835.4842300405605 58.62678508255487 L 835.5404999670521 58.731553200927245 L 835.5944495209274 58.83657044759845 L 835.6460733072756 58.94182632093131 L 835.6953661637613 59.04731029542622 L 835.7423231611399 59.153011822773635 L 835.7869396037507 59.25892033290889 L 835.8292110299868 59.36502523506925 L 835.8691332127406 59.471315918852895 L 835.9067021598273 59.57778175528004 L 835.9419141143833 59.684412097855756 L 835.9747655552426 59.79119628363465 L 836.0052531972885 59.89812363428712 L 836.0333739917822 60.005183457167206 L 836.0591251266676 60.11236504638185 L 836.0825040268528 60.21965768386144 L 836.1035083544671 60.327050640431644 L 836.1221360090954 60.43453317688629 L 836.1383851279876 60.5420945450613 L 836.1522540862455 60.6497239889095 L 836.1637414969848 60.757410745576195 L 836.1728462114739 60.86514404647545 L 836.1795673192491 60.972913118366954 L 836.1839041482051 61.08070718443333 L 836.1858562646627 61.188515465357796 M 836.1859772547186 95.52678387991818 L 836.184784794815 95.6345944248348 L 836.1812075343489 95.74239418878678 L 836.1752458310436 95.85017239188754 L 836.1669002810643 95.95791825640659 L 836.1561717189591 96.06562100784727 L 836.1430612175752 96.1732698760242 L 836.127570087952 96.28085409614023 L 836.1096998791894 96.38836290986303 L 836.0894523782933 96.49578556640084 L 836.0668296099972 96.60311132357748 L 836.0418338365588 96.7103294489067 L 836.0144675575348 96.8174292206653 L 835.9847335095302 96.92439992896537 L 835.9526346659251 97.0312308768252 L 835.918174236577 97.13791138123905 L 835.8813556675002 97.24443077424536 L 835.8421826405208 97.35077840399362 L 835.8006590729091 97.45694363580944 L 835.7567891169871 97.56291585325815 L 835.7105771597137 97.66868445920629 L 835.6620278222464 97.77423887688141 L 835.6111459594783 97.8795685509297 L 835.5579366595534 97.98466294847155 L 835.5024052433572 98.08951156015478 L 835.4445572639852 98.19410390120557 L 835.384398506187 98.29842951247699 L 835.3219349857884 98.40247796149485 L 835.2571729490892 98.50623884350097 L 835.1901188722392 98.60970178249359 L 835.1207794605903 98.71285643226504 L 835.0491616480256 98.81569247743631 L 834.9752725962669 98.91819963448859 L 834.8991196941579 99.02036765279156 L 834.8207105569251 99.12218631562857 L 834.740053025417 99.22364544121817 L 834.6571551653195 99.32473488373233 L 834.5720252663497 99.42544453431107 L 834.4846718414262 99.52576432207324 L 834.395103625819 99.62568421512367 L 834.303329576275 99.72519422155631 L 834.2093588701225 99.82428439045346 L 834.113200904354 99.92294481288079 L 834.0148652946859 100.02116562287829 L 833.914361874597 100.11893699844678 L 833.811700694346 100.2162491625302 L 833.7068920199649 100.31309238399325 L 833.599946332234 100.40945697859446 L 833.4908743256331 100.50533330995468 L 833.3796869072718 100.60071179052068 L 833.2663951957992 100.69558288252388 L 833.1510105202923 100.78993709893413 L 833.0335444191222 100.88376500440843 L 832.9140086388013 100.97705721623441 L 832.7924151328081 101.06980440526866 L 832.6687760603917 101.16199729686952 L 832.5431037853563 101.25362667182469 L 832.4154108748248 101.34468336727302 L 832.2857100979818 101.43515827762084 L 832.1540144247969 101.52504235545253 L 832.0203370247276 101.61432661243519 L 831.8846912654027 101.70300212021755 L 831.7470907112848 101.7910600113227 L 831.6075491223149 101.87849148003492 L 831.4660804525356 101.9652877832802 L 831.3226988486958 102.05144024150056 L 831.1774186488367 102.13694023952193 L 831.0302543808568 102.22177922741581 L 830.8812207610607 102.30594872135407 L 830.7303326926858 102.38944030445748 L 830.5776052644135 102.47224562763729 L 830.4230537488593 102.5543564104302 L 830.2666936010457 102.63576444182635 L 830.1085404568574 102.71646158109044 L 829.9486101314772 102.79643975857579 L 829.786918617804 102.8756909765313 L 829.6234820848547 102.95420730990122 L 829.4583168761461 103.03198090711763 L 829.2914395080618 103.10900399088564 L 829.1228666681993 103.18526885896105 L 828.9526152137022 103.2607678849206 L 828.780702169574 103.33549351892461 L 828.607144726976 103.40943828847196 L 828.4319602415077 103.48259479914732 L 828.2551662314717 103.55495573536056 L 828.0767803761216 103.6265138610784 L 827.8968205138943 103.69726202054787 L 827.7153046406263 103.76719313901197 L 827.5322509077533 103.83630022341715 L 827.3476776204964 103.90457636311257 L 827.1616032360301 103.97201473054113 L 826.9740463616382 104.03860858192229 L 826.7850257528515 104.10435125792642 L 826.5945603115737 104.1692361843407 L 826.4026690841898 104.23325687272656 L 826.209371259663 104.29640692106851 L 826.0146861676145 104.35868001441433 L 825.8186332763913 104.4200699255066 L 825.6212321911191 104.48057051540535 L 825.4225026517421 104.54017573410202 L 825.2224645310483 104.5988796211244 L 825.0211378326834 104.65667630613272 L 824.8185426891494 104.71356000950664 L 824.6146993597915 104.7695250429232 L 824.4096282287733 104.82456580992574 L 824.2033498030365 104.87867680648341 L 823.9958847102522 104.93185262154162 L 823.7872536967565 104.98408793756322 L 823.5774776254771 105.0353775310601 L 823.3665774738461 105.08571627311568 L 823.154574331703 105.13509912989768 L 822.9414893991853 105.1835211631616 L 822.727343984609 105.23097753074444 L 822.5121595023367 105.27746348704899 L 822.2959574706374 105.32297438351839 L 822.0787595095343 105.36750566910086 L 821.8605873386423 105.41105289070501 L 821.6414627749967 105.45361169364494 L 821.4214077308714 105.49517782207583 L 821.2004442115873 105.53574711941947 L 820.9785943133123 105.57531552877992 L 820.7558802208513 105.61387909334925 L 820.5323242054278 105.65143395680312 L 820.3079486224574 105.68797636368647 L 820.0827759093111 105.72350265978909 L 819.8568285830727 105.75800929251095 L 819.6301292382865 105.79149281121755 L 819.4027005446981 105.82394986758491 L 819.1745652449872 105.85537721593445 L 818.9457461524939 105.88577171355752 L 818.7162661489366 105.9151303210297 L 818.4861481821246 105.94345010251467 L 818.2554152636625 105.97072822605791 L 818.0240904666501 105.99696196386981 L 817.7921969233743 106.02214869259844 L 817.5597578229962 106.04628589359189 L 817.3267964092321 106.0693711531502 L 817.0933359780291 106.09140216276666 L 816.8593998752361 106.11237671935864 L 816.6250114942682 106.13229272548797 L 816.3901942737682 106.15114818957065 L 816.1549716952626 106.16894122607596 L 815.9193672808129 106.1856700557151 L 815.6834045906646 106.20133300561903 L 815.44710722089 106.21592850950582 L 815.210498801029 106.22945510783724 L 814.9736029917264 106.24191144796474 L 814.7364434823659 106.25329628426466 L 814.4990439887007 106.2636084782629 L 814.2614282504823 106.2728469987486 L 814.0236200290866 106.28101092187747 L 813.7856431051375 106.28809943126396 L 813.5475212761291 106.29411181806304 L 813.309278354046 106.29904748104106 L 813.0709381629816 106.30290592663582 L 812.8325245367566 106.30568676900597 L 812.5940613165349 106.30738973006962 L 812.3555723484398 106.30801463953205 L 812.1170814811692 106.30756143490284 L 811.8786125636113 106.3060301615021 L 811.6401894424591 106.30342097245587 L 811.4018359598261 106.29973412868088 L 811.1635759508617 106.29496999885845 L 810.9254332413685 106.28912905939758 L 810.6874316454189 106.28221189438736 L 810.4495949629741 106.27421919553852 L 810.2119469775041 106.26515176211427 L 809.9745114536096 106.25501050085043 L 809.7373121346449 106.24379642586464 L 809.5003727403445 106.23151065855508 L 809.2637169644502 106.21815442748823 L 809.0273684723423 106.20372906827606 L 808.7913508986733 106.1882360234425 L 808.5556878450037 106.17167684227908 L 808.3204028774426 106.15405318069014 L 808.0855195242906 106.13536680102716 L 807.8510612736873 106.11561957191253 L 807.6170515712624 106.09481346805269 L 807.383513817791 106.0729505700407 L 807.1504713668542 106.05003306414814 L 806.9179475225025 106.0260632421065 L 806.6859655369266 106.00104350087803 L 806.454548608132 105.97497634241597 L 806.2237198776185 105.94786437341445 L 805.9935024280669 105.9197103050478 L 805.7639192810303 105.89051695269937 L 805.534993394632 105.86028723568009 L 805.30674766127 105.82902417693644 L 805.0792049053274 105.79673090274827 L 804.8523878808901 105.76341064241608 L 804.6263192694717 105.72906672793813 L 804.4010216777447 105.69370259367726 L 804.1765176352806 105.6573217760174 L 803.9528295922967 105.61992791301003 L 803.7299799174108 105.58152474401028 L 803.5079908954046 105.54211610930304 L 803.2868847249956 105.50170594971894 L 803.0666835166162 105.46029830624026 L 802.847409290204 105.41789731959686 L 802.6290839729988 105.37450722985206 L 802.4117293973504 105.33013237597868 L 802.1953672985354 105.28477719542511 L 801.9800193125831 105.23844622367163 L 801.7657069741128 105.1911440937768 L 801.5524517141797 105.14287553591419 L 801.3402748581323 105.09364537689936 L 801.129197623479 105.0434585397072 L 800.9192411177676 104.99232004297959 L 800.7104263364737 104.9402350005236 L 800.5027741609014 104.88720862080007 L 800.2963053560952 104.83324620640276 L 800.0910405687636 104.77835315352817 L 799.8870003252141 104.72253495143585 L 799.6842050293011 104.66579718189945 L 799.4826749603853 104.60814551864868 L 799.2824302713057 104.54958572680184 L 799.083490986364 104.49012366228926 L 798.8858769993233 104.42976527126788 L 798.6896080714174 104.36851658952648 L 798.4947038293756 104.30638374188221 L 798.3011837634597 104.24337294156805 L 798.1090672255149 104.17949048961154 L 797.9183734270351 104.11474277420461 L 797.7291214372411 104.04913627006486 L 797.5413301811742 103.98267753778805 L 797.3550184378036 103.91537322319199 L 797.1702048381482 103.84723005665208 L 796.9869078634141 103.77825485242818 L 796.805145843146 103.70845450798322 L 796.6249369533944 103.63783600329349 L 796.4462992148981 103.56640640015061 L 796.2692504912822 103.49417284145538 L 796.0938084872713 103.42114255050346 L 795.9199907469199 103.3473228302631 L 795.747814651857 103.27272106264479 L 795.5772974195486 103.19734470776314 L 795.408456101576 103.1212013031908 L 795.2413075819301 103.04429846320481 L 795.0758685753237 102.96664387802507 L 794.9121556255195 102.88824531304537 L 794.7501851036762 102.8091106080569 L 794.589973206711 102.72924767646418 L 794.4315359556798 102.64866450449387 L 794.274889194176 102.56736915039596 L 794.1200485867452 102.48536974363815 L 793.9670296173188 102.40267448409276 L 793.8158475876666 102.31929164121684 L 793.6665176158652 102.2352295532252 L 793.5190546347877 102.15049662625658 L 793.3734733906092 102.06510133353308 L 793.2297884413327 101.97905221451278 L 793.0880141553336 101.89235787403591 L 792.9481647099221 101.80502698146424 L 792.8102540899264 101.71706826981428 L 792.6742960862933 101.62849053488388 L 792.5403042947103 101.53930263437272 L 792.4082921142445 101.44951348699652 L 792.2782727460042 101.35913207159521 L 792.1502591918177 101.26816742623502 L 792.0242642529338 101.17662864730465 L 791.9003005287415 101.08452488860574 L 791.7783804155098 100.9918653604374 L 791.6585161051484 100.89865932867522 L 791.5407195839884 100.80491611384473 L 791.425002631584 100.71064509018925 L 791.3113768195337 100.61585568473262 L 791.1998535103244 100.5205573763364 L 791.0904438561937 100.424759694752 L 790.983158798016 100.32847221966773 L 790.8780090642077 100.2317045797509 L 790.7750051696547 100.13446645168483 L 790.6741574146604 100.03676755920131 L 790.5754758839163 99.93861767210817 L 790.4789704454934 99.84002660531232 L 790.3846507498549 99.7410042178383 L 790.2925262288919 99.64156041184232 L 790.2026060949797 99.54170513162211 L 790.1148993400568 99.4414483626225 L 790.0294147347255 99.34080013043682 L 789.9461608273753 99.23977049980442 L 789.8651459433272 99.13836957360418 L 789.7863781840024 99.03660749184422 L 789.7098654261112 98.9344944306479 L 789.6356153208653 98.83204060123627 L 789.5636352932138 98.72925624890688 L 789.4939325410991 98.6261516520093 L 789.4265140347386 98.52273712091731 L 789.3613865159266 98.41902299699785 L 789.2985564973607 98.31501965157686 L 789.2380302619905 98.21073748490224 L 789.179813862389 98.10618692510373 L 789.1239131201478 98.0013784271502 L 789.0703336252943 97.89632247180411 L 789.0190807357335 97.79102956457344 L 788.9701595767117 97.68551023466115 L 788.9235750403038 97.57977503391233 L 788.879331784925 97.47383453575894 L 788.8374342348635 97.3676993341625 L 788.7978865798398 97.2613800425547 L 788.7606927745861 97.15488729277617 L 788.7258565384523 97.04823173401307 L 788.6933813550326 96.94142403173245 L 788.6632704718186 96.8344748666155 L 788.6355268998733 96.72739493348962 L 788.610153413531 96.6201949402589 L 788.587152550119 96.51288560683331 L 788.5665266097045 96.40547766405678 L 788.5482776548644 96.29798185263407 L 788.532407510479 96.19040892205675 L 788.5189177635494 96.08276962952824 L 788.5078097630392 95.9750747388881 L 788.4990846197392 95.86733501953563 L 788.4927432061562 95.75956124535298 L 788.4887861564266 95.65176419362778 L 788.4872138662519 95.54395464397535" stroke-miterlimit="10" stroke-width="2.7769845610000004" stroke-dasharray=""/></g><g><g/><text fill="black" stroke="none" font-family="sans-serif" font-size="11pt" font-style="normal" font-weight="normal" text-decoration="normal" x="780.9586354904296" y="123.83569119881818" text-anchor="start" dominant-baseline="alphabetic" xml:space="preserve">Database</text></g><g><path fill="white" stroke="black" paint-order="fill stroke markers" d=" M 90.987082381 838.5825115903181 A 9.311065881 9.311065881 0 1 1 90.98707772546743 838.5732005259889 M 81.67601649999999 847.893577471318 L 81.67601649999999 867.8225254973181 M 69.914670124 855.0810669233181 L 93.43736287599998 855.0810669233181 M 81.67601649999999 867.8225254973181 L 69.914670124 886.4446572593181 M 81.67601649999999 867.8225254973181 L 93.43736287599998 886.4446572593181" stroke-miterlimit="10" stroke-width="2.7769845610000004" stroke-dasharray=""/></g><g><g/><text fill="black" stroke="none" font-family="sans-serif" font-size="11pt" font-style="normal" font-weight="normal" text-decoration="normal" x="53.1470400595703" y="822.982392438818" text-anchor="start" dominant-baseline="alphabetic" xml:space="preserve">Landlord</text></g><g><path fill="white" stroke="black" paint-order="fill stroke markers" d=" M 361.4486642000442 854.084619522018 A 24.2577769005 24.2577769005 0 1 1 361.4486520711568 854.0603617491604 M 311.54461811854424 880.5639840713179 L 362.8371564805442 880.5639840713179" stroke-miterlimit="10" stroke-width="2.7769845610000004" stroke-dasharray=""/></g><g><g/><text fill="black" stroke="none" font-family="sans-serif" font-size="11pt" font-style="normal" font-weight="normal" text-decoration="normal" x="318.45073684788406" y="822.982392438818" text-anchor="start" dominant-baseline="alphabetic" xml:space="preserve">Client</text></g><g><path fill="white" stroke="black" paint-order="fill stroke markers" d=" M 610.4209324605259 854.084619522018 A 24.2577769005 24.2577769005 0 1 1 610.4209203316385 854.0603617491604 M 560.516886379026 880.5639840713179 L 611.809424741026 880.5639840713179" stroke-miterlimit="10" stroke-width="2.7769845610000004" stroke-dasharray=""/></g><g><g/><text fill="black" stroke="none" font-family="sans-serif" font-size="11pt" font-style="normal" font-weight="normal" text-decoration="normal" x="557.6377573056315" y="822.982392438818" text-anchor="start" dominant-baseline="alphabetic" xml:space="preserve">Backend</text></g><g><path fill="white" stroke="black" paint-order="fill stroke markers" d=" M 788.4871836187187 875.7450990978181 L 788.4871836187187 841.441172167818 L 836.1859772547186 841.441172167818 L 836.1859772547186 875.7450990978181" stroke-miterlimit="10" stroke-width="2.7769845610000004" stroke-dasharray=""/><path fill="white" stroke="black" paint-order="fill stroke markers" d=" M 836.1859772547186 840.248702326918 L 836.184784794815 840.3565128718346 L 836.1812075343489 840.4643126357865 L 836.1752458310436 840.5720908388873 L 836.1669002810643 840.6798367034064 L 836.1561717189591 840.7875394548471 L 836.1430612175752 840.895188323024 L 836.127570087952 841.00277254314 L 836.1096998791894 841.1102813568629 L 836.0894523782933 841.2177040134006 L 836.0668296099972 841.3250297705773 L 836.0418338365588 841.4322478959065 L 836.0144675575348 841.5393476676651 L 835.9847335095302 841.6463183759652 L 835.9526346659251 841.753149323825 L 835.918174236577 841.8598298282388 L 835.8813556675002 841.9663492212451 L 835.8421826405208 842.0726968509933 L 835.8006590729091 842.1788620828092 L 835.7567891169871 842.2848343002579 L 835.7105771597137 842.390602906206 L 835.6620278222464 842.4961573238812 L 835.6111459594783 842.6014869979294 L 835.5579366595534 842.7065813954713 L 835.5024052433572 842.8114300071545 L 835.4445572639852 842.9160223482054 L 835.384398506187 843.0203479594768 L 835.3219349857884 843.1243964084946 L 835.2571729490892 843.2281572905007 L 835.1901188722392 843.3316202294934 L 835.1207794605903 843.4347748792649 L 835.0491616480256 843.5376109244361 L 834.9752725962669 843.6401180814884 L 834.8991196941579 843.7422860997914 L 834.8207105569251 843.8441047626284 L 834.740053025417 843.945563888218 L 834.6571551653195 844.046653330732 L 834.5720252663497 844.1473629813108 L 834.4846718414262 844.247682769073 L 834.395103625819 844.3476026621234 L 834.303329576275 844.4471126685561 L 834.2093588701225 844.5462028374533 L 834.113200904354 844.6448632598806 L 834.0148652946859 844.743084069878 L 833.914361874597 844.8408554454466 L 833.811700694346 844.93816760953 L 833.7068920199649 845.035010830993 L 833.599946332234 845.1313754255942 L 833.4908743256331 845.2272517569545 L 833.3796869072718 845.3226302375205 L 833.2663951957992 845.4175013295237 L 833.1510105202923 845.5118555459339 L 833.0335444191222 845.6056834514083 L 832.9140086388013 845.6989756632343 L 832.7924151328081 845.7917228522684 L 832.6687760603917 845.8839157438694 L 832.5431037853563 845.9755451188245 L 832.4154108748248 846.0666018142728 L 832.2857100979818 846.1570767246207 L 832.1540144247969 846.2469608024523 L 832.0203370247276 846.336245059435 L 831.8846912654027 846.4249205672173 L 831.7470907112848 846.5129784583224 L 831.6075491223149 846.6004099270347 L 831.4660804525356 846.68720623028 L 831.3226988486958 846.7733586885004 L 831.1774186488367 846.8588586865217 L 831.0302543808568 846.9436976744156 L 830.8812207610607 847.0278671683539 L 830.7303326926858 847.1113587514573 L 830.5776052644135 847.1941640746371 L 830.4230537488593 847.2762748574299 L 830.2666936010457 847.3576828888262 L 830.1085404568574 847.4383800280903 L 829.9486101314772 847.5183582055756 L 829.786918617804 847.597609423531 L 829.6234820848547 847.676125756901 L 829.4583168761461 847.7538993541174 L 829.2914395080618 847.8309224378854 L 829.1228666681993 847.9071873059609 L 828.9526152137022 847.9826863319204 L 828.780702169574 848.0574119659244 L 828.607144726976 848.1313567354717 L 828.4319602415077 848.2045132461471 L 828.2551662314717 848.2768741823603 L 828.0767803761216 848.3484323080781 L 827.8968205138943 848.4191804675477 L 827.7153046406263 848.4891115860117 L 827.5322509077533 848.558218670417 L 827.3476776204964 848.6264948101124 L 827.1616032360301 848.6939331775409 L 826.9740463616382 848.7605270289221 L 826.7850257528515 848.8262697049262 L 826.5945603115737 848.8911546313404 L 826.4026690841898 848.9551753197263 L 826.209371259663 849.0183253680683 L 826.0146861676145 849.0805984614141 L 825.8186332763913 849.1419883725064 L 825.6212321911191 849.2024889624051 L 825.4225026517421 849.2620941811018 L 825.2224645310483 849.3207980681242 L 825.0211378326834 849.3785947531325 L 824.8185426891494 849.4354784565064 L 824.6146993597915 849.491443489923 L 824.4096282287733 849.5464842569255 L 824.2033498030365 849.6005952534832 L 823.9958847102522 849.6537710685415 L 823.7872536967565 849.706006384563 L 823.5774776254771 849.7572959780599 L 823.3665774738461 849.8076347201155 L 823.154574331703 849.8570175768974 L 822.9414893991853 849.9054396101614 L 822.727343984609 849.9528959777442 L 822.5121595023367 849.9993819340488 L 822.2959574706374 850.0448928305182 L 822.0787595095343 850.0894241161006 L 821.8605873386423 850.1329713377048 L 821.6414627749967 850.1755301406447 L 821.4214077308714 850.2170962690756 L 821.2004442115873 850.2576655664193 L 820.9785943133123 850.2972339757797 L 820.7558802208513 850.3357975403491 L 820.5323242054278 850.3733524038029 L 820.3079486224574 850.4098948106863 L 820.0827759093111 850.4454211067889 L 819.8568285830727 850.4799277395107 L 819.6301292382865 850.5134112582173 L 819.4027005446981 850.5458683145847 L 819.1745652449872 850.5772956629343 L 818.9457461524939 850.6076901605574 L 818.7162661489366 850.6370487680294 L 818.4861481821246 850.6653685495145 L 818.2554152636625 850.6926466730577 L 818.0240904666501 850.7188804108696 L 817.7921969233743 850.7440671395982 L 817.5597578229962 850.7682043405916 L 817.3267964092321 850.79128960015 L 817.0933359780291 850.8133206097664 L 816.8593998752361 850.8342951663584 L 816.6250114942682 850.8542111724878 L 816.3901942737682 850.8730666365705 L 816.1549716952626 850.8908596730757 L 815.9193672808129 850.9075885027149 L 815.6834045906646 850.9232514526188 L 815.44710722089 850.9378469565056 L 815.210498801029 850.951373554837 L 814.9736029917264 850.9638298949645 L 814.7364434823659 850.9752147312645 L 814.4990439887007 850.9855269252627 L 814.2614282504823 850.9947654457484 L 814.0236200290866 851.0029293688773 L 813.7856431051375 851.0100178782637 L 813.5475212761291 851.0160302650628 L 813.309278354046 851.0209659280408 L 813.0709381629816 851.0248243736356 L 812.8325245367566 851.0276052160058 L 812.5940613165349 851.0293081770694 L 812.3555723484398 851.0299330865319 L 812.1170814811692 851.0294798819026 L 811.8786125636113 851.0279486085019 L 811.6401894424591 851.0253394194557 L 811.4018359598261 851.0216525756807 L 811.1635759508617 851.0168884458583 L 810.9254332413685 851.0110475063974 L 810.6874316454189 851.0041303413872 L 810.4495949629741 850.9961376425383 L 810.2119469775041 850.9870702091141 L 809.9745114536096 850.9769289478502 L 809.7373121346449 850.9657148728644 L 809.5003727403445 850.9534291055548 L 809.2637169644502 850.940072874488 L 809.0273684723423 850.9256475152758 L 808.7913508986733 850.9101544704423 L 808.5556878450037 850.8935952892789 L 808.3204028774426 850.87597162769 L 808.0855195242906 850.857285248027 L 807.8510612736873 850.8375380189123 L 807.6170515712624 850.8167319150525 L 807.383513817791 850.7948690170405 L 807.1504713668542 850.7719515111479 L 806.9179475225025 850.7479816891063 L 806.6859655369266 850.7229619478778 L 806.454548608132 850.6968947894158 L 806.2237198776185 850.6697828204142 L 805.9935024280669 850.6416287520476 L 805.7639192810303 850.6124353996992 L 805.534993394632 850.5822056826798 L 805.30674766127 850.5509426239362 L 805.0792049053274 850.5186493497481 L 804.8523878808901 850.4853290894158 L 804.6263192694717 850.450985174938 L 804.4010216777447 850.415621040677 L 804.1765176352806 850.3792402230172 L 803.9528295922967 850.3418463600099 L 803.7299799174108 850.30344319101 L 803.5079908954046 850.2640345563028 L 803.2868847249956 850.2236243967187 L 803.0666835166162 850.18221675324 L 802.847409290204 850.1398157665966 L 802.6290839729988 850.0964256768518 L 802.4117293973504 850.0520508229785 L 802.1953672985354 850.0066956424249 L 801.9800193125831 849.9603646706714 L 801.7657069741128 849.9130625407765 L 801.5524517141797 849.864793982914 L 801.3402748581323 849.8155638238992 L 801.129197623479 849.765376986707 L 800.9192411177676 849.7142384899794 L 800.7104263364737 849.6621534475233 L 800.5027741609014 849.6091270677998 L 800.2963053560952 849.5551646534026 L 800.0910405687636 849.500271600528 L 799.8870003252141 849.4444533984356 L 799.6842050293011 849.3877156288993 L 799.4826749603853 849.3300639656485 L 799.2824302713057 849.2715041738016 L 799.083490986364 849.2120421092891 L 798.8858769993233 849.1516837182677 L 798.6896080714174 849.0904350365263 L 798.4947038293756 849.028302188882 L 798.3011837634597 848.9652913885678 L 798.1090672255149 848.9014089366113 L 797.9183734270351 848.8366612212044 L 797.7291214372411 848.7710547170647 L 797.5413301811742 848.7045959847878 L 797.3550184378036 848.6372916701918 L 797.1702048381482 848.5691485036518 L 796.9869078634141 848.500173299428 L 796.805145843146 848.430372954983 L 796.6249369533944 848.3597544502933 L 796.4462992148981 848.2883248471504 L 796.2692504912822 848.2160912884551 L 796.0938084872713 848.1430609975032 L 795.9199907469199 848.0692412772629 L 795.747814651857 847.9946395096446 L 795.5772974195486 847.9192631547629 L 795.408456101576 847.8431197501906 L 795.2413075819301 847.7662169102045 L 795.0758685753237 847.6885623250248 L 794.9121556255195 847.6101637600451 L 794.7501851036762 847.5310290550567 L 794.589973206711 847.451166123464 L 794.4315359556798 847.3705829514936 L 794.274889194176 847.2892875973957 L 794.1200485867452 847.2072881906379 L 793.9670296173188 847.1245929310925 L 793.8158475876666 847.0412100882166 L 793.6665176158652 846.957148000225 L 793.5190546347877 846.8724150732563 L 793.3734733906092 846.7870197805329 L 793.2297884413327 846.7009706615125 L 793.0880141553336 846.6142763210357 L 792.9481647099221 846.526945428464 L 792.8102540899264 846.438986716814 L 792.6742960862933 846.3504089818837 L 792.5403042947103 846.2612210813725 L 792.4082921142445 846.1714319339964 L 792.2782727460042 846.081050518595 L 792.1502591918177 845.9900858732348 L 792.0242642529338 845.8985470943045 L 791.9003005287415 845.8064433356055 L 791.7783804155098 845.7137838074372 L 791.6585161051484 845.620577775675 L 791.5407195839884 845.5268345608445 L 791.425002631584 845.432563537189 L 791.3113768195337 845.3377741317324 L 791.1998535103244 845.2424758233361 L 791.0904438561937 845.1466781417517 L 790.983158798016 845.0503906666676 L 790.8780090642077 844.9536230267507 L 790.7750051696547 844.8563848986846 L 790.6741574146604 844.7586860062011 L 790.5754758839163 844.660536119108 L 790.4789704454934 844.5619450523121 L 790.3846507498549 844.4629226648381 L 790.2925262288919 844.3634788588421 L 790.2026060949797 844.263623578622 L 790.1148993400568 844.1633668096223 L 790.0294147347255 844.0627185774366 L 789.9461608273753 843.9616889468042 L 789.8651459433272 843.860288020604 L 789.7863781840024 843.758525938844 L 789.7098654261112 843.6564128776477 L 789.6356153208653 843.553959048236 L 789.5636352932138 843.4511746959066 L 789.4939325410991 843.3480700990091 L 789.4265140347386 843.2446555679171 L 789.3613865159266 843.1409414439976 L 789.2985564973607 843.0369380985767 L 789.2380302619905 842.932655931902 L 789.179813862389 842.8281053721036 L 789.1239131201478 842.72329687415 L 789.0703336252943 842.6182409188038 L 789.0190807357335 842.5129480115733 L 788.9701595767117 842.4074286816609 L 788.9235750403038 842.3016934809121 L 788.879331784925 842.1957529827587 L 788.8374342348635 842.0896177811622 L 788.7978865798398 841.9832984895545 L 788.7606927745861 841.8768057397759 L 788.7258565384523 841.7701501810128 L 788.6933813550326 841.6633424787323 L 788.6632704718186 841.5563933136153 L 788.6355268998733 841.4493133804895 L 788.610153413531 841.3421133872587 L 788.587152550119 841.234804053833 L 788.5665266097045 841.1273961110566 L 788.5482776548644 841.0199002996338 L 788.532407510479 840.9123273690566 L 788.5189177635494 840.804688076528 L 788.5078097630392 840.6969931858879 L 788.4990846197392 840.5892534665354 L 788.4927432061562 840.4814796923528 L 788.4887861564266 840.3736826406275 L 788.4872138662519 840.2658730909751 L 788.4880264928598 840.1580618242606 L 788.4912239549884 840.0502596215208 L 788.4968059328941 839.9424772628862 L 788.5047718683837 839.8347255265028 L 788.5151209648704 839.7270151874544 L 788.5278521874533 839.6193570166853 L 788.5429642630204 839.5117617799227 L 788.560455680377 839.4042402366008 L 788.5803246903959 839.2968031387841 L 788.6025693061924 839.189461230093 L 788.6271873033239 839.082225244629 L 788.6541762200109 838.9751059059009 L 788.6835333573842 838.8681139257538 L 788.7152557797548 838.7612600032962 L 788.7493403149067 838.6545548238315 L 788.7857835544147 838.5480090577887 L 788.8245818539855 838.4416333596555 L 788.8657313338211 838.3354383669132 L 788.9092278790082 838.2294346989725 L 788.9550671399282 838.1236329561118 L 789.0032445326934 838.0180437184174 L 789.0537552396047 837.9126775447249 L 789.1065942096333 837.807544971564 L 789.1617561589264 837.7026565121043 L 789.219235571335 837.5980226551044 L 789.2790266989658 837.4936538638628 L 789.3411235627557 837.3895605751716 L 789.4055199530702 837.285753198273 L 789.472209430324 837.1822421138181 L 789.5411853256248 837.0790376728293 L 789.6124407414407 836.9761501956643 L 789.6859685522893 836.8735899709854 L 789.7617614054509 836.7713672547295 L 789.8398117217033 836.6694922690831 L 789.9201116960801 836.5679752014598 L 790.0026532986504 836.4668262034818 L 790.0874282753232 836.3660553899646 L 790.1744281486712 836.2656728379055 L 790.2636442187795 836.1656885854761 L 790.3550675641156 836.0661126310184 L 790.4486890424212 835.9669549320448 L 790.5444992916262 835.8682254042426 L 790.6424887307858 835.7699339204822 L 790.7426475610376 835.6720903098303 L 790.8449657665822 835.5747043565661 L 790.949433115684 835.4777857992041 L 791.0560391616955 835.381344329519 L 791.1647732441007 835.2853895915777 L 791.275624489582 835.1899311807737 L 791.3885818131074 835.0949786428687 L 791.5036339190385 835.0005414730374 L 791.6207693022607 834.906629114918 L 791.739976249333 834.813250959668 L 791.8612428396605 834.7204163450253 L 791.984556946685 834.628134554374 L 792.1099062390983 834.536414815816 L 792.237278182076 834.4452663012489 L 792.3666600385299 834.3546981254483 L 792.498038870382 834.2647193451561 L 792.6314015398585 834.1753389581754 L 792.7667347108039 834.0865659024706 L 792.9040248500138 833.998409055273 L 793.0432582285886 833.9108772321941 L 793.1844209233064 833.8239791863432 L 793.3274988180156 833.7377236074523 L 793.4724776050457 833.6521191210077 L 793.619342786639 833.5671742873865 L 793.7680796763997 833.4828976010012 L 793.9186734007626 833.3992974894505 L 794.071108900481 833.3163823126756 L 794.2253709321318 833.2341603621254 L 794.3814440696405 833.1526398599261 L 794.5393127058232 833.0718289580602 L 794.6989610539482 832.9917357375505 L 794.8603731493133 832.9123682076522 L 795.0235328508438 832.8337343050522 L 795.1884238427053 832.7558418930754 L 795.3550296359363 832.6786987608979 L 795.523333570096 832.6023126227686 L 795.6933188149313 832.5266911172379 L 795.8649683720596 832.4518418063931 L 796.038265076668 832.3777721751029 L 796.2131915992305 832.3044896302689 L 796.3897304472407 832.2320015000844 L 796.5678639669608 832.160315033302 L 796.7475743451873 832.0894373985087 L 796.9288436110322 832.0193756834088 L 797.1116536377199 831.9501368941156 L 797.2959861444001 831.8817279544502 L 797.4818226979759 831.8141557052496 L 797.6691447149465 831.7474269036824 L 797.8579334632664 831.6815482225732 L 798.0481700642182 831.616526249735 L 798.2398354943003 831.5523674873112 L 798.4329105871294 831.4890783511244 L 798.6273760353571 831.4266651700354 L 798.8232123926007 831.3651341853106 L 799.0204000753874 831.304491549997 L 799.2189193651137 831.2447433283075 L 799.4187504100157 831.1858954950146 L 799.6198732271555 831.1279539348527 L 799.8222677044191 831.0709244419293 L 800.0259136025275 831.0148127191463 L 800.2307905570602 830.9596243776292 L 800.4368780804929 830.9053649361662 L 800.6441555642448 830.852039820656 L 800.8526022807403 830.7996543635661 L 801.0621973854815 830.7482138033984 L 801.2729199191324 830.6977232841658 L 801.4847488096154 830.6481878548784 L 801.697662874218 830.5996124690379 L 801.9116408217112 830.5520019841423 L 802.1266612544784 830.5053611612003 L 802.3427026706556 830.4596946642556 L 802.5597434662811 830.4150070599196 L 802.7777619374565 830.3713028169155 L 802.996736282516 830.3285863056315 L 803.2166446042079 830.2868617976826 L 803.437464911883 830.2461334654853 L 803.6591751236947 830.2064053818386 L 803.8817530688066 830.167681519518 L 804.1051764896096 830.1299657508772 L 804.3294230439477 830.0932618474618 L 804.5544703073526 830.0575734796315 L 804.7802957752854 830.0229042161934 L 805.0068768653874 829.9892575240448 L 805.2341909197386 829.956636767827 L 805.4622152071227 829.9250452095885 L 805.6909269253011 829.8944860084586 L 805.9203032032927 829.8649622203321 L 806.1503211036609 829.8364767975633 L 806.380957624807 829.8090325886704 L 806.6121897032714 829.7826323380517 L 806.8439942160387 829.7572786857103 L 807.0763479828511 829.7329741669901 L 807.3092277685253 829.7097212123227 L 807.5426102852769 829.6875221469845 L 807.7764721950487 829.6663791908633 L 808.0107901118445 829.6462944582371 L 808.245540604068 829.6272699575625 L 808.4807001968655 829.6093075912736 L 808.7162453744739 829.5924091555921 L 808.9521525825716 829.5765763403476 L 809.1883982306343 829.5618107288084 L 809.4249586942941 829.5481137975231 L 809.6618103177019 829.5354869161738 L 809.8989294158926 829.5239313474378 L 810.136292277154 829.5134482468626 L 810.3738751653977 829.5040386627493 L 810.611654322533 829.4957035360486 L 810.8496059708424 829.4884437002662 L 811.0877063153591 829.4822598813795 L 811.3259315462473 829.4771526977655 L 811.5642578411823 829.4731226601381 L 811.8026613677333 829.4701701714977 L 812.0411182857462 829.4682955270908 L 812.279604749728 829.4674989143803 L 812.518096911231 829.4677804130266 L 812.7565709212379 829.4691399948804 L 812.9950029325463 829.4715775239843 L 813.2333691021538 829.4750927565876 L 813.471645593642 829.4796853411701 L 813.7098085795606 829.4853548184769 L 813.9478342438091 829.4921006215652 L 814.1856987840196 829.4999220758601 L 814.4233784139362 829.508818399223 L 814.6608493657943 829.5187887020286 L 814.8980878926963 829.5298319872553 L 815.1350702709872 829.5419471505835 L 815.3717728026268 829.5551329805071 L 815.6081718175591 829.569388158454 L 815.8442436760797 829.5847112589184 L 816.0799647711993 829.601100749603 L 816.315311531005 829.6185549915724 L 816.5502604210169 829.6370722394169 L 816.7847879465417 829.656650641427 L 817.0188706550224 829.677288239779 L 817.2524851383831 829.6989829707304 L 817.4856080353702 829.7217326648258 L 817.7182160338883 829.7455350471151 L 817.9502858733314 829.7703877373798 L 818.1817943469089 829.7962882503715 L 818.4127183039664 829.8232339960605 L 818.6430346523006 829.8512222798948 L 818.8727203604685 829.8802503030693 L 819.1017524600909 829.9103151628057 L 819.3301080481485 829.9414138526432 L 819.557764289273 829.9735432627389 L 819.7846984180297 830.0067001801783 L 820.0108877411951 830.0408812892975 L 820.2363096400254 830.0760831720139 L 820.4609415725183 830.1123023081686 L 820.684761075668 830.1495350758784 L 820.9077457677106 830.1877777518971 L 821.1298733503626 830.2270265119894 L 821.3511216110511 830.2672774313118 L 821.5714684251342 830.3085264848058 L 821.7908917581141 830.3507695476007 L 822.0093696678405 830.3940023954252 L 822.2268803067044 830.4382207050307 L 822.4434019238232 830.483420054623 L 822.6589128672156 830.5295959243048 L 822.8733915859668 830.5767436965276 L 823.0868166323838 830.6248586565536 L 823.2991666641398 830.6739359929267 L 823.5104204464085 830.7239707979543 L 823.7205568539877 830.7749580681975 L 823.9295548734117 830.8268927049719 L 824.1373936050529 830.8797695148569 L 824.3440522652112 830.9335832102157 L 824.5495101881929 830.9883284097237 L 824.7537468283768 831.0439996389064 L 824.9567417622692 831.1005913306874 L 825.1584746905457 831.1580978259445 L 825.3589254400819 831.2165133740763 L 825.5580739659695 831.2758321335766 L 825.7559003535221 831.3360481726188 L 825.9523848202657 831.3971554696493 L 826.1475077179175 831.4591479139892 L 826.3412495343503 831.5220193064459 L 826.5335908955436 831.5857633599323 L 826.7245125675221 831.6503737000965 L 826.9139954582772 831.7158438659579 L 827.1020206196781 831.7821673105549 L 827.2885692493652 831.849337401598 L 827.4736226926309 831.9173474221342 L 827.6571624442852 831.9861905712181 L 827.8391701505059 832.0558599645922 L 828.019627610674 832.1263486353752 L 828.1985167791938 832.1976495347587 L 828.3758197672976 832.2697555327122 L 828.5515188448344 832.3426594186961 L 828.7255964420427 832.4163539023825 L 828.898035151308 832.4908316143843 L 829.068817728903 832.5660851069925 L 829.2379270967123 832.6421068549206 L 829.4053463439399 832.7188892560571 L 829.5710587288007 832.7964246322258 L 829.7350476801944 832.8747052299539 L 829.8972967993624 832.9537232212466 L 830.057789861528 833.0334707043706 L 830.2165108175188 833.1139397046444 L 830.3734437953714 833.1951221752348 L 830.5285731019187 833.2770099979623 L 830.6818832243596 833.3595949841131 L 830.8333588318093 833.4428688752571 L 830.9829847768334 833.5268233440748 L 831.1307460969622 833.6114499951893 L 831.2766280161867 833.696740366006 L 831.4206159464366 833.7826859275588 L 831.5626954890388 833.8692780853631 L 831.7028524361575 833.9565081802755 L 831.8410727722147 834.044367489359 L 831.9773426752921 834.1328472267561 L 832.1116485185129 834.2219385445667 L 832.2439768714047 834.3116325337331 L 832.3743145012423 834.4019202249314 L 832.5026483743717 834.4927925894675 L 832.6289656575124 834.5842405401809 L 832.753253719041 834.6762549323525 L 832.8755001302554 834.7688265646199 L 832.9956926666162 834.861946179897 L 833.1138193089698 834.9556044662999 L 833.2298682447505 835.0497920580779 L 833.3438278691614 835.1444995365503 L 833.455686786335 835.2397174310483 L 833.5654338104729 835.3354362198618 L 833.673057966964 835.4316463311916 L 833.7785484934825 835.5283381441068 L 833.8818948410635 835.6255019895066 L 833.9830866751585 835.7231281510875 L 834.0821138766684 835.8212068663147 L 834.1789665429553 835.9197283273984 L 834.2736349888337 836.0186826822745 L 834.3661097475376 836.1180600355901 L 834.4563815716684 836.2178504496927 L 834.5444414341188 836.318043945624 L 834.6302805289758 836.4186305041179 L 834.7138902724018 836.5196000666023 L 834.7952623034918 836.6209425362052 L 834.8743884851107 836.722647778764 L 834.9512609047061 836.8247056238392 L 835.0258718751003 836.9271058657315 L 835.0982139352584 837.0298382645019 L 835.1682798510345 837.1328925469962 L 835.2360626158955 837.2362584078719 L 835.3015554516215 837.3399255106292 L 835.3647518089833 837.4438834886441 L 835.4256453683981 837.5481219462056 L 835.4842300405605 837.6526304595546 L 835.5404999670521 837.757398577927 L 835.5944495209274 837.8624158245982 L 835.6460733072756 837.9676716979311 L 835.6953661637613 838.073155672426 L 835.7423231611399 838.1788571997735 L 835.7869396037507 838.2847657099087 L 835.8292110299868 838.390870612069 L 835.8691332127406 838.4971612958527 L 835.9067021598273 838.6036271322798 L 835.9419141143833 838.7102574748556 L 835.9747655552426 838.8170416606345 L 836.0052531972885 838.9239690112869 L 836.0333739917822 839.0310288341669 L 836.0591251266676 839.1382104233817 L 836.0825040268528 839.2455030608612 L 836.1035083544671 839.3528960174314 L 836.1221360090954 839.460378553886 L 836.1383851279876 839.5679399220611 L 836.1522540862455 839.6755693659093 L 836.1637414969848 839.783256122576 L 836.1728462114739 839.8909894234753 L 836.1795673192491 839.9987584953667 L 836.1839041482051 840.1065525614331 L 836.1858562646627 840.2143608423576 M 836.1859772547186 874.5526292569181 L 836.184784794815 874.6604398018347 L 836.1812075343489 874.7682395657866 L 836.1752458310436 874.8760177688874 L 836.1669002810643 874.9837636334065 L 836.1561717189591 875.0914663848472 L 836.1430612175752 875.199115253024 L 836.127570087952 875.3066994731402 L 836.1096998791894 875.414208286863 L 836.0894523782933 875.5216309434007 L 836.0668296099972 875.6289567005774 L 836.0418338365588 875.7361748259066 L 836.0144675575348 875.8432745976652 L 835.9847335095302 875.9502453059653 L 835.9526346659251 876.0570762538251 L 835.918174236577 876.163756758239 L 835.8813556675002 876.2702761512453 L 835.8421826405208 876.3766237809934 L 835.8006590729091 876.4827890128093 L 835.7567891169871 876.588761230258 L 835.7105771597137 876.6945298362061 L 835.6620278222464 876.8000842538813 L 835.6111459594783 876.9054139279295 L 835.5579366595534 877.0105083254714 L 835.5024052433572 877.1153569371546 L 835.4445572639852 877.2199492782055 L 835.384398506187 877.3242748894769 L 835.3219349857884 877.4283233384947 L 835.2571729490892 877.5320842205008 L 835.1901188722392 877.6355471594935 L 835.1207794605903 877.738701809265 L 835.0491616480256 877.8415378544362 L 834.9752725962669 877.9440450114885 L 834.8991196941579 878.0462130297915 L 834.8207105569251 878.1480316926285 L 834.740053025417 878.2494908182181 L 834.6571551653195 878.3505802607322 L 834.5720252663497 878.4512899113109 L 834.4846718414262 878.5516096990731 L 834.395103625819 878.6515295921236 L 834.303329576275 878.7510395985562 L 834.2093588701225 878.8501297674534 L 834.113200904354 878.9487901898807 L 834.0148652946859 879.0470109998781 L 833.914361874597 879.1447823754467 L 833.811700694346 879.2420945395301 L 833.7068920199649 879.3389377609931 L 833.599946332234 879.4353023555943 L 833.4908743256331 879.5311786869546 L 833.3796869072718 879.6265571675206 L 833.2663951957992 879.7214282595238 L 833.1510105202923 879.815782475934 L 833.0335444191222 879.9096103814084 L 832.9140086388013 880.0029025932344 L 832.7924151328081 880.0956497822685 L 832.6687760603917 880.1878426738695 L 832.5431037853563 880.2794720488246 L 832.4154108748248 880.3705287442729 L 832.2857100979818 880.4610036546208 L 832.1540144247969 880.5508877324525 L 832.0203370247276 880.6401719894351 L 831.8846912654027 880.7288474972174 L 831.7470907112848 880.8169053883225 L 831.6075491223149 880.9043368570348 L 831.4660804525356 880.9911331602801 L 831.3226988486958 881.0772856185005 L 831.1774186488367 881.1627856165218 L 831.0302543808568 881.2476246044157 L 830.8812207610607 881.331794098354 L 830.7303326926858 881.4152856814574 L 830.5776052644135 881.4980910046372 L 830.4230537488593 881.58020178743 L 830.2666936010457 881.6616098188263 L 830.1085404568574 881.7423069580904 L 829.9486101314772 881.8222851355757 L 829.786918617804 881.9015363535311 L 829.6234820848547 881.9800526869011 L 829.4583168761461 882.0578262841175 L 829.2914395080618 882.1348493678855 L 829.1228666681993 882.211114235961 L 828.9526152137022 882.2866132619205 L 828.780702169574 882.3613388959245 L 828.607144726976 882.4352836654718 L 828.4319602415077 882.5084401761472 L 828.2551662314717 882.5808011123604 L 828.0767803761216 882.6523592380782 L 827.8968205138943 882.7231073975478 L 827.7153046406263 882.7930385160118 L 827.5322509077533 882.8621456004171 L 827.3476776204964 882.9304217401125 L 827.1616032360301 882.997860107541 L 826.9740463616382 883.0644539589222 L 826.7850257528515 883.1301966349263 L 826.5945603115737 883.1950815613405 L 826.4026690841898 883.2591022497264 L 826.209371259663 883.3222522980684 L 826.0146861676145 883.3845253914142 L 825.8186332763913 883.4459153025065 L 825.6212321911191 883.5064158924052 L 825.4225026517421 883.5660211111019 L 825.2224645310483 883.6247249981243 L 825.0211378326834 883.6825216831326 L 824.8185426891494 883.7394053865065 L 824.6146993597915 883.7953704199231 L 824.4096282287733 883.8504111869256 L 824.2033498030365 883.9045221834833 L 823.9958847102522 883.9576979985416 L 823.7872536967565 884.0099333145631 L 823.5774776254771 884.06122290806 L 823.3665774738461 884.1115616501156 L 823.154574331703 884.1609445068975 L 822.9414893991853 884.2093665401615 L 822.727343984609 884.2568229077443 L 822.5121595023367 884.3033088640489 L 822.2959574706374 884.3488197605183 L 822.0787595095343 884.3933510461007 L 821.8605873386423 884.4368982677049 L 821.6414627749967 884.4794570706448 L 821.4214077308714 884.5210231990757 L 821.2004442115873 884.5615924964194 L 820.9785943133123 884.6011609057798 L 820.7558802208513 884.6397244703492 L 820.5323242054278 884.677279333803 L 820.3079486224574 884.7138217406864 L 820.0827759093111 884.749348036789 L 819.8568285830727 884.7838546695108 L 819.6301292382865 884.8173381882175 L 819.4027005446981 884.8497952445848 L 819.1745652449872 884.8812225929344 L 818.9457461524939 884.9116170905575 L 818.7162661489366 884.9409756980295 L 818.4861481821246 884.9692954795146 L 818.2554152636625 884.9965736030578 L 818.0240904666501 885.0228073408697 L 817.7921969233743 885.0479940695983 L 817.5597578229962 885.0721312705917 L 817.3267964092321 885.0952165301501 L 817.0933359780291 885.1172475397665 L 816.8593998752361 885.1382220963585 L 816.6250114942682 885.1581381024879 L 816.3901942737682 885.1769935665706 L 816.1549716952626 885.1947866030758 L 815.9193672808129 885.211515432715 L 815.6834045906646 885.227178382619 L 815.44710722089 885.2417738865057 L 815.210498801029 885.2553004848371 L 814.9736029917264 885.2677568249646 L 814.7364434823659 885.2791416612646 L 814.4990439887007 885.2894538552628 L 814.2614282504823 885.2986923757485 L 814.0236200290866 885.3068562988774 L 813.7856431051375 885.3139448082638 L 813.5475212761291 885.3199571950629 L 813.309278354046 885.3248928580409 L 813.0709381629816 885.3287513036357 L 812.8325245367566 885.3315321460059 L 812.5940613165349 885.3332351070695 L 812.3555723484398 885.333860016532 L 812.1170814811692 885.3334068119027 L 811.8786125636113 885.331875538502 L 811.6401894424591 885.3292663494558 L 811.4018359598261 885.3255795056807 L 811.1635759508617 885.3208153758584 L 810.9254332413685 885.3149744363975 L 810.6874316454189 885.3080572713873 L 810.4495949629741 885.3000645725384 L 810.2119469775041 885.2909971391142 L 809.9745114536096 885.2808558778503 L 809.7373121346449 885.2696418028645 L 809.5003727403445 885.257356035555 L 809.2637169644502 885.2439998044881 L 809.0273684723423 885.229574445276 L 808.7913508986733 885.2140814004424 L 808.5556878450037 885.197522219279 L 808.3204028774426 885.1798985576901 L 808.0855195242906 885.1612121780271 L 807.8510612736873 885.1414649489124 L 807.6170515712624 885.1206588450526 L 807.383513817791 885.0987959470406 L 807.1504713668542 885.075878441148 L 806.9179475225025 885.0519086191064 L 806.6859655369266 885.0268888778779 L 806.454548608132 885.0008217194159 L 806.2237198776185 884.9737097504143 L 805.9935024280669 884.9455556820477 L 805.7639192810303 884.9163623296993 L 805.534993394632 884.88613261268 L 805.30674766127 884.8548695539363 L 805.0792049053274 884.8225762797482 L 804.8523878808901 884.7892560194159 L 804.6263192694717 884.7549121049381 L 804.4010216777447 884.7195479706771 L 804.1765176352806 884.6831671530173 L 803.9528295922967 884.64577329001 L 803.7299799174108 884.6073701210101 L 803.5079908954046 884.5679614863029 L 803.2868847249956 884.5275513267188 L 803.0666835166162 884.4861436832401 L 802.847409290204 884.4437426965967 L 802.6290839729988 884.4003526068519 L 802.4117293973504 884.3559777529786 L 802.1953672985354 884.310622572425 L 801.9800193125831 884.2642916006715 L 801.7657069741128 884.2169894707766 L 801.5524517141797 884.1687209129141 L 801.3402748581323 884.1194907538993 L 801.129197623479 884.0693039167071 L 800.9192411177676 884.0181654199795 L 800.7104263364737 883.9660803775234 L 800.5027741609014 883.9130539977999 L 800.2963053560952 883.8590915834027 L 800.0910405687636 883.8041985305281 L 799.8870003252141 883.7483803284357 L 799.6842050293011 883.6916425588994 L 799.4826749603853 883.6339908956486 L 799.2824302713057 883.5754311038017 L 799.083490986364 883.5159690392892 L 798.8858769993233 883.4556106482678 L 798.6896080714174 883.3943619665264 L 798.4947038293756 883.3322291188821 L 798.3011837634597 883.2692183185679 L 798.1090672255149 883.2053358666114 L 797.9183734270351 883.1405881512045 L 797.7291214372411 883.0749816470648 L 797.5413301811742 883.0085229147879 L 797.3550184378036 882.9412186001919 L 797.1702048381482 882.8730754336519 L 796.9869078634141 882.8041002294281 L 796.805145843146 882.7342998849831 L 796.6249369533944 882.6636813802934 L 796.4462992148981 882.5922517771505 L 796.2692504912822 882.5200182184552 L 796.0938084872713 882.4469879275033 L 795.9199907469199 882.373168207263 L 795.747814651857 882.2985664396447 L 795.5772974195486 882.223190084763 L 795.408456101576 882.1470466801907 L 795.2413075819301 882.0701438402047 L 795.0758685753237 881.9924892550249 L 794.9121556255195 881.9140906900452 L 794.7501851036762 881.8349559850568 L 794.589973206711 881.7550930534641 L 794.4315359556798 881.6745098814937 L 794.274889194176 881.5932145273958 L 794.1200485867452 881.511215120638 L 793.9670296173188 881.4285198610926 L 793.8158475876666 881.3451370182167 L 793.6665176158652 881.261074930225 L 793.5190546347877 881.1763420032564 L 793.3734733906092 881.090946710533 L 793.2297884413327 881.0048975915126 L 793.0880141553336 880.9182032510358 L 792.9481647099221 880.8308723584641 L 792.8102540899264 880.7429136468141 L 792.6742960862933 880.6543359118838 L 792.5403042947103 880.5651480113726 L 792.4082921142445 880.4753588639965 L 792.2782727460042 880.3849774485951 L 792.1502591918177 880.2940128032349 L 792.0242642529338 880.2024740243046 L 791.9003005287415 880.1103702656056 L 791.7783804155098 880.0177107374373 L 791.6585161051484 879.9245047056751 L 791.5407195839884 879.8307614908446 L 791.425002631584 879.7364904671891 L 791.3113768195337 879.6417010617325 L 791.1998535103244 879.5464027533362 L 791.0904438561937 879.4506050717519 L 790.983158798016 879.3543175966677 L 790.8780090642077 879.2575499567508 L 790.7750051696547 879.1603118286847 L 790.6741574146604 879.0626129362012 L 790.5754758839163 878.9644630491081 L 790.4789704454934 878.8658719823122 L 790.3846507498549 878.7668495948382 L 790.2925262288919 878.6674057888422 L 790.2026060949797 878.567550508622 L 790.1148993400568 878.4672937396224 L 790.0294147347255 878.3666455074367 L 789.9461608273753 878.2656158768043 L 789.8651459433272 878.1642149506041 L 789.7863781840024 878.062452868844 L 789.7098654261112 877.9603398076478 L 789.6356153208653 877.8578859782361 L 789.5636352932138 877.7551016259067 L 789.4939325410991 877.6519970290092 L 789.4265140347386 877.5485824979172 L 789.3613865159266 877.4448683739977 L 789.2985564973607 877.3408650285768 L 789.2380302619905 877.2365828619021 L 789.179813862389 877.1320323021037 L 789.1239131201478 877.0272238041501 L 789.0703336252943 876.922167848804 L 789.0190807357335 876.8168749415734 L 788.9701595767117 876.711355611661 L 788.9235750403038 876.6056204109123 L 788.879331784925 876.4996799127588 L 788.8374342348635 876.3935447111623 L 788.7978865798398 876.2872254195546 L 788.7606927745861 876.180732669776 L 788.7258565384523 876.0740771110129 L 788.6933813550326 875.9672694087324 L 788.6632704718186 875.8603202436154 L 788.6355268998733 875.7532403104896 L 788.610153413531 875.6460403172588 L 788.587152550119 875.5387309838331 L 788.5665266097045 875.4313230410567 L 788.5482776548644 875.3238272296339 L 788.532407510479 875.2162542990567 L 788.5189177635494 875.1086150065281 L 788.5078097630392 875.000920115888 L 788.4990846197392 874.8931803965355 L 788.4927432061562 874.7854066223529 L 788.4887861564266 874.6776095706276 L 788.4872138662519 874.5698000209752" stroke-miterlimit="10" stroke-width="2.7769845610000004" stroke-dasharray=""/></g><g><g/><text fill="black" stroke="none" font-family="sans-serif" font-size="11pt" font-style="normal" font-weight="normal" text-decoration="normal" x="780.9586354904296" y="822.982392438818" text-anchor="start" dominant-baseline="alphabetic" xml:space="preserve">Database</text></g></g><g><path fill="white" stroke="black" paint-order="fill stroke markers" d=" M 73.50841485 182.64242307881818 L 89.84361814999998 182.64242307881818 L 89.84361814999998 749.473977588818 L 73.50841485 749.473977588818 L 73.50841485 182.64242307881818" stroke-miterlimit="10" stroke-width="1.3612669416666667" stroke-dasharray=""/><path fill="white" stroke="black" paint-order="fill stroke markers" d=" M 329.0232856495442 182.64242307881818 L 345.3584889495442 182.64242307881818 L 345.3584889495442 749.473977588818 L 329.0232856495442 749.473977588818 L 329.0232856495442 182.64242307881818" stroke-miterlimit="10" stroke-width="1.3612669416666667" stroke-dasharray=""/><path fill="white" stroke="black" paint-order="fill stroke markers" d=" M 577.9955539100259 228.3809923188182 L 594.330757210026 228.3809923188182 L 594.330757210026 749.473977588818 L 577.9955539100259 749.473977588818 L 577.9955539100259 228.3809923188182" stroke-miterlimit="10" stroke-width="1.3612669416666667" stroke-dasharray=""/><path fill="white" stroke="black" paint-order="fill stroke markers" d=" M 804.1689787867186 339.4603747588182 L 820.5041820867187 339.4603747588182 L 820.5041820867187 749.473977588818 L 804.1689787867186 749.473977588818 L 804.1689787867186 339.4603747588182" stroke-miterlimit="10" stroke-width="1.3612669416666667" stroke-dasharray=""/><g><text fill="black" stroke="none" font-family="sans-serif" font-size="16pt" font-style="normal" font-weight="normal" text-decoration="normal" x="303.3946533203125" y="24.651306798181814" text-anchor="start" dominant-baseline="alphabetic" xml:space="preserve">Xadchv(baogmxatrongdchvphng)</text></g><g><rect fill="white" stroke="none" x="136.48928254979162" y="161.4066587888182" width="145.88833869996094" height="21.23576429"/><text fill="black" stroke="none" font-family="sans-serif" font-size="11pt" font-style="normal" font-weight="normal" text-decoration="normal" x="138.9395630447916" y="176.10834175881817" text-anchor="start" dominant-baseline="alphabetic" xml:space="preserve">Chndchvcnxa</text></g><g><path fill="none" stroke="black" paint-order="fill stroke markers" d=" M 89.84361814999998 182.64242307881818 L 315.57396826587757 182.64242307881818" stroke-miterlimit="10" stroke-width="1.3612669416666667" stroke-dasharray=""/><g transform="translate(329.0232856495442,182.64242307881818) translate(-329.0232856495442,-182.64242307881818)"><path fill="black" stroke="none" paint-order="stroke fill markers" d=" M 315.41061623287754 175.83608837048484 L 329.0232856495442 182.64242307881818 L 315.41061623287754 189.44875778715152 Z"/></g></g><g><rect fill="white" stroke="none" x="384.6526747726757" y="207.1452280288182" width="154.04869331421875" height="21.23576429"/><text fill="black" stroke="none" font-family="sans-serif" font-size="11pt" font-style="normal" font-weight="normal" text-decoration="normal" x="387.1029552676757" y="221.84691099881817" text-anchor="start" dominant-baseline="alphabetic" xml:space="preserve">GiIDdchvcnxa</text></g><g><path fill="none" stroke="black" paint-order="fill stroke markers" d=" M 345.3584889495442 228.3809923188182 L 564.5462365263593 228.3809923188182" stroke-miterlimit="10" stroke-width="1.3612669416666667" stroke-dasharray=""/><g transform="translate(577.9955539100259,228.3809923188182) translate(-577.9955539100259,-228.3809923188182)"><path fill="black" stroke="none" paint-order="stroke fill markers" d=" M 564.3828844933593 221.57465761048485 L 577.9955539100259 228.3809923188182 L 564.3828844933593 235.18732702715153 Z"/></g></g><g><rect fill="white" stroke="none" x="613.6607477816927" y="252.88379726881823" width="103.49751533570313" height="21.23576429"/><text fill="black" stroke="none" font-family="sans-serif" font-size="11pt" font-style="normal" font-weight="normal" text-decoration="normal" x="616.1110282766928" y="267.5854802388182" text-anchor="start" dominant-baseline="alphabetic" xml:space="preserve">Kimtraquyn</text></g><g><path fill="none" stroke="black" paint-order="fill stroke markers" d=" M 594.330757210026 274.1195615588182 L 659.671570410026 274.1195615588182 L 659.671570410026 295.3553258488182 L 607.7800745936927 295.3553258488182" stroke-miterlimit="10" stroke-width="1.3612669416666667" stroke-dasharray=""/><g transform="translate(594.330757210026,295.3553258488182) translate(-594.330757210026,-295.3553258488182)"><path fill="black" stroke="none" paint-order="stroke fill markers" d=" M 607.9434266266927 288.5489911404849 L 594.330757210026 295.3553258488182 L 607.9434266266927 302.16166055715155 Z"/></g></g><g><rect fill="white" stroke="none" x="644.229816690384" y="363.9631797088182" width="110.04010261597656" height="21.23576429"/><text fill="black" stroke="none" font-family="sans-serif" font-size="11pt" font-style="normal" font-weight="normal" text-decoration="normal" x="646.680097185384" y="378.66486267881817" text-anchor="start" dominant-baseline="alphabetic" xml:space="preserve">Xadchvnh</text></g><g><path fill="none" stroke="black" paint-order="fill stroke markers" d=" M 594.330757210026 385.1989439988182 L 790.719661403052 385.1989439988182" stroke-miterlimit="10" stroke-width="1.3612669416666667" stroke-dasharray=""/><g transform="translate(804.1689787867186,385.1989439988182) translate(-804.1689787867186,-385.1989439988182)"><path fill="black" stroke="none" paint-order="stroke fill markers" d=" M 790.556309370052 378.39260929048487 L 804.1689787867186 385.1989439988182 L 790.556309370052 392.00527870715155 Z"/></g></g><g><rect fill="white" stroke="none" x="839.8341726583855" y="409.7017489488182" width="194.01288093628906" height="21.23576429"/><text fill="black" stroke="none" font-family="sans-serif" font-size="11pt" font-style="normal" font-weight="normal" text-decoration="normal" x="842.2844531533855" y="424.40343191881817" text-anchor="start" dominant-baseline="alphabetic" xml:space="preserve">Thchinxadchvphng</text></g><g><path fill="none" stroke="black" paint-order="fill stroke markers" d=" M 820.5041820867187 430.93751323881816 L 885.8449952867187 430.93751323881816 L 885.8449952867187 452.1732775288182 L 833.9534994703854 452.1732775288182" stroke-miterlimit="10" stroke-width="1.3612669416666667" stroke-dasharray=""/><g transform="translate(820.5041820867187,452.1732775288182) translate(-820.5041820867187,-452.1732775288182)"><path fill="black" stroke="none" paint-order="stroke fill markers" d=" M 834.1168515033854 445.36694282048484 L 820.5041820867187 452.1732775288182 L 834.1168515033854 458.9796122371515 Z"/></g></g><g><rect fill="white" stroke="none" x="613.6607477816926" y="476.67608247881816" width="171.17824043335938" height="21.23576429"/><text fill="black" stroke="none" font-family="sans-serif" font-size="11pt" font-style="normal" font-weight="normal" text-decoration="normal" x="616.1110282766927" y="491.37776544881814" text-anchor="start" dominant-baseline="alphabetic" xml:space="preserve">Xcnhnxathnhcng</text></g><g><path fill="none" stroke="black" paint-order="fill stroke markers" d=" M 804.1689787867186 497.9118467688182 L 607.7800745936927 497.9118467688182" stroke-miterlimit="10" stroke-width="1.3612669416666667" stroke-dasharray="6.53408132"/><g transform="translate(594.330757210026,497.9118467688182) translate(-594.330757210026,-497.9118467688182)"><path fill="black" stroke="none" paint-order="stroke fill markers" d=" M 607.9434266266927 491.10551206048484 L 594.330757210026 497.9118467688182 L 607.9434266266927 504.7181814771515 Z"/></g></g><g><rect fill="white" stroke="none" x="372.01130209201165" y="522.4146517188182" width="179.33143867554688" height="21.23576429"/><text fill="black" stroke="none" font-family="sans-serif" font-size="11pt" font-style="normal" font-weight="normal" text-decoration="normal" x="374.46158258701166" y="537.1163346888181" text-anchor="start" dominant-baseline="alphabetic" xml:space="preserve">Thngboxathnhcng</text></g><g><path fill="none" stroke="black" paint-order="fill stroke markers" d=" M 577.9955539100259 543.6504160088182 L 358.80780633321086 543.6504160088182" stroke-miterlimit="10" stroke-width="1.3612669416666667" stroke-dasharray="6.53408132"/><g transform="translate(345.3584889495442,543.6504160088182) translate(-345.3584889495442,-543.6504160088182)"><path fill="black" stroke="none" paint-order="stroke fill markers" d=" M 358.9711583662109 536.8440813004848 L 345.3584889495442 543.6504160088182 L 358.9711583662109 550.4567507171515 Z"/></g></g><g><rect fill="white" stroke="none" x="109.17360872166661" y="568.1532209588181" width="200.51968635621094" height="21.23576429"/><text fill="black" stroke="none" font-family="sans-serif" font-size="11pt" font-style="normal" font-weight="normal" text-decoration="normal" x="111.62388921666661" y="582.8549039288181" text-anchor="start" dominant-baseline="alphabetic" xml:space="preserve">Hinththngbothnhcng</text></g><g><path fill="none" stroke="black" paint-order="fill stroke markers" d=" M 329.0232856495442 589.3889852488181 L 103.29293553366665 589.3889852488181" stroke-miterlimit="10" stroke-width="1.3612669416666667" stroke-dasharray="6.53408132"/><g transform="translate(89.84361814999998,589.3889852488181) translate(-89.84361814999998,-589.3889852488181)"><path fill="black" stroke="none" paint-order="stroke fill markers" d=" M 103.45628756666665 582.5826505404848 L 89.84361814999998 589.3889852488181 L 103.45628756666665 596.1953199571515 Z"/></g></g><g><rect fill="white" stroke="none" x="364.68847952121087" y="657.996839108818" width="193.97708381714844" height="21.23576429"/><text fill="black" stroke="none" font-family="sans-serif" font-size="11pt" font-style="normal" font-weight="normal" text-decoration="normal" x="367.1387600162109" y="672.698522078818" text-anchor="start" dominant-baseline="alphabetic" xml:space="preserve">Thngboliquyntruycp</text></g><g><path fill="none" stroke="black" paint-order="fill stroke markers" d=" M 577.9955539100259 679.232603398818 L 358.80780633321086 679.232603398818" stroke-miterlimit="10" stroke-width="1.3612669416666667" stroke-dasharray="6.53408132"/><g transform="translate(345.3584889495442,679.232603398818) translate(-345.3584889495442,-679.232603398818)"><path fill="black" stroke="none" paint-order="stroke fill markers" d=" M 358.9711583662109 672.4262686904847 L 345.3584889495442 679.232603398818 L 358.9711583662109 686.0389381071514 Z"/></g></g><g><rect fill="white" stroke="none" x="121.40338319676427" y="703.7354083488179" width="176.06013740601563" height="21.23576429"/><text fill="black" stroke="none" font-family="sans-serif" font-size="11pt" font-style="normal" font-weight="normal" text-decoration="normal" x="123.85366369176427" y="718.4370913188179" text-anchor="start" dominant-baseline="alphabetic" xml:space="preserve">Hinththngbothtbi</text></g><g><path fill="none" stroke="black" paint-order="fill stroke markers" d=" M 329.0232856495442 724.971172638818 L 103.29293553366665 724.971172638818" stroke-miterlimit="10" stroke-width="1.3612669416666667" stroke-dasharray="6.53408132"/><g transform="translate(89.84361814999998,724.971172638818) translate(-89.84361814999998,-724.971172638818)"><path fill="black" stroke="none" paint-order="stroke fill markers" d=" M 103.45628756666665 718.1648379304846 L 89.84361814999998 724.971172638818 L 103.45628756666665 731.7775073471513 Z"/></g></g><g><g/><path fill="none" stroke="black" paint-order="fill stroke markers" d=" M 16.33520329999999 319.8581307988182 L 1039.5643747496745 319.8581307988182 L 1039.5643747496745 749.473977588818 L 16.33520329999999 749.473977588818 L 16.33520329999999 319.8581307988182 Z" stroke-miterlimit="10" stroke-width="2.3336004714285714" stroke-dasharray=""/><path fill="white" stroke="black" paint-order="fill stroke markers" d=" M 16.33520329999999 319.8581307988182 L 16.33520329999999 339.4603747588182 L 62.6944068970703 339.4603747588182 L 72.4955288770703 329.6592527788182 L 72.4955288770703 319.8581307988182 L 16.33520329999999 319.8581307988182" stroke-miterlimit="10" stroke-width="2.3336004714285714" stroke-dasharray=""/><text fill="black" stroke="none" font-family="sans-serif" font-size="8.8pt" font-style="normal" font-weight="bold" text-decoration="normal" x="32.67040659999999" y="332.9262934388182" text-anchor="start" dominant-baseline="alphabetic" xml:space="preserve">alt</text><g><rect fill="white" stroke="none" x="86.3804516820703" y="321.1649470628182" width="88.1846186071875" height="16.988611432000003"/></g><text fill="black" stroke="none" font-family="sans-serif" font-size="8.8pt" font-style="normal" font-weight="bold" text-decoration="normal" x="88.8307321770703" y="332.9262934388182" text-anchor="start" dominant-baseline="alphabetic" xml:space="preserve">[Quynhpl]</text><g><path fill="none" stroke="black" paint-order="fill stroke markers" d=" M 16.33520329999999 613.8917901988181 L 1039.5643747496745 613.8917901988181" stroke-miterlimit="10" stroke-width="2.3336004714285714" stroke-dasharray="4.083800825"/></g><g/><g><rect fill="white" stroke="none" x="86.3804516820703" y="615.198606462818" width="126.62782539429688" height="16.988611432000003"/></g><text fill="black" stroke="none" font-family="sans-serif" font-size="8.8pt" font-style="normal" font-weight="bold" text-decoration="normal" x="88.8307321770703" y="626.959952838818" text-anchor="start" dominant-baseline="alphabetic" xml:space="preserve">[Quynkhnghpl]</text></g><g/></g><g/><g/><g/><g/></g></svg>