<svg xmlns="http://www.w3.org/2000/svg" xmlns:xlink="http://www.w3.org/1999/xlink" version="1.1" width="1107.5916222052736" height="992.051746593818"><desc>title%20X%C3%B3a%20ph%C3%B2ng%0A%0Abottomparticipants%0A%0Aactor%20Landlord%0Aentity%20Client%0Aentity%20Backend%0Adatabase%20Database%0A%0Aactivate%20Landlord%0Aactivate%20Client%0A%0ALandlord%20-%3E%20Client%3A%20Ch%E1%BB%8Dn%20ph%C3%B2ng%20c%E1%BA%A7n%20x%C3%B3a%0A%0AClient%20--%3E%20Landlord%3A%20Hi%E1%BB%83n%20th%E1%BB%8B%20x%C3%A1c%20nh%E1%BA%ADn%20x%C3%B3a%0A%0ALandlord%20-%3E%20Client%3A%20X%C3%A1c%20nh%E1%BA%ADn%20x%C3%B3a%20ph%C3%B2ng%0A%0Aactivate%20Backend%0AClient%20-%3E%20Backend%3A%20G%E1%BB%ADi%20y%C3%AAu%20c%E1%BA%A7u%20x%C3%B3a%20ph%C3%B2ng%0A%0Aactivate%20Database%0ABackend%20-%3E%20Database%3A%20Ki%E1%BB%83m%20tra%20r%C3%A0ng%20bu%E1%BB%99c%20d%E1%BB%AF%20li%E1%BB%87u%20li%C3%AAn%20quan%0A%0Aalt%20Kh%C3%B4ng%20c%C3%B3%20r%C3%A0ng%20bu%E1%BB%99c%0A%20%20Database%20--%3E%20Backend%3A%20X%C3%A1c%20nh%E1%BA%ADn%20kh%C3%B4ng%20c%C3%B3%20r%C3%A0ng%20bu%E1%BB%99c%0A%20%20Backend%20-%3E%20Database%3A%20X%C3%B3a%20ph%C3%B2ng%0A%20%20Database%20--%3E%20Backend%3A%20X%C3%A1c%20nh%E1%BA%ADn%20x%C3%B3a%20th%C3%A0nh%20c%C3%B4ng%0A%20%20Backend%20--%3E%20Client%3A%20X%C3%A1c%20nh%E1%BA%ADn%20x%C3%B3a%20th%C3%A0nh%20c%C3%B4ng%0A%20%20Client%20--%3E%20Landlord%3A%20Hi%E1%BB%83n%20th%E1%BB%8B%20th%C3%B4ng%20b%C3%A1o%20x%C3%B3a%20ph%C3%B2ng%20th%C3%A0nh%20c%C3%B4ng%0Aelse%20C%C3%B3%20r%C3%A0ng%20bu%E1%BB%99c%0A%20%20Database%20--%3E%20Backend%3A%20Tr%E1%BA%A3%20v%E1%BB%81%20th%C3%B4ng%20tin%20r%C3%A0ng%20bu%E1%BB%99c%0A%20%20Backend%20--%3E%20Client%3A%20Hi%E1%BB%83n%20th%E1%BB%8B%20th%C3%B4ng%20b%C3%A1o%20kh%C3%B4ng%20th%E1%BB%83%20x%C3%B3a%20ph%C3%B2ng%0A%20%20Client%20--%3E%20Landlord%3A%20Hi%E1%BB%83n%20th%E1%BB%8B%20th%C3%B4ng%20b%C3%A1o%20l%E1%BB%97i%0Aend%0A%0Adeactivate%20Landlord%0Adeactivate%20Client%0Adeactivate%20Backend%0Adeactivate%20Database%0A</desc><defs/><g><g/><g/><g/><g/><g/><g/><g/><g/><g/><g/><g/><g/><g/><g/><g/><g/><g/><g/><g/><g/><g/><g/><g/><g/><g/><g/><g/><g/><g/><g/><g/><g/><g/><g/><g/><g/><g/><g/><g/><g/><g/><g/><g/><g/><g/><g/><g/><g/><g/><g/><g/><g/><g/><g/><g/><g/><g/><g/><g/><g/><g/><g/><g/><g/><g/><g/><g/><g/><g/><g/><g/><g/><g/><g/><g/><g/><g/><g/><g/><g/><g/><g/><g/><g/><g/><g/><g/><g/><g/><g/><g/><g/><g/><g/><g/><g/><g/><g/><g/><g/><g/><g/><g/><g/><g/><g/><g/><g/><g/><g/><g/><g/><g/><g/><g/><g/><g/><g/><g/><g/><g/><g/><g/><g/><g/><g/><g/><g/><g/><g/><g/><g/><g/><g/><g/><g/><g/><g/><g/><g/><g/><g/><g/><g/><g/><g/><g><rect fill="white" stroke="none" x="0" y="0" width="1107" height="992"/></g><g/><g><path fill="none" stroke="black" paint-order="fill stroke markers" d=" M 81.67601649999999 128.73625218881818 L 81.67601649999999 901.391368278818" stroke-miterlimit="10" stroke-width="1.3612669416666667" stroke-dasharray="12.565541,5.445067766666667"/><path fill="none" stroke="black" paint-order="fill stroke markers" d=" M 409.7391813669271 128.73625218881818 L 409.7391813669271 901.391368278818" stroke-miterlimit="10" stroke-width="1.3612669416666667" stroke-dasharray="12.565541,5.445067766666667"/><path fill="none" stroke="black" paint-order="fill stroke markers" d=" M 729.6491632504558 128.73625218881818 L 729.6491632504558 901.391368278818" stroke-miterlimit="10" stroke-width="1.3612669416666667" stroke-dasharray="12.565541,5.445067766666667"/><path fill="none" stroke="black" paint-order="fill stroke markers" d=" M 1025.9156057052735 128.73625218881818 L 1025.9156057052735 901.391368278818" stroke-miterlimit="10" stroke-width="1.3612669416666667" stroke-dasharray="12.565541,5.445067766666667"/></g><g><g><path fill="white" stroke="black" paint-order="fill stroke markers" d=" M 90.987082381 59.63834222981819 A 9.311065881 9.311065881 0 1 1 90.98707772546743 59.62903116548903 M 81.67601649999999 68.9494081108182 L 81.67601649999999 88.8783561368182 M 69.914670124 76.13689756281819 L 93.43736287599998 76.13689756281819 M 81.67601649999999 88.8783561368182 L 69.914670124 107.50048789881819 M 81.67601649999999 88.8783561368182 L 93.43736287599998 107.50048789881819" stroke-miterlimit="10" stroke-width="2.7769845610000004" stroke-dasharray=""/></g><g><g/><text fill="black" stroke="none" font-family="sans-serif" font-size="11pt" font-style="normal" font-weight="normal" text-decoration="normal" x="53.1470400595703" y="123.83569119881818" text-anchor="start" dominant-baseline="alphabetic" xml:space="preserve">Landlord</text></g><g><path fill="white" stroke="black" paint-order="fill stroke markers" d=" M 433.9969582674271 79.63263106901819 A 24.2577769005 24.2577769005 0 1 1 433.99694613853967 79.60837329616064 M 384.0929121859271 106.11199561831819 L 435.38545054792706 106.11199561831819" stroke-miterlimit="10" stroke-width="2.7769845610000004" stroke-dasharray=""/></g><g><g/><text fill="black" stroke="none" font-family="sans-serif" font-size="11pt" font-style="normal" font-weight="normal" text-decoration="normal" x="390.9990309152669" y="123.83569119881818" text-anchor="start" dominant-baseline="alphabetic" xml:space="preserve">Client</text></g><g><path fill="white" stroke="black" paint-order="fill stroke markers" d=" M 753.9069401509557 79.63263106901819 A 24.2577769005 24.2577769005 0 1 1 753.9069280220683 79.60837329616064 M 704.0028940694558 106.11199561831819 L 755.2954324314558 106.11199561831819" stroke-miterlimit="10" stroke-width="2.7769845610000004" stroke-dasharray=""/></g><g><g/><text fill="black" stroke="none" font-family="sans-serif" font-size="11pt" font-style="normal" font-weight="normal" text-decoration="normal" x="701.1237649960613" y="123.83569119881818" text-anchor="start" dominant-baseline="alphabetic" xml:space="preserve">Backend</text></g><g><path fill="white" stroke="black" paint-order="fill stroke markers" d=" M 1002.0662088872735 96.71925372081819 L 1002.0662088872735 62.41532679081819 L 1049.7650025232736 62.41532679081819 L 1049.7650025232736 96.71925372081819" stroke-miterlimit="10" stroke-width="2.7769845610000004" stroke-dasharray=""/><path fill="white" stroke="black" paint-order="fill stroke markers" d=" M 1049.7650025232736 61.22285694991819 L 1049.7638100633699 61.33066749483481 L 1049.7602328029038 61.43846725878678 L 1049.7542710995983 61.546245461887544 L 1049.7459255496192 61.65399132640659 L 1049.735196987514 61.761694077847274 L 1049.7220864861301 61.86934294602419 L 1049.7065953565068 61.976927166140236 L 1049.6887251477442 62.084435979863045 L 1049.6684776468483 62.19185863640084 L 1049.645854878552 62.299184393577484 L 1049.6208591051136 62.4064025189067 L 1049.5934928260897 62.51350229066531 L 1049.563758778085 62.62047299896537 L 1049.5316599344799 62.7273039468252 L 1049.4971995051317 62.83398445123905 L 1049.460380936055 62.94050384424536 L 1049.4212079090757 63.04685147399361 L 1049.3796843414639 63.15301670580944 L 1049.3358143855419 63.25898892325815 L 1049.2896024282686 63.364757529206294 L 1049.2410530908012 63.47031194688142 L 1049.1901712280333 63.575641620929716 L 1049.1369619281081 63.68073601847156 L 1049.081430511912 63.78558463015478 L 1049.02358253254 63.89017697120557 L 1048.9634237747418 63.994502582477 L 1048.900960254343 64.09855103149486 L 1048.836198217644 64.20231191350096 L 1048.769144140794 64.3057748524936 L 1048.699804729145 64.40892950226505 L 1048.6281869165805 64.51176554743633 L 1048.5542978648218 64.61427270448858 L 1048.4781449627126 64.71644072279157 L 1048.3997358254799 64.81825938562858 L 1048.3190782939719 64.91971851121816 L 1048.2361804338743 65.02080795373233 L 1048.1510505349045 65.12151760431107 L 1048.0636971099811 65.22183739207324 L 1047.974128894374 65.32175728512367 L 1047.8823548448297 65.42126729155632 L 1047.7883841386774 65.52035746045347 L 1047.692226172909 65.6190178828808 L 1047.5938905632406 65.71723869287828 L 1047.493387143152 65.81501006844678 L 1047.3907259629007 65.91232223253022 L 1047.2859172885196 66.00916545399325 L 1047.1789716007888 66.10553004859446 L 1047.069899594188 66.20140637995469 L 1046.9587121758266 66.29678486052069 L 1046.845420464354 66.39165595252388 L 1046.730035788847 66.48601016893414 L 1046.612569687677 66.57983807440844 L 1046.4930339073562 66.67313028623443 L 1046.3714404013629 66.76587747526865 L 1046.2478013289465 66.85807036686953 L 1046.122129053911 66.94969974182469 L 1045.9944361433795 67.04075643727302 L 1045.8647353665367 67.13123134762085 L 1045.7330396933517 67.22111542545254 L 1045.5993622932824 67.3103996824352 L 1045.4637165339575 67.39907519021754 L 1045.3261159798396 67.4871330813227 L 1045.1865743908697 67.57456455003492 L 1045.0451057210905 67.6613608532802 L 1044.9017241172508 67.74751331150055 L 1044.7564439173914 67.83301330952195 L 1044.6092796494117 67.91785229741582 L 1044.4602460296155 68.00202179135408 L 1044.3093579612407 68.08551337445749 L 1044.1566305329684 68.1683186976373 L 1044.002079017414 68.25042948043021 L 1043.8457188696004 68.33183751182635 L 1043.6875657254122 68.41253465109044 L 1043.527635400032 68.4925128285758 L 1043.3659438863588 68.5717640465313 L 1043.2025073534094 68.65028037990122 L 1043.037342144701 68.72805397711764 L 1042.8704647766167 68.80507706088565 L 1042.7018919367542 68.88134192896105 L 1042.531640482257 68.95684095492061 L 1042.3597274381289 69.03156658892462 L 1042.186169995531 69.10551135847197 L 1042.0109855100625 69.17866786914732 L 1041.8341915000265 69.25102880536058 L 1041.6558056446763 69.3225869310784 L 1041.4758457824491 69.39333509054786 L 1041.294329909181 69.46326620901198 L 1041.1112761763081 69.53237329341717 L 1040.926702889051 69.60064943311258 L 1040.740628504585 69.66808780054113 L 1040.553071630193 69.7346816519223 L 1040.3640510214063 69.80042432792644 L 1040.1735855801285 69.86530925434072 L 1039.9816943527446 69.92932994272657 L 1039.7883965282178 69.9924799910685 L 1039.5937114361693 70.05475308441433 L 1039.3976585449461 70.1161429955066 L 1039.200257459674 70.17664358540536 L 1039.001527920297 70.23624880410202 L 1038.8014897996031 70.29495269112441 L 1038.6001631012382 70.35274937613272 L 1038.397567957704 70.40963307950663 L 1038.1937246283464 70.46559811292322 L 1037.988653497328 70.52063887992576 L 1037.7823750715913 70.57474987648341 L 1037.574909978807 70.62792569154163 L 1037.3662789653113 70.68016100756323 L 1037.1565028940317 70.73145060106012 L 1036.9456027424008 70.78178934311569 L 1036.7335996002578 70.8311721998977 L 1036.5205146677401 70.8795942331616 L 1036.3063692531637 70.92705060074444 L 1036.0911847708915 70.973536557049 L 1035.8749827391923 71.01904745351838 L 1035.657784778089 71.06357873910088 L 1035.439612607197 71.10712596070502 L 1035.2204880435515 71.14968476364494 L 1035.0004329994263 71.19125089207583 L 1034.779469480142 71.23182018941947 L 1034.5576195818671 71.27138859877994 L 1034.334905489406 71.30995216334925 L 1034.1113494739827 71.34750702680313 L 1033.886973891012 71.38404943368649 L 1033.6618011778658 71.4195757297891 L 1033.4358538516274 71.45408236251096 L 1033.2091545068413 71.48756588121756 L 1032.9817258132528 71.52002293758491 L 1032.7535905135421 71.55145028593446 L 1032.5247714210486 71.58184478355753 L 1032.2952914174914 71.61120339102969 L 1032.0651734506794 71.63952317251467 L 1031.8344405322173 71.66680129605793 L 1031.603115735205 71.69303503386982 L 1031.371222191929 71.71822176259843 L 1031.138783091551 71.7423589635919 L 1030.905821677787 71.7654442231502 L 1030.672361246584 71.78747523276665 L 1030.438425143791 71.80844978935863 L 1030.204036762823 71.82836579548797 L 1029.9692195423231 71.84722125957065 L 1029.7339969638174 71.86501429607597 L 1029.4983925493677 71.8817431257151 L 1029.2624298592195 71.89740607561903 L 1029.0261324894448 71.91200157950583 L 1028.7895240695836 71.92552817783725 L 1028.5526282602812 71.93798451796474 L 1028.3154687509207 71.94936935426468 L 1028.0780692572555 71.95968154826289 L 1027.840453519037 71.96892006874862 L 1027.6026452976414 71.97708399187748 L 1027.3646683736924 71.98417250126396 L 1027.126546544684 71.99018488806304 L 1026.8883036226007 71.99512055104105 L 1026.6499634315364 71.99897899663581 L 1026.4115498053113 72.00175983900598 L 1026.1730865850898 72.00346280006961 L 1025.9345976169946 72.00408770953204 L 1025.696106749724 72.00363450490285 L 1025.4576378321663 72.0021032315021 L 1025.219214711014 71.99949404245586 L 1024.980861228381 71.9958071986809 L 1024.7426012194167 71.99104306885846 L 1024.5044585099233 71.98520212939759 L 1024.2664569139736 71.97828496438737 L 1024.0286202315287 71.97029226553852 L 1023.7909722460589 71.96122483211428 L 1023.5535367221644 71.95108357085043 L 1023.3163374031997 71.93986949586466 L 1023.0793980088993 71.92758372855508 L 1022.842742233005 71.91422749748824 L 1022.6063937408971 71.89980213827607 L 1022.3703761672281 71.8843090934425 L 1022.1347131135585 71.86774991227908 L 1021.8994281459974 71.85012625069015 L 1021.6645447928454 71.83143987102717 L 1021.4300865422421 71.81169264191253 L 1021.1960768398172 71.79088653805269 L 1020.9625390863458 71.7690236400407 L 1020.729496635409 71.74610613414815 L 1020.4969727910573 71.72213631210651 L 1020.2649908054814 71.69711657087802 L 1020.0335738766868 71.67104941241597 L 1019.8027451461733 71.64393744341446 L 1019.5725276966217 71.6157833750478 L 1019.3429445495851 71.58659002269937 L 1019.1140186631868 71.55636030568009 L 1018.8857729298248 71.52509724693644 L 1018.6582301738822 71.49280397274828 L 1018.4314131494449 71.45948371241609 L 1018.2053445380265 71.42513979793813 L 1017.9800469462995 71.38977566367726 L 1017.7555429038354 71.35339484601741 L 1017.5318548608515 71.31600098301004 L 1017.3090051859656 71.27759781401028 L 1017.0870161639594 71.23818917930303 L 1016.8659099935504 71.19777901971894 L 1016.645708785171 71.15637137624027 L 1016.4264345587588 71.11397038959687 L 1016.2081092415536 71.07058029985207 L 1015.9907546659052 71.02620544597868 L 1015.7743925670902 70.98085026542512 L 1015.5590445811379 70.93451929367163 L 1015.3447322426676 70.8872171637768 L 1015.1314769827345 70.8389486059142 L 1014.9193001266871 70.78971844689937 L 1014.7082228920337 70.7395316097072 L 1014.4982663863224 70.6883931129796 L 1014.2894516050285 70.6363080705236 L 1014.0817994294562 70.58328169080006 L 1013.87533062465 70.52931927640276 L 1013.6700658373184 70.47442622352818 L 1013.4660255937689 70.41860802143584 L 1013.2632302978559 70.36187025189946 L 1013.0617002289401 70.3042185886487 L 1012.8614555398605 70.24565879680183 L 1012.6625162549188 70.18619673228926 L 1012.4649022678781 70.12583834126788 L 1012.2686333399722 70.06458965952649 L 1012.0737290979304 70.00245681188221 L 1011.8802090320145 69.93944601156807 L 1011.6880924940697 69.87556355961155 L 1011.4973986955899 69.81081584420461 L 1011.3081467057959 69.74520934006487 L 1011.120355449729 69.67875060778805 L 1010.9340437063584 69.61144629319199 L 1010.749230106703 69.54330312665208 L 1010.5659331319689 69.47432792242817 L 1010.3841711117007 69.40452757798322 L 1010.2039622219492 69.3339090732935 L 1010.0253244834529 69.26247947015062 L 1009.848275759837 69.19024591145539 L 1009.6728337558261 69.11721562050347 L 1009.4990160154747 69.0433959002631 L 1009.3268399204118 68.96879413264479 L 1009.1563226881034 68.89341777776313 L 1008.9874813701308 68.81727437319081 L 1008.8203328504849 68.74037153320482 L 1008.6548938438785 68.66271694802508 L 1008.4911808940743 68.58431838304537 L 1008.329210372231 68.5051836780569 L 1008.1689984752658 68.4253207464642 L 1008.0105612242346 68.34473757449386 L 1007.8539144627308 68.26344222039596 L 1007.6990738553 68.18144281363814 L 1007.5460548858737 68.09874755409275 L 1007.3948728562214 68.01536471121685 L 1007.24554288442 67.9313026232252 L 1007.0980799033425 67.84656969625658 L 1006.952498659164 67.76117440353308 L 1006.8088137098875 67.67512528451279 L 1006.6670394238884 67.5884309440359 L 1006.5271899784769 67.50110005146425 L 1006.3892793584812 67.41314133981427 L 1006.2533213548481 67.32456360488388 L 1006.1193295632651 67.23537570437271 L 1005.9873173827993 67.14558655699653 L 1005.857298014559 67.05520514159522 L 1005.7292844603725 66.96424049623502 L 1005.6032895214886 66.87270171730466 L 1005.4793257972963 66.78059795860575 L 1005.3574056840646 66.68793843043741 L 1005.2375413737032 66.59473239867523 L 1005.1197448525432 66.50098918384472 L 1005.0040279001388 66.40671816018926 L 1004.8904020880885 66.31192875473263 L 1004.7788787788792 66.2166304463364 L 1004.6694691247485 66.120832764752 L 1004.5621840665708 66.02454528966774 L 1004.4570343327625 65.92777764975091 L 1004.3540304382095 65.83053952168484 L 1004.2531826832152 65.73284062920132 L 1004.1545011524711 65.63469074210818 L 1004.0579957140482 65.53609967531233 L 1003.9636760184097 65.4370772878383 L 1003.8715514974467 65.33763348184232 L 1003.7816313635345 65.23777820162212 L 1003.6939246086116 65.13752143262249 L 1003.6084400032803 65.03687320043682 L 1003.52518609593 64.93584356980442 L 1003.444171211882 64.83444264360419 L 1003.3654034525572 64.73268056184422 L 1003.288890694666 64.63056750064791 L 1003.2146405894201 64.52811367123628 L 1003.1426605617686 64.42532931890689 L 1003.0729578096539 64.32222472200931 L 1003.0055393032934 64.21881019091732 L 1002.9404117844814 64.11509606699785 L 1002.8775817659155 64.01109272157687 L 1002.8170555305453 63.90681055490224 L 1002.7588391309438 63.80225999510374 L 1002.7029383887026 63.697451497150205 L 1002.6493588938491 63.59239554180411 L 1002.5981060042883 63.48710263457343 L 1002.5491848452665 63.381583304661156 L 1002.5026003088586 63.27584810391234 L 1002.4583570534797 63.16990760575894 L 1002.4164595034183 63.06377240416249 L 1002.3769118483946 62.95745311255472 L 1002.3397180431409 62.85096036277616 L 1002.3048818070071 62.744304804013076 L 1002.2724066235874 62.63749710173245 L 1002.2422957403734 62.530547936615505 L 1002.2145521684281 62.423468003489624 L 1002.1891786820858 62.316268010258895 L 1002.1661778186738 62.208958676833305 L 1002.1455518782593 62.10155073405677 L 1002.1273029234192 61.99405492263407 L 1002.1114327790337 61.88648199205676 L 1002.0979430321042 61.77884269952825 L 1002.086835031594 61.6711478088881 L 1002.078109888294 61.56340808953563 L 1002.071768474711 61.45563431535299 L 1002.0678114249814 61.34783726362778 L 1002.0662391348067 61.24002771397536 L 1002.0670517614146 61.13221644726084 L 1002.0702492235432 61.02441424452105 L 1002.0758312014489 60.916631885886424 L 1002.0837971369385 60.808880149503025 L 1002.0941462334252 60.70116981045468 L 1002.1068774560081 60.59351163968555 L 1002.1219895315752 60.48591640292299 L 1002.1394809489318 60.378394859601016 L 1002.1593499589505 60.27095776178435 L 1002.1815945747472 60.163615853093255 L 1002.2062125718787 60.05637986762915 L 1002.2332014885657 59.949260528901206 L 1002.262558625939 59.84226854875404 L 1002.2942810483096 59.7354146262965 L 1002.3283655834615 59.62870944683179 L 1002.3648088229695 59.52216368078894 L 1002.4036071225403 59.41578798265577 L 1002.444756602376 59.30959298991343 L 1002.488253147563 59.203589321972714 L 1002.534092408483 59.09778757911208 L 1002.5822698012482 58.992198341417634 L 1002.6327805081595 58.88683216772516 L 1002.6856194781881 58.78169959456423 L 1002.7407814274812 58.67681113510454 L 1002.7982608398898 58.57217727810464 L 1002.8580519675206 58.46780848686303 L 1002.9201488313105 58.36371519817185 L 1002.984545221625 58.25990782127324 L 1003.0512346988788 58.15639673681838 L 1003.1202105941796 58.053192295829454 L 1003.1914660099955 57.950304818664556 L 1003.2649938208441 57.84774459398567 L 1003.3407866740057 57.745521877729786 L 1003.4188369902581 57.64364689208335 L 1003.4991369646349 57.54212982446004 L 1003.5816785672052 57.44098082648201 L 1003.666453543878 57.340210012964775 L 1003.753453417226 57.2398274609057 L 1003.8426694873343 57.13984320847635 L 1003.9340928326704 57.040267254018644 L 1004.027714310976 56.94110955504505 L 1004.123524560181 56.84238002724283 L 1004.2215139993406 56.74408854348249 L 1004.3216728295924 56.646244932830506 L 1004.423991035137 56.54885897956639 L 1004.5284583842388 56.45194042220433 L 1004.6350644302503 56.35549895251929 L 1004.7437985126555 56.25954421457787 L 1004.8546497581368 56.16408580377391 L 1004.9676070816622 56.06913326586893 L 1005.0826591875933 55.974696096037604 L 1005.1997945708155 55.88078373791821 L 1005.3190015178878 55.7874055826683 L 1005.4402681082153 55.694570968025594 L 1005.5635822152396 55.60228917737418 L 1005.6889315076531 55.51056943881623 L 1005.8163034506308 55.41942092424918 L 1005.9456853070847 55.328852748448504 L 1006.0770641389367 55.23887396815633 L 1006.2104268084133 55.14949358117568 L 1006.3457599793587 55.0607205254708 L 1006.4830501185686 54.97256367827326 L 1006.6222834971434 54.88503185519433 L 1006.7634461918612 54.79813380934336 L 1006.9065240865704 54.71187823045254 L 1007.0515028736005 54.62627374400786 L 1007.1983680551938 54.541328910386646 L 1007.3471049449545 54.45705222400146 L 1007.4976986693174 54.373452112450714 L 1007.6501341690358 54.290536935675895 L 1007.8043962006866 54.20831498512558 L 1007.9604693381953 54.12679448292632 L 1008.118337974378 54.0459835810604 L 1008.277986322503 53.965890360550645 L 1008.4393984178681 53.88652283065238 L 1008.6025581193986 53.80788892805245 L 1008.7674491112601 53.72999651607559 L 1008.9340549044911 53.652853383898076 L 1009.1023588386508 53.57646724576885 L 1009.2723440834861 53.50084574023808 L 1009.4439936406144 53.42599642939328 L 1009.6172903452228 53.35192679810317 L 1009.7922168677853 53.278644253269164 L 1009.9687557157955 53.20615612308466 L 1010.1468892355156 53.13446965630228 L 1010.3265996137421 53.06359202150896 L 1010.507868879587 52.99353030640911 L 1010.6906789062747 52.924291517115876 L 1010.8750114129549 52.85588257745046 L 1011.0608479665307 52.78831032824984 L 1011.2481699835013 52.72158152668263 L 1011.4369587318212 52.65570284557336 L 1011.627195332773 52.590680872735255 L 1011.8188607628551 52.52652211031142 L 1012.0119358556842 52.463232974124615 L 1012.2064013039119 52.40081979303573 L 1012.4022376611555 52.33928880831086 L 1012.5994253439422 52.278646172997206 L 1012.7979446336685 52.21889795130775 L 1012.9977756785705 52.160050118014894 L 1013.1988984957103 52.1021085578529 L 1013.4012929729739 52.045079064929524 L 1013.6049388710823 51.98896734214652 L 1013.809815825615 51.933779000629414 L 1014.0159033490477 51.87951955916637 L 1014.2231808327996 51.826194443656306 L 1014.4316275492951 51.77380898656634 L 1014.6412226540363 51.72236842639853 L 1014.8519451876872 51.67187790716602 L 1015.0637740781702 51.622342477878675 L 1015.2766881427729 51.57376709203812 L 1015.490666090266 51.526156607142475 L 1015.7056865230333 51.47951578420055 L 1015.9217279392104 51.43384928725578 L 1016.1387687348359 51.38916168291979 L 1016.3567872060113 51.34545743991578 L 1016.5757615510709 51.302740928631636 L 1016.7956698727626 51.261016420682886 L 1017.0164901804378 51.220288088485546 L 1017.2382003922495 51.18056000483891 L 1017.4607783373614 51.14183614251822 L 1017.6842017581644 51.10412037387746 L 1017.9084483125025 51.06741647046204 L 1018.1334955759074 51.03172810263173 L 1018.3593210438402 50.99705883919358 L 1018.5859021339422 50.96341214704502 L 1018.8132161882934 50.930791390827245 L 1019.0412404756775 50.899199832588685 L 1019.2699521938559 50.86864063145883 L 1019.4993284718475 50.83911684333235 L 1019.7293463722157 50.81063142056343 L 1019.9599828933618 50.78318721167063 L 1020.1912149718262 50.75678696105195 L 1020.4230194845935 50.731433308710464 L 1020.6553732514059 50.70712878999027 L 1020.8882530370801 50.683875835323 L 1021.1216355538317 50.66167676998473 L 1021.3554974636035 50.6405338138635 L 1021.5898153803993 50.6204490812373 L 1021.8245658726228 50.60142458056266 L 1022.0597254654203 50.583462214273794 L 1022.2952706430287 50.566563778592354 L 1022.5311778511264 50.55073096334783 L 1022.7674234991891 50.53596535180856 L 1023.0039839628489 50.52226842052339 L 1023.2408355862567 50.50964153917403 L 1023.4779546844474 50.49808597043808 L 1023.7153175457088 50.48760286986282 L 1023.9529004339525 50.47819328574954 L 1024.190679591088 50.46985815904882 L 1024.4286312393972 50.462598323266384 L 1024.666731583914 50.456414504379765 L 1024.904956814802 50.45130732076569 L 1025.143283109737 50.44727728313828 L 1025.3816866362881 50.444324794497916 L 1025.620143554301 50.44245015009101 L 1025.8586300182828 50.44165353738045 L 1026.0971221797859 50.44193503602685 L 1026.3355961897928 50.443294617880554 L 1026.574028201101 50.445732146984525 L 1026.8123943707085 50.44924737958788 L 1027.050670862197 50.45383996417029 L 1027.2888338481152 50.459509441477124 L 1027.526859512364 50.46625524456538 L 1027.7647240525744 50.474076698860365 L 1028.0024036824911 50.48297302222316 L 1028.239874634349 50.49294332502887 L 1028.477113161251 50.50398661025549 L 1028.714095539542 50.51610177358371 L 1028.9507980711817 50.52928760350731 L 1029.1871970861139 50.54354278145426 L 1029.4232689446344 50.55886588191867 L 1029.6589900397541 50.575255372603245 L 1029.8943367995598 50.592709614572584 L 1030.1292856895716 50.61122686241703 L 1030.3638132150966 50.630805264427224 L 1030.5978959235772 50.651442862779284 L 1030.831510406938 50.67313759373059 L 1031.0646333039251 50.695887287826096 L 1031.2972413024431 50.71968967011537 L 1031.5293111418862 50.74454236038002 L 1031.7608196154638 50.77044287337172 L 1031.991743572521 50.797388619060754 L 1032.2220599208554 50.825376902895016 L 1032.4517456290232 50.85440492606945 L 1032.6807777286456 50.88446978580591 L 1032.9091333167032 50.9155684756435 L 1033.1367895578278 50.947697885739125 L 1033.3637236865845 50.980854803178566 L 1033.58991300975 51.01503591229771 L 1033.81533490858 51.05023779501413 L 1034.0399668410732 51.08645693116888 L 1034.2637863442228 51.12368969887854 L 1034.4867710362653 51.16193237489736 L 1034.7088986189174 51.201181134989596 L 1034.930146879606 51.241432054311964 L 1035.150493693689 51.28268110780607 L 1035.3699170266689 51.32492417060092 L 1035.5883949363954 51.368157018425464 L 1035.8059055752592 51.41237532803093 L 1036.022427192378 51.45757467762322 L 1036.2379381357705 51.503750547305025 L 1036.4524168545217 51.55089831952786 L 1036.6658419009386 51.5990132795538 L 1036.8781919326946 51.64809061592693 L 1037.0894457149632 51.69812542095451 L 1037.2995821225425 51.749112691197745 L 1037.5085801419666 51.801047327972086 L 1037.7164188736076 51.85392413785714 L 1037.923077533766 51.90773783321599 L 1038.1285354567476 51.962483032723924 L 1038.3327720969316 52.01815426190663 L 1038.535767030824 52.07474595368758 L 1038.7374999591007 52.132252448944755 L 1038.9379507086367 52.190667997076545 L 1039.1370992345244 52.24998675657682 L 1039.334925622077 52.310202795619055 L 1039.5314100888206 52.371310092649544 L 1039.7265329864722 52.43330253698949 L 1039.920274802905 52.49617392944612 L 1040.1126161640984 52.559917982932596 L 1040.3035378360769 52.62452832309667 L 1040.4930207268321 52.68999848895818 L 1040.681045888233 52.7563219335551 L 1040.86759451792 52.823492024598224 L 1041.0526479611858 52.89150204513444 L 1041.23618771284 52.960345194218355 L 1041.4181954190608 53.03001458759244 L 1041.5986528792287 53.10050325837541 L 1041.7775420477485 53.171804157758935 L 1041.9548450358525 53.243910155712484 L 1042.130544113389 53.31681404169635 L 1042.3046217105975 53.39050852538269 L 1042.4770604198627 53.46498623738456 L 1042.6478429974577 53.5402397299928 L 1042.816952365267 53.61626147792087 L 1042.9843716124947 53.69304387905734 L 1043.1500839973555 53.770579255226075 L 1043.3140729487493 53.848859852954064 L 1043.4763220679172 53.92787784424677 L 1043.6368151300828 54.00762532737092 L 1043.7955360860735 54.08809432764465 L 1043.9524690639262 54.16927679823499 L 1044.1075983704736 54.251164620962534 L 1044.2609084929143 54.33374960711325 L 1044.412384100364 54.41702349825734 L 1044.5620100453882 54.500977967075094 L 1044.709771365517 54.58560461818958 L 1044.8556532847415 54.670894989006214 L 1044.9996412149915 54.75684055055899 L 1045.1417207575937 54.84343270836337 L 1045.2818777047123 54.93066280327574 L 1045.4200980407695 55.0185221123593 L 1045.556367943847 55.107001849756344 L 1045.6906737870677 55.196093167566886 L 1045.8230021399595 55.28578715673337 L 1045.9533397697971 55.37607484793163 L 1046.0816736429265 55.46694721246779 L 1046.2079909260672 55.55839516318112 L 1046.3322789875958 55.65040955535275 L 1046.4545253988103 55.742981187620146 L 1046.574717935171 55.83610080289723 L 1046.6928445775245 55.92975908930006 L 1046.8088935133053 56.02394668107806 L 1046.9228531377162 56.11865415955053 L 1047.0347120548897 56.213872054048544 L 1047.1444590790277 56.30959084286201 L 1047.2520832355187 56.405800954191804 L 1047.3575737620372 56.50249276710697 L 1047.4609201096184 56.5996566125068 L 1047.5621119437133 56.69728277408771 L 1047.6611391452232 56.79536148931491 L 1047.7579918115102 56.89388295039859 L 1047.8526602573886 56.99283730527477 L 1047.9451350160925 57.09221465859041 L 1048.0354068402232 57.19200507269298 L 1048.1234667026736 57.29219856862425 L 1048.2093057975308 57.39278512711811 L 1048.2929155409565 57.49375468960253 L 1048.3742875720466 57.59509715920541 L 1048.4534137536655 57.69680240176424 L 1048.530286173261 57.79886024683951 L 1048.604897143655 57.90126048873177 L 1048.677239203813 58.003992887502164 L 1048.7473051195893 58.10704716999642 L 1048.8150878844503 58.21041303087217 L 1048.8805807201763 58.31408013362946 L 1048.9437770775382 58.41803811164441 L 1049.0046706369528 58.52227656920584 L 1049.0632553091154 58.62678508255487 L 1049.119525235607 58.731553200927245 L 1049.1734747894823 58.83657044759845 L 1049.2250985758303 58.94182632093131 L 1049.2743914323162 59.04731029542622 L 1049.3213484296946 59.153011822773635 L 1049.3659648723055 59.25892033290889 L 1049.4082362985416 59.36502523506925 L 1049.4481584812954 59.471315918852895 L 1049.485727428382 59.57778175528004 L 1049.5209393829382 59.684412097855756 L 1049.5537908237975 59.79119628363465 L 1049.5842784658432 59.89812363428712 L 1049.612399260337 60.005183457167206 L 1049.6381503952225 60.11236504638185 L 1049.6615292954075 60.21965768386144 L 1049.682533623022 60.327050640431644 L 1049.70116127765 60.43453317688629 L 1049.7174103965424 60.5420945450613 L 1049.7312793548003 60.6497239889095 L 1049.7427667655395 60.757410745576195 L 1049.7518714800287 60.86514404647545 L 1049.7585925878038 60.972913118366954 L 1049.76292941676 61.08070718443333 L 1049.7648815332175 61.188515465357796 M 1049.7650025232736 95.52678387991818 L 1049.7638100633699 95.6345944248348 L 1049.7602328029038 95.74239418878678 L 1049.7542710995983 95.85017239188754 L 1049.7459255496192 95.95791825640659 L 1049.735196987514 96.06562100784727 L 1049.7220864861301 96.1732698760242 L 1049.7065953565068 96.28085409614023 L 1049.6887251477442 96.38836290986303 L 1049.6684776468483 96.49578556640084 L 1049.645854878552 96.60311132357748 L 1049.6208591051136 96.7103294489067 L 1049.5934928260897 96.8174292206653 L 1049.563758778085 96.92439992896537 L 1049.5316599344799 97.0312308768252 L 1049.4971995051317 97.13791138123905 L 1049.460380936055 97.24443077424536 L 1049.4212079090757 97.35077840399362 L 1049.3796843414639 97.45694363580944 L 1049.3358143855419 97.56291585325815 L 1049.2896024282686 97.66868445920629 L 1049.2410530908012 97.77423887688141 L 1049.1901712280333 97.8795685509297 L 1049.1369619281081 97.98466294847155 L 1049.081430511912 98.08951156015478 L 1049.02358253254 98.19410390120557 L 1048.9634237747418 98.29842951247699 L 1048.900960254343 98.40247796149485 L 1048.836198217644 98.50623884350097 L 1048.769144140794 98.60970178249359 L 1048.699804729145 98.71285643226504 L 1048.6281869165805 98.81569247743631 L 1048.5542978648218 98.91819963448859 L 1048.4781449627126 99.02036765279156 L 1048.3997358254799 99.12218631562857 L 1048.3190782939719 99.22364544121817 L 1048.2361804338743 99.32473488373233 L 1048.1510505349045 99.42544453431107 L 1048.0636971099811 99.52576432207324 L 1047.974128894374 99.62568421512367 L 1047.8823548448297 99.72519422155631 L 1047.7883841386774 99.82428439045346 L 1047.692226172909 99.92294481288079 L 1047.5938905632406 100.02116562287829 L 1047.493387143152 100.11893699844678 L 1047.3907259629007 100.2162491625302 L 1047.2859172885196 100.31309238399325 L 1047.1789716007888 100.40945697859446 L 1047.069899594188 100.50533330995468 L 1046.9587121758266 100.60071179052068 L 1046.845420464354 100.69558288252388 L 1046.730035788847 100.78993709893413 L 1046.612569687677 100.88376500440843 L 1046.4930339073562 100.97705721623441 L 1046.3714404013629 101.06980440526866 L 1046.2478013289465 101.16199729686952 L 1046.122129053911 101.25362667182469 L 1045.9944361433795 101.34468336727302 L 1045.8647353665367 101.43515827762084 L 1045.7330396933517 101.52504235545253 L 1045.5993622932824 101.61432661243519 L 1045.4637165339575 101.70300212021755 L 1045.3261159798396 101.7910600113227 L 1045.1865743908697 101.87849148003492 L 1045.0451057210905 101.9652877832802 L 1044.9017241172508 102.05144024150056 L 1044.7564439173914 102.13694023952193 L 1044.6092796494117 102.22177922741581 L 1044.4602460296155 102.30594872135407 L 1044.3093579612407 102.38944030445748 L 1044.1566305329684 102.47224562763729 L 1044.002079017414 102.5543564104302 L 1043.8457188696004 102.63576444182635 L 1043.6875657254122 102.71646158109044 L 1043.527635400032 102.79643975857579 L 1043.3659438863588 102.8756909765313 L 1043.2025073534094 102.95420730990122 L 1043.037342144701 103.03198090711763 L 1042.8704647766167 103.10900399088564 L 1042.7018919367542 103.18526885896105 L 1042.531640482257 103.2607678849206 L 1042.3597274381289 103.33549351892461 L 1042.186169995531 103.40943828847196 L 1042.0109855100625 103.48259479914732 L 1041.8341915000265 103.55495573536056 L 1041.6558056446763 103.6265138610784 L 1041.4758457824491 103.69726202054787 L 1041.294329909181 103.76719313901197 L 1041.1112761763081 103.83630022341715 L 1040.926702889051 103.90457636311257 L 1040.740628504585 103.97201473054113 L 1040.553071630193 104.03860858192229 L 1040.3640510214063 104.10435125792642 L 1040.1735855801285 104.1692361843407 L 1039.9816943527446 104.23325687272656 L 1039.7883965282178 104.29640692106851 L 1039.5937114361693 104.35868001441433 L 1039.3976585449461 104.4200699255066 L 1039.200257459674 104.48057051540535 L 1039.001527920297 104.54017573410202 L 1038.8014897996031 104.5988796211244 L 1038.6001631012382 104.65667630613272 L 1038.397567957704 104.71356000950664 L 1038.1937246283464 104.7695250429232 L 1037.988653497328 104.82456580992574 L 1037.7823750715913 104.87867680648341 L 1037.574909978807 104.93185262154162 L 1037.3662789653113 104.98408793756322 L 1037.1565028940317 105.0353775310601 L 1036.9456027424008 105.08571627311568 L 1036.7335996002578 105.13509912989768 L 1036.5205146677401 105.1835211631616 L 1036.3063692531637 105.23097753074444 L 1036.0911847708915 105.27746348704899 L 1035.8749827391923 105.32297438351839 L 1035.657784778089 105.36750566910086 L 1035.439612607197 105.41105289070501 L 1035.2204880435515 105.45361169364494 L 1035.0004329994263 105.49517782207583 L 1034.779469480142 105.53574711941947 L 1034.5576195818671 105.57531552877992 L 1034.334905489406 105.61387909334925 L 1034.1113494739827 105.65143395680312 L 1033.886973891012 105.68797636368647 L 1033.6618011778658 105.72350265978909 L 1033.4358538516274 105.75800929251095 L 1033.2091545068413 105.79149281121755 L 1032.9817258132528 105.82394986758491 L 1032.7535905135421 105.85537721593445 L 1032.5247714210486 105.88577171355752 L 1032.2952914174914 105.9151303210297 L 1032.0651734506794 105.94345010251467 L 1031.8344405322173 105.97072822605791 L 1031.603115735205 105.99696196386981 L 1031.371222191929 106.02214869259844 L 1031.138783091551 106.04628589359189 L 1030.905821677787 106.0693711531502 L 1030.672361246584 106.09140216276666 L 1030.438425143791 106.11237671935864 L 1030.204036762823 106.13229272548797 L 1029.9692195423231 106.15114818957065 L 1029.7339969638174 106.16894122607596 L 1029.4983925493677 106.1856700557151 L 1029.2624298592195 106.20133300561903 L 1029.0261324894448 106.21592850950582 L 1028.7895240695836 106.22945510783724 L 1028.5526282602812 106.24191144796474 L 1028.3154687509207 106.25329628426466 L 1028.0780692572555 106.2636084782629 L 1027.840453519037 106.2728469987486 L 1027.6026452976414 106.28101092187747 L 1027.3646683736924 106.28809943126396 L 1027.126546544684 106.29411181806304 L 1026.8883036226007 106.29904748104106 L 1026.6499634315364 106.30290592663582 L 1026.4115498053113 106.30568676900597 L 1026.1730865850898 106.30738973006962 L 1025.9345976169946 106.30801463953205 L 1025.696106749724 106.30756143490284 L 1025.4576378321663 106.3060301615021 L 1025.219214711014 106.30342097245587 L 1024.980861228381 106.29973412868088 L 1024.7426012194167 106.29496999885845 L 1024.5044585099233 106.28912905939758 L 1024.2664569139736 106.28221189438736 L 1024.0286202315287 106.27421919553852 L 1023.7909722460589 106.26515176211427 L 1023.5535367221644 106.25501050085043 L 1023.3163374031997 106.24379642586464 L 1023.0793980088993 106.23151065855508 L 1022.842742233005 106.21815442748823 L 1022.6063937408971 106.20372906827606 L 1022.3703761672281 106.1882360234425 L 1022.1347131135585 106.17167684227908 L 1021.8994281459974 106.15405318069014 L 1021.6645447928454 106.13536680102716 L 1021.4300865422421 106.11561957191253 L 1021.1960768398172 106.09481346805269 L 1020.9625390863458 106.0729505700407 L 1020.729496635409 106.05003306414814 L 1020.4969727910573 106.0260632421065 L 1020.2649908054814 106.00104350087803 L 1020.0335738766868 105.97497634241597 L 1019.8027451461733 105.94786437341445 L 1019.5725276966217 105.9197103050478 L 1019.3429445495851 105.89051695269937 L 1019.1140186631868 105.86028723568009 L 1018.8857729298248 105.82902417693644 L 1018.6582301738822 105.79673090274827 L 1018.4314131494449 105.76341064241608 L 1018.2053445380265 105.72906672793813 L 1017.9800469462995 105.69370259367726 L 1017.7555429038354 105.6573217760174 L 1017.5318548608515 105.61992791301003 L 1017.3090051859656 105.58152474401028 L 1017.0870161639594 105.54211610930304 L 1016.8659099935504 105.50170594971894 L 1016.645708785171 105.46029830624026 L 1016.4264345587588 105.41789731959686 L 1016.2081092415536 105.37450722985206 L 1015.9907546659052 105.33013237597868 L 1015.7743925670902 105.28477719542511 L 1015.5590445811379 105.23844622367163 L 1015.3447322426676 105.1911440937768 L 1015.1314769827345 105.14287553591419 L 1014.9193001266871 105.09364537689936 L 1014.7082228920337 105.0434585397072 L 1014.4982663863224 104.99232004297959 L 1014.2894516050285 104.9402350005236 L 1014.0817994294562 104.88720862080007 L 1013.87533062465 104.83324620640276 L 1013.6700658373184 104.77835315352817 L 1013.4660255937689 104.72253495143585 L 1013.2632302978559 104.66579718189945 L 1013.0617002289401 104.60814551864868 L 1012.8614555398605 104.54958572680184 L 1012.6625162549188 104.49012366228926 L 1012.4649022678781 104.42976527126788 L 1012.2686333399722 104.36851658952648 L 1012.0737290979304 104.30638374188221 L 1011.8802090320145 104.24337294156805 L 1011.6880924940697 104.17949048961154 L 1011.4973986955899 104.11474277420461 L 1011.3081467057959 104.04913627006486 L 1011.120355449729 103.98267753778805 L 1010.9340437063584 103.91537322319199 L 1010.749230106703 103.84723005665208 L 1010.5659331319689 103.77825485242818 L 1010.3841711117007 103.70845450798322 L 1010.2039622219492 103.63783600329349 L 1010.0253244834529 103.56640640015061 L 1009.848275759837 103.49417284145538 L 1009.6728337558261 103.42114255050346 L 1009.4990160154747 103.3473228302631 L 1009.3268399204118 103.27272106264479 L 1009.1563226881034 103.19734470776314 L 1008.9874813701308 103.1212013031908 L 1008.8203328504849 103.04429846320481 L 1008.6548938438785 102.96664387802507 L 1008.4911808940743 102.88824531304537 L 1008.329210372231 102.8091106080569 L 1008.1689984752658 102.72924767646418 L 1008.0105612242346 102.64866450449387 L 1007.8539144627308 102.56736915039596 L 1007.6990738553 102.48536974363815 L 1007.5460548858737 102.40267448409276 L 1007.3948728562214 102.31929164121684 L 1007.24554288442 102.2352295532252 L 1007.0980799033425 102.15049662625658 L 1006.952498659164 102.06510133353308 L 1006.8088137098875 101.97905221451278 L 1006.6670394238884 101.89235787403591 L 1006.5271899784769 101.80502698146424 L 1006.3892793584812 101.71706826981428 L 1006.2533213548481 101.62849053488388 L 1006.1193295632651 101.53930263437272 L 1005.9873173827993 101.44951348699652 L 1005.857298014559 101.35913207159521 L 1005.7292844603725 101.26816742623502 L 1005.6032895214886 101.17662864730465 L 1005.4793257972963 101.08452488860574 L 1005.3574056840646 100.9918653604374 L 1005.2375413737032 100.89865932867522 L 1005.1197448525432 100.80491611384473 L 1005.0040279001388 100.71064509018925 L 1004.8904020880885 100.61585568473262 L 1004.7788787788792 100.5205573763364 L 1004.6694691247485 100.424759694752 L 1004.5621840665708 100.32847221966773 L 1004.4570343327625 100.2317045797509 L 1004.3540304382095 100.13446645168483 L 1004.2531826832152 100.03676755920131 L 1004.1545011524711 99.93861767210817 L 1004.0579957140482 99.84002660531232 L 1003.9636760184097 99.7410042178383 L 1003.8715514974467 99.64156041184232 L 1003.7816313635345 99.54170513162211 L 1003.6939246086116 99.4414483626225 L 1003.6084400032803 99.34080013043682 L 1003.52518609593 99.23977049980442 L 1003.444171211882 99.13836957360418 L 1003.3654034525572 99.03660749184422 L 1003.288890694666 98.9344944306479 L 1003.2146405894201 98.83204060123627 L 1003.1426605617686 98.72925624890688 L 1003.0729578096539 98.6261516520093 L 1003.0055393032934 98.52273712091731 L 1002.9404117844814 98.41902299699785 L 1002.8775817659155 98.31501965157686 L 1002.8170555305453 98.21073748490224 L 1002.7588391309438 98.10618692510373 L 1002.7029383887026 98.0013784271502 L 1002.6493588938491 97.89632247180411 L 1002.5981060042883 97.79102956457344 L 1002.5491848452665 97.68551023466115 L 1002.5026003088586 97.57977503391233 L 1002.4583570534797 97.47383453575894 L 1002.4164595034183 97.3676993341625 L 1002.3769118483946 97.2613800425547 L 1002.3397180431409 97.15488729277617 L 1002.3048818070071 97.04823173401307 L 1002.2724066235874 96.94142403173245 L 1002.2422957403734 96.8344748666155 L 1002.2145521684281 96.72739493348962 L 1002.1891786820858 96.6201949402589 L 1002.1661778186738 96.51288560683331 L 1002.1455518782593 96.40547766405678 L 1002.1273029234192 96.29798185263407 L 1002.1114327790337 96.19040892205675 L 1002.0979430321042 96.08276962952824 L 1002.086835031594 95.9750747388881 L 1002.078109888294 95.86733501953563 L 1002.071768474711 95.75956124535298 L 1002.0678114249814 95.65176419362778 L 1002.0662391348067 95.54395464397535" stroke-miterlimit="10" stroke-width="2.7769845610000004" stroke-dasharray=""/></g><g><g/><text fill="black" stroke="none" font-family="sans-serif" font-size="11pt" font-style="normal" font-weight="normal" text-decoration="normal" x="994.5376607589844" y="123.83569119881818" text-anchor="start" dominant-baseline="alphabetic" xml:space="preserve">Database</text></g><g><path fill="white" stroke="black" paint-order="fill stroke markers" d=" M 90.987082381 933.3266907303181 A 9.311065881 9.311065881 0 1 1 90.98707772546743 933.3173796659889 M 81.67601649999999 942.6377566113181 L 81.67601649999999 962.566704637318 M 69.914670124 949.8252460633181 L 93.43736287599998 949.8252460633181 M 81.67601649999999 962.566704637318 L 69.914670124 981.1888363993181 M 81.67601649999999 962.566704637318 L 93.43736287599998 981.1888363993181" stroke-miterlimit="10" stroke-width="2.7769845610000004" stroke-dasharray=""/></g><g><g/><text fill="black" stroke="none" font-family="sans-serif" font-size="11pt" font-style="normal" font-weight="normal" text-decoration="normal" x="53.1470400595703" y="917.726571578818" text-anchor="start" dominant-baseline="alphabetic" xml:space="preserve">Landlord</text></g><g><path fill="white" stroke="black" paint-order="fill stroke markers" d=" M 433.9969582674271 948.828798662018 A 24.2577769005 24.2577769005 0 1 1 433.99694613853967 948.8045408891604 M 384.0929121859271 975.308163211318 L 435.38545054792706 975.308163211318" stroke-miterlimit="10" stroke-width="2.7769845610000004" stroke-dasharray=""/></g><g><g/><text fill="black" stroke="none" font-family="sans-serif" font-size="11pt" font-style="normal" font-weight="normal" text-decoration="normal" x="390.9990309152669" y="917.726571578818" text-anchor="start" dominant-baseline="alphabetic" xml:space="preserve">Client</text></g><g><path fill="white" stroke="black" paint-order="fill stroke markers" d=" M 753.9069401509557 948.828798662018 A 24.2577769005 24.2577769005 0 1 1 753.9069280220683 948.8045408891604 M 704.0028940694558 975.308163211318 L 755.2954324314558 975.308163211318" stroke-miterlimit="10" stroke-width="2.7769845610000004" stroke-dasharray=""/></g><g><g/><text fill="black" stroke="none" font-family="sans-serif" font-size="11pt" font-style="normal" font-weight="normal" text-decoration="normal" x="701.1237649960613" y="917.726571578818" text-anchor="start" dominant-baseline="alphabetic" xml:space="preserve">Backend</text></g><g><path fill="white" stroke="black" paint-order="fill stroke markers" d=" M 1002.0662088872735 970.489278237818 L 1002.0662088872735 936.1853513078179 L 1049.7650025232736 936.1853513078179 L 1049.7650025232736 970.489278237818" stroke-miterlimit="10" stroke-width="2.7769845610000004" stroke-dasharray=""/><path fill="white" stroke="black" paint-order="fill stroke markers" d=" M 1049.7650025232736 934.9928814669179 L 1049.7638100633699 935.1006920118346 L 1049.7602328029038 935.2084917757865 L 1049.7542710995983 935.3162699788872 L 1049.7459255496192 935.4240158434063 L 1049.735196987514 935.531718594847 L 1049.7220864861301 935.6393674630239 L 1049.7065953565068 935.74695168314 L 1049.6887251477442 935.8544604968628 L 1049.6684776468483 935.9618831534005 L 1049.645854878552 936.0692089105772 L 1049.6208591051136 936.1764270359064 L 1049.5934928260897 936.283526807665 L 1049.563758778085 936.3904975159651 L 1049.5316599344799 936.4973284638249 L 1049.4971995051317 936.6040089682388 L 1049.460380936055 936.710528361245 L 1049.4212079090757 936.8168759909933 L 1049.3796843414639 936.9230412228092 L 1049.3358143855419 937.0290134402578 L 1049.2896024282686 937.1347820462059 L 1049.2410530908012 937.2403364638811 L 1049.1901712280333 937.3456661379294 L 1049.1369619281081 937.4507605354712 L 1049.081430511912 937.5556091471544 L 1049.02358253254 937.6602014882053 L 1048.9634237747418 937.7645270994767 L 1048.900960254343 937.8685755484945 L 1048.836198217644 937.9723364305006 L 1048.769144140794 938.0757993694933 L 1048.699804729145 938.1789540192648 L 1048.6281869165805 938.281790064436 L 1048.5542978648218 938.3842972214883 L 1048.4781449627126 938.4864652397913 L 1048.3997358254799 938.5882839026283 L 1048.3190782939719 938.6897430282179 L 1048.2361804338743 938.790832470732 L 1048.1510505349045 938.8915421213107 L 1048.0636971099811 938.9918619090729 L 1047.974128894374 939.0917818021234 L 1047.8823548448297 939.191291808556 L 1047.7883841386774 939.2903819774532 L 1047.692226172909 939.3890423998805 L 1047.5938905632406 939.4872632098779 L 1047.493387143152 939.5850345854465 L 1047.3907259629007 939.6823467495299 L 1047.2859172885196 939.7791899709929 L 1047.1789716007888 939.8755545655941 L 1047.069899594188 939.9714308969544 L 1046.9587121758266 940.0668093775204 L 1046.845420464354 940.1616804695236 L 1046.730035788847 940.2560346859339 L 1046.612569687677 940.3498625914082 L 1046.4930339073562 940.4431548032342 L 1046.3714404013629 940.5359019922684 L 1046.2478013289465 940.6280948838693 L 1046.122129053911 940.7197242588244 L 1045.9944361433795 940.8107809542727 L 1045.8647353665367 940.9012558646206 L 1045.7330396933517 940.9911399424523 L 1045.5993622932824 941.0804241994349 L 1045.4637165339575 941.1690997072172 L 1045.3261159798396 941.2571575983224 L 1045.1865743908697 941.3445890670346 L 1045.0451057210905 941.4313853702799 L 1044.9017241172508 941.5175378285003 L 1044.7564439173914 941.6030378265216 L 1044.6092796494117 941.6878768144155 L 1044.4602460296155 941.7720463083538 L 1044.3093579612407 941.8555378914572 L 1044.1566305329684 941.938343214637 L 1044.002079017414 942.0204539974299 L 1043.8457188696004 942.1018620288261 L 1043.6875657254122 942.1825591680902 L 1043.527635400032 942.2625373455755 L 1043.3659438863588 942.3417885635309 L 1043.2025073534094 942.4203048969009 L 1043.037342144701 942.4980784941173 L 1042.8704647766167 942.5751015778853 L 1042.7018919367542 942.6513664459608 L 1042.531640482257 942.7268654719203 L 1042.3597274381289 942.8015911059243 L 1042.186169995531 942.8755358754717 L 1042.0109855100625 942.9486923861471 L 1041.8341915000265 943.0210533223602 L 1041.6558056446763 943.0926114480781 L 1041.4758457824491 943.1633596075476 L 1041.294329909181 943.2332907260117 L 1041.1112761763081 943.3023978104169 L 1040.926702889051 943.3706739501123 L 1040.740628504585 943.4381123175408 L 1040.553071630193 943.504706168922 L 1040.3640510214063 943.5704488449261 L 1040.1735855801285 943.6353337713404 L 1039.9816943527446 943.6993544597262 L 1039.7883965282178 943.7625045080682 L 1039.5937114361693 943.824777601414 L 1039.3976585449461 943.8861675125063 L 1039.200257459674 943.946668102405 L 1039.001527920297 944.0062733211017 L 1038.8014897996031 944.0649772081241 L 1038.6001631012382 944.1227738931324 L 1038.397567957704 944.1796575965063 L 1038.1937246283464 944.2356226299229 L 1037.988653497328 944.2906633969254 L 1037.7823750715913 944.3447743934831 L 1037.574909978807 944.3979502085414 L 1037.3662789653113 944.4501855245629 L 1037.1565028940317 944.5014751180598 L 1036.9456027424008 944.5518138601154 L 1036.7335996002578 944.6011967168973 L 1036.5205146677401 944.6496187501613 L 1036.3063692531637 944.6970751177441 L 1036.0911847708915 944.7435610740487 L 1035.8749827391923 944.7890719705181 L 1035.657784778089 944.8336032561006 L 1035.439612607197 944.8771504777047 L 1035.2204880435515 944.9197092806446 L 1035.0004329994263 944.9612754090755 L 1034.779469480142 945.0018447064192 L 1034.5576195818671 945.0414131157796 L 1034.334905489406 945.079976680349 L 1034.1113494739827 945.1175315438028 L 1033.886973891012 945.1540739506862 L 1033.6618011778658 945.1896002467888 L 1033.4358538516274 945.2241068795106 L 1033.2091545068413 945.2575903982172 L 1032.9817258132528 945.2900474545846 L 1032.7535905135421 945.3214748029342 L 1032.5247714210486 945.3518693005573 L 1032.2952914174914 945.3812279080294 L 1032.0651734506794 945.4095476895144 L 1031.8344405322173 945.4368258130576 L 1031.603115735205 945.4630595508695 L 1031.371222191929 945.4882462795981 L 1031.138783091551 945.5123834805916 L 1030.905821677787 945.5354687401499 L 1030.672361246584 945.5574997497663 L 1030.438425143791 945.5784743063583 L 1030.204036762823 945.5983903124877 L 1029.9692195423231 945.6172457765704 L 1029.7339969638174 945.6350388130757 L 1029.4983925493677 945.6517676427148 L 1029.2624298592195 945.6674305926188 L 1029.0261324894448 945.6820260965055 L 1028.7895240695836 945.6955526948369 L 1028.5526282602812 945.7080090349644 L 1028.3154687509207 945.7193938712644 L 1028.0780692572555 945.7297060652626 L 1027.840453519037 945.7389445857483 L 1027.6026452976414 945.7471085088772 L 1027.3646683736924 945.7541970182637 L 1027.126546544684 945.7602094050627 L 1026.8883036226007 945.7651450680407 L 1026.6499634315364 945.7690035136355 L 1026.4115498053113 945.7717843560057 L 1026.1730865850898 945.7734873170693 L 1025.9345976169946 945.7741122265318 L 1025.696106749724 945.7736590219025 L 1025.4576378321663 945.7721277485018 L 1025.219214711014 945.7695185594556 L 1024.980861228381 945.7658317156806 L 1024.7426012194167 945.7610675858582 L 1024.5044585099233 945.7552266463973 L 1024.2664569139736 945.7483094813871 L 1024.0286202315287 945.7403167825382 L 1023.7909722460589 945.731249349114 L 1023.5535367221644 945.7211080878501 L 1023.3163374031997 945.7098940128643 L 1023.0793980088993 945.6976082455548 L 1022.842742233005 945.6842520144879 L 1022.6063937408971 945.6698266552758 L 1022.3703761672281 945.6543336104422 L 1022.1347131135585 945.6377744292788 L 1021.8994281459974 945.6201507676899 L 1021.6645447928454 945.6014643880269 L 1021.4300865422421 945.5817171589122 L 1021.1960768398172 945.5609110550524 L 1020.9625390863458 945.5390481570404 L 1020.729496635409 945.5161306511478 L 1020.4969727910573 945.4921608291062 L 1020.2649908054814 945.4671410878777 L 1020.0335738766868 945.4410739294157 L 1019.8027451461733 945.4139619604141 L 1019.5725276966217 945.3858078920475 L 1019.3429445495851 945.3566145396991 L 1019.1140186631868 945.3263848226798 L 1018.8857729298248 945.2951217639361 L 1018.6582301738822 945.262828489748 L 1018.4314131494449 945.2295082294157 L 1018.2053445380265 945.1951643149379 L 1017.9800469462995 945.1598001806769 L 1017.7555429038354 945.1234193630171 L 1017.5318548608515 945.0860255000098 L 1017.3090051859656 945.04762233101 L 1017.0870161639594 945.0082136963027 L 1016.8659099935504 944.9678035367186 L 1016.645708785171 944.9263958932399 L 1016.4264345587588 944.8839949065965 L 1016.2081092415536 944.8406048168517 L 1015.9907546659052 944.7962299629784 L 1015.7743925670902 944.7508747824248 L 1015.5590445811379 944.7045438106713 L 1015.3447322426676 944.6572416807765 L 1015.1314769827345 944.6089731229139 L 1014.9193001266871 944.5597429638991 L 1014.7082228920337 944.5095561267069 L 1014.4982663863224 944.4584176299793 L 1014.2894516050285 944.4063325875233 L 1014.0817994294562 944.3533062077997 L 1013.87533062465 944.2993437934025 L 1013.6700658373184 944.2444507405279 L 1013.4660255937689 944.1886325384355 L 1013.2632302978559 944.1318947688992 L 1013.0617002289401 944.0742431056484 L 1012.8614555398605 944.0156833138016 L 1012.6625162549188 943.956221249289 L 1012.4649022678781 943.8958628582676 L 1012.2686333399722 943.8346141765262 L 1012.0737290979304 943.7724813288819 L 1011.8802090320145 943.7094705285677 L 1011.6880924940697 943.6455880766113 L 1011.4973986955899 943.5808403612043 L 1011.3081467057959 943.5152338570646 L 1011.120355449729 943.4487751247877 L 1010.9340437063584 943.3814708101917 L 1010.749230106703 943.3133276436517 L 1010.5659331319689 943.2443524394279 L 1010.3841711117007 943.1745520949829 L 1010.2039622219492 943.1039335902932 L 1010.0253244834529 943.0325039871503 L 1009.848275759837 942.960270428455 L 1009.6728337558261 942.8872401375031 L 1009.4990160154747 942.8134204172628 L 1009.3268399204118 942.7388186496445 L 1009.1563226881034 942.6634422947628 L 1008.9874813701308 942.5872988901905 L 1008.8203328504849 942.5103960502045 L 1008.6548938438785 942.4327414650247 L 1008.4911808940743 942.354342900045 L 1008.329210372231 942.2752081950566 L 1008.1689984752658 942.1953452634639 L 1008.0105612242346 942.1147620914935 L 1007.8539144627308 942.0334667373957 L 1007.6990738553 941.9514673306378 L 1007.5460548858737 941.8687720710924 L 1007.3948728562214 941.7853892282166 L 1007.24554288442 941.7013271402249 L 1007.0980799033425 941.6165942132562 L 1006.952498659164 941.5311989205328 L 1006.8088137098875 941.4451498015125 L 1006.6670394238884 941.3584554610356 L 1006.5271899784769 941.271124568464 L 1006.3892793584812 941.183165856814 L 1006.2533213548481 941.0945881218836 L 1006.1193295632651 941.0054002213724 L 1005.9873173827993 940.9156110739963 L 1005.857298014559 940.8252296585949 L 1005.7292844603725 940.7342650132347 L 1005.6032895214886 940.6427262343044 L 1005.4793257972963 940.5506224756055 L 1005.3574056840646 940.4579629474371 L 1005.2375413737032 940.3647569156749 L 1005.1197448525432 940.2710137008444 L 1005.0040279001388 940.1767426771889 L 1004.8904020880885 940.0819532717323 L 1004.7788787788792 939.986654963336 L 1004.6694691247485 939.8908572817517 L 1004.5621840665708 939.7945698066675 L 1004.4570343327625 939.6978021667506 L 1004.3540304382095 939.6005640386845 L 1004.2531826832152 939.502865146201 L 1004.1545011524711 939.4047152591079 L 1004.0579957140482 939.306124192312 L 1003.9636760184097 939.207101804838 L 1003.8715514974467 939.107657998842 L 1003.7816313635345 939.0078027186219 L 1003.6939246086116 938.9075459496222 L 1003.6084400032803 938.8068977174365 L 1003.52518609593 938.7058680868041 L 1003.444171211882 938.6044671606039 L 1003.3654034525572 938.5027050788439 L 1003.288890694666 938.4005920176476 L 1003.2146405894201 938.298138188236 L 1003.1426605617686 938.1953538359065 L 1003.0729578096539 938.092249239009 L 1003.0055393032934 937.988834707917 L 1002.9404117844814 937.8851205839975 L 1002.8775817659155 937.7811172385766 L 1002.8170555305453 937.6768350719019 L 1002.7588391309438 937.5722845121035 L 1002.7029383887026 937.46747601415 L 1002.6493588938491 937.3624200588038 L 1002.5981060042883 937.2571271515732 L 1002.5491848452665 937.1516078216608 L 1002.5026003088586 937.0458726209121 L 1002.4583570534797 936.9399321227586 L 1002.4164595034183 936.8337969211622 L 1002.3769118483946 936.7274776295544 L 1002.3397180431409 936.6209848797758 L 1002.3048818070071 936.5143293210127 L 1002.2724066235874 936.4075216187322 L 1002.2422957403734 936.3005724536152 L 1002.2145521684281 936.1934925204894 L 1002.1891786820858 936.0862925272586 L 1002.1661778186738 935.978983193833 L 1002.1455518782593 935.8715752510565 L 1002.1273029234192 935.7640794396337 L 1002.1114327790337 935.6565065090565 L 1002.0979430321042 935.5488672165279 L 1002.086835031594 935.4411723258878 L 1002.078109888294 935.3334326065353 L 1002.071768474711 935.2256588323527 L 1002.0678114249814 935.1178617806274 L 1002.0662391348067 935.010052230975 L 1002.0670517614146 934.9022409642605 L 1002.0702492235432 934.7944387615207 L 1002.0758312014489 934.6866564028861 L 1002.0837971369385 934.5789046665027 L 1002.0941462334252 934.4711943274543 L 1002.1068774560081 934.3635361566852 L 1002.1219895315752 934.2559409199226 L 1002.1394809489318 934.1484193766007 L 1002.1593499589505 934.040982278784 L 1002.1815945747472 933.9336403700929 L 1002.2062125718787 933.8264043846289 L 1002.2332014885657 933.7192850459008 L 1002.262558625939 933.6122930657538 L 1002.2942810483096 933.5054391432961 L 1002.3283655834615 933.3987339638314 L 1002.3648088229695 933.2921881977886 L 1002.4036071225403 933.1858124996554 L 1002.444756602376 933.0796175069131 L 1002.488253147563 932.9736138389724 L 1002.534092408483 932.8678120961117 L 1002.5822698012482 932.7622228584173 L 1002.6327805081595 932.6568566847249 L 1002.6856194781881 932.5517241115639 L 1002.7407814274812 932.4468356521043 L 1002.7982608398898 932.3422017951043 L 1002.8580519675206 932.2378330038628 L 1002.9201488313105 932.1337397151715 L 1002.984545221625 932.0299323382729 L 1003.0512346988788 931.926421253818 L 1003.1202105941796 931.8232168128292 L 1003.1914660099955 931.7203293356642 L 1003.2649938208441 931.6177691109854 L 1003.3407866740057 931.5155463947294 L 1003.4188369902581 931.413671409083 L 1003.4991369646349 931.3121543414597 L 1003.5816785672052 931.2110053434817 L 1003.666453543878 931.1102345299645 L 1003.753453417226 931.0098519779054 L 1003.8426694873343 930.909867725476 L 1003.9340928326704 930.8102917710183 L 1004.027714310976 930.7111340720447 L 1004.123524560181 930.6124045442425 L 1004.2215139993406 930.5141130604821 L 1004.3216728295924 930.4162694498302 L 1004.423991035137 930.3188834965661 L 1004.5284583842388 930.221964939204 L 1004.6350644302503 930.125523469519 L 1004.7437985126555 930.0295687315776 L 1004.8546497581368 929.9341103207736 L 1004.9676070816622 929.8391577828686 L 1005.0826591875933 929.7447206130373 L 1005.1997945708155 929.6508082549179 L 1005.3190015178878 929.557430099668 L 1005.4402681082153 929.4645954850253 L 1005.5635822152396 929.3723136943739 L 1005.6889315076531 929.2805939558159 L 1005.8163034506308 929.1894454412488 L 1005.9456853070847 929.0988772654482 L 1006.0770641389367 929.008898485156 L 1006.2104268084133 928.9195180981753 L 1006.3457599793587 928.8307450424705 L 1006.4830501185686 928.7425881952729 L 1006.6222834971434 928.655056372194 L 1006.7634461918612 928.5681583263431 L 1006.9065240865704 928.4819027474522 L 1007.0515028736005 928.3962982610076 L 1007.1983680551938 928.3113534273864 L 1007.3471049449545 928.2270767410012 L 1007.4976986693174 928.1434766294504 L 1007.6501341690358 928.0605614526755 L 1007.8043962006866 927.9783395021253 L 1007.9604693381953 927.896818999926 L 1008.118337974378 927.8160080980601 L 1008.277986322503 927.7359148775504 L 1008.4393984178681 927.6565473476521 L 1008.6025581193986 927.5779134450521 L 1008.7674491112601 927.5000210330753 L 1008.9340549044911 927.4228779008978 L 1009.1023588386508 927.3464917627686 L 1009.2723440834861 927.2708702572378 L 1009.4439936406144 927.196020946393 L 1009.6172903452228 927.1219513151028 L 1009.7922168677853 927.0486687702688 L 1009.9687557157955 926.9761806400843 L 1010.1468892355156 926.9044941733019 L 1010.3265996137421 926.8336165385086 L 1010.507868879587 926.7635548234088 L 1010.6906789062747 926.6943160341156 L 1010.8750114129549 926.6259070944501 L 1011.0608479665307 926.5583348452495 L 1011.2481699835013 926.4916060436823 L 1011.4369587318212 926.4257273625731 L 1011.627195332773 926.3607053897349 L 1011.8188607628551 926.2965466273112 L 1012.0119358556842 926.2332574911243 L 1012.2064013039119 926.1708443100354 L 1012.4022376611555 926.1093133253105 L 1012.5994253439422 926.0486706899969 L 1012.7979446336685 925.9889224683075 L 1012.9977756785705 925.9300746350145 L 1013.1988984957103 925.8721330748526 L 1013.4012929729739 925.8151035819292 L 1013.6049388710823 925.7589918591462 L 1013.809815825615 925.7038035176291 L 1014.0159033490477 925.6495440761661 L 1014.2231808327996 925.596218960656 L 1014.4316275492951 925.543833503566 L 1014.6412226540363 925.4923929433983 L 1014.8519451876872 925.4419024241657 L 1015.0637740781702 925.3923669948783 L 1015.2766881427729 925.3437916090378 L 1015.490666090266 925.2961811241422 L 1015.7056865230333 925.2495403012002 L 1015.9217279392104 925.2038738042555 L 1016.1387687348359 925.1591861999195 L 1016.3567872060113 925.1154819569155 L 1016.5757615510709 925.0727654456314 L 1016.7956698727626 925.0310409376825 L 1017.0164901804378 924.9903126054852 L 1017.2382003922495 924.9505845218386 L 1017.4607783373614 924.911860659518 L 1017.6842017581644 924.8741448908771 L 1017.9084483125025 924.8374409874617 L 1018.1334955759074 924.8017526196314 L 1018.3593210438402 924.7670833561933 L 1018.5859021339422 924.7334366640447 L 1018.8132161882934 924.700815907827 L 1019.0412404756775 924.6692243495884 L 1019.2699521938559 924.6386651484585 L 1019.4993284718475 924.609141360332 L 1019.7293463722157 924.5806559375632 L 1019.9599828933618 924.5532117286704 L 1020.1912149718262 924.5268114780516 L 1020.4230194845935 924.5014578257102 L 1020.6553732514059 924.47715330699 L 1020.8882530370801 924.4539003523226 L 1021.1216355538317 924.4317012869844 L 1021.3554974636035 924.4105583308632 L 1021.5898153803993 924.390473598237 L 1021.8245658726228 924.3714490975624 L 1022.0597254654203 924.3534867312735 L 1022.2952706430287 924.336588295592 L 1022.5311778511264 924.3207554803475 L 1022.7674234991891 924.3059898688083 L 1023.0039839628489 924.292292937523 L 1023.2408355862567 924.2796660561737 L 1023.4779546844474 924.2681104874378 L 1023.7153175457088 924.2576273868625 L 1023.9529004339525 924.2482178027492 L 1024.190679591088 924.2398826760485 L 1024.4286312393972 924.2326228402661 L 1024.666731583914 924.2264390213794 L 1024.904956814802 924.2213318377654 L 1025.143283109737 924.217301800138 L 1025.3816866362881 924.2143493114976 L 1025.620143554301 924.2124746670908 L 1025.8586300182828 924.2116780543802 L 1026.0971221797859 924.2119595530265 L 1026.3355961897928 924.2133191348803 L 1026.574028201101 924.2157566639842 L 1026.8123943707085 924.2192718965875 L 1027.050670862197 924.22386448117 L 1027.2888338481152 924.2295339584768 L 1027.526859512364 924.2362797615651 L 1027.7647240525744 924.24410121586 L 1028.0024036824911 924.2529975392229 L 1028.239874634349 924.2629678420285 L 1028.477113161251 924.2740111272552 L 1028.714095539542 924.2861262905834 L 1028.9507980711817 924.299312120507 L 1029.1871970861139 924.3135672984539 L 1029.4232689446344 924.3288903989184 L 1029.6589900397541 924.3452798896029 L 1029.8943367995598 924.3627341315723 L 1030.1292856895716 924.3812513794168 L 1030.3638132150966 924.4008297814269 L 1030.5978959235772 924.421467379779 L 1030.831510406938 924.4431621107303 L 1031.0646333039251 924.4659118048257 L 1031.2972413024431 924.489714187115 L 1031.5293111418862 924.5145668773797 L 1031.7608196154638 924.5404673903714 L 1031.991743572521 924.5674131360604 L 1032.2220599208554 924.5954014198948 L 1032.4517456290232 924.6244294430692 L 1032.6807777286456 924.6544943028056 L 1032.9091333167032 924.6855929926431 L 1033.1367895578278 924.7177224027388 L 1033.3637236865845 924.7508793201782 L 1033.58991300975 924.7850604292975 L 1033.81533490858 924.8202623120138 L 1034.0399668410732 924.8564814481686 L 1034.2637863442228 924.8937142158783 L 1034.4867710362653 924.931956891897 L 1034.7088986189174 924.9712056519893 L 1034.930146879606 925.0114565713117 L 1035.150493693689 925.0527056248058 L 1035.3699170266689 925.0949486876007 L 1035.5883949363954 925.1381815354251 L 1035.8059055752592 925.1823998450307 L 1036.022427192378 925.2275991946229 L 1036.2379381357705 925.2737750643047 L 1036.4524168545217 925.3209228365275 L 1036.6658419009386 925.3690377965535 L 1036.8781919326946 925.4181151329266 L 1037.0894457149632 925.4681499379542 L 1037.2995821225425 925.5191372081974 L 1037.5085801419666 925.5710718449718 L 1037.7164188736076 925.6239486548568 L 1037.923077533766 925.6777623502156 L 1038.1285354567476 925.7325075497237 L 1038.3327720969316 925.7881787789063 L 1038.535767030824 925.8447704706873 L 1038.7374999591007 925.9022769659445 L 1038.9379507086367 925.9606925140762 L 1039.1370992345244 926.0200112735765 L 1039.334925622077 926.0802273126187 L 1039.5314100888206 926.1413346096492 L 1039.7265329864722 926.2033270539891 L 1039.920274802905 926.2661984464459 L 1040.1126161640984 926.3299424999323 L 1040.3035378360769 926.3945528400964 L 1040.4930207268321 926.4600230059579 L 1040.681045888233 926.5263464505548 L 1040.86759451792 926.5935165415979 L 1041.0526479611858 926.6615265621341 L 1041.23618771284 926.730369711218 L 1041.4181954190608 926.8000391045921 L 1041.5986528792287 926.8705277753751 L 1041.7775420477485 926.9418286747587 L 1041.9548450358525 927.0139346727121 L 1042.130544113389 927.0868385586961 L 1042.3046217105975 927.1605330423824 L 1042.4770604198627 927.2350107543842 L 1042.6478429974577 927.3102642469925 L 1042.816952365267 927.3862859949205 L 1042.9843716124947 927.463068396057 L 1043.1500839973555 927.5406037722257 L 1043.3140729487493 927.6188843699538 L 1043.4763220679172 927.6979023612465 L 1043.6368151300828 927.7776498443706 L 1043.7955360860735 927.8581188446443 L 1043.9524690639262 927.9393013152347 L 1044.1075983704736 928.0211891379622 L 1044.2609084929143 928.103774124113 L 1044.412384100364 928.187048015257 L 1044.5620100453882 928.2710024840748 L 1044.709771365517 928.3556291351892 L 1044.8556532847415 928.4409195060059 L 1044.9996412149915 928.5268650675587 L 1045.1417207575937 928.613457225363 L 1045.2818777047123 928.7006873202754 L 1045.4200980407695 928.788546629359 L 1045.556367943847 928.877026366756 L 1045.6906737870677 928.9661176845666 L 1045.8230021399595 929.055811673733 L 1045.9533397697971 929.1460993649313 L 1046.0816736429265 929.2369717294674 L 1046.2079909260672 929.3284196801808 L 1046.3322789875958 929.4204340723525 L 1046.4545253988103 929.5130057046198 L 1046.574717935171 929.6061253198969 L 1046.6928445775245 929.6997836062998 L 1046.8088935133053 929.7939711980778 L 1046.9228531377162 929.8886786765502 L 1047.0347120548897 929.9838965710483 L 1047.1444590790277 930.0796153598617 L 1047.2520832355187 930.1758254711915 L 1047.3575737620372 930.2725172841067 L 1047.4609201096184 930.3696811295065 L 1047.5621119437133 930.4673072910874 L 1047.6611391452232 930.5653860063146 L 1047.7579918115102 930.6639074673983 L 1047.8526602573886 930.7628618222744 L 1047.9451350160925 930.86223917559 L 1048.0354068402232 930.9620295896926 L 1048.1234667026736 931.0622230856239 L 1048.2093057975308 931.1628096441178 L 1048.2929155409565 931.2637792066022 L 1048.3742875720466 931.3651216762051 L 1048.4534137536655 931.4668269187639 L 1048.530286173261 931.5688847638392 L 1048.604897143655 931.6712850057314 L 1048.677239203813 931.7740174045018 L 1048.7473051195893 931.8770716869961 L 1048.8150878844503 931.9804375478718 L 1048.8805807201763 932.0841046506291 L 1048.9437770775382 932.188062628644 L 1049.0046706369528 932.2923010862055 L 1049.0632553091154 932.3968095995546 L 1049.119525235607 932.5015777179269 L 1049.1734747894823 932.6065949645981 L 1049.2250985758303 932.711850837931 L 1049.2743914323162 932.8173348124259 L 1049.3213484296946 932.9230363397734 L 1049.3659648723055 933.0289448499086 L 1049.4082362985416 933.1350497520689 L 1049.4481584812954 933.2413404358526 L 1049.485727428382 933.3478062722797 L 1049.5209393829382 933.4544366148555 L 1049.5537908237975 933.5612208006344 L 1049.5842784658432 933.6681481512868 L 1049.612399260337 933.7752079741668 L 1049.6381503952225 933.8823895633816 L 1049.6615292954075 933.9896822008611 L 1049.682533623022 934.0970751574313 L 1049.70116127765 934.2045576938859 L 1049.7174103965424 934.312119062061 L 1049.7312793548003 934.4197485059092 L 1049.7427667655395 934.5274352625759 L 1049.7518714800287 934.6351685634752 L 1049.7585925878038 934.7429376353666 L 1049.76292941676 934.850731701433 L 1049.7648815332175 934.9585399823575 M 1049.7650025232736 969.296808396918 L 1049.7638100633699 969.4046189418347 L 1049.7602328029038 969.5124187057866 L 1049.7542710995983 969.6201969088874 L 1049.7459255496192 969.7279427734064 L 1049.735196987514 969.8356455248471 L 1049.7220864861301 969.943294393024 L 1049.7065953565068 970.0508786131401 L 1049.6887251477442 970.1583874268629 L 1049.6684776468483 970.2658100834007 L 1049.645854878552 970.3731358405773 L 1049.6208591051136 970.4803539659065 L 1049.5934928260897 970.5874537376651 L 1049.563758778085 970.6944244459652 L 1049.5316599344799 970.801255393825 L 1049.4971995051317 970.9079358982389 L 1049.460380936055 971.0144552912452 L 1049.4212079090757 971.1208029209934 L 1049.3796843414639 971.2269681528093 L 1049.3358143855419 971.3329403702579 L 1049.2896024282686 971.438708976206 L 1049.2410530908012 971.5442633938812 L 1049.1901712280333 971.6495930679295 L 1049.1369619281081 971.7546874654713 L 1049.081430511912 971.8595360771545 L 1049.02358253254 971.9641284182054 L 1048.9634237747418 972.0684540294768 L 1048.900960254343 972.1725024784946 L 1048.836198217644 972.2762633605007 L 1048.769144140794 972.3797262994934 L 1048.699804729145 972.4828809492649 L 1048.6281869165805 972.5857169944361 L 1048.5542978648218 972.6882241514884 L 1048.4781449627126 972.7903921697914 L 1048.3997358254799 972.8922108326284 L 1048.3190782939719 972.993669958218 L 1048.2361804338743 973.0947594007321 L 1048.1510505349045 973.1954690513109 L 1048.0636971099811 973.295788839073 L 1047.974128894374 973.3957087321235 L 1047.8823548448297 973.4952187385561 L 1047.7883841386774 973.5943089074533 L 1047.692226172909 973.6929693298806 L 1047.5938905632406 973.791190139878 L 1047.493387143152 973.8889615154466 L 1047.3907259629007 973.98627367953 L 1047.2859172885196 974.083116900993 L 1047.1789716007888 974.1794814955942 L 1047.069899594188 974.2753578269545 L 1046.9587121758266 974.3707363075205 L 1046.845420464354 974.4656073995237 L 1046.730035788847 974.559961615934 L 1046.612569687677 974.6537895214083 L 1046.4930339073562 974.7470817332343 L 1046.3714404013629 974.8398289222685 L 1046.2478013289465 974.9320218138694 L 1046.122129053911 975.0236511888245 L 1045.9944361433795 975.1147078842728 L 1045.8647353665367 975.2051827946207 L 1045.7330396933517 975.2950668724524 L 1045.5993622932824 975.384351129435 L 1045.4637165339575 975.4730266372173 L 1045.3261159798396 975.5610845283225 L 1045.1865743908697 975.6485159970347 L 1045.0451057210905 975.73531230028 L 1044.9017241172508 975.8214647585004 L 1044.7564439173914 975.9069647565217 L 1044.6092796494117 975.9918037444156 L 1044.4602460296155 976.0759732383539 L 1044.3093579612407 976.1594648214573 L 1044.1566305329684 976.2422701446371 L 1044.002079017414 976.32438092743 L 1043.8457188696004 976.4057889588262 L 1043.6875657254122 976.4864860980903 L 1043.527635400032 976.5664642755756 L 1043.3659438863588 976.645715493531 L 1043.2025073534094 976.724231826901 L 1043.037342144701 976.8020054241174 L 1042.8704647766167 976.8790285078854 L 1042.7018919367542 976.9552933759609 L 1042.531640482257 977.0307924019204 L 1042.3597274381289 977.1055180359244 L 1042.186169995531 977.1794628054718 L 1042.0109855100625 977.2526193161472 L 1041.8341915000265 977.3249802523603 L 1041.6558056446763 977.3965383780782 L 1041.4758457824491 977.4672865375477 L 1041.294329909181 977.5372176560118 L 1041.1112761763081 977.606324740417 L 1040.926702889051 977.6746008801124 L 1040.740628504585 977.7420392475409 L 1040.553071630193 977.8086330989221 L 1040.3640510214063 977.8743757749262 L 1040.1735855801285 977.9392607013405 L 1039.9816943527446 978.0032813897263 L 1039.7883965282178 978.0664314380683 L 1039.5937114361693 978.1287045314141 L 1039.3976585449461 978.1900944425064 L 1039.200257459674 978.2505950324052 L 1039.001527920297 978.3102002511018 L 1038.8014897996031 978.3689041381242 L 1038.6001631012382 978.4267008231325 L 1038.397567957704 978.4835845265064 L 1038.1937246283464 978.539549559923 L 1037.988653497328 978.5945903269255 L 1037.7823750715913 978.6487013234832 L 1037.574909978807 978.7018771385415 L 1037.3662789653113 978.754112454563 L 1037.1565028940317 978.8054020480599 L 1036.9456027424008 978.8557407901155 L 1036.7335996002578 978.9051236468974 L 1036.5205146677401 978.9535456801614 L 1036.3063692531637 979.0010020477442 L 1036.0911847708915 979.0474880040488 L 1035.8749827391923 979.0929989005182 L 1035.657784778089 979.1375301861007 L 1035.439612607197 979.1810774077048 L 1035.2204880435515 979.2236362106447 L 1035.0004329994263 979.2652023390756 L 1034.779469480142 979.3057716364193 L 1034.5576195818671 979.3453400457797 L 1034.334905489406 979.3839036103491 L 1034.1113494739827 979.4214584738029 L 1033.886973891012 979.4580008806863 L 1033.6618011778658 979.4935271767889 L 1033.4358538516274 979.5280338095107 L 1033.2091545068413 979.5615173282174 L 1032.9817258132528 979.5939743845847 L 1032.7535905135421 979.6254017329343 L 1032.5247714210486 979.6557962305574 L 1032.2952914174914 979.6851548380295 L 1032.0651734506794 979.7134746195145 L 1031.8344405322173 979.7407527430577 L 1031.603115735205 979.7669864808696 L 1031.371222191929 979.7921732095982 L 1031.138783091551 979.8163104105917 L 1030.905821677787 979.83939567015 L 1030.672361246584 979.8614266797664 L 1030.438425143791 979.8824012363584 L 1030.204036762823 979.9023172424878 L 1029.9692195423231 979.9211727065705 L 1029.7339969638174 979.9389657430758 L 1029.4983925493677 979.955694572715 L 1029.2624298592195 979.9713575226189 L 1029.0261324894448 979.9859530265056 L 1028.7895240695836 979.999479624837 L 1028.5526282602812 980.0119359649646 L 1028.3154687509207 980.0233208012645 L 1028.0780692572555 980.0336329952627 L 1027.840453519037 980.0428715157484 L 1027.6026452976414 980.0510354388773 L 1027.3646683736924 980.0581239482638 L 1027.126546544684 980.0641363350628 L 1026.8883036226007 980.0690719980408 L 1026.6499634315364 980.0729304436356 L 1026.4115498053113 980.0757112860058 L 1026.1730865850898 980.0774142470694 L 1025.9345976169946 980.0780391565319 L 1025.696106749724 980.0775859519026 L 1025.4576378321663 980.0760546785019 L 1025.219214711014 980.0734454894557 L 1024.980861228381 980.0697586456806 L 1024.7426012194167 980.0649945158583 L 1024.5044585099233 980.0591535763974 L 1024.2664569139736 980.0522364113872 L 1024.0286202315287 980.0442437125383 L 1023.7909722460589 980.0351762791141 L 1023.5535367221644 980.0250350178502 L 1023.3163374031997 980.0138209428644 L 1023.0793980088993 980.0015351755549 L 1022.842742233005 979.988178944488 L 1022.6063937408971 979.9737535852759 L 1022.3703761672281 979.9582605404423 L 1022.1347131135585 979.9417013592789 L 1021.8994281459974 979.92407769769 L 1021.6645447928454 979.905391318027 L 1021.4300865422421 979.8856440889123 L 1021.1960768398172 979.8648379850525 L 1020.9625390863458 979.8429750870405 L 1020.729496635409 979.8200575811479 L 1020.4969727910573 979.7960877591063 L 1020.2649908054814 979.7710680178778 L 1020.0335738766868 979.7450008594158 L 1019.8027451461733 979.7178888904142 L 1019.5725276966217 979.6897348220476 L 1019.3429445495851 979.6605414696992 L 1019.1140186631868 979.6303117526799 L 1018.8857729298248 979.5990486939362 L 1018.6582301738822 979.5667554197481 L 1018.4314131494449 979.5334351594158 L 1018.2053445380265 979.499091244938 L 1017.9800469462995 979.463727110677 L 1017.7555429038354 979.4273462930172 L 1017.5318548608515 979.3899524300099 L 1017.3090051859656 979.3515492610101 L 1017.0870161639594 979.3121406263028 L 1016.8659099935504 979.2717304667187 L 1016.645708785171 979.23032282324 L 1016.4264345587588 979.1879218365966 L 1016.2081092415536 979.1445317468518 L 1015.9907546659052 979.1001568929785 L 1015.7743925670902 979.0548017124249 L 1015.5590445811379 979.0084707406714 L 1015.3447322426676 978.9611686107766 L 1015.1314769827345 978.912900052914 L 1014.9193001266871 978.8636698938992 L 1014.7082228920337 978.813483056707 L 1014.4982663863224 978.7623445599794 L 1014.2894516050285 978.7102595175234 L 1014.0817994294562 978.6572331377998 L 1013.87533062465 978.6032707234026 L 1013.6700658373184 978.548377670528 L 1013.4660255937689 978.4925594684356 L 1013.2632302978559 978.4358216988993 L 1013.0617002289401 978.3781700356485 L 1012.8614555398605 978.3196102438017 L 1012.6625162549188 978.2601481792891 L 1012.4649022678781 978.1997897882677 L 1012.2686333399722 978.1385411065263 L 1012.0737290979304 978.076408258882 L 1011.8802090320145 978.0133974585679 L 1011.6880924940697 977.9495150066114 L 1011.4973986955899 977.8847672912044 L 1011.3081467057959 977.8191607870647 L 1011.120355449729 977.7527020547878 L 1010.9340437063584 977.6853977401918 L 1010.749230106703 977.6172545736518 L 1010.5659331319689 977.548279369428 L 1010.3841711117007 977.478479024983 L 1010.2039622219492 977.4078605202933 L 1010.0253244834529 977.3364309171504 L 1009.848275759837 977.2641973584551 L 1009.6728337558261 977.1911670675032 L 1009.4990160154747 977.1173473472629 L 1009.3268399204118 977.0427455796446 L 1009.1563226881034 976.9673692247629 L 1008.9874813701308 976.8912258201906 L 1008.8203328504849 976.8143229802046 L 1008.6548938438785 976.7366683950248 L 1008.4911808940743 976.6582698300451 L 1008.329210372231 976.5791351250567 L 1008.1689984752658 976.499272193464 L 1008.0105612242346 976.4186890214936 L 1007.8539144627308 976.3373936673958 L 1007.6990738553 976.2553942606379 L 1007.5460548858737 976.1726990010925 L 1007.3948728562214 976.0893161582167 L 1007.24554288442 976.005254070225 L 1007.0980799033425 975.9205211432563 L 1006.952498659164 975.8351258505329 L 1006.8088137098875 975.7490767315126 L 1006.6670394238884 975.6623823910357 L 1006.5271899784769 975.5750514984641 L 1006.3892793584812 975.4870927868141 L 1006.2533213548481 975.3985150518837 L 1006.1193295632651 975.3093271513725 L 1005.9873173827993 975.2195380039964 L 1005.857298014559 975.129156588595 L 1005.7292844603725 975.0381919432348 L 1005.6032895214886 974.9466531643045 L 1005.4793257972963 974.8545494056056 L 1005.3574056840646 974.7618898774372 L 1005.2375413737032 974.668683845675 L 1005.1197448525432 974.5749406308445 L 1005.0040279001388 974.480669607189 L 1004.8904020880885 974.3858802017324 L 1004.7788787788792 974.2905818933361 L 1004.6694691247485 974.1947842117518 L 1004.5621840665708 974.0984967366676 L 1004.4570343327625 974.0017290967508 L 1004.3540304382095 973.9044909686846 L 1004.2531826832152 973.8067920762011 L 1004.1545011524711 973.708642189108 L 1004.0579957140482 973.6100511223121 L 1003.9636760184097 973.5110287348381 L 1003.8715514974467 973.4115849288421 L 1003.7816313635345 973.311729648622 L 1003.6939246086116 973.2114728796223 L 1003.6084400032803 973.1108246474366 L 1003.52518609593 973.0097950168042 L 1003.444171211882 972.908394090604 L 1003.3654034525572 972.806632008844 L 1003.288890694666 972.7045189476477 L 1003.2146405894201 972.602065118236 L 1003.1426605617686 972.4992807659066 L 1003.0729578096539 972.3961761690091 L 1003.0055393032934 972.2927616379171 L 1002.9404117844814 972.1890475139976 L 1002.8775817659155 972.0850441685767 L 1002.8170555305453 971.980762001902 L 1002.7588391309438 971.8762114421036 L 1002.7029383887026 971.77140294415 L 1002.6493588938491 971.6663469888039 L 1002.5981060042883 971.5610540815733 L 1002.5491848452665 971.4555347516609 L 1002.5026003088586 971.3497995509122 L 1002.4583570534797 971.2438590527587 L 1002.4164595034183 971.1377238511623 L 1002.3769118483946 971.0314045595545 L 1002.3397180431409 970.924911809776 L 1002.3048818070071 970.8182562510128 L 1002.2724066235874 970.7114485487323 L 1002.2422957403734 970.6044993836153 L 1002.2145521684281 970.4974194504895 L 1002.1891786820858 970.3902194572587 L 1002.1661778186738 970.2829101238331 L 1002.1455518782593 970.1755021810566 L 1002.1273029234192 970.0680063696338 L 1002.1114327790337 969.9604334390566 L 1002.0979430321042 969.852794146528 L 1002.086835031594 969.7450992558879 L 1002.078109888294 969.6373595365354 L 1002.071768474711 969.5295857623528 L 1002.0678114249814 969.4217887106275 L 1002.0662391348067 969.3139791609751" stroke-miterlimit="10" stroke-width="2.7769845610000004" stroke-dasharray=""/></g><g><g/><text fill="black" stroke="none" font-family="sans-serif" font-size="11pt" font-style="normal" font-weight="normal" text-decoration="normal" x="994.5376607589844" y="917.726571578818" text-anchor="start" dominant-baseline="alphabetic" xml:space="preserve">Database</text></g></g><g><path fill="white" stroke="black" paint-order="fill stroke markers" d=" M 73.50841485 136.90385383881818 L 89.84361814999998 136.90385383881818 L 89.84361814999998 844.218156728818 L 73.50841485 844.218156728818 L 73.50841485 136.90385383881818" stroke-miterlimit="10" stroke-width="1.3612669416666667" stroke-dasharray=""/><path fill="white" stroke="black" paint-order="fill stroke markers" d=" M 401.5715797169271 136.90385383881818 L 417.9067830169271 136.90385383881818 L 417.9067830169271 844.218156728818 L 401.5715797169271 844.218156728818 L 401.5715797169271 136.90385383881818" stroke-miterlimit="10" stroke-width="1.3612669416666667" stroke-dasharray=""/><path fill="white" stroke="black" paint-order="fill stroke markers" d=" M 721.4815616004557 274.1195615588182 L 737.8167649004558 274.1195615588182 L 737.8167649004558 844.218156728818 L 721.4815616004557 844.218156728818 L 721.4815616004557 274.1195615588182" stroke-miterlimit="10" stroke-width="1.3612669416666667" stroke-dasharray=""/><path fill="white" stroke="black" paint-order="fill stroke markers" d=" M 1017.7480040552734 319.8581307988182 L 1034.0832073552735 319.8581307988182 L 1034.0832073552735 844.218156728818 L 1017.7480040552734 844.218156728818 L 1017.7480040552734 319.8581307988182" stroke-miterlimit="10" stroke-width="1.3612669416666667" stroke-dasharray=""/><g><text fill="black" stroke="none" font-family="sans-serif" font-size="16pt" font-style="normal" font-weight="normal" text-decoration="normal" x="501.9039535522461" y="24.651306798181814" text-anchor="start" dominant-baseline="alphabetic" xml:space="preserve">Xaphng</text></g><g><rect fill="white" stroke="none" x="175.6052264584831" y="161.4066587888182" width="140.20474494996094" height="21.23576429"/><text fill="black" stroke="none" font-family="sans-serif" font-size="11pt" font-style="normal" font-weight="normal" text-decoration="normal" x="178.05550695348307" y="176.10834175881817" text-anchor="start" dominant-baseline="alphabetic" xml:space="preserve">Chnphngcnxa</text></g><g><path fill="none" stroke="black" paint-order="fill stroke markers" d=" M 89.84361814999998 182.64242307881818 L 388.12226233326044 182.64242307881818" stroke-miterlimit="10" stroke-width="1.3612669416666667" stroke-dasharray=""/><g transform="translate(401.5715797169271,182.64242307881818) translate(-401.5715797169271,-182.64242307881818)"><path fill="black" stroke="none" paint-order="stroke fill markers" d=" M 387.9589103002604 175.83608837048484 L 401.5715797169271 182.64242307881818 L 387.9589103002604 189.44875778715152 Z"/></g></g><g><rect fill="white" stroke="none" x="172.7634295834831" y="207.1452280288182" width="145.88833869996094" height="21.23576429"/><text fill="black" stroke="none" font-family="sans-serif" font-size="11pt" font-style="normal" font-weight="normal" text-decoration="normal" x="175.21371007848307" y="221.84691099881817" text-anchor="start" dominant-baseline="alphabetic" xml:space="preserve">Hinthxcnhnxa</text></g><g><path fill="none" stroke="black" paint-order="fill stroke markers" d=" M 401.5715797169271 228.3809923188182 L 103.29293553366665 228.3809923188182" stroke-miterlimit="10" stroke-width="1.3612669416666667" stroke-dasharray="6.53408132"/><g transform="translate(89.84361814999998,228.3809923188182) translate(-89.84361814999998,-228.3809923188182)"><path fill="black" stroke="none" paint-order="stroke fill markers" d=" M 103.45628756666665 221.57465761048485 L 89.84361814999998 228.3809923188182 L 103.45628756666665 235.18732702715153 Z"/></g></g><g><rect fill="white" stroke="none" x="176.00966829197918" y="252.88379726881823" width="139.39586128296875" height="21.23576429"/><text fill="black" stroke="none" font-family="sans-serif" font-size="11pt" font-style="normal" font-weight="normal" text-decoration="normal" x="178.45994878697917" y="267.5854802388182" text-anchor="start" dominant-baseline="alphabetic" xml:space="preserve">Xcnhnxaphng</text></g><g><path fill="none" stroke="black" paint-order="fill stroke markers" d=" M 89.84361814999998 274.1195615588182 L 388.12226233326044 274.1195615588182" stroke-miterlimit="10" stroke-width="1.3612669416666667" stroke-dasharray=""/><g transform="translate(401.5715797169271,274.1195615588182) translate(-401.5715797169271,-274.1195615588182)"><path fill="black" stroke="none" paint-order="stroke fill markers" d=" M 387.9589103002604 267.31322685048485 L 401.5715797169271 274.1195615588182 L 387.9589103002604 280.92589626715153 Z"/></g></g><g><rect fill="white" stroke="none" x="491.02344045871087" y="298.6223665088182" width="157.34146369996094" height="21.23576429"/><text fill="black" stroke="none" font-family="sans-serif" font-size="11pt" font-style="normal" font-weight="normal" text-decoration="normal" x="493.4737209537109" y="313.32404947881815" text-anchor="start" dominant-baseline="alphabetic" xml:space="preserve">Giyucuxaphng</text></g><g><path fill="none" stroke="black" paint-order="fill stroke markers" d=" M 417.9067830169271 319.8581307988182 L 708.0322442167891 319.8581307988182" stroke-miterlimit="10" stroke-width="1.3612669416666667" stroke-dasharray=""/><g transform="translate(721.4815616004557,319.8581307988182) translate(-721.4815616004557,-319.8581307988182)"><path fill="black" stroke="none" paint-order="stroke fill markers" d=" M 707.8688921837891 313.05179609048486 L 721.4815616004557 319.8581307988182 L 707.8688921837891 326.66446550715153 Z"/></g></g><g><rect fill="white" stroke="none" x="757.1467554721224" y="344.3609357488182" width="241.27125801148438" height="21.23576429"/><text fill="black" stroke="none" font-family="sans-serif" font-size="11pt" font-style="normal" font-weight="normal" text-decoration="normal" x="759.5970359671225" y="359.06261871881816" text-anchor="start" dominant-baseline="alphabetic" xml:space="preserve">Kimtrarngbucdliulinquan</text></g><g><path fill="none" stroke="black" paint-order="fill stroke markers" d=" M 737.8167649004558 365.5967000388182 L 1004.2986866716068 365.5967000388182" stroke-miterlimit="10" stroke-width="1.3612669416666667" stroke-dasharray=""/><g transform="translate(1017.7480040552734,365.5967000388182) translate(-1017.7480040552734,-365.5967000388182)"><path fill="black" stroke="none" paint-order="stroke fill markers" d=" M 1004.1353346386068 358.79036533048486 L 1017.7480040552734 365.5967000388182 L 1004.1353346386068 372.40303474715154 Z"/></g></g><g><rect fill="white" stroke="none" x="777.9341471347201" y="434.2045538988182" width="199.69647468628906" height="21.23576429"/><text fill="black" stroke="none" font-family="sans-serif" font-size="11pt" font-style="normal" font-weight="normal" text-decoration="normal" x="780.3844276297201" y="448.90623686881816" text-anchor="start" dominant-baseline="alphabetic" xml:space="preserve">Xcnhnkhngcrngbuc</text></g><g><path fill="none" stroke="black" paint-order="fill stroke markers" d=" M 1017.7480040552734 455.4403181888182 L 751.2660822841225 455.4403181888182" stroke-miterlimit="10" stroke-width="1.3612669416666667" stroke-dasharray="6.53408132"/><g transform="translate(737.8167649004558,455.4403181888182) translate(-737.8167649004558,-455.4403181888182)"><path fill="black" stroke="none" paint-order="stroke fill markers" d=" M 751.4294343171225 448.63398348048486 L 737.8167649004558 455.4403181888182 L 751.4294343171225 462.24665289715153 Z"/></g></g><g><rect fill="white" stroke="none" x="839.870411172806" y="479.9431231388182" width="75.82394661011719" height="21.23576429"/><text fill="black" stroke="none" font-family="sans-serif" font-size="11pt" font-style="normal" font-weight="normal" text-decoration="normal" x="842.320691667806" y="494.64480610881816" text-anchor="start" dominant-baseline="alphabetic" xml:space="preserve">Xaphng</text></g><g><path fill="none" stroke="black" paint-order="fill stroke markers" d=" M 737.8167649004558 501.1788874288182 L 1004.2986866716068 501.1788874288182" stroke-miterlimit="10" stroke-width="1.3612669416666667" stroke-dasharray=""/><g transform="translate(1017.7480040552734,501.1788874288182) translate(-1017.7480040552734,-501.1788874288182)"><path fill="black" stroke="none" paint-order="stroke fill markers" d=" M 1004.1353346386068 494.37255272048486 L 1017.7480040552734 501.1788874288182 L 1004.1353346386068 507.98522213715154 Z"/></g></g><g><rect fill="white" stroke="none" x="792.1932642611849" y="525.6816923788182" width="171.17824043335938" height="21.23576429"/><text fill="black" stroke="none" font-family="sans-serif" font-size="11pt" font-style="normal" font-weight="normal" text-decoration="normal" x="794.643544756185" y="540.3833753488182" text-anchor="start" dominant-baseline="alphabetic" xml:space="preserve">Xcnhnxathnhcng</text></g><g><path fill="none" stroke="black" paint-order="fill stroke markers" d=" M 1017.7480040552734 546.9174566688182 L 751.2660822841225 546.9174566688182" stroke-miterlimit="10" stroke-width="1.3612669416666667" stroke-dasharray="6.53408132"/><g transform="translate(737.8167649004558,546.9174566688182) translate(-737.8167649004558,-546.9174566688182)"><path fill="black" stroke="none" paint-order="stroke fill markers" d=" M 751.4294343171225 540.1111219604849 L 737.8167649004558 546.9174566688182 L 751.4294343171225 553.7237913771515 Z"/></g></g><g><rect fill="white" stroke="none" x="484.10505209201165" y="571.4202616188181" width="171.17824043335938" height="21.23576429"/><text fill="black" stroke="none" font-family="sans-serif" font-size="11pt" font-style="normal" font-weight="normal" text-decoration="normal" x="486.55533258701166" y="586.1219445888181" text-anchor="start" dominant-baseline="alphabetic" xml:space="preserve">Xcnhnxathnhcng</text></g><g><path fill="none" stroke="black" paint-order="fill stroke markers" d=" M 721.4815616004557 592.6560259088182 L 431.35610040059373 592.6560259088182" stroke-miterlimit="10" stroke-width="1.3612669416666667" stroke-dasharray="6.53408132"/><g transform="translate(417.9067830169271,592.6560259088182) translate(-417.9067830169271,-592.6560259088182)"><path fill="black" stroke="none" paint-order="stroke fill markers" d=" M 431.51945243359376 585.8496912004848 L 417.9067830169271 592.6560259088182 L 431.51945243359376 599.4623606171515 Z"/></g></g><g><rect fill="white" stroke="none" x="109.17360872166667" y="617.1588308588181" width="273.0679804235937" height="21.23576429"/><text fill="black" stroke="none" font-family="sans-serif" font-size="11pt" font-style="normal" font-weight="normal" text-decoration="normal" x="111.62388921666667" y="631.8605138288181" text-anchor="start" dominant-baseline="alphabetic" xml:space="preserve">Hinththngboxaphngthnhcng</text></g><g><path fill="none" stroke="black" paint-order="fill stroke markers" d=" M 401.5715797169271 638.3945951488181 L 103.29293553366665 638.3945951488181" stroke-miterlimit="10" stroke-width="1.3612669416666667" stroke-dasharray="6.53408132"/><g transform="translate(89.84361814999998,638.3945951488181) translate(-89.84361814999998,-638.3945951488181)"><path fill="black" stroke="none" paint-order="stroke fill markers" d=" M 103.45628756666665 631.5882604404848 L 89.84361814999998 638.3945951488181 L 103.45628756666665 645.2009298571514 Z"/></g></g><g><rect fill="white" stroke="none" x="790.0350687655795" y="707.0024490088181" width="175.49463142457031" height="21.23576429"/><text fill="black" stroke="none" font-family="sans-serif" font-size="11pt" font-style="normal" font-weight="normal" text-decoration="normal" x="792.4853492605795" y="721.704131978818" text-anchor="start" dominant-baseline="alphabetic" xml:space="preserve">Trvthngtinrngbuc</text></g><g><path fill="none" stroke="black" paint-order="fill stroke markers" d=" M 1017.7480040552734 728.2382132988181 L 751.2660822841225 728.2382132988181" stroke-miterlimit="10" stroke-width="1.3612669416666667" stroke-dasharray="6.53408132"/><g transform="translate(737.8167649004558,728.2382132988181) translate(-737.8167649004558,-728.2382132988181)"><path fill="black" stroke="none" paint-order="stroke fill markers" d=" M 751.4294343171225 721.4318785904848 L 737.8167649004558 728.2382132988181 L 751.4294343171225 735.0445480071514 Z"/></g></g><g><rect fill="white" stroke="none" x="437.2367735885937" y="752.741018248818" width="264.9147821814062" height="21.23576429"/><text fill="black" stroke="none" font-family="sans-serif" font-size="11pt" font-style="normal" font-weight="normal" text-decoration="normal" x="439.6870540835937" y="767.442701218818" text-anchor="start" dominant-baseline="alphabetic" xml:space="preserve">Hinththngbokhngthxaphng</text></g><g><path fill="none" stroke="black" paint-order="fill stroke markers" d=" M 721.4815616004557 773.976782538818 L 431.35610040059373 773.976782538818" stroke-miterlimit="10" stroke-width="1.3612669416666667" stroke-dasharray="6.53408132"/><g transform="translate(417.9067830169271,773.976782538818) translate(-417.9067830169271,-773.976782538818)"><path fill="black" stroke="none" paint-order="stroke fill markers" d=" M 431.51945243359376 767.1704478304847 L 417.9067830169271 773.976782538818 L 431.51945243359376 780.7831172471514 Z"/></g></g><g><rect fill="white" stroke="none" x="174.3883380307487" y="798.479587488818" width="142.6385218054297" height="21.23576429"/><text fill="black" stroke="none" font-family="sans-serif" font-size="11pt" font-style="normal" font-weight="normal" text-decoration="normal" x="176.8386185257487" y="813.181270458818" text-anchor="start" dominant-baseline="alphabetic" xml:space="preserve">Hinththngboli</text></g><g><path fill="none" stroke="black" paint-order="fill stroke markers" d=" M 401.5715797169271 819.715351778818 L 103.29293553366665 819.715351778818" stroke-miterlimit="10" stroke-width="1.3612669416666667" stroke-dasharray="6.53408132"/><g transform="translate(89.84361814999998,819.715351778818) translate(-89.84361814999998,-819.715351778818)"><path fill="black" stroke="none" paint-order="stroke fill markers" d=" M 103.45628756666665 812.9090170704847 L 89.84361814999998 819.715351778818 L 103.45628756666665 826.5216864871513 Z"/></g></g><g><g/><path fill="none" stroke="black" paint-order="fill stroke markers" d=" M 16.33520329999999 390.0995049888182 L 1083.0888172552736 390.0995049888182 L 1083.0888172552736 844.218156728818 L 16.33520329999999 844.218156728818 L 16.33520329999999 390.0995049888182 Z" stroke-miterlimit="10" stroke-width="2.3336004714285714" stroke-dasharray=""/><path fill="white" stroke="black" paint-order="fill stroke markers" d=" M 16.33520329999999 390.0995049888182 L 16.33520329999999 409.7017489488182 L 62.6944068970703 409.7017489488182 L 72.4955288770703 399.9006269688182 L 72.4955288770703 390.0995049888182 L 16.33520329999999 390.0995049888182" stroke-miterlimit="10" stroke-width="2.3336004714285714" stroke-dasharray=""/><text fill="black" stroke="none" font-family="sans-serif" font-size="8.8pt" font-style="normal" font-weight="bold" text-decoration="normal" x="32.67040659999999" y="403.1676676288182" text-anchor="start" dominant-baseline="alphabetic" xml:space="preserve">alt</text><g><rect fill="white" stroke="none" x="86.3804516820703" y="391.4063212528182" width="126.7480951696875" height="16.988611432000003"/></g><text fill="black" stroke="none" font-family="sans-serif" font-size="8.8pt" font-style="normal" font-weight="bold" text-decoration="normal" x="88.8307321770703" y="403.1676676288182" text-anchor="start" dominant-baseline="alphabetic" xml:space="preserve">[Khngcrngbuc]</text><g><path fill="none" stroke="black" paint-order="fill stroke markers" d=" M 16.33520329999999 662.8974000988181 L 1083.0888172552734 662.8974000988181" stroke-miterlimit="10" stroke-width="2.3336004714285714" stroke-dasharray="4.083800825"/></g><g/><g><rect fill="white" stroke="none" x="86.3804516820703" y="664.2042163628181" width="88.30488838257813" height="16.988611432000003"/></g><text fill="black" stroke="none" font-family="sans-serif" font-size="8.8pt" font-style="normal" font-weight="bold" text-decoration="normal" x="88.8307321770703" y="675.9655627388181" text-anchor="start" dominant-baseline="alphabetic" xml:space="preserve">[Crngbuc]</text></g><g/></g><g/><g/><g/><g/></g></svg>