<svg xmlns="http://www.w3.org/2000/svg" xmlns:xlink="http://www.w3.org/1999/xlink" version="1.1" width="1194.870938784375" height="830.333233923818"><desc>title%20Xem%20danh%20s%C3%A1ch%20thi%E1%BA%BFt%20b%E1%BB%8B%0A%0Abottomparticipants%0A%0Aactor%20Landlord%0Aentity%20Client%0Aentity%20Backend%0Adatabase%20Database%0A%0ALandlord%20-%3E%20Client%3A%20Ch%E1%BB%8Dn%20m%C3%A0n%20h%C3%ACnh%20danh%20s%C3%A1ch%20thi%E1%BA%BFt%20b%E1%BB%8B%0Aactivate%20Landlord%0Aactivate%20Client%0A%0AClient%20-%3E%20Backend%3A%20G%E1%BB%ADi%20y%C3%AAu%20c%E1%BA%A7u%20l%E1%BA%A5y%20danh%20s%C3%A1ch%20thi%E1%BA%BFt%20b%E1%BB%8B%20(bao%20g%E1%BB%93m%20b%E1%BB%99%20l%E1%BB%8Dc%2C%20n%E1%BA%BFu%20c%C3%B3)%0Aactivate%20Backend%0A%0ABackend%20-%3E%20Backend%3A%20Ki%E1%BB%83m%20tra%20quy%E1%BB%81n%0Aactivate%20Database%0ABackend%20-%3E%20Database%3A%20Truy%20v%E1%BA%A5n%20danh%20s%C3%A1ch%20thi%E1%BA%BFt%20b%E1%BB%8B%20(%C3%A1p%20d%E1%BB%A5ng%20b%E1%BB%99%20l%E1%BB%8Dc)%0ADatabase%20--%3E%20Backend%3A%20Tr%E1%BA%A3%20v%E1%BB%81%20danh%20s%C3%A1ch%20thi%E1%BA%BFt%20b%E1%BB%8B%0Adeactivate%20Database%0A%0Aalt%20C%C3%B3%20d%E1%BB%AF%20li%E1%BB%87u%0A%20%20%20%20Backend%20--%3E%20Client%3A%20G%E1%BB%ADi%20danh%20s%C3%A1ch%20thi%E1%BA%BFt%20b%E1%BB%8B%0A%20%20%20%20Client%20--%3E%20Landlord%3A%20Hi%E1%BB%83n%20th%E1%BB%8B%20danh%20s%C3%A1ch%20thi%E1%BA%BFt%20b%E1%BB%8B%0Aelse%20Kh%C3%B4ng%20c%C3%B3%20d%E1%BB%AF%20li%E1%BB%87u%0A%20%20%20%20Backend%20--%3E%20Client%3A%20Th%C3%B4ng%20b%C3%A1o%20danh%20s%C3%A1ch%20r%E1%BB%97ng%0A%20%20%20%20Client%20--%3E%20Landlord%3A%20Hi%E1%BB%83n%20th%E1%BB%8B%20b%E1%BA%A3ng%20tr%E1%BB%91ng%0Aend%0A%0Adeactivate%20Backend%0Adeactivate%20Client%0Adeactivate%20Landlord%0A</desc><defs/><g><g/><g/><g/><g/><g/><g/><g/><g/><g/><g/><g/><g/><g/><g/><g/><g/><g/><g/><g/><g/><g/><g/><g/><g/><g/><g/><g/><g/><g/><g/><g/><g/><g/><g/><g/><g/><g/><g/><g/><g/><g/><g/><g/><g/><g/><g/><g/><g/><g/><g/><g/><g/><g/><g/><g/><g/><g/><g/><g/><g/><g/><g/><g/><g/><g/><g/><g/><g/><g/><g/><g/><g/><g/><g/><g/><g/><g/><g/><g/><g/><g/><g/><g/><g/><g/><g/><g/><g/><g/><g/><g/><g/><g/><g/><g/><g/><g/><g/><g/><g/><g/><g/><g/><g/><g/><g/><g/><g/><g/><g/><g/><g/><g/><g/><g/><g/><g/><g/><g/><g/><g/><g/><g/><g/><g/><g/><g/><g/><g/><g/><g><rect fill="white" stroke="none" x="0" y="0" width="1194" height="830"/></g><g/><g><path fill="none" stroke="black" paint-order="fill stroke markers" d=" M 81.67601649999999 128.73625218881818 L 81.67601649999999 739.672855608818" stroke-miterlimit="10" stroke-width="1.3612669416666667" stroke-dasharray="12.565541,5.445067766666667"/><path fill="none" stroke="black" paint-order="fill stroke markers" d=" M 360.80577072239583 128.73625218881818 L 360.80577072239583 739.672855608818" stroke-miterlimit="10" stroke-width="1.3612669416666667" stroke-dasharray="12.565541,5.445067766666667"/><path fill="none" stroke="black" paint-order="fill stroke markers" d=" M 808.6398096127605 128.73625218881818 L 808.6398096127605 739.672855608818" stroke-miterlimit="10" stroke-width="1.3612669416666667" stroke-dasharray="12.565541,5.445067766666667"/><path fill="none" stroke="black" paint-order="fill stroke markers" d=" M 1154.032930534375 128.73625218881818 L 1154.032930534375 739.672855608818" stroke-miterlimit="10" stroke-width="1.3612669416666667" stroke-dasharray="12.565541,5.445067766666667"/></g><g><g><path fill="white" stroke="black" paint-order="fill stroke markers" d=" M 90.987082381 59.63834222981819 A 9.311065881 9.311065881 0 1 1 90.98707772546743 59.62903116548903 M 81.67601649999999 68.9494081108182 L 81.67601649999999 88.8783561368182 M 69.914670124 76.13689756281819 L 93.43736287599998 76.13689756281819 M 81.67601649999999 88.8783561368182 L 69.914670124 107.50048789881819 M 81.67601649999999 88.8783561368182 L 93.43736287599998 107.50048789881819" stroke-miterlimit="10" stroke-width="2.7769845610000004" stroke-dasharray=""/></g><g><g/><text fill="black" stroke="none" font-family="sans-serif" font-size="11pt" font-style="normal" font-weight="normal" text-decoration="normal" x="53.1470400595703" y="123.83569119881818" text-anchor="start" dominant-baseline="alphabetic" xml:space="preserve">Landlord</text></g><g><path fill="white" stroke="black" paint-order="fill stroke markers" d=" M 385.06354762289584 79.63263106901819 A 24.2577769005 24.2577769005 0 1 1 385.0635354940084 79.60837329616064 M 335.15950154139585 106.11199561831819 L 386.4520399033958 106.11199561831819" stroke-miterlimit="10" stroke-width="2.7769845610000004" stroke-dasharray=""/></g><g><g/><text fill="black" stroke="none" font-family="sans-serif" font-size="11pt" font-style="normal" font-weight="normal" text-decoration="normal" x="342.0656202707357" y="123.83569119881818" text-anchor="start" dominant-baseline="alphabetic" xml:space="preserve">Client</text></g><g><path fill="white" stroke="black" paint-order="fill stroke markers" d=" M 832.8975865132604 79.63263106901819 A 24.2577769005 24.2577769005 0 1 1 832.897574384373 79.60837329616064 M 782.9935404317605 106.11199561831819 L 834.2860787937605 106.11199561831819" stroke-miterlimit="10" stroke-width="2.7769845610000004" stroke-dasharray=""/></g><g><g/><text fill="black" stroke="none" font-family="sans-serif" font-size="11pt" font-style="normal" font-weight="normal" text-decoration="normal" x="780.1144113583659" y="123.83569119881818" text-anchor="start" dominant-baseline="alphabetic" xml:space="preserve">Backend</text></g><g><path fill="white" stroke="black" paint-order="fill stroke markers" d=" M 1130.183533716375 96.71925372081819 L 1130.183533716375 62.41532679081819 L 1177.8823273523751 62.41532679081819 L 1177.8823273523751 96.71925372081819" stroke-miterlimit="10" stroke-width="2.7769845610000004" stroke-dasharray=""/><path fill="white" stroke="black" paint-order="fill stroke markers" d=" M 1177.8823273523751 61.22285694991819 L 1177.8811348924714 61.33066749483481 L 1177.8775576320054 61.43846725878678 L 1177.8715959287 61.546245461887544 L 1177.8632503787207 61.65399132640659 L 1177.8525218166155 61.761694077847274 L 1177.8394113152317 61.86934294602419 L 1177.8239201856084 61.976927166140236 L 1177.8060499768458 62.084435979863045 L 1177.7858024759498 62.19185863640084 L 1177.7631797076535 62.299184393577484 L 1177.7381839342152 62.4064025189067 L 1177.7108176551912 62.51350229066531 L 1177.6810836071866 62.62047299896537 L 1177.6489847635814 62.7273039468252 L 1177.6145243342332 62.83398445123905 L 1177.5777057651565 62.94050384424536 L 1177.5385327381773 63.04685147399361 L 1177.4970091705654 63.15301670580944 L 1177.4531392146434 63.25898892325815 L 1177.4069272573702 63.364757529206294 L 1177.3583779199028 63.47031194688142 L 1177.3074960571348 63.575641620929716 L 1177.2542867572097 63.68073601847156 L 1177.1987553410136 63.78558463015478 L 1177.1409073616417 63.89017697120557 L 1177.0807486038434 63.994502582477 L 1177.0182850834447 64.09855103149486 L 1176.9535230467457 64.20231191350096 L 1176.8864689698955 64.3057748524936 L 1176.8171295582465 64.40892950226505 L 1176.745511745682 64.51176554743633 L 1176.6716226939234 64.61427270448858 L 1176.5954697918141 64.71644072279157 L 1176.5170606545814 64.81825938562858 L 1176.4364031230734 64.91971851121816 L 1176.353505262976 65.02080795373233 L 1176.268375364006 65.12151760431107 L 1176.1810219390827 65.22183739207324 L 1176.0914537234755 65.32175728512367 L 1175.9996796739313 65.42126729155632 L 1175.905708967779 65.52035746045347 L 1175.8095510020105 65.6190178828808 L 1175.7112153923422 65.71723869287828 L 1175.6107119722535 65.81501006844678 L 1175.5080507920022 65.91232223253022 L 1175.4032421176212 66.00916545399325 L 1175.2962964298904 66.10553004859446 L 1175.1872244232895 66.20140637995469 L 1175.0760370049281 66.29678486052069 L 1174.9627452934556 66.39165595252388 L 1174.8473606179487 66.48601016893414 L 1174.7298945167786 66.57983807440844 L 1174.6103587364578 66.67313028623443 L 1174.4887652304644 66.76587747526865 L 1174.365126158048 66.85807036686953 L 1174.2394538830126 66.94969974182469 L 1174.111760972481 67.04075643727302 L 1173.9820601956383 67.13123134762085 L 1173.8503645224532 67.22111542545254 L 1173.716687122384 67.3103996824352 L 1173.581041363059 67.39907519021754 L 1173.4434408089412 67.4871330813227 L 1173.3038992199713 67.57456455003492 L 1173.162430550192 67.6613608532802 L 1173.0190489463523 67.74751331150055 L 1172.873768746493 67.83301330952195 L 1172.7266044785133 67.91785229741582 L 1172.577570858717 68.00202179135408 L 1172.4266827903423 68.08551337445749 L 1172.27395536207 68.1683186976373 L 1172.1194038465155 68.25042948043021 L 1171.963043698702 68.33183751182635 L 1171.8048905545138 68.41253465109044 L 1171.6449602291336 68.4925128285758 L 1171.4832687154603 68.5717640465313 L 1171.319832182511 68.65028037990122 L 1171.1546669738025 68.72805397711764 L 1170.9877896057183 68.80507706088565 L 1170.8192167658558 68.88134192896105 L 1170.6489653113586 68.95684095492061 L 1170.4770522672304 69.03156658892462 L 1170.3034948246325 69.10551135847197 L 1170.128310339164 69.17866786914732 L 1169.951516329128 69.25102880536058 L 1169.7731304737779 69.3225869310784 L 1169.5931706115507 69.39333509054786 L 1169.4116547382826 69.46326620901198 L 1169.2286010054097 69.53237329341717 L 1169.0440277181526 69.60064943311258 L 1168.8579533336865 69.66808780054113 L 1168.6703964592946 69.7346816519223 L 1168.481375850508 69.80042432792644 L 1168.29091040923 69.86530925434072 L 1168.0990191818462 69.92932994272657 L 1167.9057213573194 69.9924799910685 L 1167.7110362652709 70.05475308441433 L 1167.5149833740477 70.1161429955066 L 1167.3175822887756 70.17664358540536 L 1167.1188527493985 70.23624880410202 L 1166.9188146287047 70.29495269112441 L 1166.7174879303398 70.35274937613272 L 1166.5148927868056 70.40963307950663 L 1166.311049457448 70.46559811292322 L 1166.1059783264295 70.52063887992576 L 1165.899699900693 70.57474987648341 L 1165.6922348079086 70.62792569154163 L 1165.4836037944128 70.68016100756323 L 1165.2738277231333 70.73145060106012 L 1165.0629275715023 70.78178934311569 L 1164.8509244293593 70.8311721998977 L 1164.6378394968417 70.8795942331616 L 1164.4236940822652 70.92705060074444 L 1164.208509599993 70.973536557049 L 1163.9923075682939 71.01904745351838 L 1163.7751096071906 71.06357873910088 L 1163.5569374362985 71.10712596070502 L 1163.337812872653 71.14968476364494 L 1163.1177578285278 71.19125089207583 L 1162.8967943092437 71.23182018941947 L 1162.6749444109687 71.27138859877994 L 1162.4522303185076 71.30995216334925 L 1162.2286743030843 71.34750702680313 L 1162.0042987201136 71.38404943368649 L 1161.7791260069673 71.4195757297891 L 1161.553178680729 71.45408236251096 L 1161.3264793359428 71.48756588121756 L 1161.0990506423543 71.52002293758491 L 1160.8709153426437 71.55145028593446 L 1160.6420962501502 71.58184478355753 L 1160.412616246593 71.61120339102969 L 1160.182498279781 71.63952317251467 L 1159.9517653613188 71.66680129605793 L 1159.7204405643065 71.69303503386982 L 1159.4885470210306 71.71822176259843 L 1159.2561079206525 71.7423589635919 L 1159.0231465068885 71.7654442231502 L 1158.7896860756855 71.78747523276665 L 1158.5557499728925 71.80844978935863 L 1158.3213615919246 71.82836579548797 L 1158.0865443714247 71.84722125957065 L 1157.851321792919 71.86501429607597 L 1157.6157173784693 71.8817431257151 L 1157.379754688321 71.89740607561903 L 1157.1434573185463 71.91200157950583 L 1156.9068488986852 71.92552817783725 L 1156.6699530893827 71.93798451796474 L 1156.4327935800222 71.94936935426468 L 1156.195394086357 71.95968154826289 L 1155.9577783481386 71.96892006874862 L 1155.719970126743 71.97708399187748 L 1155.481993202794 71.98417250126396 L 1155.2438713737856 71.99018488806304 L 1155.0056284517023 71.99512055104105 L 1154.767288260638 71.99897899663581 L 1154.528874634413 72.00175983900598 L 1154.2904114141913 72.00346280006961 L 1154.0519224460961 72.00408770953204 L 1153.8134315788257 72.00363450490285 L 1153.5749626612678 72.0021032315021 L 1153.3365395401156 71.99949404245586 L 1153.0981860574825 71.9958071986809 L 1152.8599260485182 71.99104306885846 L 1152.621783339025 71.98520212939759 L 1152.3837817430751 71.97828496438737 L 1152.1459450606303 71.97029226553852 L 1151.9082970751604 71.96122483211428 L 1151.670861551266 71.95108357085043 L 1151.4336622323012 71.93986949586466 L 1151.1967228380008 71.92758372855508 L 1150.9600670621064 71.91422749748824 L 1150.7237185699987 71.89980213827607 L 1150.4877009963297 71.8843090934425 L 1150.25203794266 71.86774991227908 L 1150.016752975099 71.85012625069015 L 1149.781869621947 71.83143987102717 L 1149.5474113713437 71.81169264191253 L 1149.3134016689187 71.79088653805269 L 1149.0798639154475 71.7690236400407 L 1148.8468214645104 71.74610613414815 L 1148.6142976201588 71.72213631210651 L 1148.382315634583 71.69711657087802 L 1148.1508987057882 71.67104941241597 L 1147.9200699752748 71.64393744341446 L 1147.6898525257232 71.6157833750478 L 1147.4602693786867 71.58659002269937 L 1147.2313434922885 71.55636030568009 L 1147.0030977589265 71.52509724693644 L 1146.7755550029838 71.49280397274828 L 1146.5487379785466 71.45948371241609 L 1146.322669367128 71.42513979793813 L 1146.097371775401 71.38977566367726 L 1145.872867732937 71.35339484601741 L 1145.6491796899531 71.31600098301004 L 1145.4263300150672 71.27759781401028 L 1145.2043409930611 71.23818917930303 L 1144.9832348226519 71.19777901971894 L 1144.7630336142727 71.15637137624027 L 1144.5437593878603 71.11397038959687 L 1144.325434070655 71.07058029985207 L 1144.108079495007 71.02620544597868 L 1143.8917173961918 70.98085026542512 L 1143.6763694102394 70.93451929367163 L 1143.462057071769 70.8872171637768 L 1143.248801811836 70.8389486059142 L 1143.0366249557885 70.78971844689937 L 1142.8255477211353 70.7395316097072 L 1142.615591215424 70.6883931129796 L 1142.40677643413 70.6363080705236 L 1142.1991242585577 70.58328169080006 L 1141.9926554537515 70.52931927640276 L 1141.78739066642 70.47442622352818 L 1141.5833504228704 70.41860802143584 L 1141.3805551269575 70.36187025189946 L 1141.1790250580418 70.3042185886487 L 1140.978780368962 70.24565879680183 L 1140.7798410840205 70.18619673228926 L 1140.5822270969798 70.12583834126788 L 1140.3859581690738 70.06458965952649 L 1140.191053927032 70.00245681188221 L 1139.997533861116 69.93944601156807 L 1139.8054173231712 69.87556355961155 L 1139.6147235246915 69.81081584420461 L 1139.4254715348975 69.74520934006487 L 1139.2376802788306 69.67875060778805 L 1139.05136853546 69.61144629319199 L 1138.8665549358045 69.54330312665208 L 1138.6832579610705 69.47432792242817 L 1138.5014959408022 69.40452757798322 L 1138.3212870510506 69.3339090732935 L 1138.1426493125543 69.26247947015062 L 1137.9656005889385 69.19024591145539 L 1137.7901585849277 69.11721562050347 L 1137.6163408445761 69.0433959002631 L 1137.4441647495132 68.96879413264479 L 1137.273647517205 68.89341777776313 L 1137.1048061992324 68.81727437319081 L 1136.9376576795864 68.74037153320482 L 1136.77221867298 68.66271694802508 L 1136.608505723176 68.58431838304537 L 1136.4465352013326 68.5051836780569 L 1136.2863233043672 68.4253207464642 L 1136.1278860533362 68.34473757449386 L 1135.9712392918325 68.26344222039596 L 1135.8163986844015 68.18144281363814 L 1135.6633797149752 68.09874755409275 L 1135.512197685323 68.01536471121685 L 1135.3628677135216 67.9313026232252 L 1135.215404732444 67.84656969625658 L 1135.0698234882657 67.76117440353308 L 1134.926138538989 67.67512528451279 L 1134.78436425299 67.5884309440359 L 1134.6445148075784 67.50110005146425 L 1134.5066041875828 67.41314133981427 L 1134.3706461839497 67.32456360488388 L 1134.2366543923667 67.23537570437271 L 1134.104642211901 67.14558655699653 L 1133.9746228436607 67.05520514159522 L 1133.8466092894741 66.96424049623502 L 1133.7206143505903 66.87270171730466 L 1133.5966506263978 66.78059795860575 L 1133.4747305131662 66.68793843043741 L 1133.3548662028047 66.59473239867523 L 1133.2370696816447 66.50098918384472 L 1133.1213527292402 66.40671816018926 L 1133.0077269171902 66.31192875473263 L 1132.8962036079806 66.2166304463364 L 1132.78679395385 66.120832764752 L 1132.6795088956724 66.02454528966774 L 1132.574359161864 65.92777764975091 L 1132.471355267311 65.83053952168484 L 1132.3705075123169 65.73284062920132 L 1132.2718259815726 65.63469074210818 L 1132.1753205431498 65.53609967531233 L 1132.0810008475112 65.4370772878383 L 1131.9888763265483 65.33763348184232 L 1131.898956192636 65.23777820162212 L 1131.811249437713 65.13752143262249 L 1131.7257648323819 65.03687320043682 L 1131.6425109250315 64.93584356980442 L 1131.5614960409837 64.83444264360419 L 1131.4827282816589 64.73268056184422 L 1131.4062155237675 64.63056750064791 L 1131.3319654185218 64.52811367123628 L 1131.25998539087 64.42532931890689 L 1131.1902826387554 64.32222472200931 L 1131.1228641323949 64.21881019091732 L 1131.0577366135828 64.11509606699785 L 1130.994906595017 64.01109272157687 L 1130.9343803596469 63.90681055490224 L 1130.8761639600455 63.80225999510374 L 1130.820263217804 63.697451497150205 L 1130.7666837229506 63.59239554180411 L 1130.71543083339 63.48710263457343 L 1130.666509674368 63.381583304661156 L 1130.6199251379603 63.27584810391234 L 1130.5756818825812 63.16990760575894 L 1130.5337843325199 63.06377240416249 L 1130.494236677496 62.95745311255472 L 1130.4570428722425 62.85096036277616 L 1130.4222066361085 62.744304804013076 L 1130.389731452689 62.63749710173245 L 1130.3596205694748 62.530547936615505 L 1130.3318769975297 62.423468003489624 L 1130.3065035111872 62.316268010258895 L 1130.2835026477753 62.208958676833305 L 1130.2628767073609 62.10155073405677 L 1130.2446277525207 61.99405492263407 L 1130.2287576081353 61.88648199205676 L 1130.2152678612058 61.77884269952825 L 1130.2041598606957 61.6711478088881 L 1130.1954347173955 61.56340808953563 L 1130.1890933038126 61.45563431535299 L 1130.1851362540829 61.34783726362778 L 1130.1835639639082 61.24002771397536 L 1130.1843765905162 61.13221644726084 L 1130.1875740526448 61.02441424452105 L 1130.1931560305504 60.916631885886424 L 1130.20112196604 60.808880149503025 L 1130.211471062527 60.70116981045468 L 1130.2242022851096 60.59351163968555 L 1130.2393143606769 60.48591640292299 L 1130.2568057780334 60.378394859601016 L 1130.276674788052 60.27095776178435 L 1130.298919403849 60.163615853093255 L 1130.3235374009803 60.05637986762915 L 1130.3505263176673 59.949260528901206 L 1130.3798834550407 59.84226854875404 L 1130.4116058774111 59.7354146262965 L 1130.445690412563 59.62870944683179 L 1130.482133652071 59.52216368078894 L 1130.5209319516418 59.41578798265577 L 1130.5620814314775 59.30959298991343 L 1130.6055779766646 59.203589321972714 L 1130.6514172375846 59.09778757911208 L 1130.6995946303498 58.992198341417634 L 1130.750105337261 58.88683216772516 L 1130.8029443072896 58.78169959456423 L 1130.8581062565827 58.67681113510454 L 1130.9155856689913 58.57217727810464 L 1130.9753767966222 58.46780848686303 L 1131.0374736604122 58.36371519817185 L 1131.1018700507266 58.25990782127324 L 1131.1685595279803 58.15639673681838 L 1131.237535423281 58.053192295829454 L 1131.308790839097 57.950304818664556 L 1131.3823186499455 57.84774459398567 L 1131.4581115031071 57.745521877729786 L 1131.5361618193597 57.64364689208335 L 1131.6164617937363 57.54212982446004 L 1131.6990033963068 57.44098082648201 L 1131.7837783729797 57.340210012964775 L 1131.8707782463275 57.2398274609057 L 1131.959994316436 57.13984320847635 L 1132.051417661772 57.040267254018644 L 1132.1450391400774 56.94110955504505 L 1132.2408493892826 56.84238002724283 L 1132.3388388284422 56.74408854348249 L 1132.438997658694 56.646244932830506 L 1132.5413158642384 56.54885897956639 L 1132.6457832133403 56.45194042220433 L 1132.7523892593517 56.35549895251929 L 1132.861123341757 56.25954421457787 L 1132.9719745872385 56.16408580377391 L 1133.0849319107638 56.06913326586893 L 1133.1999840166948 55.974696096037604 L 1133.317119399917 55.88078373791821 L 1133.4363263469895 55.7874055826683 L 1133.557592937317 55.694570968025594 L 1133.6809070443412 55.60228917737418 L 1133.8062563367548 55.51056943881623 L 1133.9336282797324 55.41942092424918 L 1134.0630101361862 55.328852748448504 L 1134.1943889680383 55.23887396815633 L 1134.327751637515 55.14949358117568 L 1134.4630848084603 55.0607205254708 L 1134.6003749476702 54.97256367827326 L 1134.739608326245 54.88503185519433 L 1134.8807710209628 54.79813380934336 L 1135.023848915672 54.71187823045254 L 1135.1688277027022 54.62627374400786 L 1135.3156928842955 54.541328910386646 L 1135.464429774056 54.45705222400146 L 1135.615023498419 54.373452112450714 L 1135.7674589981373 54.290536935675895 L 1135.9217210297882 54.20831498512558 L 1136.0777941672968 54.12679448292632 L 1136.2356628034797 54.0459835810604 L 1136.3953111516046 53.965890360550645 L 1136.5567232469698 53.88652283065238 L 1136.7198829485 53.80788892805245 L 1136.8847739403618 53.72999651607559 L 1137.0513797335927 53.652853383898076 L 1137.2196836677524 53.57646724576885 L 1137.3896689125877 53.50084574023808 L 1137.561318469716 53.42599642939328 L 1137.7346151743243 53.35192679810317 L 1137.909541696887 53.278644253269164 L 1138.086080544897 53.20615612308466 L 1138.2642140646171 53.13446965630228 L 1138.4439244428436 53.06359202150896 L 1138.6251937086886 52.99353030640911 L 1138.8080037353764 52.924291517115876 L 1138.9923362420566 52.85588257745046 L 1139.1781727956322 52.78831032824984 L 1139.3654948126027 52.72158152668263 L 1139.5542835609228 52.65570284557336 L 1139.7445201618746 52.590680872735255 L 1139.9361855919567 52.52652211031142 L 1140.1292606847858 52.463232974124615 L 1140.3237261330135 52.40081979303573 L 1140.519562490257 52.33928880831086 L 1140.716750173044 52.278646172997206 L 1140.91526946277 52.21889795130775 L 1141.115100507672 52.160050118014894 L 1141.316223324812 52.1021085578529 L 1141.5186178020756 52.045079064929524 L 1141.7222637001837 51.98896734214652 L 1141.9271406547166 51.933779000629414 L 1142.1332281781492 51.87951955916637 L 1142.3405056619013 51.826194443656306 L 1142.5489523783967 51.77380898656634 L 1142.7585474831378 51.72236842639853 L 1142.9692700167889 51.67187790716602 L 1143.181098907272 51.622342477878675 L 1143.3940129718744 51.57376709203812 L 1143.6079909193675 51.526156607142475 L 1143.8230113521347 51.47951578420055 L 1144.0390527683119 51.43384928725578 L 1144.2560935639376 51.38916168291979 L 1144.4741120351127 51.34545743991578 L 1144.6930863801724 51.302740928631636 L 1144.9129947018641 51.261016420682886 L 1145.1338150095394 51.220288088485546 L 1145.355525221351 51.18056000483891 L 1145.5781031664628 51.14183614251822 L 1145.801526587266 51.10412037387746 L 1146.025773141604 51.06741647046204 L 1146.250820405009 51.03172810263173 L 1146.4766458729418 50.99705883919358 L 1146.7032269630438 50.96341214704502 L 1146.930541017395 50.930791390827245 L 1147.1585653047791 50.899199832588685 L 1147.3872770229575 50.86864063145883 L 1147.616653300949 50.83911684333235 L 1147.8466712013171 50.81063142056343 L 1148.0773077224633 50.78318721167063 L 1148.3085398009277 50.75678696105195 L 1148.5403443136952 50.731433308710464 L 1148.7726980805076 50.70712878999027 L 1149.0055778661817 50.683875835323 L 1149.2389603829333 50.66167676998473 L 1149.472822292705 50.6405338138635 L 1149.7071402095007 50.6204490812373 L 1149.9418907017243 50.60142458056266 L 1150.177050294522 50.583462214273794 L 1150.4125954721303 50.566563778592354 L 1150.648502680228 50.55073096334783 L 1150.8847483282907 50.53596535180856 L 1151.1213087919505 50.52226842052339 L 1151.3581604153583 50.50964153917403 L 1151.5952795135488 50.49808597043808 L 1151.8326423748103 50.48760286986282 L 1152.070225263054 50.47819328574954 L 1152.3080044201895 50.46985815904882 L 1152.5459560684988 50.462598323266384 L 1152.7840564130156 50.456414504379765 L 1153.0222816439036 50.45130732076569 L 1153.2606079388386 50.44727728313828 L 1153.4990114653897 50.444324794497916 L 1153.7374683834025 50.44245015009101 L 1153.9759548473844 50.44165353738045 L 1154.2144470088874 50.44193503602685 L 1154.4529210188944 50.443294617880554 L 1154.6913530302027 50.445732146984525 L 1154.92971919981 50.44924737958788 L 1155.1679956912985 50.45383996417029 L 1155.4061586772168 50.459509441477124 L 1155.6441843414655 50.46625524456538 L 1155.882048881676 50.474076698860365 L 1156.1197285115927 50.48297302222316 L 1156.3571994634506 50.49294332502887 L 1156.5944379903526 50.50398661025549 L 1156.8314203686436 50.51610177358371 L 1157.0681229002832 50.52928760350731 L 1157.3045219152154 50.54354278145426 L 1157.540593773736 50.55886588191867 L 1157.7763148688557 50.575255372603245 L 1158.0116616286614 50.592709614572584 L 1158.2466105186732 50.61122686241703 L 1158.4811380441981 50.630805264427224 L 1158.7152207526788 50.651442862779284 L 1158.9488352360395 50.67313759373059 L 1159.1819581330267 50.695887287826096 L 1159.4145661315447 50.71968967011537 L 1159.6466359709877 50.74454236038002 L 1159.8781444445654 50.77044287337172 L 1160.1090684016226 50.797388619060754 L 1160.339384749957 50.825376902895016 L 1160.5690704581248 50.85440492606945 L 1160.7981025577471 50.88446978580591 L 1161.0264581458048 50.9155684756435 L 1161.2541143869294 50.947697885739125 L 1161.481048515686 50.980854803178566 L 1161.7072378388516 51.01503591229771 L 1161.9326597376817 51.05023779501413 L 1162.1572916701748 51.08645693116888 L 1162.3811111733244 51.12368969887854 L 1162.6040958653668 51.16193237489736 L 1162.826223448019 51.201181134989596 L 1163.0474717087075 51.241432054311964 L 1163.2678185227905 51.28268110780607 L 1163.4872418557704 51.32492417060092 L 1163.705719765497 51.368157018425464 L 1163.9232304043608 51.41237532803093 L 1164.1397520214796 51.45757467762322 L 1164.355262964872 51.503750547305025 L 1164.5697416836233 51.55089831952786 L 1164.7831667300402 51.5990132795538 L 1164.9955167617961 51.64809061592693 L 1165.2067705440647 51.69812542095451 L 1165.416906951644 51.749112691197745 L 1165.6259049710682 51.801047327972086 L 1165.8337437027092 51.85392413785714 L 1166.0404023628676 51.90773783321599 L 1166.2458602858492 51.962483032723924 L 1166.4500969260332 52.01815426190663 L 1166.6530918599256 52.07474595368758 L 1166.8548247882022 52.132252448944755 L 1167.0552755377382 52.190667997076545 L 1167.254424063626 52.24998675657682 L 1167.4522504511785 52.310202795619055 L 1167.6487349179222 52.371310092649544 L 1167.8438578155738 52.43330253698949 L 1168.0375996320065 52.49617392944612 L 1168.2299409932 52.559917982932596 L 1168.4208626651784 52.62452832309667 L 1168.6103455559337 52.68999848895818 L 1168.7983707173346 52.7563219335551 L 1168.9849193470216 52.823492024598224 L 1169.1699727902874 52.89150204513444 L 1169.3535125419417 52.960345194218355 L 1169.5355202481624 53.03001458759244 L 1169.7159777083302 53.10050325837541 L 1169.89486687685 53.171804157758935 L 1170.072169864954 53.243910155712484 L 1170.2478689424906 53.31681404169635 L 1170.421946539699 53.39050852538269 L 1170.5943852489643 53.46498623738456 L 1170.7651678265593 53.5402397299928 L 1170.9342771943686 53.61626147792087 L 1171.1016964415962 53.69304387905734 L 1171.267408826457 53.770579255226075 L 1171.4313977778509 53.848859852954064 L 1171.5936468970187 53.92787784424677 L 1171.7541399591844 54.00762532737092 L 1171.912860915175 54.08809432764465 L 1172.0697938930277 54.16927679823499 L 1172.2249231995752 54.251164620962534 L 1172.3782333220158 54.33374960711325 L 1172.5297089294656 54.41702349825734 L 1172.6793348744898 54.500977967075094 L 1172.8270961946187 54.58560461818958 L 1172.972978113843 54.670894989006214 L 1173.116966044093 54.75684055055899 L 1173.2590455866953 54.84343270836337 L 1173.3992025338139 54.93066280327574 L 1173.537422869871 55.0185221123593 L 1173.6736927729485 55.107001849756344 L 1173.8079986161692 55.196093167566886 L 1173.940326969061 55.28578715673337 L 1174.0706645988987 55.37607484793163 L 1174.198998472028 55.46694721246779 L 1174.3253157551687 55.55839516318112 L 1174.4496038166974 55.65040955535275 L 1174.571850227912 55.742981187620146 L 1174.6920427642726 55.83610080289723 L 1174.810169406626 55.92975908930006 L 1174.9262183424069 56.02394668107806 L 1175.0401779668177 56.11865415955053 L 1175.1520368839913 56.213872054048544 L 1175.2617839081292 56.30959084286201 L 1175.3694080646203 56.405800954191804 L 1175.4748985911388 56.50249276710697 L 1175.57824493872 56.5996566125068 L 1175.6794367728148 56.69728277408771 L 1175.7784639743247 56.79536148931491 L 1175.8753166406118 56.89388295039859 L 1175.9699850864902 56.99283730527477 L 1176.062459845194 57.09221465859041 L 1176.1527316693248 57.19200507269298 L 1176.2407915317751 57.29219856862425 L 1176.3266306266323 57.39278512711811 L 1176.410240370058 57.49375468960253 L 1176.4916124011481 57.59509715920541 L 1176.570738582767 57.69680240176424 L 1176.6476110023625 57.79886024683951 L 1176.7222219727566 57.90126048873177 L 1176.7945640329146 58.003992887502164 L 1176.864629948691 58.10704716999642 L 1176.932412713552 58.21041303087217 L 1176.997905549278 58.31408013362946 L 1177.0611019066398 58.41803811164441 L 1177.1219954660544 58.52227656920584 L 1177.180580138217 58.62678508255487 L 1177.2368500647085 58.731553200927245 L 1177.2907996185838 58.83657044759845 L 1177.3424234049319 58.94182632093131 L 1177.3917162614177 59.04731029542622 L 1177.4386732587961 59.153011822773635 L 1177.483289701407 59.25892033290889 L 1177.5255611276432 59.36502523506925 L 1177.565483310397 59.471315918852895 L 1177.6030522574836 59.57778175528004 L 1177.6382642120398 59.684412097855756 L 1177.671115652899 59.79119628363465 L 1177.7016032949448 59.89812363428712 L 1177.7297240894386 60.005183457167206 L 1177.755475224324 60.11236504638185 L 1177.778854124509 60.21965768386144 L 1177.7998584521235 60.327050640431644 L 1177.8184861067516 60.43453317688629 L 1177.834735225644 60.5420945450613 L 1177.848604183902 60.6497239889095 L 1177.860091594641 60.757410745576195 L 1177.8691963091303 60.86514404647545 L 1177.8759174169054 60.972913118366954 L 1177.8802542458616 61.08070718443333 L 1177.882206362319 61.188515465357796 M 1177.8823273523751 95.52678387991818 L 1177.8811348924714 95.6345944248348 L 1177.8775576320054 95.74239418878678 L 1177.8715959287 95.85017239188754 L 1177.8632503787207 95.95791825640659 L 1177.8525218166155 96.06562100784727 L 1177.8394113152317 96.1732698760242 L 1177.8239201856084 96.28085409614023 L 1177.8060499768458 96.38836290986303 L 1177.7858024759498 96.49578556640084 L 1177.7631797076535 96.60311132357748 L 1177.7381839342152 96.7103294489067 L 1177.7108176551912 96.8174292206653 L 1177.6810836071866 96.92439992896537 L 1177.6489847635814 97.0312308768252 L 1177.6145243342332 97.13791138123905 L 1177.5777057651565 97.24443077424536 L 1177.5385327381773 97.35077840399362 L 1177.4970091705654 97.45694363580944 L 1177.4531392146434 97.56291585325815 L 1177.4069272573702 97.66868445920629 L 1177.3583779199028 97.77423887688141 L 1177.3074960571348 97.8795685509297 L 1177.2542867572097 97.98466294847155 L 1177.1987553410136 98.08951156015478 L 1177.1409073616417 98.19410390120557 L 1177.0807486038434 98.29842951247699 L 1177.0182850834447 98.40247796149485 L 1176.9535230467457 98.50623884350097 L 1176.8864689698955 98.60970178249359 L 1176.8171295582465 98.71285643226504 L 1176.745511745682 98.81569247743631 L 1176.6716226939234 98.91819963448859 L 1176.5954697918141 99.02036765279156 L 1176.5170606545814 99.12218631562857 L 1176.4364031230734 99.22364544121817 L 1176.353505262976 99.32473488373233 L 1176.268375364006 99.42544453431107 L 1176.1810219390827 99.52576432207324 L 1176.0914537234755 99.62568421512367 L 1175.9996796739313 99.72519422155631 L 1175.905708967779 99.82428439045346 L 1175.8095510020105 99.92294481288079 L 1175.7112153923422 100.02116562287829 L 1175.6107119722535 100.11893699844678 L 1175.5080507920022 100.2162491625302 L 1175.4032421176212 100.31309238399325 L 1175.2962964298904 100.40945697859446 L 1175.1872244232895 100.50533330995468 L 1175.0760370049281 100.60071179052068 L 1174.9627452934556 100.69558288252388 L 1174.8473606179487 100.78993709893413 L 1174.7298945167786 100.88376500440843 L 1174.6103587364578 100.97705721623441 L 1174.4887652304644 101.06980440526866 L 1174.365126158048 101.16199729686952 L 1174.2394538830126 101.25362667182469 L 1174.111760972481 101.34468336727302 L 1173.9820601956383 101.43515827762084 L 1173.8503645224532 101.52504235545253 L 1173.716687122384 101.61432661243519 L 1173.581041363059 101.70300212021755 L 1173.4434408089412 101.7910600113227 L 1173.3038992199713 101.87849148003492 L 1173.162430550192 101.9652877832802 L 1173.0190489463523 102.05144024150056 L 1172.873768746493 102.13694023952193 L 1172.7266044785133 102.22177922741581 L 1172.577570858717 102.30594872135407 L 1172.4266827903423 102.38944030445748 L 1172.27395536207 102.47224562763729 L 1172.1194038465155 102.5543564104302 L 1171.963043698702 102.63576444182635 L 1171.8048905545138 102.71646158109044 L 1171.6449602291336 102.79643975857579 L 1171.4832687154603 102.8756909765313 L 1171.319832182511 102.95420730990122 L 1171.1546669738025 103.03198090711763 L 1170.9877896057183 103.10900399088564 L 1170.8192167658558 103.18526885896105 L 1170.6489653113586 103.2607678849206 L 1170.4770522672304 103.33549351892461 L 1170.3034948246325 103.40943828847196 L 1170.128310339164 103.48259479914732 L 1169.951516329128 103.55495573536056 L 1169.7731304737779 103.6265138610784 L 1169.5931706115507 103.69726202054787 L 1169.4116547382826 103.76719313901197 L 1169.2286010054097 103.83630022341715 L 1169.0440277181526 103.90457636311257 L 1168.8579533336865 103.97201473054113 L 1168.6703964592946 104.03860858192229 L 1168.481375850508 104.10435125792642 L 1168.29091040923 104.1692361843407 L 1168.0990191818462 104.23325687272656 L 1167.9057213573194 104.29640692106851 L 1167.7110362652709 104.35868001441433 L 1167.5149833740477 104.4200699255066 L 1167.3175822887756 104.48057051540535 L 1167.1188527493985 104.54017573410202 L 1166.9188146287047 104.5988796211244 L 1166.7174879303398 104.65667630613272 L 1166.5148927868056 104.71356000950664 L 1166.311049457448 104.7695250429232 L 1166.1059783264295 104.82456580992574 L 1165.899699900693 104.87867680648341 L 1165.6922348079086 104.93185262154162 L 1165.4836037944128 104.98408793756322 L 1165.2738277231333 105.0353775310601 L 1165.0629275715023 105.08571627311568 L 1164.8509244293593 105.13509912989768 L 1164.6378394968417 105.1835211631616 L 1164.4236940822652 105.23097753074444 L 1164.208509599993 105.27746348704899 L 1163.9923075682939 105.32297438351839 L 1163.7751096071906 105.36750566910086 L 1163.5569374362985 105.41105289070501 L 1163.337812872653 105.45361169364494 L 1163.1177578285278 105.49517782207583 L 1162.8967943092437 105.53574711941947 L 1162.6749444109687 105.57531552877992 L 1162.4522303185076 105.61387909334925 L 1162.2286743030843 105.65143395680312 L 1162.0042987201136 105.68797636368647 L 1161.7791260069673 105.72350265978909 L 1161.553178680729 105.75800929251095 L 1161.3264793359428 105.79149281121755 L 1161.0990506423543 105.82394986758491 L 1160.8709153426437 105.85537721593445 L 1160.6420962501502 105.88577171355752 L 1160.412616246593 105.9151303210297 L 1160.182498279781 105.94345010251467 L 1159.9517653613188 105.97072822605791 L 1159.7204405643065 105.99696196386981 L 1159.4885470210306 106.02214869259844 L 1159.2561079206525 106.04628589359189 L 1159.0231465068885 106.0693711531502 L 1158.7896860756855 106.09140216276666 L 1158.5557499728925 106.11237671935864 L 1158.3213615919246 106.13229272548797 L 1158.0865443714247 106.15114818957065 L 1157.851321792919 106.16894122607596 L 1157.6157173784693 106.1856700557151 L 1157.379754688321 106.20133300561903 L 1157.1434573185463 106.21592850950582 L 1156.9068488986852 106.22945510783724 L 1156.6699530893827 106.24191144796474 L 1156.4327935800222 106.25329628426466 L 1156.195394086357 106.2636084782629 L 1155.9577783481386 106.2728469987486 L 1155.719970126743 106.28101092187747 L 1155.481993202794 106.28809943126396 L 1155.2438713737856 106.29411181806304 L 1155.0056284517023 106.29904748104106 L 1154.767288260638 106.30290592663582 L 1154.528874634413 106.30568676900597 L 1154.2904114141913 106.30738973006962 L 1154.0519224460961 106.30801463953205 L 1153.8134315788257 106.30756143490284 L 1153.5749626612678 106.3060301615021 L 1153.3365395401156 106.30342097245587 L 1153.0981860574825 106.29973412868088 L 1152.8599260485182 106.29496999885845 L 1152.621783339025 106.28912905939758 L 1152.3837817430751 106.28221189438736 L 1152.1459450606303 106.27421919553852 L 1151.9082970751604 106.26515176211427 L 1151.670861551266 106.25501050085043 L 1151.4336622323012 106.24379642586464 L 1151.1967228380008 106.23151065855508 L 1150.9600670621064 106.21815442748823 L 1150.7237185699987 106.20372906827606 L 1150.4877009963297 106.1882360234425 L 1150.25203794266 106.17167684227908 L 1150.016752975099 106.15405318069014 L 1149.781869621947 106.13536680102716 L 1149.5474113713437 106.11561957191253 L 1149.3134016689187 106.09481346805269 L 1149.0798639154475 106.0729505700407 L 1148.8468214645104 106.05003306414814 L 1148.6142976201588 106.0260632421065 L 1148.382315634583 106.00104350087803 L 1148.1508987057882 105.97497634241597 L 1147.9200699752748 105.94786437341445 L 1147.6898525257232 105.9197103050478 L 1147.4602693786867 105.89051695269937 L 1147.2313434922885 105.86028723568009 L 1147.0030977589265 105.82902417693644 L 1146.7755550029838 105.79673090274827 L 1146.5487379785466 105.76341064241608 L 1146.322669367128 105.72906672793813 L 1146.097371775401 105.69370259367726 L 1145.872867732937 105.6573217760174 L 1145.6491796899531 105.61992791301003 L 1145.4263300150672 105.58152474401028 L 1145.2043409930611 105.54211610930304 L 1144.9832348226519 105.50170594971894 L 1144.7630336142727 105.46029830624026 L 1144.5437593878603 105.41789731959686 L 1144.325434070655 105.37450722985206 L 1144.108079495007 105.33013237597868 L 1143.8917173961918 105.28477719542511 L 1143.6763694102394 105.23844622367163 L 1143.462057071769 105.1911440937768 L 1143.248801811836 105.14287553591419 L 1143.0366249557885 105.09364537689936 L 1142.8255477211353 105.0434585397072 L 1142.615591215424 104.99232004297959 L 1142.40677643413 104.9402350005236 L 1142.1991242585577 104.88720862080007 L 1141.9926554537515 104.83324620640276 L 1141.78739066642 104.77835315352817 L 1141.5833504228704 104.72253495143585 L 1141.3805551269575 104.66579718189945 L 1141.1790250580418 104.60814551864868 L 1140.978780368962 104.54958572680184 L 1140.7798410840205 104.49012366228926 L 1140.5822270969798 104.42976527126788 L 1140.3859581690738 104.36851658952648 L 1140.191053927032 104.30638374188221 L 1139.997533861116 104.24337294156805 L 1139.8054173231712 104.17949048961154 L 1139.6147235246915 104.11474277420461 L 1139.4254715348975 104.04913627006486 L 1139.2376802788306 103.98267753778805 L 1139.05136853546 103.91537322319199 L 1138.8665549358045 103.84723005665208 L 1138.6832579610705 103.77825485242818 L 1138.5014959408022 103.70845450798322 L 1138.3212870510506 103.63783600329349 L 1138.1426493125543 103.56640640015061 L 1137.9656005889385 103.49417284145538 L 1137.7901585849277 103.42114255050346 L 1137.6163408445761 103.3473228302631 L 1137.4441647495132 103.27272106264479 L 1137.273647517205 103.19734470776314 L 1137.1048061992324 103.1212013031908 L 1136.9376576795864 103.04429846320481 L 1136.77221867298 102.96664387802507 L 1136.608505723176 102.88824531304537 L 1136.4465352013326 102.8091106080569 L 1136.2863233043672 102.72924767646418 L 1136.1278860533362 102.64866450449387 L 1135.9712392918325 102.56736915039596 L 1135.8163986844015 102.48536974363815 L 1135.6633797149752 102.40267448409276 L 1135.512197685323 102.31929164121684 L 1135.3628677135216 102.2352295532252 L 1135.215404732444 102.15049662625658 L 1135.0698234882657 102.06510133353308 L 1134.926138538989 101.97905221451278 L 1134.78436425299 101.89235787403591 L 1134.6445148075784 101.80502698146424 L 1134.5066041875828 101.71706826981428 L 1134.3706461839497 101.62849053488388 L 1134.2366543923667 101.53930263437272 L 1134.104642211901 101.44951348699652 L 1133.9746228436607 101.35913207159521 L 1133.8466092894741 101.26816742623502 L 1133.7206143505903 101.17662864730465 L 1133.5966506263978 101.08452488860574 L 1133.4747305131662 100.9918653604374 L 1133.3548662028047 100.89865932867522 L 1133.2370696816447 100.80491611384473 L 1133.1213527292402 100.71064509018925 L 1133.0077269171902 100.61585568473262 L 1132.8962036079806 100.5205573763364 L 1132.78679395385 100.424759694752 L 1132.6795088956724 100.32847221966773 L 1132.574359161864 100.2317045797509 L 1132.471355267311 100.13446645168483 L 1132.3705075123169 100.03676755920131 L 1132.2718259815726 99.93861767210817 L 1132.1753205431498 99.84002660531232 L 1132.0810008475112 99.7410042178383 L 1131.9888763265483 99.64156041184232 L 1131.898956192636 99.54170513162211 L 1131.811249437713 99.4414483626225 L 1131.7257648323819 99.34080013043682 L 1131.6425109250315 99.23977049980442 L 1131.5614960409837 99.13836957360418 L 1131.4827282816589 99.03660749184422 L 1131.4062155237675 98.9344944306479 L 1131.3319654185218 98.83204060123627 L 1131.25998539087 98.72925624890688 L 1131.1902826387554 98.6261516520093 L 1131.1228641323949 98.52273712091731 L 1131.0577366135828 98.41902299699785 L 1130.994906595017 98.31501965157686 L 1130.9343803596469 98.21073748490224 L 1130.8761639600455 98.10618692510373 L 1130.820263217804 98.0013784271502 L 1130.7666837229506 97.89632247180411 L 1130.71543083339 97.79102956457344 L 1130.666509674368 97.68551023466115 L 1130.6199251379603 97.57977503391233 L 1130.5756818825812 97.47383453575894 L 1130.5337843325199 97.3676993341625 L 1130.494236677496 97.2613800425547 L 1130.4570428722425 97.15488729277617 L 1130.4222066361085 97.04823173401307 L 1130.389731452689 96.94142403173245 L 1130.3596205694748 96.8344748666155 L 1130.3318769975297 96.72739493348962 L 1130.3065035111872 96.6201949402589 L 1130.2835026477753 96.51288560683331 L 1130.2628767073609 96.40547766405678 L 1130.2446277525207 96.29798185263407 L 1130.2287576081353 96.19040892205675 L 1130.2152678612058 96.08276962952824 L 1130.2041598606957 95.9750747388881 L 1130.1954347173955 95.86733501953563 L 1130.1890933038126 95.75956124535298 L 1130.1851362540829 95.65176419362778 L 1130.1835639639082 95.54395464397535" stroke-miterlimit="10" stroke-width="2.7769845610000004" stroke-dasharray=""/></g><g><g/><text fill="black" stroke="none" font-family="sans-serif" font-size="11pt" font-style="normal" font-weight="normal" text-decoration="normal" x="1122.654985588086" y="123.83569119881818" text-anchor="start" dominant-baseline="alphabetic" xml:space="preserve">Database</text></g><g><path fill="white" stroke="black" paint-order="fill stroke markers" d=" M 90.987082381 771.6081780603181 A 9.311065881 9.311065881 0 1 1 90.98707772546743 771.5988669959889 M 81.67601649999999 780.9192439413181 L 81.67601649999999 800.8481919673181 M 69.914670124 788.1067333933181 L 93.43736287599998 788.1067333933181 M 81.67601649999999 800.8481919673181 L 69.914670124 819.4703237293181 M 81.67601649999999 800.8481919673181 L 93.43736287599998 819.4703237293181" stroke-miterlimit="10" stroke-width="2.7769845610000004" stroke-dasharray=""/></g><g><g/><text fill="black" stroke="none" font-family="sans-serif" font-size="11pt" font-style="normal" font-weight="normal" text-decoration="normal" x="53.1470400595703" y="756.008058908818" text-anchor="start" dominant-baseline="alphabetic" xml:space="preserve">Landlord</text></g><g><path fill="white" stroke="black" paint-order="fill stroke markers" d=" M 385.06354762289584 787.110285992018 A 24.2577769005 24.2577769005 0 1 1 385.0635354940084 787.0860282191604 M 335.15950154139585 813.589650541318 L 386.4520399033958 813.589650541318" stroke-miterlimit="10" stroke-width="2.7769845610000004" stroke-dasharray=""/></g><g><g/><text fill="black" stroke="none" font-family="sans-serif" font-size="11pt" font-style="normal" font-weight="normal" text-decoration="normal" x="342.0656202707357" y="756.008058908818" text-anchor="start" dominant-baseline="alphabetic" xml:space="preserve">Client</text></g><g><path fill="white" stroke="black" paint-order="fill stroke markers" d=" M 832.8975865132604 787.110285992018 A 24.2577769005 24.2577769005 0 1 1 832.897574384373 787.0860282191604 M 782.9935404317605 813.589650541318 L 834.2860787937605 813.589650541318" stroke-miterlimit="10" stroke-width="2.7769845610000004" stroke-dasharray=""/></g><g><g/><text fill="black" stroke="none" font-family="sans-serif" font-size="11pt" font-style="normal" font-weight="normal" text-decoration="normal" x="780.1144113583659" y="756.008058908818" text-anchor="start" dominant-baseline="alphabetic" xml:space="preserve">Backend</text></g><g><path fill="white" stroke="black" paint-order="fill stroke markers" d=" M 1130.183533716375 808.7707655678181 L 1130.183533716375 774.466838637818 L 1177.8823273523751 774.466838637818 L 1177.8823273523751 808.7707655678181" stroke-miterlimit="10" stroke-width="2.7769845610000004" stroke-dasharray=""/><path fill="white" stroke="black" paint-order="fill stroke markers" d=" M 1177.8823273523751 773.274368796918 L 1177.8811348924714 773.3821793418347 L 1177.8775576320054 773.4899791057866 L 1177.8715959287 773.5977573088874 L 1177.8632503787207 773.7055031734064 L 1177.8525218166155 773.8132059248471 L 1177.8394113152317 773.920854793024 L 1177.8239201856084 774.0284390131401 L 1177.8060499768458 774.1359478268629 L 1177.7858024759498 774.2433704834007 L 1177.7631797076535 774.3506962405773 L 1177.7381839342152 774.4579143659065 L 1177.7108176551912 774.5650141376651 L 1177.6810836071866 774.6719848459652 L 1177.6489847635814 774.7788157938251 L 1177.6145243342332 774.8854962982389 L 1177.5777057651565 774.9920156912451 L 1177.5385327381773 775.0983633209934 L 1177.4970091705654 775.2045285528093 L 1177.4531392146434 775.3105007702579 L 1177.4069272573702 775.4162693762061 L 1177.3583779199028 775.5218237938813 L 1177.3074960571348 775.6271534679295 L 1177.2542867572097 775.7322478654713 L 1177.1987553410136 775.8370964771545 L 1177.1409073616417 775.9416888182054 L 1177.0807486038434 776.0460144294768 L 1177.0182850834447 776.1500628784946 L 1176.9535230467457 776.2538237605007 L 1176.8864689698955 776.3572866994934 L 1176.8171295582465 776.4604413492649 L 1176.745511745682 776.5632773944361 L 1176.6716226939234 776.6657845514884 L 1176.5954697918141 776.7679525697914 L 1176.5170606545814 776.8697712326284 L 1176.4364031230734 776.971230358218 L 1176.353505262976 777.0723198007321 L 1176.268375364006 777.1730294513109 L 1176.1810219390827 777.273349239073 L 1176.0914537234755 777.3732691321235 L 1175.9996796739313 777.4727791385561 L 1175.905708967779 777.5718693074533 L 1175.8095510020105 777.6705297298806 L 1175.7112153923422 777.768750539878 L 1175.6107119722535 777.8665219154466 L 1175.5080507920022 777.96383407953 L 1175.4032421176212 778.060677300993 L 1175.2962964298904 778.1570418955943 L 1175.1872244232895 778.2529182269545 L 1175.0760370049281 778.3482967075205 L 1174.9627452934556 778.4431677995237 L 1174.8473606179487 778.537522015934 L 1174.7298945167786 778.6313499214083 L 1174.6103587364578 778.7246421332343 L 1174.4887652304644 778.8173893222685 L 1174.365126158048 778.9095822138694 L 1174.2394538830126 779.0012115888245 L 1174.111760972481 779.0922682842728 L 1173.9820601956383 779.1827431946207 L 1173.8503645224532 779.2726272724524 L 1173.716687122384 779.361911529435 L 1173.581041363059 779.4505870372174 L 1173.4434408089412 779.5386449283225 L 1173.3038992199713 779.6260763970347 L 1173.162430550192 779.7128727002801 L 1173.0190489463523 779.7990251585004 L 1172.873768746493 779.8845251565217 L 1172.7266044785133 779.9693641444156 L 1172.577570858717 780.0535336383539 L 1172.4266827903423 780.1370252214573 L 1172.27395536207 780.2198305446371 L 1172.1194038465155 780.30194132743 L 1171.963043698702 780.3833493588262 L 1171.8048905545138 780.4640464980903 L 1171.6449602291336 780.5440246755757 L 1171.4832687154603 780.6232758935311 L 1171.319832182511 780.701792226901 L 1171.1546669738025 780.7795658241174 L 1170.9877896057183 780.8565889078855 L 1170.8192167658558 780.9328537759609 L 1170.6489653113586 781.0083528019204 L 1170.4770522672304 781.0830784359244 L 1170.3034948246325 781.1570232054718 L 1170.128310339164 781.2301797161472 L 1169.951516329128 781.3025406523603 L 1169.7731304737779 781.3740987780782 L 1169.5931706115507 781.4448469375477 L 1169.4116547382826 781.5147780560118 L 1169.2286010054097 781.583885140417 L 1169.0440277181526 781.6521612801124 L 1168.8579533336865 781.7195996475409 L 1168.6703964592946 781.7861934989221 L 1168.481375850508 781.8519361749262 L 1168.29091040923 781.9168211013405 L 1168.0990191818462 781.9808417897264 L 1167.9057213573194 782.0439918380683 L 1167.7110362652709 782.1062649314141 L 1167.5149833740477 782.1676548425064 L 1167.3175822887756 782.2281554324052 L 1167.1188527493985 782.2877606511018 L 1166.9188146287047 782.3464645381242 L 1166.7174879303398 782.4042612231325 L 1166.5148927868056 782.4611449265064 L 1166.311049457448 782.517109959923 L 1166.1059783264295 782.5721507269255 L 1165.899699900693 782.6262617234833 L 1165.6922348079086 782.6794375385415 L 1165.4836037944128 782.731672854563 L 1165.2738277231333 782.78296244806 L 1165.0629275715023 782.8333011901155 L 1164.8509244293593 782.8826840468975 L 1164.6378394968417 782.9311060801614 L 1164.4236940822652 782.9785624477443 L 1164.208509599993 783.0250484040488 L 1163.9923075682939 783.0705593005182 L 1163.7751096071906 783.1150905861007 L 1163.5569374362985 783.1586378077048 L 1163.337812872653 783.2011966106447 L 1163.1177578285278 783.2427627390756 L 1162.8967943092437 783.2833320364193 L 1162.6749444109687 783.3229004457797 L 1162.4522303185076 783.3614640103491 L 1162.2286743030843 783.3990188738029 L 1162.0042987201136 783.4355612806863 L 1161.7791260069673 783.4710875767889 L 1161.553178680729 783.5055942095107 L 1161.3264793359428 783.5390777282173 L 1161.0990506423543 783.5715347845847 L 1160.8709153426437 783.6029621329343 L 1160.6420962501502 783.6333566305574 L 1160.412616246593 783.6627152380295 L 1160.182498279781 783.6910350195145 L 1159.9517653613188 783.7183131430577 L 1159.7204405643065 783.7445468808696 L 1159.4885470210306 783.7697336095982 L 1159.2561079206525 783.7938708105917 L 1159.0231465068885 783.81695607015 L 1158.7896860756855 783.8389870797664 L 1158.5557499728925 783.8599616363584 L 1158.3213615919246 783.8798776424878 L 1158.0865443714247 783.8987331065705 L 1157.851321792919 783.9165261430758 L 1157.6157173784693 783.933254972715 L 1157.379754688321 783.9489179226189 L 1157.1434573185463 783.9635134265056 L 1156.9068488986852 783.977040024837 L 1156.6699530893827 783.9894963649646 L 1156.4327935800222 784.0008812012645 L 1156.195394086357 784.0111933952627 L 1155.9577783481386 784.0204319157484 L 1155.719970126743 784.0285958388773 L 1155.481993202794 784.0356843482638 L 1155.2438713737856 784.0416967350628 L 1155.0056284517023 784.0466323980409 L 1154.767288260638 784.0504908436357 L 1154.528874634413 784.0532716860058 L 1154.2904114141913 784.0549746470695 L 1154.0519224460961 784.0555995565319 L 1153.8134315788257 784.0551463519026 L 1153.5749626612678 784.0536150785019 L 1153.3365395401156 784.0510058894557 L 1153.0981860574825 784.0473190456808 L 1152.8599260485182 784.0425549158583 L 1152.621783339025 784.0367139763974 L 1152.3837817430751 784.0297968113872 L 1152.1459450606303 784.0218041125383 L 1151.9082970751604 784.0127366791141 L 1151.670861551266 784.0025954178502 L 1151.4336622323012 783.9913813428644 L 1151.1967228380008 783.9790955755549 L 1150.9600670621064 783.965739344488 L 1150.7237185699987 783.9513139852759 L 1150.4877009963297 783.9358209404423 L 1150.25203794266 783.9192617592789 L 1150.016752975099 783.90163809769 L 1149.781869621947 783.882951718027 L 1149.5474113713437 783.8632044889123 L 1149.3134016689187 783.8423983850525 L 1149.0798639154475 783.8205354870405 L 1148.8468214645104 783.7976179811479 L 1148.6142976201588 783.7736481591063 L 1148.382315634583 783.7486284178779 L 1148.1508987057882 783.7225612594158 L 1147.9200699752748 783.6954492904142 L 1147.6898525257232 783.6672952220476 L 1147.4602693786867 783.6381018696992 L 1147.2313434922885 783.6078721526799 L 1147.0030977589265 783.5766090939362 L 1146.7755550029838 783.5443158197481 L 1146.5487379785466 783.5109955594158 L 1146.322669367128 783.476651644938 L 1146.097371775401 783.4412875106771 L 1145.872867732937 783.4049066930172 L 1145.6491796899531 783.3675128300099 L 1145.4263300150672 783.3291096610101 L 1145.2043409930611 783.2897010263029 L 1144.9832348226519 783.2492908667188 L 1144.7630336142727 783.2078832232401 L 1144.5437593878603 783.1654822365966 L 1144.325434070655 783.1220921468519 L 1144.108079495007 783.0777172929785 L 1143.8917173961918 783.032362112425 L 1143.6763694102394 782.9860311406715 L 1143.462057071769 782.9387290107766 L 1143.248801811836 782.890460452914 L 1143.0366249557885 782.8412302938992 L 1142.8255477211353 782.791043456707 L 1142.615591215424 782.7399049599794 L 1142.40677643413 782.6878199175234 L 1142.1991242585577 782.6347935377999 L 1141.9926554537515 782.5808311234026 L 1141.78739066642 782.525938070528 L 1141.5833504228704 782.4701198684356 L 1141.3805551269575 782.4133820988993 L 1141.1790250580418 782.3557304356485 L 1140.978780368962 782.2971706438017 L 1140.7798410840205 782.2377085792891 L 1140.5822270969798 782.1773501882677 L 1140.3859581690738 782.1161015065263 L 1140.191053927032 782.053968658882 L 1139.997533861116 781.9909578585679 L 1139.8054173231712 781.9270754066114 L 1139.6147235246915 781.8623276912044 L 1139.4254715348975 781.7967211870647 L 1139.2376802788306 781.7302624547879 L 1139.05136853546 781.6629581401918 L 1138.8665549358045 781.5948149736519 L 1138.6832579610705 781.525839769428 L 1138.5014959408022 781.456039424983 L 1138.3212870510506 781.3854209202933 L 1138.1426493125543 781.3139913171505 L 1137.9656005889385 781.2417577584552 L 1137.7901585849277 781.1687274675032 L 1137.6163408445761 781.0949077472629 L 1137.4441647495132 781.0203059796446 L 1137.273647517205 780.944929624763 L 1137.1048061992324 780.8687862201906 L 1136.9376576795864 780.7918833802046 L 1136.77221867298 780.7142287950248 L 1136.608505723176 780.6358302300451 L 1136.4465352013326 780.5566955250567 L 1136.2863233043672 780.476832593464 L 1136.1278860533362 780.3962494214936 L 1135.9712392918325 780.3149540673958 L 1135.8163986844015 780.2329546606379 L 1135.6633797149752 780.1502594010925 L 1135.512197685323 780.0668765582167 L 1135.3628677135216 779.982814470225 L 1135.215404732444 779.8980815432564 L 1135.0698234882657 779.8126862505329 L 1134.926138538989 779.7266371315126 L 1134.78436425299 779.6399427910358 L 1134.6445148075784 779.5526118984641 L 1134.5066041875828 779.4646531868141 L 1134.3706461839497 779.3760754518837 L 1134.2366543923667 779.2868875513725 L 1134.104642211901 779.1970984039964 L 1133.9746228436607 779.106716988595 L 1133.8466092894741 779.0157523432348 L 1133.7206143505903 778.9242135643045 L 1133.5966506263978 778.8321098056056 L 1133.4747305131662 778.7394502774372 L 1133.3548662028047 778.646244245675 L 1133.2370696816447 778.5525010308445 L 1133.1213527292402 778.4582300071891 L 1133.0077269171902 778.3634406017325 L 1132.8962036079806 778.2681422933362 L 1132.78679395385 778.1723446117518 L 1132.6795088956724 778.0760571366676 L 1132.574359161864 777.9792894967508 L 1132.471355267311 777.8820513686846 L 1132.3705075123169 777.7843524762011 L 1132.2718259815726 777.686202589108 L 1132.1753205431498 777.5876115223122 L 1132.0810008475112 777.4885891348381 L 1131.9888763265483 777.3891453288421 L 1131.898956192636 777.289290048622 L 1131.811249437713 777.1890332796223 L 1131.7257648323819 777.0883850474366 L 1131.6425109250315 776.9873554168042 L 1131.5614960409837 776.885954490604 L 1131.4827282816589 776.784192408844 L 1131.4062155237675 776.6820793476477 L 1131.3319654185218 776.5796255182361 L 1131.25998539087 776.4768411659066 L 1131.1902826387554 776.3737365690091 L 1131.1228641323949 776.2703220379171 L 1131.0577366135828 776.1666079139976 L 1130.994906595017 776.0626045685767 L 1130.9343803596469 775.958322401902 L 1130.8761639600455 775.8537718421036 L 1130.820263217804 775.7489633441501 L 1130.7666837229506 775.6439073888039 L 1130.71543083339 775.5386144815733 L 1130.666509674368 775.433095151661 L 1130.6199251379603 775.3273599509122 L 1130.5756818825812 775.2214194527587 L 1130.5337843325199 775.1152842511623 L 1130.494236677496 775.0089649595545 L 1130.4570428722425 774.902472209776 L 1130.4222066361085 774.7958166510128 L 1130.389731452689 774.6890089487323 L 1130.3596205694748 774.5820597836154 L 1130.3318769975297 774.4749798504895 L 1130.3065035111872 774.3677798572587 L 1130.2835026477753 774.2604705238331 L 1130.2628767073609 774.1530625810566 L 1130.2446277525207 774.0455667696339 L 1130.2287576081353 773.9379938390566 L 1130.2152678612058 773.830354546528 L 1130.2041598606957 773.7226596558879 L 1130.1954347173955 773.6149199365354 L 1130.1890933038126 773.5071461623528 L 1130.1851362540829 773.3993491106276 L 1130.1835639639082 773.2915395609751 L 1130.1843765905162 773.1837282942606 L 1130.1875740526448 773.0759260915208 L 1130.1931560305504 772.9681437328862 L 1130.20112196604 772.8603919965028 L 1130.211471062527 772.7526816574544 L 1130.2242022851096 772.6450234866853 L 1130.2393143606769 772.5374282499228 L 1130.2568057780334 772.4299067066008 L 1130.276674788052 772.3224696087841 L 1130.298919403849 772.215127700093 L 1130.3235374009803 772.107891714629 L 1130.3505263176673 772.000772375901 L 1130.3798834550407 771.8937803957539 L 1130.4116058774111 771.7869264732963 L 1130.445690412563 771.6802212938316 L 1130.482133652071 771.5736755277887 L 1130.5209319516418 771.4672998296555 L 1130.5620814314775 771.3611048369132 L 1130.6055779766646 771.2551011689725 L 1130.6514172375846 771.1492994261118 L 1130.6995946303498 771.0437101884174 L 1130.750105337261 770.938344014725 L 1130.8029443072896 770.833211441564 L 1130.8581062565827 770.7283229821044 L 1130.9155856689913 770.6236891251044 L 1130.9753767966222 770.5193203338629 L 1131.0374736604122 770.4152270451716 L 1131.1018700507266 770.3114196682731 L 1131.1685595279803 770.2079085838182 L 1131.237535423281 770.1047041428293 L 1131.308790839097 770.0018166656644 L 1131.3823186499455 769.8992564409855 L 1131.4581115031071 769.7970337247295 L 1131.5361618193597 769.6951587390831 L 1131.6164617937363 769.5936416714599 L 1131.6990033963068 769.4924926734818 L 1131.7837783729797 769.3917218599646 L 1131.8707782463275 769.2913393079056 L 1131.959994316436 769.1913550554762 L 1132.051417661772 769.0917791010185 L 1132.1450391400774 768.9926214020448 L 1132.2408493892826 768.8938918742426 L 1132.3388388284422 768.7956003904823 L 1132.438997658694 768.6977567798303 L 1132.5413158642384 768.6003708265662 L 1132.6457832133403 768.5034522692041 L 1132.7523892593517 768.4070107995191 L 1132.861123341757 768.3110560615777 L 1132.9719745872385 768.2155976507737 L 1133.0849319107638 768.1206451128687 L 1133.1999840166948 768.0262079430374 L 1133.317119399917 767.932295584918 L 1133.4363263469895 767.8389174296681 L 1133.557592937317 767.7460828150254 L 1133.6809070443412 767.653801024374 L 1133.8062563367548 767.562081285816 L 1133.9336282797324 767.470932771249 L 1134.0630101361862 767.3803645954483 L 1134.1943889680383 767.2903858151561 L 1134.327751637515 767.2010054281754 L 1134.4630848084603 767.1122323724707 L 1134.6003749476702 767.024075525273 L 1134.739608326245 766.9365437021942 L 1134.8807710209628 766.8496456563432 L 1135.023848915672 766.7633900774523 L 1135.1688277027022 766.6777855910077 L 1135.3156928842955 766.5928407573865 L 1135.464429774056 766.5085640710013 L 1135.615023498419 766.4249639594506 L 1135.7674589981373 766.3420487826756 L 1135.9217210297882 766.2598268321254 L 1136.0777941672968 766.1783063299262 L 1136.2356628034797 766.0974954280603 L 1136.3953111516046 766.0174022075505 L 1136.5567232469698 765.9380346776522 L 1136.7198829485 765.8594007750522 L 1136.8847739403618 765.7815083630754 L 1137.0513797335927 765.7043652308979 L 1137.2196836677524 765.6279790927687 L 1137.3896689125877 765.5523575872379 L 1137.561318469716 765.4775082763931 L 1137.7346151743243 765.4034386451029 L 1137.909541696887 765.3301561002689 L 1138.086080544897 765.2576679700844 L 1138.2642140646171 765.1859815033021 L 1138.4439244428436 765.1151038685088 L 1138.6251937086886 765.0450421534089 L 1138.8080037353764 764.9758033641157 L 1138.9923362420566 764.9073944244502 L 1139.1781727956322 764.8398221752497 L 1139.3654948126027 764.7730933736824 L 1139.5542835609228 764.7072146925732 L 1139.7445201618746 764.642192719735 L 1139.9361855919567 764.5780339573113 L 1140.1292606847858 764.5147448211244 L 1140.3237261330135 764.4523316400355 L 1140.519562490257 764.3908006553106 L 1140.716750173044 764.330158019997 L 1140.91526946277 764.2704097983076 L 1141.115100507672 764.2115619650147 L 1141.316223324812 764.1536204048527 L 1141.5186178020756 764.0965909119293 L 1141.7222637001837 764.0404791891464 L 1141.9271406547166 763.9852908476292 L 1142.1332281781492 763.9310314061662 L 1142.3405056619013 763.8777062906561 L 1142.5489523783967 763.8253208335661 L 1142.7585474831378 763.7738802733984 L 1142.9692700167889 763.7233897541659 L 1143.181098907272 763.6738543248784 L 1143.3940129718744 763.6252789390379 L 1143.6079909193675 763.5776684541423 L 1143.8230113521347 763.5310276312003 L 1144.0390527683119 763.4853611342556 L 1144.2560935639376 763.4406735299196 L 1144.4741120351127 763.3969692869156 L 1144.6930863801724 763.3542527756315 L 1144.9129947018641 763.3125282676826 L 1145.1338150095394 763.2717999354853 L 1145.355525221351 763.2320718518387 L 1145.5781031664628 763.1933479895181 L 1145.801526587266 763.1556322208772 L 1146.025773141604 763.1189283174618 L 1146.250820405009 763.0832399496315 L 1146.4766458729418 763.0485706861934 L 1146.7032269630438 763.0149239940448 L 1146.930541017395 762.9823032378271 L 1147.1585653047791 762.9507116795885 L 1147.3872770229575 762.9201524784586 L 1147.616653300949 762.8906286903322 L 1147.8466712013171 762.8621432675633 L 1148.0773077224633 762.8346990586705 L 1148.3085398009277 762.8082988080517 L 1148.5403443136952 762.7829451557103 L 1148.7726980805076 762.7586406369901 L 1149.0055778661817 762.7353876823228 L 1149.2389603829333 762.7131886169846 L 1149.472822292705 762.6920456608633 L 1149.7071402095007 762.6719609282371 L 1149.9418907017243 762.6529364275625 L 1150.177050294522 762.6349740612736 L 1150.4125954721303 762.6180756255922 L 1150.648502680228 762.6022428103477 L 1150.8847483282907 762.5874771988084 L 1151.1213087919505 762.5737802675231 L 1151.3581604153583 762.5611533861738 L 1151.5952795135488 762.5495978174379 L 1151.8326423748103 762.5391147168626 L 1152.070225263054 762.5297051327493 L 1152.3080044201895 762.5213700060486 L 1152.5459560684988 762.5141101702662 L 1152.7840564130156 762.5079263513795 L 1153.0222816439036 762.5028191677656 L 1153.2606079388386 762.4987891301381 L 1153.4990114653897 762.4958366414977 L 1153.7374683834025 762.4939619970909 L 1153.9759548473844 762.4931653843803 L 1154.2144470088874 762.4934468830266 L 1154.4529210188944 762.4948064648804 L 1154.6913530302027 762.4972439939843 L 1154.92971919981 762.5007592265877 L 1155.1679956912985 762.5053518111702 L 1155.4061586772168 762.511021288477 L 1155.6441843414655 762.5177670915652 L 1155.882048881676 762.5255885458602 L 1156.1197285115927 762.534484869223 L 1156.3571994634506 762.5444551720286 L 1156.5944379903526 762.5554984572553 L 1156.8314203686436 762.5676136205835 L 1157.0681229002832 762.5807994505071 L 1157.3045219152154 762.595054628454 L 1157.540593773736 762.6103777289185 L 1157.7763148688557 762.626767219603 L 1158.0116616286614 762.6442214615724 L 1158.2466105186732 762.6627387094169 L 1158.4811380441981 762.682317111427 L 1158.7152207526788 762.7029547097791 L 1158.9488352360395 762.7246494407304 L 1159.1819581330267 762.7473991348259 L 1159.4145661315447 762.7712015171152 L 1159.6466359709877 762.7960542073798 L 1159.8781444445654 762.8219547203715 L 1160.1090684016226 762.8489004660605 L 1160.339384749957 762.8768887498949 L 1160.5690704581248 762.9059167730693 L 1160.7981025577471 762.9359816328057 L 1161.0264581458048 762.9670803226433 L 1161.2541143869294 762.9992097327389 L 1161.481048515686 763.0323666501783 L 1161.7072378388516 763.0665477592976 L 1161.9326597376817 763.1017496420139 L 1162.1572916701748 763.1379687781687 L 1162.3811111733244 763.1752015458784 L 1162.6040958653668 763.2134442218971 L 1162.826223448019 763.2526929819894 L 1163.0474717087075 763.2929439013118 L 1163.2678185227905 763.3341929548059 L 1163.4872418557704 763.3764360176008 L 1163.705719765497 763.4196688654253 L 1163.9232304043608 763.4638871750308 L 1164.1397520214796 763.5090865246231 L 1164.355262964872 763.5552623943048 L 1164.5697416836233 763.6024101665276 L 1164.7831667300402 763.6505251265536 L 1164.9955167617961 763.6996024629267 L 1165.2067705440647 763.7496372679543 L 1165.416906951644 763.8006245381976 L 1165.6259049710682 763.8525591749719 L 1165.8337437027092 763.9054359848569 L 1166.0404023628676 763.9592496802157 L 1166.2458602858492 764.0139948797238 L 1166.4500969260332 764.0696661089064 L 1166.6530918599256 764.1262578006874 L 1166.8548247882022 764.1837642959446 L 1167.0552755377382 764.2421798440763 L 1167.254424063626 764.3014986035766 L 1167.4522504511785 764.3617146426188 L 1167.6487349179222 764.4228219396493 L 1167.8438578155738 764.4848143839893 L 1168.0375996320065 764.547685776446 L 1168.2299409932 764.6114298299324 L 1168.4208626651784 764.6760401700965 L 1168.6103455559337 764.741510335958 L 1168.7983707173346 764.8078337805549 L 1168.9849193470216 764.875003871598 L 1169.1699727902874 764.9430138921342 L 1169.3535125419417 765.0118570412181 L 1169.5355202481624 765.0815264345922 L 1169.7159777083302 765.1520151053752 L 1169.89486687685 765.2233160047588 L 1170.072169864954 765.2954220027123 L 1170.2478689424906 765.3683258886962 L 1170.421946539699 765.4420203723826 L 1170.5943852489643 765.5164980843844 L 1170.7651678265593 765.5917515769926 L 1170.9342771943686 765.6677733249206 L 1171.1016964415962 765.7445557260571 L 1171.267408826457 765.8220911022258 L 1171.4313977778509 765.9003716999539 L 1171.5936468970187 765.9793896912466 L 1171.7541399591844 766.0591371743707 L 1171.912860915175 766.1396061746444 L 1172.0697938930277 766.2207886452348 L 1172.2249231995752 766.3026764679623 L 1172.3782333220158 766.3852614541131 L 1172.5297089294656 766.4685353452571 L 1172.6793348744898 766.5524898140749 L 1172.8270961946187 766.6371164651894 L 1172.972978113843 766.722406836006 L 1173.116966044093 766.8083523975588 L 1173.2590455866953 766.8949445553632 L 1173.3992025338139 766.9821746502755 L 1173.537422869871 767.0700339593591 L 1173.6736927729485 767.1585136967561 L 1173.8079986161692 767.2476050145667 L 1173.940326969061 767.3372990037332 L 1174.0706645988987 767.4275866949314 L 1174.198998472028 767.5184590594675 L 1174.3253157551687 767.6099070101809 L 1174.4496038166974 767.7019214023526 L 1174.571850227912 767.7944930346199 L 1174.6920427642726 767.887612649897 L 1174.810169406626 767.9812709362999 L 1174.9262183424069 768.0754585280779 L 1175.0401779668177 768.1701660065503 L 1175.1520368839913 768.2653839010484 L 1175.2617839081292 768.3611026898618 L 1175.3694080646203 768.4573128011916 L 1175.4748985911388 768.5540046141068 L 1175.57824493872 768.6511684595066 L 1175.6794367728148 768.7487946210875 L 1175.7784639743247 768.8468733363147 L 1175.8753166406118 768.9453947973984 L 1175.9699850864902 769.0443491522745 L 1176.062459845194 769.1437265055902 L 1176.1527316693248 769.2435169196928 L 1176.2407915317751 769.3437104156241 L 1176.3266306266323 769.444296974118 L 1176.410240370058 769.5452665366023 L 1176.4916124011481 769.6466090062053 L 1176.570738582767 769.748314248764 L 1176.6476110023625 769.8503720938393 L 1176.7222219727566 769.9527723357315 L 1176.7945640329146 770.0555047345019 L 1176.864629948691 770.1585590169963 L 1176.932412713552 770.2619248778719 L 1176.997905549278 770.3655919806292 L 1177.0611019066398 770.4695499586442 L 1177.1219954660544 770.5737884162056 L 1177.180580138217 770.6782969295547 L 1177.2368500647085 770.783065047927 L 1177.2907996185838 770.8880822945982 L 1177.3424234049319 770.9933381679311 L 1177.3917162614177 771.098822142426 L 1177.4386732587961 771.2045236697735 L 1177.483289701407 771.3104321799087 L 1177.5255611276432 771.416537082069 L 1177.565483310397 771.5228277658528 L 1177.6030522574836 771.6292936022799 L 1177.6382642120398 771.7359239448556 L 1177.671115652899 771.8427081306345 L 1177.7016032949448 771.9496354812869 L 1177.7297240894386 772.056695304167 L 1177.755475224324 772.1638768933817 L 1177.778854124509 772.2711695308612 L 1177.7998584521235 772.3785624874314 L 1177.8184861067516 772.486045023886 L 1177.834735225644 772.5936063920611 L 1177.848604183902 772.7012358359093 L 1177.860091594641 772.808922592576 L 1177.8691963091303 772.9166558934753 L 1177.8759174169054 773.0244249653667 L 1177.8802542458616 773.1322190314331 L 1177.882206362319 773.2400273123576 M 1177.8823273523751 807.5782957269181 L 1177.8811348924714 807.6861062718348 L 1177.8775576320054 807.7939060357867 L 1177.8715959287 807.9016842388875 L 1177.8632503787207 808.0094301034065 L 1177.8525218166155 808.1171328548472 L 1177.8394113152317 808.2247817230241 L 1177.8239201856084 808.3323659431402 L 1177.8060499768458 808.439874756863 L 1177.7858024759498 808.5472974134008 L 1177.7631797076535 808.6546231705775 L 1177.7381839342152 808.7618412959066 L 1177.7108176551912 808.8689410676652 L 1177.6810836071866 808.9759117759653 L 1177.6489847635814 809.0827427238252 L 1177.6145243342332 809.189423228239 L 1177.5777057651565 809.2959426212453 L 1177.5385327381773 809.4022902509935 L 1177.4970091705654 809.5084554828094 L 1177.4531392146434 809.614427700258 L 1177.4069272573702 809.7201963062062 L 1177.3583779199028 809.8257507238814 L 1177.3074960571348 809.9310803979296 L 1177.2542867572097 810.0361747954714 L 1177.1987553410136 810.1410234071546 L 1177.1409073616417 810.2456157482055 L 1177.0807486038434 810.3499413594769 L 1177.0182850834447 810.4539898084947 L 1176.9535230467457 810.5577506905008 L 1176.8864689698955 810.6612136294935 L 1176.8171295582465 810.764368279265 L 1176.745511745682 810.8672043244362 L 1176.6716226939234 810.9697114814885 L 1176.5954697918141 811.0718794997915 L 1176.5170606545814 811.1736981626285 L 1176.4364031230734 811.2751572882181 L 1176.353505262976 811.3762467307322 L 1176.268375364006 811.476956381311 L 1176.1810219390827 811.5772761690731 L 1176.0914537234755 811.6771960621236 L 1175.9996796739313 811.7767060685562 L 1175.905708967779 811.8757962374534 L 1175.8095510020105 811.9744566598807 L 1175.7112153923422 812.0726774698782 L 1175.6107119722535 812.1704488454467 L 1175.5080507920022 812.2677610095301 L 1175.4032421176212 812.3646042309931 L 1175.2962964298904 812.4609688255944 L 1175.1872244232895 812.5568451569546 L 1175.0760370049281 812.6522236375206 L 1174.9627452934556 812.7470947295238 L 1174.8473606179487 812.8414489459341 L 1174.7298945167786 812.9352768514084 L 1174.6103587364578 813.0285690632344 L 1174.4887652304644 813.1213162522686 L 1174.365126158048 813.2135091438695 L 1174.2394538830126 813.3051385188246 L 1174.111760972481 813.3961952142729 L 1173.9820601956383 813.4866701246208 L 1173.8503645224532 813.5765542024525 L 1173.716687122384 813.6658384594351 L 1173.581041363059 813.7545139672175 L 1173.4434408089412 813.8425718583226 L 1173.3038992199713 813.9300033270348 L 1173.162430550192 814.0167996302802 L 1173.0190489463523 814.1029520885005 L 1172.873768746493 814.1884520865218 L 1172.7266044785133 814.2732910744157 L 1172.577570858717 814.357460568354 L 1172.4266827903423 814.4409521514574 L 1172.27395536207 814.5237574746373 L 1172.1194038465155 814.6058682574301 L 1171.963043698702 814.6872762888263 L 1171.8048905545138 814.7679734280904 L 1171.6449602291336 814.8479516055758 L 1171.4832687154603 814.9272028235312 L 1171.319832182511 815.0057191569011 L 1171.1546669738025 815.0834927541175 L 1170.9877896057183 815.1605158378856 L 1170.8192167658558 815.236780705961 L 1170.6489653113586 815.3122797319205 L 1170.4770522672304 815.3870053659246 L 1170.3034948246325 815.4609501354719 L 1170.128310339164 815.5341066461473 L 1169.951516329128 815.6064675823604 L 1169.7731304737779 815.6780257080783 L 1169.5931706115507 815.7487738675478 L 1169.4116547382826 815.8187049860119 L 1169.2286010054097 815.8878120704171 L 1169.0440277181526 815.9560882101125 L 1168.8579533336865 816.023526577541 L 1168.6703964592946 816.0901204289222 L 1168.481375850508 816.1558631049263 L 1168.29091040923 816.2207480313406 L 1168.0990191818462 816.2847687197265 L 1167.9057213573194 816.3479187680684 L 1167.7110362652709 816.4101918614142 L 1167.5149833740477 816.4715817725065 L 1167.3175822887756 816.5320823624053 L 1167.1188527493985 816.591687581102 L 1166.9188146287047 816.6503914681243 L 1166.7174879303398 816.7081881531326 L 1166.5148927868056 816.7650718565066 L 1166.311049457448 816.8210368899231 L 1166.1059783264295 816.8760776569256 L 1165.899699900693 816.9301886534834 L 1165.6922348079086 816.9833644685416 L 1165.4836037944128 817.0355997845631 L 1165.2738277231333 817.08688937806 L 1165.0629275715023 817.1372281201157 L 1164.8509244293593 817.1866109768976 L 1164.6378394968417 817.2350330101615 L 1164.4236940822652 817.2824893777444 L 1164.208509599993 817.3289753340489 L 1163.9923075682939 817.3744862305183 L 1163.7751096071906 817.4190175161008 L 1163.5569374362985 817.462564737705 L 1163.337812872653 817.5051235406448 L 1163.1177578285278 817.5466896690757 L 1162.8967943092437 817.5872589664194 L 1162.6749444109687 817.6268273757798 L 1162.4522303185076 817.6653909403492 L 1162.2286743030843 817.702945803803 L 1162.0042987201136 817.7394882106864 L 1161.7791260069673 817.775014506789 L 1161.553178680729 817.8095211395108 L 1161.3264793359428 817.8430046582175 L 1161.0990506423543 817.8754617145848 L 1160.8709153426437 817.9068890629344 L 1160.6420962501502 817.9372835605575 L 1160.412616246593 817.9666421680296 L 1160.182498279781 817.9949619495146 L 1159.9517653613188 818.0222400730578 L 1159.7204405643065 818.0484738108697 L 1159.4885470210306 818.0736605395983 L 1159.2561079206525 818.0977977405918 L 1159.0231465068885 818.1208830001501 L 1158.7896860756855 818.1429140097665 L 1158.5557499728925 818.1638885663585 L 1158.3213615919246 818.1838045724879 L 1158.0865443714247 818.2026600365706 L 1157.851321792919 818.2204530730759 L 1157.6157173784693 818.2371819027151 L 1157.379754688321 818.252844852619 L 1157.1434573185463 818.2674403565057 L 1156.9068488986852 818.2809669548371 L 1156.6699530893827 818.2934232949647 L 1156.4327935800222 818.3048081312646 L 1156.195394086357 818.3151203252628 L 1155.9577783481386 818.3243588457485 L 1155.719970126743 818.3325227688774 L 1155.481993202794 818.3396112782639 L 1155.2438713737856 818.3456236650629 L 1155.0056284517023 818.350559328041 L 1154.767288260638 818.3544177736358 L 1154.528874634413 818.3571986160059 L 1154.2904114141913 818.3589015770696 L 1154.0519224460961 818.359526486532 L 1153.8134315788257 818.3590732819027 L 1153.5749626612678 818.357542008502 L 1153.3365395401156 818.3549328194558 L 1153.0981860574825 818.3512459756807 L 1152.8599260485182 818.3464818458584 L 1152.621783339025 818.3406409063975 L 1152.3837817430751 818.3337237413873 L 1152.1459450606303 818.3257310425385 L 1151.9082970751604 818.3166636091142 L 1151.670861551266 818.3065223478503 L 1151.4336622323012 818.2953082728645 L 1151.1967228380008 818.283022505555 L 1150.9600670621064 818.2696662744881 L 1150.7237185699987 818.255240915276 L 1150.4877009963297 818.2397478704424 L 1150.25203794266 818.223188689279 L 1150.016752975099 818.2055650276901 L 1149.781869621947 818.1868786480271 L 1149.5474113713437 818.1671314189124 L 1149.3134016689187 818.1463253150526 L 1149.0798639154475 818.1244624170406 L 1148.8468214645104 818.101544911148 L 1148.6142976201588 818.0775750891064 L 1148.382315634583 818.052555347878 L 1148.1508987057882 818.0264881894159 L 1147.9200699752748 817.9993762204143 L 1147.6898525257232 817.9712221520477 L 1147.4602693786867 817.9420287996993 L 1147.2313434922885 817.91179908268 L 1147.0030977589265 817.8805360239363 L 1146.7755550029838 817.8482427497482 L 1146.5487379785466 817.814922489416 L 1146.322669367128 817.7805785749381 L 1146.097371775401 817.7452144406772 L 1145.872867732937 817.7088336230173 L 1145.6491796899531 817.67143976001 L 1145.4263300150672 817.6330365910102 L 1145.2043409930611 817.593627956303 L 1144.9832348226519 817.5532177967189 L 1144.7630336142727 817.5118101532402 L 1144.5437593878603 817.4694091665967 L 1144.325434070655 817.426019076852 L 1144.108079495007 817.3816442229786 L 1143.8917173961918 817.336289042425 L 1143.6763694102394 817.2899580706716 L 1143.462057071769 817.2426559407767 L 1143.248801811836 817.1943873829141 L 1143.0366249557885 817.1451572238993 L 1142.8255477211353 817.0949703867071 L 1142.615591215424 817.0438318899795 L 1142.40677643413 816.9917468475235 L 1142.1991242585577 816.9387204678 L 1141.9926554537515 816.8847580534027 L 1141.78739066642 816.8298650005281 L 1141.5833504228704 816.7740467984357 L 1141.3805551269575 816.7173090288994 L 1141.1790250580418 816.6596573656486 L 1140.978780368962 816.6010975738018 L 1140.7798410840205 816.5416355092892 L 1140.5822270969798 816.4812771182678 L 1140.3859581690738 816.4200284365264 L 1140.191053927032 816.3578955888821 L 1139.997533861116 816.294884788568 L 1139.8054173231712 816.2310023366115 L 1139.6147235246915 816.1662546212045 L 1139.4254715348975 816.1006481170648 L 1139.2376802788306 816.034189384788 L 1139.05136853546 815.9668850701919 L 1138.8665549358045 815.898741903652 L 1138.6832579610705 815.8297666994281 L 1138.5014959408022 815.7599663549831 L 1138.3212870510506 815.6893478502934 L 1138.1426493125543 815.6179182471506 L 1137.9656005889385 815.5456846884553 L 1137.7901585849277 815.4726543975033 L 1137.6163408445761 815.398834677263 L 1137.4441647495132 815.3242329096447 L 1137.273647517205 815.248856554763 L 1137.1048061992324 815.1727131501907 L 1136.9376576795864 815.0958103102047 L 1136.77221867298 815.0181557250249 L 1136.608505723176 814.9397571600452 L 1136.4465352013326 814.8606224550568 L 1136.2863233043672 814.7807595234641 L 1136.1278860533362 814.7001763514937 L 1135.9712392918325 814.6188809973959 L 1135.8163986844015 814.536881590638 L 1135.6633797149752 814.4541863310926 L 1135.512197685323 814.3708034882168 L 1135.3628677135216 814.2867414002251 L 1135.215404732444 814.2020084732565 L 1135.0698234882657 814.116613180533 L 1134.926138538989 814.0305640615127 L 1134.78436425299 813.9438697210359 L 1134.6445148075784 813.8565388284642 L 1134.5066041875828 813.7685801168142 L 1134.3706461839497 813.6800023818838 L 1134.2366543923667 813.5908144813726 L 1134.104642211901 813.5010253339965 L 1133.9746228436607 813.4106439185952 L 1133.8466092894741 813.3196792732349 L 1133.7206143505903 813.2281404943046 L 1133.5966506263978 813.1360367356057 L 1133.4747305131662 813.0433772074373 L 1133.3548662028047 812.9501711756751 L 1133.2370696816447 812.8564279608446 L 1133.1213527292402 812.7621569371892 L 1133.0077269171902 812.6673675317326 L 1132.8962036079806 812.5720692233363 L 1132.78679395385 812.4762715417519 L 1132.6795088956724 812.3799840666677 L 1132.574359161864 812.2832164267509 L 1132.471355267311 812.1859782986847 L 1132.3705075123169 812.0882794062012 L 1132.2718259815726 811.9901295191081 L 1132.1753205431498 811.8915384523123 L 1132.0810008475112 811.7925160648382 L 1131.9888763265483 811.6930722588422 L 1131.898956192636 811.5932169786221 L 1131.811249437713 811.4929602096224 L 1131.7257648323819 811.3923119774367 L 1131.6425109250315 811.2912823468043 L 1131.5614960409837 811.1898814206041 L 1131.4827282816589 811.0881193388441 L 1131.4062155237675 810.9860062776478 L 1131.3319654185218 810.8835524482362 L 1131.25998539087 810.7807680959068 L 1131.1902826387554 810.6776634990092 L 1131.1228641323949 810.5742489679172 L 1131.0577366135828 810.4705348439977 L 1130.994906595017 810.3665314985768 L 1130.9343803596469 810.2622493319021 L 1130.8761639600455 810.1576987721037 L 1130.820263217804 810.0528902741502 L 1130.7666837229506 809.947834318804 L 1130.71543083339 809.8425414115734 L 1130.666509674368 809.737022081661 L 1130.6199251379603 809.6312868809123 L 1130.5756818825812 809.5253463827588 L 1130.5337843325199 809.4192111811624 L 1130.494236677496 809.3128918895546 L 1130.4570428722425 809.2063991397761 L 1130.4222066361085 809.099743581013 L 1130.389731452689 808.9929358787324 L 1130.3596205694748 808.8859867136155 L 1130.3318769975297 808.7789067804896 L 1130.3065035111872 808.6717067872588 L 1130.2835026477753 808.5643974538332 L 1130.2628767073609 808.4569895110567 L 1130.2446277525207 808.349493699634 L 1130.2287576081353 808.2419207690567 L 1130.2152678612058 808.1342814765281 L 1130.2041598606957 808.026586585888 L 1130.1954347173955 807.9188468665355 L 1130.1890933038126 807.8110730923529 L 1130.1851362540829 807.7032760406277 L 1130.1835639639082 807.5954664909752" stroke-miterlimit="10" stroke-width="2.7769845610000004" stroke-dasharray=""/></g><g><g/><text fill="black" stroke="none" font-family="sans-serif" font-size="11pt" font-style="normal" font-weight="normal" text-decoration="normal" x="1122.654985588086" y="756.008058908818" text-anchor="start" dominant-baseline="alphabetic" xml:space="preserve">Database</text></g></g><g><path fill="white" stroke="black" paint-order="fill stroke markers" d=" M 73.50841485 182.64242307881818 L 89.84361814999998 182.64242307881818 L 89.84361814999998 682.499644058818 L 73.50841485 682.499644058818 L 73.50841485 182.64242307881818" stroke-miterlimit="10" stroke-width="1.3612669416666667" stroke-dasharray=""/><path fill="white" stroke="black" paint-order="fill stroke markers" d=" M 352.63816907239584 182.64242307881818 L 368.97337237239583 182.64242307881818 L 368.97337237239583 682.499644058818 L 352.63816907239584 682.499644058818 L 352.63816907239584 182.64242307881818" stroke-miterlimit="10" stroke-width="1.3612669416666667" stroke-dasharray=""/><path fill="white" stroke="black" paint-order="fill stroke markers" d=" M 800.4722079627604 228.3809923188182 L 816.8074112627605 228.3809923188182 L 816.8074112627605 682.499644058818 L 800.4722079627604 682.499644058818 L 800.4722079627604 228.3809923188182" stroke-miterlimit="10" stroke-width="1.3612669416666667" stroke-dasharray=""/><path fill="white" stroke="black" paint-order="fill stroke markers" d=" M 1145.865328884375 295.3553258488182 L 1162.200532184375 295.3553258488182 L 1162.200532184375 386.8324643288182 L 1145.865328884375 386.8324643288182 L 1145.865328884375 295.3553258488182" stroke-miterlimit="10" stroke-width="1.3612669416666667" stroke-dasharray=""/><g><text fill="black" stroke="none" font-family="sans-serif" font-size="16pt" font-style="normal" font-weight="normal" text-decoration="normal" x="488.5066604614258" y="24.651306798181814" text-anchor="start" dominant-baseline="alphabetic" xml:space="preserve">Xemdanhschthitb</text></g><g><rect fill="white" stroke="none" x="109.17360872166667" y="161.4066587888182" width="224.1345697790625" height="21.23576429"/><text fill="black" stroke="none" font-family="sans-serif" font-size="11pt" font-style="normal" font-weight="normal" text-decoration="normal" x="111.62388921666667" y="176.10834175881817" text-anchor="start" dominant-baseline="alphabetic" xml:space="preserve">Chnmnhnhdanhschthitb</text></g><g><path fill="none" stroke="black" paint-order="fill stroke markers" d=" M 89.84361814999998 182.64242307881818 L 339.1888516887292 182.64242307881818" stroke-miterlimit="10" stroke-width="1.3612669416666667" stroke-dasharray=""/><g transform="translate(352.63816907239584,182.64242307881818) translate(-352.63816907239584,-182.64242307881818)"><path fill="black" stroke="none" paint-order="stroke fill markers" d=" M 339.02549965572916 175.83608837048484 L 352.63816907239584 182.64242307881818 L 339.02549965572916 189.44875778715152 Z"/></g></g><g><rect fill="white" stroke="none" x="388.3033629440624" y="207.1452280288182" width="392.8388544470312" height="21.23576429"/><text fill="black" stroke="none" font-family="sans-serif" font-size="11pt" font-style="normal" font-weight="normal" text-decoration="normal" x="390.75364343906244" y="221.84691099881817" text-anchor="start" dominant-baseline="alphabetic" xml:space="preserve">Giyuculydanhschthitb(baogmblc,nuc)</text></g><g><path fill="none" stroke="black" paint-order="fill stroke markers" d=" M 368.97337237239583 228.3809923188182 L 787.0228905790938 228.3809923188182" stroke-miterlimit="10" stroke-width="1.3612669416666667" stroke-dasharray=""/><g transform="translate(800.4722079627604,228.3809923188182) translate(-800.4722079627604,-228.3809923188182)"><path fill="black" stroke="none" paint-order="stroke fill markers" d=" M 786.8595385460937 221.57465761048485 L 800.4722079627604 228.3809923188182 L 786.8595385460937 235.18732702715153 Z"/></g></g><g><rect fill="white" stroke="none" x="836.1374018344272" y="252.88379726881823" width="103.49751533570313" height="21.23576429"/><text fill="black" stroke="none" font-family="sans-serif" font-size="11pt" font-style="normal" font-weight="normal" text-decoration="normal" x="838.5876823294273" y="267.5854802388182" text-anchor="start" dominant-baseline="alphabetic" xml:space="preserve">Kimtraquyn</text></g><g><path fill="none" stroke="black" paint-order="fill stroke markers" d=" M 816.8074112627605 274.1195615588182 L 882.1482244627605 274.1195615588182 L 882.1482244627605 295.3553258488182 L 830.2567286464272 295.3553258488182" stroke-miterlimit="10" stroke-width="1.3612669416666667" stroke-dasharray=""/><g transform="translate(816.8074112627605,295.3553258488182) translate(-816.8074112627605,-295.3553258488182)"><path fill="black" stroke="none" paint-order="stroke fill markers" d=" M 830.4200806794272 288.5489911404849 L 816.8074112627605 295.3553258488182 L 830.4200806794272 302.16166055715155 Z"/></g></g><g><rect fill="white" stroke="none" x="836.1374018344271" y="319.8581307988182" width="290.3979364782812" height="21.23576429"/><text fill="black" stroke="none" font-family="sans-serif" font-size="11pt" font-style="normal" font-weight="normal" text-decoration="normal" x="838.5876823294271" y="334.5598137688182" text-anchor="start" dominant-baseline="alphabetic" xml:space="preserve">Truyvndanhschthitb(pdngblc)</text></g><g><path fill="none" stroke="black" paint-order="fill stroke markers" d=" M 816.8074112627605 341.0938950888182 L 1132.4160115007082 341.0938950888182" stroke-miterlimit="10" stroke-width="1.3612669416666667" stroke-dasharray=""/><g transform="translate(1145.865328884375,341.0938950888182) translate(-1145.865328884375,-341.0938950888182)"><path fill="black" stroke="none" paint-order="stroke fill markers" d=" M 1132.2526594677083 334.2875603804849 L 1145.865328884375 341.0938950888182 L 1132.2526594677083 347.90022979715155 Z"/></g></g><g><rect fill="white" stroke="none" x="898.889698282181" y="365.5967000388182" width="164.89334358277344" height="21.23576429"/><text fill="black" stroke="none" font-family="sans-serif" font-size="11pt" font-style="normal" font-weight="normal" text-decoration="normal" x="901.339978777181" y="380.2983830088182" text-anchor="start" dominant-baseline="alphabetic" xml:space="preserve">Trvdanhschthitb</text></g><g><path fill="none" stroke="black" paint-order="fill stroke markers" d=" M 1145.865328884375 386.8324643288182 L 830.2567286464272 386.8324643288182" stroke-miterlimit="10" stroke-width="1.3612669416666667" stroke-dasharray="6.53408132"/><g transform="translate(816.8074112627605,386.8324643288182) translate(-816.8074112627605,-386.8324643288182)"><path fill="black" stroke="none" paint-order="stroke fill markers" d=" M 830.4200806794272 380.0261296204849 L 816.8074112627605 386.8324643288182 L 830.4200806794272 393.63879903715156 Z"/></g></g><g><rect fill="white" stroke="none" x="510.5402480148632" y="455.4403181888182" width="148.3650843054297" height="21.23576429"/><text fill="black" stroke="none" font-family="sans-serif" font-size="11pt" font-style="normal" font-weight="normal" text-decoration="normal" x="512.9905285098632" y="470.1420011588182" text-anchor="start" dominant-baseline="alphabetic" xml:space="preserve">Gidanhschthitb</text></g><g><path fill="none" stroke="black" paint-order="fill stroke markers" d=" M 800.4722079627604 476.6760824788182 L 382.4226897560625 476.6760824788182" stroke-miterlimit="10" stroke-width="1.3612669416666667" stroke-dasharray="6.53408132"/><g transform="translate(368.97337237239583,476.6760824788182) translate(-368.97337237239583,-476.6760824788182)"><path fill="black" stroke="none" paint-order="stroke fill markers" d=" M 382.5860417890625 469.8697477704849 L 368.97337237239583 476.6760824788182 L 382.5860417890625 483.48241718715155 Z"/></g></g><g><rect fill="white" stroke="none" x="134.44204133885418" y="501.17888742881814" width="173.5977045446875" height="21.23576429"/><text fill="black" stroke="none" font-family="sans-serif" font-size="11pt" font-style="normal" font-weight="normal" text-decoration="normal" x="136.89232183385417" y="515.8805703988181" text-anchor="start" dominant-baseline="alphabetic" xml:space="preserve">Hinthdanhschthitb</text></g><g><path fill="none" stroke="black" paint-order="fill stroke markers" d=" M 352.63816907239584 522.4146517188182 L 103.29293553366665 522.4146517188182" stroke-miterlimit="10" stroke-width="1.3612669416666667" stroke-dasharray="6.53408132"/><g transform="translate(89.84361814999998,522.4146517188182) translate(-89.84361814999998,-522.4146517188182)"><path fill="black" stroke="none" paint-order="stroke fill markers" d=" M 103.45628756666665 515.6083170104848 L 89.84361814999998 522.4146517188182 L 103.45628756666665 529.2209864271515 Z"/></g></g><g><rect fill="white" stroke="none" x="494.65263662570305" y="591.022505578818" width="180.14030708375" height="21.23576429"/><text fill="black" stroke="none" font-family="sans-serif" font-size="11pt" font-style="normal" font-weight="normal" text-decoration="normal" x="497.10291712070307" y="605.724188548818" text-anchor="start" dominant-baseline="alphabetic" xml:space="preserve">Thngbodanhschrng</text></g><g><path fill="none" stroke="black" paint-order="fill stroke markers" d=" M 800.4722079627604 612.258269868818 L 382.4226897560625 612.258269868818" stroke-miterlimit="10" stroke-width="1.3612669416666667" stroke-dasharray="6.53408132"/><g transform="translate(368.97337237239583,612.258269868818) translate(-368.97337237239583,-612.258269868818)"><path fill="black" stroke="none" paint-order="stroke fill markers" d=" M 382.5860417890625 605.4519351604847 L 368.97337237239583 612.258269868818 L 382.5860417890625 619.0646045771514 Z"/></g></g><g><rect fill="white" stroke="none" x="156.8507632626823" y="636.761074818818" width="128.78026069703125" height="21.23576429"/><text fill="black" stroke="none" font-family="sans-serif" font-size="11pt" font-style="normal" font-weight="normal" text-decoration="normal" x="159.3010437576823" y="651.462757788818" text-anchor="start" dominant-baseline="alphabetic" xml:space="preserve">Hinthbngtrng</text></g><g><path fill="none" stroke="black" paint-order="fill stroke markers" d=" M 352.63816907239584 657.996839108818 L 103.29293553366665 657.996839108818" stroke-miterlimit="10" stroke-width="1.3612669416666667" stroke-dasharray="6.53408132"/><g transform="translate(89.84361814999998,657.996839108818) translate(-89.84361814999998,-657.996839108818)"><path fill="black" stroke="none" paint-order="stroke fill markers" d=" M 103.45628756666665 651.1905044004847 L 89.84361814999998 657.996839108818 L 103.45628756666665 664.8031738171513 Z"/></g></g><g><g/><path fill="none" stroke="black" paint-order="fill stroke markers" d=" M 16.33520329999999 411.3352692788182 L 865.8130211627605 411.3352692788182 L 865.8130211627605 682.499644058818 L 16.33520329999999 682.499644058818 L 16.33520329999999 411.3352692788182 Z" stroke-miterlimit="10" stroke-width="2.3336004714285714" stroke-dasharray=""/><path fill="white" stroke="black" paint-order="fill stroke markers" d=" M 16.33520329999999 411.3352692788182 L 16.33520329999999 430.9375132388182 L 62.6944068970703 430.9375132388182 L 72.4955288770703 421.1363912588182 L 72.4955288770703 411.3352692788182 L 16.33520329999999 411.3352692788182" stroke-miterlimit="10" stroke-width="2.3336004714285714" stroke-dasharray=""/><text fill="black" stroke="none" font-family="sans-serif" font-size="8.8pt" font-style="normal" font-weight="bold" text-decoration="normal" x="32.67040659999999" y="424.4034319188182" text-anchor="start" dominant-baseline="alphabetic" xml:space="preserve">alt</text><g><rect fill="white" stroke="none" x="86.3804516820703" y="412.6420855428182" width="70.73279060425781" height="16.988611432000003"/></g><text fill="black" stroke="none" font-family="sans-serif" font-size="8.8pt" font-style="normal" font-weight="bold" text-decoration="normal" x="88.8307321770703" y="424.4034319188182" text-anchor="start" dominant-baseline="alphabetic" xml:space="preserve">[Cdliu]</text><g><path fill="none" stroke="black" paint-order="fill stroke markers" d=" M 16.33520329999999 546.9174566688181 L 865.8130211627605 546.9174566688181" stroke-miterlimit="10" stroke-width="2.3336004714285714" stroke-dasharray="4.083800825"/></g><g/><g><rect fill="white" stroke="none" x="86.3804516820703" y="548.224272932818" width="109.17599739136719" height="16.988611432000003"/></g><text fill="black" stroke="none" font-family="sans-serif" font-size="8.8pt" font-style="normal" font-weight="bold" text-decoration="normal" x="88.8307321770703" y="559.9856193088181" text-anchor="start" dominant-baseline="alphabetic" xml:space="preserve">[Khngcdliu]</text></g><g/></g><g/><g/><g/><g/></g></svg>