<svg xmlns="http://www.w3.org/2000/svg" xmlns:xlink="http://www.w3.org/1999/xlink" version="1.1" width="960.304665418164" height="830.333233923818"><desc>title%20T%E1%BA%A1o%20thi%E1%BA%BFt%20b%E1%BB%8B%0A%0Abottomparticipants%0A%0Aactor%20Landlord%0Aentity%20Client%0Aentity%20Backend%0Adatabase%20Database%0A%0ALandlord%20-%3E%20Client%3A%20Nh%E1%BA%ADp%20th%C3%B4ng%20tin%20thi%E1%BA%BFt%20b%E1%BB%8B%20m%E1%BB%9Bi%0Aactivate%20Landlord%0Aactivate%20Client%0A%0AClient%20-%3E%20Backend%3A%20G%E1%BB%ADi%20th%C3%B4ng%20tin%20thi%E1%BA%BFt%20b%E1%BB%8B%0Aactivate%20Backend%0A%0ABackend%20-%3E%20Backend%3A%20Ki%E1%BB%83m%20tra%20quy%E1%BB%81n%0A%0A%0Aalt%20Quy%E1%BB%81n%20h%E1%BB%A3p%20l%E1%BB%87%0Aactivate%20Database%0ABackend%20-%3E%20Database%3A%20Th%C3%AAm%20thi%E1%BA%BFt%20b%E1%BB%8B%20m%E1%BB%9Bi%20v%C3%A0o%20c%C6%A1%20s%E1%BB%9F%20d%E1%BB%AF%20li%E1%BB%87u%0A%20%20%20%20Database%20--%3E%20Backend%3A%20X%C3%A1c%20nh%E1%BA%ADn%20thi%E1%BA%BFt%20b%E1%BB%8B%20%C4%91%C6%B0%E1%BB%A3c%20t%E1%BA%A1o%0A%20%20%20%20Backend%20--%3E%20Client%3A%20Th%C3%B4ng%20b%C3%A1o%20t%E1%BA%A1o%20th%C3%A0nh%20c%C3%B4ng%0A%20%20%20%20Client%20--%3E%20Landlord%3A%20Hi%E1%BB%83n%20th%E1%BB%8B%20th%C3%B4ng%20b%C3%A1o%20th%C3%A0nh%20c%C3%B4ng%0Aelse%20Quy%E1%BB%81n%20kh%C3%B4ng%20h%E1%BB%A3p%20l%E1%BB%87%0A%20%20%20%20Backend%20--%3E%20Client%3A%20Th%C3%B4ng%20b%C3%A1o%20l%E1%BB%97i%20quy%E1%BB%81n%20truy%20c%E1%BA%ADp%0A%20%20%20%20Client%20--%3E%20Landlord%3A%20Hi%E1%BB%83n%20th%E1%BB%8B%20th%C3%B4ng%20b%C3%A1o%20th%E1%BA%A5t%20b%E1%BA%A1i%0Aend%0A%0Adeactivate%20Backend%0Adeactivate%20Client%0Adeactivate%20Landlord%0Adeactivate%20Database</desc><defs/><g><g/><g/><g/><g/><g/><g/><g/><g/><g/><g/><g/><g/><g/><g/><g/><g/><g/><g/><g/><g/><g/><g/><g/><g/><g/><g/><g/><g/><g/><g/><g/><g/><g/><g/><g/><g/><g/><g/><g/><g/><g/><g/><g/><g/><g/><g/><g/><g/><g/><g/><g/><g/><g/><g/><g/><g/><g/><g/><g/><g/><g/><g/><g/><g/><g/><g/><g/><g/><g/><g/><g/><g/><g/><g/><g/><g/><g/><g/><g/><g/><g/><g/><g/><g/><g/><g/><g/><g/><g/><g/><g/><g/><g/><g/><g/><g/><g/><g/><g/><g/><g/><g/><g/><g/><g/><g/><g/><g/><g/><g/><g><rect fill="white" stroke="none" x="0" y="0" width="960" height="830"/></g><g/><g><path fill="none" stroke="black" paint-order="fill stroke markers" d=" M 81.67601649999999 128.73625218881818 L 81.67601649999999 739.672855608818" stroke-miterlimit="10" stroke-width="1.3612669416666667" stroke-dasharray="12.565541,5.445067766666667"/><path fill="none" stroke="black" paint-order="fill stroke markers" d=" M 337.1908872995442 128.73625218881818 L 337.1908872995442 739.672855608818" stroke-miterlimit="10" stroke-width="1.3612669416666667" stroke-dasharray="12.565541,5.445067766666667"/><path fill="none" stroke="black" paint-order="fill stroke markers" d=" M 586.163155560026 128.73625218881818 L 586.163155560026 739.672855608818" stroke-miterlimit="10" stroke-width="1.3612669416666667" stroke-dasharray="12.565541,5.445067766666667"/><path fill="none" stroke="black" paint-order="fill stroke markers" d=" M 878.628648918164 128.73625218881818 L 878.628648918164 739.672855608818" stroke-miterlimit="10" stroke-width="1.3612669416666667" stroke-dasharray="12.565541,5.445067766666667"/></g><g><g><path fill="white" stroke="black" paint-order="fill stroke markers" d=" M 90.987082381 59.63834222981819 A 9.311065881 9.311065881 0 1 1 90.98707772546743 59.62903116548903 M 81.67601649999999 68.9494081108182 L 81.67601649999999 88.8783561368182 M 69.914670124 76.13689756281819 L 93.43736287599998 76.13689756281819 M 81.67601649999999 88.8783561368182 L 69.914670124 107.50048789881819 M 81.67601649999999 88.8783561368182 L 93.43736287599998 107.50048789881819" stroke-miterlimit="10" stroke-width="2.7769845610000004" stroke-dasharray=""/></g><g><g/><text fill="black" stroke="none" font-family="sans-serif" font-size="11pt" font-style="normal" font-weight="normal" text-decoration="normal" x="53.1470400595703" y="123.83569119881818" text-anchor="start" dominant-baseline="alphabetic" xml:space="preserve">Landlord</text></g><g><path fill="white" stroke="black" paint-order="fill stroke markers" d=" M 361.4486642000442 79.63263106901819 A 24.2577769005 24.2577769005 0 1 1 361.4486520711568 79.60837329616064 M 311.54461811854424 106.11199561831819 L 362.8371564805442 106.11199561831819" stroke-miterlimit="10" stroke-width="2.7769845610000004" stroke-dasharray=""/></g><g><g/><text fill="black" stroke="none" font-family="sans-serif" font-size="11pt" font-style="normal" font-weight="normal" text-decoration="normal" x="318.45073684788406" y="123.83569119881818" text-anchor="start" dominant-baseline="alphabetic" xml:space="preserve">Client</text></g><g><path fill="white" stroke="black" paint-order="fill stroke markers" d=" M 610.4209324605259 79.63263106901819 A 24.2577769005 24.2577769005 0 1 1 610.4209203316385 79.60837329616064 M 560.516886379026 106.11199561831819 L 611.809424741026 106.11199561831819" stroke-miterlimit="10" stroke-width="2.7769845610000004" stroke-dasharray=""/></g><g><g/><text fill="black" stroke="none" font-family="sans-serif" font-size="11pt" font-style="normal" font-weight="normal" text-decoration="normal" x="557.6377573056315" y="123.83569119881818" text-anchor="start" dominant-baseline="alphabetic" xml:space="preserve">Backend</text></g><g><path fill="white" stroke="black" paint-order="fill stroke markers" d=" M 854.7792521001641 96.71925372081819 L 854.7792521001641 62.41532679081819 L 902.478045736164 62.41532679081819 L 902.478045736164 96.71925372081819" stroke-miterlimit="10" stroke-width="2.7769845610000004" stroke-dasharray=""/><path fill="white" stroke="black" paint-order="fill stroke markers" d=" M 902.478045736164 61.22285694991819 L 902.4768532762603 61.33066749483481 L 902.4732760157942 61.43846725878678 L 902.467314312489 61.546245461887544 L 902.4589687625096 61.65399132640659 L 902.4482402004044 61.761694077847274 L 902.4351296990205 61.86934294602419 L 902.4196385693973 61.976927166140236 L 902.4017683606347 62.084435979863045 L 902.3815208597387 62.19185863640084 L 902.3588980914425 62.299184393577484 L 902.3339023180041 62.4064025189067 L 902.3065360389801 62.51350229066531 L 902.2768019909755 62.62047299896537 L 902.2447031473704 62.7273039468252 L 902.2102427180223 62.83398445123905 L 902.1734241489455 62.94050384424536 L 902.1342511219661 63.04685147399361 L 902.0927275543544 63.15301670580944 L 902.0488575984324 63.25898892325815 L 902.002645641159 63.364757529206294 L 901.9540963036917 63.47031194688142 L 901.9032144409236 63.575641620929716 L 901.8500051409987 63.68073601847156 L 901.7944737248025 63.78558463015478 L 901.7366257454305 63.89017697120557 L 901.6764669876324 63.994502582477 L 901.6140034672337 64.09855103149486 L 901.5492414305345 64.20231191350096 L 901.4821873536845 64.3057748524936 L 901.4128479420356 64.40892950226505 L 901.3412301294709 64.51176554743633 L 901.2673410777122 64.61427270448858 L 901.1911881756032 64.71644072279157 L 901.1127790383704 64.81825938562858 L 901.0321215068623 64.91971851121816 L 900.9492236467648 65.02080795373233 L 900.864093747795 65.12151760431107 L 900.7767403228715 65.22183739207324 L 900.6871721072644 65.32175728512367 L 900.5953980577203 65.42126729155632 L 900.5014273515678 65.52035746045347 L 900.4052693857993 65.6190178828808 L 900.3069337761312 65.71723869287828 L 900.2064303560423 65.81501006844678 L 900.1037691757913 65.91232223253022 L 899.9989605014102 66.00916545399325 L 899.8920148136793 66.10553004859446 L 899.7829428070784 66.20140637995469 L 899.6717553887171 66.29678486052069 L 899.5584636772445 66.39165595252388 L 899.4430790017376 66.48601016893414 L 899.3256129005675 66.57983807440844 L 899.2060771202466 66.67313028623443 L 899.0844836142534 66.76587747526865 L 898.960844541837 66.85807036686953 L 898.8351722668016 66.94969974182469 L 898.7074793562701 67.04075643727302 L 898.5777785794271 67.13123134762085 L 898.4460829062422 67.22111542545254 L 898.3124055061729 67.3103996824352 L 898.176759746848 67.39907519021754 L 898.0391591927302 67.4871330813227 L 897.8996176037602 67.57456455003492 L 897.7581489339809 67.6613608532802 L 897.6147673301411 67.74751331150055 L 897.469487130282 67.83301330952195 L 897.3223228623021 67.91785229741582 L 897.173289242506 68.00202179135408 L 897.0224011741311 68.08551337445749 L 896.8696737458588 68.1683186976373 L 896.7151222303046 68.25042948043021 L 896.5587620824911 68.33183751182635 L 896.4006089383028 68.41253465109044 L 896.2406786129225 68.4925128285758 L 896.0789870992493 68.5717640465313 L 895.9155505663 68.65028037990122 L 895.7503853575914 68.72805397711764 L 895.5835079895071 68.80507706088565 L 895.4149351496446 68.88134192896105 L 895.2446836951475 68.95684095492061 L 895.0727706510194 69.03156658892462 L 894.8992132084213 69.10551135847197 L 894.724028722953 69.17866786914732 L 894.547234712917 69.25102880536058 L 894.368848857567 69.3225869310784 L 894.1888889953397 69.39333509054786 L 894.0073731220716 69.46326620901198 L 893.8243193891986 69.53237329341717 L 893.6397461019417 69.60064943311258 L 893.4536717174755 69.66808780054113 L 893.2661148430835 69.7346816519223 L 893.0770942342969 69.80042432792644 L 892.886628793019 69.86530925434072 L 892.6947375656351 69.92932994272657 L 892.5014397411084 69.9924799910685 L 892.3067546490598 70.05475308441433 L 892.1107017578366 70.1161429955066 L 891.9133006725644 70.17664358540536 L 891.7145711331874 70.23624880410202 L 891.5145330124936 70.29495269112441 L 891.3132063141287 70.35274937613272 L 891.1106111705947 70.40963307950663 L 890.9067678412368 70.46559811292322 L 890.7016967102186 70.52063887992576 L 890.4954182844818 70.57474987648341 L 890.2879531916975 70.62792569154163 L 890.0793221782018 70.68016100756323 L 889.8695461069224 70.73145060106012 L 889.6586459552914 70.78178934311569 L 889.4466428131483 70.8311721998977 L 889.2335578806307 70.8795942331616 L 889.0194124660543 70.92705060074444 L 888.804227983782 70.973536557049 L 888.5880259520827 71.01904745351838 L 888.3708279909796 71.06357873910088 L 888.1526558200876 71.10712596070502 L 887.933531256442 71.14968476364494 L 887.7134762123167 71.19125089207583 L 887.4925126930326 71.23182018941947 L 887.2706627947576 71.27138859877994 L 887.0479487022966 71.30995216334925 L 886.8243926868731 71.34750702680313 L 886.6000171039027 71.38404943368649 L 886.3748443907564 71.4195757297891 L 886.148897064518 71.45408236251096 L 885.9221977197318 71.48756588121756 L 885.6947690261434 71.52002293758491 L 885.4666337264325 71.55145028593446 L 885.2378146339393 71.58184478355753 L 885.0083346303819 71.61120339102969 L 884.7782166635699 71.63952317251467 L 884.5474837451078 71.66680129605793 L 884.3161589480954 71.69303503386982 L 884.0842654048196 71.71822176259843 L 883.8518263044415 71.7423589635919 L 883.6188648906774 71.7654442231502 L 883.3854044594744 71.78747523276665 L 883.1514683566814 71.80844978935863 L 882.9170799757135 71.82836579548797 L 882.6822627552135 71.84722125957065 L 882.4470401767079 71.86501429607597 L 882.2114357622582 71.8817431257151 L 881.9754730721099 71.89740607561903 L 881.7391757023353 71.91200157950583 L 881.5025672824743 71.92552817783725 L 881.2656714731717 71.93798451796474 L 881.0285119638112 71.94936935426468 L 880.791112470146 71.95968154826289 L 880.5534967319276 71.96892006874862 L 880.3156885105319 71.97708399187748 L 880.0777115865828 71.98417250126396 L 879.8395897575745 71.99018488806304 L 879.6013468354913 71.99512055104105 L 879.363006644427 71.99897899663581 L 879.124593018202 72.00175983900598 L 878.8861297979802 72.00346280006961 L 878.6476408298851 72.00408770953204 L 878.4091499626145 72.00363450490285 L 878.1706810450567 72.0021032315021 L 877.9322579239044 71.99949404245586 L 877.6939044412715 71.9958071986809 L 877.455644432307 71.99104306885846 L 877.2175017228138 71.98520212939759 L 876.9795001268642 71.97828496438737 L 876.7416634444194 71.97029226553852 L 876.5040154589494 71.96122483211428 L 876.2665799350549 71.95108357085043 L 876.0293806160902 71.93986949586466 L 875.7924412217898 71.92758372855508 L 875.5557854458955 71.91422749748824 L 875.3194369537877 71.89980213827607 L 875.0834193801186 71.8843090934425 L 874.847756326449 71.86774991227908 L 874.6124713588879 71.85012625069015 L 874.3775880057359 71.83143987102717 L 874.1431297551326 71.81169264191253 L 873.9091200527077 71.79088653805269 L 873.6755822992363 71.7690236400407 L 873.4425398482995 71.74610613414815 L 873.2100160039478 71.72213631210651 L 872.9780340183719 71.69711657087802 L 872.7466170895773 71.67104941241597 L 872.5157883590638 71.64393744341446 L 872.2855709095122 71.6157833750478 L 872.0559877624756 71.58659002269937 L 871.8270618760773 71.55636030568009 L 871.5988161427153 71.52509724693644 L 871.3712733867727 71.49280397274828 L 871.1444563623354 71.45948371241609 L 870.918387750917 71.42513979793813 L 870.69309015919 71.38977566367726 L 870.4685861167259 71.35339484601741 L 870.244898073742 71.31600098301004 L 870.0220483988561 71.27759781401028 L 869.80005937685 71.23818917930303 L 869.5789532064409 71.19777901971894 L 869.3587519980615 71.15637137624027 L 869.1394777716494 71.11397038959687 L 868.9211524544442 71.07058029985207 L 868.7037978787957 71.02620544597868 L 868.4874357799807 70.98085026542512 L 868.2720877940284 70.93451929367163 L 868.0577754555582 70.8872171637768 L 867.844520195625 70.8389486059142 L 867.6323433395776 70.78971844689937 L 867.4212661049243 70.7395316097072 L 867.2113095992129 70.6883931129796 L 867.002494817919 70.6363080705236 L 866.7948426423467 70.58328169080006 L 866.5883738375405 70.52931927640276 L 866.3831090502089 70.47442622352818 L 866.1790688066594 70.41860802143584 L 865.9762735107464 70.36187025189946 L 865.7747434418307 70.3042185886487 L 865.574498752751 70.24565879680183 L 865.3755594678094 70.18619673228926 L 865.1779454807686 70.12583834126788 L 864.9816765528627 70.06458965952649 L 864.7867723108209 70.00245681188221 L 864.593252244905 69.93944601156807 L 864.4011357069602 69.87556355961155 L 864.2104419084804 69.81081584420461 L 864.0211899186864 69.74520934006487 L 863.8333986626195 69.67875060778805 L 863.6470869192489 69.61144629319199 L 863.4622733195935 69.54330312665208 L 863.2789763448594 69.47432792242817 L 863.0972143245913 69.40452757798322 L 862.9170054348397 69.3339090732935 L 862.7383676963434 69.26247947015062 L 862.5613189727275 69.19024591145539 L 862.3858769687166 69.11721562050347 L 862.2120592283652 69.0433959002631 L 862.0398831333023 68.96879413264479 L 861.8693659009939 68.89341777776313 L 861.7005245830213 68.81727437319081 L 861.5333760633754 68.74037153320482 L 861.367937056769 68.66271694802508 L 861.2042241069648 68.58431838304537 L 861.0422535851216 68.5051836780569 L 860.8820416881563 68.4253207464642 L 860.7236044371251 68.34473757449386 L 860.5669576756213 68.26344222039596 L 860.4121170681905 68.18144281363814 L 860.2590980987641 68.09874755409275 L 860.1079160691119 68.01536471121685 L 859.9585860973106 67.9313026232252 L 859.811123116233 67.84656969625658 L 859.6655418720545 67.76117440353308 L 859.521856922778 67.67512528451279 L 859.3800826367789 67.5884309440359 L 859.2402331913675 67.50110005146425 L 859.1023225713717 67.41314133981427 L 858.9663645677387 67.32456360488388 L 858.8323727761556 67.23537570437271 L 858.7003605956899 67.14558655699653 L 858.5703412274495 67.05520514159522 L 858.442327673263 66.96424049623502 L 858.3163327343791 66.87270171730466 L 858.1923690101868 66.78059795860575 L 858.0704488969551 66.68793843043741 L 857.9505845865937 66.59473239867523 L 857.8327880654338 66.50098918384472 L 857.7170711130293 66.40671816018926 L 857.603445300979 66.31192875473263 L 857.4919219917697 66.2166304463364 L 857.382512337639 66.120832764752 L 857.2752272794613 66.02454528966774 L 857.170077545653 65.92777764975091 L 857.0670736511 65.83053952168484 L 856.9662258961057 65.73284062920132 L 856.8675443653616 65.63469074210818 L 856.7710389269387 65.53609967531233 L 856.6767192313002 65.4370772878383 L 856.5845947103372 65.33763348184232 L 856.494674576425 65.23777820162212 L 856.4069678215021 65.13752143262249 L 856.3214832161708 65.03687320043682 L 856.2382293088206 64.93584356980442 L 856.1572144247725 64.83444264360419 L 856.0784466654477 64.73268056184422 L 856.0019339075565 64.63056750064791 L 855.9276838023106 64.52811367123628 L 855.8557037746591 64.42532931890689 L 855.7860010225444 64.32222472200931 L 855.7185825161839 64.21881019091732 L 855.6534549973719 64.11509606699785 L 855.590624978806 64.01109272157687 L 855.5300987434358 63.90681055490224 L 855.4718823438343 63.80225999510374 L 855.4159816015931 63.697451497150205 L 855.3624021067396 63.59239554180411 L 855.3111492171788 63.48710263457343 L 855.262228058157 63.381583304661156 L 855.2156435217491 63.27584810391234 L 855.1714002663703 63.16990760575894 L 855.1295027163088 63.06377240416249 L 855.0899550612851 62.95745311255472 L 855.0527612560314 62.85096036277616 L 855.0179250198976 62.744304804013076 L 854.9854498364779 62.63749710173245 L 854.9553389532639 62.530547936615505 L 854.9275953813186 62.423468003489624 L 854.9022218949763 62.316268010258895 L 854.8792210315643 62.208958676833305 L 854.8585950911498 62.10155073405677 L 854.8403461363097 61.99405492263407 L 854.8244759919243 61.88648199205676 L 854.8109862449948 61.77884269952825 L 854.7998782444845 61.6711478088881 L 854.7911531011845 61.56340808953563 L 854.7848116876015 61.45563431535299 L 854.7808546378719 61.34783726362778 L 854.7792823476972 61.24002771397536 L 854.7800949743051 61.13221644726084 L 854.7832924364337 61.02441424452105 L 854.7888744143394 60.916631885886424 L 854.796840349829 60.808880149503025 L 854.8071894463158 60.70116981045468 L 854.8199206688986 60.59351163968555 L 854.8350327444657 60.48591640292299 L 854.8525241618223 60.378394859601016 L 854.8723931718412 60.27095776178435 L 854.8946377876377 60.163615853093255 L 854.9192557847692 60.05637986762915 L 854.9462447014562 59.949260528901206 L 854.9756018388296 59.84226854875404 L 855.0073242612001 59.7354146262965 L 855.041408796352 59.62870944683179 L 855.07785203586 59.52216368078894 L 855.1166503354308 59.41578798265577 L 855.1577998152665 59.30959298991343 L 855.2012963604535 59.203589321972714 L 855.2471356213736 59.09778757911208 L 855.2953130141387 58.992198341417634 L 855.34582372105 58.88683216772516 L 855.3986626910786 58.78169959456423 L 855.4538246403717 58.67681113510454 L 855.5113040527804 58.57217727810464 L 855.5710951804111 58.46780848686303 L 855.633192044201 58.36371519817185 L 855.6975884345155 58.25990782127324 L 855.7642779117693 58.15639673681838 L 855.8332538070702 58.053192295829454 L 855.904509222886 57.950304818664556 L 855.9780370337346 57.84774459398567 L 856.0538298868962 57.745521877729786 L 856.1318802031486 57.64364689208335 L 856.2121801775254 57.54212982446004 L 856.2947217800958 57.44098082648201 L 856.3794967567685 57.340210012964775 L 856.4664966301165 57.2398274609057 L 856.5557127002248 57.13984320847635 L 856.647136045561 57.040267254018644 L 856.7407575238665 56.94110955504505 L 856.8365677730715 56.84238002724283 L 856.9345572122311 56.74408854348249 L 857.034716042483 56.646244932830506 L 857.1370342480275 56.54885897956639 L 857.2415015971293 56.45194042220433 L 857.3481076431408 56.35549895251929 L 857.456841725546 56.25954421457787 L 857.5676929710273 56.16408580377391 L 857.6806502945527 56.06913326586893 L 857.7957024004838 55.974696096037604 L 857.912837783706 55.88078373791821 L 858.0320447307784 55.7874055826683 L 858.1533113211058 55.694570968025594 L 858.2766254281303 55.60228917737418 L 858.4019747205436 55.51056943881623 L 858.5293466635213 55.41942092424918 L 858.6587285199752 55.328852748448504 L 858.7901073518273 55.23887396815633 L 858.9234700213038 55.14949358117568 L 859.0588031922492 55.0607205254708 L 859.1960933314591 54.97256367827326 L 859.3353267100339 54.88503185519433 L 859.4764894047518 54.79813380934336 L 859.6195672994609 54.71187823045254 L 859.764546086491 54.62627374400786 L 859.9114112680843 54.541328910386646 L 860.060148157845 54.45705222400146 L 860.2107418822079 54.373452112450714 L 860.3631773819263 54.290536935675895 L 860.5174394135771 54.20831498512558 L 860.6735125510858 54.12679448292632 L 860.8313811872686 54.0459835810604 L 860.9910295353935 53.965890360550645 L 861.1524416307586 53.88652283065238 L 861.3156013322891 53.80788892805245 L 861.4804923241506 53.72999651607559 L 861.6470981173816 53.652853383898076 L 861.8154020515414 53.57646724576885 L 861.9853872963766 53.50084574023808 L 862.1570368535049 53.42599642939328 L 862.3303335581134 53.35192679810317 L 862.5052600806758 53.278644253269164 L 862.681798928686 53.20615612308466 L 862.8599324484061 53.13446965630228 L 863.0396428266326 53.06359202150896 L 863.2209120924775 52.99353030640911 L 863.4037221191652 52.924291517115876 L 863.5880546258454 52.85588257745046 L 863.7738911794212 52.78831032824984 L 863.9612131963918 52.72158152668263 L 864.1500019447117 52.65570284557336 L 864.3402385456635 52.590680872735255 L 864.5319039757456 52.52652211031142 L 864.7249790685747 52.463232974124615 L 864.9194445168024 52.40081979303573 L 865.115280874046 52.33928880831086 L 865.3124685568328 52.278646172997206 L 865.510987846559 52.21889795130775 L 865.710818891461 52.160050118014894 L 865.9119417086008 52.1021085578529 L 866.1143361858644 52.045079064929524 L 866.3179820839728 51.98896734214652 L 866.5228590385055 51.933779000629414 L 866.7289465619382 51.87951955916637 L 866.9362240456901 51.826194443656306 L 867.1446707621856 51.77380898656634 L 867.3542658669268 51.72236842639853 L 867.5649884005777 51.67187790716602 L 867.7768172910608 51.622342477878675 L 867.9897313556634 51.57376709203812 L 868.2037093031565 51.526156607142475 L 868.4187297359238 51.47951578420055 L 868.6347711521009 51.43384928725578 L 868.8518119477264 51.38916168291979 L 869.0698304189018 51.34545743991578 L 869.2888047639614 51.302740928631636 L 869.5087130856532 51.261016420682886 L 869.7295333933283 51.220288088485546 L 869.95124360514 51.18056000483891 L 870.1738215502519 51.14183614251822 L 870.3972449710549 51.10412037387746 L 870.621491525393 51.06741647046204 L 870.846538788798 51.03172810263173 L 871.0723642567307 50.99705883919358 L 871.2989453468327 50.96341214704502 L 871.5262594011839 50.930791390827245 L 871.754283688568 50.899199832588685 L 871.9829954067465 50.86864063145883 L 872.2123716847381 50.83911684333235 L 872.4423895851062 50.81063142056343 L 872.6730261062523 50.78318721167063 L 872.9042581847167 50.75678696105195 L 873.136062697484 50.731433308710464 L 873.3684164642964 50.70712878999027 L 873.6012962499706 50.683875835323 L 873.8346787667222 50.66167676998473 L 874.068540676494 50.6405338138635 L 874.3028585932898 50.6204490812373 L 874.5376090855133 50.60142458056266 L 874.7727686783109 50.583462214273794 L 875.0083138559193 50.566563778592354 L 875.2442210640169 50.55073096334783 L 875.4804667120796 50.53596535180856 L 875.7170271757394 50.52226842052339 L 875.9538787991472 50.50964153917403 L 876.1909978973379 50.49808597043808 L 876.4283607585993 50.48760286986282 L 876.6659436468431 50.47819328574954 L 876.9037228039783 50.46985815904882 L 877.1416744522877 50.462598323266384 L 877.3797747968044 50.456414504379765 L 877.6180000276926 50.45130732076569 L 877.8563263226276 50.44727728313828 L 878.0947298491786 50.444324794497916 L 878.3331867671915 50.44245015009101 L 878.5716732311733 50.44165353738045 L 878.8101653926764 50.44193503602685 L 879.0486394026832 50.443294617880554 L 879.2870714139916 50.445732146984525 L 879.5254375835991 50.44924737958788 L 879.7637140750874 50.45383996417029 L 880.0018770610059 50.459509441477124 L 880.2399027252544 50.46625524456538 L 880.4777672654649 50.474076698860365 L 880.7154468953815 50.48297302222316 L 880.9529178472396 50.49294332502887 L 881.1901563741416 50.50398661025549 L 881.4271387524325 50.51610177358371 L 881.6638412840721 50.52928760350731 L 881.9002402990044 50.54354278145426 L 882.136312157525 50.55886588191867 L 882.3720332526447 50.575255372603245 L 882.6073800124503 50.592709614572584 L 882.8423289024622 50.61122686241703 L 883.076856427987 50.630805264427224 L 883.3109391364677 50.651442862779284 L 883.5445536198284 50.67313759373059 L 883.7776765168155 50.695887287826096 L 884.0102845153336 50.71968967011537 L 884.2423543547767 50.74454236038002 L 884.4738628283542 50.77044287337172 L 884.7047867854117 50.797388619060754 L 884.9351031337459 50.825376902895016 L 885.1647888419138 50.85440492606945 L 885.3938209415362 50.88446978580591 L 885.6221765295938 50.9155684756435 L 885.8498327707183 50.947697885739125 L 886.076766899475 50.980854803178566 L 886.3029562226404 51.01503591229771 L 886.5283781214707 51.05023779501413 L 886.7530100539636 51.08645693116888 L 886.9768295571133 51.12368969887854 L 887.1998142491559 51.16193237489736 L 887.4219418318079 51.201181134989596 L 887.6431900924964 51.241432054311964 L 887.8635369065795 51.28268110780607 L 888.0829602395594 51.32492417060092 L 888.3014381492858 51.368157018425464 L 888.5189487881497 51.41237532803093 L 888.7354704052685 51.45757467762322 L 888.9509813486609 51.503750547305025 L 889.1654600674121 51.55089831952786 L 889.3788851138291 51.5990132795538 L 889.5912351455851 51.64809061592693 L 889.8024889278538 51.69812542095451 L 890.012625335433 51.749112691197745 L 890.221623354857 51.801047327972086 L 890.4294620864982 51.85392413785714 L 890.6361207466565 51.90773783321599 L 890.8415786696382 51.962483032723924 L 891.0458153098222 52.01815426190663 L 891.2488102437145 52.07474595368758 L 891.4505431719911 52.132252448944755 L 891.6509939215272 52.190667997076545 L 891.8501424474148 52.24998675657682 L 892.0479688349674 52.310202795619055 L 892.244453301711 52.371310092649544 L 892.4395761993628 52.43330253698949 L 892.6333180157956 52.49617392944612 L 892.8256593769889 52.559917982932596 L 893.0165810489674 52.62452832309667 L 893.2060639397225 52.68999848895818 L 893.3940891011234 52.7563219335551 L 893.5806377308105 52.823492024598224 L 893.7656911740762 52.89150204513444 L 893.9492309257305 52.960345194218355 L 894.1312386319512 53.03001458759244 L 894.3116960921193 53.10050325837541 L 894.4905852606391 53.171804157758935 L 894.6678882487429 53.243910155712484 L 894.8435873262797 53.31681404169635 L 895.017664923488 53.39050852538269 L 895.1901036327533 53.46498623738456 L 895.3608862103483 53.5402397299928 L 895.5299955781576 53.61626147792087 L 895.6974148253852 53.69304387905734 L 895.863127210246 53.770579255226075 L 896.0271161616397 53.848859852954064 L 896.1893652808077 53.92787784424677 L 896.3498583429733 54.00762532737092 L 896.5085792989642 54.08809432764465 L 896.6655122768167 54.16927679823499 L 896.820641583364 54.251164620962534 L 896.9739517058049 54.33374960711325 L 897.1254273132546 54.41702349825734 L 897.2750532582787 54.500977967075094 L 897.4228145784075 54.58560461818958 L 897.568696497632 54.670894989006214 L 897.7126844278819 54.75684055055899 L 897.8547639704841 54.84343270836337 L 897.9949209176028 54.93066280327574 L 898.13314125366 55.0185221123593 L 898.2694111567374 55.107001849756344 L 898.4037169999582 55.196093167566886 L 898.53604535285 55.28578715673337 L 898.6663829826877 55.37607484793163 L 898.794716855817 55.46694721246779 L 898.9210341389577 55.55839516318112 L 899.0453222004863 55.65040955535275 L 899.1675686117007 55.742981187620146 L 899.2877611480615 55.83610080289723 L 899.4058877904151 55.92975908930006 L 899.5219367261958 56.02394668107806 L 899.6358963506067 56.11865415955053 L 899.7477552677803 56.213872054048544 L 899.8575022919182 56.30959084286201 L 899.9651264484094 56.405800954191804 L 900.0706169749278 56.50249276710697 L 900.1739633225088 56.5996566125068 L 900.2751551566038 56.69728277408771 L 900.3741823581137 56.79536148931491 L 900.4710350244006 56.89388295039859 L 900.565703470279 56.99283730527477 L 900.6581782289829 57.09221465859041 L 900.7484500531137 57.19200507269298 L 900.8365099155641 57.29219856862425 L 900.9223490104212 57.39278512711811 L 901.0059587538472 57.49375468960253 L 901.0873307849371 57.59509715920541 L 901.166456966556 57.69680240176424 L 901.2433293861515 57.79886024683951 L 901.3179403565456 57.90126048873177 L 901.3902824167037 58.003992887502164 L 901.4603483324798 58.10704716999642 L 901.5281310973409 58.21041303087217 L 901.5936239330669 58.31408013362946 L 901.6568202904286 58.41803811164441 L 901.7177138498434 58.52227656920584 L 901.7762985220058 58.62678508255487 L 901.8325684484975 58.731553200927245 L 901.8865180023727 58.83657044759845 L 901.9381417887209 58.94182632093131 L 901.9874346452066 59.04731029542622 L 902.0343916425852 59.153011822773635 L 902.079008085196 59.25892033290889 L 902.1212795114321 59.36502523506925 L 902.1612016941859 59.471315918852895 L 902.1987706412726 59.57778175528004 L 902.2339825958286 59.684412097855756 L 902.2668340366879 59.79119628363465 L 902.2973216787339 59.89812363428712 L 902.3254424732276 60.005183457167206 L 902.3511936081129 60.11236504638185 L 902.3745725082981 60.21965768386144 L 902.3955768359124 60.327050640431644 L 902.4142044905407 60.43453317688629 L 902.4304536094329 60.5420945450613 L 902.4443225676908 60.6497239889095 L 902.4558099784301 60.757410745576195 L 902.4649146929193 60.86514404647545 L 902.4716358006945 60.972913118366954 L 902.4759726296504 61.08070718443333 L 902.477924746108 61.188515465357796 M 902.478045736164 95.52678387991818 L 902.4768532762603 95.6345944248348 L 902.4732760157942 95.74239418878678 L 902.467314312489 95.85017239188754 L 902.4589687625096 95.95791825640659 L 902.4482402004044 96.06562100784727 L 902.4351296990205 96.1732698760242 L 902.4196385693973 96.28085409614023 L 902.4017683606347 96.38836290986303 L 902.3815208597387 96.49578556640084 L 902.3588980914425 96.60311132357748 L 902.3339023180041 96.7103294489067 L 902.3065360389801 96.8174292206653 L 902.2768019909755 96.92439992896537 L 902.2447031473704 97.0312308768252 L 902.2102427180223 97.13791138123905 L 902.1734241489455 97.24443077424536 L 902.1342511219661 97.35077840399362 L 902.0927275543544 97.45694363580944 L 902.0488575984324 97.56291585325815 L 902.002645641159 97.66868445920629 L 901.9540963036917 97.77423887688141 L 901.9032144409236 97.8795685509297 L 901.8500051409987 97.98466294847155 L 901.7944737248025 98.08951156015478 L 901.7366257454305 98.19410390120557 L 901.6764669876324 98.29842951247699 L 901.6140034672337 98.40247796149485 L 901.5492414305345 98.50623884350097 L 901.4821873536845 98.60970178249359 L 901.4128479420356 98.71285643226504 L 901.3412301294709 98.81569247743631 L 901.2673410777122 98.91819963448859 L 901.1911881756032 99.02036765279156 L 901.1127790383704 99.12218631562857 L 901.0321215068623 99.22364544121817 L 900.9492236467648 99.32473488373233 L 900.864093747795 99.42544453431107 L 900.7767403228715 99.52576432207324 L 900.6871721072644 99.62568421512367 L 900.5953980577203 99.72519422155631 L 900.5014273515678 99.82428439045346 L 900.4052693857993 99.92294481288079 L 900.3069337761312 100.02116562287829 L 900.2064303560423 100.11893699844678 L 900.1037691757913 100.2162491625302 L 899.9989605014102 100.31309238399325 L 899.8920148136793 100.40945697859446 L 899.7829428070784 100.50533330995468 L 899.6717553887171 100.60071179052068 L 899.5584636772445 100.69558288252388 L 899.4430790017376 100.78993709893413 L 899.3256129005675 100.88376500440843 L 899.2060771202466 100.97705721623441 L 899.0844836142534 101.06980440526866 L 898.960844541837 101.16199729686952 L 898.8351722668016 101.25362667182469 L 898.7074793562701 101.34468336727302 L 898.5777785794271 101.43515827762084 L 898.4460829062422 101.52504235545253 L 898.3124055061729 101.61432661243519 L 898.176759746848 101.70300212021755 L 898.0391591927302 101.7910600113227 L 897.8996176037602 101.87849148003492 L 897.7581489339809 101.9652877832802 L 897.6147673301411 102.05144024150056 L 897.469487130282 102.13694023952193 L 897.3223228623021 102.22177922741581 L 897.173289242506 102.30594872135407 L 897.0224011741311 102.38944030445748 L 896.8696737458588 102.47224562763729 L 896.7151222303046 102.5543564104302 L 896.5587620824911 102.63576444182635 L 896.4006089383028 102.71646158109044 L 896.2406786129225 102.79643975857579 L 896.0789870992493 102.8756909765313 L 895.9155505663 102.95420730990122 L 895.7503853575914 103.03198090711763 L 895.5835079895071 103.10900399088564 L 895.4149351496446 103.18526885896105 L 895.2446836951475 103.2607678849206 L 895.0727706510194 103.33549351892461 L 894.8992132084213 103.40943828847196 L 894.724028722953 103.48259479914732 L 894.547234712917 103.55495573536056 L 894.368848857567 103.6265138610784 L 894.1888889953397 103.69726202054787 L 894.0073731220716 103.76719313901197 L 893.8243193891986 103.83630022341715 L 893.6397461019417 103.90457636311257 L 893.4536717174755 103.97201473054113 L 893.2661148430835 104.03860858192229 L 893.0770942342969 104.10435125792642 L 892.886628793019 104.1692361843407 L 892.6947375656351 104.23325687272656 L 892.5014397411084 104.29640692106851 L 892.3067546490598 104.35868001441433 L 892.1107017578366 104.4200699255066 L 891.9133006725644 104.48057051540535 L 891.7145711331874 104.54017573410202 L 891.5145330124936 104.5988796211244 L 891.3132063141287 104.65667630613272 L 891.1106111705947 104.71356000950664 L 890.9067678412368 104.7695250429232 L 890.7016967102186 104.82456580992574 L 890.4954182844818 104.87867680648341 L 890.2879531916975 104.93185262154162 L 890.0793221782018 104.98408793756322 L 889.8695461069224 105.0353775310601 L 889.6586459552914 105.08571627311568 L 889.4466428131483 105.13509912989768 L 889.2335578806307 105.1835211631616 L 889.0194124660543 105.23097753074444 L 888.804227983782 105.27746348704899 L 888.5880259520827 105.32297438351839 L 888.3708279909796 105.36750566910086 L 888.1526558200876 105.41105289070501 L 887.933531256442 105.45361169364494 L 887.7134762123167 105.49517782207583 L 887.4925126930326 105.53574711941947 L 887.2706627947576 105.57531552877992 L 887.0479487022966 105.61387909334925 L 886.8243926868731 105.65143395680312 L 886.6000171039027 105.68797636368647 L 886.3748443907564 105.72350265978909 L 886.148897064518 105.75800929251095 L 885.9221977197318 105.79149281121755 L 885.6947690261434 105.82394986758491 L 885.4666337264325 105.85537721593445 L 885.2378146339393 105.88577171355752 L 885.0083346303819 105.9151303210297 L 884.7782166635699 105.94345010251467 L 884.5474837451078 105.97072822605791 L 884.3161589480954 105.99696196386981 L 884.0842654048196 106.02214869259844 L 883.8518263044415 106.04628589359189 L 883.6188648906774 106.0693711531502 L 883.3854044594744 106.09140216276666 L 883.1514683566814 106.11237671935864 L 882.9170799757135 106.13229272548797 L 882.6822627552135 106.15114818957065 L 882.4470401767079 106.16894122607596 L 882.2114357622582 106.1856700557151 L 881.9754730721099 106.20133300561903 L 881.7391757023353 106.21592850950582 L 881.5025672824743 106.22945510783724 L 881.2656714731717 106.24191144796474 L 881.0285119638112 106.25329628426466 L 880.791112470146 106.2636084782629 L 880.5534967319276 106.2728469987486 L 880.3156885105319 106.28101092187747 L 880.0777115865828 106.28809943126396 L 879.8395897575745 106.29411181806304 L 879.6013468354913 106.29904748104106 L 879.363006644427 106.30290592663582 L 879.124593018202 106.30568676900597 L 878.8861297979802 106.30738973006962 L 878.6476408298851 106.30801463953205 L 878.4091499626145 106.30756143490284 L 878.1706810450567 106.3060301615021 L 877.9322579239044 106.30342097245587 L 877.6939044412715 106.29973412868088 L 877.455644432307 106.29496999885845 L 877.2175017228138 106.28912905939758 L 876.9795001268642 106.28221189438736 L 876.7416634444194 106.27421919553852 L 876.5040154589494 106.26515176211427 L 876.2665799350549 106.25501050085043 L 876.0293806160902 106.24379642586464 L 875.7924412217898 106.23151065855508 L 875.5557854458955 106.21815442748823 L 875.3194369537877 106.20372906827606 L 875.0834193801186 106.1882360234425 L 874.847756326449 106.17167684227908 L 874.6124713588879 106.15405318069014 L 874.3775880057359 106.13536680102716 L 874.1431297551326 106.11561957191253 L 873.9091200527077 106.09481346805269 L 873.6755822992363 106.0729505700407 L 873.4425398482995 106.05003306414814 L 873.2100160039478 106.0260632421065 L 872.9780340183719 106.00104350087803 L 872.7466170895773 105.97497634241597 L 872.5157883590638 105.94786437341445 L 872.2855709095122 105.9197103050478 L 872.0559877624756 105.89051695269937 L 871.8270618760773 105.86028723568009 L 871.5988161427153 105.82902417693644 L 871.3712733867727 105.79673090274827 L 871.1444563623354 105.76341064241608 L 870.918387750917 105.72906672793813 L 870.69309015919 105.69370259367726 L 870.4685861167259 105.6573217760174 L 870.244898073742 105.61992791301003 L 870.0220483988561 105.58152474401028 L 869.80005937685 105.54211610930304 L 869.5789532064409 105.50170594971894 L 869.3587519980615 105.46029830624026 L 869.1394777716494 105.41789731959686 L 868.9211524544442 105.37450722985206 L 868.7037978787957 105.33013237597868 L 868.4874357799807 105.28477719542511 L 868.2720877940284 105.23844622367163 L 868.0577754555582 105.1911440937768 L 867.844520195625 105.14287553591419 L 867.6323433395776 105.09364537689936 L 867.4212661049243 105.0434585397072 L 867.2113095992129 104.99232004297959 L 867.002494817919 104.9402350005236 L 866.7948426423467 104.88720862080007 L 866.5883738375405 104.83324620640276 L 866.3831090502089 104.77835315352817 L 866.1790688066594 104.72253495143585 L 865.9762735107464 104.66579718189945 L 865.7747434418307 104.60814551864868 L 865.574498752751 104.54958572680184 L 865.3755594678094 104.49012366228926 L 865.1779454807686 104.42976527126788 L 864.9816765528627 104.36851658952648 L 864.7867723108209 104.30638374188221 L 864.593252244905 104.24337294156805 L 864.4011357069602 104.17949048961154 L 864.2104419084804 104.11474277420461 L 864.0211899186864 104.04913627006486 L 863.8333986626195 103.98267753778805 L 863.6470869192489 103.91537322319199 L 863.4622733195935 103.84723005665208 L 863.2789763448594 103.77825485242818 L 863.0972143245913 103.70845450798322 L 862.9170054348397 103.63783600329349 L 862.7383676963434 103.56640640015061 L 862.5613189727275 103.49417284145538 L 862.3858769687166 103.42114255050346 L 862.2120592283652 103.3473228302631 L 862.0398831333023 103.27272106264479 L 861.8693659009939 103.19734470776314 L 861.7005245830213 103.1212013031908 L 861.5333760633754 103.04429846320481 L 861.367937056769 102.96664387802507 L 861.2042241069648 102.88824531304537 L 861.0422535851216 102.8091106080569 L 860.8820416881563 102.72924767646418 L 860.7236044371251 102.64866450449387 L 860.5669576756213 102.56736915039596 L 860.4121170681905 102.48536974363815 L 860.2590980987641 102.40267448409276 L 860.1079160691119 102.31929164121684 L 859.9585860973106 102.2352295532252 L 859.811123116233 102.15049662625658 L 859.6655418720545 102.06510133353308 L 859.521856922778 101.97905221451278 L 859.3800826367789 101.89235787403591 L 859.2402331913675 101.80502698146424 L 859.1023225713717 101.71706826981428 L 858.9663645677387 101.62849053488388 L 858.8323727761556 101.53930263437272 L 858.7003605956899 101.44951348699652 L 858.5703412274495 101.35913207159521 L 858.442327673263 101.26816742623502 L 858.3163327343791 101.17662864730465 L 858.1923690101868 101.08452488860574 L 858.0704488969551 100.9918653604374 L 857.9505845865937 100.89865932867522 L 857.8327880654338 100.80491611384473 L 857.7170711130293 100.71064509018925 L 857.603445300979 100.61585568473262 L 857.4919219917697 100.5205573763364 L 857.382512337639 100.424759694752 L 857.2752272794613 100.32847221966773 L 857.170077545653 100.2317045797509 L 857.0670736511 100.13446645168483 L 856.9662258961057 100.03676755920131 L 856.8675443653616 99.93861767210817 L 856.7710389269387 99.84002660531232 L 856.6767192313002 99.7410042178383 L 856.5845947103372 99.64156041184232 L 856.494674576425 99.54170513162211 L 856.4069678215021 99.4414483626225 L 856.3214832161708 99.34080013043682 L 856.2382293088206 99.23977049980442 L 856.1572144247725 99.13836957360418 L 856.0784466654477 99.03660749184422 L 856.0019339075565 98.9344944306479 L 855.9276838023106 98.83204060123627 L 855.8557037746591 98.72925624890688 L 855.7860010225444 98.6261516520093 L 855.7185825161839 98.52273712091731 L 855.6534549973719 98.41902299699785 L 855.590624978806 98.31501965157686 L 855.5300987434358 98.21073748490224 L 855.4718823438343 98.10618692510373 L 855.4159816015931 98.0013784271502 L 855.3624021067396 97.89632247180411 L 855.3111492171788 97.79102956457344 L 855.262228058157 97.68551023466115 L 855.2156435217491 97.57977503391233 L 855.1714002663703 97.47383453575894 L 855.1295027163088 97.3676993341625 L 855.0899550612851 97.2613800425547 L 855.0527612560314 97.15488729277617 L 855.0179250198976 97.04823173401307 L 854.9854498364779 96.94142403173245 L 854.9553389532639 96.8344748666155 L 854.9275953813186 96.72739493348962 L 854.9022218949763 96.6201949402589 L 854.8792210315643 96.51288560683331 L 854.8585950911498 96.40547766405678 L 854.8403461363097 96.29798185263407 L 854.8244759919243 96.19040892205675 L 854.8109862449948 96.08276962952824 L 854.7998782444845 95.9750747388881 L 854.7911531011845 95.86733501953563 L 854.7848116876015 95.75956124535298 L 854.7808546378719 95.65176419362778 L 854.7792823476972 95.54395464397535" stroke-miterlimit="10" stroke-width="2.7769845610000004" stroke-dasharray=""/></g><g><g/><text fill="black" stroke="none" font-family="sans-serif" font-size="11pt" font-style="normal" font-weight="normal" text-decoration="normal" x="847.2507039718749" y="123.83569119881818" text-anchor="start" dominant-baseline="alphabetic" xml:space="preserve">Database</text></g><g><path fill="white" stroke="black" paint-order="fill stroke markers" d=" M 90.987082381 771.6081780603181 A 9.311065881 9.311065881 0 1 1 90.98707772546743 771.5988669959889 M 81.67601649999999 780.9192439413181 L 81.67601649999999 800.8481919673181 M 69.914670124 788.1067333933181 L 93.43736287599998 788.1067333933181 M 81.67601649999999 800.8481919673181 L 69.914670124 819.4703237293181 M 81.67601649999999 800.8481919673181 L 93.43736287599998 819.4703237293181" stroke-miterlimit="10" stroke-width="2.7769845610000004" stroke-dasharray=""/></g><g><g/><text fill="black" stroke="none" font-family="sans-serif" font-size="11pt" font-style="normal" font-weight="normal" text-decoration="normal" x="53.1470400595703" y="756.008058908818" text-anchor="start" dominant-baseline="alphabetic" xml:space="preserve">Landlord</text></g><g><path fill="white" stroke="black" paint-order="fill stroke markers" d=" M 361.4486642000442 787.110285992018 A 24.2577769005 24.2577769005 0 1 1 361.4486520711568 787.0860282191604 M 311.54461811854424 813.589650541318 L 362.8371564805442 813.589650541318" stroke-miterlimit="10" stroke-width="2.7769845610000004" stroke-dasharray=""/></g><g><g/><text fill="black" stroke="none" font-family="sans-serif" font-size="11pt" font-style="normal" font-weight="normal" text-decoration="normal" x="318.45073684788406" y="756.008058908818" text-anchor="start" dominant-baseline="alphabetic" xml:space="preserve">Client</text></g><g><path fill="white" stroke="black" paint-order="fill stroke markers" d=" M 610.4209324605259 787.110285992018 A 24.2577769005 24.2577769005 0 1 1 610.4209203316385 787.0860282191604 M 560.516886379026 813.589650541318 L 611.809424741026 813.589650541318" stroke-miterlimit="10" stroke-width="2.7769845610000004" stroke-dasharray=""/></g><g><g/><text fill="black" stroke="none" font-family="sans-serif" font-size="11pt" font-style="normal" font-weight="normal" text-decoration="normal" x="557.6377573056315" y="756.008058908818" text-anchor="start" dominant-baseline="alphabetic" xml:space="preserve">Backend</text></g><g><path fill="white" stroke="black" paint-order="fill stroke markers" d=" M 854.7792521001641 808.7707655678181 L 854.7792521001641 774.466838637818 L 902.478045736164 774.466838637818 L 902.478045736164 808.7707655678181" stroke-miterlimit="10" stroke-width="2.7769845610000004" stroke-dasharray=""/><path fill="white" stroke="black" paint-order="fill stroke markers" d=" M 902.478045736164 773.274368796918 L 902.4768532762603 773.3821793418347 L 902.4732760157942 773.4899791057866 L 902.467314312489 773.5977573088874 L 902.4589687625096 773.7055031734064 L 902.4482402004044 773.8132059248471 L 902.4351296990205 773.920854793024 L 902.4196385693973 774.0284390131401 L 902.4017683606347 774.1359478268629 L 902.3815208597387 774.2433704834007 L 902.3588980914425 774.3506962405773 L 902.3339023180041 774.4579143659065 L 902.3065360389801 774.5650141376651 L 902.2768019909755 774.6719848459652 L 902.2447031473704 774.7788157938251 L 902.2102427180223 774.8854962982389 L 902.1734241489455 774.9920156912451 L 902.1342511219661 775.0983633209934 L 902.0927275543544 775.2045285528093 L 902.0488575984324 775.3105007702579 L 902.002645641159 775.4162693762061 L 901.9540963036917 775.5218237938813 L 901.9032144409236 775.6271534679295 L 901.8500051409987 775.7322478654713 L 901.7944737248025 775.8370964771545 L 901.7366257454305 775.9416888182054 L 901.6764669876324 776.0460144294768 L 901.6140034672337 776.1500628784946 L 901.5492414305345 776.2538237605007 L 901.4821873536845 776.3572866994934 L 901.4128479420356 776.4604413492649 L 901.3412301294709 776.5632773944361 L 901.2673410777122 776.6657845514884 L 901.1911881756032 776.7679525697914 L 901.1127790383704 776.8697712326284 L 901.0321215068623 776.971230358218 L 900.9492236467648 777.0723198007321 L 900.864093747795 777.1730294513109 L 900.7767403228715 777.273349239073 L 900.6871721072644 777.3732691321235 L 900.5953980577203 777.4727791385561 L 900.5014273515678 777.5718693074533 L 900.4052693857993 777.6705297298806 L 900.3069337761312 777.768750539878 L 900.2064303560423 777.8665219154466 L 900.1037691757913 777.96383407953 L 899.9989605014102 778.060677300993 L 899.8920148136793 778.1570418955943 L 899.7829428070784 778.2529182269545 L 899.6717553887171 778.3482967075205 L 899.5584636772445 778.4431677995237 L 899.4430790017376 778.537522015934 L 899.3256129005675 778.6313499214083 L 899.2060771202466 778.7246421332343 L 899.0844836142534 778.8173893222685 L 898.960844541837 778.9095822138694 L 898.8351722668016 779.0012115888245 L 898.7074793562701 779.0922682842728 L 898.5777785794271 779.1827431946207 L 898.4460829062422 779.2726272724524 L 898.3124055061729 779.361911529435 L 898.176759746848 779.4505870372174 L 898.0391591927302 779.5386449283225 L 897.8996176037602 779.6260763970347 L 897.7581489339809 779.7128727002801 L 897.6147673301411 779.7990251585004 L 897.469487130282 779.8845251565217 L 897.3223228623021 779.9693641444156 L 897.173289242506 780.0535336383539 L 897.0224011741311 780.1370252214573 L 896.8696737458588 780.2198305446371 L 896.7151222303046 780.30194132743 L 896.5587620824911 780.3833493588262 L 896.4006089383028 780.4640464980903 L 896.2406786129225 780.5440246755757 L 896.0789870992493 780.6232758935311 L 895.9155505663 780.701792226901 L 895.7503853575914 780.7795658241174 L 895.5835079895071 780.8565889078855 L 895.4149351496446 780.9328537759609 L 895.2446836951475 781.0083528019204 L 895.0727706510194 781.0830784359244 L 894.8992132084213 781.1570232054718 L 894.724028722953 781.2301797161472 L 894.547234712917 781.3025406523603 L 894.368848857567 781.3740987780782 L 894.1888889953397 781.4448469375477 L 894.0073731220716 781.5147780560118 L 893.8243193891986 781.583885140417 L 893.6397461019417 781.6521612801124 L 893.4536717174755 781.7195996475409 L 893.2661148430835 781.7861934989221 L 893.0770942342969 781.8519361749262 L 892.886628793019 781.9168211013405 L 892.6947375656351 781.9808417897264 L 892.5014397411084 782.0439918380683 L 892.3067546490598 782.1062649314141 L 892.1107017578366 782.1676548425064 L 891.9133006725644 782.2281554324052 L 891.7145711331874 782.2877606511018 L 891.5145330124936 782.3464645381242 L 891.3132063141287 782.4042612231325 L 891.1106111705947 782.4611449265064 L 890.9067678412368 782.517109959923 L 890.7016967102186 782.5721507269255 L 890.4954182844818 782.6262617234833 L 890.2879531916975 782.6794375385415 L 890.0793221782018 782.731672854563 L 889.8695461069224 782.78296244806 L 889.6586459552914 782.8333011901155 L 889.4466428131483 782.8826840468975 L 889.2335578806307 782.9311060801614 L 889.0194124660543 782.9785624477443 L 888.804227983782 783.0250484040488 L 888.5880259520827 783.0705593005182 L 888.3708279909796 783.1150905861007 L 888.1526558200876 783.1586378077048 L 887.933531256442 783.2011966106447 L 887.7134762123167 783.2427627390756 L 887.4925126930326 783.2833320364193 L 887.2706627947576 783.3229004457797 L 887.0479487022966 783.3614640103491 L 886.8243926868731 783.3990188738029 L 886.6000171039027 783.4355612806863 L 886.3748443907564 783.4710875767889 L 886.148897064518 783.5055942095107 L 885.9221977197318 783.5390777282173 L 885.6947690261434 783.5715347845847 L 885.4666337264325 783.6029621329343 L 885.2378146339393 783.6333566305574 L 885.0083346303819 783.6627152380295 L 884.7782166635699 783.6910350195145 L 884.5474837451078 783.7183131430577 L 884.3161589480954 783.7445468808696 L 884.0842654048196 783.7697336095982 L 883.8518263044415 783.7938708105917 L 883.6188648906774 783.81695607015 L 883.3854044594744 783.8389870797664 L 883.1514683566814 783.8599616363584 L 882.9170799757135 783.8798776424878 L 882.6822627552135 783.8987331065705 L 882.4470401767079 783.9165261430758 L 882.2114357622582 783.933254972715 L 881.9754730721099 783.9489179226189 L 881.7391757023353 783.9635134265056 L 881.5025672824743 783.977040024837 L 881.2656714731717 783.9894963649646 L 881.0285119638112 784.0008812012645 L 880.791112470146 784.0111933952627 L 880.5534967319276 784.0204319157484 L 880.3156885105319 784.0285958388773 L 880.0777115865828 784.0356843482638 L 879.8395897575745 784.0416967350628 L 879.6013468354913 784.0466323980409 L 879.363006644427 784.0504908436357 L 879.124593018202 784.0532716860058 L 878.8861297979802 784.0549746470695 L 878.6476408298851 784.0555995565319 L 878.4091499626145 784.0551463519026 L 878.1706810450567 784.0536150785019 L 877.9322579239044 784.0510058894557 L 877.6939044412715 784.0473190456808 L 877.455644432307 784.0425549158583 L 877.2175017228138 784.0367139763974 L 876.9795001268642 784.0297968113872 L 876.7416634444194 784.0218041125383 L 876.5040154589494 784.0127366791141 L 876.2665799350549 784.0025954178502 L 876.0293806160902 783.9913813428644 L 875.7924412217898 783.9790955755549 L 875.5557854458955 783.965739344488 L 875.3194369537877 783.9513139852759 L 875.0834193801186 783.9358209404423 L 874.847756326449 783.9192617592789 L 874.6124713588879 783.90163809769 L 874.3775880057359 783.882951718027 L 874.1431297551326 783.8632044889123 L 873.9091200527077 783.8423983850525 L 873.6755822992363 783.8205354870405 L 873.4425398482995 783.7976179811479 L 873.2100160039478 783.7736481591063 L 872.9780340183719 783.7486284178779 L 872.7466170895773 783.7225612594158 L 872.5157883590638 783.6954492904142 L 872.2855709095122 783.6672952220476 L 872.0559877624756 783.6381018696992 L 871.8270618760773 783.6078721526799 L 871.5988161427153 783.5766090939362 L 871.3712733867727 783.5443158197481 L 871.1444563623354 783.5109955594158 L 870.918387750917 783.476651644938 L 870.69309015919 783.4412875106771 L 870.4685861167259 783.4049066930172 L 870.244898073742 783.3675128300099 L 870.0220483988561 783.3291096610101 L 869.80005937685 783.2897010263029 L 869.5789532064409 783.2492908667188 L 869.3587519980615 783.2078832232401 L 869.1394777716494 783.1654822365966 L 868.9211524544442 783.1220921468519 L 868.7037978787957 783.0777172929785 L 868.4874357799807 783.032362112425 L 868.2720877940284 782.9860311406715 L 868.0577754555582 782.9387290107766 L 867.844520195625 782.890460452914 L 867.6323433395776 782.8412302938992 L 867.4212661049243 782.791043456707 L 867.2113095992129 782.7399049599794 L 867.002494817919 782.6878199175234 L 866.7948426423467 782.6347935377999 L 866.5883738375405 782.5808311234026 L 866.3831090502089 782.525938070528 L 866.1790688066594 782.4701198684356 L 865.9762735107464 782.4133820988993 L 865.7747434418307 782.3557304356485 L 865.574498752751 782.2971706438017 L 865.3755594678094 782.2377085792891 L 865.1779454807686 782.1773501882677 L 864.9816765528627 782.1161015065263 L 864.7867723108209 782.053968658882 L 864.593252244905 781.9909578585679 L 864.4011357069602 781.9270754066114 L 864.2104419084804 781.8623276912044 L 864.0211899186864 781.7967211870647 L 863.8333986626195 781.7302624547879 L 863.6470869192489 781.6629581401918 L 863.4622733195935 781.5948149736519 L 863.2789763448594 781.525839769428 L 863.0972143245913 781.456039424983 L 862.9170054348397 781.3854209202933 L 862.7383676963434 781.3139913171505 L 862.5613189727275 781.2417577584552 L 862.3858769687166 781.1687274675032 L 862.2120592283652 781.0949077472629 L 862.0398831333023 781.0203059796446 L 861.8693659009939 780.944929624763 L 861.7005245830213 780.8687862201906 L 861.5333760633754 780.7918833802046 L 861.367937056769 780.7142287950248 L 861.2042241069648 780.6358302300451 L 861.0422535851216 780.5566955250567 L 860.8820416881563 780.476832593464 L 860.7236044371251 780.3962494214936 L 860.5669576756213 780.3149540673958 L 860.4121170681905 780.2329546606379 L 860.2590980987641 780.1502594010925 L 860.1079160691119 780.0668765582167 L 859.9585860973106 779.982814470225 L 859.811123116233 779.8980815432564 L 859.6655418720545 779.8126862505329 L 859.521856922778 779.7266371315126 L 859.3800826367789 779.6399427910358 L 859.2402331913675 779.5526118984641 L 859.1023225713717 779.4646531868141 L 858.9663645677387 779.3760754518837 L 858.8323727761556 779.2868875513725 L 858.7003605956899 779.1970984039964 L 858.5703412274495 779.106716988595 L 858.442327673263 779.0157523432348 L 858.3163327343791 778.9242135643045 L 858.1923690101868 778.8321098056056 L 858.0704488969551 778.7394502774372 L 857.9505845865937 778.646244245675 L 857.8327880654338 778.5525010308445 L 857.7170711130293 778.4582300071891 L 857.603445300979 778.3634406017325 L 857.4919219917697 778.2681422933362 L 857.382512337639 778.1723446117518 L 857.2752272794613 778.0760571366676 L 857.170077545653 777.9792894967508 L 857.0670736511 777.8820513686846 L 856.9662258961057 777.7843524762011 L 856.8675443653616 777.686202589108 L 856.7710389269387 777.5876115223122 L 856.6767192313002 777.4885891348381 L 856.5845947103372 777.3891453288421 L 856.494674576425 777.289290048622 L 856.4069678215021 777.1890332796223 L 856.3214832161708 777.0883850474366 L 856.2382293088206 776.9873554168042 L 856.1572144247725 776.885954490604 L 856.0784466654477 776.784192408844 L 856.0019339075565 776.6820793476477 L 855.9276838023106 776.5796255182361 L 855.8557037746591 776.4768411659066 L 855.7860010225444 776.3737365690091 L 855.7185825161839 776.2703220379171 L 855.6534549973719 776.1666079139976 L 855.590624978806 776.0626045685767 L 855.5300987434358 775.958322401902 L 855.4718823438343 775.8537718421036 L 855.4159816015931 775.7489633441501 L 855.3624021067396 775.6439073888039 L 855.3111492171788 775.5386144815733 L 855.262228058157 775.433095151661 L 855.2156435217491 775.3273599509122 L 855.1714002663703 775.2214194527587 L 855.1295027163088 775.1152842511623 L 855.0899550612851 775.0089649595545 L 855.0527612560314 774.902472209776 L 855.0179250198976 774.7958166510128 L 854.9854498364779 774.6890089487323 L 854.9553389532639 774.5820597836154 L 854.9275953813186 774.4749798504895 L 854.9022218949763 774.3677798572587 L 854.8792210315643 774.2604705238331 L 854.8585950911498 774.1530625810566 L 854.8403461363097 774.0455667696339 L 854.8244759919243 773.9379938390566 L 854.8109862449948 773.830354546528 L 854.7998782444845 773.7226596558879 L 854.7911531011845 773.6149199365354 L 854.7848116876015 773.5071461623528 L 854.7808546378719 773.3993491106276 L 854.7792823476972 773.2915395609751 L 854.7800949743051 773.1837282942606 L 854.7832924364337 773.0759260915208 L 854.7888744143394 772.9681437328862 L 854.796840349829 772.8603919965028 L 854.8071894463158 772.7526816574544 L 854.8199206688986 772.6450234866853 L 854.8350327444657 772.5374282499228 L 854.8525241618223 772.4299067066008 L 854.8723931718412 772.3224696087841 L 854.8946377876377 772.215127700093 L 854.9192557847692 772.107891714629 L 854.9462447014562 772.000772375901 L 854.9756018388296 771.8937803957539 L 855.0073242612001 771.7869264732963 L 855.041408796352 771.6802212938316 L 855.07785203586 771.5736755277887 L 855.1166503354308 771.4672998296555 L 855.1577998152665 771.3611048369132 L 855.2012963604535 771.2551011689725 L 855.2471356213736 771.1492994261118 L 855.2953130141387 771.0437101884174 L 855.34582372105 770.938344014725 L 855.3986626910786 770.833211441564 L 855.4538246403717 770.7283229821044 L 855.5113040527804 770.6236891251044 L 855.5710951804111 770.5193203338629 L 855.633192044201 770.4152270451716 L 855.6975884345155 770.3114196682731 L 855.7642779117693 770.2079085838182 L 855.8332538070702 770.1047041428293 L 855.904509222886 770.0018166656644 L 855.9780370337346 769.8992564409855 L 856.0538298868962 769.7970337247295 L 856.1318802031486 769.6951587390831 L 856.2121801775254 769.5936416714599 L 856.2947217800958 769.4924926734818 L 856.3794967567685 769.3917218599646 L 856.4664966301165 769.2913393079056 L 856.5557127002248 769.1913550554762 L 856.647136045561 769.0917791010185 L 856.7407575238665 768.9926214020448 L 856.8365677730715 768.8938918742426 L 856.9345572122311 768.7956003904823 L 857.034716042483 768.6977567798303 L 857.1370342480275 768.6003708265662 L 857.2415015971293 768.5034522692041 L 857.3481076431408 768.4070107995191 L 857.456841725546 768.3110560615777 L 857.5676929710273 768.2155976507737 L 857.6806502945527 768.1206451128687 L 857.7957024004838 768.0262079430374 L 857.912837783706 767.932295584918 L 858.0320447307784 767.8389174296681 L 858.1533113211058 767.7460828150254 L 858.2766254281303 767.653801024374 L 858.4019747205436 767.562081285816 L 858.5293466635213 767.470932771249 L 858.6587285199752 767.3803645954483 L 858.7901073518273 767.2903858151561 L 858.9234700213038 767.2010054281754 L 859.0588031922492 767.1122323724707 L 859.1960933314591 767.024075525273 L 859.3353267100339 766.9365437021942 L 859.4764894047518 766.8496456563432 L 859.6195672994609 766.7633900774523 L 859.764546086491 766.6777855910077 L 859.9114112680843 766.5928407573865 L 860.060148157845 766.5085640710013 L 860.2107418822079 766.4249639594506 L 860.3631773819263 766.3420487826756 L 860.5174394135771 766.2598268321254 L 860.6735125510858 766.1783063299262 L 860.8313811872686 766.0974954280603 L 860.9910295353935 766.0174022075505 L 861.1524416307586 765.9380346776522 L 861.3156013322891 765.8594007750522 L 861.4804923241506 765.7815083630754 L 861.6470981173816 765.7043652308979 L 861.8154020515414 765.6279790927687 L 861.9853872963766 765.5523575872379 L 862.1570368535049 765.4775082763931 L 862.3303335581134 765.4034386451029 L 862.5052600806758 765.3301561002689 L 862.681798928686 765.2576679700844 L 862.8599324484061 765.1859815033021 L 863.0396428266326 765.1151038685088 L 863.2209120924775 765.0450421534089 L 863.4037221191652 764.9758033641157 L 863.5880546258454 764.9073944244502 L 863.7738911794212 764.8398221752497 L 863.9612131963918 764.7730933736824 L 864.1500019447117 764.7072146925732 L 864.3402385456635 764.642192719735 L 864.5319039757456 764.5780339573113 L 864.7249790685747 764.5147448211244 L 864.9194445168024 764.4523316400355 L 865.115280874046 764.3908006553106 L 865.3124685568328 764.330158019997 L 865.510987846559 764.2704097983076 L 865.710818891461 764.2115619650147 L 865.9119417086008 764.1536204048527 L 866.1143361858644 764.0965909119293 L 866.3179820839728 764.0404791891464 L 866.5228590385055 763.9852908476292 L 866.7289465619382 763.9310314061662 L 866.9362240456901 763.8777062906561 L 867.1446707621856 763.8253208335661 L 867.3542658669268 763.7738802733984 L 867.5649884005777 763.7233897541659 L 867.7768172910608 763.6738543248784 L 867.9897313556634 763.6252789390379 L 868.2037093031565 763.5776684541423 L 868.4187297359238 763.5310276312003 L 868.6347711521009 763.4853611342556 L 868.8518119477264 763.4406735299196 L 869.0698304189018 763.3969692869156 L 869.2888047639614 763.3542527756315 L 869.5087130856532 763.3125282676826 L 869.7295333933283 763.2717999354853 L 869.95124360514 763.2320718518387 L 870.1738215502519 763.1933479895181 L 870.3972449710549 763.1556322208772 L 870.621491525393 763.1189283174618 L 870.846538788798 763.0832399496315 L 871.0723642567307 763.0485706861934 L 871.2989453468327 763.0149239940448 L 871.5262594011839 762.9823032378271 L 871.754283688568 762.9507116795885 L 871.9829954067465 762.9201524784586 L 872.2123716847381 762.8906286903322 L 872.4423895851062 762.8621432675633 L 872.6730261062523 762.8346990586705 L 872.9042581847167 762.8082988080517 L 873.136062697484 762.7829451557103 L 873.3684164642964 762.7586406369901 L 873.6012962499706 762.7353876823228 L 873.8346787667222 762.7131886169846 L 874.068540676494 762.6920456608633 L 874.3028585932898 762.6719609282371 L 874.5376090855133 762.6529364275625 L 874.7727686783109 762.6349740612736 L 875.0083138559193 762.6180756255922 L 875.2442210640169 762.6022428103477 L 875.4804667120796 762.5874771988084 L 875.7170271757394 762.5737802675231 L 875.9538787991472 762.5611533861738 L 876.1909978973379 762.5495978174379 L 876.4283607585993 762.5391147168626 L 876.6659436468431 762.5297051327493 L 876.9037228039783 762.5213700060486 L 877.1416744522877 762.5141101702662 L 877.3797747968044 762.5079263513795 L 877.6180000276926 762.5028191677656 L 877.8563263226276 762.4987891301381 L 878.0947298491786 762.4958366414977 L 878.3331867671915 762.4939619970909 L 878.5716732311733 762.4931653843803 L 878.8101653926764 762.4934468830266 L 879.0486394026832 762.4948064648804 L 879.2870714139916 762.4972439939843 L 879.5254375835991 762.5007592265877 L 879.7637140750874 762.5053518111702 L 880.0018770610059 762.511021288477 L 880.2399027252544 762.5177670915652 L 880.4777672654649 762.5255885458602 L 880.7154468953815 762.534484869223 L 880.9529178472396 762.5444551720286 L 881.1901563741416 762.5554984572553 L 881.4271387524325 762.5676136205835 L 881.6638412840721 762.5807994505071 L 881.9002402990044 762.595054628454 L 882.136312157525 762.6103777289185 L 882.3720332526447 762.626767219603 L 882.6073800124503 762.6442214615724 L 882.8423289024622 762.6627387094169 L 883.076856427987 762.682317111427 L 883.3109391364677 762.7029547097791 L 883.5445536198284 762.7246494407304 L 883.7776765168155 762.7473991348259 L 884.0102845153336 762.7712015171152 L 884.2423543547767 762.7960542073798 L 884.4738628283542 762.8219547203715 L 884.7047867854117 762.8489004660605 L 884.9351031337459 762.8768887498949 L 885.1647888419138 762.9059167730693 L 885.3938209415362 762.9359816328057 L 885.6221765295938 762.9670803226433 L 885.8498327707183 762.9992097327389 L 886.076766899475 763.0323666501783 L 886.3029562226404 763.0665477592976 L 886.5283781214707 763.1017496420139 L 886.7530100539636 763.1379687781687 L 886.9768295571133 763.1752015458784 L 887.1998142491559 763.2134442218971 L 887.4219418318079 763.2526929819894 L 887.6431900924964 763.2929439013118 L 887.8635369065795 763.3341929548059 L 888.0829602395594 763.3764360176008 L 888.3014381492858 763.4196688654253 L 888.5189487881497 763.4638871750308 L 888.7354704052685 763.5090865246231 L 888.9509813486609 763.5552623943048 L 889.1654600674121 763.6024101665276 L 889.3788851138291 763.6505251265536 L 889.5912351455851 763.6996024629267 L 889.8024889278538 763.7496372679543 L 890.012625335433 763.8006245381976 L 890.221623354857 763.8525591749719 L 890.4294620864982 763.9054359848569 L 890.6361207466565 763.9592496802157 L 890.8415786696382 764.0139948797238 L 891.0458153098222 764.0696661089064 L 891.2488102437145 764.1262578006874 L 891.4505431719911 764.1837642959446 L 891.6509939215272 764.2421798440763 L 891.8501424474148 764.3014986035766 L 892.0479688349674 764.3617146426188 L 892.244453301711 764.4228219396493 L 892.4395761993628 764.4848143839893 L 892.6333180157956 764.547685776446 L 892.8256593769889 764.6114298299324 L 893.0165810489674 764.6760401700965 L 893.2060639397225 764.741510335958 L 893.3940891011234 764.8078337805549 L 893.5806377308105 764.875003871598 L 893.7656911740762 764.9430138921342 L 893.9492309257305 765.0118570412181 L 894.1312386319512 765.0815264345922 L 894.3116960921193 765.1520151053752 L 894.4905852606391 765.2233160047588 L 894.6678882487429 765.2954220027123 L 894.8435873262797 765.3683258886962 L 895.017664923488 765.4420203723826 L 895.1901036327533 765.5164980843844 L 895.3608862103483 765.5917515769926 L 895.5299955781576 765.6677733249206 L 895.6974148253852 765.7445557260571 L 895.863127210246 765.8220911022258 L 896.0271161616397 765.9003716999539 L 896.1893652808077 765.9793896912466 L 896.3498583429733 766.0591371743707 L 896.5085792989642 766.1396061746444 L 896.6655122768167 766.2207886452348 L 896.820641583364 766.3026764679623 L 896.9739517058049 766.3852614541131 L 897.1254273132546 766.4685353452571 L 897.2750532582787 766.5524898140749 L 897.4228145784075 766.6371164651894 L 897.568696497632 766.722406836006 L 897.7126844278819 766.8083523975588 L 897.8547639704841 766.8949445553632 L 897.9949209176028 766.9821746502755 L 898.13314125366 767.0700339593591 L 898.2694111567374 767.1585136967561 L 898.4037169999582 767.2476050145667 L 898.53604535285 767.3372990037332 L 898.6663829826877 767.4275866949314 L 898.794716855817 767.5184590594675 L 898.9210341389577 767.6099070101809 L 899.0453222004863 767.7019214023526 L 899.1675686117007 767.7944930346199 L 899.2877611480615 767.887612649897 L 899.4058877904151 767.9812709362999 L 899.5219367261958 768.0754585280779 L 899.6358963506067 768.1701660065503 L 899.7477552677803 768.2653839010484 L 899.8575022919182 768.3611026898618 L 899.9651264484094 768.4573128011916 L 900.0706169749278 768.5540046141068 L 900.1739633225088 768.6511684595066 L 900.2751551566038 768.7487946210875 L 900.3741823581137 768.8468733363147 L 900.4710350244006 768.9453947973984 L 900.565703470279 769.0443491522745 L 900.6581782289829 769.1437265055902 L 900.7484500531137 769.2435169196928 L 900.8365099155641 769.3437104156241 L 900.9223490104212 769.444296974118 L 901.0059587538472 769.5452665366023 L 901.0873307849371 769.6466090062053 L 901.166456966556 769.748314248764 L 901.2433293861515 769.8503720938393 L 901.3179403565456 769.9527723357315 L 901.3902824167037 770.0555047345019 L 901.4603483324798 770.1585590169963 L 901.5281310973409 770.2619248778719 L 901.5936239330669 770.3655919806292 L 901.6568202904286 770.4695499586442 L 901.7177138498434 770.5737884162056 L 901.7762985220058 770.6782969295547 L 901.8325684484975 770.783065047927 L 901.8865180023727 770.8880822945982 L 901.9381417887209 770.9933381679311 L 901.9874346452066 771.098822142426 L 902.0343916425852 771.2045236697735 L 902.079008085196 771.3104321799087 L 902.1212795114321 771.416537082069 L 902.1612016941859 771.5228277658528 L 902.1987706412726 771.6292936022799 L 902.2339825958286 771.7359239448556 L 902.2668340366879 771.8427081306345 L 902.2973216787339 771.9496354812869 L 902.3254424732276 772.056695304167 L 902.3511936081129 772.1638768933817 L 902.3745725082981 772.2711695308612 L 902.3955768359124 772.3785624874314 L 902.4142044905407 772.486045023886 L 902.4304536094329 772.5936063920611 L 902.4443225676908 772.7012358359093 L 902.4558099784301 772.808922592576 L 902.4649146929193 772.9166558934753 L 902.4716358006945 773.0244249653667 L 902.4759726296504 773.1322190314331 L 902.477924746108 773.2400273123576 M 902.478045736164 807.5782957269181 L 902.4768532762603 807.6861062718348 L 902.4732760157942 807.7939060357867 L 902.467314312489 807.9016842388875 L 902.4589687625096 808.0094301034065 L 902.4482402004044 808.1171328548472 L 902.4351296990205 808.2247817230241 L 902.4196385693973 808.3323659431402 L 902.4017683606347 808.439874756863 L 902.3815208597387 808.5472974134008 L 902.3588980914425 808.6546231705775 L 902.3339023180041 808.7618412959066 L 902.3065360389801 808.8689410676652 L 902.2768019909755 808.9759117759653 L 902.2447031473704 809.0827427238252 L 902.2102427180223 809.189423228239 L 902.1734241489455 809.2959426212453 L 902.1342511219661 809.4022902509935 L 902.0927275543544 809.5084554828094 L 902.0488575984324 809.614427700258 L 902.002645641159 809.7201963062062 L 901.9540963036917 809.8257507238814 L 901.9032144409236 809.9310803979296 L 901.8500051409987 810.0361747954714 L 901.7944737248025 810.1410234071546 L 901.7366257454305 810.2456157482055 L 901.6764669876324 810.3499413594769 L 901.6140034672337 810.4539898084947 L 901.5492414305345 810.5577506905008 L 901.4821873536845 810.6612136294935 L 901.4128479420356 810.764368279265 L 901.3412301294709 810.8672043244362 L 901.2673410777122 810.9697114814885 L 901.1911881756032 811.0718794997915 L 901.1127790383704 811.1736981626285 L 901.0321215068623 811.2751572882181 L 900.9492236467648 811.3762467307322 L 900.864093747795 811.476956381311 L 900.7767403228715 811.5772761690731 L 900.6871721072644 811.6771960621236 L 900.5953980577203 811.7767060685562 L 900.5014273515678 811.8757962374534 L 900.4052693857993 811.9744566598807 L 900.3069337761312 812.0726774698782 L 900.2064303560423 812.1704488454467 L 900.1037691757913 812.2677610095301 L 899.9989605014102 812.3646042309931 L 899.8920148136793 812.4609688255944 L 899.7829428070784 812.5568451569546 L 899.6717553887171 812.6522236375206 L 899.5584636772445 812.7470947295238 L 899.4430790017376 812.8414489459341 L 899.3256129005675 812.9352768514084 L 899.2060771202466 813.0285690632344 L 899.0844836142534 813.1213162522686 L 898.960844541837 813.2135091438695 L 898.8351722668016 813.3051385188246 L 898.7074793562701 813.3961952142729 L 898.5777785794271 813.4866701246208 L 898.4460829062422 813.5765542024525 L 898.3124055061729 813.6658384594351 L 898.176759746848 813.7545139672175 L 898.0391591927302 813.8425718583226 L 897.8996176037602 813.9300033270348 L 897.7581489339809 814.0167996302802 L 897.6147673301411 814.1029520885005 L 897.469487130282 814.1884520865218 L 897.3223228623021 814.2732910744157 L 897.173289242506 814.357460568354 L 897.0224011741311 814.4409521514574 L 896.8696737458588 814.5237574746373 L 896.7151222303046 814.6058682574301 L 896.5587620824911 814.6872762888263 L 896.4006089383028 814.7679734280904 L 896.2406786129225 814.8479516055758 L 896.0789870992493 814.9272028235312 L 895.9155505663 815.0057191569011 L 895.7503853575914 815.0834927541175 L 895.5835079895071 815.1605158378856 L 895.4149351496446 815.236780705961 L 895.2446836951475 815.3122797319205 L 895.0727706510194 815.3870053659246 L 894.8992132084213 815.4609501354719 L 894.724028722953 815.5341066461473 L 894.547234712917 815.6064675823604 L 894.368848857567 815.6780257080783 L 894.1888889953397 815.7487738675478 L 894.0073731220716 815.8187049860119 L 893.8243193891986 815.8878120704171 L 893.6397461019417 815.9560882101125 L 893.4536717174755 816.023526577541 L 893.2661148430835 816.0901204289222 L 893.0770942342969 816.1558631049263 L 892.886628793019 816.2207480313406 L 892.6947375656351 816.2847687197265 L 892.5014397411084 816.3479187680684 L 892.3067546490598 816.4101918614142 L 892.1107017578366 816.4715817725065 L 891.9133006725644 816.5320823624053 L 891.7145711331874 816.591687581102 L 891.5145330124936 816.6503914681243 L 891.3132063141287 816.7081881531326 L 891.1106111705947 816.7650718565066 L 890.9067678412368 816.8210368899231 L 890.7016967102186 816.8760776569256 L 890.4954182844818 816.9301886534834 L 890.2879531916975 816.9833644685416 L 890.0793221782018 817.0355997845631 L 889.8695461069224 817.08688937806 L 889.6586459552914 817.1372281201157 L 889.4466428131483 817.1866109768976 L 889.2335578806307 817.2350330101615 L 889.0194124660543 817.2824893777444 L 888.804227983782 817.3289753340489 L 888.5880259520827 817.3744862305183 L 888.3708279909796 817.4190175161008 L 888.1526558200876 817.462564737705 L 887.933531256442 817.5051235406448 L 887.7134762123167 817.5466896690757 L 887.4925126930326 817.5872589664194 L 887.2706627947576 817.6268273757798 L 887.0479487022966 817.6653909403492 L 886.8243926868731 817.702945803803 L 886.6000171039027 817.7394882106864 L 886.3748443907564 817.775014506789 L 886.148897064518 817.8095211395108 L 885.9221977197318 817.8430046582175 L 885.6947690261434 817.8754617145848 L 885.4666337264325 817.9068890629344 L 885.2378146339393 817.9372835605575 L 885.0083346303819 817.9666421680296 L 884.7782166635699 817.9949619495146 L 884.5474837451078 818.0222400730578 L 884.3161589480954 818.0484738108697 L 884.0842654048196 818.0736605395983 L 883.8518263044415 818.0977977405918 L 883.6188648906774 818.1208830001501 L 883.3854044594744 818.1429140097665 L 883.1514683566814 818.1638885663585 L 882.9170799757135 818.1838045724879 L 882.6822627552135 818.2026600365706 L 882.4470401767079 818.2204530730759 L 882.2114357622582 818.2371819027151 L 881.9754730721099 818.252844852619 L 881.7391757023353 818.2674403565057 L 881.5025672824743 818.2809669548371 L 881.2656714731717 818.2934232949647 L 881.0285119638112 818.3048081312646 L 880.791112470146 818.3151203252628 L 880.5534967319276 818.3243588457485 L 880.3156885105319 818.3325227688774 L 880.0777115865828 818.3396112782639 L 879.8395897575745 818.3456236650629 L 879.6013468354913 818.350559328041 L 879.363006644427 818.3544177736358 L 879.124593018202 818.3571986160059 L 878.8861297979802 818.3589015770696 L 878.6476408298851 818.359526486532 L 878.4091499626145 818.3590732819027 L 878.1706810450567 818.357542008502 L 877.9322579239044 818.3549328194558 L 877.6939044412715 818.3512459756807 L 877.455644432307 818.3464818458584 L 877.2175017228138 818.3406409063975 L 876.9795001268642 818.3337237413873 L 876.7416634444194 818.3257310425385 L 876.5040154589494 818.3166636091142 L 876.2665799350549 818.3065223478503 L 876.0293806160902 818.2953082728645 L 875.7924412217898 818.283022505555 L 875.5557854458955 818.2696662744881 L 875.3194369537877 818.255240915276 L 875.0834193801186 818.2397478704424 L 874.847756326449 818.223188689279 L 874.6124713588879 818.2055650276901 L 874.3775880057359 818.1868786480271 L 874.1431297551326 818.1671314189124 L 873.9091200527077 818.1463253150526 L 873.6755822992363 818.1244624170406 L 873.4425398482995 818.101544911148 L 873.2100160039478 818.0775750891064 L 872.9780340183719 818.052555347878 L 872.7466170895773 818.0264881894159 L 872.5157883590638 817.9993762204143 L 872.2855709095122 817.9712221520477 L 872.0559877624756 817.9420287996993 L 871.8270618760773 817.91179908268 L 871.5988161427153 817.8805360239363 L 871.3712733867727 817.8482427497482 L 871.1444563623354 817.814922489416 L 870.918387750917 817.7805785749381 L 870.69309015919 817.7452144406772 L 870.4685861167259 817.7088336230173 L 870.244898073742 817.67143976001 L 870.0220483988561 817.6330365910102 L 869.80005937685 817.593627956303 L 869.5789532064409 817.5532177967189 L 869.3587519980615 817.5118101532402 L 869.1394777716494 817.4694091665967 L 868.9211524544442 817.426019076852 L 868.7037978787957 817.3816442229786 L 868.4874357799807 817.336289042425 L 868.2720877940284 817.2899580706716 L 868.0577754555582 817.2426559407767 L 867.844520195625 817.1943873829141 L 867.6323433395776 817.1451572238993 L 867.4212661049243 817.0949703867071 L 867.2113095992129 817.0438318899795 L 867.002494817919 816.9917468475235 L 866.7948426423467 816.9387204678 L 866.5883738375405 816.8847580534027 L 866.3831090502089 816.8298650005281 L 866.1790688066594 816.7740467984357 L 865.9762735107464 816.7173090288994 L 865.7747434418307 816.6596573656486 L 865.574498752751 816.6010975738018 L 865.3755594678094 816.5416355092892 L 865.1779454807686 816.4812771182678 L 864.9816765528627 816.4200284365264 L 864.7867723108209 816.3578955888821 L 864.593252244905 816.294884788568 L 864.4011357069602 816.2310023366115 L 864.2104419084804 816.1662546212045 L 864.0211899186864 816.1006481170648 L 863.8333986626195 816.034189384788 L 863.6470869192489 815.9668850701919 L 863.4622733195935 815.898741903652 L 863.2789763448594 815.8297666994281 L 863.0972143245913 815.7599663549831 L 862.9170054348397 815.6893478502934 L 862.7383676963434 815.6179182471506 L 862.5613189727275 815.5456846884553 L 862.3858769687166 815.4726543975033 L 862.2120592283652 815.398834677263 L 862.0398831333023 815.3242329096447 L 861.8693659009939 815.248856554763 L 861.7005245830213 815.1727131501907 L 861.5333760633754 815.0958103102047 L 861.367937056769 815.0181557250249 L 861.2042241069648 814.9397571600452 L 861.0422535851216 814.8606224550568 L 860.8820416881563 814.7807595234641 L 860.7236044371251 814.7001763514937 L 860.5669576756213 814.6188809973959 L 860.4121170681905 814.536881590638 L 860.2590980987641 814.4541863310926 L 860.1079160691119 814.3708034882168 L 859.9585860973106 814.2867414002251 L 859.811123116233 814.2020084732565 L 859.6655418720545 814.116613180533 L 859.521856922778 814.0305640615127 L 859.3800826367789 813.9438697210359 L 859.2402331913675 813.8565388284642 L 859.1023225713717 813.7685801168142 L 858.9663645677387 813.6800023818838 L 858.8323727761556 813.5908144813726 L 858.7003605956899 813.5010253339965 L 858.5703412274495 813.4106439185952 L 858.442327673263 813.3196792732349 L 858.3163327343791 813.2281404943046 L 858.1923690101868 813.1360367356057 L 858.0704488969551 813.0433772074373 L 857.9505845865937 812.9501711756751 L 857.8327880654338 812.8564279608446 L 857.7170711130293 812.7621569371892 L 857.603445300979 812.6673675317326 L 857.4919219917697 812.5720692233363 L 857.382512337639 812.4762715417519 L 857.2752272794613 812.3799840666677 L 857.170077545653 812.2832164267509 L 857.0670736511 812.1859782986847 L 856.9662258961057 812.0882794062012 L 856.8675443653616 811.9901295191081 L 856.7710389269387 811.8915384523123 L 856.6767192313002 811.7925160648382 L 856.5845947103372 811.6930722588422 L 856.494674576425 811.5932169786221 L 856.4069678215021 811.4929602096224 L 856.3214832161708 811.3923119774367 L 856.2382293088206 811.2912823468043 L 856.1572144247725 811.1898814206041 L 856.0784466654477 811.0881193388441 L 856.0019339075565 810.9860062776478 L 855.9276838023106 810.8835524482362 L 855.8557037746591 810.7807680959068 L 855.7860010225444 810.6776634990092 L 855.7185825161839 810.5742489679172 L 855.6534549973719 810.4705348439977 L 855.590624978806 810.3665314985768 L 855.5300987434358 810.2622493319021 L 855.4718823438343 810.1576987721037 L 855.4159816015931 810.0528902741502 L 855.3624021067396 809.947834318804 L 855.3111492171788 809.8425414115734 L 855.262228058157 809.737022081661 L 855.2156435217491 809.6312868809123 L 855.1714002663703 809.5253463827588 L 855.1295027163088 809.4192111811624 L 855.0899550612851 809.3128918895546 L 855.0527612560314 809.2063991397761 L 855.0179250198976 809.099743581013 L 854.9854498364779 808.9929358787324 L 854.9553389532639 808.8859867136155 L 854.9275953813186 808.7789067804896 L 854.9022218949763 808.6717067872588 L 854.8792210315643 808.5643974538332 L 854.8585950911498 808.4569895110567 L 854.8403461363097 808.349493699634 L 854.8244759919243 808.2419207690567 L 854.8109862449948 808.1342814765281 L 854.7998782444845 808.026586585888 L 854.7911531011845 807.9188468665355 L 854.7848116876015 807.8110730923529 L 854.7808546378719 807.7032760406277 L 854.7792823476972 807.5954664909752" stroke-miterlimit="10" stroke-width="2.7769845610000004" stroke-dasharray=""/></g><g><g/><text fill="black" stroke="none" font-family="sans-serif" font-size="11pt" font-style="normal" font-weight="normal" text-decoration="normal" x="847.2507039718749" y="756.008058908818" text-anchor="start" dominant-baseline="alphabetic" xml:space="preserve">Database</text></g></g><g><path fill="white" stroke="black" paint-order="fill stroke markers" d=" M 73.50841485 182.64242307881818 L 89.84361814999998 182.64242307881818 L 89.84361814999998 682.499644058818 L 73.50841485 682.499644058818 L 73.50841485 182.64242307881818" stroke-miterlimit="10" stroke-width="1.3612669416666667" stroke-dasharray=""/><path fill="white" stroke="black" paint-order="fill stroke markers" d=" M 329.0232856495442 182.64242307881818 L 345.3584889495442 182.64242307881818 L 345.3584889495442 682.499644058818 L 329.0232856495442 682.499644058818 L 329.0232856495442 182.64242307881818" stroke-miterlimit="10" stroke-width="1.3612669416666667" stroke-dasharray=""/><path fill="white" stroke="black" paint-order="fill stroke markers" d=" M 577.9955539100259 228.3809923188182 L 594.330757210026 228.3809923188182 L 594.330757210026 682.499644058818 L 577.9955539100259 682.499644058818 L 577.9955539100259 228.3809923188182" stroke-miterlimit="10" stroke-width="1.3612669416666667" stroke-dasharray=""/><path fill="white" stroke="black" paint-order="fill stroke markers" d=" M 870.461047268164 339.4603747588182 L 886.796250568164 339.4603747588182 L 886.796250568164 682.499644058818 L 870.461047268164 682.499644058818 L 870.461047268164 339.4603747588182" stroke-miterlimit="10" stroke-width="1.3612669416666667" stroke-dasharray=""/><g><text fill="black" stroke="none" font-family="sans-serif" font-size="16pt" font-style="normal" font-weight="normal" text-decoration="normal" x="427.2374801635742" y="24.651306798181814" text-anchor="start" dominant-baseline="alphabetic" xml:space="preserve">Tothitb</text></g><g><rect fill="white" stroke="none" x="121.09199708836583" y="161.4066587888182" width="176.6829096228125" height="21.23576429"/><text fill="black" stroke="none" font-family="sans-serif" font-size="11pt" font-style="normal" font-weight="normal" text-decoration="normal" x="123.54227758336583" y="176.10834175881817" text-anchor="start" dominant-baseline="alphabetic" xml:space="preserve">Nhpthngtinthitbmi</text></g><g><path fill="none" stroke="black" paint-order="fill stroke markers" d=" M 89.84361814999998 182.64242307881818 L 315.57396826587757 182.64242307881818" stroke-miterlimit="10" stroke-width="1.3612669416666667" stroke-dasharray=""/><g transform="translate(329.0232856495442,182.64242307881818) translate(-329.0232856495442,-182.64242307881818)"><path fill="black" stroke="none" paint-order="stroke fill markers" d=" M 315.41061623287754 175.83608837048484 L 329.0232856495442 182.64242307881818 L 315.41061623287754 189.44875778715152 Z"/></g></g><g><rect fill="white" stroke="none" x="393.19955740207024" y="207.1452280288182" width="136.9549280554297" height="21.23576429"/><text fill="black" stroke="none" font-family="sans-serif" font-size="11pt" font-style="normal" font-weight="normal" text-decoration="normal" x="395.64983789707026" y="221.84691099881817" text-anchor="start" dominant-baseline="alphabetic" xml:space="preserve">Githngtinthitb</text></g><g><path fill="none" stroke="black" paint-order="fill stroke markers" d=" M 345.3584889495442 228.3809923188182 L 564.5462365263593 228.3809923188182" stroke-miterlimit="10" stroke-width="1.3612669416666667" stroke-dasharray=""/><g transform="translate(577.9955539100259,228.3809923188182) translate(-577.9955539100259,-228.3809923188182)"><path fill="black" stroke="none" paint-order="stroke fill markers" d=" M 564.3828844933593 221.57465761048485 L 577.9955539100259 228.3809923188182 L 564.3828844933593 235.18732702715153 Z"/></g></g><g><rect fill="white" stroke="none" x="613.6607477816927" y="252.88379726881823" width="103.49751533570313" height="21.23576429"/><text fill="black" stroke="none" font-family="sans-serif" font-size="11pt" font-style="normal" font-weight="normal" text-decoration="normal" x="616.1110282766928" y="267.5854802388182" text-anchor="start" dominant-baseline="alphabetic" xml:space="preserve">Kimtraquyn</text></g><g><path fill="none" stroke="black" paint-order="fill stroke markers" d=" M 594.330757210026 274.1195615588182 L 659.671570410026 274.1195615588182 L 659.671570410026 295.3553258488182 L 607.7800745936927 295.3553258488182" stroke-miterlimit="10" stroke-width="1.3612669416666667" stroke-dasharray=""/><g transform="translate(594.330757210026,295.3553258488182) translate(-594.330757210026,-295.3553258488182)"><path fill="black" stroke="none" paint-order="stroke fill markers" d=" M 607.9434266266927 288.5489911404849 L 594.330757210026 295.3553258488182 L 607.9434266266927 302.16166055715155 Z"/></g></g><g><rect fill="white" stroke="none" x="613.6607477816926" y="363.9631797088182" width="237.4703089148047" height="21.23576429"/><text fill="black" stroke="none" font-family="sans-serif" font-size="11pt" font-style="normal" font-weight="normal" text-decoration="normal" x="616.1110282766927" y="378.66486267881817" text-anchor="start" dominant-baseline="alphabetic" xml:space="preserve">Thmthitbmivocsdliu</text></g><g><path fill="none" stroke="black" paint-order="fill stroke markers" d=" M 594.330757210026 385.1989439988182 L 857.0117298844973 385.1989439988182" stroke-miterlimit="10" stroke-width="1.3612669416666667" stroke-dasharray=""/><g transform="translate(870.461047268164,385.1989439988182) translate(-870.461047268164,-385.1989439988182)"><path fill="black" stroke="none" paint-order="stroke fill markers" d=" M 856.8483778514973 378.39260929048487 L 870.461047268164 385.1989439988182 L 856.8483778514973 392.00527870715155 Z"/></g></g><g><rect fill="white" stroke="none" x="643.6213801059114" y="409.7017489488182" width="177.5490442663672" height="21.23576429"/><text fill="black" stroke="none" font-family="sans-serif" font-size="11pt" font-style="normal" font-weight="normal" text-decoration="normal" x="646.0716606009114" y="424.40343191881817" text-anchor="start" dominant-baseline="alphabetic" xml:space="preserve">Xcnhnthitbcto</text></g><g><path fill="none" stroke="black" paint-order="fill stroke markers" d=" M 870.461047268164 430.9375132388182 L 607.7800745936927 430.9375132388182" stroke-miterlimit="10" stroke-width="1.3612669416666667" stroke-dasharray="6.53408132"/><g transform="translate(594.330757210026,430.9375132388182) translate(-594.330757210026,-430.9375132388182)"><path fill="black" stroke="none" paint-order="stroke fill markers" d=" M 607.9434266266927 424.1311785304849 L 594.330757210026 430.9375132388182 L 607.9434266266927 437.74384794715155 Z"/></g></g><g><rect fill="white" stroke="none" x="373.6397887253124" y="455.4403181888182" width="176.07446540894531" height="21.23576429"/><text fill="black" stroke="none" font-family="sans-serif" font-size="11pt" font-style="normal" font-weight="normal" text-decoration="normal" x="376.09006922031244" y="470.1420011588182" text-anchor="start" dominant-baseline="alphabetic" xml:space="preserve">Thngbotothnhcng</text></g><g><path fill="none" stroke="black" paint-order="fill stroke markers" d=" M 577.9955539100259 476.6760824788182 L 358.80780633321086 476.6760824788182" stroke-miterlimit="10" stroke-width="1.3612669416666667" stroke-dasharray="6.53408132"/><g transform="translate(345.3584889495442,476.6760824788182) translate(-345.3584889495442,-476.6760824788182)"><path fill="black" stroke="none" paint-order="stroke fill markers" d=" M 358.9711583662109 469.8697477704849 L 345.3584889495442 476.6760824788182 L 358.9711583662109 483.48241718715155 Z"/></g></g><g><rect fill="white" stroke="none" x="109.17360872166661" y="501.17888742881814" width="200.51968635621094" height="21.23576429"/><text fill="black" stroke="none" font-family="sans-serif" font-size="11pt" font-style="normal" font-weight="normal" text-decoration="normal" x="111.62388921666661" y="515.8805703988181" text-anchor="start" dominant-baseline="alphabetic" xml:space="preserve">Hinththngbothnhcng</text></g><g><path fill="none" stroke="black" paint-order="fill stroke markers" d=" M 329.0232856495442 522.4146517188182 L 103.29293553366665 522.4146517188182" stroke-miterlimit="10" stroke-width="1.3612669416666667" stroke-dasharray="6.53408132"/><g transform="translate(89.84361814999998,522.4146517188182) translate(-89.84361814999998,-522.4146517188182)"><path fill="black" stroke="none" paint-order="stroke fill markers" d=" M 103.45628756666665 515.6083170104848 L 89.84361814999998 522.4146517188182 L 103.45628756666665 529.2209864271515 Z"/></g></g><g><rect fill="white" stroke="none" x="364.68847952121087" y="591.022505578818" width="193.97708381714844" height="21.23576429"/><text fill="black" stroke="none" font-family="sans-serif" font-size="11pt" font-style="normal" font-weight="normal" text-decoration="normal" x="367.1387600162109" y="605.724188548818" text-anchor="start" dominant-baseline="alphabetic" xml:space="preserve">Thngboliquyntruycp</text></g><g><path fill="none" stroke="black" paint-order="fill stroke markers" d=" M 577.9955539100259 612.258269868818 L 358.80780633321086 612.258269868818" stroke-miterlimit="10" stroke-width="1.3612669416666667" stroke-dasharray="6.53408132"/><g transform="translate(345.3584889495442,612.258269868818) translate(-345.3584889495442,-612.258269868818)"><path fill="black" stroke="none" paint-order="stroke fill markers" d=" M 358.9711583662109 605.4519351604847 L 345.3584889495442 612.258269868818 L 358.9711583662109 619.0646045771514 Z"/></g></g><g><rect fill="white" stroke="none" x="121.40338319676427" y="636.761074818818" width="176.06013740601563" height="21.23576429"/><text fill="black" stroke="none" font-family="sans-serif" font-size="11pt" font-style="normal" font-weight="normal" text-decoration="normal" x="123.85366369176427" y="651.462757788818" text-anchor="start" dominant-baseline="alphabetic" xml:space="preserve">Hinththngbothtbi</text></g><g><path fill="none" stroke="black" paint-order="fill stroke markers" d=" M 329.0232856495442 657.996839108818 L 103.29293553366665 657.996839108818" stroke-miterlimit="10" stroke-width="1.3612669416666667" stroke-dasharray="6.53408132"/><g transform="translate(89.84361814999998,657.996839108818) translate(-89.84361814999998,-657.996839108818)"><path fill="black" stroke="none" paint-order="stroke fill markers" d=" M 103.45628756666665 651.1905044004847 L 89.84361814999998 657.996839108818 L 103.45628756666665 664.8031738171513 Z"/></g></g><g><g/><path fill="none" stroke="black" paint-order="fill stroke markers" d=" M 16.33520329999999 319.8581307988182 L 935.801860468164 319.8581307988182 L 935.801860468164 682.499644058818 L 16.33520329999999 682.499644058818 L 16.33520329999999 319.8581307988182 Z" stroke-miterlimit="10" stroke-width="2.3336004714285714" stroke-dasharray=""/><path fill="white" stroke="black" paint-order="fill stroke markers" d=" M 16.33520329999999 319.8581307988182 L 16.33520329999999 339.4603747588182 L 62.6944068970703 339.4603747588182 L 72.4955288770703 329.6592527788182 L 72.4955288770703 319.8581307988182 L 16.33520329999999 319.8581307988182" stroke-miterlimit="10" stroke-width="2.3336004714285714" stroke-dasharray=""/><text fill="black" stroke="none" font-family="sans-serif" font-size="8.8pt" font-style="normal" font-weight="bold" text-decoration="normal" x="32.67040659999999" y="332.9262934388182" text-anchor="start" dominant-baseline="alphabetic" xml:space="preserve">alt</text><g><rect fill="white" stroke="none" x="86.3804516820703" y="321.1649470628182" width="88.1846186071875" height="16.988611432000003"/></g><text fill="black" stroke="none" font-family="sans-serif" font-size="8.8pt" font-style="normal" font-weight="bold" text-decoration="normal" x="88.8307321770703" y="332.9262934388182" text-anchor="start" dominant-baseline="alphabetic" xml:space="preserve">[Quynhpl]</text><g><path fill="none" stroke="black" paint-order="fill stroke markers" d=" M 16.33520329999999 546.9174566688181 L 935.801860468164 546.9174566688181" stroke-miterlimit="10" stroke-width="2.3336004714285714" stroke-dasharray="4.083800825"/></g><g/><g><rect fill="white" stroke="none" x="86.3804516820703" y="548.224272932818" width="126.62782539429688" height="16.988611432000003"/></g><text fill="black" stroke="none" font-family="sans-serif" font-size="8.8pt" font-style="normal" font-weight="bold" text-decoration="normal" x="88.8307321770703" y="559.9856193088181" text-anchor="start" dominant-baseline="alphabetic" xml:space="preserve">[Quynkhnghpl]</text></g><g/></g><g/><g/><g/><g/></g></svg>