<svg xmlns="http://www.w3.org/2000/svg" xmlns:xlink="http://www.w3.org/1999/xlink" version="1.1" width="923.0176018195311" height="830.333233923818"><desc>title%20X%C3%B3a%20thi%E1%BA%BFt%20b%E1%BB%8B%0A%0Abottomparticipants%0A%0Aactor%20Landlord%0Aentity%20Client%0Aentity%20Backend%0Adatabase%20Database%0A%0ALandlord%20-%3E%20Client%3A%20Ch%E1%BB%8Dn%20thi%E1%BA%BFt%20b%E1%BB%8B%20c%E1%BA%A7n%20x%C3%B3a%0Aactivate%20Landlord%0Aactivate%20Client%0A%0AClient%20-%3E%20Backend%3A%20G%E1%BB%ADi%20ID%20thi%E1%BA%BFt%20b%E1%BB%8B%20c%E1%BA%A7n%20x%C3%B3a%0Aactivate%20Backend%0A%0ABackend%20-%3E%20Backend%3A%20Ki%E1%BB%83m%20tra%20quy%E1%BB%81n%0Aalt%20Quy%E1%BB%81n%20h%E1%BB%A3p%20l%E1%BB%87%0A%20%20%20%20activate%20Database%0A%20%20%20%20Backend%20-%3E%20Database%3A%20X%C3%B3a%20thi%E1%BA%BFt%20b%E1%BB%8B%20kh%E1%BB%8Fi%20c%C6%A1%20s%E1%BB%9F%20d%E1%BB%AF%20li%E1%BB%87u%0A%20%20%20%20Database%20--%3E%20Backend%3A%20X%C3%A1c%20nh%E1%BA%ADn%20thi%E1%BA%BFt%20b%E1%BB%8B%20%C4%91%C3%A3%20x%C3%B3a%0A%20%20%20%20Backend%20--%3E%20Client%3A%20Th%C3%B4ng%20b%C3%A1o%20x%C3%B3a%20th%C3%A0nh%20c%C3%B4ng%0A%20%20%20%20Client%20--%3E%20Landlord%3A%20Hi%E1%BB%83n%20th%E1%BB%8B%20th%C3%B4ng%20b%C3%A1o%20th%C3%A0nh%20c%C3%B4ng%0Aelse%20Quy%E1%BB%81n%20kh%C3%B4ng%20h%E1%BB%A3p%20l%E1%BB%87%0A%20%20%20%20Backend%20--%3E%20Client%3A%20Th%C3%B4ng%20b%C3%A1o%20l%E1%BB%97i%20quy%E1%BB%81n%20truy%20c%E1%BA%ADp%0A%20%20%20%20Client%20--%3E%20Landlord%3A%20Hi%E1%BB%83n%20th%E1%BB%8B%20th%C3%B4ng%20b%C3%A1o%20th%E1%BA%A5t%20b%E1%BA%A1i%0Aend%0A%0Adeactivate%20Backend%0Adeactivate%20Client%0Adeactivate%20Landlord%0Adeactivate%20Database</desc><defs/><g><g/><g/><g/><g/><g/><g/><g/><g/><g/><g/><g/><g/><g/><g/><g/><g/><g/><g/><g/><g/><g/><g/><g/><g/><g/><g/><g/><g/><g/><g/><g/><g/><g/><g/><g/><g/><g/><g/><g/><g/><g/><g/><g/><g/><g/><g/><g/><g/><g/><g/><g/><g/><g/><g/><g/><g/><g/><g/><g/><g/><g/><g/><g/><g/><g/><g/><g/><g/><g/><g/><g/><g/><g/><g/><g/><g/><g/><g/><g/><g/><g/><g/><g/><g/><g/><g/><g/><g/><g/><g/><g/><g/><g/><g/><g/><g/><g/><g/><g/><g/><g/><g/><g/><g/><g/><g/><g/><g/><g><rect fill="white" stroke="none" x="0" y="0" width="923" height="830"/></g><g/><g><path fill="none" stroke="black" paint-order="fill stroke markers" d=" M 81.67601649999999 128.73625218881818 L 81.67601649999999 739.672855608818" stroke-miterlimit="10" stroke-width="1.3612669416666667" stroke-dasharray="12.565541,5.445067766666667"/><path fill="none" stroke="black" paint-order="fill stroke markers" d=" M 337.1908872995442 128.73625218881818 L 337.1908872995442 739.672855608818" stroke-miterlimit="10" stroke-width="1.3612669416666667" stroke-dasharray="12.565541,5.445067766666667"/><path fill="none" stroke="black" paint-order="fill stroke markers" d=" M 586.163155560026 128.73625218881818 L 586.163155560026 739.672855608818" stroke-miterlimit="10" stroke-width="1.3612669416666667" stroke-dasharray="12.565541,5.445067766666667"/><path fill="none" stroke="black" paint-order="fill stroke markers" d=" M 841.3415853195312 128.73625218881818 L 841.3415853195312 739.672855608818" stroke-miterlimit="10" stroke-width="1.3612669416666667" stroke-dasharray="12.565541,5.445067766666667"/></g><g><g><path fill="white" stroke="black" paint-order="fill stroke markers" d=" M 90.987082381 59.63834222981819 A 9.311065881 9.311065881 0 1 1 90.98707772546743 59.62903116548903 M 81.67601649999999 68.9494081108182 L 81.67601649999999 88.8783561368182 M 69.914670124 76.13689756281819 L 93.43736287599998 76.13689756281819 M 81.67601649999999 88.8783561368182 L 69.914670124 107.50048789881819 M 81.67601649999999 88.8783561368182 L 93.43736287599998 107.50048789881819" stroke-miterlimit="10" stroke-width="2.7769845610000004" stroke-dasharray=""/></g><g><g/><text fill="black" stroke="none" font-family="sans-serif" font-size="11pt" font-style="normal" font-weight="normal" text-decoration="normal" x="53.1470400595703" y="123.83569119881818" text-anchor="start" dominant-baseline="alphabetic" xml:space="preserve">Landlord</text></g><g><path fill="white" stroke="black" paint-order="fill stroke markers" d=" M 361.4486642000442 79.63263106901819 A 24.2577769005 24.2577769005 0 1 1 361.4486520711568 79.60837329616064 M 311.54461811854424 106.11199561831819 L 362.8371564805442 106.11199561831819" stroke-miterlimit="10" stroke-width="2.7769845610000004" stroke-dasharray=""/></g><g><g/><text fill="black" stroke="none" font-family="sans-serif" font-size="11pt" font-style="normal" font-weight="normal" text-decoration="normal" x="318.45073684788406" y="123.83569119881818" text-anchor="start" dominant-baseline="alphabetic" xml:space="preserve">Client</text></g><g><path fill="white" stroke="black" paint-order="fill stroke markers" d=" M 610.4209324605259 79.63263106901819 A 24.2577769005 24.2577769005 0 1 1 610.4209203316385 79.60837329616064 M 560.516886379026 106.11199561831819 L 611.809424741026 106.11199561831819" stroke-miterlimit="10" stroke-width="2.7769845610000004" stroke-dasharray=""/></g><g><g/><text fill="black" stroke="none" font-family="sans-serif" font-size="11pt" font-style="normal" font-weight="normal" text-decoration="normal" x="557.6377573056315" y="123.83569119881818" text-anchor="start" dominant-baseline="alphabetic" xml:space="preserve">Backend</text></g><g><path fill="white" stroke="black" paint-order="fill stroke markers" d=" M 817.4921885015312 96.71925372081819 L 817.4921885015312 62.41532679081819 L 865.1909821375311 62.41532679081819 L 865.1909821375311 96.71925372081819" stroke-miterlimit="10" stroke-width="2.7769845610000004" stroke-dasharray=""/><path fill="white" stroke="black" paint-order="fill stroke markers" d=" M 865.1909821375311 61.22285694991819 L 865.1897896776275 61.33066749483481 L 865.1862124171614 61.43846725878678 L 865.1802507138561 61.546245461887544 L 865.1719051638768 61.65399132640659 L 865.1611766017716 61.761694077847274 L 865.1480661003877 61.86934294602419 L 865.1325749707645 61.976927166140236 L 865.1147047620019 62.084435979863045 L 865.0944572611058 62.19185863640084 L 865.0718344928097 62.299184393577484 L 865.0468387193713 62.4064025189067 L 865.0194724403473 62.51350229066531 L 864.9897383923427 62.62047299896537 L 864.9576395487376 62.7273039468252 L 864.9231791193895 62.83398445123905 L 864.8863605503127 62.94050384424536 L 864.8471875233333 63.04685147399361 L 864.8056639557216 63.15301670580944 L 864.7617939997996 63.25898892325815 L 864.7155820425262 63.364757529206294 L 864.6670327050589 63.47031194688142 L 864.6161508422908 63.575641620929716 L 864.5629415423659 63.68073601847156 L 864.5074101261697 63.78558463015478 L 864.4495621467977 63.89017697120557 L 864.3894033889995 63.994502582477 L 864.3269398686009 64.09855103149486 L 864.2621778319017 64.20231191350096 L 864.1951237550517 64.3057748524936 L 864.1257843434028 64.40892950226505 L 864.0541665308381 64.51176554743633 L 863.9802774790794 64.61427270448858 L 863.9041245769704 64.71644072279157 L 863.8257154397376 64.81825938562858 L 863.7450579082295 64.91971851121816 L 863.662160048132 65.02080795373233 L 863.5770301491622 65.12151760431107 L 863.4896767242387 65.22183739207324 L 863.4001085086315 65.32175728512367 L 863.3083344590875 65.42126729155632 L 863.214363752935 65.52035746045347 L 863.1182057871665 65.6190178828808 L 863.0198701774984 65.71723869287828 L 862.9193667574095 65.81501006844678 L 862.8167055771585 65.91232223253022 L 862.7118969027774 66.00916545399325 L 862.6049512150465 66.10553004859446 L 862.4958792084456 66.20140637995469 L 862.3846917900843 66.29678486052069 L 862.2714000786117 66.39165595252388 L 862.1560154031048 66.48601016893414 L 862.0385493019347 66.57983807440844 L 861.9190135216138 66.67313028623443 L 861.7974200156206 66.76587747526865 L 861.6737809432042 66.85807036686953 L 861.5481086681688 66.94969974182469 L 861.4204157576373 67.04075643727302 L 861.2907149807943 67.13123134762085 L 861.1590193076094 67.22111542545254 L 861.0253419075401 67.3103996824352 L 860.8896961482152 67.39907519021754 L 860.7520955940973 67.4871330813227 L 860.6125540051274 67.57456455003492 L 860.4710853353481 67.6613608532802 L 860.3277037315083 67.74751331150055 L 860.1824235316492 67.83301330952195 L 860.0352592636693 67.91785229741582 L 859.8862256438732 68.00202179135408 L 859.7353375754983 68.08551337445749 L 859.582610147226 68.1683186976373 L 859.4280586316718 68.25042948043021 L 859.2716984838582 68.33183751182635 L 859.1135453396699 68.41253465109044 L 858.9536150142897 68.4925128285758 L 858.7919235006165 68.5717640465313 L 858.6284869676672 68.65028037990122 L 858.4633217589586 68.72805397711764 L 858.2964443908743 68.80507706088565 L 858.1278715510118 68.88134192896105 L 857.9576200965147 68.95684095492061 L 857.7857070523866 69.03156658892462 L 857.6121496097885 69.10551135847197 L 857.4369651243202 69.17866786914732 L 857.2601711142842 69.25102880536058 L 857.0817852589341 69.3225869310784 L 856.9018253967068 69.39333509054786 L 856.7203095234388 69.46326620901198 L 856.5372557905658 69.53237329341717 L 856.3526825033089 69.60064943311258 L 856.1666081188426 69.66808780054113 L 855.9790512444507 69.7346816519223 L 855.790030635664 69.80042432792644 L 855.5995651943862 69.86530925434072 L 855.4076739670023 69.92932994272657 L 855.2143761424755 69.9924799910685 L 855.019691050427 70.05475308441433 L 854.8236381592038 70.1161429955066 L 854.6262370739316 70.17664358540536 L 854.4275075345546 70.23624880410202 L 854.2274694138608 70.29495269112441 L 854.0261427154959 70.35274937613272 L 853.8235475719619 70.40963307950663 L 853.619704242604 70.46559811292322 L 853.4146331115858 70.52063887992576 L 853.208354685849 70.57474987648341 L 853.0008895930647 70.62792569154163 L 852.792258579569 70.68016100756323 L 852.5824825082896 70.73145060106012 L 852.3715823566586 70.78178934311569 L 852.1595792145155 70.8311721998977 L 851.9464942819978 70.8795942331616 L 851.7323488674215 70.92705060074444 L 851.5171643851492 70.973536557049 L 851.3009623534499 71.01904745351838 L 851.0837643923468 71.06357873910088 L 850.8655922214548 71.10712596070502 L 850.6464676578092 71.14968476364494 L 850.4264126136839 71.19125089207583 L 850.2054490943998 71.23182018941947 L 849.9835991961248 71.27138859877994 L 849.7608851036638 71.30995216334925 L 849.5373290882403 71.34750702680313 L 849.3129535052699 71.38404943368649 L 849.0877807921236 71.4195757297891 L 848.8618334658852 71.45408236251096 L 848.635134121099 71.48756588121756 L 848.4077054275106 71.52002293758491 L 848.1795701277997 71.55145028593446 L 847.9507510353064 71.58184478355753 L 847.7212710317491 71.61120339102969 L 847.4911530649371 71.63952317251467 L 847.260420146475 71.66680129605793 L 847.0290953494626 71.69303503386982 L 846.7972018061868 71.71822176259843 L 846.5647627058087 71.7423589635919 L 846.3318012920446 71.7654442231502 L 846.0983408608416 71.78747523276665 L 845.8644047580486 71.80844978935863 L 845.6300163770807 71.82836579548797 L 845.3951991565807 71.84722125957065 L 845.1599765780751 71.86501429607597 L 844.9243721636254 71.8817431257151 L 844.6884094734771 71.89740607561903 L 844.4521121037025 71.91200157950583 L 844.2155036838415 71.92552817783725 L 843.9786078745389 71.93798451796474 L 843.7414483651784 71.94936935426468 L 843.5040488715132 71.95968154826289 L 843.2664331332948 71.96892006874862 L 843.0286249118991 71.97708399187748 L 842.79064798795 71.98417250126396 L 842.5525261589416 71.99018488806304 L 842.3142832368585 71.99512055104105 L 842.0759430457941 71.99897899663581 L 841.8375294195691 72.00175983900598 L 841.5990661993474 72.00346280006961 L 841.3605772312523 72.00408770953204 L 841.1220863639817 72.00363450490285 L 840.8836174464238 72.0021032315021 L 840.6451943252716 71.99949404245586 L 840.4068408426386 71.9958071986809 L 840.1685808336742 71.99104306885846 L 839.930438124181 71.98520212939759 L 839.6924365282314 71.97828496438737 L 839.4545998457866 71.97029226553852 L 839.2169518603166 71.96122483211428 L 838.9795163364221 71.95108357085043 L 838.7423170174574 71.93986949586466 L 838.505377623157 71.92758372855508 L 838.2687218472627 71.91422749748824 L 838.0323733551548 71.89980213827607 L 837.7963557814858 71.8843090934425 L 837.5606927278162 71.86774991227908 L 837.3254077602551 71.85012625069015 L 837.0905244071031 71.83143987102717 L 836.8560661564998 71.81169264191253 L 836.6220564540749 71.79088653805269 L 836.3885187006035 71.7690236400407 L 836.1554762496667 71.74610613414815 L 835.922952405315 71.72213631210651 L 835.6909704197391 71.69711657087802 L 835.4595534909445 71.67104941241597 L 835.228724760431 71.64393744341446 L 834.9985073108794 71.6157833750478 L 834.7689241638428 71.58659002269937 L 834.5399982774445 71.55636030568009 L 834.3117525440825 71.52509724693644 L 834.0842097881399 71.49280397274828 L 833.8573927637026 71.45948371241609 L 833.6313241522842 71.42513979793813 L 833.4060265605572 71.38977566367726 L 833.1815225180931 71.35339484601741 L 832.9578344751092 71.31600098301004 L 832.7349848002233 71.27759781401028 L 832.5129957782171 71.23818917930303 L 832.2918896078081 71.19777901971894 L 832.0716883994287 71.15637137624027 L 831.8524141730165 71.11397038959687 L 831.6340888558113 71.07058029985207 L 831.4167342801629 71.02620544597868 L 831.2003721813479 70.98085026542512 L 830.9850241953956 70.93451929367163 L 830.7707118569253 70.8872171637768 L 830.5574565969922 70.8389486059142 L 830.3452797409448 70.78971844689937 L 830.1342025062914 70.7395316097072 L 829.9242460005801 70.6883931129796 L 829.7154312192862 70.6363080705236 L 829.5077790437139 70.58328169080006 L 829.3013102389077 70.52931927640276 L 829.0960454515761 70.47442622352818 L 828.8920052080266 70.41860802143584 L 828.6892099121136 70.36187025189946 L 828.4876798431978 70.3042185886487 L 828.2874351541182 70.24565879680183 L 828.0884958691765 70.18619673228926 L 827.8908818821358 70.12583834126788 L 827.6946129542299 70.06458965952649 L 827.4997087121881 70.00245681188221 L 827.3061886462722 69.93944601156807 L 827.1140721083274 69.87556355961155 L 826.9233783098476 69.81081584420461 L 826.7341263200536 69.74520934006487 L 826.5463350639867 69.67875060778805 L 826.360023320616 69.61144629319199 L 826.1752097209607 69.54330312665208 L 825.9919127462266 69.47432792242817 L 825.8101507259585 69.40452757798322 L 825.6299418362069 69.3339090732935 L 825.4513040977106 69.26247947015062 L 825.2742553740947 69.19024591145539 L 825.0988133700838 69.11721562050347 L 824.9249956297324 69.0433959002631 L 824.7528195346695 68.96879413264479 L 824.5823023023611 68.89341777776313 L 824.4134609843885 68.81727437319081 L 824.2463124647426 68.74037153320482 L 824.0808734581362 68.66271694802508 L 823.917160508332 68.58431838304537 L 823.7551899864887 68.5051836780569 L 823.5949780895235 68.4253207464642 L 823.4365408384923 68.34473757449386 L 823.2798940769885 68.26344222039596 L 823.1250534695577 68.18144281363814 L 822.9720345001313 68.09874755409275 L 822.820852470479 68.01536471121685 L 822.6715224986777 67.9313026232252 L 822.5240595176002 67.84656969625658 L 822.3784782734217 67.76117440353308 L 822.2347933241452 67.67512528451279 L 822.093019038146 67.5884309440359 L 821.9531695927346 67.50110005146425 L 821.8152589727389 67.41314133981427 L 821.6793009691058 67.32456360488388 L 821.5453091775228 67.23537570437271 L 821.413296997057 67.14558655699653 L 821.2832776288167 67.05520514159522 L 821.1552640746302 66.96424049623502 L 821.0292691357463 66.87270171730466 L 820.905305411554 66.78059795860575 L 820.7833852983223 66.68793843043741 L 820.6635209879609 66.59473239867523 L 820.545724466801 66.50098918384472 L 820.4300075143965 66.40671816018926 L 820.3163817023462 66.31192875473263 L 820.2048583931369 66.2166304463364 L 820.0954487390062 66.120832764752 L 819.9881636808285 66.02454528966774 L 819.8830139470202 65.92777764975091 L 819.7800100524672 65.83053952168484 L 819.6791622974729 65.73284062920132 L 819.5804807667288 65.63469074210818 L 819.4839753283059 65.53609967531233 L 819.3896556326674 65.4370772878383 L 819.2975311117044 65.33763348184232 L 819.2076109777922 65.23777820162212 L 819.1199042228693 65.13752143262249 L 819.034419617538 65.03687320043682 L 818.9511657101878 64.93584356980442 L 818.8701508261397 64.83444264360419 L 818.7913830668149 64.73268056184422 L 818.7148703089237 64.63056750064791 L 818.6406202036778 64.52811367123628 L 818.5686401760263 64.42532931890689 L 818.4989374239116 64.32222472200931 L 818.4315189175511 64.21881019091732 L 818.3663913987391 64.11509606699785 L 818.3035613801732 64.01109272157687 L 818.243035144803 63.90681055490224 L 818.1848187452015 63.80225999510374 L 818.1289180029603 63.697451497150205 L 818.0753385081068 63.59239554180411 L 818.024085618546 63.48710263457343 L 817.9751644595242 63.381583304661156 L 817.9285799231163 63.27584810391234 L 817.8843366677374 63.16990760575894 L 817.842439117676 63.06377240416249 L 817.8028914626523 62.95745311255472 L 817.7656976573986 62.85096036277616 L 817.7308614212648 62.744304804013076 L 817.698386237845 62.63749710173245 L 817.6682753546311 62.530547936615505 L 817.6405317826858 62.423468003489624 L 817.6151582963435 62.316268010258895 L 817.5921574329315 62.208958676833305 L 817.571531492517 62.10155073405677 L 817.5532825376769 61.99405492263407 L 817.5374123932914 61.88648199205676 L 817.5239226463619 61.77884269952825 L 817.5128146458517 61.6711478088881 L 817.5040895025517 61.56340808953563 L 817.4977480889687 61.45563431535299 L 817.4937910392391 61.34783726362778 L 817.4922187490644 61.24002771397536 L 817.4930313756723 61.13221644726084 L 817.4962288378009 61.02441424452105 L 817.5018108157066 60.916631885886424 L 817.5097767511962 60.808880149503025 L 817.520125847683 60.70116981045468 L 817.5328570702658 60.59351163968555 L 817.5479691458329 60.48591640292299 L 817.5654605631895 60.378394859601016 L 817.5853295732084 60.27095776178435 L 817.6075741890049 60.163615853093255 L 817.6321921861364 60.05637986762915 L 817.6591811028234 59.949260528901206 L 817.6885382401967 59.84226854875404 L 817.7202606625673 59.7354146262965 L 817.7543451977192 59.62870944683179 L 817.7907884372272 59.52216368078894 L 817.829586736798 59.41578798265577 L 817.8707362166336 59.30959298991343 L 817.9142327618207 59.203589321972714 L 817.9600720227407 59.09778757911208 L 818.0082494155059 58.992198341417634 L 818.0587601224172 58.88683216772516 L 818.1115990924458 58.78169959456423 L 818.1667610417389 58.67681113510454 L 818.2242404541475 58.57217727810464 L 818.2840315817783 58.46780848686303 L 818.3461284455682 58.36371519817185 L 818.4105248358827 58.25990782127324 L 818.4772143131365 58.15639673681838 L 818.5461902084373 58.053192295829454 L 818.6174456242532 57.950304818664556 L 818.6909734351018 57.84774459398567 L 818.7667662882634 57.745521877729786 L 818.8448166045158 57.64364689208335 L 818.9251165788926 57.54212982446004 L 819.007658181463 57.44098082648201 L 819.0924331581357 57.340210012964775 L 819.1794330314837 57.2398274609057 L 819.268649101592 57.13984320847635 L 819.3600724469281 57.040267254018644 L 819.4536939252337 56.94110955504505 L 819.5495041744387 56.84238002724283 L 819.6474936135983 56.74408854348249 L 819.7476524438501 56.646244932830506 L 819.8499706493947 56.54885897956639 L 819.9544379984965 56.45194042220433 L 820.061044044508 56.35549895251929 L 820.1697781269132 56.25954421457787 L 820.2806293723945 56.16408580377391 L 820.3935866959199 56.06913326586893 L 820.508638801851 55.974696096037604 L 820.6257741850732 55.88078373791821 L 820.7449811321455 55.7874055826683 L 820.866247722473 55.694570968025594 L 820.9895618294975 55.60228917737418 L 821.1149111219108 55.51056943881623 L 821.2422830648885 55.41942092424918 L 821.3716649213424 55.328852748448504 L 821.5030437531944 55.23887396815633 L 821.636406422671 55.14949358117568 L 821.7717395936164 55.0607205254708 L 821.9090297328263 54.97256367827326 L 822.0482631114011 54.88503185519433 L 822.189425806119 54.79813380934336 L 822.332503700828 54.71187823045254 L 822.4774824878582 54.62627374400786 L 822.6243476694515 54.541328910386646 L 822.7730845592122 54.45705222400146 L 822.9236782835751 54.373452112450714 L 823.0761137832935 54.290536935675895 L 823.2303758149443 54.20831498512558 L 823.386448952453 54.12679448292632 L 823.5443175886357 54.0459835810604 L 823.7039659367607 53.965890360550645 L 823.8653780321258 53.88652283065238 L 824.0285377336563 53.80788892805245 L 824.1934287255178 53.72999651607559 L 824.3600345187488 53.652853383898076 L 824.5283384529085 53.57646724576885 L 824.6983236977438 53.50084574023808 L 824.8699732548721 53.42599642939328 L 825.0432699594805 53.35192679810317 L 825.218196482043 53.278644253269164 L 825.3947353300532 53.20615612308466 L 825.5728688497733 53.13446965630228 L 825.7525792279998 53.06359202150896 L 825.9338484938447 52.99353030640911 L 826.1166585205324 52.924291517115876 L 826.3009910272126 52.85588257745046 L 826.4868275807884 52.78831032824984 L 826.674149597759 52.72158152668263 L 826.8629383460789 52.65570284557336 L 827.0531749470307 52.590680872735255 L 827.2448403771128 52.52652211031142 L 827.4379154699419 52.463232974124615 L 827.6323809181696 52.40081979303573 L 827.8282172754132 52.33928880831086 L 828.0254049581999 52.278646172997206 L 828.2239242479262 52.21889795130775 L 828.4237552928282 52.160050118014894 L 828.624878109968 52.1021085578529 L 828.8272725872316 52.045079064929524 L 829.03091848534 51.98896734214652 L 829.2357954398727 51.933779000629414 L 829.4418829633054 51.87951955916637 L 829.6491604470573 51.826194443656306 L 829.8576071635528 51.77380898656634 L 830.067202268294 51.72236842639853 L 830.2779248019449 51.67187790716602 L 830.4897536924279 51.622342477878675 L 830.7026677570306 51.57376709203812 L 830.9166457045237 51.526156607142475 L 831.131666137291 51.47951578420055 L 831.3477075534681 51.43384928725578 L 831.5647483490936 51.38916168291979 L 831.782766820269 51.34545743991578 L 832.0017411653286 51.302740928631636 L 832.2216494870204 51.261016420682886 L 832.4424697946955 51.220288088485546 L 832.6641800065072 51.18056000483891 L 832.8867579516191 51.14183614251822 L 833.1101813724221 51.10412037387746 L 833.3344279267602 51.06741647046204 L 833.5594751901651 51.03172810263173 L 833.7853006580979 50.99705883919358 L 834.0118817481999 50.96341214704502 L 834.2391958025511 50.930791390827245 L 834.4672200899352 50.899199832588685 L 834.6959318081136 50.86864063145883 L 834.9253080861052 50.83911684333235 L 835.1553259864734 50.81063142056343 L 835.3859625076195 50.78318721167063 L 835.6171945860839 50.75678696105195 L 835.8489990988512 50.731433308710464 L 836.0813528656636 50.70712878999027 L 836.3142326513378 50.683875835323 L 836.5476151680894 50.66167676998473 L 836.7814770778612 50.6405338138635 L 837.015794994657 50.6204490812373 L 837.2505454868805 50.60142458056266 L 837.485705079678 50.583462214273794 L 837.7212502572864 50.566563778592354 L 837.9571574653841 50.55073096334783 L 838.1934031134468 50.53596535180856 L 838.4299635771066 50.52226842052339 L 838.6668152005144 50.50964153917403 L 838.903934298705 50.49808597043808 L 839.1412971599665 50.48760286986282 L 839.3788800482102 50.47819328574954 L 839.6166592053455 50.46985815904882 L 839.8546108536549 50.462598323266384 L 840.0927111981716 50.456414504379765 L 840.3309364290598 50.45130732076569 L 840.5692627239948 50.44727728313828 L 840.8076662505458 50.444324794497916 L 841.0461231685587 50.44245015009101 L 841.2846096325405 50.44165353738045 L 841.5231017940436 50.44193503602685 L 841.7615758040504 50.443294617880554 L 842.0000078153588 50.445732146984525 L 842.2383739849663 50.44924737958788 L 842.4766504764546 50.45383996417029 L 842.7148134623731 50.459509441477124 L 842.9528391266216 50.46625524456538 L 843.1907036668321 50.474076698860365 L 843.4283832967487 50.48297302222316 L 843.6658542486068 50.49294332502887 L 843.9030927755088 50.50398661025549 L 844.1400751537997 50.51610177358371 L 844.3767776854393 50.52928760350731 L 844.6131767003716 50.54354278145426 L 844.8492485588922 50.55886588191867 L 845.0849696540118 50.575255372603245 L 845.3203164138175 50.592709614572584 L 845.5552653038294 50.61122686241703 L 845.7897928293542 50.630805264427224 L 846.0238755378349 50.651442862779284 L 846.2574900211956 50.67313759373059 L 846.4906129181827 50.695887287826096 L 846.7232209167008 50.71968967011537 L 846.9552907561439 50.74454236038002 L 847.1867992297214 50.77044287337172 L 847.4177231867789 50.797388619060754 L 847.6480395351131 50.825376902895016 L 847.877725243281 50.85440492606945 L 848.1067573429034 50.88446978580591 L 848.335112930961 50.9155684756435 L 848.5627691720855 50.947697885739125 L 848.7897033008422 50.980854803178566 L 849.0158926240076 51.01503591229771 L 849.2413145228379 51.05023779501413 L 849.4659464553308 51.08645693116888 L 849.6897659584805 51.12368969887854 L 849.9127506505231 51.16193237489736 L 850.1348782331751 51.201181134989596 L 850.3561264938636 51.241432054311964 L 850.5764733079467 51.28268110780607 L 850.7958966409266 51.32492417060092 L 851.014374550653 51.368157018425464 L 851.2318851895169 51.41237532803093 L 851.4484068066357 51.45757467762322 L 851.6639177500281 51.503750547305025 L 851.8783964687793 51.55089831952786 L 852.0918215151963 51.5990132795538 L 852.3041715469523 51.64809061592693 L 852.515425329221 51.69812542095451 L 852.7255617368002 51.749112691197745 L 852.9345597562242 51.801047327972086 L 853.1423984878654 51.85392413785714 L 853.3490571480237 51.90773783321599 L 853.5545150710054 51.962483032723924 L 853.7587517111893 52.01815426190663 L 853.9617466450817 52.07474595368758 L 854.1634795733582 52.132252448944755 L 854.3639303228944 52.190667997076545 L 854.563078848782 52.24998675657682 L 854.7609052363346 52.310202795619055 L 854.9573897030782 52.371310092649544 L 855.15251260073 52.43330253698949 L 855.3462544171628 52.49617392944612 L 855.5385957783561 52.559917982932596 L 855.7295174503346 52.62452832309667 L 855.9190003410897 52.68999848895818 L 856.1070255024906 52.7563219335551 L 856.2935741321777 52.823492024598224 L 856.4786275754434 52.89150204513444 L 856.6621673270977 52.960345194218355 L 856.8441750333184 53.03001458759244 L 857.0246324934865 53.10050325837541 L 857.2035216620063 53.171804157758935 L 857.3808246501101 53.243910155712484 L 857.5565237276469 53.31681404169635 L 857.7306013248552 53.39050852538269 L 857.9030400341205 53.46498623738456 L 858.0738226117155 53.5402397299928 L 858.2429319795248 53.61626147792087 L 858.4103512267524 53.69304387905734 L 858.5760636116132 53.770579255226075 L 858.7400525630069 53.848859852954064 L 858.9023016821749 53.92787784424677 L 859.0627947443405 54.00762532737092 L 859.2215157003313 54.08809432764465 L 859.3784486781839 54.16927679823499 L 859.5335779847312 54.251164620962534 L 859.6868881071721 54.33374960711325 L 859.8383637146218 54.41702349825734 L 859.9879896596459 54.500977967075094 L 860.1357509797747 54.58560461818958 L 860.2816328989992 54.670894989006214 L 860.425620829249 54.75684055055899 L 860.5677003718513 54.84343270836337 L 860.70785731897 54.93066280327574 L 860.8460776550272 55.0185221123593 L 860.9823475581046 55.107001849756344 L 861.1166534013254 55.196093167566886 L 861.2489817542172 55.28578715673337 L 861.3793193840548 55.37607484793163 L 861.5076532571842 55.46694721246779 L 861.6339705403249 55.55839516318112 L 861.7582586018535 55.65040955535275 L 861.8805050130679 55.742981187620146 L 862.0006975494287 55.83610080289723 L 862.1188241917823 55.92975908930006 L 862.234873127563 56.02394668107806 L 862.3488327519739 56.11865415955053 L 862.4606916691475 56.213872054048544 L 862.5704386932854 56.30959084286201 L 862.6780628497766 56.405800954191804 L 862.783553376295 56.50249276710697 L 862.886899723876 56.5996566125068 L 862.988091557971 56.69728277408771 L 863.0871187594809 56.79536148931491 L 863.1839714257678 56.89388295039859 L 863.2786398716462 56.99283730527477 L 863.3711146303501 57.09221465859041 L 863.4613864544809 57.19200507269298 L 863.5494463169313 57.29219856862425 L 863.6352854117883 57.39278512711811 L 863.7188951552143 57.49375468960253 L 863.8002671863043 57.59509715920541 L 863.8793933679232 57.69680240176424 L 863.9562657875186 57.79886024683951 L 864.0308767579128 57.90126048873177 L 864.1032188180709 58.003992887502164 L 864.173284733847 58.10704716999642 L 864.241067498708 58.21041303087217 L 864.306560334434 58.31408013362946 L 864.3697566917958 58.41803811164441 L 864.4306502512106 58.52227656920584 L 864.489234923373 58.62678508255487 L 864.5455048498646 58.731553200927245 L 864.5994544037399 58.83657044759845 L 864.6510781900881 58.94182632093131 L 864.7003710465738 59.04731029542622 L 864.7473280439524 59.153011822773635 L 864.7919444865632 59.25892033290889 L 864.8342159127993 59.36502523506925 L 864.8741380955531 59.471315918852895 L 864.9117070426398 59.57778175528004 L 864.9469189971958 59.684412097855756 L 864.9797704380551 59.79119628363465 L 865.010258080101 59.89812363428712 L 865.0383788745947 60.005183457167206 L 865.0641300094801 60.11236504638185 L 865.0875089096653 60.21965768386144 L 865.1085132372796 60.327050640431644 L 865.1271408919079 60.43453317688629 L 865.1433900108001 60.5420945450613 L 865.157258969058 60.6497239889095 L 865.1687463797973 60.757410745576195 L 865.1778510942864 60.86514404647545 L 865.1845722020616 60.972913118366954 L 865.1889090310176 61.08070718443333 L 865.1908611474752 61.188515465357796 M 865.1909821375311 95.52678387991818 L 865.1897896776275 95.6345944248348 L 865.1862124171614 95.74239418878678 L 865.1802507138561 95.85017239188754 L 865.1719051638768 95.95791825640659 L 865.1611766017716 96.06562100784727 L 865.1480661003877 96.1732698760242 L 865.1325749707645 96.28085409614023 L 865.1147047620019 96.38836290986303 L 865.0944572611058 96.49578556640084 L 865.0718344928097 96.60311132357748 L 865.0468387193713 96.7103294489067 L 865.0194724403473 96.8174292206653 L 864.9897383923427 96.92439992896537 L 864.9576395487376 97.0312308768252 L 864.9231791193895 97.13791138123905 L 864.8863605503127 97.24443077424536 L 864.8471875233333 97.35077840399362 L 864.8056639557216 97.45694363580944 L 864.7617939997996 97.56291585325815 L 864.7155820425262 97.66868445920629 L 864.6670327050589 97.77423887688141 L 864.6161508422908 97.8795685509297 L 864.5629415423659 97.98466294847155 L 864.5074101261697 98.08951156015478 L 864.4495621467977 98.19410390120557 L 864.3894033889995 98.29842951247699 L 864.3269398686009 98.40247796149485 L 864.2621778319017 98.50623884350097 L 864.1951237550517 98.60970178249359 L 864.1257843434028 98.71285643226504 L 864.0541665308381 98.81569247743631 L 863.9802774790794 98.91819963448859 L 863.9041245769704 99.02036765279156 L 863.8257154397376 99.12218631562857 L 863.7450579082295 99.22364544121817 L 863.662160048132 99.32473488373233 L 863.5770301491622 99.42544453431107 L 863.4896767242387 99.52576432207324 L 863.4001085086315 99.62568421512367 L 863.3083344590875 99.72519422155631 L 863.214363752935 99.82428439045346 L 863.1182057871665 99.92294481288079 L 863.0198701774984 100.02116562287829 L 862.9193667574095 100.11893699844678 L 862.8167055771585 100.2162491625302 L 862.7118969027774 100.31309238399325 L 862.6049512150465 100.40945697859446 L 862.4958792084456 100.50533330995468 L 862.3846917900843 100.60071179052068 L 862.2714000786117 100.69558288252388 L 862.1560154031048 100.78993709893413 L 862.0385493019347 100.88376500440843 L 861.9190135216138 100.97705721623441 L 861.7974200156206 101.06980440526866 L 861.6737809432042 101.16199729686952 L 861.5481086681688 101.25362667182469 L 861.4204157576373 101.34468336727302 L 861.2907149807943 101.43515827762084 L 861.1590193076094 101.52504235545253 L 861.0253419075401 101.61432661243519 L 860.8896961482152 101.70300212021755 L 860.7520955940973 101.7910600113227 L 860.6125540051274 101.87849148003492 L 860.4710853353481 101.9652877832802 L 860.3277037315083 102.05144024150056 L 860.1824235316492 102.13694023952193 L 860.0352592636693 102.22177922741581 L 859.8862256438732 102.30594872135407 L 859.7353375754983 102.38944030445748 L 859.582610147226 102.47224562763729 L 859.4280586316718 102.5543564104302 L 859.2716984838582 102.63576444182635 L 859.1135453396699 102.71646158109044 L 858.9536150142897 102.79643975857579 L 858.7919235006165 102.8756909765313 L 858.6284869676672 102.95420730990122 L 858.4633217589586 103.03198090711763 L 858.2964443908743 103.10900399088564 L 858.1278715510118 103.18526885896105 L 857.9576200965147 103.2607678849206 L 857.7857070523866 103.33549351892461 L 857.6121496097885 103.40943828847196 L 857.4369651243202 103.48259479914732 L 857.2601711142842 103.55495573536056 L 857.0817852589341 103.6265138610784 L 856.9018253967068 103.69726202054787 L 856.7203095234388 103.76719313901197 L 856.5372557905658 103.83630022341715 L 856.3526825033089 103.90457636311257 L 856.1666081188426 103.97201473054113 L 855.9790512444507 104.03860858192229 L 855.790030635664 104.10435125792642 L 855.5995651943862 104.1692361843407 L 855.4076739670023 104.23325687272656 L 855.2143761424755 104.29640692106851 L 855.019691050427 104.35868001441433 L 854.8236381592038 104.4200699255066 L 854.6262370739316 104.48057051540535 L 854.4275075345546 104.54017573410202 L 854.2274694138608 104.5988796211244 L 854.0261427154959 104.65667630613272 L 853.8235475719619 104.71356000950664 L 853.619704242604 104.7695250429232 L 853.4146331115858 104.82456580992574 L 853.208354685849 104.87867680648341 L 853.0008895930647 104.93185262154162 L 852.792258579569 104.98408793756322 L 852.5824825082896 105.0353775310601 L 852.3715823566586 105.08571627311568 L 852.1595792145155 105.13509912989768 L 851.9464942819978 105.1835211631616 L 851.7323488674215 105.23097753074444 L 851.5171643851492 105.27746348704899 L 851.3009623534499 105.32297438351839 L 851.0837643923468 105.36750566910086 L 850.8655922214548 105.41105289070501 L 850.6464676578092 105.45361169364494 L 850.4264126136839 105.49517782207583 L 850.2054490943998 105.53574711941947 L 849.9835991961248 105.57531552877992 L 849.7608851036638 105.61387909334925 L 849.5373290882403 105.65143395680312 L 849.3129535052699 105.68797636368647 L 849.0877807921236 105.72350265978909 L 848.8618334658852 105.75800929251095 L 848.635134121099 105.79149281121755 L 848.4077054275106 105.82394986758491 L 848.1795701277997 105.85537721593445 L 847.9507510353064 105.88577171355752 L 847.7212710317491 105.9151303210297 L 847.4911530649371 105.94345010251467 L 847.260420146475 105.97072822605791 L 847.0290953494626 105.99696196386981 L 846.7972018061868 106.02214869259844 L 846.5647627058087 106.04628589359189 L 846.3318012920446 106.0693711531502 L 846.0983408608416 106.09140216276666 L 845.8644047580486 106.11237671935864 L 845.6300163770807 106.13229272548797 L 845.3951991565807 106.15114818957065 L 845.1599765780751 106.16894122607596 L 844.9243721636254 106.1856700557151 L 844.6884094734771 106.20133300561903 L 844.4521121037025 106.21592850950582 L 844.2155036838415 106.22945510783724 L 843.9786078745389 106.24191144796474 L 843.7414483651784 106.25329628426466 L 843.5040488715132 106.2636084782629 L 843.2664331332948 106.2728469987486 L 843.0286249118991 106.28101092187747 L 842.79064798795 106.28809943126396 L 842.5525261589416 106.29411181806304 L 842.3142832368585 106.29904748104106 L 842.0759430457941 106.30290592663582 L 841.8375294195691 106.30568676900597 L 841.5990661993474 106.30738973006962 L 841.3605772312523 106.30801463953205 L 841.1220863639817 106.30756143490284 L 840.8836174464238 106.3060301615021 L 840.6451943252716 106.30342097245587 L 840.4068408426386 106.29973412868088 L 840.1685808336742 106.29496999885845 L 839.930438124181 106.28912905939758 L 839.6924365282314 106.28221189438736 L 839.4545998457866 106.27421919553852 L 839.2169518603166 106.26515176211427 L 838.9795163364221 106.25501050085043 L 838.7423170174574 106.24379642586464 L 838.505377623157 106.23151065855508 L 838.2687218472627 106.21815442748823 L 838.0323733551548 106.20372906827606 L 837.7963557814858 106.1882360234425 L 837.5606927278162 106.17167684227908 L 837.3254077602551 106.15405318069014 L 837.0905244071031 106.13536680102716 L 836.8560661564998 106.11561957191253 L 836.6220564540749 106.09481346805269 L 836.3885187006035 106.0729505700407 L 836.1554762496667 106.05003306414814 L 835.922952405315 106.0260632421065 L 835.6909704197391 106.00104350087803 L 835.4595534909445 105.97497634241597 L 835.228724760431 105.94786437341445 L 834.9985073108794 105.9197103050478 L 834.7689241638428 105.89051695269937 L 834.5399982774445 105.86028723568009 L 834.3117525440825 105.82902417693644 L 834.0842097881399 105.79673090274827 L 833.8573927637026 105.76341064241608 L 833.6313241522842 105.72906672793813 L 833.4060265605572 105.69370259367726 L 833.1815225180931 105.6573217760174 L 832.9578344751092 105.61992791301003 L 832.7349848002233 105.58152474401028 L 832.5129957782171 105.54211610930304 L 832.2918896078081 105.50170594971894 L 832.0716883994287 105.46029830624026 L 831.8524141730165 105.41789731959686 L 831.6340888558113 105.37450722985206 L 831.4167342801629 105.33013237597868 L 831.2003721813479 105.28477719542511 L 830.9850241953956 105.23844622367163 L 830.7707118569253 105.1911440937768 L 830.5574565969922 105.14287553591419 L 830.3452797409448 105.09364537689936 L 830.1342025062914 105.0434585397072 L 829.9242460005801 104.99232004297959 L 829.7154312192862 104.9402350005236 L 829.5077790437139 104.88720862080007 L 829.3013102389077 104.83324620640276 L 829.0960454515761 104.77835315352817 L 828.8920052080266 104.72253495143585 L 828.6892099121136 104.66579718189945 L 828.4876798431978 104.60814551864868 L 828.2874351541182 104.54958572680184 L 828.0884958691765 104.49012366228926 L 827.8908818821358 104.42976527126788 L 827.6946129542299 104.36851658952648 L 827.4997087121881 104.30638374188221 L 827.3061886462722 104.24337294156805 L 827.1140721083274 104.17949048961154 L 826.9233783098476 104.11474277420461 L 826.7341263200536 104.04913627006486 L 826.5463350639867 103.98267753778805 L 826.360023320616 103.91537322319199 L 826.1752097209607 103.84723005665208 L 825.9919127462266 103.77825485242818 L 825.8101507259585 103.70845450798322 L 825.6299418362069 103.63783600329349 L 825.4513040977106 103.56640640015061 L 825.2742553740947 103.49417284145538 L 825.0988133700838 103.42114255050346 L 824.9249956297324 103.3473228302631 L 824.7528195346695 103.27272106264479 L 824.5823023023611 103.19734470776314 L 824.4134609843885 103.1212013031908 L 824.2463124647426 103.04429846320481 L 824.0808734581362 102.96664387802507 L 823.917160508332 102.88824531304537 L 823.7551899864887 102.8091106080569 L 823.5949780895235 102.72924767646418 L 823.4365408384923 102.64866450449387 L 823.2798940769885 102.56736915039596 L 823.1250534695577 102.48536974363815 L 822.9720345001313 102.40267448409276 L 822.820852470479 102.31929164121684 L 822.6715224986777 102.2352295532252 L 822.5240595176002 102.15049662625658 L 822.3784782734217 102.06510133353308 L 822.2347933241452 101.97905221451278 L 822.093019038146 101.89235787403591 L 821.9531695927346 101.80502698146424 L 821.8152589727389 101.71706826981428 L 821.6793009691058 101.62849053488388 L 821.5453091775228 101.53930263437272 L 821.413296997057 101.44951348699652 L 821.2832776288167 101.35913207159521 L 821.1552640746302 101.26816742623502 L 821.0292691357463 101.17662864730465 L 820.905305411554 101.08452488860574 L 820.7833852983223 100.9918653604374 L 820.6635209879609 100.89865932867522 L 820.545724466801 100.80491611384473 L 820.4300075143965 100.71064509018925 L 820.3163817023462 100.61585568473262 L 820.2048583931369 100.5205573763364 L 820.0954487390062 100.424759694752 L 819.9881636808285 100.32847221966773 L 819.8830139470202 100.2317045797509 L 819.7800100524672 100.13446645168483 L 819.6791622974729 100.03676755920131 L 819.5804807667288 99.93861767210817 L 819.4839753283059 99.84002660531232 L 819.3896556326674 99.7410042178383 L 819.2975311117044 99.64156041184232 L 819.2076109777922 99.54170513162211 L 819.1199042228693 99.4414483626225 L 819.034419617538 99.34080013043682 L 818.9511657101878 99.23977049980442 L 818.8701508261397 99.13836957360418 L 818.7913830668149 99.03660749184422 L 818.7148703089237 98.9344944306479 L 818.6406202036778 98.83204060123627 L 818.5686401760263 98.72925624890688 L 818.4989374239116 98.6261516520093 L 818.4315189175511 98.52273712091731 L 818.3663913987391 98.41902299699785 L 818.3035613801732 98.31501965157686 L 818.243035144803 98.21073748490224 L 818.1848187452015 98.10618692510373 L 818.1289180029603 98.0013784271502 L 818.0753385081068 97.89632247180411 L 818.024085618546 97.79102956457344 L 817.9751644595242 97.68551023466115 L 817.9285799231163 97.57977503391233 L 817.8843366677374 97.47383453575894 L 817.842439117676 97.3676993341625 L 817.8028914626523 97.2613800425547 L 817.7656976573986 97.15488729277617 L 817.7308614212648 97.04823173401307 L 817.698386237845 96.94142403173245 L 817.6682753546311 96.8344748666155 L 817.6405317826858 96.72739493348962 L 817.6151582963435 96.6201949402589 L 817.5921574329315 96.51288560683331 L 817.571531492517 96.40547766405678 L 817.5532825376769 96.29798185263407 L 817.5374123932914 96.19040892205675 L 817.5239226463619 96.08276962952824 L 817.5128146458517 95.9750747388881 L 817.5040895025517 95.86733501953563 L 817.4977480889687 95.75956124535298 L 817.4937910392391 95.65176419362778 L 817.4922187490644 95.54395464397535" stroke-miterlimit="10" stroke-width="2.7769845610000004" stroke-dasharray=""/></g><g><g/><text fill="black" stroke="none" font-family="sans-serif" font-size="11pt" font-style="normal" font-weight="normal" text-decoration="normal" x="809.9636403732421" y="123.83569119881818" text-anchor="start" dominant-baseline="alphabetic" xml:space="preserve">Database</text></g><g><path fill="white" stroke="black" paint-order="fill stroke markers" d=" M 90.987082381 771.6081780603181 A 9.311065881 9.311065881 0 1 1 90.98707772546743 771.5988669959889 M 81.67601649999999 780.9192439413181 L 81.67601649999999 800.8481919673181 M 69.914670124 788.1067333933181 L 93.43736287599998 788.1067333933181 M 81.67601649999999 800.8481919673181 L 69.914670124 819.4703237293181 M 81.67601649999999 800.8481919673181 L 93.43736287599998 819.4703237293181" stroke-miterlimit="10" stroke-width="2.7769845610000004" stroke-dasharray=""/></g><g><g/><text fill="black" stroke="none" font-family="sans-serif" font-size="11pt" font-style="normal" font-weight="normal" text-decoration="normal" x="53.1470400595703" y="756.008058908818" text-anchor="start" dominant-baseline="alphabetic" xml:space="preserve">Landlord</text></g><g><path fill="white" stroke="black" paint-order="fill stroke markers" d=" M 361.4486642000442 787.110285992018 A 24.2577769005 24.2577769005 0 1 1 361.4486520711568 787.0860282191604 M 311.54461811854424 813.589650541318 L 362.8371564805442 813.589650541318" stroke-miterlimit="10" stroke-width="2.7769845610000004" stroke-dasharray=""/></g><g><g/><text fill="black" stroke="none" font-family="sans-serif" font-size="11pt" font-style="normal" font-weight="normal" text-decoration="normal" x="318.45073684788406" y="756.008058908818" text-anchor="start" dominant-baseline="alphabetic" xml:space="preserve">Client</text></g><g><path fill="white" stroke="black" paint-order="fill stroke markers" d=" M 610.4209324605259 787.110285992018 A 24.2577769005 24.2577769005 0 1 1 610.4209203316385 787.0860282191604 M 560.516886379026 813.589650541318 L 611.809424741026 813.589650541318" stroke-miterlimit="10" stroke-width="2.7769845610000004" stroke-dasharray=""/></g><g><g/><text fill="black" stroke="none" font-family="sans-serif" font-size="11pt" font-style="normal" font-weight="normal" text-decoration="normal" x="557.6377573056315" y="756.008058908818" text-anchor="start" dominant-baseline="alphabetic" xml:space="preserve">Backend</text></g><g><path fill="white" stroke="black" paint-order="fill stroke markers" d=" M 817.4921885015312 808.7707655678181 L 817.4921885015312 774.466838637818 L 865.1909821375311 774.466838637818 L 865.1909821375311 808.7707655678181" stroke-miterlimit="10" stroke-width="2.7769845610000004" stroke-dasharray=""/><path fill="white" stroke="black" paint-order="fill stroke markers" d=" M 865.1909821375311 773.274368796918 L 865.1897896776275 773.3821793418347 L 865.1862124171614 773.4899791057866 L 865.1802507138561 773.5977573088874 L 865.1719051638768 773.7055031734064 L 865.1611766017716 773.8132059248471 L 865.1480661003877 773.920854793024 L 865.1325749707645 774.0284390131401 L 865.1147047620019 774.1359478268629 L 865.0944572611058 774.2433704834007 L 865.0718344928097 774.3506962405773 L 865.0468387193713 774.4579143659065 L 865.0194724403473 774.5650141376651 L 864.9897383923427 774.6719848459652 L 864.9576395487376 774.7788157938251 L 864.9231791193895 774.8854962982389 L 864.8863605503127 774.9920156912451 L 864.8471875233333 775.0983633209934 L 864.8056639557216 775.2045285528093 L 864.7617939997996 775.3105007702579 L 864.7155820425262 775.4162693762061 L 864.6670327050589 775.5218237938813 L 864.6161508422908 775.6271534679295 L 864.5629415423659 775.7322478654713 L 864.5074101261697 775.8370964771545 L 864.4495621467977 775.9416888182054 L 864.3894033889995 776.0460144294768 L 864.3269398686009 776.1500628784946 L 864.2621778319017 776.2538237605007 L 864.1951237550517 776.3572866994934 L 864.1257843434028 776.4604413492649 L 864.0541665308381 776.5632773944361 L 863.9802774790794 776.6657845514884 L 863.9041245769704 776.7679525697914 L 863.8257154397376 776.8697712326284 L 863.7450579082295 776.971230358218 L 863.662160048132 777.0723198007321 L 863.5770301491622 777.1730294513109 L 863.4896767242387 777.273349239073 L 863.4001085086315 777.3732691321235 L 863.3083344590875 777.4727791385561 L 863.214363752935 777.5718693074533 L 863.1182057871665 777.6705297298806 L 863.0198701774984 777.768750539878 L 862.9193667574095 777.8665219154466 L 862.8167055771585 777.96383407953 L 862.7118969027774 778.060677300993 L 862.6049512150465 778.1570418955943 L 862.4958792084456 778.2529182269545 L 862.3846917900843 778.3482967075205 L 862.2714000786117 778.4431677995237 L 862.1560154031048 778.537522015934 L 862.0385493019347 778.6313499214083 L 861.9190135216138 778.7246421332343 L 861.7974200156206 778.8173893222685 L 861.6737809432042 778.9095822138694 L 861.5481086681688 779.0012115888245 L 861.4204157576373 779.0922682842728 L 861.2907149807943 779.1827431946207 L 861.1590193076094 779.2726272724524 L 861.0253419075401 779.361911529435 L 860.8896961482152 779.4505870372174 L 860.7520955940973 779.5386449283225 L 860.6125540051274 779.6260763970347 L 860.4710853353481 779.7128727002801 L 860.3277037315083 779.7990251585004 L 860.1824235316492 779.8845251565217 L 860.0352592636693 779.9693641444156 L 859.8862256438732 780.0535336383539 L 859.7353375754983 780.1370252214573 L 859.582610147226 780.2198305446371 L 859.4280586316718 780.30194132743 L 859.2716984838582 780.3833493588262 L 859.1135453396699 780.4640464980903 L 858.9536150142897 780.5440246755757 L 858.7919235006165 780.6232758935311 L 858.6284869676672 780.701792226901 L 858.4633217589586 780.7795658241174 L 858.2964443908743 780.8565889078855 L 858.1278715510118 780.9328537759609 L 857.9576200965147 781.0083528019204 L 857.7857070523866 781.0830784359244 L 857.6121496097885 781.1570232054718 L 857.4369651243202 781.2301797161472 L 857.2601711142842 781.3025406523603 L 857.0817852589341 781.3740987780782 L 856.9018253967068 781.4448469375477 L 856.7203095234388 781.5147780560118 L 856.5372557905658 781.583885140417 L 856.3526825033089 781.6521612801124 L 856.1666081188426 781.7195996475409 L 855.9790512444507 781.7861934989221 L 855.790030635664 781.8519361749262 L 855.5995651943862 781.9168211013405 L 855.4076739670023 781.9808417897264 L 855.2143761424755 782.0439918380683 L 855.019691050427 782.1062649314141 L 854.8236381592038 782.1676548425064 L 854.6262370739316 782.2281554324052 L 854.4275075345546 782.2877606511018 L 854.2274694138608 782.3464645381242 L 854.0261427154959 782.4042612231325 L 853.8235475719619 782.4611449265064 L 853.619704242604 782.517109959923 L 853.4146331115858 782.5721507269255 L 853.208354685849 782.6262617234833 L 853.0008895930647 782.6794375385415 L 852.792258579569 782.731672854563 L 852.5824825082896 782.78296244806 L 852.3715823566586 782.8333011901155 L 852.1595792145155 782.8826840468975 L 851.9464942819978 782.9311060801614 L 851.7323488674215 782.9785624477443 L 851.5171643851492 783.0250484040488 L 851.3009623534499 783.0705593005182 L 851.0837643923468 783.1150905861007 L 850.8655922214548 783.1586378077048 L 850.6464676578092 783.2011966106447 L 850.4264126136839 783.2427627390756 L 850.2054490943998 783.2833320364193 L 849.9835991961248 783.3229004457797 L 849.7608851036638 783.3614640103491 L 849.5373290882403 783.3990188738029 L 849.3129535052699 783.4355612806863 L 849.0877807921236 783.4710875767889 L 848.8618334658852 783.5055942095107 L 848.635134121099 783.5390777282173 L 848.4077054275106 783.5715347845847 L 848.1795701277997 783.6029621329343 L 847.9507510353064 783.6333566305574 L 847.7212710317491 783.6627152380295 L 847.4911530649371 783.6910350195145 L 847.260420146475 783.7183131430577 L 847.0290953494626 783.7445468808696 L 846.7972018061868 783.7697336095982 L 846.5647627058087 783.7938708105917 L 846.3318012920446 783.81695607015 L 846.0983408608416 783.8389870797664 L 845.8644047580486 783.8599616363584 L 845.6300163770807 783.8798776424878 L 845.3951991565807 783.8987331065705 L 845.1599765780751 783.9165261430758 L 844.9243721636254 783.933254972715 L 844.6884094734771 783.9489179226189 L 844.4521121037025 783.9635134265056 L 844.2155036838415 783.977040024837 L 843.9786078745389 783.9894963649646 L 843.7414483651784 784.0008812012645 L 843.5040488715132 784.0111933952627 L 843.2664331332948 784.0204319157484 L 843.0286249118991 784.0285958388773 L 842.79064798795 784.0356843482638 L 842.5525261589416 784.0416967350628 L 842.3142832368585 784.0466323980409 L 842.0759430457941 784.0504908436357 L 841.8375294195691 784.0532716860058 L 841.5990661993474 784.0549746470695 L 841.3605772312523 784.0555995565319 L 841.1220863639817 784.0551463519026 L 840.8836174464238 784.0536150785019 L 840.6451943252716 784.0510058894557 L 840.4068408426386 784.0473190456808 L 840.1685808336742 784.0425549158583 L 839.930438124181 784.0367139763974 L 839.6924365282314 784.0297968113872 L 839.4545998457866 784.0218041125383 L 839.2169518603166 784.0127366791141 L 838.9795163364221 784.0025954178502 L 838.7423170174574 783.9913813428644 L 838.505377623157 783.9790955755549 L 838.2687218472627 783.965739344488 L 838.0323733551548 783.9513139852759 L 837.7963557814858 783.9358209404423 L 837.5606927278162 783.9192617592789 L 837.3254077602551 783.90163809769 L 837.0905244071031 783.882951718027 L 836.8560661564998 783.8632044889123 L 836.6220564540749 783.8423983850525 L 836.3885187006035 783.8205354870405 L 836.1554762496667 783.7976179811479 L 835.922952405315 783.7736481591063 L 835.6909704197391 783.7486284178779 L 835.4595534909445 783.7225612594158 L 835.228724760431 783.6954492904142 L 834.9985073108794 783.6672952220476 L 834.7689241638428 783.6381018696992 L 834.5399982774445 783.6078721526799 L 834.3117525440825 783.5766090939362 L 834.0842097881399 783.5443158197481 L 833.8573927637026 783.5109955594158 L 833.6313241522842 783.476651644938 L 833.4060265605572 783.4412875106771 L 833.1815225180931 783.4049066930172 L 832.9578344751092 783.3675128300099 L 832.7349848002233 783.3291096610101 L 832.5129957782171 783.2897010263029 L 832.2918896078081 783.2492908667188 L 832.0716883994287 783.2078832232401 L 831.8524141730165 783.1654822365966 L 831.6340888558113 783.1220921468519 L 831.4167342801629 783.0777172929785 L 831.2003721813479 783.032362112425 L 830.9850241953956 782.9860311406715 L 830.7707118569253 782.9387290107766 L 830.5574565969922 782.890460452914 L 830.3452797409448 782.8412302938992 L 830.1342025062914 782.791043456707 L 829.9242460005801 782.7399049599794 L 829.7154312192862 782.6878199175234 L 829.5077790437139 782.6347935377999 L 829.3013102389077 782.5808311234026 L 829.0960454515761 782.525938070528 L 828.8920052080266 782.4701198684356 L 828.6892099121136 782.4133820988993 L 828.4876798431978 782.3557304356485 L 828.2874351541182 782.2971706438017 L 828.0884958691765 782.2377085792891 L 827.8908818821358 782.1773501882677 L 827.6946129542299 782.1161015065263 L 827.4997087121881 782.053968658882 L 827.3061886462722 781.9909578585679 L 827.1140721083274 781.9270754066114 L 826.9233783098476 781.8623276912044 L 826.7341263200536 781.7967211870647 L 826.5463350639867 781.7302624547879 L 826.360023320616 781.6629581401918 L 826.1752097209607 781.5948149736519 L 825.9919127462266 781.525839769428 L 825.8101507259585 781.456039424983 L 825.6299418362069 781.3854209202933 L 825.4513040977106 781.3139913171505 L 825.2742553740947 781.2417577584552 L 825.0988133700838 781.1687274675032 L 824.9249956297324 781.0949077472629 L 824.7528195346695 781.0203059796446 L 824.5823023023611 780.944929624763 L 824.4134609843885 780.8687862201906 L 824.2463124647426 780.7918833802046 L 824.0808734581362 780.7142287950248 L 823.917160508332 780.6358302300451 L 823.7551899864887 780.5566955250567 L 823.5949780895235 780.476832593464 L 823.4365408384923 780.3962494214936 L 823.2798940769885 780.3149540673958 L 823.1250534695577 780.2329546606379 L 822.9720345001313 780.1502594010925 L 822.820852470479 780.0668765582167 L 822.6715224986777 779.982814470225 L 822.5240595176002 779.8980815432564 L 822.3784782734217 779.8126862505329 L 822.2347933241452 779.7266371315126 L 822.093019038146 779.6399427910358 L 821.9531695927346 779.5526118984641 L 821.8152589727389 779.4646531868141 L 821.6793009691058 779.3760754518837 L 821.5453091775228 779.2868875513725 L 821.413296997057 779.1970984039964 L 821.2832776288167 779.106716988595 L 821.1552640746302 779.0157523432348 L 821.0292691357463 778.9242135643045 L 820.905305411554 778.8321098056056 L 820.7833852983223 778.7394502774372 L 820.6635209879609 778.646244245675 L 820.545724466801 778.5525010308445 L 820.4300075143965 778.4582300071891 L 820.3163817023462 778.3634406017325 L 820.2048583931369 778.2681422933362 L 820.0954487390062 778.1723446117518 L 819.9881636808285 778.0760571366676 L 819.8830139470202 777.9792894967508 L 819.7800100524672 777.8820513686846 L 819.6791622974729 777.7843524762011 L 819.5804807667288 777.686202589108 L 819.4839753283059 777.5876115223122 L 819.3896556326674 777.4885891348381 L 819.2975311117044 777.3891453288421 L 819.2076109777922 777.289290048622 L 819.1199042228693 777.1890332796223 L 819.034419617538 777.0883850474366 L 818.9511657101878 776.9873554168042 L 818.8701508261397 776.885954490604 L 818.7913830668149 776.784192408844 L 818.7148703089237 776.6820793476477 L 818.6406202036778 776.5796255182361 L 818.5686401760263 776.4768411659066 L 818.4989374239116 776.3737365690091 L 818.4315189175511 776.2703220379171 L 818.3663913987391 776.1666079139976 L 818.3035613801732 776.0626045685767 L 818.243035144803 775.958322401902 L 818.1848187452015 775.8537718421036 L 818.1289180029603 775.7489633441501 L 818.0753385081068 775.6439073888039 L 818.024085618546 775.5386144815733 L 817.9751644595242 775.433095151661 L 817.9285799231163 775.3273599509122 L 817.8843366677374 775.2214194527587 L 817.842439117676 775.1152842511623 L 817.8028914626523 775.0089649595545 L 817.7656976573986 774.902472209776 L 817.7308614212648 774.7958166510128 L 817.698386237845 774.6890089487323 L 817.6682753546311 774.5820597836154 L 817.6405317826858 774.4749798504895 L 817.6151582963435 774.3677798572587 L 817.5921574329315 774.2604705238331 L 817.571531492517 774.1530625810566 L 817.5532825376769 774.0455667696339 L 817.5374123932914 773.9379938390566 L 817.5239226463619 773.830354546528 L 817.5128146458517 773.7226596558879 L 817.5040895025517 773.6149199365354 L 817.4977480889687 773.5071461623528 L 817.4937910392391 773.3993491106276 L 817.4922187490644 773.2915395609751 L 817.4930313756723 773.1837282942606 L 817.4962288378009 773.0759260915208 L 817.5018108157066 772.9681437328862 L 817.5097767511962 772.8603919965028 L 817.520125847683 772.7526816574544 L 817.5328570702658 772.6450234866853 L 817.5479691458329 772.5374282499228 L 817.5654605631895 772.4299067066008 L 817.5853295732084 772.3224696087841 L 817.6075741890049 772.215127700093 L 817.6321921861364 772.107891714629 L 817.6591811028234 772.000772375901 L 817.6885382401967 771.8937803957539 L 817.7202606625673 771.7869264732963 L 817.7543451977192 771.6802212938316 L 817.7907884372272 771.5736755277887 L 817.829586736798 771.4672998296555 L 817.8707362166336 771.3611048369132 L 817.9142327618207 771.2551011689725 L 817.9600720227407 771.1492994261118 L 818.0082494155059 771.0437101884174 L 818.0587601224172 770.938344014725 L 818.1115990924458 770.833211441564 L 818.1667610417389 770.7283229821044 L 818.2242404541475 770.6236891251044 L 818.2840315817783 770.5193203338629 L 818.3461284455682 770.4152270451716 L 818.4105248358827 770.3114196682731 L 818.4772143131365 770.2079085838182 L 818.5461902084373 770.1047041428293 L 818.6174456242532 770.0018166656644 L 818.6909734351018 769.8992564409855 L 818.7667662882634 769.7970337247295 L 818.8448166045158 769.6951587390831 L 818.9251165788926 769.5936416714599 L 819.007658181463 769.4924926734818 L 819.0924331581357 769.3917218599646 L 819.1794330314837 769.2913393079056 L 819.268649101592 769.1913550554762 L 819.3600724469281 769.0917791010185 L 819.4536939252337 768.9926214020448 L 819.5495041744387 768.8938918742426 L 819.6474936135983 768.7956003904823 L 819.7476524438501 768.6977567798303 L 819.8499706493947 768.6003708265662 L 819.9544379984965 768.5034522692041 L 820.061044044508 768.4070107995191 L 820.1697781269132 768.3110560615777 L 820.2806293723945 768.2155976507737 L 820.3935866959199 768.1206451128687 L 820.508638801851 768.0262079430374 L 820.6257741850732 767.932295584918 L 820.7449811321455 767.8389174296681 L 820.866247722473 767.7460828150254 L 820.9895618294975 767.653801024374 L 821.1149111219108 767.562081285816 L 821.2422830648885 767.470932771249 L 821.3716649213424 767.3803645954483 L 821.5030437531944 767.2903858151561 L 821.636406422671 767.2010054281754 L 821.7717395936164 767.1122323724707 L 821.9090297328263 767.024075525273 L 822.0482631114011 766.9365437021942 L 822.189425806119 766.8496456563432 L 822.332503700828 766.7633900774523 L 822.4774824878582 766.6777855910077 L 822.6243476694515 766.5928407573865 L 822.7730845592122 766.5085640710013 L 822.9236782835751 766.4249639594506 L 823.0761137832935 766.3420487826756 L 823.2303758149443 766.2598268321254 L 823.386448952453 766.1783063299262 L 823.5443175886357 766.0974954280603 L 823.7039659367607 766.0174022075505 L 823.8653780321258 765.9380346776522 L 824.0285377336563 765.8594007750522 L 824.1934287255178 765.7815083630754 L 824.3600345187488 765.7043652308979 L 824.5283384529085 765.6279790927687 L 824.6983236977438 765.5523575872379 L 824.8699732548721 765.4775082763931 L 825.0432699594805 765.4034386451029 L 825.218196482043 765.3301561002689 L 825.3947353300532 765.2576679700844 L 825.5728688497733 765.1859815033021 L 825.7525792279998 765.1151038685088 L 825.9338484938447 765.0450421534089 L 826.1166585205324 764.9758033641157 L 826.3009910272126 764.9073944244502 L 826.4868275807884 764.8398221752497 L 826.674149597759 764.7730933736824 L 826.8629383460789 764.7072146925732 L 827.0531749470307 764.642192719735 L 827.2448403771128 764.5780339573113 L 827.4379154699419 764.5147448211244 L 827.6323809181696 764.4523316400355 L 827.8282172754132 764.3908006553106 L 828.0254049581999 764.330158019997 L 828.2239242479262 764.2704097983076 L 828.4237552928282 764.2115619650147 L 828.624878109968 764.1536204048527 L 828.8272725872316 764.0965909119293 L 829.03091848534 764.0404791891464 L 829.2357954398727 763.9852908476292 L 829.4418829633054 763.9310314061662 L 829.6491604470573 763.8777062906561 L 829.8576071635528 763.8253208335661 L 830.067202268294 763.7738802733984 L 830.2779248019449 763.7233897541659 L 830.4897536924279 763.6738543248784 L 830.7026677570306 763.6252789390379 L 830.9166457045237 763.5776684541423 L 831.131666137291 763.5310276312003 L 831.3477075534681 763.4853611342556 L 831.5647483490936 763.4406735299196 L 831.782766820269 763.3969692869156 L 832.0017411653286 763.3542527756315 L 832.2216494870204 763.3125282676826 L 832.4424697946955 763.2717999354853 L 832.6641800065072 763.2320718518387 L 832.8867579516191 763.1933479895181 L 833.1101813724221 763.1556322208772 L 833.3344279267602 763.1189283174618 L 833.5594751901651 763.0832399496315 L 833.7853006580979 763.0485706861934 L 834.0118817481999 763.0149239940448 L 834.2391958025511 762.9823032378271 L 834.4672200899352 762.9507116795885 L 834.6959318081136 762.9201524784586 L 834.9253080861052 762.8906286903322 L 835.1553259864734 762.8621432675633 L 835.3859625076195 762.8346990586705 L 835.6171945860839 762.8082988080517 L 835.8489990988512 762.7829451557103 L 836.0813528656636 762.7586406369901 L 836.3142326513378 762.7353876823228 L 836.5476151680894 762.7131886169846 L 836.7814770778612 762.6920456608633 L 837.015794994657 762.6719609282371 L 837.2505454868805 762.6529364275625 L 837.485705079678 762.6349740612736 L 837.7212502572864 762.6180756255922 L 837.9571574653841 762.6022428103477 L 838.1934031134468 762.5874771988084 L 838.4299635771066 762.5737802675231 L 838.6668152005144 762.5611533861738 L 838.903934298705 762.5495978174379 L 839.1412971599665 762.5391147168626 L 839.3788800482102 762.5297051327493 L 839.6166592053455 762.5213700060486 L 839.8546108536549 762.5141101702662 L 840.0927111981716 762.5079263513795 L 840.3309364290598 762.5028191677656 L 840.5692627239948 762.4987891301381 L 840.8076662505458 762.4958366414977 L 841.0461231685587 762.4939619970909 L 841.2846096325405 762.4931653843803 L 841.5231017940436 762.4934468830266 L 841.7615758040504 762.4948064648804 L 842.0000078153588 762.4972439939843 L 842.2383739849663 762.5007592265877 L 842.4766504764546 762.5053518111702 L 842.7148134623731 762.511021288477 L 842.9528391266216 762.5177670915652 L 843.1907036668321 762.5255885458602 L 843.4283832967487 762.534484869223 L 843.6658542486068 762.5444551720286 L 843.9030927755088 762.5554984572553 L 844.1400751537997 762.5676136205835 L 844.3767776854393 762.5807994505071 L 844.6131767003716 762.595054628454 L 844.8492485588922 762.6103777289185 L 845.0849696540118 762.626767219603 L 845.3203164138175 762.6442214615724 L 845.5552653038294 762.6627387094169 L 845.7897928293542 762.682317111427 L 846.0238755378349 762.7029547097791 L 846.2574900211956 762.7246494407304 L 846.4906129181827 762.7473991348259 L 846.7232209167008 762.7712015171152 L 846.9552907561439 762.7960542073798 L 847.1867992297214 762.8219547203715 L 847.4177231867789 762.8489004660605 L 847.6480395351131 762.8768887498949 L 847.877725243281 762.9059167730693 L 848.1067573429034 762.9359816328057 L 848.335112930961 762.9670803226433 L 848.5627691720855 762.9992097327389 L 848.7897033008422 763.0323666501783 L 849.0158926240076 763.0665477592976 L 849.2413145228379 763.1017496420139 L 849.4659464553308 763.1379687781687 L 849.6897659584805 763.1752015458784 L 849.9127506505231 763.2134442218971 L 850.1348782331751 763.2526929819894 L 850.3561264938636 763.2929439013118 L 850.5764733079467 763.3341929548059 L 850.7958966409266 763.3764360176008 L 851.014374550653 763.4196688654253 L 851.2318851895169 763.4638871750308 L 851.4484068066357 763.5090865246231 L 851.6639177500281 763.5552623943048 L 851.8783964687793 763.6024101665276 L 852.0918215151963 763.6505251265536 L 852.3041715469523 763.6996024629267 L 852.515425329221 763.7496372679543 L 852.7255617368002 763.8006245381976 L 852.9345597562242 763.8525591749719 L 853.1423984878654 763.9054359848569 L 853.3490571480237 763.9592496802157 L 853.5545150710054 764.0139948797238 L 853.7587517111893 764.0696661089064 L 853.9617466450817 764.1262578006874 L 854.1634795733582 764.1837642959446 L 854.3639303228944 764.2421798440763 L 854.563078848782 764.3014986035766 L 854.7609052363346 764.3617146426188 L 854.9573897030782 764.4228219396493 L 855.15251260073 764.4848143839893 L 855.3462544171628 764.547685776446 L 855.5385957783561 764.6114298299324 L 855.7295174503346 764.6760401700965 L 855.9190003410897 764.741510335958 L 856.1070255024906 764.8078337805549 L 856.2935741321777 764.875003871598 L 856.4786275754434 764.9430138921342 L 856.6621673270977 765.0118570412181 L 856.8441750333184 765.0815264345922 L 857.0246324934865 765.1520151053752 L 857.2035216620063 765.2233160047588 L 857.3808246501101 765.2954220027123 L 857.5565237276469 765.3683258886962 L 857.7306013248552 765.4420203723826 L 857.9030400341205 765.5164980843844 L 858.0738226117155 765.5917515769926 L 858.2429319795248 765.6677733249206 L 858.4103512267524 765.7445557260571 L 858.5760636116132 765.8220911022258 L 858.7400525630069 765.9003716999539 L 858.9023016821749 765.9793896912466 L 859.0627947443405 766.0591371743707 L 859.2215157003313 766.1396061746444 L 859.3784486781839 766.2207886452348 L 859.5335779847312 766.3026764679623 L 859.6868881071721 766.3852614541131 L 859.8383637146218 766.4685353452571 L 859.9879896596459 766.5524898140749 L 860.1357509797747 766.6371164651894 L 860.2816328989992 766.722406836006 L 860.425620829249 766.8083523975588 L 860.5677003718513 766.8949445553632 L 860.70785731897 766.9821746502755 L 860.8460776550272 767.0700339593591 L 860.9823475581046 767.1585136967561 L 861.1166534013254 767.2476050145667 L 861.2489817542172 767.3372990037332 L 861.3793193840548 767.4275866949314 L 861.5076532571842 767.5184590594675 L 861.6339705403249 767.6099070101809 L 861.7582586018535 767.7019214023526 L 861.8805050130679 767.7944930346199 L 862.0006975494287 767.887612649897 L 862.1188241917823 767.9812709362999 L 862.234873127563 768.0754585280779 L 862.3488327519739 768.1701660065503 L 862.4606916691475 768.2653839010484 L 862.5704386932854 768.3611026898618 L 862.6780628497766 768.4573128011916 L 862.783553376295 768.5540046141068 L 862.886899723876 768.6511684595066 L 862.988091557971 768.7487946210875 L 863.0871187594809 768.8468733363147 L 863.1839714257678 768.9453947973984 L 863.2786398716462 769.0443491522745 L 863.3711146303501 769.1437265055902 L 863.4613864544809 769.2435169196928 L 863.5494463169313 769.3437104156241 L 863.6352854117883 769.444296974118 L 863.7188951552143 769.5452665366023 L 863.8002671863043 769.6466090062053 L 863.8793933679232 769.748314248764 L 863.9562657875186 769.8503720938393 L 864.0308767579128 769.9527723357315 L 864.1032188180709 770.0555047345019 L 864.173284733847 770.1585590169963 L 864.241067498708 770.2619248778719 L 864.306560334434 770.3655919806292 L 864.3697566917958 770.4695499586442 L 864.4306502512106 770.5737884162056 L 864.489234923373 770.6782969295547 L 864.5455048498646 770.783065047927 L 864.5994544037399 770.8880822945982 L 864.6510781900881 770.9933381679311 L 864.7003710465738 771.098822142426 L 864.7473280439524 771.2045236697735 L 864.7919444865632 771.3104321799087 L 864.8342159127993 771.416537082069 L 864.8741380955531 771.5228277658528 L 864.9117070426398 771.6292936022799 L 864.9469189971958 771.7359239448556 L 864.9797704380551 771.8427081306345 L 865.010258080101 771.9496354812869 L 865.0383788745947 772.056695304167 L 865.0641300094801 772.1638768933817 L 865.0875089096653 772.2711695308612 L 865.1085132372796 772.3785624874314 L 865.1271408919079 772.486045023886 L 865.1433900108001 772.5936063920611 L 865.157258969058 772.7012358359093 L 865.1687463797973 772.808922592576 L 865.1778510942864 772.9166558934753 L 865.1845722020616 773.0244249653667 L 865.1889090310176 773.1322190314331 L 865.1908611474752 773.2400273123576 M 865.1909821375311 807.5782957269181 L 865.1897896776275 807.6861062718348 L 865.1862124171614 807.7939060357867 L 865.1802507138561 807.9016842388875 L 865.1719051638768 808.0094301034065 L 865.1611766017716 808.1171328548472 L 865.1480661003877 808.2247817230241 L 865.1325749707645 808.3323659431402 L 865.1147047620019 808.439874756863 L 865.0944572611058 808.5472974134008 L 865.0718344928097 808.6546231705775 L 865.0468387193713 808.7618412959066 L 865.0194724403473 808.8689410676652 L 864.9897383923427 808.9759117759653 L 864.9576395487376 809.0827427238252 L 864.9231791193895 809.189423228239 L 864.8863605503127 809.2959426212453 L 864.8471875233333 809.4022902509935 L 864.8056639557216 809.5084554828094 L 864.7617939997996 809.614427700258 L 864.7155820425262 809.7201963062062 L 864.6670327050589 809.8257507238814 L 864.6161508422908 809.9310803979296 L 864.5629415423659 810.0361747954714 L 864.5074101261697 810.1410234071546 L 864.4495621467977 810.2456157482055 L 864.3894033889995 810.3499413594769 L 864.3269398686009 810.4539898084947 L 864.2621778319017 810.5577506905008 L 864.1951237550517 810.6612136294935 L 864.1257843434028 810.764368279265 L 864.0541665308381 810.8672043244362 L 863.9802774790794 810.9697114814885 L 863.9041245769704 811.0718794997915 L 863.8257154397376 811.1736981626285 L 863.7450579082295 811.2751572882181 L 863.662160048132 811.3762467307322 L 863.5770301491622 811.476956381311 L 863.4896767242387 811.5772761690731 L 863.4001085086315 811.6771960621236 L 863.3083344590875 811.7767060685562 L 863.214363752935 811.8757962374534 L 863.1182057871665 811.9744566598807 L 863.0198701774984 812.0726774698782 L 862.9193667574095 812.1704488454467 L 862.8167055771585 812.2677610095301 L 862.7118969027774 812.3646042309931 L 862.6049512150465 812.4609688255944 L 862.4958792084456 812.5568451569546 L 862.3846917900843 812.6522236375206 L 862.2714000786117 812.7470947295238 L 862.1560154031048 812.8414489459341 L 862.0385493019347 812.9352768514084 L 861.9190135216138 813.0285690632344 L 861.7974200156206 813.1213162522686 L 861.6737809432042 813.2135091438695 L 861.5481086681688 813.3051385188246 L 861.4204157576373 813.3961952142729 L 861.2907149807943 813.4866701246208 L 861.1590193076094 813.5765542024525 L 861.0253419075401 813.6658384594351 L 860.8896961482152 813.7545139672175 L 860.7520955940973 813.8425718583226 L 860.6125540051274 813.9300033270348 L 860.4710853353481 814.0167996302802 L 860.3277037315083 814.1029520885005 L 860.1824235316492 814.1884520865218 L 860.0352592636693 814.2732910744157 L 859.8862256438732 814.357460568354 L 859.7353375754983 814.4409521514574 L 859.582610147226 814.5237574746373 L 859.4280586316718 814.6058682574301 L 859.2716984838582 814.6872762888263 L 859.1135453396699 814.7679734280904 L 858.9536150142897 814.8479516055758 L 858.7919235006165 814.9272028235312 L 858.6284869676672 815.0057191569011 L 858.4633217589586 815.0834927541175 L 858.2964443908743 815.1605158378856 L 858.1278715510118 815.236780705961 L 857.9576200965147 815.3122797319205 L 857.7857070523866 815.3870053659246 L 857.6121496097885 815.4609501354719 L 857.4369651243202 815.5341066461473 L 857.2601711142842 815.6064675823604 L 857.0817852589341 815.6780257080783 L 856.9018253967068 815.7487738675478 L 856.7203095234388 815.8187049860119 L 856.5372557905658 815.8878120704171 L 856.3526825033089 815.9560882101125 L 856.1666081188426 816.023526577541 L 855.9790512444507 816.0901204289222 L 855.790030635664 816.1558631049263 L 855.5995651943862 816.2207480313406 L 855.4076739670023 816.2847687197265 L 855.2143761424755 816.3479187680684 L 855.019691050427 816.4101918614142 L 854.8236381592038 816.4715817725065 L 854.6262370739316 816.5320823624053 L 854.4275075345546 816.591687581102 L 854.2274694138608 816.6503914681243 L 854.0261427154959 816.7081881531326 L 853.8235475719619 816.7650718565066 L 853.619704242604 816.8210368899231 L 853.4146331115858 816.8760776569256 L 853.208354685849 816.9301886534834 L 853.0008895930647 816.9833644685416 L 852.792258579569 817.0355997845631 L 852.5824825082896 817.08688937806 L 852.3715823566586 817.1372281201157 L 852.1595792145155 817.1866109768976 L 851.9464942819978 817.2350330101615 L 851.7323488674215 817.2824893777444 L 851.5171643851492 817.3289753340489 L 851.3009623534499 817.3744862305183 L 851.0837643923468 817.4190175161008 L 850.8655922214548 817.462564737705 L 850.6464676578092 817.5051235406448 L 850.4264126136839 817.5466896690757 L 850.2054490943998 817.5872589664194 L 849.9835991961248 817.6268273757798 L 849.7608851036638 817.6653909403492 L 849.5373290882403 817.702945803803 L 849.3129535052699 817.7394882106864 L 849.0877807921236 817.775014506789 L 848.8618334658852 817.8095211395108 L 848.635134121099 817.8430046582175 L 848.4077054275106 817.8754617145848 L 848.1795701277997 817.9068890629344 L 847.9507510353064 817.9372835605575 L 847.7212710317491 817.9666421680296 L 847.4911530649371 817.9949619495146 L 847.260420146475 818.0222400730578 L 847.0290953494626 818.0484738108697 L 846.7972018061868 818.0736605395983 L 846.5647627058087 818.0977977405918 L 846.3318012920446 818.1208830001501 L 846.0983408608416 818.1429140097665 L 845.8644047580486 818.1638885663585 L 845.6300163770807 818.1838045724879 L 845.3951991565807 818.2026600365706 L 845.1599765780751 818.2204530730759 L 844.9243721636254 818.2371819027151 L 844.6884094734771 818.252844852619 L 844.4521121037025 818.2674403565057 L 844.2155036838415 818.2809669548371 L 843.9786078745389 818.2934232949647 L 843.7414483651784 818.3048081312646 L 843.5040488715132 818.3151203252628 L 843.2664331332948 818.3243588457485 L 843.0286249118991 818.3325227688774 L 842.79064798795 818.3396112782639 L 842.5525261589416 818.3456236650629 L 842.3142832368585 818.350559328041 L 842.0759430457941 818.3544177736358 L 841.8375294195691 818.3571986160059 L 841.5990661993474 818.3589015770696 L 841.3605772312523 818.359526486532 L 841.1220863639817 818.3590732819027 L 840.8836174464238 818.357542008502 L 840.6451943252716 818.3549328194558 L 840.4068408426386 818.3512459756807 L 840.1685808336742 818.3464818458584 L 839.930438124181 818.3406409063975 L 839.6924365282314 818.3337237413873 L 839.4545998457866 818.3257310425385 L 839.2169518603166 818.3166636091142 L 838.9795163364221 818.3065223478503 L 838.7423170174574 818.2953082728645 L 838.505377623157 818.283022505555 L 838.2687218472627 818.2696662744881 L 838.0323733551548 818.255240915276 L 837.7963557814858 818.2397478704424 L 837.5606927278162 818.223188689279 L 837.3254077602551 818.2055650276901 L 837.0905244071031 818.1868786480271 L 836.8560661564998 818.1671314189124 L 836.6220564540749 818.1463253150526 L 836.3885187006035 818.1244624170406 L 836.1554762496667 818.101544911148 L 835.922952405315 818.0775750891064 L 835.6909704197391 818.052555347878 L 835.4595534909445 818.0264881894159 L 835.228724760431 817.9993762204143 L 834.9985073108794 817.9712221520477 L 834.7689241638428 817.9420287996993 L 834.5399982774445 817.91179908268 L 834.3117525440825 817.8805360239363 L 834.0842097881399 817.8482427497482 L 833.8573927637026 817.814922489416 L 833.6313241522842 817.7805785749381 L 833.4060265605572 817.7452144406772 L 833.1815225180931 817.7088336230173 L 832.9578344751092 817.67143976001 L 832.7349848002233 817.6330365910102 L 832.5129957782171 817.593627956303 L 832.2918896078081 817.5532177967189 L 832.0716883994287 817.5118101532402 L 831.8524141730165 817.4694091665967 L 831.6340888558113 817.426019076852 L 831.4167342801629 817.3816442229786 L 831.2003721813479 817.336289042425 L 830.9850241953956 817.2899580706716 L 830.7707118569253 817.2426559407767 L 830.5574565969922 817.1943873829141 L 830.3452797409448 817.1451572238993 L 830.1342025062914 817.0949703867071 L 829.9242460005801 817.0438318899795 L 829.7154312192862 816.9917468475235 L 829.5077790437139 816.9387204678 L 829.3013102389077 816.8847580534027 L 829.0960454515761 816.8298650005281 L 828.8920052080266 816.7740467984357 L 828.6892099121136 816.7173090288994 L 828.4876798431978 816.6596573656486 L 828.2874351541182 816.6010975738018 L 828.0884958691765 816.5416355092892 L 827.8908818821358 816.4812771182678 L 827.6946129542299 816.4200284365264 L 827.4997087121881 816.3578955888821 L 827.3061886462722 816.294884788568 L 827.1140721083274 816.2310023366115 L 826.9233783098476 816.1662546212045 L 826.7341263200536 816.1006481170648 L 826.5463350639867 816.034189384788 L 826.360023320616 815.9668850701919 L 826.1752097209607 815.898741903652 L 825.9919127462266 815.8297666994281 L 825.8101507259585 815.7599663549831 L 825.6299418362069 815.6893478502934 L 825.4513040977106 815.6179182471506 L 825.2742553740947 815.5456846884553 L 825.0988133700838 815.4726543975033 L 824.9249956297324 815.398834677263 L 824.7528195346695 815.3242329096447 L 824.5823023023611 815.248856554763 L 824.4134609843885 815.1727131501907 L 824.2463124647426 815.0958103102047 L 824.0808734581362 815.0181557250249 L 823.917160508332 814.9397571600452 L 823.7551899864887 814.8606224550568 L 823.5949780895235 814.7807595234641 L 823.4365408384923 814.7001763514937 L 823.2798940769885 814.6188809973959 L 823.1250534695577 814.536881590638 L 822.9720345001313 814.4541863310926 L 822.820852470479 814.3708034882168 L 822.6715224986777 814.2867414002251 L 822.5240595176002 814.2020084732565 L 822.3784782734217 814.116613180533 L 822.2347933241452 814.0305640615127 L 822.093019038146 813.9438697210359 L 821.9531695927346 813.8565388284642 L 821.8152589727389 813.7685801168142 L 821.6793009691058 813.6800023818838 L 821.5453091775228 813.5908144813726 L 821.413296997057 813.5010253339965 L 821.2832776288167 813.4106439185952 L 821.1552640746302 813.3196792732349 L 821.0292691357463 813.2281404943046 L 820.905305411554 813.1360367356057 L 820.7833852983223 813.0433772074373 L 820.6635209879609 812.9501711756751 L 820.545724466801 812.8564279608446 L 820.4300075143965 812.7621569371892 L 820.3163817023462 812.6673675317326 L 820.2048583931369 812.5720692233363 L 820.0954487390062 812.4762715417519 L 819.9881636808285 812.3799840666677 L 819.8830139470202 812.2832164267509 L 819.7800100524672 812.1859782986847 L 819.6791622974729 812.0882794062012 L 819.5804807667288 811.9901295191081 L 819.4839753283059 811.8915384523123 L 819.3896556326674 811.7925160648382 L 819.2975311117044 811.6930722588422 L 819.2076109777922 811.5932169786221 L 819.1199042228693 811.4929602096224 L 819.034419617538 811.3923119774367 L 818.9511657101878 811.2912823468043 L 818.8701508261397 811.1898814206041 L 818.7913830668149 811.0881193388441 L 818.7148703089237 810.9860062776478 L 818.6406202036778 810.8835524482362 L 818.5686401760263 810.7807680959068 L 818.4989374239116 810.6776634990092 L 818.4315189175511 810.5742489679172 L 818.3663913987391 810.4705348439977 L 818.3035613801732 810.3665314985768 L 818.243035144803 810.2622493319021 L 818.1848187452015 810.1576987721037 L 818.1289180029603 810.0528902741502 L 818.0753385081068 809.947834318804 L 818.024085618546 809.8425414115734 L 817.9751644595242 809.737022081661 L 817.9285799231163 809.6312868809123 L 817.8843366677374 809.5253463827588 L 817.842439117676 809.4192111811624 L 817.8028914626523 809.3128918895546 L 817.7656976573986 809.2063991397761 L 817.7308614212648 809.099743581013 L 817.698386237845 808.9929358787324 L 817.6682753546311 808.8859867136155 L 817.6405317826858 808.7789067804896 L 817.6151582963435 808.6717067872588 L 817.5921574329315 808.5643974538332 L 817.571531492517 808.4569895110567 L 817.5532825376769 808.349493699634 L 817.5374123932914 808.2419207690567 L 817.5239226463619 808.1342814765281 L 817.5128146458517 808.026586585888 L 817.5040895025517 807.9188468665355 L 817.4977480889687 807.8110730923529 L 817.4937910392391 807.7032760406277 L 817.4922187490644 807.5954664909752" stroke-miterlimit="10" stroke-width="2.7769845610000004" stroke-dasharray=""/></g><g><g/><text fill="black" stroke="none" font-family="sans-serif" font-size="11pt" font-style="normal" font-weight="normal" text-decoration="normal" x="809.9636403732421" y="756.008058908818" text-anchor="start" dominant-baseline="alphabetic" xml:space="preserve">Database</text></g></g><g><path fill="white" stroke="black" paint-order="fill stroke markers" d=" M 73.50841485 182.64242307881818 L 89.84361814999998 182.64242307881818 L 89.84361814999998 682.499644058818 L 73.50841485 682.499644058818 L 73.50841485 182.64242307881818" stroke-miterlimit="10" stroke-width="1.3612669416666667" stroke-dasharray=""/><path fill="white" stroke="black" paint-order="fill stroke markers" d=" M 329.0232856495442 182.64242307881818 L 345.3584889495442 182.64242307881818 L 345.3584889495442 682.499644058818 L 329.0232856495442 682.499644058818 L 329.0232856495442 182.64242307881818" stroke-miterlimit="10" stroke-width="1.3612669416666667" stroke-dasharray=""/><path fill="white" stroke="black" paint-order="fill stroke markers" d=" M 577.9955539100259 228.3809923188182 L 594.330757210026 228.3809923188182 L 594.330757210026 682.499644058818 L 577.9955539100259 682.499644058818 L 577.9955539100259 228.3809923188182" stroke-miterlimit="10" stroke-width="1.3612669416666667" stroke-dasharray=""/><path fill="white" stroke="black" paint-order="fill stroke markers" d=" M 833.1739836695311 339.4603747588182 L 849.5091869695312 339.4603747588182 L 849.5091869695312 682.499644058818 L 833.1739836695311 682.499644058818 L 833.1739836695311 339.4603747588182" stroke-miterlimit="10" stroke-width="1.3612669416666667" stroke-dasharray=""/><g><text fill="black" stroke="none" font-family="sans-serif" font-size="16pt" font-style="normal" font-weight="normal" text-decoration="normal" x="408.1386184692383" y="24.651306798181814" text-anchor="start" dominant-baseline="alphabetic" xml:space="preserve">Xathitb</text></g><g><rect fill="white" stroke="none" x="138.1177691830924" y="161.4066587888182" width="142.63136543335938" height="21.23576429"/><text fill="black" stroke="none" font-family="sans-serif" font-size="11pt" font-style="normal" font-weight="normal" text-decoration="normal" x="140.5680496780924" y="176.10834175881817" text-anchor="start" dominant-baseline="alphabetic" xml:space="preserve">Chnthitbcnxa</text></g><g><path fill="none" stroke="black" paint-order="fill stroke markers" d=" M 89.84361814999998 182.64242307881818 L 315.57396826587757 182.64242307881818" stroke-miterlimit="10" stroke-width="1.3612669416666667" stroke-dasharray=""/><g transform="translate(329.0232856495442,182.64242307881818) translate(-329.0232856495442,-182.64242307881818)"><path fill="black" stroke="none" paint-order="stroke fill markers" d=" M 315.41061623287754 175.83608837048484 L 329.0232856495442 182.64242307881818 L 315.41061623287754 189.44875778715152 Z"/></g></g><g><rect fill="white" stroke="none" x="386.2811614059765" y="207.1452280288182" width="150.7917200476172" height="21.23576429"/><text fill="black" stroke="none" font-family="sans-serif" font-size="11pt" font-style="normal" font-weight="normal" text-decoration="normal" x="388.7314419009765" y="221.84691099881817" text-anchor="start" dominant-baseline="alphabetic" xml:space="preserve">GiIDthitbcnxa</text></g><g><path fill="none" stroke="black" paint-order="fill stroke markers" d=" M 345.3584889495442 228.3809923188182 L 564.5462365263593 228.3809923188182" stroke-miterlimit="10" stroke-width="1.3612669416666667" stroke-dasharray=""/><g transform="translate(577.9955539100259,228.3809923188182) translate(-577.9955539100259,-228.3809923188182)"><path fill="black" stroke="none" paint-order="stroke fill markers" d=" M 564.3828844933593 221.57465761048485 L 577.9955539100259 228.3809923188182 L 564.3828844933593 235.18732702715153 Z"/></g></g><g><rect fill="white" stroke="none" x="613.6607477816927" y="252.88379726881823" width="103.49751533570313" height="21.23576429"/><text fill="black" stroke="none" font-family="sans-serif" font-size="11pt" font-style="normal" font-weight="normal" text-decoration="normal" x="616.1110282766928" y="267.5854802388182" text-anchor="start" dominant-baseline="alphabetic" xml:space="preserve">Kimtraquyn</text></g><g><path fill="none" stroke="black" paint-order="fill stroke markers" d=" M 594.330757210026 274.1195615588182 L 659.671570410026 274.1195615588182 L 659.671570410026 295.3553258488182 L 607.7800745936927 295.3553258488182" stroke-miterlimit="10" stroke-width="1.3612669416666667" stroke-dasharray=""/><g transform="translate(594.330757210026,295.3553258488182) translate(-594.330757210026,-295.3553258488182)"><path fill="black" stroke="none" paint-order="stroke fill markers" d=" M 607.9434266266927 288.5489911404849 L 594.330757210026 295.3553258488182 L 607.9434266266927 302.16166055715155 Z"/></g></g><g><rect fill="white" stroke="none" x="613.6607477816926" y="363.9631797088182" width="200.18324531617188" height="21.23576429"/><text fill="black" stroke="none" font-family="sans-serif" font-size="11pt" font-style="normal" font-weight="normal" text-decoration="normal" x="616.1110282766927" y="378.66486267881817" text-anchor="start" dominant-baseline="alphabetic" xml:space="preserve">Xathitbkhicsdliu</text></g><g><path fill="none" stroke="black" paint-order="fill stroke markers" d=" M 594.330757210026 385.1989439988182 L 819.7246662858645 385.1989439988182" stroke-miterlimit="10" stroke-width="1.3612669416666667" stroke-dasharray=""/><g transform="translate(833.1739836695311,385.1989439988182) translate(-833.1739836695311,-385.1989439988182)"><path fill="black" stroke="none" paint-order="stroke fill markers" d=" M 819.5613142528645 378.39260929048487 L 833.1739836695311 385.1989439988182 L 819.5613142528645 392.00527870715155 Z"/></g></g><g><rect fill="white" stroke="none" x="632.6514399203645" y="409.7017489488182" width="162.20186103882813" height="21.23576429"/><text fill="black" stroke="none" font-family="sans-serif" font-size="11pt" font-style="normal" font-weight="normal" text-decoration="normal" x="635.1017204153645" y="424.40343191881817" text-anchor="start" dominant-baseline="alphabetic" xml:space="preserve">Xcnhnthitbxa</text></g><g><path fill="none" stroke="black" paint-order="fill stroke markers" d=" M 833.1739836695311 430.9375132388182 L 607.7800745936927 430.9375132388182" stroke-miterlimit="10" stroke-width="1.3612669416666667" stroke-dasharray="6.53408132"/><g transform="translate(594.330757210026,430.9375132388182) translate(-594.330757210026,-430.9375132388182)"><path fill="black" stroke="none" paint-order="stroke fill markers" d=" M 607.9434266266927 424.1311785304849 L 594.330757210026 430.9375132388182 L 607.9434266266927 437.74384794715155 Z"/></g></g><g><rect fill="white" stroke="none" x="372.01130209201165" y="455.4403181888182" width="179.33143867554688" height="21.23576429"/><text fill="black" stroke="none" font-family="sans-serif" font-size="11pt" font-style="normal" font-weight="normal" text-decoration="normal" x="374.46158258701166" y="470.1420011588182" text-anchor="start" dominant-baseline="alphabetic" xml:space="preserve">Thngboxathnhcng</text></g><g><path fill="none" stroke="black" paint-order="fill stroke markers" d=" M 577.9955539100259 476.6760824788182 L 358.80780633321086 476.6760824788182" stroke-miterlimit="10" stroke-width="1.3612669416666667" stroke-dasharray="6.53408132"/><g transform="translate(345.3584889495442,476.6760824788182) translate(-345.3584889495442,-476.6760824788182)"><path fill="black" stroke="none" paint-order="stroke fill markers" d=" M 358.9711583662109 469.8697477704849 L 345.3584889495442 476.6760824788182 L 358.9711583662109 483.48241718715155 Z"/></g></g><g><rect fill="white" stroke="none" x="109.17360872166661" y="501.17888742881814" width="200.51968635621094" height="21.23576429"/><text fill="black" stroke="none" font-family="sans-serif" font-size="11pt" font-style="normal" font-weight="normal" text-decoration="normal" x="111.62388921666661" y="515.8805703988181" text-anchor="start" dominant-baseline="alphabetic" xml:space="preserve">Hinththngbothnhcng</text></g><g><path fill="none" stroke="black" paint-order="fill stroke markers" d=" M 329.0232856495442 522.4146517188182 L 103.29293553366665 522.4146517188182" stroke-miterlimit="10" stroke-width="1.3612669416666667" stroke-dasharray="6.53408132"/><g transform="translate(89.84361814999998,522.4146517188182) translate(-89.84361814999998,-522.4146517188182)"><path fill="black" stroke="none" paint-order="stroke fill markers" d=" M 103.45628756666665 515.6083170104848 L 89.84361814999998 522.4146517188182 L 103.45628756666665 529.2209864271515 Z"/></g></g><g><rect fill="white" stroke="none" x="364.68847952121087" y="591.022505578818" width="193.97708381714844" height="21.23576429"/><text fill="black" stroke="none" font-family="sans-serif" font-size="11pt" font-style="normal" font-weight="normal" text-decoration="normal" x="367.1387600162109" y="605.724188548818" text-anchor="start" dominant-baseline="alphabetic" xml:space="preserve">Thngboliquyntruycp</text></g><g><path fill="none" stroke="black" paint-order="fill stroke markers" d=" M 577.9955539100259 612.258269868818 L 358.80780633321086 612.258269868818" stroke-miterlimit="10" stroke-width="1.3612669416666667" stroke-dasharray="6.53408132"/><g transform="translate(345.3584889495442,612.258269868818) translate(-345.3584889495442,-612.258269868818)"><path fill="black" stroke="none" paint-order="stroke fill markers" d=" M 358.9711583662109 605.4519351604847 L 345.3584889495442 612.258269868818 L 358.9711583662109 619.0646045771514 Z"/></g></g><g><rect fill="white" stroke="none" x="121.40338319676427" y="636.761074818818" width="176.06013740601563" height="21.23576429"/><text fill="black" stroke="none" font-family="sans-serif" font-size="11pt" font-style="normal" font-weight="normal" text-decoration="normal" x="123.85366369176427" y="651.462757788818" text-anchor="start" dominant-baseline="alphabetic" xml:space="preserve">Hinththngbothtbi</text></g><g><path fill="none" stroke="black" paint-order="fill stroke markers" d=" M 329.0232856495442 657.996839108818 L 103.29293553366665 657.996839108818" stroke-miterlimit="10" stroke-width="1.3612669416666667" stroke-dasharray="6.53408132"/><g transform="translate(89.84361814999998,657.996839108818) translate(-89.84361814999998,-657.996839108818)"><path fill="black" stroke="none" paint-order="stroke fill markers" d=" M 103.45628756666665 651.1905044004847 L 89.84361814999998 657.996839108818 L 103.45628756666665 664.8031738171513 Z"/></g></g><g><g/><path fill="none" stroke="black" paint-order="fill stroke markers" d=" M 16.33520329999999 319.8581307988182 L 898.5147968695312 319.8581307988182 L 898.5147968695312 682.499644058818 L 16.33520329999999 682.499644058818 L 16.33520329999999 319.8581307988182 Z" stroke-miterlimit="10" stroke-width="2.3336004714285714" stroke-dasharray=""/><path fill="white" stroke="black" paint-order="fill stroke markers" d=" M 16.33520329999999 319.8581307988182 L 16.33520329999999 339.4603747588182 L 62.6944068970703 339.4603747588182 L 72.4955288770703 329.6592527788182 L 72.4955288770703 319.8581307988182 L 16.33520329999999 319.8581307988182" stroke-miterlimit="10" stroke-width="2.3336004714285714" stroke-dasharray=""/><text fill="black" stroke="none" font-family="sans-serif" font-size="8.8pt" font-style="normal" font-weight="bold" text-decoration="normal" x="32.67040659999999" y="332.9262934388182" text-anchor="start" dominant-baseline="alphabetic" xml:space="preserve">alt</text><g><rect fill="white" stroke="none" x="86.3804516820703" y="321.1649470628182" width="88.1846186071875" height="16.988611432000003"/></g><text fill="black" stroke="none" font-family="sans-serif" font-size="8.8pt" font-style="normal" font-weight="bold" text-decoration="normal" x="88.8307321770703" y="332.9262934388182" text-anchor="start" dominant-baseline="alphabetic" xml:space="preserve">[Quynhpl]</text><g><path fill="none" stroke="black" paint-order="fill stroke markers" d=" M 16.33520329999999 546.9174566688181 L 898.5147968695312 546.9174566688181" stroke-miterlimit="10" stroke-width="2.3336004714285714" stroke-dasharray="4.083800825"/></g><g/><g><rect fill="white" stroke="none" x="86.3804516820703" y="548.224272932818" width="126.62782539429688" height="16.988611432000003"/></g><text fill="black" stroke="none" font-family="sans-serif" font-size="8.8pt" font-style="normal" font-weight="bold" text-decoration="normal" x="88.8307321770703" y="559.9856193088181" text-anchor="start" dominant-baseline="alphabetic" xml:space="preserve">[Quynkhnghpl]</text></g><g/></g><g/><g/><g/><g/></g></svg>