<svg xmlns="http://www.w3.org/2000/svg" xmlns:xlink="http://www.w3.org/1999/xlink" version="1.1" width="1081.356865735547" height="830.333233923818"><desc>title%20Ch%E1%BB%89nh%20s%E1%BB%ADa%20thi%E1%BA%BFt%20b%E1%BB%8B%0A%0Abottomparticipants%0A%0Aactor%20Landlord%0Aentity%20Client%0Aentity%20Backend%0Adatabase%20Database%0A%0ALandlord%20-%3E%20Client%3A%20Ch%E1%BB%8Dn%20thi%E1%BA%BFt%20b%E1%BB%8B%20c%E1%BA%A7n%20ch%E1%BB%89nh%20s%E1%BB%ADa%20v%C3%A0%20nh%E1%BA%ADp%20th%C3%B4ng%20tin%20m%E1%BB%9Bi%0Aactivate%20Landlord%0Aactivate%20Client%0A%0AClient%20-%3E%20Backend%3A%20G%E1%BB%ADi%20ID%20thi%E1%BA%BFt%20b%E1%BB%8B%20v%C3%A0%20th%C3%B4ng%20tin%20m%E1%BB%9Bi%0Aactivate%20Backend%0A%0ABackend%20-%3E%20Backend%3A%20Ki%E1%BB%83m%20tra%20quy%E1%BB%81n%0Aalt%20Quy%E1%BB%81n%20h%E1%BB%A3p%20l%E1%BB%87%0Aactivate%20Database%0A%20%20%20%20Backend%20-%3E%20Database%3A%20C%E1%BA%ADp%20nh%E1%BA%ADt%20th%C3%B4ng%20tin%20thi%E1%BA%BFt%20b%E1%BB%8B%0A%20%20%20%20Database%20--%3E%20Backend%3A%20X%C3%A1c%20nh%E1%BA%ADn%20c%E1%BA%ADp%20nh%E1%BA%ADt%20th%C3%A0nh%20c%C3%B4ng%0A%20%20%20%20Backend%20--%3E%20Client%3A%20Th%C3%B4ng%20b%C3%A1o%20ch%E1%BB%89nh%20s%E1%BB%ADa%20th%C3%A0nh%20c%C3%B4ng%0A%20%20%20%20Client%20--%3E%20Landlord%3A%20Hi%E1%BB%83n%20th%E1%BB%8B%20th%C3%B4ng%20b%C3%A1o%20th%C3%A0nh%20c%C3%B4ng%0Aelse%20Quy%E1%BB%81n%20kh%C3%B4ng%20h%E1%BB%A3p%20l%E1%BB%87%0A%20%20%20%20Backend%20--%3E%20Client%3A%20Th%C3%B4ng%20b%C3%A1o%20l%E1%BB%97i%20quy%E1%BB%81n%20truy%20c%E1%BA%ADp%0A%20%20%20%20Client%20--%3E%20Landlord%3A%20Hi%E1%BB%83n%20th%E1%BB%8B%20th%C3%B4ng%20b%C3%A1o%20th%E1%BA%A5t%20b%E1%BA%A1i%0Aend%0A%0Adeactivate%20Backend%0Adeactivate%20Client%0Adeactivate%20Landlord%0Adeactivate%20Database</desc><defs/><g><g/><g/><g/><g/><g/><g/><g/><g/><g/><g/><g/><g/><g/><g/><g/><g/><g/><g/><g/><g/><g/><g/><g/><g/><g/><g/><g/><g/><g/><g/><g/><g/><g/><g/><g/><g/><g/><g/><g/><g/><g/><g/><g/><g/><g/><g/><g/><g/><g/><g/><g/><g/><g/><g/><g/><g/><g/><g/><g/><g/><g/><g/><g/><g/><g/><g/><g/><g/><g/><g/><g/><g/><g/><g/><g/><g/><g/><g/><g/><g/><g/><g/><g/><g/><g/><g/><g/><g/><g/><g/><g/><g/><g/><g/><g/><g/><g/><g/><g/><g/><g/><g/><g/><g/><g/><g/><g/><g/><g/><g/><g/><g/><g/><g/><g/><g/><g/><g/><g/><g/><g/><g/><g/><g/><g><rect fill="white" stroke="none" x="0" y="0" width="1081" height="830"/></g><g/><g><path fill="none" stroke="black" paint-order="fill stroke markers" d=" M 81.67601649999999 128.73625218881818 L 81.67601649999999 739.672855608818" stroke-miterlimit="10" stroke-width="1.3612669416666667" stroke-dasharray="12.565541,5.445067766666667"/><path fill="none" stroke="black" paint-order="fill stroke markers" d=" M 465.7949980173177 128.73625218881818 L 465.7949980173177 739.672855608818" stroke-miterlimit="10" stroke-width="1.3612669416666667" stroke-dasharray="12.565541,5.445067766666667"/><path fill="none" stroke="black" paint-order="fill stroke markers" d=" M 740.9018487973308 128.73625218881818 L 740.9018487973308 739.672855608818" stroke-miterlimit="10" stroke-width="1.3612669416666667" stroke-dasharray="12.565541,5.445067766666667"/><path fill="none" stroke="black" paint-order="fill stroke markers" d=" M 999.6808492355469 128.73625218881818 L 999.6808492355469 739.672855608818" stroke-miterlimit="10" stroke-width="1.3612669416666667" stroke-dasharray="12.565541,5.445067766666667"/></g><g><g><path fill="white" stroke="black" paint-order="fill stroke markers" d=" M 90.987082381 59.63834222981819 A 9.311065881 9.311065881 0 1 1 90.98707772546743 59.62903116548903 M 81.67601649999999 68.9494081108182 L 81.67601649999999 88.8783561368182 M 69.914670124 76.13689756281819 L 93.43736287599998 76.13689756281819 M 81.67601649999999 88.8783561368182 L 69.914670124 107.50048789881819 M 81.67601649999999 88.8783561368182 L 93.43736287599998 107.50048789881819" stroke-miterlimit="10" stroke-width="2.7769845610000004" stroke-dasharray=""/></g><g><g/><text fill="black" stroke="none" font-family="sans-serif" font-size="11pt" font-style="normal" font-weight="normal" text-decoration="normal" x="53.1470400595703" y="123.83569119881818" text-anchor="start" dominant-baseline="alphabetic" xml:space="preserve">Landlord</text></g><g><path fill="white" stroke="black" paint-order="fill stroke markers" d=" M 490.0527749178177 79.63263106901819 A 24.2577769005 24.2577769005 0 1 1 490.0527627889303 79.60837329616064 M 440.14872883631773 106.11199561831819 L 491.4412671983177 106.11199561831819" stroke-miterlimit="10" stroke-width="2.7769845610000004" stroke-dasharray=""/></g><g><g/><text fill="black" stroke="none" font-family="sans-serif" font-size="11pt" font-style="normal" font-weight="normal" text-decoration="normal" x="447.05484756565755" y="123.83569119881818" text-anchor="start" dominant-baseline="alphabetic" xml:space="preserve">Client</text></g><g><path fill="white" stroke="black" paint-order="fill stroke markers" d=" M 765.1596256978307 79.63263106901819 A 24.2577769005 24.2577769005 0 1 1 765.1596135689433 79.60837329616064 M 715.2555796163308 106.11199561831819 L 766.5481179783308 106.11199561831819" stroke-miterlimit="10" stroke-width="2.7769845610000004" stroke-dasharray=""/></g><g><g/><text fill="black" stroke="none" font-family="sans-serif" font-size="11pt" font-style="normal" font-weight="normal" text-decoration="normal" x="712.3764505429363" y="123.83569119881818" text-anchor="start" dominant-baseline="alphabetic" xml:space="preserve">Backend</text></g><g><path fill="white" stroke="black" paint-order="fill stroke markers" d=" M 975.831452417547 96.71925372081819 L 975.831452417547 62.41532679081819 L 1023.5302460535469 62.41532679081819 L 1023.5302460535469 96.71925372081819" stroke-miterlimit="10" stroke-width="2.7769845610000004" stroke-dasharray=""/><path fill="white" stroke="black" paint-order="fill stroke markers" d=" M 1023.5302460535469 61.22285694991819 L 1023.5290535936432 61.33066749483481 L 1023.5254763331772 61.43846725878678 L 1023.5195146298719 61.546245461887544 L 1023.5111690798925 61.65399132640659 L 1023.5004405177873 61.761694077847274 L 1023.4873300164035 61.86934294602419 L 1023.4718388867802 61.976927166140236 L 1023.4539686780176 62.084435979863045 L 1023.4337211771216 62.19185863640084 L 1023.4110984088254 62.299184393577484 L 1023.386102635387 62.4064025189067 L 1023.358736356363 62.51350229066531 L 1023.3290023083584 62.62047299896537 L 1023.2969034647533 62.7273039468252 L 1023.2624430354052 62.83398445123905 L 1023.2256244663284 62.94050384424536 L 1023.1864514393491 63.04685147399361 L 1023.1449278717373 63.15301670580944 L 1023.1010579158153 63.25898892325815 L 1023.0548459585419 63.364757529206294 L 1023.0062966210746 63.47031194688142 L 1022.9554147583066 63.575641620929716 L 1022.9022054583817 63.68073601847156 L 1022.8466740421854 63.78558463015478 L 1022.7888260628134 63.89017697120557 L 1022.7286673050153 63.994502582477 L 1022.6662037846166 64.09855103149486 L 1022.6014417479174 64.20231191350096 L 1022.5343876710674 64.3057748524936 L 1022.4650482594185 64.40892950226505 L 1022.3934304468538 64.51176554743633 L 1022.3195413950951 64.61427270448858 L 1022.2433884929861 64.71644072279157 L 1022.1649793557533 64.81825938562858 L 1022.0843218242452 64.91971851121816 L 1022.0014239641478 65.02080795373233 L 1021.9162940651779 65.12151760431107 L 1021.8289406402545 65.22183739207324 L 1021.7393724246473 65.32175728512367 L 1021.6475983751033 65.42126729155632 L 1021.5536276689509 65.52035746045347 L 1021.4574697031823 65.6190178828808 L 1021.3591340935142 65.71723869287828 L 1021.2586306734254 65.81501006844678 L 1021.1559694931742 65.91232223253022 L 1021.0511608187932 66.00916545399325 L 1020.9442151310623 66.10553004859446 L 1020.8351431244613 66.20140637995469 L 1020.7239557061 66.29678486052069 L 1020.6106639946274 66.39165595252388 L 1020.4952793191205 66.48601016893414 L 1020.3778132179505 66.57983807440844 L 1020.2582774376295 66.67313028623443 L 1020.1366839316363 66.76587747526865 L 1020.0130448592199 66.85807036686953 L 1019.8873725841845 66.94969974182469 L 1019.7596796736531 67.04075643727302 L 1019.62997889681 67.13123134762085 L 1019.4982832236251 67.22111542545254 L 1019.3646058235558 67.3103996824352 L 1019.2289600642309 67.39907519021754 L 1019.0913595101131 67.4871330813227 L 1018.9518179211432 67.57456455003492 L 1018.8103492513638 67.6613608532802 L 1018.6669676475241 67.74751331150055 L 1018.5216874476649 67.83301330952195 L 1018.3745231796851 67.91785229741582 L 1018.225489559889 68.00202179135408 L 1018.074601491514 68.08551337445749 L 1017.9218740632417 68.1683186976373 L 1017.7673225476874 68.25042948043021 L 1017.610962399874 68.33183751182635 L 1017.4528092556857 68.41253465109044 L 1017.2928789303054 68.4925128285758 L 1017.1311874166322 68.5717640465313 L 1016.9677508836829 68.65028037990122 L 1016.8025856749744 68.72805397711764 L 1016.63570830689 68.80507706088565 L 1016.4671354670276 68.88134192896105 L 1016.2968840125304 68.95684095492061 L 1016.1249709684023 69.03156658892462 L 1015.9514135258042 69.10551135847197 L 1015.7762290403359 69.17866786914732 L 1015.5994350302999 69.25102880536058 L 1015.4210491749499 69.3225869310784 L 1015.2410893127226 69.39333509054786 L 1015.0595734394545 69.46326620901198 L 1014.8765197065816 69.53237329341717 L 1014.6919464193246 69.60064943311258 L 1014.5058720348584 69.66808780054113 L 1014.3183151604665 69.7346816519223 L 1014.1292945516798 69.80042432792644 L 1013.9388291104019 69.86530925434072 L 1013.7469378830181 69.92932994272657 L 1013.5536400584913 69.9924799910685 L 1013.3589549664428 70.05475308441433 L 1013.1629020752196 70.1161429955066 L 1012.9655009899474 70.17664358540536 L 1012.7667714505703 70.23624880410202 L 1012.5667333298766 70.29495269112441 L 1012.3654066315116 70.35274937613272 L 1012.1628114879776 70.40963307950663 L 1011.9589681586198 70.46559811292322 L 1011.7538970276015 70.52063887992576 L 1011.5476186018648 70.57474987648341 L 1011.3401535090804 70.62792569154163 L 1011.1315224955847 70.68016100756323 L 1010.9217464243053 70.73145060106012 L 1010.7108462726743 70.78178934311569 L 1010.4988431305312 70.8311721998977 L 1010.2857581980136 70.8795942331616 L 1010.0716127834372 70.92705060074444 L 1009.8564283011649 70.973536557049 L 1009.6402262694656 71.01904745351838 L 1009.4230283083625 71.06357873910088 L 1009.2048561374705 71.10712596070502 L 1008.985731573825 71.14968476364494 L 1008.7656765296996 71.19125089207583 L 1008.5447130104155 71.23182018941947 L 1008.3228631121406 71.27138859877994 L 1008.1001490196795 71.30995216334925 L 1007.876593004256 71.34750702680313 L 1007.6522174212856 71.38404943368649 L 1007.4270447081393 71.4195757297891 L 1007.2010973819009 71.45408236251096 L 1006.9743980371147 71.48756588121756 L 1006.7469693435263 71.52002293758491 L 1006.5188340438154 71.55145028593446 L 1006.2900149513222 71.58184478355753 L 1006.0605349477648 71.61120339102969 L 1005.8304169809528 71.63952317251467 L 1005.5996840624907 71.66680129605793 L 1005.3683592654784 71.69303503386982 L 1005.1364657222025 71.71822176259843 L 1004.9040266218244 71.7423589635919 L 1004.6710652080603 71.7654442231502 L 1004.4376047768574 71.78747523276665 L 1004.2036686740644 71.80844978935863 L 1003.9692802930964 71.82836579548797 L 1003.7344630725964 71.84722125957065 L 1003.4992404940908 71.86501429607597 L 1003.2636360796412 71.8817431257151 L 1003.0276733894929 71.89740607561903 L 1002.7913760197182 71.91200157950583 L 1002.5547675998572 71.92552817783725 L 1002.3178717905546 71.93798451796474 L 1002.0807122811941 71.94936935426468 L 1001.8433127875289 71.95968154826289 L 1001.6056970493105 71.96892006874862 L 1001.3678888279148 71.97708399187748 L 1001.1299119039658 71.98417250126396 L 1000.8917900749574 71.99018488806304 L 1000.6535471528742 71.99512055104105 L 1000.4152069618099 71.99897899663581 L 1000.1767933355849 72.00175983900598 L 999.9383301153631 72.00346280006961 L 999.699841147268 72.00408770953204 L 999.4613502799974 72.00363450490285 L 999.2228813624396 72.0021032315021 L 998.9844582412874 71.99949404245586 L 998.7461047586544 71.9958071986809 L 998.50784474969 71.99104306885846 L 998.2697020401968 71.98520212939759 L 998.0317004442471 71.97828496438737 L 997.7938637618023 71.97029226553852 L 997.5562157763324 71.96122483211428 L 997.3187802524378 71.95108357085043 L 997.0815809334731 71.93986949586466 L 996.8446415391727 71.92758372855508 L 996.6079857632784 71.91422749748824 L 996.3716372711706 71.89980213827607 L 996.1356196975015 71.8843090934425 L 995.899956643832 71.86774991227908 L 995.6646716762708 71.85012625069015 L 995.4297883231188 71.83143987102717 L 995.1953300725155 71.81169264191253 L 994.9613203700907 71.79088653805269 L 994.7277826166193 71.7690236400407 L 994.4947401656824 71.74610613414815 L 994.2622163213307 71.72213631210651 L 994.0302343357548 71.69711657087802 L 993.7988174069602 71.67104941241597 L 993.5679886764467 71.64393744341446 L 993.3377712268951 71.6157833750478 L 993.1081880798586 71.58659002269937 L 992.8792621934602 71.55636030568009 L 992.6510164600983 71.52509724693644 L 992.4234737041556 71.49280397274828 L 992.1966566797183 71.45948371241609 L 991.9705880682999 71.42513979793813 L 991.7452904765729 71.38977566367726 L 991.5207864341088 71.35339484601741 L 991.2970983911249 71.31600098301004 L 991.074248716239 71.27759781401028 L 990.8522596942329 71.23818917930303 L 990.6311535238239 71.19777901971894 L 990.4109523154444 71.15637137624027 L 990.1916780890323 71.11397038959687 L 989.9733527718271 71.07058029985207 L 989.7559981961787 71.02620544597868 L 989.5396360973637 70.98085026542512 L 989.3242881114113 70.93451929367163 L 989.1099757729411 70.8872171637768 L 988.896720513008 70.8389486059142 L 988.6845436569605 70.78971844689937 L 988.4734664223072 70.7395316097072 L 988.2635099165958 70.6883931129796 L 988.0546951353019 70.6363080705236 L 987.8470429597296 70.58328169080006 L 987.6405741549235 70.52931927640276 L 987.4353093675918 70.47442622352818 L 987.2312691240423 70.41860802143584 L 987.0284738281293 70.36187025189946 L 986.8269437592136 70.3042185886487 L 986.6266990701339 70.24565879680183 L 986.4277597851923 70.18619673228926 L 986.2301457981515 70.12583834126788 L 986.0338768702456 70.06458965952649 L 985.8389726282038 70.00245681188221 L 985.6454525622879 69.93944601156807 L 985.4533360243431 69.87556355961155 L 985.2626422258634 69.81081584420461 L 985.0733902360694 69.74520934006487 L 984.8855989800024 69.67875060778805 L 984.6992872366318 69.61144629319199 L 984.5144736369764 69.54330312665208 L 984.3311766622423 69.47432792242817 L 984.1494146419741 69.40452757798322 L 983.9692057522226 69.3339090732935 L 983.7905680137263 69.26247947015062 L 983.6135192901104 69.19024591145539 L 983.4380772860995 69.11721562050347 L 983.2642595457481 69.0433959002631 L 983.0920834506852 68.96879413264479 L 982.9215662183768 68.89341777776313 L 982.7527249004042 68.81727437319081 L 982.5855763807583 68.74037153320482 L 982.420137374152 68.66271694802508 L 982.2564244243478 68.58431838304537 L 982.0944539025045 68.5051836780569 L 981.9342420055392 68.4253207464642 L 981.775804754508 68.34473757449386 L 981.6191579930043 68.26344222039596 L 981.4643173855734 68.18144281363814 L 981.3112984161471 68.09874755409275 L 981.1601163864948 68.01536471121685 L 981.0107864146935 67.9313026232252 L 980.863323433616 67.84656969625658 L 980.7177421894374 67.76117440353308 L 980.574057240161 67.67512528451279 L 980.4322829541618 67.5884309440359 L 980.2924335087504 67.50110005146425 L 980.1545228887546 67.41314133981427 L 980.0185648851216 67.32456360488388 L 979.8845730935385 67.23537570437271 L 979.7525609130728 67.14558655699653 L 979.6225415448324 67.05520514159522 L 979.4945279906459 66.96424049623502 L 979.368533051762 66.87270171730466 L 979.2445693275697 66.78059795860575 L 979.122649214338 66.68793843043741 L 979.0027849039766 66.59473239867523 L 978.8849883828167 66.50098918384472 L 978.7692714304122 66.40671816018926 L 978.655645618362 66.31192875473263 L 978.5441223091526 66.2166304463364 L 978.4347126550219 66.120832764752 L 978.3274275968442 66.02454528966774 L 978.222277863036 65.92777764975091 L 978.119273968483 65.83053952168484 L 978.0184262134886 65.73284062920132 L 977.9197446827445 65.63469074210818 L 977.8232392443216 65.53609967531233 L 977.7289195486832 65.4370772878383 L 977.6367950277202 65.33763348184232 L 977.546874893808 65.23777820162212 L 977.459168138885 65.13752143262249 L 977.3736835335537 65.03687320043682 L 977.2904296262035 64.93584356980442 L 977.2094147421554 64.83444264360419 L 977.1306469828306 64.73268056184422 L 977.0541342249394 64.63056750064791 L 976.9798841196936 64.52811367123628 L 976.907904092042 64.42532931890689 L 976.8382013399273 64.32222472200931 L 976.7707828335668 64.21881019091732 L 976.7056553147548 64.11509606699785 L 976.6428252961889 64.01109272157687 L 976.5822990608187 63.90681055490224 L 976.5240826612172 63.80225999510374 L 976.468181918976 63.697451497150205 L 976.4146024241226 63.59239554180411 L 976.3633495345617 63.48710263457343 L 976.3144283755399 63.381583304661156 L 976.2678438391321 63.27584810391234 L 976.2236005837532 63.16990760575894 L 976.1817030336917 63.06377240416249 L 976.142155378668 62.95745311255472 L 976.1049615734144 62.85096036277616 L 976.0701253372805 62.744304804013076 L 976.0376501538608 62.63749710173245 L 976.0075392706468 62.530547936615505 L 975.9797956987015 62.423468003489624 L 975.9544222123592 62.316268010258895 L 975.9314213489472 62.208958676833305 L 975.9107954085327 62.10155073405677 L 975.8925464536926 61.99405492263407 L 975.8766763093072 61.88648199205676 L 975.8631865623777 61.77884269952825 L 975.8520785618674 61.6711478088881 L 975.8433534185674 61.56340808953563 L 975.8370120049844 61.45563431535299 L 975.8330549552549 61.34783726362778 L 975.8314826650801 61.24002771397536 L 975.8322952916881 61.13221644726084 L 975.8354927538167 61.02441424452105 L 975.8410747317223 60.916631885886424 L 975.849040667212 60.808880149503025 L 975.8593897636987 60.70116981045468 L 975.8721209862815 60.59351163968555 L 975.8872330618486 60.48591640292299 L 975.9047244792052 60.378394859601016 L 975.924593489224 60.27095776178435 L 975.9468381050207 60.163615853093255 L 975.9714561021522 60.05637986762915 L 975.9984450188391 59.949260528901206 L 976.0278021562125 59.84226854875404 L 976.059524578583 59.7354146262965 L 976.0936091137349 59.62870944683179 L 976.130052353243 59.52216368078894 L 976.1688506528137 59.41578798265577 L 976.2100001326494 59.30959298991343 L 976.2534966778364 59.203589321972714 L 976.2993359387565 59.09778757911208 L 976.3475133315217 58.992198341417634 L 976.3980240384329 58.88683216772516 L 976.4508630084615 58.78169959456423 L 976.5060249577547 58.67681113510454 L 976.5635043701633 58.57217727810464 L 976.6232954977941 58.46780848686303 L 976.6853923615839 58.36371519817185 L 976.7497887518984 58.25990782127324 L 976.8164782291523 58.15639673681838 L 976.8854541244531 58.053192295829454 L 976.9567095402689 57.950304818664556 L 977.0302373511175 57.84774459398567 L 977.1060302042791 57.745521877729786 L 977.1840805205316 57.64364689208335 L 977.2643804949083 57.54212982446004 L 977.3469220974787 57.44098082648201 L 977.4316970741514 57.340210012964775 L 977.5186969474994 57.2398274609057 L 977.6079130176078 57.13984320847635 L 977.6993363629439 57.040267254018644 L 977.7929578412494 56.94110955504505 L 977.8887680904544 56.84238002724283 L 977.986757529614 56.74408854348249 L 978.0869163598659 56.646244932830506 L 978.1892345654104 56.54885897956639 L 978.2937019145122 56.45194042220433 L 978.4003079605237 56.35549895251929 L 978.509042042929 56.25954421457787 L 978.6198932884103 56.16408580377391 L 978.7328506119356 56.06913326586893 L 978.8479027178668 55.974696096037604 L 978.9650381010889 55.88078373791821 L 979.0842450481613 55.7874055826683 L 979.2055116384887 55.694570968025594 L 979.3288257455131 55.60228917737418 L 979.4541750379266 55.51056943881623 L 979.5815469809042 55.41942092424918 L 979.7109288373581 55.328852748448504 L 979.8423076692102 55.23887396815633 L 979.9756703386868 55.14949358117568 L 980.1110035096322 55.0607205254708 L 980.248293648842 54.97256367827326 L 980.3875270274168 54.88503185519433 L 980.5286897221347 54.79813380934336 L 980.6717676168438 54.71187823045254 L 980.8167464038739 54.62627374400786 L 980.9636115854672 54.541328910386646 L 981.1123484752279 54.45705222400146 L 981.2629421995908 54.373452112450714 L 981.4153776993093 54.290536935675895 L 981.56963973096 54.20831498512558 L 981.7257128684687 54.12679448292632 L 981.8835815046515 54.0459835810604 L 982.0432298527764 53.965890360550645 L 982.2046419481416 53.88652283065238 L 982.3678016496721 53.80788892805245 L 982.5326926415336 53.72999651607559 L 982.6992984347645 53.652853383898076 L 982.8676023689243 53.57646724576885 L 983.0375876137596 53.50084574023808 L 983.2092371708878 53.42599642939328 L 983.3825338754963 53.35192679810317 L 983.5574603980588 53.278644253269164 L 983.733999246069 53.20615612308466 L 983.912132765789 53.13446965630228 L 984.0918431440156 53.06359202150896 L 984.2731124098605 52.99353030640911 L 984.4559224365481 52.924291517115876 L 984.6402549432283 52.85588257745046 L 984.8260914968041 52.78831032824984 L 985.0134135137747 52.72158152668263 L 985.2022022620946 52.65570284557336 L 985.3924388630464 52.590680872735255 L 985.5841042931286 52.52652211031142 L 985.7771793859577 52.463232974124615 L 985.9716448341853 52.40081979303573 L 986.1674811914289 52.33928880831086 L 986.3646688742157 52.278646172997206 L 986.563188163942 52.21889795130775 L 986.763019208844 52.160050118014894 L 986.9641420259837 52.1021085578529 L 987.1665365032474 52.045079064929524 L 987.3701824013557 51.98896734214652 L 987.5750593558885 51.933779000629414 L 987.7811468793211 51.87951955916637 L 987.988424363073 51.826194443656306 L 988.1968710795685 51.77380898656634 L 988.4064661843097 51.72236842639853 L 988.6171887179606 51.67187790716602 L 988.8290176084437 51.622342477878675 L 989.0419316730463 51.57376709203812 L 989.2559096205395 51.526156607142475 L 989.4709300533067 51.47951578420055 L 989.6869714694839 51.43384928725578 L 989.9040122651094 51.38916168291979 L 990.1220307362847 51.34545743991578 L 990.3410050813443 51.302740928631636 L 990.560913403036 51.261016420682886 L 990.7817337107113 51.220288088485546 L 991.0034439225229 51.18056000483891 L 991.2260218676348 51.14183614251822 L 991.4494452884378 51.10412037387746 L 991.673691842776 51.06741647046204 L 991.8987391061809 51.03172810263173 L 992.1245645741136 50.99705883919358 L 992.3511456642157 50.96341214704502 L 992.5784597185668 50.930791390827245 L 992.8064840059509 50.899199832588685 L 993.0351957241294 50.86864063145883 L 993.264572002121 50.83911684333235 L 993.4945899024891 50.81063142056343 L 993.7252264236353 50.78318721167063 L 993.9564585020996 50.75678696105195 L 994.188263014867 50.731433308710464 L 994.4206167816793 50.70712878999027 L 994.6534965673535 50.683875835323 L 994.8868790841051 50.66167676998473 L 995.1207409938769 50.6405338138635 L 995.3550589106727 50.6204490812373 L 995.5898094028962 50.60142458056266 L 995.8249689956938 50.583462214273794 L 996.0605141733022 50.566563778592354 L 996.2964213813998 50.55073096334783 L 996.5326670294626 50.53596535180856 L 996.7692274931223 50.52226842052339 L 997.0060791165301 50.50964153917403 L 997.2431982147208 50.49808597043808 L 997.4805610759822 50.48760286986282 L 997.718143964226 50.47819328574954 L 997.9559231213613 50.46985815904882 L 998.1938747696706 50.462598323266384 L 998.4319751141874 50.456414504379765 L 998.6702003450755 50.45130732076569 L 998.9085266400106 50.44727728313828 L 999.1469301665616 50.444324794497916 L 999.3853870845744 50.44245015009101 L 999.6238735485563 50.44165353738045 L 999.8623657100593 50.44193503602685 L 1000.1008397200661 50.443294617880554 L 1000.3392717313745 50.445732146984525 L 1000.577637900982 50.44924737958788 L 1000.8159143924703 50.45383996417029 L 1001.0540773783888 50.459509441477124 L 1001.2921030426373 50.46625524456538 L 1001.5299675828478 50.474076698860365 L 1001.7676472127645 50.48297302222316 L 1002.0051181646226 50.49294332502887 L 1002.2423566915245 50.50398661025549 L 1002.4793390698154 50.51610177358371 L 1002.716041601455 50.52928760350731 L 1002.9524406163873 50.54354278145426 L 1003.188512474908 50.55886588191867 L 1003.4242335700276 50.575255372603245 L 1003.6595803298333 50.592709614572584 L 1003.8945292198451 50.61122686241703 L 1004.1290567453699 50.630805264427224 L 1004.3631394538506 50.651442862779284 L 1004.5967539372114 50.67313759373059 L 1004.8298768341984 50.695887287826096 L 1005.0624848327166 50.71968967011537 L 1005.2945546721596 50.74454236038002 L 1005.5260631457371 50.77044287337172 L 1005.7569871027946 50.797388619060754 L 1005.9873034511288 50.825376902895016 L 1006.2169891592968 50.85440492606945 L 1006.4460212589191 50.88446978580591 L 1006.6743768469768 50.9155684756435 L 1006.9020330881012 50.947697885739125 L 1007.128967216858 50.980854803178566 L 1007.3551565400234 51.01503591229771 L 1007.5805784388536 51.05023779501413 L 1007.8052103713466 51.08645693116888 L 1008.0290298744962 51.12368969887854 L 1008.2520145665388 51.16193237489736 L 1008.4741421491908 51.201181134989596 L 1008.6953904098793 51.241432054311964 L 1008.9157372239624 51.28268110780607 L 1009.1351605569423 51.32492417060092 L 1009.3536384666687 51.368157018425464 L 1009.5711491055326 51.41237532803093 L 1009.7876707226515 51.45757467762322 L 1010.0031816660438 51.503750547305025 L 1010.2176603847951 51.55089831952786 L 1010.4310854312121 51.5990132795538 L 1010.643435462968 51.64809061592693 L 1010.8546892452367 51.69812542095451 L 1011.0648256528159 51.749112691197745 L 1011.2738236722399 51.801047327972086 L 1011.4816624038812 51.85392413785714 L 1011.6883210640394 51.90773783321599 L 1011.8937789870212 51.962483032723924 L 1012.0980156272051 52.01815426190663 L 1012.3010105610974 52.07474595368758 L 1012.502743489374 52.132252448944755 L 1012.7031942389101 52.190667997076545 L 1012.9023427647977 52.24998675657682 L 1013.1001691523503 52.310202795619055 L 1013.296653619094 52.371310092649544 L 1013.4917765167457 52.43330253698949 L 1013.6855183331785 52.49617392944612 L 1013.8778596943719 52.559917982932596 L 1014.0687813663503 52.62452832309667 L 1014.2582642571055 52.68999848895818 L 1014.4462894185064 52.7563219335551 L 1014.6328380481934 52.823492024598224 L 1014.8178914914591 52.89150204513444 L 1015.0014312431134 52.960345194218355 L 1015.1834389493341 53.03001458759244 L 1015.3638964095022 53.10050325837541 L 1015.5427855780221 53.171804157758935 L 1015.7200885661258 53.243910155712484 L 1015.8957876436626 53.31681404169635 L 1016.069865240871 53.39050852538269 L 1016.2423039501363 53.46498623738456 L 1016.4130865277313 53.5402397299928 L 1016.5821958955405 53.61626147792087 L 1016.7496151427681 53.69304387905734 L 1016.915327527629 53.770579255226075 L 1017.0793164790226 53.848859852954064 L 1017.2415655981906 53.92787784424677 L 1017.4020586603563 54.00762532737092 L 1017.5607796163471 54.08809432764465 L 1017.7177125941996 54.16927679823499 L 1017.872841900747 54.251164620962534 L 1018.0261520231878 54.33374960711325 L 1018.1776276306375 54.41702349825734 L 1018.3272535756616 54.500977967075094 L 1018.4750148957904 54.58560461818958 L 1018.6208968150149 54.670894989006214 L 1018.7648847452648 54.75684055055899 L 1018.906964287867 54.84343270836337 L 1019.0471212349858 54.93066280327574 L 1019.185341571043 55.0185221123593 L 1019.3216114741203 55.107001849756344 L 1019.4559173173411 55.196093167566886 L 1019.5882456702329 55.28578715673337 L 1019.7185833000706 55.37607484793163 L 1019.8469171731999 55.46694721246779 L 1019.9732344563406 55.55839516318112 L 1020.0975225178693 55.65040955535275 L 1020.2197689290837 55.742981187620146 L 1020.3399614654444 55.83610080289723 L 1020.4580881077981 55.92975908930006 L 1020.5741370435787 56.02394668107806 L 1020.6880966679896 56.11865415955053 L 1020.7999555851633 56.213872054048544 L 1020.9097026093011 56.30959084286201 L 1021.0173267657923 56.405800954191804 L 1021.1228172923107 56.50249276710697 L 1021.2261636398918 56.5996566125068 L 1021.3273554739867 56.69728277408771 L 1021.4263826754966 56.79536148931491 L 1021.5232353417836 56.89388295039859 L 1021.6179037876619 56.99283730527477 L 1021.7103785463659 57.09221465859041 L 1021.8006503704967 57.19200507269298 L 1021.888710232947 57.29219856862425 L 1021.9745493278041 57.39278512711811 L 1022.0581590712301 57.49375468960253 L 1022.13953110232 57.59509715920541 L 1022.2186572839389 57.69680240176424 L 1022.2955297035344 57.79886024683951 L 1022.3701406739285 57.90126048873177 L 1022.4424827340865 58.003992887502164 L 1022.5125486498628 58.10704716999642 L 1022.5803314147238 58.21041303087217 L 1022.6458242504498 58.31408013362946 L 1022.7090206078117 58.41803811164441 L 1022.7699141672264 58.52227656920584 L 1022.8284988393888 58.62678508255487 L 1022.8847687658804 58.731553200927245 L 1022.9387183197556 58.83657044759845 L 1022.9903421061039 58.94182632093131 L 1023.0396349625895 59.04731029542622 L 1023.0865919599681 59.153011822773635 L 1023.131208402579 59.25892033290889 L 1023.1734798288151 59.36502523506925 L 1023.2134020115689 59.471315918852895 L 1023.2509709586556 59.57778175528004 L 1023.2861829132115 59.684412097855756 L 1023.3190343540709 59.79119628363465 L 1023.3495219961168 59.89812363428712 L 1023.3776427906105 60.005183457167206 L 1023.4033939254958 60.11236504638185 L 1023.426772825681 60.21965768386144 L 1023.4477771532953 60.327050640431644 L 1023.4664048079236 60.43453317688629 L 1023.4826539268158 60.5420945450613 L 1023.4965228850738 60.6497239889095 L 1023.508010295813 60.757410745576195 L 1023.5171150103022 60.86514404647545 L 1023.5238361180774 60.972913118366954 L 1023.5281729470333 61.08070718443333 L 1023.5301250634909 61.188515465357796 M 1023.5302460535469 95.52678387991818 L 1023.5290535936432 95.6345944248348 L 1023.5254763331772 95.74239418878678 L 1023.5195146298719 95.85017239188754 L 1023.5111690798925 95.95791825640659 L 1023.5004405177873 96.06562100784727 L 1023.4873300164035 96.1732698760242 L 1023.4718388867802 96.28085409614023 L 1023.4539686780176 96.38836290986303 L 1023.4337211771216 96.49578556640084 L 1023.4110984088254 96.60311132357748 L 1023.386102635387 96.7103294489067 L 1023.358736356363 96.8174292206653 L 1023.3290023083584 96.92439992896537 L 1023.2969034647533 97.0312308768252 L 1023.2624430354052 97.13791138123905 L 1023.2256244663284 97.24443077424536 L 1023.1864514393491 97.35077840399362 L 1023.1449278717373 97.45694363580944 L 1023.1010579158153 97.56291585325815 L 1023.0548459585419 97.66868445920629 L 1023.0062966210746 97.77423887688141 L 1022.9554147583066 97.8795685509297 L 1022.9022054583817 97.98466294847155 L 1022.8466740421854 98.08951156015478 L 1022.7888260628134 98.19410390120557 L 1022.7286673050153 98.29842951247699 L 1022.6662037846166 98.40247796149485 L 1022.6014417479174 98.50623884350097 L 1022.5343876710674 98.60970178249359 L 1022.4650482594185 98.71285643226504 L 1022.3934304468538 98.81569247743631 L 1022.3195413950951 98.91819963448859 L 1022.2433884929861 99.02036765279156 L 1022.1649793557533 99.12218631562857 L 1022.0843218242452 99.22364544121817 L 1022.0014239641478 99.32473488373233 L 1021.9162940651779 99.42544453431107 L 1021.8289406402545 99.52576432207324 L 1021.7393724246473 99.62568421512367 L 1021.6475983751033 99.72519422155631 L 1021.5536276689509 99.82428439045346 L 1021.4574697031823 99.92294481288079 L 1021.3591340935142 100.02116562287829 L 1021.2586306734254 100.11893699844678 L 1021.1559694931742 100.2162491625302 L 1021.0511608187932 100.31309238399325 L 1020.9442151310623 100.40945697859446 L 1020.8351431244613 100.50533330995468 L 1020.7239557061 100.60071179052068 L 1020.6106639946274 100.69558288252388 L 1020.4952793191205 100.78993709893413 L 1020.3778132179505 100.88376500440843 L 1020.2582774376295 100.97705721623441 L 1020.1366839316363 101.06980440526866 L 1020.0130448592199 101.16199729686952 L 1019.8873725841845 101.25362667182469 L 1019.7596796736531 101.34468336727302 L 1019.62997889681 101.43515827762084 L 1019.4982832236251 101.52504235545253 L 1019.3646058235558 101.61432661243519 L 1019.2289600642309 101.70300212021755 L 1019.0913595101131 101.7910600113227 L 1018.9518179211432 101.87849148003492 L 1018.8103492513638 101.9652877832802 L 1018.6669676475241 102.05144024150056 L 1018.5216874476649 102.13694023952193 L 1018.3745231796851 102.22177922741581 L 1018.225489559889 102.30594872135407 L 1018.074601491514 102.38944030445748 L 1017.9218740632417 102.47224562763729 L 1017.7673225476874 102.5543564104302 L 1017.610962399874 102.63576444182635 L 1017.4528092556857 102.71646158109044 L 1017.2928789303054 102.79643975857579 L 1017.1311874166322 102.8756909765313 L 1016.9677508836829 102.95420730990122 L 1016.8025856749744 103.03198090711763 L 1016.63570830689 103.10900399088564 L 1016.4671354670276 103.18526885896105 L 1016.2968840125304 103.2607678849206 L 1016.1249709684023 103.33549351892461 L 1015.9514135258042 103.40943828847196 L 1015.7762290403359 103.48259479914732 L 1015.5994350302999 103.55495573536056 L 1015.4210491749499 103.6265138610784 L 1015.2410893127226 103.69726202054787 L 1015.0595734394545 103.76719313901197 L 1014.8765197065816 103.83630022341715 L 1014.6919464193246 103.90457636311257 L 1014.5058720348584 103.97201473054113 L 1014.3183151604665 104.03860858192229 L 1014.1292945516798 104.10435125792642 L 1013.9388291104019 104.1692361843407 L 1013.7469378830181 104.23325687272656 L 1013.5536400584913 104.29640692106851 L 1013.3589549664428 104.35868001441433 L 1013.1629020752196 104.4200699255066 L 1012.9655009899474 104.48057051540535 L 1012.7667714505703 104.54017573410202 L 1012.5667333298766 104.5988796211244 L 1012.3654066315116 104.65667630613272 L 1012.1628114879776 104.71356000950664 L 1011.9589681586198 104.7695250429232 L 1011.7538970276015 104.82456580992574 L 1011.5476186018648 104.87867680648341 L 1011.3401535090804 104.93185262154162 L 1011.1315224955847 104.98408793756322 L 1010.9217464243053 105.0353775310601 L 1010.7108462726743 105.08571627311568 L 1010.4988431305312 105.13509912989768 L 1010.2857581980136 105.1835211631616 L 1010.0716127834372 105.23097753074444 L 1009.8564283011649 105.27746348704899 L 1009.6402262694656 105.32297438351839 L 1009.4230283083625 105.36750566910086 L 1009.2048561374705 105.41105289070501 L 1008.985731573825 105.45361169364494 L 1008.7656765296996 105.49517782207583 L 1008.5447130104155 105.53574711941947 L 1008.3228631121406 105.57531552877992 L 1008.1001490196795 105.61387909334925 L 1007.876593004256 105.65143395680312 L 1007.6522174212856 105.68797636368647 L 1007.4270447081393 105.72350265978909 L 1007.2010973819009 105.75800929251095 L 1006.9743980371147 105.79149281121755 L 1006.7469693435263 105.82394986758491 L 1006.5188340438154 105.85537721593445 L 1006.2900149513222 105.88577171355752 L 1006.0605349477648 105.9151303210297 L 1005.8304169809528 105.94345010251467 L 1005.5996840624907 105.97072822605791 L 1005.3683592654784 105.99696196386981 L 1005.1364657222025 106.02214869259844 L 1004.9040266218244 106.04628589359189 L 1004.6710652080603 106.0693711531502 L 1004.4376047768574 106.09140216276666 L 1004.2036686740644 106.11237671935864 L 1003.9692802930964 106.13229272548797 L 1003.7344630725964 106.15114818957065 L 1003.4992404940908 106.16894122607596 L 1003.2636360796412 106.1856700557151 L 1003.0276733894929 106.20133300561903 L 1002.7913760197182 106.21592850950582 L 1002.5547675998572 106.22945510783724 L 1002.3178717905546 106.24191144796474 L 1002.0807122811941 106.25329628426466 L 1001.8433127875289 106.2636084782629 L 1001.6056970493105 106.2728469987486 L 1001.3678888279148 106.28101092187747 L 1001.1299119039658 106.28809943126396 L 1000.8917900749574 106.29411181806304 L 1000.6535471528742 106.29904748104106 L 1000.4152069618099 106.30290592663582 L 1000.1767933355849 106.30568676900597 L 999.9383301153631 106.30738973006962 L 999.699841147268 106.30801463953205 L 999.4613502799974 106.30756143490284 L 999.2228813624396 106.3060301615021 L 998.9844582412874 106.30342097245587 L 998.7461047586544 106.29973412868088 L 998.50784474969 106.29496999885845 L 998.2697020401968 106.28912905939758 L 998.0317004442471 106.28221189438736 L 997.7938637618023 106.27421919553852 L 997.5562157763324 106.26515176211427 L 997.3187802524378 106.25501050085043 L 997.0815809334731 106.24379642586464 L 996.8446415391727 106.23151065855508 L 996.6079857632784 106.21815442748823 L 996.3716372711706 106.20372906827606 L 996.1356196975015 106.1882360234425 L 995.899956643832 106.17167684227908 L 995.6646716762708 106.15405318069014 L 995.4297883231188 106.13536680102716 L 995.1953300725155 106.11561957191253 L 994.9613203700907 106.09481346805269 L 994.7277826166193 106.0729505700407 L 994.4947401656824 106.05003306414814 L 994.2622163213307 106.0260632421065 L 994.0302343357548 106.00104350087803 L 993.7988174069602 105.97497634241597 L 993.5679886764467 105.94786437341445 L 993.3377712268951 105.9197103050478 L 993.1081880798586 105.89051695269937 L 992.8792621934602 105.86028723568009 L 992.6510164600983 105.82902417693644 L 992.4234737041556 105.79673090274827 L 992.1966566797183 105.76341064241608 L 991.9705880682999 105.72906672793813 L 991.7452904765729 105.69370259367726 L 991.5207864341088 105.6573217760174 L 991.2970983911249 105.61992791301003 L 991.074248716239 105.58152474401028 L 990.8522596942329 105.54211610930304 L 990.6311535238239 105.50170594971894 L 990.4109523154444 105.46029830624026 L 990.1916780890323 105.41789731959686 L 989.9733527718271 105.37450722985206 L 989.7559981961787 105.33013237597868 L 989.5396360973637 105.28477719542511 L 989.3242881114113 105.23844622367163 L 989.1099757729411 105.1911440937768 L 988.896720513008 105.14287553591419 L 988.6845436569605 105.09364537689936 L 988.4734664223072 105.0434585397072 L 988.2635099165958 104.99232004297959 L 988.0546951353019 104.9402350005236 L 987.8470429597296 104.88720862080007 L 987.6405741549235 104.83324620640276 L 987.4353093675918 104.77835315352817 L 987.2312691240423 104.72253495143585 L 987.0284738281293 104.66579718189945 L 986.8269437592136 104.60814551864868 L 986.6266990701339 104.54958572680184 L 986.4277597851923 104.49012366228926 L 986.2301457981515 104.42976527126788 L 986.0338768702456 104.36851658952648 L 985.8389726282038 104.30638374188221 L 985.6454525622879 104.24337294156805 L 985.4533360243431 104.17949048961154 L 985.2626422258634 104.11474277420461 L 985.0733902360694 104.04913627006486 L 984.8855989800024 103.98267753778805 L 984.6992872366318 103.91537322319199 L 984.5144736369764 103.84723005665208 L 984.3311766622423 103.77825485242818 L 984.1494146419741 103.70845450798322 L 983.9692057522226 103.63783600329349 L 983.7905680137263 103.56640640015061 L 983.6135192901104 103.49417284145538 L 983.4380772860995 103.42114255050346 L 983.2642595457481 103.3473228302631 L 983.0920834506852 103.27272106264479 L 982.9215662183768 103.19734470776314 L 982.7527249004042 103.1212013031908 L 982.5855763807583 103.04429846320481 L 982.420137374152 102.96664387802507 L 982.2564244243478 102.88824531304537 L 982.0944539025045 102.8091106080569 L 981.9342420055392 102.72924767646418 L 981.775804754508 102.64866450449387 L 981.6191579930043 102.56736915039596 L 981.4643173855734 102.48536974363815 L 981.3112984161471 102.40267448409276 L 981.1601163864948 102.31929164121684 L 981.0107864146935 102.2352295532252 L 980.863323433616 102.15049662625658 L 980.7177421894374 102.06510133353308 L 980.574057240161 101.97905221451278 L 980.4322829541618 101.89235787403591 L 980.2924335087504 101.80502698146424 L 980.1545228887546 101.71706826981428 L 980.0185648851216 101.62849053488388 L 979.8845730935385 101.53930263437272 L 979.7525609130728 101.44951348699652 L 979.6225415448324 101.35913207159521 L 979.4945279906459 101.26816742623502 L 979.368533051762 101.17662864730465 L 979.2445693275697 101.08452488860574 L 979.122649214338 100.9918653604374 L 979.0027849039766 100.89865932867522 L 978.8849883828167 100.80491611384473 L 978.7692714304122 100.71064509018925 L 978.655645618362 100.61585568473262 L 978.5441223091526 100.5205573763364 L 978.4347126550219 100.424759694752 L 978.3274275968442 100.32847221966773 L 978.222277863036 100.2317045797509 L 978.119273968483 100.13446645168483 L 978.0184262134886 100.03676755920131 L 977.9197446827445 99.93861767210817 L 977.8232392443216 99.84002660531232 L 977.7289195486832 99.7410042178383 L 977.6367950277202 99.64156041184232 L 977.546874893808 99.54170513162211 L 977.459168138885 99.4414483626225 L 977.3736835335537 99.34080013043682 L 977.2904296262035 99.23977049980442 L 977.2094147421554 99.13836957360418 L 977.1306469828306 99.03660749184422 L 977.0541342249394 98.9344944306479 L 976.9798841196936 98.83204060123627 L 976.907904092042 98.72925624890688 L 976.8382013399273 98.6261516520093 L 976.7707828335668 98.52273712091731 L 976.7056553147548 98.41902299699785 L 976.6428252961889 98.31501965157686 L 976.5822990608187 98.21073748490224 L 976.5240826612172 98.10618692510373 L 976.468181918976 98.0013784271502 L 976.4146024241226 97.89632247180411 L 976.3633495345617 97.79102956457344 L 976.3144283755399 97.68551023466115 L 976.2678438391321 97.57977503391233 L 976.2236005837532 97.47383453575894 L 976.1817030336917 97.3676993341625 L 976.142155378668 97.2613800425547 L 976.1049615734144 97.15488729277617 L 976.0701253372805 97.04823173401307 L 976.0376501538608 96.94142403173245 L 976.0075392706468 96.8344748666155 L 975.9797956987015 96.72739493348962 L 975.9544222123592 96.6201949402589 L 975.9314213489472 96.51288560683331 L 975.9107954085327 96.40547766405678 L 975.8925464536926 96.29798185263407 L 975.8766763093072 96.19040892205675 L 975.8631865623777 96.08276962952824 L 975.8520785618674 95.9750747388881 L 975.8433534185674 95.86733501953563 L 975.8370120049844 95.75956124535298 L 975.8330549552549 95.65176419362778 L 975.8314826650801 95.54395464397535" stroke-miterlimit="10" stroke-width="2.7769845610000004" stroke-dasharray=""/></g><g><g/><text fill="black" stroke="none" font-family="sans-serif" font-size="11pt" font-style="normal" font-weight="normal" text-decoration="normal" x="968.3029042892579" y="123.83569119881818" text-anchor="start" dominant-baseline="alphabetic" xml:space="preserve">Database</text></g><g><path fill="white" stroke="black" paint-order="fill stroke markers" d=" M 90.987082381 771.6081780603181 A 9.311065881 9.311065881 0 1 1 90.98707772546743 771.5988669959889 M 81.67601649999999 780.9192439413181 L 81.67601649999999 800.8481919673181 M 69.914670124 788.1067333933181 L 93.43736287599998 788.1067333933181 M 81.67601649999999 800.8481919673181 L 69.914670124 819.4703237293181 M 81.67601649999999 800.8481919673181 L 93.43736287599998 819.4703237293181" stroke-miterlimit="10" stroke-width="2.7769845610000004" stroke-dasharray=""/></g><g><g/><text fill="black" stroke="none" font-family="sans-serif" font-size="11pt" font-style="normal" font-weight="normal" text-decoration="normal" x="53.1470400595703" y="756.008058908818" text-anchor="start" dominant-baseline="alphabetic" xml:space="preserve">Landlord</text></g><g><path fill="white" stroke="black" paint-order="fill stroke markers" d=" M 490.0527749178177 787.110285992018 A 24.2577769005 24.2577769005 0 1 1 490.0527627889303 787.0860282191604 M 440.14872883631773 813.589650541318 L 491.4412671983177 813.589650541318" stroke-miterlimit="10" stroke-width="2.7769845610000004" stroke-dasharray=""/></g><g><g/><text fill="black" stroke="none" font-family="sans-serif" font-size="11pt" font-style="normal" font-weight="normal" text-decoration="normal" x="447.05484756565755" y="756.008058908818" text-anchor="start" dominant-baseline="alphabetic" xml:space="preserve">Client</text></g><g><path fill="white" stroke="black" paint-order="fill stroke markers" d=" M 765.1596256978307 787.110285992018 A 24.2577769005 24.2577769005 0 1 1 765.1596135689433 787.0860282191604 M 715.2555796163308 813.589650541318 L 766.5481179783308 813.589650541318" stroke-miterlimit="10" stroke-width="2.7769845610000004" stroke-dasharray=""/></g><g><g/><text fill="black" stroke="none" font-family="sans-serif" font-size="11pt" font-style="normal" font-weight="normal" text-decoration="normal" x="712.3764505429363" y="756.008058908818" text-anchor="start" dominant-baseline="alphabetic" xml:space="preserve">Backend</text></g><g><path fill="white" stroke="black" paint-order="fill stroke markers" d=" M 975.831452417547 808.7707655678181 L 975.831452417547 774.466838637818 L 1023.5302460535469 774.466838637818 L 1023.5302460535469 808.7707655678181" stroke-miterlimit="10" stroke-width="2.7769845610000004" stroke-dasharray=""/><path fill="white" stroke="black" paint-order="fill stroke markers" d=" M 1023.5302460535469 773.274368796918 L 1023.5290535936432 773.3821793418347 L 1023.5254763331772 773.4899791057866 L 1023.5195146298719 773.5977573088874 L 1023.5111690798925 773.7055031734064 L 1023.5004405177873 773.8132059248471 L 1023.4873300164035 773.920854793024 L 1023.4718388867802 774.0284390131401 L 1023.4539686780176 774.1359478268629 L 1023.4337211771216 774.2433704834007 L 1023.4110984088254 774.3506962405773 L 1023.386102635387 774.4579143659065 L 1023.358736356363 774.5650141376651 L 1023.3290023083584 774.6719848459652 L 1023.2969034647533 774.7788157938251 L 1023.2624430354052 774.8854962982389 L 1023.2256244663284 774.9920156912451 L 1023.1864514393491 775.0983633209934 L 1023.1449278717373 775.2045285528093 L 1023.1010579158153 775.3105007702579 L 1023.0548459585419 775.4162693762061 L 1023.0062966210746 775.5218237938813 L 1022.9554147583066 775.6271534679295 L 1022.9022054583817 775.7322478654713 L 1022.8466740421854 775.8370964771545 L 1022.7888260628134 775.9416888182054 L 1022.7286673050153 776.0460144294768 L 1022.6662037846166 776.1500628784946 L 1022.6014417479174 776.2538237605007 L 1022.5343876710674 776.3572866994934 L 1022.4650482594185 776.4604413492649 L 1022.3934304468538 776.5632773944361 L 1022.3195413950951 776.6657845514884 L 1022.2433884929861 776.7679525697914 L 1022.1649793557533 776.8697712326284 L 1022.0843218242452 776.971230358218 L 1022.0014239641478 777.0723198007321 L 1021.9162940651779 777.1730294513109 L 1021.8289406402545 777.273349239073 L 1021.7393724246473 777.3732691321235 L 1021.6475983751033 777.4727791385561 L 1021.5536276689509 777.5718693074533 L 1021.4574697031823 777.6705297298806 L 1021.3591340935142 777.768750539878 L 1021.2586306734254 777.8665219154466 L 1021.1559694931742 777.96383407953 L 1021.0511608187932 778.060677300993 L 1020.9442151310623 778.1570418955943 L 1020.8351431244613 778.2529182269545 L 1020.7239557061 778.3482967075205 L 1020.6106639946274 778.4431677995237 L 1020.4952793191205 778.537522015934 L 1020.3778132179505 778.6313499214083 L 1020.2582774376295 778.7246421332343 L 1020.1366839316363 778.8173893222685 L 1020.0130448592199 778.9095822138694 L 1019.8873725841845 779.0012115888245 L 1019.7596796736531 779.0922682842728 L 1019.62997889681 779.1827431946207 L 1019.4982832236251 779.2726272724524 L 1019.3646058235558 779.361911529435 L 1019.2289600642309 779.4505870372174 L 1019.0913595101131 779.5386449283225 L 1018.9518179211432 779.6260763970347 L 1018.8103492513638 779.7128727002801 L 1018.6669676475241 779.7990251585004 L 1018.5216874476649 779.8845251565217 L 1018.3745231796851 779.9693641444156 L 1018.225489559889 780.0535336383539 L 1018.074601491514 780.1370252214573 L 1017.9218740632417 780.2198305446371 L 1017.7673225476874 780.30194132743 L 1017.610962399874 780.3833493588262 L 1017.4528092556857 780.4640464980903 L 1017.2928789303054 780.5440246755757 L 1017.1311874166322 780.6232758935311 L 1016.9677508836829 780.701792226901 L 1016.8025856749744 780.7795658241174 L 1016.63570830689 780.8565889078855 L 1016.4671354670276 780.9328537759609 L 1016.2968840125304 781.0083528019204 L 1016.1249709684023 781.0830784359244 L 1015.9514135258042 781.1570232054718 L 1015.7762290403359 781.2301797161472 L 1015.5994350302999 781.3025406523603 L 1015.4210491749499 781.3740987780782 L 1015.2410893127226 781.4448469375477 L 1015.0595734394545 781.5147780560118 L 1014.8765197065816 781.583885140417 L 1014.6919464193246 781.6521612801124 L 1014.5058720348584 781.7195996475409 L 1014.3183151604665 781.7861934989221 L 1014.1292945516798 781.8519361749262 L 1013.9388291104019 781.9168211013405 L 1013.7469378830181 781.9808417897264 L 1013.5536400584913 782.0439918380683 L 1013.3589549664428 782.1062649314141 L 1013.1629020752196 782.1676548425064 L 1012.9655009899474 782.2281554324052 L 1012.7667714505703 782.2877606511018 L 1012.5667333298766 782.3464645381242 L 1012.3654066315116 782.4042612231325 L 1012.1628114879776 782.4611449265064 L 1011.9589681586198 782.517109959923 L 1011.7538970276015 782.5721507269255 L 1011.5476186018648 782.6262617234833 L 1011.3401535090804 782.6794375385415 L 1011.1315224955847 782.731672854563 L 1010.9217464243053 782.78296244806 L 1010.7108462726743 782.8333011901155 L 1010.4988431305312 782.8826840468975 L 1010.2857581980136 782.9311060801614 L 1010.0716127834372 782.9785624477443 L 1009.8564283011649 783.0250484040488 L 1009.6402262694656 783.0705593005182 L 1009.4230283083625 783.1150905861007 L 1009.2048561374705 783.1586378077048 L 1008.985731573825 783.2011966106447 L 1008.7656765296996 783.2427627390756 L 1008.5447130104155 783.2833320364193 L 1008.3228631121406 783.3229004457797 L 1008.1001490196795 783.3614640103491 L 1007.876593004256 783.3990188738029 L 1007.6522174212856 783.4355612806863 L 1007.4270447081393 783.4710875767889 L 1007.2010973819009 783.5055942095107 L 1006.9743980371147 783.5390777282173 L 1006.7469693435263 783.5715347845847 L 1006.5188340438154 783.6029621329343 L 1006.2900149513222 783.6333566305574 L 1006.0605349477648 783.6627152380295 L 1005.8304169809528 783.6910350195145 L 1005.5996840624907 783.7183131430577 L 1005.3683592654784 783.7445468808696 L 1005.1364657222025 783.7697336095982 L 1004.9040266218244 783.7938708105917 L 1004.6710652080603 783.81695607015 L 1004.4376047768574 783.8389870797664 L 1004.2036686740644 783.8599616363584 L 1003.9692802930964 783.8798776424878 L 1003.7344630725964 783.8987331065705 L 1003.4992404940908 783.9165261430758 L 1003.2636360796412 783.933254972715 L 1003.0276733894929 783.9489179226189 L 1002.7913760197182 783.9635134265056 L 1002.5547675998572 783.977040024837 L 1002.3178717905546 783.9894963649646 L 1002.0807122811941 784.0008812012645 L 1001.8433127875289 784.0111933952627 L 1001.6056970493105 784.0204319157484 L 1001.3678888279148 784.0285958388773 L 1001.1299119039658 784.0356843482638 L 1000.8917900749574 784.0416967350628 L 1000.6535471528742 784.0466323980409 L 1000.4152069618099 784.0504908436357 L 1000.1767933355849 784.0532716860058 L 999.9383301153631 784.0549746470695 L 999.699841147268 784.0555995565319 L 999.4613502799974 784.0551463519026 L 999.2228813624396 784.0536150785019 L 998.9844582412874 784.0510058894557 L 998.7461047586544 784.0473190456808 L 998.50784474969 784.0425549158583 L 998.2697020401968 784.0367139763974 L 998.0317004442471 784.0297968113872 L 997.7938637618023 784.0218041125383 L 997.5562157763324 784.0127366791141 L 997.3187802524378 784.0025954178502 L 997.0815809334731 783.9913813428644 L 996.8446415391727 783.9790955755549 L 996.6079857632784 783.965739344488 L 996.3716372711706 783.9513139852759 L 996.1356196975015 783.9358209404423 L 995.899956643832 783.9192617592789 L 995.6646716762708 783.90163809769 L 995.4297883231188 783.882951718027 L 995.1953300725155 783.8632044889123 L 994.9613203700907 783.8423983850525 L 994.7277826166193 783.8205354870405 L 994.4947401656824 783.7976179811479 L 994.2622163213307 783.7736481591063 L 994.0302343357548 783.7486284178779 L 993.7988174069602 783.7225612594158 L 993.5679886764467 783.6954492904142 L 993.3377712268951 783.6672952220476 L 993.1081880798586 783.6381018696992 L 992.8792621934602 783.6078721526799 L 992.6510164600983 783.5766090939362 L 992.4234737041556 783.5443158197481 L 992.1966566797183 783.5109955594158 L 991.9705880682999 783.476651644938 L 991.7452904765729 783.4412875106771 L 991.5207864341088 783.4049066930172 L 991.2970983911249 783.3675128300099 L 991.074248716239 783.3291096610101 L 990.8522596942329 783.2897010263029 L 990.6311535238239 783.2492908667188 L 990.4109523154444 783.2078832232401 L 990.1916780890323 783.1654822365966 L 989.9733527718271 783.1220921468519 L 989.7559981961787 783.0777172929785 L 989.5396360973637 783.032362112425 L 989.3242881114113 782.9860311406715 L 989.1099757729411 782.9387290107766 L 988.896720513008 782.890460452914 L 988.6845436569605 782.8412302938992 L 988.4734664223072 782.791043456707 L 988.2635099165958 782.7399049599794 L 988.0546951353019 782.6878199175234 L 987.8470429597296 782.6347935377999 L 987.6405741549235 782.5808311234026 L 987.4353093675918 782.525938070528 L 987.2312691240423 782.4701198684356 L 987.0284738281293 782.4133820988993 L 986.8269437592136 782.3557304356485 L 986.6266990701339 782.2971706438017 L 986.4277597851923 782.2377085792891 L 986.2301457981515 782.1773501882677 L 986.0338768702456 782.1161015065263 L 985.8389726282038 782.053968658882 L 985.6454525622879 781.9909578585679 L 985.4533360243431 781.9270754066114 L 985.2626422258634 781.8623276912044 L 985.0733902360694 781.7967211870647 L 984.8855989800024 781.7302624547879 L 984.6992872366318 781.6629581401918 L 984.5144736369764 781.5948149736519 L 984.3311766622423 781.525839769428 L 984.1494146419741 781.456039424983 L 983.9692057522226 781.3854209202933 L 983.7905680137263 781.3139913171505 L 983.6135192901104 781.2417577584552 L 983.4380772860995 781.1687274675032 L 983.2642595457481 781.0949077472629 L 983.0920834506852 781.0203059796446 L 982.9215662183768 780.944929624763 L 982.7527249004042 780.8687862201906 L 982.5855763807583 780.7918833802046 L 982.420137374152 780.7142287950248 L 982.2564244243478 780.6358302300451 L 982.0944539025045 780.5566955250567 L 981.9342420055392 780.476832593464 L 981.775804754508 780.3962494214936 L 981.6191579930043 780.3149540673958 L 981.4643173855734 780.2329546606379 L 981.3112984161471 780.1502594010925 L 981.1601163864948 780.0668765582167 L 981.0107864146935 779.982814470225 L 980.863323433616 779.8980815432564 L 980.7177421894374 779.8126862505329 L 980.574057240161 779.7266371315126 L 980.4322829541618 779.6399427910358 L 980.2924335087504 779.5526118984641 L 980.1545228887546 779.4646531868141 L 980.0185648851216 779.3760754518837 L 979.8845730935385 779.2868875513725 L 979.7525609130728 779.1970984039964 L 979.6225415448324 779.106716988595 L 979.4945279906459 779.0157523432348 L 979.368533051762 778.9242135643045 L 979.2445693275697 778.8321098056056 L 979.122649214338 778.7394502774372 L 979.0027849039766 778.646244245675 L 978.8849883828167 778.5525010308445 L 978.7692714304122 778.4582300071891 L 978.655645618362 778.3634406017325 L 978.5441223091526 778.2681422933362 L 978.4347126550219 778.1723446117518 L 978.3274275968442 778.0760571366676 L 978.222277863036 777.9792894967508 L 978.119273968483 777.8820513686846 L 978.0184262134886 777.7843524762011 L 977.9197446827445 777.686202589108 L 977.8232392443216 777.5876115223122 L 977.7289195486832 777.4885891348381 L 977.6367950277202 777.3891453288421 L 977.546874893808 777.289290048622 L 977.459168138885 777.1890332796223 L 977.3736835335537 777.0883850474366 L 977.2904296262035 776.9873554168042 L 977.2094147421554 776.885954490604 L 977.1306469828306 776.784192408844 L 977.0541342249394 776.6820793476477 L 976.9798841196936 776.5796255182361 L 976.907904092042 776.4768411659066 L 976.8382013399273 776.3737365690091 L 976.7707828335668 776.2703220379171 L 976.7056553147548 776.1666079139976 L 976.6428252961889 776.0626045685767 L 976.5822990608187 775.958322401902 L 976.5240826612172 775.8537718421036 L 976.468181918976 775.7489633441501 L 976.4146024241226 775.6439073888039 L 976.3633495345617 775.5386144815733 L 976.3144283755399 775.433095151661 L 976.2678438391321 775.3273599509122 L 976.2236005837532 775.2214194527587 L 976.1817030336917 775.1152842511623 L 976.142155378668 775.0089649595545 L 976.1049615734144 774.902472209776 L 976.0701253372805 774.7958166510128 L 976.0376501538608 774.6890089487323 L 976.0075392706468 774.5820597836154 L 975.9797956987015 774.4749798504895 L 975.9544222123592 774.3677798572587 L 975.9314213489472 774.2604705238331 L 975.9107954085327 774.1530625810566 L 975.8925464536926 774.0455667696339 L 975.8766763093072 773.9379938390566 L 975.8631865623777 773.830354546528 L 975.8520785618674 773.7226596558879 L 975.8433534185674 773.6149199365354 L 975.8370120049844 773.5071461623528 L 975.8330549552549 773.3993491106276 L 975.8314826650801 773.2915395609751 L 975.8322952916881 773.1837282942606 L 975.8354927538167 773.0759260915208 L 975.8410747317223 772.9681437328862 L 975.849040667212 772.8603919965028 L 975.8593897636987 772.7526816574544 L 975.8721209862815 772.6450234866853 L 975.8872330618486 772.5374282499228 L 975.9047244792052 772.4299067066008 L 975.924593489224 772.3224696087841 L 975.9468381050207 772.215127700093 L 975.9714561021522 772.107891714629 L 975.9984450188391 772.000772375901 L 976.0278021562125 771.8937803957539 L 976.059524578583 771.7869264732963 L 976.0936091137349 771.6802212938316 L 976.130052353243 771.5736755277887 L 976.1688506528137 771.4672998296555 L 976.2100001326494 771.3611048369132 L 976.2534966778364 771.2551011689725 L 976.2993359387565 771.1492994261118 L 976.3475133315217 771.0437101884174 L 976.3980240384329 770.938344014725 L 976.4508630084615 770.833211441564 L 976.5060249577547 770.7283229821044 L 976.5635043701633 770.6236891251044 L 976.6232954977941 770.5193203338629 L 976.6853923615839 770.4152270451716 L 976.7497887518984 770.3114196682731 L 976.8164782291523 770.2079085838182 L 976.8854541244531 770.1047041428293 L 976.9567095402689 770.0018166656644 L 977.0302373511175 769.8992564409855 L 977.1060302042791 769.7970337247295 L 977.1840805205316 769.6951587390831 L 977.2643804949083 769.5936416714599 L 977.3469220974787 769.4924926734818 L 977.4316970741514 769.3917218599646 L 977.5186969474994 769.2913393079056 L 977.6079130176078 769.1913550554762 L 977.6993363629439 769.0917791010185 L 977.7929578412494 768.9926214020448 L 977.8887680904544 768.8938918742426 L 977.986757529614 768.7956003904823 L 978.0869163598659 768.6977567798303 L 978.1892345654104 768.6003708265662 L 978.2937019145122 768.5034522692041 L 978.4003079605237 768.4070107995191 L 978.509042042929 768.3110560615777 L 978.6198932884103 768.2155976507737 L 978.7328506119356 768.1206451128687 L 978.8479027178668 768.0262079430374 L 978.9650381010889 767.932295584918 L 979.0842450481613 767.8389174296681 L 979.2055116384887 767.7460828150254 L 979.3288257455131 767.653801024374 L 979.4541750379266 767.562081285816 L 979.5815469809042 767.470932771249 L 979.7109288373581 767.3803645954483 L 979.8423076692102 767.2903858151561 L 979.9756703386868 767.2010054281754 L 980.1110035096322 767.1122323724707 L 980.248293648842 767.024075525273 L 980.3875270274168 766.9365437021942 L 980.5286897221347 766.8496456563432 L 980.6717676168438 766.7633900774523 L 980.8167464038739 766.6777855910077 L 980.9636115854672 766.5928407573865 L 981.1123484752279 766.5085640710013 L 981.2629421995908 766.4249639594506 L 981.4153776993093 766.3420487826756 L 981.56963973096 766.2598268321254 L 981.7257128684687 766.1783063299262 L 981.8835815046515 766.0974954280603 L 982.0432298527764 766.0174022075505 L 982.2046419481416 765.9380346776522 L 982.3678016496721 765.8594007750522 L 982.5326926415336 765.7815083630754 L 982.6992984347645 765.7043652308979 L 982.8676023689243 765.6279790927687 L 983.0375876137596 765.5523575872379 L 983.2092371708878 765.4775082763931 L 983.3825338754963 765.4034386451029 L 983.5574603980588 765.3301561002689 L 983.733999246069 765.2576679700844 L 983.912132765789 765.1859815033021 L 984.0918431440156 765.1151038685088 L 984.2731124098605 765.0450421534089 L 984.4559224365481 764.9758033641157 L 984.6402549432283 764.9073944244502 L 984.8260914968041 764.8398221752497 L 985.0134135137747 764.7730933736824 L 985.2022022620946 764.7072146925732 L 985.3924388630464 764.642192719735 L 985.5841042931286 764.5780339573113 L 985.7771793859577 764.5147448211244 L 985.9716448341853 764.4523316400355 L 986.1674811914289 764.3908006553106 L 986.3646688742157 764.330158019997 L 986.563188163942 764.2704097983076 L 986.763019208844 764.2115619650147 L 986.9641420259837 764.1536204048527 L 987.1665365032474 764.0965909119293 L 987.3701824013557 764.0404791891464 L 987.5750593558885 763.9852908476292 L 987.7811468793211 763.9310314061662 L 987.988424363073 763.8777062906561 L 988.1968710795685 763.8253208335661 L 988.4064661843097 763.7738802733984 L 988.6171887179606 763.7233897541659 L 988.8290176084437 763.6738543248784 L 989.0419316730463 763.6252789390379 L 989.2559096205395 763.5776684541423 L 989.4709300533067 763.5310276312003 L 989.6869714694839 763.4853611342556 L 989.9040122651094 763.4406735299196 L 990.1220307362847 763.3969692869156 L 990.3410050813443 763.3542527756315 L 990.560913403036 763.3125282676826 L 990.7817337107113 763.2717999354853 L 991.0034439225229 763.2320718518387 L 991.2260218676348 763.1933479895181 L 991.4494452884378 763.1556322208772 L 991.673691842776 763.1189283174618 L 991.8987391061809 763.0832399496315 L 992.1245645741136 763.0485706861934 L 992.3511456642157 763.0149239940448 L 992.5784597185668 762.9823032378271 L 992.8064840059509 762.9507116795885 L 993.0351957241294 762.9201524784586 L 993.264572002121 762.8906286903322 L 993.4945899024891 762.8621432675633 L 993.7252264236353 762.8346990586705 L 993.9564585020996 762.8082988080517 L 994.188263014867 762.7829451557103 L 994.4206167816793 762.7586406369901 L 994.6534965673535 762.7353876823228 L 994.8868790841051 762.7131886169846 L 995.1207409938769 762.6920456608633 L 995.3550589106727 762.6719609282371 L 995.5898094028962 762.6529364275625 L 995.8249689956938 762.6349740612736 L 996.0605141733022 762.6180756255922 L 996.2964213813998 762.6022428103477 L 996.5326670294626 762.5874771988084 L 996.7692274931223 762.5737802675231 L 997.0060791165301 762.5611533861738 L 997.2431982147208 762.5495978174379 L 997.4805610759822 762.5391147168626 L 997.718143964226 762.5297051327493 L 997.9559231213613 762.5213700060486 L 998.1938747696706 762.5141101702662 L 998.4319751141874 762.5079263513795 L 998.6702003450755 762.5028191677656 L 998.9085266400106 762.4987891301381 L 999.1469301665616 762.4958366414977 L 999.3853870845744 762.4939619970909 L 999.6238735485563 762.4931653843803 L 999.8623657100593 762.4934468830266 L 1000.1008397200661 762.4948064648804 L 1000.3392717313745 762.4972439939843 L 1000.577637900982 762.5007592265877 L 1000.8159143924703 762.5053518111702 L 1001.0540773783888 762.511021288477 L 1001.2921030426373 762.5177670915652 L 1001.5299675828478 762.5255885458602 L 1001.7676472127645 762.534484869223 L 1002.0051181646226 762.5444551720286 L 1002.2423566915245 762.5554984572553 L 1002.4793390698154 762.5676136205835 L 1002.716041601455 762.5807994505071 L 1002.9524406163873 762.595054628454 L 1003.188512474908 762.6103777289185 L 1003.4242335700276 762.626767219603 L 1003.6595803298333 762.6442214615724 L 1003.8945292198451 762.6627387094169 L 1004.1290567453699 762.682317111427 L 1004.3631394538506 762.7029547097791 L 1004.5967539372114 762.7246494407304 L 1004.8298768341984 762.7473991348259 L 1005.0624848327166 762.7712015171152 L 1005.2945546721596 762.7960542073798 L 1005.5260631457371 762.8219547203715 L 1005.7569871027946 762.8489004660605 L 1005.9873034511288 762.8768887498949 L 1006.2169891592968 762.9059167730693 L 1006.4460212589191 762.9359816328057 L 1006.6743768469768 762.9670803226433 L 1006.9020330881012 762.9992097327389 L 1007.128967216858 763.0323666501783 L 1007.3551565400234 763.0665477592976 L 1007.5805784388536 763.1017496420139 L 1007.8052103713466 763.1379687781687 L 1008.0290298744962 763.1752015458784 L 1008.2520145665388 763.2134442218971 L 1008.4741421491908 763.2526929819894 L 1008.6953904098793 763.2929439013118 L 1008.9157372239624 763.3341929548059 L 1009.1351605569423 763.3764360176008 L 1009.3536384666687 763.4196688654253 L 1009.5711491055326 763.4638871750308 L 1009.7876707226515 763.5090865246231 L 1010.0031816660438 763.5552623943048 L 1010.2176603847951 763.6024101665276 L 1010.4310854312121 763.6505251265536 L 1010.643435462968 763.6996024629267 L 1010.8546892452367 763.7496372679543 L 1011.0648256528159 763.8006245381976 L 1011.2738236722399 763.8525591749719 L 1011.4816624038812 763.9054359848569 L 1011.6883210640394 763.9592496802157 L 1011.8937789870212 764.0139948797238 L 1012.0980156272051 764.0696661089064 L 1012.3010105610974 764.1262578006874 L 1012.502743489374 764.1837642959446 L 1012.7031942389101 764.2421798440763 L 1012.9023427647977 764.3014986035766 L 1013.1001691523503 764.3617146426188 L 1013.296653619094 764.4228219396493 L 1013.4917765167457 764.4848143839893 L 1013.6855183331785 764.547685776446 L 1013.8778596943719 764.6114298299324 L 1014.0687813663503 764.6760401700965 L 1014.2582642571055 764.741510335958 L 1014.4462894185064 764.8078337805549 L 1014.6328380481934 764.875003871598 L 1014.8178914914591 764.9430138921342 L 1015.0014312431134 765.0118570412181 L 1015.1834389493341 765.0815264345922 L 1015.3638964095022 765.1520151053752 L 1015.5427855780221 765.2233160047588 L 1015.7200885661258 765.2954220027123 L 1015.8957876436626 765.3683258886962 L 1016.069865240871 765.4420203723826 L 1016.2423039501363 765.5164980843844 L 1016.4130865277313 765.5917515769926 L 1016.5821958955405 765.6677733249206 L 1016.7496151427681 765.7445557260571 L 1016.915327527629 765.8220911022258 L 1017.0793164790226 765.9003716999539 L 1017.2415655981906 765.9793896912466 L 1017.4020586603563 766.0591371743707 L 1017.5607796163471 766.1396061746444 L 1017.7177125941996 766.2207886452348 L 1017.872841900747 766.3026764679623 L 1018.0261520231878 766.3852614541131 L 1018.1776276306375 766.4685353452571 L 1018.3272535756616 766.5524898140749 L 1018.4750148957904 766.6371164651894 L 1018.6208968150149 766.722406836006 L 1018.7648847452648 766.8083523975588 L 1018.906964287867 766.8949445553632 L 1019.0471212349858 766.9821746502755 L 1019.185341571043 767.0700339593591 L 1019.3216114741203 767.1585136967561 L 1019.4559173173411 767.2476050145667 L 1019.5882456702329 767.3372990037332 L 1019.7185833000706 767.4275866949314 L 1019.8469171731999 767.5184590594675 L 1019.9732344563406 767.6099070101809 L 1020.0975225178693 767.7019214023526 L 1020.2197689290837 767.7944930346199 L 1020.3399614654444 767.887612649897 L 1020.4580881077981 767.9812709362999 L 1020.5741370435787 768.0754585280779 L 1020.6880966679896 768.1701660065503 L 1020.7999555851633 768.2653839010484 L 1020.9097026093011 768.3611026898618 L 1021.0173267657923 768.4573128011916 L 1021.1228172923107 768.5540046141068 L 1021.2261636398918 768.6511684595066 L 1021.3273554739867 768.7487946210875 L 1021.4263826754966 768.8468733363147 L 1021.5232353417836 768.9453947973984 L 1021.6179037876619 769.0443491522745 L 1021.7103785463659 769.1437265055902 L 1021.8006503704967 769.2435169196928 L 1021.888710232947 769.3437104156241 L 1021.9745493278041 769.444296974118 L 1022.0581590712301 769.5452665366023 L 1022.13953110232 769.6466090062053 L 1022.2186572839389 769.748314248764 L 1022.2955297035344 769.8503720938393 L 1022.3701406739285 769.9527723357315 L 1022.4424827340865 770.0555047345019 L 1022.5125486498628 770.1585590169963 L 1022.5803314147238 770.2619248778719 L 1022.6458242504498 770.3655919806292 L 1022.7090206078117 770.4695499586442 L 1022.7699141672264 770.5737884162056 L 1022.8284988393888 770.6782969295547 L 1022.8847687658804 770.783065047927 L 1022.9387183197556 770.8880822945982 L 1022.9903421061039 770.9933381679311 L 1023.0396349625895 771.098822142426 L 1023.0865919599681 771.2045236697735 L 1023.131208402579 771.3104321799087 L 1023.1734798288151 771.416537082069 L 1023.2134020115689 771.5228277658528 L 1023.2509709586556 771.6292936022799 L 1023.2861829132115 771.7359239448556 L 1023.3190343540709 771.8427081306345 L 1023.3495219961168 771.9496354812869 L 1023.3776427906105 772.056695304167 L 1023.4033939254958 772.1638768933817 L 1023.426772825681 772.2711695308612 L 1023.4477771532953 772.3785624874314 L 1023.4664048079236 772.486045023886 L 1023.4826539268158 772.5936063920611 L 1023.4965228850738 772.7012358359093 L 1023.508010295813 772.808922592576 L 1023.5171150103022 772.9166558934753 L 1023.5238361180774 773.0244249653667 L 1023.5281729470333 773.1322190314331 L 1023.5301250634909 773.2400273123576 M 1023.5302460535469 807.5782957269181 L 1023.5290535936432 807.6861062718348 L 1023.5254763331772 807.7939060357867 L 1023.5195146298719 807.9016842388875 L 1023.5111690798925 808.0094301034065 L 1023.5004405177873 808.1171328548472 L 1023.4873300164035 808.2247817230241 L 1023.4718388867802 808.3323659431402 L 1023.4539686780176 808.439874756863 L 1023.4337211771216 808.5472974134008 L 1023.4110984088254 808.6546231705775 L 1023.386102635387 808.7618412959066 L 1023.358736356363 808.8689410676652 L 1023.3290023083584 808.9759117759653 L 1023.2969034647533 809.0827427238252 L 1023.2624430354052 809.189423228239 L 1023.2256244663284 809.2959426212453 L 1023.1864514393491 809.4022902509935 L 1023.1449278717373 809.5084554828094 L 1023.1010579158153 809.614427700258 L 1023.0548459585419 809.7201963062062 L 1023.0062966210746 809.8257507238814 L 1022.9554147583066 809.9310803979296 L 1022.9022054583817 810.0361747954714 L 1022.8466740421854 810.1410234071546 L 1022.7888260628134 810.2456157482055 L 1022.7286673050153 810.3499413594769 L 1022.6662037846166 810.4539898084947 L 1022.6014417479174 810.5577506905008 L 1022.5343876710674 810.6612136294935 L 1022.4650482594185 810.764368279265 L 1022.3934304468538 810.8672043244362 L 1022.3195413950951 810.9697114814885 L 1022.2433884929861 811.0718794997915 L 1022.1649793557533 811.1736981626285 L 1022.0843218242452 811.2751572882181 L 1022.0014239641478 811.3762467307322 L 1021.9162940651779 811.476956381311 L 1021.8289406402545 811.5772761690731 L 1021.7393724246473 811.6771960621236 L 1021.6475983751033 811.7767060685562 L 1021.5536276689509 811.8757962374534 L 1021.4574697031823 811.9744566598807 L 1021.3591340935142 812.0726774698782 L 1021.2586306734254 812.1704488454467 L 1021.1559694931742 812.2677610095301 L 1021.0511608187932 812.3646042309931 L 1020.9442151310623 812.4609688255944 L 1020.8351431244613 812.5568451569546 L 1020.7239557061 812.6522236375206 L 1020.6106639946274 812.7470947295238 L 1020.4952793191205 812.8414489459341 L 1020.3778132179505 812.9352768514084 L 1020.2582774376295 813.0285690632344 L 1020.1366839316363 813.1213162522686 L 1020.0130448592199 813.2135091438695 L 1019.8873725841845 813.3051385188246 L 1019.7596796736531 813.3961952142729 L 1019.62997889681 813.4866701246208 L 1019.4982832236251 813.5765542024525 L 1019.3646058235558 813.6658384594351 L 1019.2289600642309 813.7545139672175 L 1019.0913595101131 813.8425718583226 L 1018.9518179211432 813.9300033270348 L 1018.8103492513638 814.0167996302802 L 1018.6669676475241 814.1029520885005 L 1018.5216874476649 814.1884520865218 L 1018.3745231796851 814.2732910744157 L 1018.225489559889 814.357460568354 L 1018.074601491514 814.4409521514574 L 1017.9218740632417 814.5237574746373 L 1017.7673225476874 814.6058682574301 L 1017.610962399874 814.6872762888263 L 1017.4528092556857 814.7679734280904 L 1017.2928789303054 814.8479516055758 L 1017.1311874166322 814.9272028235312 L 1016.9677508836829 815.0057191569011 L 1016.8025856749744 815.0834927541175 L 1016.63570830689 815.1605158378856 L 1016.4671354670276 815.236780705961 L 1016.2968840125304 815.3122797319205 L 1016.1249709684023 815.3870053659246 L 1015.9514135258042 815.4609501354719 L 1015.7762290403359 815.5341066461473 L 1015.5994350302999 815.6064675823604 L 1015.4210491749499 815.6780257080783 L 1015.2410893127226 815.7487738675478 L 1015.0595734394545 815.8187049860119 L 1014.8765197065816 815.8878120704171 L 1014.6919464193246 815.9560882101125 L 1014.5058720348584 816.023526577541 L 1014.3183151604665 816.0901204289222 L 1014.1292945516798 816.1558631049263 L 1013.9388291104019 816.2207480313406 L 1013.7469378830181 816.2847687197265 L 1013.5536400584913 816.3479187680684 L 1013.3589549664428 816.4101918614142 L 1013.1629020752196 816.4715817725065 L 1012.9655009899474 816.5320823624053 L 1012.7667714505703 816.591687581102 L 1012.5667333298766 816.6503914681243 L 1012.3654066315116 816.7081881531326 L 1012.1628114879776 816.7650718565066 L 1011.9589681586198 816.8210368899231 L 1011.7538970276015 816.8760776569256 L 1011.5476186018648 816.9301886534834 L 1011.3401535090804 816.9833644685416 L 1011.1315224955847 817.0355997845631 L 1010.9217464243053 817.08688937806 L 1010.7108462726743 817.1372281201157 L 1010.4988431305312 817.1866109768976 L 1010.2857581980136 817.2350330101615 L 1010.0716127834372 817.2824893777444 L 1009.8564283011649 817.3289753340489 L 1009.6402262694656 817.3744862305183 L 1009.4230283083625 817.4190175161008 L 1009.2048561374705 817.462564737705 L 1008.985731573825 817.5051235406448 L 1008.7656765296996 817.5466896690757 L 1008.5447130104155 817.5872589664194 L 1008.3228631121406 817.6268273757798 L 1008.1001490196795 817.6653909403492 L 1007.876593004256 817.702945803803 L 1007.6522174212856 817.7394882106864 L 1007.4270447081393 817.775014506789 L 1007.2010973819009 817.8095211395108 L 1006.9743980371147 817.8430046582175 L 1006.7469693435263 817.8754617145848 L 1006.5188340438154 817.9068890629344 L 1006.2900149513222 817.9372835605575 L 1006.0605349477648 817.9666421680296 L 1005.8304169809528 817.9949619495146 L 1005.5996840624907 818.0222400730578 L 1005.3683592654784 818.0484738108697 L 1005.1364657222025 818.0736605395983 L 1004.9040266218244 818.0977977405918 L 1004.6710652080603 818.1208830001501 L 1004.4376047768574 818.1429140097665 L 1004.2036686740644 818.1638885663585 L 1003.9692802930964 818.1838045724879 L 1003.7344630725964 818.2026600365706 L 1003.4992404940908 818.2204530730759 L 1003.2636360796412 818.2371819027151 L 1003.0276733894929 818.252844852619 L 1002.7913760197182 818.2674403565057 L 1002.5547675998572 818.2809669548371 L 1002.3178717905546 818.2934232949647 L 1002.0807122811941 818.3048081312646 L 1001.8433127875289 818.3151203252628 L 1001.6056970493105 818.3243588457485 L 1001.3678888279148 818.3325227688774 L 1001.1299119039658 818.3396112782639 L 1000.8917900749574 818.3456236650629 L 1000.6535471528742 818.350559328041 L 1000.4152069618099 818.3544177736358 L 1000.1767933355849 818.3571986160059 L 999.9383301153631 818.3589015770696 L 999.699841147268 818.359526486532 L 999.4613502799974 818.3590732819027 L 999.2228813624396 818.357542008502 L 998.9844582412874 818.3549328194558 L 998.7461047586544 818.3512459756807 L 998.50784474969 818.3464818458584 L 998.2697020401968 818.3406409063975 L 998.0317004442471 818.3337237413873 L 997.7938637618023 818.3257310425385 L 997.5562157763324 818.3166636091142 L 997.3187802524378 818.3065223478503 L 997.0815809334731 818.2953082728645 L 996.8446415391727 818.283022505555 L 996.6079857632784 818.2696662744881 L 996.3716372711706 818.255240915276 L 996.1356196975015 818.2397478704424 L 995.899956643832 818.223188689279 L 995.6646716762708 818.2055650276901 L 995.4297883231188 818.1868786480271 L 995.1953300725155 818.1671314189124 L 994.9613203700907 818.1463253150526 L 994.7277826166193 818.1244624170406 L 994.4947401656824 818.101544911148 L 994.2622163213307 818.0775750891064 L 994.0302343357548 818.052555347878 L 993.7988174069602 818.0264881894159 L 993.5679886764467 817.9993762204143 L 993.3377712268951 817.9712221520477 L 993.1081880798586 817.9420287996993 L 992.8792621934602 817.91179908268 L 992.6510164600983 817.8805360239363 L 992.4234737041556 817.8482427497482 L 992.1966566797183 817.814922489416 L 991.9705880682999 817.7805785749381 L 991.7452904765729 817.7452144406772 L 991.5207864341088 817.7088336230173 L 991.2970983911249 817.67143976001 L 991.074248716239 817.6330365910102 L 990.8522596942329 817.593627956303 L 990.6311535238239 817.5532177967189 L 990.4109523154444 817.5118101532402 L 990.1916780890323 817.4694091665967 L 989.9733527718271 817.426019076852 L 989.7559981961787 817.3816442229786 L 989.5396360973637 817.336289042425 L 989.3242881114113 817.2899580706716 L 989.1099757729411 817.2426559407767 L 988.896720513008 817.1943873829141 L 988.6845436569605 817.1451572238993 L 988.4734664223072 817.0949703867071 L 988.2635099165958 817.0438318899795 L 988.0546951353019 816.9917468475235 L 987.8470429597296 816.9387204678 L 987.6405741549235 816.8847580534027 L 987.4353093675918 816.8298650005281 L 987.2312691240423 816.7740467984357 L 987.0284738281293 816.7173090288994 L 986.8269437592136 816.6596573656486 L 986.6266990701339 816.6010975738018 L 986.4277597851923 816.5416355092892 L 986.2301457981515 816.4812771182678 L 986.0338768702456 816.4200284365264 L 985.8389726282038 816.3578955888821 L 985.6454525622879 816.294884788568 L 985.4533360243431 816.2310023366115 L 985.2626422258634 816.1662546212045 L 985.0733902360694 816.1006481170648 L 984.8855989800024 816.034189384788 L 984.6992872366318 815.9668850701919 L 984.5144736369764 815.898741903652 L 984.3311766622423 815.8297666994281 L 984.1494146419741 815.7599663549831 L 983.9692057522226 815.6893478502934 L 983.7905680137263 815.6179182471506 L 983.6135192901104 815.5456846884553 L 983.4380772860995 815.4726543975033 L 983.2642595457481 815.398834677263 L 983.0920834506852 815.3242329096447 L 982.9215662183768 815.248856554763 L 982.7527249004042 815.1727131501907 L 982.5855763807583 815.0958103102047 L 982.420137374152 815.0181557250249 L 982.2564244243478 814.9397571600452 L 982.0944539025045 814.8606224550568 L 981.9342420055392 814.7807595234641 L 981.775804754508 814.7001763514937 L 981.6191579930043 814.6188809973959 L 981.4643173855734 814.536881590638 L 981.3112984161471 814.4541863310926 L 981.1601163864948 814.3708034882168 L 981.0107864146935 814.2867414002251 L 980.863323433616 814.2020084732565 L 980.7177421894374 814.116613180533 L 980.574057240161 814.0305640615127 L 980.4322829541618 813.9438697210359 L 980.2924335087504 813.8565388284642 L 980.1545228887546 813.7685801168142 L 980.0185648851216 813.6800023818838 L 979.8845730935385 813.5908144813726 L 979.7525609130728 813.5010253339965 L 979.6225415448324 813.4106439185952 L 979.4945279906459 813.3196792732349 L 979.368533051762 813.2281404943046 L 979.2445693275697 813.1360367356057 L 979.122649214338 813.0433772074373 L 979.0027849039766 812.9501711756751 L 978.8849883828167 812.8564279608446 L 978.7692714304122 812.7621569371892 L 978.655645618362 812.6673675317326 L 978.5441223091526 812.5720692233363 L 978.4347126550219 812.4762715417519 L 978.3274275968442 812.3799840666677 L 978.222277863036 812.2832164267509 L 978.119273968483 812.1859782986847 L 978.0184262134886 812.0882794062012 L 977.9197446827445 811.9901295191081 L 977.8232392443216 811.8915384523123 L 977.7289195486832 811.7925160648382 L 977.6367950277202 811.6930722588422 L 977.546874893808 811.5932169786221 L 977.459168138885 811.4929602096224 L 977.3736835335537 811.3923119774367 L 977.2904296262035 811.2912823468043 L 977.2094147421554 811.1898814206041 L 977.1306469828306 811.0881193388441 L 977.0541342249394 810.9860062776478 L 976.9798841196936 810.8835524482362 L 976.907904092042 810.7807680959068 L 976.8382013399273 810.6776634990092 L 976.7707828335668 810.5742489679172 L 976.7056553147548 810.4705348439977 L 976.6428252961889 810.3665314985768 L 976.5822990608187 810.2622493319021 L 976.5240826612172 810.1576987721037 L 976.468181918976 810.0528902741502 L 976.4146024241226 809.947834318804 L 976.3633495345617 809.8425414115734 L 976.3144283755399 809.737022081661 L 976.2678438391321 809.6312868809123 L 976.2236005837532 809.5253463827588 L 976.1817030336917 809.4192111811624 L 976.142155378668 809.3128918895546 L 976.1049615734144 809.2063991397761 L 976.0701253372805 809.099743581013 L 976.0376501538608 808.9929358787324 L 976.0075392706468 808.8859867136155 L 975.9797956987015 808.7789067804896 L 975.9544222123592 808.6717067872588 L 975.9314213489472 808.5643974538332 L 975.9107954085327 808.4569895110567 L 975.8925464536926 808.349493699634 L 975.8766763093072 808.2419207690567 L 975.8631865623777 808.1342814765281 L 975.8520785618674 808.026586585888 L 975.8433534185674 807.9188468665355 L 975.8370120049844 807.8110730923529 L 975.8330549552549 807.7032760406277 L 975.8314826650801 807.5954664909752" stroke-miterlimit="10" stroke-width="2.7769845610000004" stroke-dasharray=""/></g><g><g/><text fill="black" stroke="none" font-family="sans-serif" font-size="11pt" font-style="normal" font-weight="normal" text-decoration="normal" x="968.3029042892579" y="756.008058908818" text-anchor="start" dominant-baseline="alphabetic" xml:space="preserve">Database</text></g></g><g><path fill="white" stroke="black" paint-order="fill stroke markers" d=" M 73.50841485 182.64242307881818 L 89.84361814999998 182.64242307881818 L 89.84361814999998 682.499644058818 L 73.50841485 682.499644058818 L 73.50841485 182.64242307881818" stroke-miterlimit="10" stroke-width="1.3612669416666667" stroke-dasharray=""/><path fill="white" stroke="black" paint-order="fill stroke markers" d=" M 457.6273963673177 182.64242307881818 L 473.9625996673177 182.64242307881818 L 473.9625996673177 682.499644058818 L 457.6273963673177 682.499644058818 L 457.6273963673177 182.64242307881818" stroke-miterlimit="10" stroke-width="1.3612669416666667" stroke-dasharray=""/><path fill="white" stroke="black" paint-order="fill stroke markers" d=" M 732.7342471473307 228.3809923188182 L 749.0694504473308 228.3809923188182 L 749.0694504473308 682.499644058818 L 732.7342471473307 682.499644058818 L 732.7342471473307 228.3809923188182" stroke-miterlimit="10" stroke-width="1.3612669416666667" stroke-dasharray=""/><path fill="white" stroke="black" paint-order="fill stroke markers" d=" M 991.5132475855469 339.4603747588182 L 1007.848450885547 339.4603747588182 L 1007.848450885547 682.499644058818 L 991.5132475855469 682.499644058818 L 991.5132475855469 339.4603747588182" stroke-miterlimit="10" stroke-width="1.3612669416666667" stroke-dasharray=""/><g><text fill="black" stroke="none" font-family="sans-serif" font-size="16pt" font-style="normal" font-weight="normal" text-decoration="normal" x="456.8829574584961" y="24.651306798181814" text-anchor="start" dominant-baseline="alphabetic" xml:space="preserve">Chnhsathitb</text></g><g><rect fill="white" stroke="none" x="109.17360872166667" y="161.4066587888182" width="329.1237665564062" height="21.23576429"/><text fill="black" stroke="none" font-family="sans-serif" font-size="11pt" font-style="normal" font-weight="normal" text-decoration="normal" x="111.62388921666667" y="176.10834175881817" text-anchor="start" dominant-baseline="alphabetic" xml:space="preserve">Chnthitbcnchnhsavnhpthngtinmi</text></g><g><path fill="none" stroke="black" paint-order="fill stroke markers" d=" M 89.84361814999998 182.64242307881818 L 444.17807898365106 182.64242307881818" stroke-miterlimit="10" stroke-width="1.3612669416666667" stroke-dasharray=""/><g transform="translate(457.6273963673177,182.64242307881818) translate(-457.6273963673177,-182.64242307881818)"><path fill="black" stroke="none" paint-order="stroke fill markers" d=" M 444.01472695065104 175.83608837048484 L 457.6273963673177 182.64242307881818 L 444.01472695065104 189.44875778715152 Z"/></g></g><g><rect fill="white" stroke="none" x="501.1486998581249" y="207.1452280288182" width="204.39944709839844" height="21.23576429"/><text fill="black" stroke="none" font-family="sans-serif" font-size="11pt" font-style="normal" font-weight="normal" text-decoration="normal" x="503.59898035312494" y="221.84691099881817" text-anchor="start" dominant-baseline="alphabetic" xml:space="preserve">GiIDthitbvthngtinmi</text></g><g><path fill="none" stroke="black" paint-order="fill stroke markers" d=" M 473.9625996673177 228.3809923188182 L 719.2849297636641 228.3809923188182" stroke-miterlimit="10" stroke-width="1.3612669416666667" stroke-dasharray=""/><g transform="translate(732.7342471473307,228.3809923188182) translate(-732.7342471473307,-228.3809923188182)"><path fill="black" stroke="none" paint-order="stroke fill markers" d=" M 719.1215777306641 221.57465761048485 L 732.7342471473307 228.3809923188182 L 719.1215777306641 235.18732702715153 Z"/></g></g><g><rect fill="white" stroke="none" x="768.3994410189975" y="252.88379726881823" width="103.49751533570313" height="21.23576429"/><text fill="black" stroke="none" font-family="sans-serif" font-size="11pt" font-style="normal" font-weight="normal" text-decoration="normal" x="770.8497215139976" y="267.5854802388182" text-anchor="start" dominant-baseline="alphabetic" xml:space="preserve">Kimtraquyn</text></g><g><path fill="none" stroke="black" paint-order="fill stroke markers" d=" M 749.0694504473308 274.1195615588182 L 814.4102636473308 274.1195615588182 L 814.4102636473308 295.3553258488182 L 762.5187678309975 295.3553258488182" stroke-miterlimit="10" stroke-width="1.3612669416666667" stroke-dasharray=""/><g transform="translate(749.0694504473308,295.3553258488182) translate(-749.0694504473308,-295.3553258488182)"><path fill="black" stroke="none" paint-order="stroke fill markers" d=" M 762.6821198639975 288.5489911404849 L 749.0694504473308 295.3553258488182 L 762.6821198639975 302.16166055715155 Z"/></g></g><g><rect fill="white" stroke="none" x="784.3013651522982" y="363.9631797088182" width="171.97996772828125" height="21.23576429"/><text fill="black" stroke="none" font-family="sans-serif" font-size="11pt" font-style="normal" font-weight="normal" text-decoration="normal" x="786.7516456472982" y="378.66486267881817" text-anchor="start" dominant-baseline="alphabetic" xml:space="preserve">Cpnhtthngtinthitb</text></g><g><path fill="none" stroke="black" paint-order="fill stroke markers" d=" M 749.0694504473308 385.1989439988182 L 978.0639302018802 385.1989439988182" stroke-miterlimit="10" stroke-width="1.3612669416666667" stroke-dasharray=""/><g transform="translate(991.5132475855469,385.1989439988182) translate(-991.5132475855469,-385.1989439988182)"><path fill="black" stroke="none" paint-order="stroke fill markers" d=" M 977.9005781688802 378.39260929048487 L 991.5132475855469 385.1989439988182 L 977.9005781688802 392.00527870715155 Z"/></g></g><g><rect fill="white" stroke="none" x="768.3994410189974" y="409.7017489488182" width="203.78381599488281" height="21.23576429"/><text fill="black" stroke="none" font-family="sans-serif" font-size="11pt" font-style="normal" font-weight="normal" text-decoration="normal" x="770.8497215139975" y="424.40343191881817" text-anchor="start" dominant-baseline="alphabetic" xml:space="preserve">Xcnhncpnhtthnhcng</text></g><g><path fill="none" stroke="black" paint-order="fill stroke markers" d=" M 991.5132475855469 430.9375132388182 L 762.5187678309975 430.9375132388182" stroke-miterlimit="10" stroke-width="1.3612669416666667" stroke-dasharray="6.53408132"/><g transform="translate(749.0694504473308,430.9375132388182) translate(-749.0694504473308,-430.9375132388182)"><path fill="black" stroke="none" paint-order="stroke fill markers" d=" M 762.6821198639975 424.1311785304849 L 749.0694504473308 430.9375132388182 L 762.6821198639975 437.74384794715155 Z"/></g></g><g><rect fill="white" stroke="none" x="493.2925902389843" y="455.4403181888182" width="220.1116663366797" height="21.23576429"/><text fill="black" stroke="none" font-family="sans-serif" font-size="11pt" font-style="normal" font-weight="normal" text-decoration="normal" x="495.7428707339843" y="470.1420011588182" text-anchor="start" dominant-baseline="alphabetic" xml:space="preserve">Thngbochnhsathnhcng</text></g><g><path fill="none" stroke="black" paint-order="fill stroke markers" d=" M 732.7342471473307 476.6760824788182 L 487.41191705098436 476.6760824788182" stroke-miterlimit="10" stroke-width="1.3612669416666667" stroke-dasharray="6.53408132"/><g transform="translate(473.9625996673177,476.6760824788182) translate(-473.9625996673177,-476.6760824788182)"><path fill="black" stroke="none" paint-order="stroke fill markers" d=" M 487.5752690839844 469.8697477704849 L 473.9625996673177 476.6760824788182 L 487.5752690839844 483.48241718715155 Z"/></g></g><g><rect fill="white" stroke="none" x="173.4756640805534" y="501.17888742881814" width="200.51968635621094" height="21.23576429"/><text fill="black" stroke="none" font-family="sans-serif" font-size="11pt" font-style="normal" font-weight="normal" text-decoration="normal" x="175.9259445755534" y="515.8805703988181" text-anchor="start" dominant-baseline="alphabetic" xml:space="preserve">Hinththngbothnhcng</text></g><g><path fill="none" stroke="black" paint-order="fill stroke markers" d=" M 457.6273963673177 522.4146517188182 L 103.29293553366665 522.4146517188182" stroke-miterlimit="10" stroke-width="1.3612669416666667" stroke-dasharray="6.53408132"/><g transform="translate(89.84361814999998,522.4146517188182) translate(-89.84361814999998,-522.4146517188182)"><path fill="black" stroke="none" paint-order="stroke fill markers" d=" M 103.45628756666665 515.6083170104848 L 89.84361814999998 522.4146517188182 L 103.45628756666665 529.2209864271515 Z"/></g></g><g><rect fill="white" stroke="none" x="506.3598814987499" y="591.022505578818" width="193.97708381714844" height="21.23576429"/><text fill="black" stroke="none" font-family="sans-serif" font-size="11pt" font-style="normal" font-weight="normal" text-decoration="normal" x="508.81016199374994" y="605.724188548818" text-anchor="start" dominant-baseline="alphabetic" xml:space="preserve">Thngboliquyntruycp</text></g><g><path fill="none" stroke="black" paint-order="fill stroke markers" d=" M 732.7342471473307 612.258269868818 L 487.41191705098436 612.258269868818" stroke-miterlimit="10" stroke-width="1.3612669416666667" stroke-dasharray="6.53408132"/><g transform="translate(473.9625996673177,612.258269868818) translate(-473.9625996673177,-612.258269868818)"><path fill="black" stroke="none" paint-order="stroke fill markers" d=" M 487.5752690839844 605.4519351604847 L 473.9625996673177 612.258269868818 L 487.5752690839844 619.0646045771514 Z"/></g></g><g><rect fill="white" stroke="none" x="185.70543855565106" y="636.761074818818" width="176.06013740601563" height="21.23576429"/><text fill="black" stroke="none" font-family="sans-serif" font-size="11pt" font-style="normal" font-weight="normal" text-decoration="normal" x="188.15571905065104" y="651.462757788818" text-anchor="start" dominant-baseline="alphabetic" xml:space="preserve">Hinththngbothtbi</text></g><g><path fill="none" stroke="black" paint-order="fill stroke markers" d=" M 457.6273963673177 657.996839108818 L 103.29293553366665 657.996839108818" stroke-miterlimit="10" stroke-width="1.3612669416666667" stroke-dasharray="6.53408132"/><g transform="translate(89.84361814999998,657.996839108818) translate(-89.84361814999998,-657.996839108818)"><path fill="black" stroke="none" paint-order="stroke fill markers" d=" M 103.45628756666665 651.1905044004847 L 89.84361814999998 657.996839108818 L 103.45628756666665 664.8031738171513 Z"/></g></g><g><g/><path fill="none" stroke="black" paint-order="fill stroke markers" d=" M 16.33520329999999 319.8581307988182 L 1056.854060785547 319.8581307988182 L 1056.854060785547 682.499644058818 L 16.33520329999999 682.499644058818 L 16.33520329999999 319.8581307988182 Z" stroke-miterlimit="10" stroke-width="2.3336004714285714" stroke-dasharray=""/><path fill="white" stroke="black" paint-order="fill stroke markers" d=" M 16.33520329999999 319.8581307988182 L 16.33520329999999 339.4603747588182 L 62.6944068970703 339.4603747588182 L 72.4955288770703 329.6592527788182 L 72.4955288770703 319.8581307988182 L 16.33520329999999 319.8581307988182" stroke-miterlimit="10" stroke-width="2.3336004714285714" stroke-dasharray=""/><text fill="black" stroke="none" font-family="sans-serif" font-size="8.8pt" font-style="normal" font-weight="bold" text-decoration="normal" x="32.67040659999999" y="332.9262934388182" text-anchor="start" dominant-baseline="alphabetic" xml:space="preserve">alt</text><g><rect fill="white" stroke="none" x="86.3804516820703" y="321.1649470628182" width="88.1846186071875" height="16.988611432000003"/></g><text fill="black" stroke="none" font-family="sans-serif" font-size="8.8pt" font-style="normal" font-weight="bold" text-decoration="normal" x="88.8307321770703" y="332.9262934388182" text-anchor="start" dominant-baseline="alphabetic" xml:space="preserve">[Quynhpl]</text><g><path fill="none" stroke="black" paint-order="fill stroke markers" d=" M 16.33520329999999 546.9174566688181 L 1056.8540607855468 546.9174566688181" stroke-miterlimit="10" stroke-width="2.3336004714285714" stroke-dasharray="4.083800825"/></g><g/><g><rect fill="white" stroke="none" x="86.3804516820703" y="548.224272932818" width="126.62782539429688" height="16.988611432000003"/></g><text fill="black" stroke="none" font-family="sans-serif" font-size="8.8pt" font-style="normal" font-weight="bold" text-decoration="normal" x="88.8307321770703" y="559.9856193088181" text-anchor="start" dominant-baseline="alphabetic" xml:space="preserve">[Quynkhnghpl]</text></g><g/></g><g/><g/><g/><g/></g></svg>