<svg xmlns="http://www.w3.org/2000/svg" xmlns:xlink="http://www.w3.org/1999/xlink" version="1.1" width="872.0937018458984" height="830.333233923818"><desc>title%20Xem%20chi%20ti%E1%BA%BFt%20thi%E1%BA%BFt%20b%E1%BB%8B%0A%0Abottomparticipants%0A%0Aactor%20Landlord%0Aentity%20Client%0Aentity%20Backend%0Adatabase%20Database%0A%0ALandlord%20-%3E%20Client%3A%20Ch%E1%BB%8Dn%20thi%E1%BA%BFt%20b%E1%BB%8B%20c%E1%BA%A7n%20xem%20chi%20ti%E1%BA%BFt%0Aactivate%20Landlord%0Aactivate%20Client%0A%0AClient%20-%3E%20Backend%3A%20G%E1%BB%ADi%20ID%20thi%E1%BA%BFt%20b%E1%BB%8B%20c%E1%BA%A7n%20xem%0Aactivate%20Backend%0A%0ABackend%20-%3E%20Backend%3A%20Ki%E1%BB%83m%20tra%20quy%E1%BB%81n%0Aactivate%20Database%0ABackend%20-%3E%20Database%3A%20Truy%20v%E1%BA%A5n%20th%C3%B4ng%20tin%20thi%E1%BA%BFt%20b%E1%BB%8B%0ADatabase%20--%3E%20Backend%3A%20Tr%E1%BA%A3%20v%E1%BB%81%20chi%20ti%E1%BA%BFt%20thi%E1%BA%BFt%20b%E1%BB%8B%0Adeactivate%20Database%0A%0Aalt%20C%C3%B3%20d%E1%BB%AF%20li%E1%BB%87u%0A%20%20%20%20Backend%20--%3E%20Client%3A%20Tr%E1%BA%A3%20v%E1%BB%81%20th%C3%B4ng%20tin%20chi%20ti%E1%BA%BFt%20thi%E1%BA%BFt%20b%E1%BB%8B%0A%20%20%20%20Client%20--%3E%20Landlord%3A%20Hi%E1%BB%83n%20th%E1%BB%8B%20chi%20ti%E1%BA%BFt%20thi%E1%BA%BFt%20b%E1%BB%8B%0Aelse%20Kh%C3%B4ng%20c%C3%B3%20d%E1%BB%AF%20li%E1%BB%87u%0A%20%20%20%20Backend%20--%3E%20Client%3A%20Th%C3%B4ng%20b%C3%A1o%20kh%C3%B4ng%20t%C3%ACm%20th%E1%BA%A5y%20thi%E1%BA%BFt%20b%E1%BB%8B%0A%20%20%20%20Client%20--%3E%20Landlord%3A%20Hi%E1%BB%83n%20th%E1%BB%8B%20th%C3%B4ng%20b%C3%A1o%20l%E1%BB%97i%0Aend%0A%0Adeactivate%20Backend%0Adeactivate%20Client%0Adeactivate%20Landlord%0A</desc><defs/><g><g/><g/><g/><g/><g/><g/><g/><g/><g/><g/><g/><g/><g/><g/><g/><g/><g/><g/><g/><g/><g/><g/><g/><g/><g/><g/><g/><g/><g/><g/><g/><g/><g/><g/><g/><g/><g/><g/><g/><g/><g/><g/><g/><g/><g/><g/><g/><g/><g/><g/><g/><g/><g/><g/><g/><g/><g/><g/><g/><g/><g/><g/><g/><g/><g/><g/><g/><g/><g/><g/><g/><g/><g/><g/><g/><g/><g/><g/><g/><g/><g/><g/><g/><g/><g/><g/><g/><g/><g/><g/><g/><g/><g/><g/><g/><g/><g/><g/><g/><g/><g/><g/><g/><g/><g/><g/><g/><g/><g/><g/><g/><g/><g/><g/><g/><g/><g/><g/><g><rect fill="white" stroke="none" x="0" y="0" width="872" height="830"/></g><g/><g><path fill="none" stroke="black" paint-order="fill stroke markers" d=" M 81.67601649999999 128.73625218881818 L 81.67601649999999 739.672855608818" stroke-miterlimit="10" stroke-width="1.3612669416666667" stroke-dasharray="12.565541,5.445067766666667"/><path fill="none" stroke="black" paint-order="fill stroke markers" d=" M 329.80361923313797 128.73625218881818 L 329.80361923313797 739.672855608818" stroke-miterlimit="10" stroke-width="1.3612669416666667" stroke-dasharray="12.565541,5.445067766666667"/><path fill="none" stroke="black" paint-order="fill stroke markers" d=" M 607.2941522641275 128.73625218881818 L 607.2941522641275 739.672855608818" stroke-miterlimit="10" stroke-width="1.3612669416666667" stroke-dasharray="12.565541,5.445067766666667"/><path fill="none" stroke="black" paint-order="fill stroke markers" d=" M 831.2556935958984 128.73625218881818 L 831.2556935958984 739.672855608818" stroke-miterlimit="10" stroke-width="1.3612669416666667" stroke-dasharray="12.565541,5.445067766666667"/></g><g><g><path fill="white" stroke="black" paint-order="fill stroke markers" d=" M 90.987082381 59.63834222981819 A 9.311065881 9.311065881 0 1 1 90.98707772546743 59.62903116548903 M 81.67601649999999 68.9494081108182 L 81.67601649999999 88.8783561368182 M 69.914670124 76.13689756281819 L 93.43736287599998 76.13689756281819 M 81.67601649999999 88.8783561368182 L 69.914670124 107.50048789881819 M 81.67601649999999 88.8783561368182 L 93.43736287599998 107.50048789881819" stroke-miterlimit="10" stroke-width="2.7769845610000004" stroke-dasharray=""/></g><g><g/><text fill="black" stroke="none" font-family="sans-serif" font-size="11pt" font-style="normal" font-weight="normal" text-decoration="normal" x="53.1470400595703" y="123.83569119881818" text-anchor="start" dominant-baseline="alphabetic" xml:space="preserve">Landlord</text></g><g><path fill="white" stroke="black" paint-order="fill stroke markers" d=" M 354.06139613363797 79.63263106901819 A 24.2577769005 24.2577769005 0 1 1 354.06138400475055 79.60837329616064 M 304.157350052138 106.11199561831819 L 355.44988841413794 106.11199561831819" stroke-miterlimit="10" stroke-width="2.7769845610000004" stroke-dasharray=""/></g><g><g/><text fill="black" stroke="none" font-family="sans-serif" font-size="11pt" font-style="normal" font-weight="normal" text-decoration="normal" x="311.0634687814778" y="123.83569119881818" text-anchor="start" dominant-baseline="alphabetic" xml:space="preserve">Client</text></g><g><path fill="white" stroke="black" paint-order="fill stroke markers" d=" M 631.5519291646275 79.63263106901819 A 24.2577769005 24.2577769005 0 1 1 631.5519170357401 79.60837329616064 M 581.6478830831276 106.11199561831819 L 632.9404214451275 106.11199561831819" stroke-miterlimit="10" stroke-width="2.7769845610000004" stroke-dasharray=""/></g><g><g/><text fill="black" stroke="none" font-family="sans-serif" font-size="11pt" font-style="normal" font-weight="normal" text-decoration="normal" x="578.768754009733" y="123.83569119881818" text-anchor="start" dominant-baseline="alphabetic" xml:space="preserve">Backend</text></g><g><path fill="white" stroke="black" paint-order="fill stroke markers" d=" M 807.4062967778984 96.71925372081819 L 807.4062967778984 62.41532679081819 L 855.1050904138983 62.41532679081819 L 855.1050904138983 96.71925372081819" stroke-miterlimit="10" stroke-width="2.7769845610000004" stroke-dasharray=""/><path fill="white" stroke="black" paint-order="fill stroke markers" d=" M 855.1050904138983 61.22285694991819 L 855.1038979539946 61.33066749483481 L 855.1003206935286 61.43846725878678 L 855.0943589902233 61.546245461887544 L 855.086013440244 61.65399132640659 L 855.0752848781387 61.761694077847274 L 855.0621743767549 61.86934294602419 L 855.0466832471317 61.976927166140236 L 855.0288130383691 62.084435979863045 L 855.008565537473 62.19185863640084 L 854.9859427691769 62.299184393577484 L 854.9609469957385 62.4064025189067 L 854.9335807167145 62.51350229066531 L 854.9038466687099 62.62047299896537 L 854.8717478251048 62.7273039468252 L 854.8372873957567 62.83398445123905 L 854.8004688266799 62.94050384424536 L 854.7612957997005 63.04685147399361 L 854.7197722320888 63.15301670580944 L 854.6759022761668 63.25898892325815 L 854.6296903188934 63.364757529206294 L 854.5811409814261 63.47031194688142 L 854.530259118658 63.575641620929716 L 854.4770498187331 63.68073601847156 L 854.4215184025369 63.78558463015478 L 854.3636704231649 63.89017697120557 L 854.3035116653667 63.994502582477 L 854.2410481449681 64.09855103149486 L 854.1762861082689 64.20231191350096 L 854.1092320314189 64.3057748524936 L 854.03989261977 64.40892950226505 L 853.9682748072053 64.51176554743633 L 853.8943857554466 64.61427270448858 L 853.8182328533376 64.71644072279157 L 853.7398237161048 64.81825938562858 L 853.6591661845966 64.91971851121816 L 853.5762683244992 65.02080795373233 L 853.4911384255294 65.12151760431107 L 853.4037850006059 65.22183739207324 L 853.3142167849987 65.32175728512367 L 853.2224427354547 65.42126729155632 L 853.1284720293022 65.52035746045347 L 853.0323140635337 65.6190178828808 L 852.9339784538656 65.71723869287828 L 852.8334750337767 65.81501006844678 L 852.7308138535257 65.91232223253022 L 852.6260051791446 66.00916545399325 L 852.5190594914137 66.10553004859446 L 852.4099874848127 66.20140637995469 L 852.2988000664515 66.29678486052069 L 852.1855083549789 66.39165595252388 L 852.070123679472 66.48601016893414 L 851.9526575783019 66.57983807440844 L 851.833121797981 66.67313028623443 L 851.7115282919877 66.76587747526865 L 851.5878892195714 66.85807036686953 L 851.462216944536 66.94969974182469 L 851.3345240340045 67.04075643727302 L 851.2048232571615 67.13123134762085 L 851.0731275839765 67.22111542545254 L 850.9394501839073 67.3103996824352 L 850.8038044245824 67.39907519021754 L 850.6662038704645 67.4871330813227 L 850.5266622814946 67.57456455003492 L 850.3851936117153 67.6613608532802 L 850.2418120078755 67.74751331150055 L 850.0965318080164 67.83301330952195 L 849.9493675400365 67.91785229741582 L 849.8003339202404 68.00202179135408 L 849.6494458518655 68.08551337445749 L 849.4967184235932 68.1683186976373 L 849.342166908039 68.25042948043021 L 849.1858067602254 68.33183751182635 L 849.0276536160371 68.41253465109044 L 848.8677232906568 68.4925128285758 L 848.7060317769837 68.5717640465313 L 848.5425952440344 68.65028037990122 L 848.3774300353258 68.72805397711764 L 848.2105526672415 68.80507706088565 L 848.041979827379 68.88134192896105 L 847.8717283728819 68.95684095492061 L 847.6998153287537 69.03156658892462 L 847.5262578861557 69.10551135847197 L 847.3510734006874 69.17866786914732 L 847.1742793906513 69.25102880536058 L 846.9958935353013 69.3225869310784 L 846.815933673074 69.39333509054786 L 846.634417799806 69.46326620901198 L 846.451364066933 69.53237329341717 L 846.2667907796761 69.60064943311258 L 846.0807163952098 69.66808780054113 L 845.8931595208179 69.7346816519223 L 845.7041389120312 69.80042432792644 L 845.5136734707534 69.86530925434072 L 845.3217822433695 69.92932994272657 L 845.1284844188427 69.9924799910685 L 844.9337993267942 70.05475308441433 L 844.737746435571 70.1161429955066 L 844.5403453502988 70.17664358540536 L 844.3416158109218 70.23624880410202 L 844.141577690228 70.29495269112441 L 843.9402509918631 70.35274937613272 L 843.737655848329 70.40963307950663 L 843.5338125189712 70.46559811292322 L 843.328741387953 70.52063887992576 L 843.1224629622162 70.57474987648341 L 842.9149978694319 70.62792569154163 L 842.7063668559362 70.68016100756323 L 842.4965907846567 70.73145060106012 L 842.2856906330258 70.78178934311569 L 842.0736874908827 70.8311721998977 L 841.860602558365 70.8795942331616 L 841.6464571437887 70.92705060074444 L 841.4312726615163 70.973536557049 L 841.2150706298171 71.01904745351838 L 840.997872668714 71.06357873910088 L 840.779700497822 71.10712596070502 L 840.5605759341764 71.14968476364494 L 840.340520890051 71.19125089207583 L 840.119557370767 71.23182018941947 L 839.897707472492 71.27138859877994 L 839.674993380031 71.30995216334925 L 839.4514373646075 71.34750702680313 L 839.2270617816371 71.38404943368649 L 839.0018890684908 71.4195757297891 L 838.7759417422524 71.45408236251096 L 838.5492423974662 71.48756588121756 L 838.3218137038778 71.52002293758491 L 838.0936784041669 71.55145028593446 L 837.8648593116736 71.58184478355753 L 837.6353793081163 71.61120339102969 L 837.4052613413043 71.63952317251467 L 837.1745284228422 71.66680129605793 L 836.9432036258298 71.69303503386982 L 836.711310082554 71.71822176259843 L 836.4788709821759 71.7423589635919 L 836.2459095684118 71.7654442231502 L 836.0124491372088 71.78747523276665 L 835.7785130344158 71.80844978935863 L 835.5441246534479 71.82836579548797 L 835.3093074329479 71.84722125957065 L 835.0740848544423 71.86501429607597 L 834.8384804399926 71.8817431257151 L 834.6025177498443 71.89740607561903 L 834.3662203800696 71.91200157950583 L 834.1296119602086 71.92552817783725 L 833.892716150906 71.93798451796474 L 833.6555566415456 71.94936935426468 L 833.4181571478804 71.95968154826289 L 833.1805414096619 71.96892006874862 L 832.9427331882663 71.97708399187748 L 832.7047562643172 71.98417250126396 L 832.4666344353088 71.99018488806304 L 832.2283915132257 71.99512055104105 L 831.9900513221613 71.99897899663581 L 831.7516376959363 72.00175983900598 L 831.5131744757145 72.00346280006961 L 831.2746855076194 72.00408770953204 L 831.0361946403489 72.00363450490285 L 830.797725722791 72.0021032315021 L 830.5593026016388 71.99949404245586 L 830.3209491190058 71.9958071986809 L 830.0826891100414 71.99104306885846 L 829.8445464005482 71.98520212939759 L 829.6065448045986 71.97828496438737 L 829.3687081221537 71.97029226553852 L 829.1310601366838 71.96122483211428 L 828.8936246127893 71.95108357085043 L 828.6564252938246 71.93986949586466 L 828.4194858995241 71.92758372855508 L 828.1828301236299 71.91422749748824 L 827.946481631522 71.89980213827607 L 827.710464057853 71.8843090934425 L 827.4748010041834 71.86774991227908 L 827.2395160366223 71.85012625069015 L 827.0046326834703 71.83143987102717 L 826.770174432867 71.81169264191253 L 826.5361647304421 71.79088653805269 L 826.3026269769707 71.7690236400407 L 826.0695845260339 71.74610613414815 L 825.8370606816821 71.72213631210651 L 825.6050786961063 71.69711657087802 L 825.3736617673117 71.67104941241597 L 825.1428330367982 71.64393744341446 L 824.9126155872466 71.6157833750478 L 824.68303244021 71.58659002269937 L 824.4541065538117 71.55636030568009 L 824.2258608204497 71.52509724693644 L 823.9983180645071 71.49280397274828 L 823.7715010400698 71.45948371241609 L 823.5454324286513 71.42513979793813 L 823.3201348369244 71.38977566367726 L 823.0956307944602 71.35339484601741 L 822.8719427514764 71.31600098301004 L 822.6490930765905 71.27759781401028 L 822.4271040545843 71.23818917930303 L 822.2059978841753 71.19777901971894 L 821.9857966757959 71.15637137624027 L 821.7665224493837 71.11397038959687 L 821.5481971321785 71.07058029985207 L 821.3308425565301 71.02620544597868 L 821.1144804577151 70.98085026542512 L 820.8991324717628 70.93451929367163 L 820.6848201332925 70.8872171637768 L 820.4715648733594 70.8389486059142 L 820.259388017312 70.78971844689937 L 820.0483107826586 70.7395316097072 L 819.8383542769473 70.6883931129796 L 819.6295394956534 70.6363080705236 L 819.421887320081 70.58328169080006 L 819.2154185152749 70.52931927640276 L 819.0101537279432 70.47442622352818 L 818.8061134843938 70.41860802143584 L 818.6033181884808 70.36187025189946 L 818.401788119565 70.3042185886487 L 818.2015434304853 70.24565879680183 L 818.0026041455437 70.18619673228926 L 817.804990158503 70.12583834126788 L 817.6087212305971 70.06458965952649 L 817.4138169885553 70.00245681188221 L 817.2202969226394 69.93944601156807 L 817.0281803846946 69.87556355961155 L 816.8374865862148 69.81081584420461 L 816.6482345964208 69.74520934006487 L 816.4604433403539 69.67875060778805 L 816.2741315969832 69.61144629319199 L 816.0893179973278 69.54330312665208 L 815.9060210225938 69.47432792242817 L 815.7242590023257 69.40452757798322 L 815.544050112574 69.3339090732935 L 815.3654123740778 69.26247947015062 L 815.1883636504618 69.19024591145539 L 815.012921646451 69.11721562050347 L 814.8391039060996 69.0433959002631 L 814.6669278110367 68.96879413264479 L 814.4964105787283 68.89341777776313 L 814.3275692607557 68.81727437319081 L 814.1604207411098 68.74037153320482 L 813.9949817345034 68.66271694802508 L 813.8312687846992 68.58431838304537 L 813.6692982628559 68.5051836780569 L 813.5090863658907 68.4253207464642 L 813.3506491148595 68.34473757449386 L 813.1940023533557 68.26344222039596 L 813.0391617459248 68.18144281363814 L 812.8861427764984 68.09874755409275 L 812.7349607468462 68.01536471121685 L 812.5856307750449 67.9313026232252 L 812.4381677939674 67.84656969625658 L 812.2925865497889 67.76117440353308 L 812.1489016005124 67.67512528451279 L 812.0071273145132 67.5884309440359 L 811.8672778691018 67.50110005146425 L 811.7293672491061 67.41314133981427 L 811.593409245473 67.32456360488388 L 811.45941745389 67.23537570437271 L 811.3274052734242 67.14558655699653 L 811.1973859051839 67.05520514159522 L 811.0693723509974 66.96424049623502 L 810.9433774121135 66.87270171730466 L 810.8194136879212 66.78059795860575 L 810.6974935746895 66.68793843043741 L 810.577629264328 66.59473239867523 L 810.4598327431681 66.50098918384472 L 810.3441157907637 66.40671816018926 L 810.2304899787134 66.31192875473263 L 810.1189666695041 66.2166304463364 L 810.0095570153734 66.120832764752 L 809.9022719571957 66.02454528966774 L 809.7971222233874 65.92777764975091 L 809.6941183288344 65.83053952168484 L 809.5932705738401 65.73284062920132 L 809.494589043096 65.63469074210818 L 809.398083604673 65.53609967531233 L 809.3037639090346 65.4370772878383 L 809.2116393880716 65.33763348184232 L 809.1217192541594 65.23777820162212 L 809.0340124992365 65.13752143262249 L 808.9485278939052 65.03687320043682 L 808.8652739865549 64.93584356980442 L 808.7842591025069 64.83444264360419 L 808.7054913431821 64.73268056184422 L 808.6289785852908 64.63056750064791 L 808.554728480045 64.52811367123628 L 808.4827484523935 64.42532931890689 L 808.4130457002788 64.32222472200931 L 808.3456271939183 64.21881019091732 L 808.2804996751063 64.11509606699785 L 808.2176696565404 64.01109272157687 L 808.1571434211702 63.90681055490224 L 808.0989270215687 63.80225999510374 L 808.0430262793275 63.697451497150205 L 807.989446784474 63.59239554180411 L 807.9381938949132 63.48710263457343 L 807.8892727358914 63.381583304661156 L 807.8426881994835 63.27584810391234 L 807.7984449441046 63.16990760575894 L 807.7565473940432 63.06377240416249 L 807.7169997390195 62.95745311255472 L 807.6798059337658 62.85096036277616 L 807.644969697632 62.744304804013076 L 807.6124945142122 62.63749710173245 L 807.5823836309983 62.530547936615505 L 807.554640059053 62.423468003489624 L 807.5292665727106 62.316268010258895 L 807.5062657092986 62.208958676833305 L 807.4856397688842 62.10155073405677 L 807.467390814044 61.99405492263407 L 807.4515206696586 61.88648199205676 L 807.4380309227291 61.77884269952825 L 807.4269229222189 61.6711478088881 L 807.4181977789189 61.56340808953563 L 807.4118563653359 61.45563431535299 L 807.4078993156063 61.34783726362778 L 807.4063270254316 61.24002771397536 L 807.4071396520395 61.13221644726084 L 807.4103371141681 61.02441424452105 L 807.4159190920738 60.916631885886424 L 807.4238850275634 60.808880149503025 L 807.4342341240501 60.70116981045468 L 807.446965346633 60.59351163968555 L 807.4620774222001 60.48591640292299 L 807.4795688395567 60.378394859601016 L 807.4994378495755 60.27095776178435 L 807.5216824653721 60.163615853093255 L 807.5463004625036 60.05637986762915 L 807.5732893791906 59.949260528901206 L 807.6026465165639 59.84226854875404 L 807.6343689389345 59.7354146262965 L 807.6684534740864 59.62870944683179 L 807.7048967135944 59.52216368078894 L 807.7436950131652 59.41578798265577 L 807.7848444930008 59.30959298991343 L 807.8283410381879 59.203589321972714 L 807.8741802991079 59.09778757911208 L 807.9223576918731 58.992198341417634 L 807.9728683987844 58.88683216772516 L 808.025707368813 58.78169959456423 L 808.0808693181061 58.67681113510454 L 808.1383487305147 58.57217727810464 L 808.1981398581455 58.46780848686303 L 808.2602367219354 58.36371519817185 L 808.3246331122499 58.25990782127324 L 808.3913225895037 58.15639673681838 L 808.4602984848045 58.053192295829454 L 808.5315539006203 57.950304818664556 L 808.605081711469 57.84774459398567 L 808.6808745646306 57.745521877729786 L 808.758924880883 57.64364689208335 L 808.8392248552598 57.54212982446004 L 808.9217664578301 57.44098082648201 L 809.0065414345029 57.340210012964775 L 809.0935413078508 57.2398274609057 L 809.1827573779592 57.13984320847635 L 809.2741807232953 57.040267254018644 L 809.3678022016009 56.94110955504505 L 809.4636124508058 56.84238002724283 L 809.5616018899655 56.74408854348249 L 809.6617607202173 56.646244932830506 L 809.7640789257619 56.54885897956639 L 809.8685462748637 56.45194042220433 L 809.9751523208752 56.35549895251929 L 810.0838864032804 56.25954421457787 L 810.1947376487617 56.16408580377391 L 810.3076949722871 56.06913326586893 L 810.4227470782182 55.974696096037604 L 810.5398824614404 55.88078373791821 L 810.6590894085127 55.7874055826683 L 810.7803559988402 55.694570968025594 L 810.9036701058646 55.60228917737418 L 811.029019398278 55.51056943881623 L 811.1563913412557 55.41942092424918 L 811.2857731977095 55.328852748448504 L 811.4171520295616 55.23887396815633 L 811.5505146990382 55.14949358117568 L 811.6858478699836 55.0607205254708 L 811.8231380091935 54.97256367827326 L 811.9623713877683 54.88503185519433 L 812.1035340824861 54.79813380934336 L 812.2466119771952 54.71187823045254 L 812.3915907642254 54.62627374400786 L 812.5384559458187 54.541328910386646 L 812.6871928355794 54.45705222400146 L 812.8377865599423 54.373452112450714 L 812.9902220596607 54.290536935675895 L 813.1444840913115 54.20831498512558 L 813.3005572288201 54.12679448292632 L 813.4584258650029 54.0459835810604 L 813.6180742131279 53.965890360550645 L 813.779486308493 53.88652283065238 L 813.9426460100235 53.80788892805245 L 814.107537001885 53.72999651607559 L 814.274142795116 53.652853383898076 L 814.4424467292757 53.57646724576885 L 814.612431974111 53.50084574023808 L 814.7840815312393 53.42599642939328 L 814.9573782358477 53.35192679810317 L 815.1323047584102 53.278644253269164 L 815.3088436064204 53.20615612308466 L 815.4869771261405 53.13446965630228 L 815.666687504367 53.06359202150896 L 815.8479567702119 52.99353030640911 L 816.0307667968996 52.924291517115876 L 816.2150993035798 52.85588257745046 L 816.4009358571556 52.78831032824984 L 816.5882578741262 52.72158152668263 L 816.777046622446 52.65570284557336 L 816.9672832233979 52.590680872735255 L 817.15894865348 52.52652211031142 L 817.3520237463091 52.463232974124615 L 817.5464891945368 52.40081979303573 L 817.7423255517804 52.33928880831086 L 817.9395132345671 52.278646172997206 L 818.1380325242934 52.21889795130775 L 818.3378635691954 52.160050118014894 L 818.5389863863352 52.1021085578529 L 818.7413808635988 52.045079064929524 L 818.9450267617071 51.98896734214652 L 819.1499037162399 51.933779000629414 L 819.3559912396726 51.87951955916637 L 819.5632687234245 51.826194443656306 L 819.77171543992 51.77380898656634 L 819.9813105446611 51.72236842639853 L 820.1920330783121 51.67187790716602 L 820.4038619687951 51.622342477878675 L 820.6167760333977 51.57376709203812 L 820.8307539808909 51.526156607142475 L 821.0457744136581 51.47951578420055 L 821.2618158298353 51.43384928725578 L 821.4788566254608 51.38916168291979 L 821.6968750966362 51.34545743991578 L 821.9158494416957 51.302740928631636 L 822.1357577633876 51.261016420682886 L 822.3565780710627 51.220288088485546 L 822.5782882828744 51.18056000483891 L 822.8008662279863 51.14183614251822 L 823.0242896487892 51.10412037387746 L 823.2485362031274 51.06741647046204 L 823.4735834665323 51.03172810263173 L 823.699408934465 50.99705883919358 L 823.9259900245671 50.96341214704502 L 824.1533040789183 50.930791390827245 L 824.3813283663023 50.899199832588685 L 824.6100400844808 50.86864063145883 L 824.8394163624724 50.83911684333235 L 825.0694342628406 50.81063142056343 L 825.3000707839867 50.78318721167063 L 825.5313028624511 50.75678696105195 L 825.7631073752184 50.731433308710464 L 825.9954611420308 50.70712878999027 L 826.228340927705 50.683875835323 L 826.4617234444565 50.66167676998473 L 826.6955853542283 50.6405338138635 L 826.9299032710242 50.6204490812373 L 827.1646537632477 50.60142458056266 L 827.3998133560452 50.583462214273794 L 827.6353585336536 50.566563778592354 L 827.8712657417512 50.55073096334783 L 828.107511389814 50.53596535180856 L 828.3440718534738 50.52226842052339 L 828.5809234768816 50.50964153917403 L 828.8180425750722 50.49808597043808 L 829.0554054363337 50.48760286986282 L 829.2929883245774 50.47819328574954 L 829.5307674817127 50.46985815904882 L 829.7687191300221 50.462598323266384 L 830.0068194745388 50.456414504379765 L 830.245044705427 50.45130732076569 L 830.483371000362 50.44727728313828 L 830.721774526913 50.444324794497916 L 830.9602314449259 50.44245015009101 L 831.1987179089077 50.44165353738045 L 831.4372100704107 50.44193503602685 L 831.6756840804176 50.443294617880554 L 831.914116091726 50.445732146984525 L 832.1524822613335 50.44924737958788 L 832.3907587528217 50.45383996417029 L 832.6289217387402 50.459509441477124 L 832.8669474029888 50.46625524456538 L 833.1048119431993 50.474076698860365 L 833.3424915731159 50.48297302222316 L 833.579962524974 50.49294332502887 L 833.8172010518759 50.50398661025549 L 834.0541834301669 50.51610177358371 L 834.2908859618065 50.52928760350731 L 834.5272849767388 50.54354278145426 L 834.7633568352594 50.55886588191867 L 834.999077930379 50.575255372603245 L 835.2344246901847 50.592709614572584 L 835.4693735801966 50.61122686241703 L 835.7039011057213 50.630805264427224 L 835.9379838142021 50.651442862779284 L 836.1715982975628 50.67313759373059 L 836.4047211945499 50.695887287826096 L 836.637329193068 50.71968967011537 L 836.8693990325111 50.74454236038002 L 837.1009075060886 50.77044287337172 L 837.331831463146 50.797388619060754 L 837.5621478114803 50.825376902895016 L 837.7918335196482 50.85440492606945 L 838.0208656192706 50.88446978580591 L 838.2492212073282 50.9155684756435 L 838.4768774484527 50.947697885739125 L 838.7038115772094 50.980854803178566 L 838.9300009003748 51.01503591229771 L 839.1554227992051 51.05023779501413 L 839.380054731698 51.08645693116888 L 839.6038742348477 51.12368969887854 L 839.8268589268903 51.16193237489736 L 840.0489865095423 51.201181134989596 L 840.2702347702308 51.241432054311964 L 840.4905815843139 51.28268110780607 L 840.7100049172938 51.32492417060092 L 840.9284828270202 51.368157018425464 L 841.1459934658841 51.41237532803093 L 841.3625150830029 51.45757467762322 L 841.5780260263953 51.503750547305025 L 841.7925047451465 51.55089831952786 L 842.0059297915635 51.5990132795538 L 842.2182798233194 51.64809061592693 L 842.4295336055882 51.69812542095451 L 842.6396700131673 51.749112691197745 L 842.8486680325914 51.801047327972086 L 843.0565067642326 51.85392413785714 L 843.2631654243909 51.90773783321599 L 843.4686233473726 51.962483032723924 L 843.6728599875565 52.01815426190663 L 843.8758549214489 52.07474595368758 L 844.0775878497254 52.132252448944755 L 844.2780385992615 52.190667997076545 L 844.4771871251492 52.24998675657682 L 844.6750135127018 52.310202795619055 L 844.8714979794454 52.371310092649544 L 845.0666208770972 52.43330253698949 L 845.2603626935299 52.49617392944612 L 845.4527040547233 52.559917982932596 L 845.6436257267018 52.62452832309667 L 845.8331086174569 52.68999848895818 L 846.0211337788578 52.7563219335551 L 846.2076824085449 52.823492024598224 L 846.3927358518106 52.89150204513444 L 846.5762756034649 52.960345194218355 L 846.7582833096856 53.03001458759244 L 846.9387407698537 53.10050325837541 L 847.1176299383735 53.171804157758935 L 847.2949329264773 53.243910155712484 L 847.4706320040141 53.31681404169635 L 847.6447096012224 53.39050852538269 L 847.8171483104877 53.46498623738456 L 847.9879308880827 53.5402397299928 L 848.157040255892 53.61626147792087 L 848.3244595031196 53.69304387905734 L 848.4901718879804 53.770579255226075 L 848.6541608393741 53.848859852954064 L 848.8164099585421 53.92787784424677 L 848.9769030207077 54.00762532737092 L 849.1356239766985 54.08809432764465 L 849.2925569545511 54.16927679823499 L 849.4476862610984 54.251164620962534 L 849.6009963835393 54.33374960711325 L 849.752471990989 54.41702349825734 L 849.9020979360131 54.500977967075094 L 850.0498592561419 54.58560461818958 L 850.1957411753664 54.670894989006214 L 850.3397291056162 54.75684055055899 L 850.4818086482185 54.84343270836337 L 850.6219655953372 54.93066280327574 L 850.7601859313944 55.0185221123593 L 850.8964558344718 55.107001849756344 L 851.0307616776926 55.196093167566886 L 851.1630900305844 55.28578715673337 L 851.293427660422 55.37607484793163 L 851.4217615335514 55.46694721246779 L 851.548078816692 55.55839516318112 L 851.6723668782207 55.65040955535275 L 851.7946132894351 55.742981187620146 L 851.9148058257958 55.83610080289723 L 852.0329324681495 55.92975908930006 L 852.1489814039302 56.02394668107806 L 852.2629410283411 56.11865415955053 L 852.3747999455147 56.213872054048544 L 852.4845469696526 56.30959084286201 L 852.5921711261437 56.405800954191804 L 852.6976616526622 56.50249276710697 L 852.8010080002432 56.5996566125068 L 852.9021998343381 56.69728277408771 L 853.001227035848 56.79536148931491 L 853.098079702135 56.89388295039859 L 853.1927481480134 56.99283730527477 L 853.2852229067173 57.09221465859041 L 853.3754947308481 57.19200507269298 L 853.4635545932985 57.29219856862425 L 853.5493936881555 57.39278512711811 L 853.6330034315815 57.49375468960253 L 853.7143754626715 57.59509715920541 L 853.7935016442904 57.69680240176424 L 853.8703740638858 57.79886024683951 L 853.94498503428 57.90126048873177 L 854.0173270944381 58.003992887502164 L 854.0873930102142 58.10704716999642 L 854.1551757750752 58.21041303087217 L 854.2206686108012 58.31408013362946 L 854.283864968163 58.41803811164441 L 854.3447585275778 58.52227656920584 L 854.4033431997402 58.62678508255487 L 854.4596131262318 58.731553200927245 L 854.513562680107 58.83657044759845 L 854.5651864664553 58.94182632093131 L 854.614479322941 59.04731029542622 L 854.6614363203196 59.153011822773635 L 854.7060527629304 59.25892033290889 L 854.7483241891665 59.36502523506925 L 854.7882463719203 59.471315918852895 L 854.825815319007 59.57778175528004 L 854.861027273563 59.684412097855756 L 854.8938787144223 59.79119628363465 L 854.9243663564682 59.89812363428712 L 854.9524871509619 60.005183457167206 L 854.9782382858473 60.11236504638185 L 855.0016171860325 60.21965768386144 L 855.0226215136468 60.327050640431644 L 855.041249168275 60.43453317688629 L 855.0574982871673 60.5420945450613 L 855.0713672454252 60.6497239889095 L 855.0828546561645 60.757410745576195 L 855.0919593706536 60.86514404647545 L 855.0986804784288 60.972913118366954 L 855.1030173073848 61.08070718443333 L 855.1049694238424 61.188515465357796 M 855.1050904138983 95.52678387991818 L 855.1038979539946 95.6345944248348 L 855.1003206935286 95.74239418878678 L 855.0943589902233 95.85017239188754 L 855.086013440244 95.95791825640659 L 855.0752848781387 96.06562100784727 L 855.0621743767549 96.1732698760242 L 855.0466832471317 96.28085409614023 L 855.0288130383691 96.38836290986303 L 855.008565537473 96.49578556640084 L 854.9859427691769 96.60311132357748 L 854.9609469957385 96.7103294489067 L 854.9335807167145 96.8174292206653 L 854.9038466687099 96.92439992896537 L 854.8717478251048 97.0312308768252 L 854.8372873957567 97.13791138123905 L 854.8004688266799 97.24443077424536 L 854.7612957997005 97.35077840399362 L 854.7197722320888 97.45694363580944 L 854.6759022761668 97.56291585325815 L 854.6296903188934 97.66868445920629 L 854.5811409814261 97.77423887688141 L 854.530259118658 97.8795685509297 L 854.4770498187331 97.98466294847155 L 854.4215184025369 98.08951156015478 L 854.3636704231649 98.19410390120557 L 854.3035116653667 98.29842951247699 L 854.2410481449681 98.40247796149485 L 854.1762861082689 98.50623884350097 L 854.1092320314189 98.60970178249359 L 854.03989261977 98.71285643226504 L 853.9682748072053 98.81569247743631 L 853.8943857554466 98.91819963448859 L 853.8182328533376 99.02036765279156 L 853.7398237161048 99.12218631562857 L 853.6591661845966 99.22364544121817 L 853.5762683244992 99.32473488373233 L 853.4911384255294 99.42544453431107 L 853.4037850006059 99.52576432207324 L 853.3142167849987 99.62568421512367 L 853.2224427354547 99.72519422155631 L 853.1284720293022 99.82428439045346 L 853.0323140635337 99.92294481288079 L 852.9339784538656 100.02116562287829 L 852.8334750337767 100.11893699844678 L 852.7308138535257 100.2162491625302 L 852.6260051791446 100.31309238399325 L 852.5190594914137 100.40945697859446 L 852.4099874848127 100.50533330995468 L 852.2988000664515 100.60071179052068 L 852.1855083549789 100.69558288252388 L 852.070123679472 100.78993709893413 L 851.9526575783019 100.88376500440843 L 851.833121797981 100.97705721623441 L 851.7115282919877 101.06980440526866 L 851.5878892195714 101.16199729686952 L 851.462216944536 101.25362667182469 L 851.3345240340045 101.34468336727302 L 851.2048232571615 101.43515827762084 L 851.0731275839765 101.52504235545253 L 850.9394501839073 101.61432661243519 L 850.8038044245824 101.70300212021755 L 850.6662038704645 101.7910600113227 L 850.5266622814946 101.87849148003492 L 850.3851936117153 101.9652877832802 L 850.2418120078755 102.05144024150056 L 850.0965318080164 102.13694023952193 L 849.9493675400365 102.22177922741581 L 849.8003339202404 102.30594872135407 L 849.6494458518655 102.38944030445748 L 849.4967184235932 102.47224562763729 L 849.342166908039 102.5543564104302 L 849.1858067602254 102.63576444182635 L 849.0276536160371 102.71646158109044 L 848.8677232906568 102.79643975857579 L 848.7060317769837 102.8756909765313 L 848.5425952440344 102.95420730990122 L 848.3774300353258 103.03198090711763 L 848.2105526672415 103.10900399088564 L 848.041979827379 103.18526885896105 L 847.8717283728819 103.2607678849206 L 847.6998153287537 103.33549351892461 L 847.5262578861557 103.40943828847196 L 847.3510734006874 103.48259479914732 L 847.1742793906513 103.55495573536056 L 846.9958935353013 103.6265138610784 L 846.815933673074 103.69726202054787 L 846.634417799806 103.76719313901197 L 846.451364066933 103.83630022341715 L 846.2667907796761 103.90457636311257 L 846.0807163952098 103.97201473054113 L 845.8931595208179 104.03860858192229 L 845.7041389120312 104.10435125792642 L 845.5136734707534 104.1692361843407 L 845.3217822433695 104.23325687272656 L 845.1284844188427 104.29640692106851 L 844.9337993267942 104.35868001441433 L 844.737746435571 104.4200699255066 L 844.5403453502988 104.48057051540535 L 844.3416158109218 104.54017573410202 L 844.141577690228 104.5988796211244 L 843.9402509918631 104.65667630613272 L 843.737655848329 104.71356000950664 L 843.5338125189712 104.7695250429232 L 843.328741387953 104.82456580992574 L 843.1224629622162 104.87867680648341 L 842.9149978694319 104.93185262154162 L 842.7063668559362 104.98408793756322 L 842.4965907846567 105.0353775310601 L 842.2856906330258 105.08571627311568 L 842.0736874908827 105.13509912989768 L 841.860602558365 105.1835211631616 L 841.6464571437887 105.23097753074444 L 841.4312726615163 105.27746348704899 L 841.2150706298171 105.32297438351839 L 840.997872668714 105.36750566910086 L 840.779700497822 105.41105289070501 L 840.5605759341764 105.45361169364494 L 840.340520890051 105.49517782207583 L 840.119557370767 105.53574711941947 L 839.897707472492 105.57531552877992 L 839.674993380031 105.61387909334925 L 839.4514373646075 105.65143395680312 L 839.2270617816371 105.68797636368647 L 839.0018890684908 105.72350265978909 L 838.7759417422524 105.75800929251095 L 838.5492423974662 105.79149281121755 L 838.3218137038778 105.82394986758491 L 838.0936784041669 105.85537721593445 L 837.8648593116736 105.88577171355752 L 837.6353793081163 105.9151303210297 L 837.4052613413043 105.94345010251467 L 837.1745284228422 105.97072822605791 L 836.9432036258298 105.99696196386981 L 836.711310082554 106.02214869259844 L 836.4788709821759 106.04628589359189 L 836.2459095684118 106.0693711531502 L 836.0124491372088 106.09140216276666 L 835.7785130344158 106.11237671935864 L 835.5441246534479 106.13229272548797 L 835.3093074329479 106.15114818957065 L 835.0740848544423 106.16894122607596 L 834.8384804399926 106.1856700557151 L 834.6025177498443 106.20133300561903 L 834.3662203800696 106.21592850950582 L 834.1296119602086 106.22945510783724 L 833.892716150906 106.24191144796474 L 833.6555566415456 106.25329628426466 L 833.4181571478804 106.2636084782629 L 833.1805414096619 106.2728469987486 L 832.9427331882663 106.28101092187747 L 832.7047562643172 106.28809943126396 L 832.4666344353088 106.29411181806304 L 832.2283915132257 106.29904748104106 L 831.9900513221613 106.30290592663582 L 831.7516376959363 106.30568676900597 L 831.5131744757145 106.30738973006962 L 831.2746855076194 106.30801463953205 L 831.0361946403489 106.30756143490284 L 830.797725722791 106.3060301615021 L 830.5593026016388 106.30342097245587 L 830.3209491190058 106.29973412868088 L 830.0826891100414 106.29496999885845 L 829.8445464005482 106.28912905939758 L 829.6065448045986 106.28221189438736 L 829.3687081221537 106.27421919553852 L 829.1310601366838 106.26515176211427 L 828.8936246127893 106.25501050085043 L 828.6564252938246 106.24379642586464 L 828.4194858995241 106.23151065855508 L 828.1828301236299 106.21815442748823 L 827.946481631522 106.20372906827606 L 827.710464057853 106.1882360234425 L 827.4748010041834 106.17167684227908 L 827.2395160366223 106.15405318069014 L 827.0046326834703 106.13536680102716 L 826.770174432867 106.11561957191253 L 826.5361647304421 106.09481346805269 L 826.3026269769707 106.0729505700407 L 826.0695845260339 106.05003306414814 L 825.8370606816821 106.0260632421065 L 825.6050786961063 106.00104350087803 L 825.3736617673117 105.97497634241597 L 825.1428330367982 105.94786437341445 L 824.9126155872466 105.9197103050478 L 824.68303244021 105.89051695269937 L 824.4541065538117 105.86028723568009 L 824.2258608204497 105.82902417693644 L 823.9983180645071 105.79673090274827 L 823.7715010400698 105.76341064241608 L 823.5454324286513 105.72906672793813 L 823.3201348369244 105.69370259367726 L 823.0956307944602 105.6573217760174 L 822.8719427514764 105.61992791301003 L 822.6490930765905 105.58152474401028 L 822.4271040545843 105.54211610930304 L 822.2059978841753 105.50170594971894 L 821.9857966757959 105.46029830624026 L 821.7665224493837 105.41789731959686 L 821.5481971321785 105.37450722985206 L 821.3308425565301 105.33013237597868 L 821.1144804577151 105.28477719542511 L 820.8991324717628 105.23844622367163 L 820.6848201332925 105.1911440937768 L 820.4715648733594 105.14287553591419 L 820.259388017312 105.09364537689936 L 820.0483107826586 105.0434585397072 L 819.8383542769473 104.99232004297959 L 819.6295394956534 104.9402350005236 L 819.421887320081 104.88720862080007 L 819.2154185152749 104.83324620640276 L 819.0101537279432 104.77835315352817 L 818.8061134843938 104.72253495143585 L 818.6033181884808 104.66579718189945 L 818.401788119565 104.60814551864868 L 818.2015434304853 104.54958572680184 L 818.0026041455437 104.49012366228926 L 817.804990158503 104.42976527126788 L 817.6087212305971 104.36851658952648 L 817.4138169885553 104.30638374188221 L 817.2202969226394 104.24337294156805 L 817.0281803846946 104.17949048961154 L 816.8374865862148 104.11474277420461 L 816.6482345964208 104.04913627006486 L 816.4604433403539 103.98267753778805 L 816.2741315969832 103.91537322319199 L 816.0893179973278 103.84723005665208 L 815.9060210225938 103.77825485242818 L 815.7242590023257 103.70845450798322 L 815.544050112574 103.63783600329349 L 815.3654123740778 103.56640640015061 L 815.1883636504618 103.49417284145538 L 815.012921646451 103.42114255050346 L 814.8391039060996 103.3473228302631 L 814.6669278110367 103.27272106264479 L 814.4964105787283 103.19734470776314 L 814.3275692607557 103.1212013031908 L 814.1604207411098 103.04429846320481 L 813.9949817345034 102.96664387802507 L 813.8312687846992 102.88824531304537 L 813.6692982628559 102.8091106080569 L 813.5090863658907 102.72924767646418 L 813.3506491148595 102.64866450449387 L 813.1940023533557 102.56736915039596 L 813.0391617459248 102.48536974363815 L 812.8861427764984 102.40267448409276 L 812.7349607468462 102.31929164121684 L 812.5856307750449 102.2352295532252 L 812.4381677939674 102.15049662625658 L 812.2925865497889 102.06510133353308 L 812.1489016005124 101.97905221451278 L 812.0071273145132 101.89235787403591 L 811.8672778691018 101.80502698146424 L 811.7293672491061 101.71706826981428 L 811.593409245473 101.62849053488388 L 811.45941745389 101.53930263437272 L 811.3274052734242 101.44951348699652 L 811.1973859051839 101.35913207159521 L 811.0693723509974 101.26816742623502 L 810.9433774121135 101.17662864730465 L 810.8194136879212 101.08452488860574 L 810.6974935746895 100.9918653604374 L 810.577629264328 100.89865932867522 L 810.4598327431681 100.80491611384473 L 810.3441157907637 100.71064509018925 L 810.2304899787134 100.61585568473262 L 810.1189666695041 100.5205573763364 L 810.0095570153734 100.424759694752 L 809.9022719571957 100.32847221966773 L 809.7971222233874 100.2317045797509 L 809.6941183288344 100.13446645168483 L 809.5932705738401 100.03676755920131 L 809.494589043096 99.93861767210817 L 809.398083604673 99.84002660531232 L 809.3037639090346 99.7410042178383 L 809.2116393880716 99.64156041184232 L 809.1217192541594 99.54170513162211 L 809.0340124992365 99.4414483626225 L 808.9485278939052 99.34080013043682 L 808.8652739865549 99.23977049980442 L 808.7842591025069 99.13836957360418 L 808.7054913431821 99.03660749184422 L 808.6289785852908 98.9344944306479 L 808.554728480045 98.83204060123627 L 808.4827484523935 98.72925624890688 L 808.4130457002788 98.6261516520093 L 808.3456271939183 98.52273712091731 L 808.2804996751063 98.41902299699785 L 808.2176696565404 98.31501965157686 L 808.1571434211702 98.21073748490224 L 808.0989270215687 98.10618692510373 L 808.0430262793275 98.0013784271502 L 807.989446784474 97.89632247180411 L 807.9381938949132 97.79102956457344 L 807.8892727358914 97.68551023466115 L 807.8426881994835 97.57977503391233 L 807.7984449441046 97.47383453575894 L 807.7565473940432 97.3676993341625 L 807.7169997390195 97.2613800425547 L 807.6798059337658 97.15488729277617 L 807.644969697632 97.04823173401307 L 807.6124945142122 96.94142403173245 L 807.5823836309983 96.8344748666155 L 807.554640059053 96.72739493348962 L 807.5292665727106 96.6201949402589 L 807.5062657092986 96.51288560683331 L 807.4856397688842 96.40547766405678 L 807.467390814044 96.29798185263407 L 807.4515206696586 96.19040892205675 L 807.4380309227291 96.08276962952824 L 807.4269229222189 95.9750747388881 L 807.4181977789189 95.86733501953563 L 807.4118563653359 95.75956124535298 L 807.4078993156063 95.65176419362778 L 807.4063270254316 95.54395464397535" stroke-miterlimit="10" stroke-width="2.7769845610000004" stroke-dasharray=""/></g><g><g/><text fill="black" stroke="none" font-family="sans-serif" font-size="11pt" font-style="normal" font-weight="normal" text-decoration="normal" x="799.8777486496093" y="123.83569119881818" text-anchor="start" dominant-baseline="alphabetic" xml:space="preserve">Database</text></g><g><path fill="white" stroke="black" paint-order="fill stroke markers" d=" M 90.987082381 771.6081780603181 A 9.311065881 9.311065881 0 1 1 90.98707772546743 771.5988669959889 M 81.67601649999999 780.9192439413181 L 81.67601649999999 800.8481919673181 M 69.914670124 788.1067333933181 L 93.43736287599998 788.1067333933181 M 81.67601649999999 800.8481919673181 L 69.914670124 819.4703237293181 M 81.67601649999999 800.8481919673181 L 93.43736287599998 819.4703237293181" stroke-miterlimit="10" stroke-width="2.7769845610000004" stroke-dasharray=""/></g><g><g/><text fill="black" stroke="none" font-family="sans-serif" font-size="11pt" font-style="normal" font-weight="normal" text-decoration="normal" x="53.1470400595703" y="756.008058908818" text-anchor="start" dominant-baseline="alphabetic" xml:space="preserve">Landlord</text></g><g><path fill="white" stroke="black" paint-order="fill stroke markers" d=" M 354.06139613363797 787.110285992018 A 24.2577769005 24.2577769005 0 1 1 354.06138400475055 787.0860282191604 M 304.157350052138 813.589650541318 L 355.44988841413794 813.589650541318" stroke-miterlimit="10" stroke-width="2.7769845610000004" stroke-dasharray=""/></g><g><g/><text fill="black" stroke="none" font-family="sans-serif" font-size="11pt" font-style="normal" font-weight="normal" text-decoration="normal" x="311.0634687814778" y="756.008058908818" text-anchor="start" dominant-baseline="alphabetic" xml:space="preserve">Client</text></g><g><path fill="white" stroke="black" paint-order="fill stroke markers" d=" M 631.5519291646275 787.110285992018 A 24.2577769005 24.2577769005 0 1 1 631.5519170357401 787.0860282191604 M 581.6478830831276 813.589650541318 L 632.9404214451275 813.589650541318" stroke-miterlimit="10" stroke-width="2.7769845610000004" stroke-dasharray=""/></g><g><g/><text fill="black" stroke="none" font-family="sans-serif" font-size="11pt" font-style="normal" font-weight="normal" text-decoration="normal" x="578.768754009733" y="756.008058908818" text-anchor="start" dominant-baseline="alphabetic" xml:space="preserve">Backend</text></g><g><path fill="white" stroke="black" paint-order="fill stroke markers" d=" M 807.4062967778984 808.7707655678181 L 807.4062967778984 774.466838637818 L 855.1050904138983 774.466838637818 L 855.1050904138983 808.7707655678181" stroke-miterlimit="10" stroke-width="2.7769845610000004" stroke-dasharray=""/><path fill="white" stroke="black" paint-order="fill stroke markers" d=" M 855.1050904138983 773.274368796918 L 855.1038979539946 773.3821793418347 L 855.1003206935286 773.4899791057866 L 855.0943589902233 773.5977573088874 L 855.086013440244 773.7055031734064 L 855.0752848781387 773.8132059248471 L 855.0621743767549 773.920854793024 L 855.0466832471317 774.0284390131401 L 855.0288130383691 774.1359478268629 L 855.008565537473 774.2433704834007 L 854.9859427691769 774.3506962405773 L 854.9609469957385 774.4579143659065 L 854.9335807167145 774.5650141376651 L 854.9038466687099 774.6719848459652 L 854.8717478251048 774.7788157938251 L 854.8372873957567 774.8854962982389 L 854.8004688266799 774.9920156912451 L 854.7612957997005 775.0983633209934 L 854.7197722320888 775.2045285528093 L 854.6759022761668 775.3105007702579 L 854.6296903188934 775.4162693762061 L 854.5811409814261 775.5218237938813 L 854.530259118658 775.6271534679295 L 854.4770498187331 775.7322478654713 L 854.4215184025369 775.8370964771545 L 854.3636704231649 775.9416888182054 L 854.3035116653667 776.0460144294768 L 854.2410481449681 776.1500628784946 L 854.1762861082689 776.2538237605007 L 854.1092320314189 776.3572866994934 L 854.03989261977 776.4604413492649 L 853.9682748072053 776.5632773944361 L 853.8943857554466 776.6657845514884 L 853.8182328533376 776.7679525697914 L 853.7398237161048 776.8697712326284 L 853.6591661845966 776.971230358218 L 853.5762683244992 777.0723198007321 L 853.4911384255294 777.1730294513109 L 853.4037850006059 777.273349239073 L 853.3142167849987 777.3732691321235 L 853.2224427354547 777.4727791385561 L 853.1284720293022 777.5718693074533 L 853.0323140635337 777.6705297298806 L 852.9339784538656 777.768750539878 L 852.8334750337767 777.8665219154466 L 852.7308138535257 777.96383407953 L 852.6260051791446 778.060677300993 L 852.5190594914137 778.1570418955943 L 852.4099874848127 778.2529182269545 L 852.2988000664515 778.3482967075205 L 852.1855083549789 778.4431677995237 L 852.070123679472 778.537522015934 L 851.9526575783019 778.6313499214083 L 851.833121797981 778.7246421332343 L 851.7115282919877 778.8173893222685 L 851.5878892195714 778.9095822138694 L 851.462216944536 779.0012115888245 L 851.3345240340045 779.0922682842728 L 851.2048232571615 779.1827431946207 L 851.0731275839765 779.2726272724524 L 850.9394501839073 779.361911529435 L 850.8038044245824 779.4505870372174 L 850.6662038704645 779.5386449283225 L 850.5266622814946 779.6260763970347 L 850.3851936117153 779.7128727002801 L 850.2418120078755 779.7990251585004 L 850.0965318080164 779.8845251565217 L 849.9493675400365 779.9693641444156 L 849.8003339202404 780.0535336383539 L 849.6494458518655 780.1370252214573 L 849.4967184235932 780.2198305446371 L 849.342166908039 780.30194132743 L 849.1858067602254 780.3833493588262 L 849.0276536160371 780.4640464980903 L 848.8677232906568 780.5440246755757 L 848.7060317769837 780.6232758935311 L 848.5425952440344 780.701792226901 L 848.3774300353258 780.7795658241174 L 848.2105526672415 780.8565889078855 L 848.041979827379 780.9328537759609 L 847.8717283728819 781.0083528019204 L 847.6998153287537 781.0830784359244 L 847.5262578861557 781.1570232054718 L 847.3510734006874 781.2301797161472 L 847.1742793906513 781.3025406523603 L 846.9958935353013 781.3740987780782 L 846.815933673074 781.4448469375477 L 846.634417799806 781.5147780560118 L 846.451364066933 781.583885140417 L 846.2667907796761 781.6521612801124 L 846.0807163952098 781.7195996475409 L 845.8931595208179 781.7861934989221 L 845.7041389120312 781.8519361749262 L 845.5136734707534 781.9168211013405 L 845.3217822433695 781.9808417897264 L 845.1284844188427 782.0439918380683 L 844.9337993267942 782.1062649314141 L 844.737746435571 782.1676548425064 L 844.5403453502988 782.2281554324052 L 844.3416158109218 782.2877606511018 L 844.141577690228 782.3464645381242 L 843.9402509918631 782.4042612231325 L 843.737655848329 782.4611449265064 L 843.5338125189712 782.517109959923 L 843.328741387953 782.5721507269255 L 843.1224629622162 782.6262617234833 L 842.9149978694319 782.6794375385415 L 842.7063668559362 782.731672854563 L 842.4965907846567 782.78296244806 L 842.2856906330258 782.8333011901155 L 842.0736874908827 782.8826840468975 L 841.860602558365 782.9311060801614 L 841.6464571437887 782.9785624477443 L 841.4312726615163 783.0250484040488 L 841.2150706298171 783.0705593005182 L 840.997872668714 783.1150905861007 L 840.779700497822 783.1586378077048 L 840.5605759341764 783.2011966106447 L 840.340520890051 783.2427627390756 L 840.119557370767 783.2833320364193 L 839.897707472492 783.3229004457797 L 839.674993380031 783.3614640103491 L 839.4514373646075 783.3990188738029 L 839.2270617816371 783.4355612806863 L 839.0018890684908 783.4710875767889 L 838.7759417422524 783.5055942095107 L 838.5492423974662 783.5390777282173 L 838.3218137038778 783.5715347845847 L 838.0936784041669 783.6029621329343 L 837.8648593116736 783.6333566305574 L 837.6353793081163 783.6627152380295 L 837.4052613413043 783.6910350195145 L 837.1745284228422 783.7183131430577 L 836.9432036258298 783.7445468808696 L 836.711310082554 783.7697336095982 L 836.4788709821759 783.7938708105917 L 836.2459095684118 783.81695607015 L 836.0124491372088 783.8389870797664 L 835.7785130344158 783.8599616363584 L 835.5441246534479 783.8798776424878 L 835.3093074329479 783.8987331065705 L 835.0740848544423 783.9165261430758 L 834.8384804399926 783.933254972715 L 834.6025177498443 783.9489179226189 L 834.3662203800696 783.9635134265056 L 834.1296119602086 783.977040024837 L 833.892716150906 783.9894963649646 L 833.6555566415456 784.0008812012645 L 833.4181571478804 784.0111933952627 L 833.1805414096619 784.0204319157484 L 832.9427331882663 784.0285958388773 L 832.7047562643172 784.0356843482638 L 832.4666344353088 784.0416967350628 L 832.2283915132257 784.0466323980409 L 831.9900513221613 784.0504908436357 L 831.7516376959363 784.0532716860058 L 831.5131744757145 784.0549746470695 L 831.2746855076194 784.0555995565319 L 831.0361946403489 784.0551463519026 L 830.797725722791 784.0536150785019 L 830.5593026016388 784.0510058894557 L 830.3209491190058 784.0473190456808 L 830.0826891100414 784.0425549158583 L 829.8445464005482 784.0367139763974 L 829.6065448045986 784.0297968113872 L 829.3687081221537 784.0218041125383 L 829.1310601366838 784.0127366791141 L 828.8936246127893 784.0025954178502 L 828.6564252938246 783.9913813428644 L 828.4194858995241 783.9790955755549 L 828.1828301236299 783.965739344488 L 827.946481631522 783.9513139852759 L 827.710464057853 783.9358209404423 L 827.4748010041834 783.9192617592789 L 827.2395160366223 783.90163809769 L 827.0046326834703 783.882951718027 L 826.770174432867 783.8632044889123 L 826.5361647304421 783.8423983850525 L 826.3026269769707 783.8205354870405 L 826.0695845260339 783.7976179811479 L 825.8370606816821 783.7736481591063 L 825.6050786961063 783.7486284178779 L 825.3736617673117 783.7225612594158 L 825.1428330367982 783.6954492904142 L 824.9126155872466 783.6672952220476 L 824.68303244021 783.6381018696992 L 824.4541065538117 783.6078721526799 L 824.2258608204497 783.5766090939362 L 823.9983180645071 783.5443158197481 L 823.7715010400698 783.5109955594158 L 823.5454324286513 783.476651644938 L 823.3201348369244 783.4412875106771 L 823.0956307944602 783.4049066930172 L 822.8719427514764 783.3675128300099 L 822.6490930765905 783.3291096610101 L 822.4271040545843 783.2897010263029 L 822.2059978841753 783.2492908667188 L 821.9857966757959 783.2078832232401 L 821.7665224493837 783.1654822365966 L 821.5481971321785 783.1220921468519 L 821.3308425565301 783.0777172929785 L 821.1144804577151 783.032362112425 L 820.8991324717628 782.9860311406715 L 820.6848201332925 782.9387290107766 L 820.4715648733594 782.890460452914 L 820.259388017312 782.8412302938992 L 820.0483107826586 782.791043456707 L 819.8383542769473 782.7399049599794 L 819.6295394956534 782.6878199175234 L 819.421887320081 782.6347935377999 L 819.2154185152749 782.5808311234026 L 819.0101537279432 782.525938070528 L 818.8061134843938 782.4701198684356 L 818.6033181884808 782.4133820988993 L 818.401788119565 782.3557304356485 L 818.2015434304853 782.2971706438017 L 818.0026041455437 782.2377085792891 L 817.804990158503 782.1773501882677 L 817.6087212305971 782.1161015065263 L 817.4138169885553 782.053968658882 L 817.2202969226394 781.9909578585679 L 817.0281803846946 781.9270754066114 L 816.8374865862148 781.8623276912044 L 816.6482345964208 781.7967211870647 L 816.4604433403539 781.7302624547879 L 816.2741315969832 781.6629581401918 L 816.0893179973278 781.5948149736519 L 815.9060210225938 781.525839769428 L 815.7242590023257 781.456039424983 L 815.544050112574 781.3854209202933 L 815.3654123740778 781.3139913171505 L 815.1883636504618 781.2417577584552 L 815.012921646451 781.1687274675032 L 814.8391039060996 781.0949077472629 L 814.6669278110367 781.0203059796446 L 814.4964105787283 780.944929624763 L 814.3275692607557 780.8687862201906 L 814.1604207411098 780.7918833802046 L 813.9949817345034 780.7142287950248 L 813.8312687846992 780.6358302300451 L 813.6692982628559 780.5566955250567 L 813.5090863658907 780.476832593464 L 813.3506491148595 780.3962494214936 L 813.1940023533557 780.3149540673958 L 813.0391617459248 780.2329546606379 L 812.8861427764984 780.1502594010925 L 812.7349607468462 780.0668765582167 L 812.5856307750449 779.982814470225 L 812.4381677939674 779.8980815432564 L 812.2925865497889 779.8126862505329 L 812.1489016005124 779.7266371315126 L 812.0071273145132 779.6399427910358 L 811.8672778691018 779.5526118984641 L 811.7293672491061 779.4646531868141 L 811.593409245473 779.3760754518837 L 811.45941745389 779.2868875513725 L 811.3274052734242 779.1970984039964 L 811.1973859051839 779.106716988595 L 811.0693723509974 779.0157523432348 L 810.9433774121135 778.9242135643045 L 810.8194136879212 778.8321098056056 L 810.6974935746895 778.7394502774372 L 810.577629264328 778.646244245675 L 810.4598327431681 778.5525010308445 L 810.3441157907637 778.4582300071891 L 810.2304899787134 778.3634406017325 L 810.1189666695041 778.2681422933362 L 810.0095570153734 778.1723446117518 L 809.9022719571957 778.0760571366676 L 809.7971222233874 777.9792894967508 L 809.6941183288344 777.8820513686846 L 809.5932705738401 777.7843524762011 L 809.494589043096 777.686202589108 L 809.398083604673 777.5876115223122 L 809.3037639090346 777.4885891348381 L 809.2116393880716 777.3891453288421 L 809.1217192541594 777.289290048622 L 809.0340124992365 777.1890332796223 L 808.9485278939052 777.0883850474366 L 808.8652739865549 776.9873554168042 L 808.7842591025069 776.885954490604 L 808.7054913431821 776.784192408844 L 808.6289785852908 776.6820793476477 L 808.554728480045 776.5796255182361 L 808.4827484523935 776.4768411659066 L 808.4130457002788 776.3737365690091 L 808.3456271939183 776.2703220379171 L 808.2804996751063 776.1666079139976 L 808.2176696565404 776.0626045685767 L 808.1571434211702 775.958322401902 L 808.0989270215687 775.8537718421036 L 808.0430262793275 775.7489633441501 L 807.989446784474 775.6439073888039 L 807.9381938949132 775.5386144815733 L 807.8892727358914 775.433095151661 L 807.8426881994835 775.3273599509122 L 807.7984449441046 775.2214194527587 L 807.7565473940432 775.1152842511623 L 807.7169997390195 775.0089649595545 L 807.6798059337658 774.902472209776 L 807.644969697632 774.7958166510128 L 807.6124945142122 774.6890089487323 L 807.5823836309983 774.5820597836154 L 807.554640059053 774.4749798504895 L 807.5292665727106 774.3677798572587 L 807.5062657092986 774.2604705238331 L 807.4856397688842 774.1530625810566 L 807.467390814044 774.0455667696339 L 807.4515206696586 773.9379938390566 L 807.4380309227291 773.830354546528 L 807.4269229222189 773.7226596558879 L 807.4181977789189 773.6149199365354 L 807.4118563653359 773.5071461623528 L 807.4078993156063 773.3993491106276 L 807.4063270254316 773.2915395609751 L 807.4071396520395 773.1837282942606 L 807.4103371141681 773.0759260915208 L 807.4159190920738 772.9681437328862 L 807.4238850275634 772.8603919965028 L 807.4342341240501 772.7526816574544 L 807.446965346633 772.6450234866853 L 807.4620774222001 772.5374282499228 L 807.4795688395567 772.4299067066008 L 807.4994378495755 772.3224696087841 L 807.5216824653721 772.215127700093 L 807.5463004625036 772.107891714629 L 807.5732893791906 772.000772375901 L 807.6026465165639 771.8937803957539 L 807.6343689389345 771.7869264732963 L 807.6684534740864 771.6802212938316 L 807.7048967135944 771.5736755277887 L 807.7436950131652 771.4672998296555 L 807.7848444930008 771.3611048369132 L 807.8283410381879 771.2551011689725 L 807.8741802991079 771.1492994261118 L 807.9223576918731 771.0437101884174 L 807.9728683987844 770.938344014725 L 808.025707368813 770.833211441564 L 808.0808693181061 770.7283229821044 L 808.1383487305147 770.6236891251044 L 808.1981398581455 770.5193203338629 L 808.2602367219354 770.4152270451716 L 808.3246331122499 770.3114196682731 L 808.3913225895037 770.2079085838182 L 808.4602984848045 770.1047041428293 L 808.5315539006203 770.0018166656644 L 808.605081711469 769.8992564409855 L 808.6808745646306 769.7970337247295 L 808.758924880883 769.6951587390831 L 808.8392248552598 769.5936416714599 L 808.9217664578301 769.4924926734818 L 809.0065414345029 769.3917218599646 L 809.0935413078508 769.2913393079056 L 809.1827573779592 769.1913550554762 L 809.2741807232953 769.0917791010185 L 809.3678022016009 768.9926214020448 L 809.4636124508058 768.8938918742426 L 809.5616018899655 768.7956003904823 L 809.6617607202173 768.6977567798303 L 809.7640789257619 768.6003708265662 L 809.8685462748637 768.5034522692041 L 809.9751523208752 768.4070107995191 L 810.0838864032804 768.3110560615777 L 810.1947376487617 768.2155976507737 L 810.3076949722871 768.1206451128687 L 810.4227470782182 768.0262079430374 L 810.5398824614404 767.932295584918 L 810.6590894085127 767.8389174296681 L 810.7803559988402 767.7460828150254 L 810.9036701058646 767.653801024374 L 811.029019398278 767.562081285816 L 811.1563913412557 767.470932771249 L 811.2857731977095 767.3803645954483 L 811.4171520295616 767.2903858151561 L 811.5505146990382 767.2010054281754 L 811.6858478699836 767.1122323724707 L 811.8231380091935 767.024075525273 L 811.9623713877683 766.9365437021942 L 812.1035340824861 766.8496456563432 L 812.2466119771952 766.7633900774523 L 812.3915907642254 766.6777855910077 L 812.5384559458187 766.5928407573865 L 812.6871928355794 766.5085640710013 L 812.8377865599423 766.4249639594506 L 812.9902220596607 766.3420487826756 L 813.1444840913115 766.2598268321254 L 813.3005572288201 766.1783063299262 L 813.4584258650029 766.0974954280603 L 813.6180742131279 766.0174022075505 L 813.779486308493 765.9380346776522 L 813.9426460100235 765.8594007750522 L 814.107537001885 765.7815083630754 L 814.274142795116 765.7043652308979 L 814.4424467292757 765.6279790927687 L 814.612431974111 765.5523575872379 L 814.7840815312393 765.4775082763931 L 814.9573782358477 765.4034386451029 L 815.1323047584102 765.3301561002689 L 815.3088436064204 765.2576679700844 L 815.4869771261405 765.1859815033021 L 815.666687504367 765.1151038685088 L 815.8479567702119 765.0450421534089 L 816.0307667968996 764.9758033641157 L 816.2150993035798 764.9073944244502 L 816.4009358571556 764.8398221752497 L 816.5882578741262 764.7730933736824 L 816.777046622446 764.7072146925732 L 816.9672832233979 764.642192719735 L 817.15894865348 764.5780339573113 L 817.3520237463091 764.5147448211244 L 817.5464891945368 764.4523316400355 L 817.7423255517804 764.3908006553106 L 817.9395132345671 764.330158019997 L 818.1380325242934 764.2704097983076 L 818.3378635691954 764.2115619650147 L 818.5389863863352 764.1536204048527 L 818.7413808635988 764.0965909119293 L 818.9450267617071 764.0404791891464 L 819.1499037162399 763.9852908476292 L 819.3559912396726 763.9310314061662 L 819.5632687234245 763.8777062906561 L 819.77171543992 763.8253208335661 L 819.9813105446611 763.7738802733984 L 820.1920330783121 763.7233897541659 L 820.4038619687951 763.6738543248784 L 820.6167760333977 763.6252789390379 L 820.8307539808909 763.5776684541423 L 821.0457744136581 763.5310276312003 L 821.2618158298353 763.4853611342556 L 821.4788566254608 763.4406735299196 L 821.6968750966362 763.3969692869156 L 821.9158494416957 763.3542527756315 L 822.1357577633876 763.3125282676826 L 822.3565780710627 763.2717999354853 L 822.5782882828744 763.2320718518387 L 822.8008662279863 763.1933479895181 L 823.0242896487892 763.1556322208772 L 823.2485362031274 763.1189283174618 L 823.4735834665323 763.0832399496315 L 823.699408934465 763.0485706861934 L 823.9259900245671 763.0149239940448 L 824.1533040789183 762.9823032378271 L 824.3813283663023 762.9507116795885 L 824.6100400844808 762.9201524784586 L 824.8394163624724 762.8906286903322 L 825.0694342628406 762.8621432675633 L 825.3000707839867 762.8346990586705 L 825.5313028624511 762.8082988080517 L 825.7631073752184 762.7829451557103 L 825.9954611420308 762.7586406369901 L 826.228340927705 762.7353876823228 L 826.4617234444565 762.7131886169846 L 826.6955853542283 762.6920456608633 L 826.9299032710242 762.6719609282371 L 827.1646537632477 762.6529364275625 L 827.3998133560452 762.6349740612736 L 827.6353585336536 762.6180756255922 L 827.8712657417512 762.6022428103477 L 828.107511389814 762.5874771988084 L 828.3440718534738 762.5737802675231 L 828.5809234768816 762.5611533861738 L 828.8180425750722 762.5495978174379 L 829.0554054363337 762.5391147168626 L 829.2929883245774 762.5297051327493 L 829.5307674817127 762.5213700060486 L 829.7687191300221 762.5141101702662 L 830.0068194745388 762.5079263513795 L 830.245044705427 762.5028191677656 L 830.483371000362 762.4987891301381 L 830.721774526913 762.4958366414977 L 830.9602314449259 762.4939619970909 L 831.1987179089077 762.4931653843803 L 831.4372100704107 762.4934468830266 L 831.6756840804176 762.4948064648804 L 831.914116091726 762.4972439939843 L 832.1524822613335 762.5007592265877 L 832.3907587528217 762.5053518111702 L 832.6289217387402 762.511021288477 L 832.8669474029888 762.5177670915652 L 833.1048119431993 762.5255885458602 L 833.3424915731159 762.534484869223 L 833.579962524974 762.5444551720286 L 833.8172010518759 762.5554984572553 L 834.0541834301669 762.5676136205835 L 834.2908859618065 762.5807994505071 L 834.5272849767388 762.595054628454 L 834.7633568352594 762.6103777289185 L 834.999077930379 762.626767219603 L 835.2344246901847 762.6442214615724 L 835.4693735801966 762.6627387094169 L 835.7039011057213 762.682317111427 L 835.9379838142021 762.7029547097791 L 836.1715982975628 762.7246494407304 L 836.4047211945499 762.7473991348259 L 836.637329193068 762.7712015171152 L 836.8693990325111 762.7960542073798 L 837.1009075060886 762.8219547203715 L 837.331831463146 762.8489004660605 L 837.5621478114803 762.8768887498949 L 837.7918335196482 762.9059167730693 L 838.0208656192706 762.9359816328057 L 838.2492212073282 762.9670803226433 L 838.4768774484527 762.9992097327389 L 838.7038115772094 763.0323666501783 L 838.9300009003748 763.0665477592976 L 839.1554227992051 763.1017496420139 L 839.380054731698 763.1379687781687 L 839.6038742348477 763.1752015458784 L 839.8268589268903 763.2134442218971 L 840.0489865095423 763.2526929819894 L 840.2702347702308 763.2929439013118 L 840.4905815843139 763.3341929548059 L 840.7100049172938 763.3764360176008 L 840.9284828270202 763.4196688654253 L 841.1459934658841 763.4638871750308 L 841.3625150830029 763.5090865246231 L 841.5780260263953 763.5552623943048 L 841.7925047451465 763.6024101665276 L 842.0059297915635 763.6505251265536 L 842.2182798233194 763.6996024629267 L 842.4295336055882 763.7496372679543 L 842.6396700131673 763.8006245381976 L 842.8486680325914 763.8525591749719 L 843.0565067642326 763.9054359848569 L 843.2631654243909 763.9592496802157 L 843.4686233473726 764.0139948797238 L 843.6728599875565 764.0696661089064 L 843.8758549214489 764.1262578006874 L 844.0775878497254 764.1837642959446 L 844.2780385992615 764.2421798440763 L 844.4771871251492 764.3014986035766 L 844.6750135127018 764.3617146426188 L 844.8714979794454 764.4228219396493 L 845.0666208770972 764.4848143839893 L 845.2603626935299 764.547685776446 L 845.4527040547233 764.6114298299324 L 845.6436257267018 764.6760401700965 L 845.8331086174569 764.741510335958 L 846.0211337788578 764.8078337805549 L 846.2076824085449 764.875003871598 L 846.3927358518106 764.9430138921342 L 846.5762756034649 765.0118570412181 L 846.7582833096856 765.0815264345922 L 846.9387407698537 765.1520151053752 L 847.1176299383735 765.2233160047588 L 847.2949329264773 765.2954220027123 L 847.4706320040141 765.3683258886962 L 847.6447096012224 765.4420203723826 L 847.8171483104877 765.5164980843844 L 847.9879308880827 765.5917515769926 L 848.157040255892 765.6677733249206 L 848.3244595031196 765.7445557260571 L 848.4901718879804 765.8220911022258 L 848.6541608393741 765.9003716999539 L 848.8164099585421 765.9793896912466 L 848.9769030207077 766.0591371743707 L 849.1356239766985 766.1396061746444 L 849.2925569545511 766.2207886452348 L 849.4476862610984 766.3026764679623 L 849.6009963835393 766.3852614541131 L 849.752471990989 766.4685353452571 L 849.9020979360131 766.5524898140749 L 850.0498592561419 766.6371164651894 L 850.1957411753664 766.722406836006 L 850.3397291056162 766.8083523975588 L 850.4818086482185 766.8949445553632 L 850.6219655953372 766.9821746502755 L 850.7601859313944 767.0700339593591 L 850.8964558344718 767.1585136967561 L 851.0307616776926 767.2476050145667 L 851.1630900305844 767.3372990037332 L 851.293427660422 767.4275866949314 L 851.4217615335514 767.5184590594675 L 851.548078816692 767.6099070101809 L 851.6723668782207 767.7019214023526 L 851.7946132894351 767.7944930346199 L 851.9148058257958 767.887612649897 L 852.0329324681495 767.9812709362999 L 852.1489814039302 768.0754585280779 L 852.2629410283411 768.1701660065503 L 852.3747999455147 768.2653839010484 L 852.4845469696526 768.3611026898618 L 852.5921711261437 768.4573128011916 L 852.6976616526622 768.5540046141068 L 852.8010080002432 768.6511684595066 L 852.9021998343381 768.7487946210875 L 853.001227035848 768.8468733363147 L 853.098079702135 768.9453947973984 L 853.1927481480134 769.0443491522745 L 853.2852229067173 769.1437265055902 L 853.3754947308481 769.2435169196928 L 853.4635545932985 769.3437104156241 L 853.5493936881555 769.444296974118 L 853.6330034315815 769.5452665366023 L 853.7143754626715 769.6466090062053 L 853.7935016442904 769.748314248764 L 853.8703740638858 769.8503720938393 L 853.94498503428 769.9527723357315 L 854.0173270944381 770.0555047345019 L 854.0873930102142 770.1585590169963 L 854.1551757750752 770.2619248778719 L 854.2206686108012 770.3655919806292 L 854.283864968163 770.4695499586442 L 854.3447585275778 770.5737884162056 L 854.4033431997402 770.6782969295547 L 854.4596131262318 770.783065047927 L 854.513562680107 770.8880822945982 L 854.5651864664553 770.9933381679311 L 854.614479322941 771.098822142426 L 854.6614363203196 771.2045236697735 L 854.7060527629304 771.3104321799087 L 854.7483241891665 771.416537082069 L 854.7882463719203 771.5228277658528 L 854.825815319007 771.6292936022799 L 854.861027273563 771.7359239448556 L 854.8938787144223 771.8427081306345 L 854.9243663564682 771.9496354812869 L 854.9524871509619 772.056695304167 L 854.9782382858473 772.1638768933817 L 855.0016171860325 772.2711695308612 L 855.0226215136468 772.3785624874314 L 855.041249168275 772.486045023886 L 855.0574982871673 772.5936063920611 L 855.0713672454252 772.7012358359093 L 855.0828546561645 772.808922592576 L 855.0919593706536 772.9166558934753 L 855.0986804784288 773.0244249653667 L 855.1030173073848 773.1322190314331 L 855.1049694238424 773.2400273123576 M 855.1050904138983 807.5782957269181 L 855.1038979539946 807.6861062718348 L 855.1003206935286 807.7939060357867 L 855.0943589902233 807.9016842388875 L 855.086013440244 808.0094301034065 L 855.0752848781387 808.1171328548472 L 855.0621743767549 808.2247817230241 L 855.0466832471317 808.3323659431402 L 855.0288130383691 808.439874756863 L 855.008565537473 808.5472974134008 L 854.9859427691769 808.6546231705775 L 854.9609469957385 808.7618412959066 L 854.9335807167145 808.8689410676652 L 854.9038466687099 808.9759117759653 L 854.8717478251048 809.0827427238252 L 854.8372873957567 809.189423228239 L 854.8004688266799 809.2959426212453 L 854.7612957997005 809.4022902509935 L 854.7197722320888 809.5084554828094 L 854.6759022761668 809.614427700258 L 854.6296903188934 809.7201963062062 L 854.5811409814261 809.8257507238814 L 854.530259118658 809.9310803979296 L 854.4770498187331 810.0361747954714 L 854.4215184025369 810.1410234071546 L 854.3636704231649 810.2456157482055 L 854.3035116653667 810.3499413594769 L 854.2410481449681 810.4539898084947 L 854.1762861082689 810.5577506905008 L 854.1092320314189 810.6612136294935 L 854.03989261977 810.764368279265 L 853.9682748072053 810.8672043244362 L 853.8943857554466 810.9697114814885 L 853.8182328533376 811.0718794997915 L 853.7398237161048 811.1736981626285 L 853.6591661845966 811.2751572882181 L 853.5762683244992 811.3762467307322 L 853.4911384255294 811.476956381311 L 853.4037850006059 811.5772761690731 L 853.3142167849987 811.6771960621236 L 853.2224427354547 811.7767060685562 L 853.1284720293022 811.8757962374534 L 853.0323140635337 811.9744566598807 L 852.9339784538656 812.0726774698782 L 852.8334750337767 812.1704488454467 L 852.7308138535257 812.2677610095301 L 852.6260051791446 812.3646042309931 L 852.5190594914137 812.4609688255944 L 852.4099874848127 812.5568451569546 L 852.2988000664515 812.6522236375206 L 852.1855083549789 812.7470947295238 L 852.070123679472 812.8414489459341 L 851.9526575783019 812.9352768514084 L 851.833121797981 813.0285690632344 L 851.7115282919877 813.1213162522686 L 851.5878892195714 813.2135091438695 L 851.462216944536 813.3051385188246 L 851.3345240340045 813.3961952142729 L 851.2048232571615 813.4866701246208 L 851.0731275839765 813.5765542024525 L 850.9394501839073 813.6658384594351 L 850.8038044245824 813.7545139672175 L 850.6662038704645 813.8425718583226 L 850.5266622814946 813.9300033270348 L 850.3851936117153 814.0167996302802 L 850.2418120078755 814.1029520885005 L 850.0965318080164 814.1884520865218 L 849.9493675400365 814.2732910744157 L 849.8003339202404 814.357460568354 L 849.6494458518655 814.4409521514574 L 849.4967184235932 814.5237574746373 L 849.342166908039 814.6058682574301 L 849.1858067602254 814.6872762888263 L 849.0276536160371 814.7679734280904 L 848.8677232906568 814.8479516055758 L 848.7060317769837 814.9272028235312 L 848.5425952440344 815.0057191569011 L 848.3774300353258 815.0834927541175 L 848.2105526672415 815.1605158378856 L 848.041979827379 815.236780705961 L 847.8717283728819 815.3122797319205 L 847.6998153287537 815.3870053659246 L 847.5262578861557 815.4609501354719 L 847.3510734006874 815.5341066461473 L 847.1742793906513 815.6064675823604 L 846.9958935353013 815.6780257080783 L 846.815933673074 815.7487738675478 L 846.634417799806 815.8187049860119 L 846.451364066933 815.8878120704171 L 846.2667907796761 815.9560882101125 L 846.0807163952098 816.023526577541 L 845.8931595208179 816.0901204289222 L 845.7041389120312 816.1558631049263 L 845.5136734707534 816.2207480313406 L 845.3217822433695 816.2847687197265 L 845.1284844188427 816.3479187680684 L 844.9337993267942 816.4101918614142 L 844.737746435571 816.4715817725065 L 844.5403453502988 816.5320823624053 L 844.3416158109218 816.591687581102 L 844.141577690228 816.6503914681243 L 843.9402509918631 816.7081881531326 L 843.737655848329 816.7650718565066 L 843.5338125189712 816.8210368899231 L 843.328741387953 816.8760776569256 L 843.1224629622162 816.9301886534834 L 842.9149978694319 816.9833644685416 L 842.7063668559362 817.0355997845631 L 842.4965907846567 817.08688937806 L 842.2856906330258 817.1372281201157 L 842.0736874908827 817.1866109768976 L 841.860602558365 817.2350330101615 L 841.6464571437887 817.2824893777444 L 841.4312726615163 817.3289753340489 L 841.2150706298171 817.3744862305183 L 840.997872668714 817.4190175161008 L 840.779700497822 817.462564737705 L 840.5605759341764 817.5051235406448 L 840.340520890051 817.5466896690757 L 840.119557370767 817.5872589664194 L 839.897707472492 817.6268273757798 L 839.674993380031 817.6653909403492 L 839.4514373646075 817.702945803803 L 839.2270617816371 817.7394882106864 L 839.0018890684908 817.775014506789 L 838.7759417422524 817.8095211395108 L 838.5492423974662 817.8430046582175 L 838.3218137038778 817.8754617145848 L 838.0936784041669 817.9068890629344 L 837.8648593116736 817.9372835605575 L 837.6353793081163 817.9666421680296 L 837.4052613413043 817.9949619495146 L 837.1745284228422 818.0222400730578 L 836.9432036258298 818.0484738108697 L 836.711310082554 818.0736605395983 L 836.4788709821759 818.0977977405918 L 836.2459095684118 818.1208830001501 L 836.0124491372088 818.1429140097665 L 835.7785130344158 818.1638885663585 L 835.5441246534479 818.1838045724879 L 835.3093074329479 818.2026600365706 L 835.0740848544423 818.2204530730759 L 834.8384804399926 818.2371819027151 L 834.6025177498443 818.252844852619 L 834.3662203800696 818.2674403565057 L 834.1296119602086 818.2809669548371 L 833.892716150906 818.2934232949647 L 833.6555566415456 818.3048081312646 L 833.4181571478804 818.3151203252628 L 833.1805414096619 818.3243588457485 L 832.9427331882663 818.3325227688774 L 832.7047562643172 818.3396112782639 L 832.4666344353088 818.3456236650629 L 832.2283915132257 818.350559328041 L 831.9900513221613 818.3544177736358 L 831.7516376959363 818.3571986160059 L 831.5131744757145 818.3589015770696 L 831.2746855076194 818.359526486532 L 831.0361946403489 818.3590732819027 L 830.797725722791 818.357542008502 L 830.5593026016388 818.3549328194558 L 830.3209491190058 818.3512459756807 L 830.0826891100414 818.3464818458584 L 829.8445464005482 818.3406409063975 L 829.6065448045986 818.3337237413873 L 829.3687081221537 818.3257310425385 L 829.1310601366838 818.3166636091142 L 828.8936246127893 818.3065223478503 L 828.6564252938246 818.2953082728645 L 828.4194858995241 818.283022505555 L 828.1828301236299 818.2696662744881 L 827.946481631522 818.255240915276 L 827.710464057853 818.2397478704424 L 827.4748010041834 818.223188689279 L 827.2395160366223 818.2055650276901 L 827.0046326834703 818.1868786480271 L 826.770174432867 818.1671314189124 L 826.5361647304421 818.1463253150526 L 826.3026269769707 818.1244624170406 L 826.0695845260339 818.101544911148 L 825.8370606816821 818.0775750891064 L 825.6050786961063 818.052555347878 L 825.3736617673117 818.0264881894159 L 825.1428330367982 817.9993762204143 L 824.9126155872466 817.9712221520477 L 824.68303244021 817.9420287996993 L 824.4541065538117 817.91179908268 L 824.2258608204497 817.8805360239363 L 823.9983180645071 817.8482427497482 L 823.7715010400698 817.814922489416 L 823.5454324286513 817.7805785749381 L 823.3201348369244 817.7452144406772 L 823.0956307944602 817.7088336230173 L 822.8719427514764 817.67143976001 L 822.6490930765905 817.6330365910102 L 822.4271040545843 817.593627956303 L 822.2059978841753 817.5532177967189 L 821.9857966757959 817.5118101532402 L 821.7665224493837 817.4694091665967 L 821.5481971321785 817.426019076852 L 821.3308425565301 817.3816442229786 L 821.1144804577151 817.336289042425 L 820.8991324717628 817.2899580706716 L 820.6848201332925 817.2426559407767 L 820.4715648733594 817.1943873829141 L 820.259388017312 817.1451572238993 L 820.0483107826586 817.0949703867071 L 819.8383542769473 817.0438318899795 L 819.6295394956534 816.9917468475235 L 819.421887320081 816.9387204678 L 819.2154185152749 816.8847580534027 L 819.0101537279432 816.8298650005281 L 818.8061134843938 816.7740467984357 L 818.6033181884808 816.7173090288994 L 818.401788119565 816.6596573656486 L 818.2015434304853 816.6010975738018 L 818.0026041455437 816.5416355092892 L 817.804990158503 816.4812771182678 L 817.6087212305971 816.4200284365264 L 817.4138169885553 816.3578955888821 L 817.2202969226394 816.294884788568 L 817.0281803846946 816.2310023366115 L 816.8374865862148 816.1662546212045 L 816.6482345964208 816.1006481170648 L 816.4604433403539 816.034189384788 L 816.2741315969832 815.9668850701919 L 816.0893179973278 815.898741903652 L 815.9060210225938 815.8297666994281 L 815.7242590023257 815.7599663549831 L 815.544050112574 815.6893478502934 L 815.3654123740778 815.6179182471506 L 815.1883636504618 815.5456846884553 L 815.012921646451 815.4726543975033 L 814.8391039060996 815.398834677263 L 814.6669278110367 815.3242329096447 L 814.4964105787283 815.248856554763 L 814.3275692607557 815.1727131501907 L 814.1604207411098 815.0958103102047 L 813.9949817345034 815.0181557250249 L 813.8312687846992 814.9397571600452 L 813.6692982628559 814.8606224550568 L 813.5090863658907 814.7807595234641 L 813.3506491148595 814.7001763514937 L 813.1940023533557 814.6188809973959 L 813.0391617459248 814.536881590638 L 812.8861427764984 814.4541863310926 L 812.7349607468462 814.3708034882168 L 812.5856307750449 814.2867414002251 L 812.4381677939674 814.2020084732565 L 812.2925865497889 814.116613180533 L 812.1489016005124 814.0305640615127 L 812.0071273145132 813.9438697210359 L 811.8672778691018 813.8565388284642 L 811.7293672491061 813.7685801168142 L 811.593409245473 813.6800023818838 L 811.45941745389 813.5908144813726 L 811.3274052734242 813.5010253339965 L 811.1973859051839 813.4106439185952 L 811.0693723509974 813.3196792732349 L 810.9433774121135 813.2281404943046 L 810.8194136879212 813.1360367356057 L 810.6974935746895 813.0433772074373 L 810.577629264328 812.9501711756751 L 810.4598327431681 812.8564279608446 L 810.3441157907637 812.7621569371892 L 810.2304899787134 812.6673675317326 L 810.1189666695041 812.5720692233363 L 810.0095570153734 812.4762715417519 L 809.9022719571957 812.3799840666677 L 809.7971222233874 812.2832164267509 L 809.6941183288344 812.1859782986847 L 809.5932705738401 812.0882794062012 L 809.494589043096 811.9901295191081 L 809.398083604673 811.8915384523123 L 809.3037639090346 811.7925160648382 L 809.2116393880716 811.6930722588422 L 809.1217192541594 811.5932169786221 L 809.0340124992365 811.4929602096224 L 808.9485278939052 811.3923119774367 L 808.8652739865549 811.2912823468043 L 808.7842591025069 811.1898814206041 L 808.7054913431821 811.0881193388441 L 808.6289785852908 810.9860062776478 L 808.554728480045 810.8835524482362 L 808.4827484523935 810.7807680959068 L 808.4130457002788 810.6776634990092 L 808.3456271939183 810.5742489679172 L 808.2804996751063 810.4705348439977 L 808.2176696565404 810.3665314985768 L 808.1571434211702 810.2622493319021 L 808.0989270215687 810.1576987721037 L 808.0430262793275 810.0528902741502 L 807.989446784474 809.947834318804 L 807.9381938949132 809.8425414115734 L 807.8892727358914 809.737022081661 L 807.8426881994835 809.6312868809123 L 807.7984449441046 809.5253463827588 L 807.7565473940432 809.4192111811624 L 807.7169997390195 809.3128918895546 L 807.6798059337658 809.2063991397761 L 807.644969697632 809.099743581013 L 807.6124945142122 808.9929358787324 L 807.5823836309983 808.8859867136155 L 807.554640059053 808.7789067804896 L 807.5292665727106 808.6717067872588 L 807.5062657092986 808.5643974538332 L 807.4856397688842 808.4569895110567 L 807.467390814044 808.349493699634 L 807.4515206696586 808.2419207690567 L 807.4380309227291 808.1342814765281 L 807.4269229222189 808.026586585888 L 807.4181977789189 807.9188468665355 L 807.4118563653359 807.8110730923529 L 807.4078993156063 807.7032760406277 L 807.4063270254316 807.5954664909752" stroke-miterlimit="10" stroke-width="2.7769845610000004" stroke-dasharray=""/></g><g><g/><text fill="black" stroke="none" font-family="sans-serif" font-size="11pt" font-style="normal" font-weight="normal" text-decoration="normal" x="799.8777486496093" y="756.008058908818" text-anchor="start" dominant-baseline="alphabetic" xml:space="preserve">Database</text></g></g><g><path fill="white" stroke="black" paint-order="fill stroke markers" d=" M 73.50841485 182.64242307881818 L 89.84361814999998 182.64242307881818 L 89.84361814999998 682.499644058818 L 73.50841485 682.499644058818 L 73.50841485 182.64242307881818" stroke-miterlimit="10" stroke-width="1.3612669416666667" stroke-dasharray=""/><path fill="white" stroke="black" paint-order="fill stroke markers" d=" M 321.63601758313797 182.64242307881818 L 337.97122088313796 182.64242307881818 L 337.97122088313796 682.499644058818 L 321.63601758313797 682.499644058818 L 321.63601758313797 182.64242307881818" stroke-miterlimit="10" stroke-width="1.3612669416666667" stroke-dasharray=""/><path fill="white" stroke="black" paint-order="fill stroke markers" d=" M 599.1265506141275 228.3809923188182 L 615.4617539141276 228.3809923188182 L 615.4617539141276 682.499644058818 L 599.1265506141275 682.499644058818 L 599.1265506141275 228.3809923188182" stroke-miterlimit="10" stroke-width="1.3612669416666667" stroke-dasharray=""/><path fill="white" stroke="black" paint-order="fill stroke markers" d=" M 823.0880919458983 295.3553258488182 L 839.4232952458984 295.3553258488182 L 839.4232952458984 386.8324643288182 L 823.0880919458983 386.8324643288182 L 823.0880919458983 295.3553258488182" stroke-miterlimit="10" stroke-width="1.3612669416666667" stroke-dasharray=""/><g><text fill="black" stroke="none" font-family="sans-serif" font-size="16pt" font-style="normal" font-weight="normal" text-decoration="normal" x="345.8996124267578" y="24.651306798181814" text-anchor="start" dominant-baseline="alphabetic" xml:space="preserve">Xemchititthitb</text></g><g><rect fill="white" stroke="none" x="109.17360872166661" y="161.4066587888182" width="193.1324182898047" height="21.23576429"/><text fill="black" stroke="none" font-family="sans-serif" font-size="11pt" font-style="normal" font-weight="normal" text-decoration="normal" x="111.62388921666661" y="176.10834175881817" text-anchor="start" dominant-baseline="alphabetic" xml:space="preserve">Chnthitbcnxemchitit</text></g><g><path fill="none" stroke="black" paint-order="fill stroke markers" d=" M 89.84361814999998 182.64242307881818 L 308.1867001994713 182.64242307881818" stroke-miterlimit="10" stroke-width="1.3612669416666667" stroke-dasharray=""/><g transform="translate(321.63601758313797,182.64242307881818) translate(-321.63601758313797,-182.64242307881818)"><path fill="black" stroke="none" paint-order="stroke fill markers" d=" M 308.0233481664713 175.83608837048484 L 321.63601758313797 182.64242307881818 L 308.0233481664713 189.44875778715152 Z"/></g></g><g><rect fill="white" stroke="none" x="391.1236754440624" y="207.1452280288182" width="154.85042060914063" height="21.23576429"/><text fill="black" stroke="none" font-family="sans-serif" font-size="11pt" font-style="normal" font-weight="normal" text-decoration="normal" x="393.57395593906244" y="221.84691099881817" text-anchor="start" dominant-baseline="alphabetic" xml:space="preserve">GiIDthitbcnxem</text></g><g><path fill="none" stroke="black" paint-order="fill stroke markers" d=" M 337.97122088313796 228.3809923188182 L 585.6772332304608 228.3809923188182" stroke-miterlimit="10" stroke-width="1.3612669416666667" stroke-dasharray=""/><g transform="translate(599.1265506141275,228.3809923188182) translate(-599.1265506141275,-228.3809923188182)"><path fill="black" stroke="none" paint-order="stroke fill markers" d=" M 585.5138811974608 221.57465761048485 L 599.1265506141275 228.3809923188182 L 585.5138811974608 235.18732702715153 Z"/></g></g><g><rect fill="white" stroke="none" x="634.7917444857943" y="252.88379726881823" width="103.49751533570313" height="21.23576429"/><text fill="black" stroke="none" font-family="sans-serif" font-size="11pt" font-style="normal" font-weight="normal" text-decoration="normal" x="637.2420249807943" y="267.5854802388182" text-anchor="start" dominant-baseline="alphabetic" xml:space="preserve">Kimtraquyn</text></g><g><path fill="none" stroke="black" paint-order="fill stroke markers" d=" M 615.4617539141276 274.1195615588182 L 680.8025671141276 274.1195615588182 L 680.8025671141276 295.3553258488182 L 628.9110712977943 295.3553258488182" stroke-miterlimit="10" stroke-width="1.3612669416666667" stroke-dasharray=""/><g transform="translate(615.4617539141276,295.3553258488182) translate(-615.4617539141276,-295.3553258488182)"><path fill="black" stroke="none" paint-order="stroke fill markers" d=" M 629.0744233307943 288.5489911404849 L 615.4617539141276 295.3553258488182 L 629.0744233307943 302.16166055715155 Z"/></g></g><g><rect fill="white" stroke="none" x="634.7917444857942" y="319.8581307988182" width="168.9663568884375" height="21.23576429"/><text fill="black" stroke="none" font-family="sans-serif" font-size="11pt" font-style="normal" font-weight="normal" text-decoration="normal" x="637.2420249807942" y="334.5598137688182" text-anchor="start" dominant-baseline="alphabetic" xml:space="preserve">Truyvnthngtinthitb</text></g><g><path fill="none" stroke="black" paint-order="fill stroke markers" d=" M 615.4617539141276 341.0938950888182 L 809.6387745622317 341.0938950888182" stroke-miterlimit="10" stroke-width="1.3612669416666667" stroke-dasharray=""/><g transform="translate(823.0880919458983,341.0938950888182) translate(-823.0880919458983,-341.0938950888182)"><path fill="black" stroke="none" paint-order="stroke fill markers" d=" M 809.4754225292317 334.2875603804849 L 823.0880919458983 341.0938950888182 L 809.4754225292317 347.90022979715155 Z"/></g></g><g><rect fill="white" stroke="none" x="649.4696238192903" y="365.5967000388182" width="139.61059822144531" height="21.23576429"/><text fill="black" stroke="none" font-family="sans-serif" font-size="11pt" font-style="normal" font-weight="normal" text-decoration="normal" x="651.9199043142903" y="380.2983830088182" text-anchor="start" dominant-baseline="alphabetic" xml:space="preserve">Trvchititthitb</text></g><g><path fill="none" stroke="black" paint-order="fill stroke markers" d=" M 823.0880919458983 386.8324643288182 L 628.9110712977943 386.8324643288182" stroke-miterlimit="10" stroke-width="1.3612669416666667" stroke-dasharray="6.53408132"/><g transform="translate(615.4617539141276,386.8324643288182) translate(-615.4617539141276,-386.8324643288182)"><path fill="black" stroke="none" paint-order="stroke fill markers" d=" M 629.0744233307943 380.0261296204849 L 615.4617539141276 386.8324643288182 L 629.0744233307943 393.63879903715156 Z"/></g></g><g><rect fill="white" stroke="none" x="368.5861159347851" y="455.4403181888182" width="199.92553962769531" height="21.23576429"/><text fill="black" stroke="none" font-family="sans-serif" font-size="11pt" font-style="normal" font-weight="normal" text-decoration="normal" x="371.0363964297851" y="470.1420011588182" text-anchor="start" dominant-baseline="alphabetic" xml:space="preserve">Trvthngtinchititthitb</text></g><g><path fill="none" stroke="black" paint-order="fill stroke markers" d=" M 599.1265506141275 476.6760824788182 L 351.4205382668046 476.6760824788182" stroke-miterlimit="10" stroke-width="1.3612669416666667" stroke-dasharray="6.53408132"/><g transform="translate(337.97122088313796,476.6760824788182) translate(-337.97122088313796,-476.6760824788182)"><path fill="black" stroke="none" paint-order="stroke fill markers" d=" M 351.58389029980464 469.8697477704849 L 337.97122088313796 476.6760824788182 L 351.58389029980464 483.48241718715155 Z"/></g></g><g><rect fill="white" stroke="none" x="131.58233827488928" y="501.17888742881814" width="148.31495918335938" height="21.23576429"/><text fill="black" stroke="none" font-family="sans-serif" font-size="11pt" font-style="normal" font-weight="normal" text-decoration="normal" x="134.03261876988927" y="515.8805703988181" text-anchor="start" dominant-baseline="alphabetic" xml:space="preserve">Hinthchititthitb</text></g><g><path fill="none" stroke="black" paint-order="fill stroke markers" d=" M 321.63601758313797 522.4146517188182 L 103.29293553366665 522.4146517188182" stroke-miterlimit="10" stroke-width="1.3612669416666667" stroke-dasharray="6.53408132"/><g transform="translate(89.84361814999998,522.4146517188182) translate(-89.84361814999998,-522.4146517188182)"><path fill="black" stroke="none" paint-order="stroke fill markers" d=" M 103.45628756666665 515.6083170104848 L 89.84361814999998 522.4146517188182 L 103.45628756666665 529.2209864271515 Z"/></g></g><g><rect fill="white" stroke="none" x="357.3012114548046" y="591.022505578818" width="222.49534858765625" height="21.23576429"/><text fill="black" stroke="none" font-family="sans-serif" font-size="11pt" font-style="normal" font-weight="normal" text-decoration="normal" x="359.75149194980463" y="605.724188548818" text-anchor="start" dominant-baseline="alphabetic" xml:space="preserve">Thngbokhngtmthythitb</text></g><g><path fill="none" stroke="black" paint-order="fill stroke markers" d=" M 599.1265506141275 612.258269868818 L 351.4205382668046 612.258269868818" stroke-miterlimit="10" stroke-width="1.3612669416666667" stroke-dasharray="6.53408132"/><g transform="translate(337.97122088313796,612.258269868818) translate(-337.97122088313796,-612.258269868818)"><path fill="black" stroke="none" paint-order="stroke fill markers" d=" M 351.58389029980464 605.4519351604847 L 337.97122088313796 612.258269868818 L 351.58389029980464 619.0646045771514 Z"/></g></g><g><rect fill="white" stroke="none" x="134.42055696385412" y="636.761074818818" width="142.6385218054297" height="21.23576429"/><text fill="black" stroke="none" font-family="sans-serif" font-size="11pt" font-style="normal" font-weight="normal" text-decoration="normal" x="136.8708374588541" y="651.462757788818" text-anchor="start" dominant-baseline="alphabetic" xml:space="preserve">Hinththngboli</text></g><g><path fill="none" stroke="black" paint-order="fill stroke markers" d=" M 321.63601758313797 657.996839108818 L 103.29293553366665 657.996839108818" stroke-miterlimit="10" stroke-width="1.3612669416666667" stroke-dasharray="6.53408132"/><g transform="translate(89.84361814999998,657.996839108818) translate(-89.84361814999998,-657.996839108818)"><path fill="black" stroke="none" paint-order="stroke fill markers" d=" M 103.45628756666665 651.1905044004847 L 89.84361814999998 657.996839108818 L 103.45628756666665 664.8031738171513 Z"/></g></g><g><g/><path fill="none" stroke="black" paint-order="fill stroke markers" d=" M 16.33520329999999 411.3352692788182 L 664.4673638141276 411.3352692788182 L 664.4673638141276 682.499644058818 L 16.33520329999999 682.499644058818 L 16.33520329999999 411.3352692788182 Z" stroke-miterlimit="10" stroke-width="2.3336004714285714" stroke-dasharray=""/><path fill="white" stroke="black" paint-order="fill stroke markers" d=" M 16.33520329999999 411.3352692788182 L 16.33520329999999 430.9375132388182 L 62.6944068970703 430.9375132388182 L 72.4955288770703 421.1363912588182 L 72.4955288770703 411.3352692788182 L 16.33520329999999 411.3352692788182" stroke-miterlimit="10" stroke-width="2.3336004714285714" stroke-dasharray=""/><text fill="black" stroke="none" font-family="sans-serif" font-size="8.8pt" font-style="normal" font-weight="bold" text-decoration="normal" x="32.67040659999999" y="424.4034319188182" text-anchor="start" dominant-baseline="alphabetic" xml:space="preserve">alt</text><g><rect fill="white" stroke="none" x="86.3804516820703" y="412.6420855428182" width="70.73279060425781" height="16.988611432000003"/></g><text fill="black" stroke="none" font-family="sans-serif" font-size="8.8pt" font-style="normal" font-weight="bold" text-decoration="normal" x="88.8307321770703" y="424.4034319188182" text-anchor="start" dominant-baseline="alphabetic" xml:space="preserve">[Cdliu]</text><g><path fill="none" stroke="black" paint-order="fill stroke markers" d=" M 16.33520329999999 546.9174566688181 L 664.4673638141276 546.9174566688181" stroke-miterlimit="10" stroke-width="2.3336004714285714" stroke-dasharray="4.083800825"/></g><g/><g><rect fill="white" stroke="none" x="86.3804516820703" y="548.224272932818" width="109.17599739136719" height="16.988611432000003"/></g><text fill="black" stroke="none" font-family="sans-serif" font-size="8.8pt" font-style="normal" font-weight="bold" text-decoration="normal" x="88.8307321770703" y="559.9856193088181" text-anchor="start" dominant-baseline="alphabetic" xml:space="preserve">[Khngcdliu]</text></g><g/></g><g/><g/><g/><g/></g></svg>