<svg xmlns="http://www.w3.org/2000/svg" xmlns:xlink="http://www.w3.org/1999/xlink" version="1.1" width="882.7522559230468" height="784.5946646838181"><desc>title%20Chi%20ti%E1%BA%BFt%20t%E1%BA%A7ng%0A%0Abottomparticipants%20%0A%0Aactor%20Landlord%0Aentity%20Client%0Aentity%20Backend%0Adatabase%20Database%0A%0ALandlord%20-%3E%20Client%3A%20Ch%E1%BB%8Dn%20t%E1%BA%A7ng%20c%E1%BA%A7n%20xem%20chi%20ti%E1%BA%BFt%0Aactivate%20Landlord%0Aactivate%20Client%0A%0AClient%20-%3E%20Backend%3A%20G%E1%BB%ADi%20ID%20t%E1%BA%A7ng%20c%E1%BA%A7n%20l%E1%BA%A5y%20chi%20ti%E1%BA%BFt%0Aactivate%20Backend%0A%0ABackend%20-%3E%20Backend%3A%20Ki%E1%BB%83m%20tra%20quy%E1%BB%81n%0Aactivate%20Database%0ABackend%20-%3E%20Database%3A%20Truy%20v%E1%BA%A5n%20l%E1%BA%A5y%20chi%20ti%E1%BA%BFt%20t%E1%BA%A7ng%0A%0ADatabase%20--%3E%20Backend%3A%20Tr%E1%BA%A3%20v%E1%BB%81%20b%E1%BA%A3n%20ghi%20chi%20ti%E1%BA%BFt%20t%E1%BA%A7ng%0Adeactivate%20Database%0A%0Aalt%20C%C3%B3%20d%E1%BB%AF%20li%E1%BB%87u%0A%20%20%20%20Backend%20--%3E%20Client%3A%20Tr%E1%BA%A3%20v%E1%BB%81%20th%C3%B4ng%20tin%20chi%20ti%E1%BA%BFt%20t%E1%BA%A7ng%0A%20%20%20%20Client%20--%3E%20Landlord%3A%20Hi%E1%BB%83n%20th%E1%BB%8B%20th%C3%B4ng%20tin%20chi%20ti%E1%BA%BFt%20t%E1%BA%A7ng%0Aelse%20Kh%C3%B4ng%20c%C3%B3%20d%E1%BB%AF%20li%E1%BB%87u%0A%20%20%20%20Backend%20--%3E%20Client%3A%20Th%C3%B4ng%20b%C3%A1o%20kh%C3%B4ng%20t%C3%ACm%20th%E1%BA%A5y%20d%E1%BB%AF%20li%E1%BB%87u%0A%20%20%20%20deactivate%20Backend%0Aend%0A%0Adeactivate%20Client%0Adeactivate%20Landlord%0A</desc><defs/><g><g/><g/><g/><g/><g/><g/><g/><g/><g/><g/><g/><g/><g/><g/><g/><g/><g/><g/><g/><g/><g/><g/><g/><g/><g/><g/><g/><g/><g/><g/><g/><g/><g/><g/><g/><g/><g/><g/><g/><g/><g/><g/><g/><g/><g/><g/><g/><g/><g/><g/><g/><g/><g/><g/><g/><g/><g/><g/><g/><g/><g/><g/><g/><g/><g/><g/><g/><g/><g/><g/><g/><g/><g/><g/><g/><g/><g/><g/><g/><g/><g/><g/><g/><g/><g/><g/><g/><g/><g/><g/><g/><g/><g/><g/><g/><g/><g/><g/><g/><g/><g/><g/><g/><g/><g/><g/><g><rect fill="white" stroke="none" x="0" y="0" width="882" height="784"/></g><g/><g><path fill="none" stroke="black" paint-order="fill stroke markers" d=" M 81.67601649999999 128.73625218881818 L 81.67601649999999 693.9342863688181" stroke-miterlimit="10" stroke-width="1.3612669416666667" stroke-dasharray="12.565541,5.445067766666667"/><path fill="none" stroke="black" paint-order="fill stroke markers" d=" M 330.6411283884114 128.73625218881818 L 330.6411283884114 693.9342863688181" stroke-miterlimit="10" stroke-width="1.3612669416666667" stroke-dasharray="12.565541,5.445067766666667"/><path fill="none" stroke="black" paint-order="fill stroke markers" d=" M 609.7995233578775 128.73625218881818 L 609.7995233578775 693.9342863688181" stroke-miterlimit="10" stroke-width="1.3612669416666667" stroke-dasharray="12.565541,5.445067766666667"/><path fill="none" stroke="black" paint-order="fill stroke markers" d=" M 841.9142476730468 128.73625218881818 L 841.9142476730468 693.9342863688181" stroke-miterlimit="10" stroke-width="1.3612669416666667" stroke-dasharray="12.565541,5.445067766666667"/></g><g><g><path fill="white" stroke="black" paint-order="fill stroke markers" d=" M 90.987082381 59.63834222981819 A 9.311065881 9.311065881 0 1 1 90.98707772546743 59.62903116548903 M 81.67601649999999 68.9494081108182 L 81.67601649999999 88.8783561368182 M 69.914670124 76.13689756281819 L 93.43736287599998 76.13689756281819 M 81.67601649999999 88.8783561368182 L 69.914670124 107.50048789881819 M 81.67601649999999 88.8783561368182 L 93.43736287599998 107.50048789881819" stroke-miterlimit="10" stroke-width="2.7769845610000004" stroke-dasharray=""/></g><g><g/><text fill="black" stroke="none" font-family="sans-serif" font-size="11pt" font-style="normal" font-weight="normal" text-decoration="normal" x="53.1470400595703" y="123.83569119881818" text-anchor="start" dominant-baseline="alphabetic" xml:space="preserve">Landlord</text></g><g><path fill="white" stroke="black" paint-order="fill stroke markers" d=" M 354.8989052889114 79.63263106901819 A 24.2577769005 24.2577769005 0 1 1 354.898893160024 79.60837329616064 M 304.9948592074114 106.11199561831819 L 356.2873975694114 106.11199561831819" stroke-miterlimit="10" stroke-width="2.7769845610000004" stroke-dasharray=""/></g><g><g/><text fill="black" stroke="none" font-family="sans-serif" font-size="11pt" font-style="normal" font-weight="normal" text-decoration="normal" x="311.90097793675125" y="123.83569119881818" text-anchor="start" dominant-baseline="alphabetic" xml:space="preserve">Client</text></g><g><path fill="white" stroke="black" paint-order="fill stroke markers" d=" M 634.0573002583775 79.63263106901819 A 24.2577769005 24.2577769005 0 1 1 634.0572881294901 79.60837329616064 M 584.1532541768776 106.11199561831819 L 635.4457925388775 106.11199561831819" stroke-miterlimit="10" stroke-width="2.7769845610000004" stroke-dasharray=""/></g><g><g/><text fill="black" stroke="none" font-family="sans-serif" font-size="11pt" font-style="normal" font-weight="normal" text-decoration="normal" x="581.274125103483" y="123.83569119881818" text-anchor="start" dominant-baseline="alphabetic" xml:space="preserve">Backend</text></g><g><path fill="white" stroke="black" paint-order="fill stroke markers" d=" M 818.0648508550469 96.71925372081819 L 818.0648508550469 62.41532679081819 L 865.7636444910468 62.41532679081819 L 865.7636444910468 96.71925372081819" stroke-miterlimit="10" stroke-width="2.7769845610000004" stroke-dasharray=""/><path fill="white" stroke="black" paint-order="fill stroke markers" d=" M 865.7636444910468 61.22285694991819 L 865.7624520311431 61.33066749483481 L 865.758874770677 61.43846725878678 L 865.7529130673718 61.546245461887544 L 865.7445675173924 61.65399132640659 L 865.7338389552872 61.761694077847274 L 865.7207284539033 61.86934294602419 L 865.7052373242801 61.976927166140236 L 865.6873671155175 62.084435979863045 L 865.6671196146215 62.19185863640084 L 865.6444968463253 62.299184393577484 L 865.6195010728869 62.4064025189067 L 865.5921347938629 62.51350229066531 L 865.5624007458583 62.62047299896537 L 865.5303019022532 62.7273039468252 L 865.4958414729051 62.83398445123905 L 865.4590229038283 62.94050384424536 L 865.419849876849 63.04685147399361 L 865.3783263092372 63.15301670580944 L 865.3344563533152 63.25898892325815 L 865.2882443960418 63.364757529206294 L 865.2396950585745 63.47031194688142 L 865.1888131958065 63.575641620929716 L 865.1356038958816 63.68073601847156 L 865.0800724796853 63.78558463015478 L 865.0222245003133 63.89017697120557 L 864.9620657425152 63.994502582477 L 864.8996022221165 64.09855103149486 L 864.8348401854173 64.20231191350096 L 864.7677861085673 64.3057748524936 L 864.6984466969184 64.40892950226505 L 864.6268288843537 64.51176554743633 L 864.552939832595 64.61427270448858 L 864.476786930486 64.71644072279157 L 864.3983777932532 64.81825938562858 L 864.3177202617451 64.91971851121816 L 864.2348224016476 65.02080795373233 L 864.1496925026778 65.12151760431107 L 864.0623390777544 65.22183739207324 L 863.9727708621472 65.32175728512367 L 863.8809968126031 65.42126729155632 L 863.7870261064506 65.52035746045347 L 863.6908681406821 65.6190178828808 L 863.5925325310141 65.71723869287828 L 863.4920291109252 65.81501006844678 L 863.3893679306741 65.91232223253022 L 863.284559256293 66.00916545399325 L 863.1776135685622 66.10553004859446 L 863.0685415619612 66.20140637995469 L 862.9573541435999 66.29678486052069 L 862.8440624321273 66.39165595252388 L 862.7286777566204 66.48601016893414 L 862.6112116554503 66.57983807440844 L 862.4916758751294 66.67313028623443 L 862.3700823691362 66.76587747526865 L 862.2464432967198 66.85807036686953 L 862.1207710216844 66.94969974182469 L 861.993078111153 67.04075643727302 L 861.8633773343099 67.13123134762085 L 861.731681661125 67.22111542545254 L 861.5980042610557 67.3103996824352 L 861.4623585017308 67.39907519021754 L 861.324757947613 67.4871330813227 L 861.1852163586431 67.57456455003492 L 861.0437476888637 67.6613608532802 L 860.900366085024 67.74751331150055 L 860.7550858851648 67.83301330952195 L 860.607921617185 67.91785229741582 L 860.4588879973888 68.00202179135408 L 860.3079999290139 68.08551337445749 L 860.1552725007416 68.1683186976373 L 860.0007209851874 68.25042948043021 L 859.8443608373739 68.33183751182635 L 859.6862076931856 68.41253465109044 L 859.5262773678053 68.4925128285758 L 859.3645858541321 68.5717640465313 L 859.2011493211828 68.65028037990122 L 859.0359841124742 68.72805397711764 L 858.8691067443899 68.80507706088565 L 858.7005339045274 68.88134192896105 L 858.5302824500303 68.95684095492061 L 858.3583694059022 69.03156658892462 L 858.1848119633041 69.10551135847197 L 858.0096274778358 69.17866786914732 L 857.8328334677998 69.25102880536058 L 857.6544476124498 69.3225869310784 L 857.4744877502225 69.39333509054786 L 857.2929718769544 69.46326620901198 L 857.1099181440815 69.53237329341717 L 856.9253448568245 69.60064943311258 L 856.7392704723583 69.66808780054113 L 856.5517135979663 69.7346816519223 L 856.3626929891797 69.80042432792644 L 856.1722275479018 69.86530925434072 L 855.980336320518 69.92932994272657 L 855.7870384959912 69.9924799910685 L 855.5923534039426 70.05475308441433 L 855.3963005127194 70.1161429955066 L 855.1988994274473 70.17664358540536 L 855.0001698880702 70.23624880410202 L 854.8001317673765 70.29495269112441 L 854.5988050690115 70.35274937613272 L 854.3962099254775 70.40963307950663 L 854.1923665961197 70.46559811292322 L 853.9872954651014 70.52063887992576 L 853.7810170393647 70.57474987648341 L 853.5735519465803 70.62792569154163 L 853.3649209330846 70.68016100756323 L 853.1551448618052 70.73145060106012 L 852.9442447101742 70.78178934311569 L 852.7322415680311 70.8311721998977 L 852.5191566355135 70.8795942331616 L 852.3050112209371 70.92705060074444 L 852.0898267386648 70.973536557049 L 851.8736247069655 71.01904745351838 L 851.6564267458624 71.06357873910088 L 851.4382545749704 71.10712596070502 L 851.2191300113249 71.14968476364494 L 850.9990749671995 71.19125089207583 L 850.7781114479154 71.23182018941947 L 850.5562615496405 71.27138859877994 L 850.3335474571794 71.30995216334925 L 850.1099914417559 71.34750702680313 L 849.8856158587855 71.38404943368649 L 849.6604431456392 71.4195757297891 L 849.4344958194008 71.45408236251096 L 849.2077964746146 71.48756588121756 L 848.9803677810262 71.52002293758491 L 848.7522324813153 71.55145028593446 L 848.5234133888221 71.58184478355753 L 848.2939333852647 71.61120339102969 L 848.0638154184527 71.63952317251467 L 847.8330824999906 71.66680129605793 L 847.6017577029783 71.69303503386982 L 847.3698641597024 71.71822176259843 L 847.1374250593243 71.7423589635919 L 846.9044636455602 71.7654442231502 L 846.6710032143573 71.78747523276665 L 846.4370671115643 71.80844978935863 L 846.2026787305963 71.82836579548797 L 845.9678615100963 71.84722125957065 L 845.7326389315907 71.86501429607597 L 845.4970345171411 71.8817431257151 L 845.2610718269927 71.89740607561903 L 845.0247744572181 71.91200157950583 L 844.7881660373571 71.92552817783725 L 844.5512702280545 71.93798451796474 L 844.314110718694 71.94936935426468 L 844.0767112250288 71.95968154826289 L 843.8390954868104 71.96892006874862 L 843.6012872654147 71.97708399187748 L 843.3633103414656 71.98417250126396 L 843.1251885124573 71.99018488806304 L 842.8869455903741 71.99512055104105 L 842.6486053993098 71.99897899663581 L 842.4101917730848 72.00175983900598 L 842.171728552863 72.00346280006961 L 841.9332395847679 72.00408770953204 L 841.6947487174973 72.00363450490285 L 841.4562797999395 72.0021032315021 L 841.2178566787873 71.99949404245586 L 840.9795031961543 71.9958071986809 L 840.7412431871899 71.99104306885846 L 840.5031004776966 71.98520212939759 L 840.265098881747 71.97828496438737 L 840.0272621993022 71.97029226553852 L 839.7896142138322 71.96122483211428 L 839.5521786899377 71.95108357085043 L 839.314979370973 71.93986949586466 L 839.0780399766726 71.92758372855508 L 838.8413842007783 71.91422749748824 L 838.6050357086705 71.89980213827607 L 838.3690181350014 71.8843090934425 L 838.1333550813318 71.86774991227908 L 837.8980701137707 71.85012625069015 L 837.6631867606187 71.83143987102717 L 837.4287285100154 71.81169264191253 L 837.1947188075906 71.79088653805269 L 836.9611810541192 71.7690236400407 L 836.7281386031823 71.74610613414815 L 836.4956147588306 71.72213631210651 L 836.2636327732547 71.69711657087802 L 836.0322158444601 71.67104941241597 L 835.8013871139466 71.64393744341446 L 835.571169664395 71.6157833750478 L 835.3415865173585 71.58659002269937 L 835.1126606309601 71.55636030568009 L 834.8844148975982 71.52509724693644 L 834.6568721416555 71.49280397274828 L 834.4300551172182 71.45948371241609 L 834.2039865057998 71.42513979793813 L 833.9786889140728 71.38977566367726 L 833.7541848716087 71.35339484601741 L 833.5304968286248 71.31600098301004 L 833.3076471537389 71.27759781401028 L 833.0856581317328 71.23818917930303 L 832.8645519613237 71.19777901971894 L 832.6443507529443 71.15637137624027 L 832.4250765265322 71.11397038959687 L 832.206751209327 71.07058029985207 L 831.9893966336786 71.02620544597868 L 831.7730345348635 70.98085026542512 L 831.5576865489112 70.93451929367163 L 831.343374210441 70.8872171637768 L 831.1301189505078 70.8389486059142 L 830.9179420944604 70.78971844689937 L 830.7068648598071 70.7395316097072 L 830.4969083540957 70.6883931129796 L 830.2880935728018 70.6363080705236 L 830.0804413972295 70.58328169080006 L 829.8739725924233 70.52931927640276 L 829.6687078050917 70.47442622352818 L 829.4646675615422 70.41860802143584 L 829.2618722656292 70.36187025189946 L 829.0603421967135 70.3042185886487 L 828.8600975076338 70.24565879680183 L 828.6611582226922 70.18619673228926 L 828.4635442356514 70.12583834126788 L 828.2672753077455 70.06458965952649 L 828.0723710657037 70.00245681188221 L 827.8788509997878 69.93944601156807 L 827.686734461843 69.87556355961155 L 827.4960406633633 69.81081584420461 L 827.3067886735693 69.74520934006487 L 827.1189974175023 69.67875060778805 L 826.9326856741317 69.61144629319199 L 826.7478720744763 69.54330312665208 L 826.5645750997422 69.47432792242817 L 826.3828130794741 69.40452757798322 L 826.2026041897225 69.3339090732935 L 826.0239664512262 69.26247947015062 L 825.8469177276103 69.19024591145539 L 825.6714757235994 69.11721562050347 L 825.497657983248 69.0433959002631 L 825.3254818881851 68.96879413264479 L 825.1549646558767 68.89341777776313 L 824.9861233379041 68.81727437319081 L 824.8189748182582 68.74037153320482 L 824.6535358116519 68.66271694802508 L 824.4898228618476 68.58431838304537 L 824.3278523400044 68.5051836780569 L 824.1676404430391 68.4253207464642 L 824.0092031920079 68.34473757449386 L 823.8525564305041 68.26344222039596 L 823.6977158230733 68.18144281363814 L 823.5446968536469 68.09874755409275 L 823.3935148239947 68.01536471121685 L 823.2441848521934 67.9313026232252 L 823.0967218711158 67.84656969625658 L 822.9511406269373 67.76117440353308 L 822.8074556776609 67.67512528451279 L 822.6656813916617 67.5884309440359 L 822.5258319462503 67.50110005146425 L 822.3879213262545 67.41314133981427 L 822.2519633226215 67.32456360488388 L 822.1179715310384 67.23537570437271 L 821.9859593505727 67.14558655699653 L 821.8559399823323 67.05520514159522 L 821.7279264281458 66.96424049623502 L 821.6019314892619 66.87270171730466 L 821.4779677650696 66.78059795860575 L 821.3560476518379 66.68793843043741 L 821.2361833414765 66.59473239867523 L 821.1183868203166 66.50098918384472 L 821.0026698679121 66.40671816018926 L 820.8890440558619 66.31192875473263 L 820.7775207466525 66.2166304463364 L 820.6681110925218 66.120832764752 L 820.5608260343441 66.02454528966774 L 820.4556763005359 65.92777764975091 L 820.3526724059828 65.83053952168484 L 820.2518246509885 65.73284062920132 L 820.1531431202444 65.63469074210818 L 820.0566376818215 65.53609967531233 L 819.962317986183 65.4370772878383 L 819.87019346522 65.33763348184232 L 819.7802733313079 65.23777820162212 L 819.6925665763849 65.13752143262249 L 819.6070819710536 65.03687320043682 L 819.5238280637034 64.93584356980442 L 819.4428131796553 64.83444264360419 L 819.3640454203305 64.73268056184422 L 819.2875326624393 64.63056750064791 L 819.2132825571935 64.52811367123628 L 819.1413025295419 64.42532931890689 L 819.0715997774272 64.32222472200931 L 819.0041812710667 64.21881019091732 L 818.9390537522547 64.11509606699785 L 818.8762237336888 64.01109272157687 L 818.8156974983186 63.90681055490224 L 818.7574810987171 63.80225999510374 L 818.7015803564759 63.697451497150205 L 818.6480008616224 63.59239554180411 L 818.5967479720616 63.48710263457343 L 818.5478268130398 63.381583304661156 L 818.501242276632 63.27584810391234 L 818.4569990212531 63.16990760575894 L 818.4151014711916 63.06377240416249 L 818.3755538161679 62.95745311255472 L 818.3383600109142 62.85096036277616 L 818.3035237747804 62.744304804013076 L 818.2710485913607 62.63749710173245 L 818.2409377081467 62.530547936615505 L 818.2131941362014 62.423468003489624 L 818.1878206498591 62.316268010258895 L 818.1648197864471 62.208958676833305 L 818.1441938460326 62.10155073405677 L 818.1259448911925 61.99405492263407 L 818.1100747468071 61.88648199205676 L 818.0965849998776 61.77884269952825 L 818.0854769993673 61.6711478088881 L 818.0767518560673 61.56340808953563 L 818.0704104424843 61.45563431535299 L 818.0664533927547 61.34783726362778 L 818.06488110258 61.24002771397536 L 818.065693729188 61.13221644726084 L 818.0688911913165 61.02441424452105 L 818.0744731692222 60.916631885886424 L 818.0824391047119 60.808880149503025 L 818.0927882011986 60.70116981045468 L 818.1055194237814 60.59351163968555 L 818.1206314993485 60.48591640292299 L 818.1381229167051 60.378394859601016 L 818.157991926724 60.27095776178435 L 818.1802365425206 60.163615853093255 L 818.204854539652 60.05637986762915 L 818.231843456339 59.949260528901206 L 818.2612005937124 59.84226854875404 L 818.2929230160829 59.7354146262965 L 818.3270075512348 59.62870944683179 L 818.3634507907428 59.52216368078894 L 818.4022490903136 59.41578798265577 L 818.4433985701493 59.30959298991343 L 818.4868951153363 59.203589321972714 L 818.5327343762564 59.09778757911208 L 818.5809117690216 58.992198341417634 L 818.6314224759328 58.88683216772516 L 818.6842614459614 58.78169959456423 L 818.7394233952546 58.67681113510454 L 818.7969028076632 58.57217727810464 L 818.856693935294 58.46780848686303 L 818.9187907990838 58.36371519817185 L 818.9831871893983 58.25990782127324 L 819.0498766666522 58.15639673681838 L 819.118852561953 58.053192295829454 L 819.1901079777688 57.950304818664556 L 819.2636357886174 57.84774459398567 L 819.339428641779 57.745521877729786 L 819.4174789580314 57.64364689208335 L 819.4977789324082 57.54212982446004 L 819.5803205349786 57.44098082648201 L 819.6650955116513 57.340210012964775 L 819.7520953849993 57.2398274609057 L 819.8413114551076 57.13984320847635 L 819.9327348004438 57.040267254018644 L 820.0263562787493 56.94110955504505 L 820.1221665279543 56.84238002724283 L 820.2201559671139 56.74408854348249 L 820.3203147973658 56.646244932830506 L 820.4226330029103 56.54885897956639 L 820.5271003520121 56.45194042220433 L 820.6337063980236 56.35549895251929 L 820.7424404804289 56.25954421457787 L 820.8532917259101 56.16408580377391 L 820.9662490494355 56.06913326586893 L 821.0813011553666 55.974696096037604 L 821.1984365385888 55.88078373791821 L 821.3176434856612 55.7874055826683 L 821.4389100759886 55.694570968025594 L 821.5622241830131 55.60228917737418 L 821.6875734754265 55.51056943881623 L 821.8149454184041 55.41942092424918 L 821.944327274858 55.328852748448504 L 822.0757061067101 55.23887396815633 L 822.2090687761867 55.14949358117568 L 822.344401947132 55.0607205254708 L 822.4816920863419 54.97256367827326 L 822.6209254649167 54.88503185519433 L 822.7620881596346 54.79813380934336 L 822.9051660543437 54.71187823045254 L 823.0501448413738 54.62627374400786 L 823.1970100229671 54.541328910386646 L 823.3457469127278 54.45705222400146 L 823.4963406370907 54.373452112450714 L 823.6487761368091 54.290536935675895 L 823.8030381684599 54.20831498512558 L 823.9591113059686 54.12679448292632 L 824.1169799421514 54.0459835810604 L 824.2766282902763 53.965890360550645 L 824.4380403856414 53.88652283065238 L 824.601200087172 53.80788892805245 L 824.7660910790335 53.72999651607559 L 824.9326968722644 53.652853383898076 L 825.1010008064242 53.57646724576885 L 825.2709860512595 53.50084574023808 L 825.4426356083877 53.42599642939328 L 825.6159323129962 53.35192679810317 L 825.7908588355587 53.278644253269164 L 825.9673976835688 53.20615612308466 L 826.1455312032889 53.13446965630228 L 826.3252415815155 53.06359202150896 L 826.5065108473603 52.99353030640911 L 826.689320874048 52.924291517115876 L 826.8736533807282 52.85588257745046 L 827.059489934304 52.78831032824984 L 827.2468119512746 52.72158152668263 L 827.4356006995945 52.65570284557336 L 827.6258373005463 52.590680872735255 L 827.8175027306285 52.52652211031142 L 828.0105778234575 52.463232974124615 L 828.2050432716852 52.40081979303573 L 828.4008796289288 52.33928880831086 L 828.5980673117156 52.278646172997206 L 828.7965866014418 52.21889795130775 L 828.9964176463438 52.160050118014894 L 829.1975404634836 52.1021085578529 L 829.3999349407472 52.045079064929524 L 829.6035808388556 51.98896734214652 L 829.8084577933884 51.933779000629414 L 830.014545316821 51.87951955916637 L 830.2218228005729 51.826194443656306 L 830.4302695170684 51.77380898656634 L 830.6398646218096 51.72236842639853 L 830.8505871554605 51.67187790716602 L 831.0624160459436 51.622342477878675 L 831.2753301105462 51.57376709203812 L 831.4893080580393 51.526156607142475 L 831.7043284908066 51.47951578420055 L 831.9203699069838 51.43384928725578 L 832.1374107026093 51.38916168291979 L 832.3554291737846 51.34545743991578 L 832.5744035188442 51.302740928631636 L 832.794311840536 51.261016420682886 L 833.0151321482111 51.220288088485546 L 833.2368423600228 51.18056000483891 L 833.4594203051347 51.14183614251822 L 833.6828437259377 51.10412037387746 L 833.9070902802758 51.06741647046204 L 834.1321375436808 51.03172810263173 L 834.3579630116135 50.99705883919358 L 834.5845441017156 50.96341214704502 L 834.8118581560667 50.930791390827245 L 835.0398824434508 50.899199832588685 L 835.2685941616293 50.86864063145883 L 835.4979704396209 50.83911684333235 L 835.727988339989 50.81063142056343 L 835.9586248611351 50.78318721167063 L 836.1898569395995 50.75678696105195 L 836.4216614523668 50.731433308710464 L 836.6540152191792 50.70712878999027 L 836.8868950048534 50.683875835323 L 837.120277521605 50.66167676998473 L 837.3541394313768 50.6405338138635 L 837.5884573481726 50.6204490812373 L 837.8232078403961 50.60142458056266 L 838.0583674331937 50.583462214273794 L 838.2939126108021 50.566563778592354 L 838.5298198188997 50.55073096334783 L 838.7660654669625 50.53596535180856 L 839.0026259306222 50.52226842052339 L 839.23947755403 50.50964153917403 L 839.4765966522207 50.49808597043808 L 839.7139595134821 50.48760286986282 L 839.9515424017259 50.47819328574954 L 840.1893215588611 50.46985815904882 L 840.4272732071705 50.462598323266384 L 840.6653735516873 50.456414504379765 L 840.9035987825754 50.45130732076569 L 841.1419250775105 50.44727728313828 L 841.3803286040614 50.444324794497916 L 841.6187855220743 50.44245015009101 L 841.8572719860562 50.44165353738045 L 842.0957641475592 50.44193503602685 L 842.334238157566 50.443294617880554 L 842.5726701688744 50.445732146984525 L 842.8110363384819 50.44924737958788 L 843.0493128299702 50.45383996417029 L 843.2874758158887 50.459509441477124 L 843.5255014801372 50.46625524456538 L 843.7633660203477 50.474076698860365 L 844.0010456502644 50.48297302222316 L 844.2385166021224 50.49294332502887 L 844.4757551290244 50.50398661025549 L 844.7127375073153 50.51610177358371 L 844.9494400389549 50.52928760350731 L 845.1858390538872 50.54354278145426 L 845.4219109124078 50.55886588191867 L 845.6576320075275 50.575255372603245 L 845.8929787673331 50.592709614572584 L 846.127927657345 50.61122686241703 L 846.3624551828698 50.630805264427224 L 846.5965378913505 50.651442862779284 L 846.8301523747112 50.67313759373059 L 847.0632752716983 50.695887287826096 L 847.2958832702165 50.71968967011537 L 847.5279531096595 50.74454236038002 L 847.759461583237 50.77044287337172 L 847.9903855402945 50.797388619060754 L 848.2207018886287 50.825376902895016 L 848.4503875967966 50.85440492606945 L 848.679419696419 50.88446978580591 L 848.9077752844767 50.9155684756435 L 849.1354315256011 50.947697885739125 L 849.3623656543579 50.980854803178566 L 849.5885549775232 51.01503591229771 L 849.8139768763535 51.05023779501413 L 850.0386088088464 51.08645693116888 L 850.2624283119961 51.12368969887854 L 850.4854130040387 51.16193237489736 L 850.7075405866907 51.201181134989596 L 850.9287888473792 51.241432054311964 L 851.1491356614623 51.28268110780607 L 851.3685589944422 51.32492417060092 L 851.5870369041686 51.368157018425464 L 851.8045475430325 51.41237532803093 L 852.0210691601513 51.45757467762322 L 852.2365801035437 51.503750547305025 L 852.451058822295 51.55089831952786 L 852.664483868712 51.5990132795538 L 852.8768339004679 51.64809061592693 L 853.0880876827366 51.69812542095451 L 853.2982240903158 51.749112691197745 L 853.5072221097398 51.801047327972086 L 853.715060841381 51.85392413785714 L 853.9217195015393 51.90773783321599 L 854.127177424521 51.962483032723924 L 854.331414064705 52.01815426190663 L 854.5344089985973 52.07474595368758 L 854.7361419268739 52.132252448944755 L 854.93659267641 52.190667997076545 L 855.1357412022976 52.24998675657682 L 855.3335675898502 52.310202795619055 L 855.5300520565938 52.371310092649544 L 855.7251749542456 52.43330253698949 L 855.9189167706784 52.49617392944612 L 856.1112581318718 52.559917982932596 L 856.3021798038502 52.62452832309667 L 856.4916626946053 52.68999848895818 L 856.6796878560062 52.7563219335551 L 856.8662364856933 52.823492024598224 L 857.051289928959 52.89150204513444 L 857.2348296806133 52.960345194218355 L 857.416837386834 53.03001458759244 L 857.5972948470021 53.10050325837541 L 857.776184015522 53.171804157758935 L 857.9534870036257 53.243910155712484 L 858.1291860811625 53.31681404169635 L 858.3032636783709 53.39050852538269 L 858.4757023876361 53.46498623738456 L 858.6464849652311 53.5402397299928 L 858.8155943330404 53.61626147792087 L 858.983013580268 53.69304387905734 L 859.1487259651288 53.770579255226075 L 859.3127149165225 53.848859852954064 L 859.4749640356905 53.92787784424677 L 859.6354570978561 54.00762532737092 L 859.794178053847 54.08809432764465 L 859.9511110316995 54.16927679823499 L 860.1062403382468 54.251164620962534 L 860.2595504606877 54.33374960711325 L 860.4110260681374 54.41702349825734 L 860.5606520131615 54.500977967075094 L 860.7084133332903 54.58560461818958 L 860.8542952525148 54.670894989006214 L 860.9982831827647 54.75684055055899 L 861.1403627253669 54.84343270836337 L 861.2805196724856 54.93066280327574 L 861.4187400085428 55.0185221123593 L 861.5550099116202 55.107001849756344 L 861.689315754841 55.196093167566886 L 861.8216441077328 55.28578715673337 L 861.9519817375705 55.37607484793163 L 862.0803156106998 55.46694721246779 L 862.2066328938405 55.55839516318112 L 862.3309209553692 55.65040955535275 L 862.4531673665836 55.742981187620146 L 862.5733599029443 55.83610080289723 L 862.691486545298 55.92975908930006 L 862.8075354810786 56.02394668107806 L 862.9214951054895 56.11865415955053 L 863.0333540226632 56.213872054048544 L 863.143101046801 56.30959084286201 L 863.2507252032922 56.405800954191804 L 863.3562157298106 56.50249276710697 L 863.4595620773916 56.5996566125068 L 863.5607539114866 56.69728277408771 L 863.6597811129965 56.79536148931491 L 863.7566337792834 56.89388295039859 L 863.8513022251618 56.99283730527477 L 863.9437769838657 57.09221465859041 L 864.0340488079966 57.19200507269298 L 864.1221086704469 57.29219856862425 L 864.207947765304 57.39278512711811 L 864.29155750873 57.49375468960253 L 864.3729295398199 57.59509715920541 L 864.4520557214388 57.69680240176424 L 864.5289281410343 57.79886024683951 L 864.6035391114284 57.90126048873177 L 864.6758811715865 58.003992887502164 L 864.7459470873627 58.10704716999642 L 864.8137298522237 58.21041303087217 L 864.8792226879497 58.31408013362946 L 864.9424190453115 58.41803811164441 L 865.0033126047263 58.52227656920584 L 865.0618972768887 58.62678508255487 L 865.1181672033803 58.731553200927245 L 865.1721167572555 58.83657044759845 L 865.2237405436038 58.94182632093131 L 865.2730334000894 59.04731029542622 L 865.319990397468 59.153011822773635 L 865.3646068400789 59.25892033290889 L 865.406878266315 59.36502523506925 L 865.4468004490687 59.471315918852895 L 865.4843693961554 59.57778175528004 L 865.5195813507114 59.684412097855756 L 865.5524327915707 59.79119628363465 L 865.5829204336167 59.89812363428712 L 865.6110412281104 60.005183457167206 L 865.6367923629957 60.11236504638185 L 865.6601712631809 60.21965768386144 L 865.6811755907952 60.327050640431644 L 865.6998032454235 60.43453317688629 L 865.7160523643157 60.5420945450613 L 865.7299213225737 60.6497239889095 L 865.7414087333129 60.757410745576195 L 865.7505134478021 60.86514404647545 L 865.7572345555773 60.972913118366954 L 865.7615713845332 61.08070718443333 L 865.7635235009908 61.188515465357796 M 865.7636444910468 95.52678387991818 L 865.7624520311431 95.6345944248348 L 865.758874770677 95.74239418878678 L 865.7529130673718 95.85017239188754 L 865.7445675173924 95.95791825640659 L 865.7338389552872 96.06562100784727 L 865.7207284539033 96.1732698760242 L 865.7052373242801 96.28085409614023 L 865.6873671155175 96.38836290986303 L 865.6671196146215 96.49578556640084 L 865.6444968463253 96.60311132357748 L 865.6195010728869 96.7103294489067 L 865.5921347938629 96.8174292206653 L 865.5624007458583 96.92439992896537 L 865.5303019022532 97.0312308768252 L 865.4958414729051 97.13791138123905 L 865.4590229038283 97.24443077424536 L 865.419849876849 97.35077840399362 L 865.3783263092372 97.45694363580944 L 865.3344563533152 97.56291585325815 L 865.2882443960418 97.66868445920629 L 865.2396950585745 97.77423887688141 L 865.1888131958065 97.8795685509297 L 865.1356038958816 97.98466294847155 L 865.0800724796853 98.08951156015478 L 865.0222245003133 98.19410390120557 L 864.9620657425152 98.29842951247699 L 864.8996022221165 98.40247796149485 L 864.8348401854173 98.50623884350097 L 864.7677861085673 98.60970178249359 L 864.6984466969184 98.71285643226504 L 864.6268288843537 98.81569247743631 L 864.552939832595 98.91819963448859 L 864.476786930486 99.02036765279156 L 864.3983777932532 99.12218631562857 L 864.3177202617451 99.22364544121817 L 864.2348224016476 99.32473488373233 L 864.1496925026778 99.42544453431107 L 864.0623390777544 99.52576432207324 L 863.9727708621472 99.62568421512367 L 863.8809968126031 99.72519422155631 L 863.7870261064506 99.82428439045346 L 863.6908681406821 99.92294481288079 L 863.5925325310141 100.02116562287829 L 863.4920291109252 100.11893699844678 L 863.3893679306741 100.2162491625302 L 863.284559256293 100.31309238399325 L 863.1776135685622 100.40945697859446 L 863.0685415619612 100.50533330995468 L 862.9573541435999 100.60071179052068 L 862.8440624321273 100.69558288252388 L 862.7286777566204 100.78993709893413 L 862.6112116554503 100.88376500440843 L 862.4916758751294 100.97705721623441 L 862.3700823691362 101.06980440526866 L 862.2464432967198 101.16199729686952 L 862.1207710216844 101.25362667182469 L 861.993078111153 101.34468336727302 L 861.8633773343099 101.43515827762084 L 861.731681661125 101.52504235545253 L 861.5980042610557 101.61432661243519 L 861.4623585017308 101.70300212021755 L 861.324757947613 101.7910600113227 L 861.1852163586431 101.87849148003492 L 861.0437476888637 101.9652877832802 L 860.900366085024 102.05144024150056 L 860.7550858851648 102.13694023952193 L 860.607921617185 102.22177922741581 L 860.4588879973888 102.30594872135407 L 860.3079999290139 102.38944030445748 L 860.1552725007416 102.47224562763729 L 860.0007209851874 102.5543564104302 L 859.8443608373739 102.63576444182635 L 859.6862076931856 102.71646158109044 L 859.5262773678053 102.79643975857579 L 859.3645858541321 102.8756909765313 L 859.2011493211828 102.95420730990122 L 859.0359841124742 103.03198090711763 L 858.8691067443899 103.10900399088564 L 858.7005339045274 103.18526885896105 L 858.5302824500303 103.2607678849206 L 858.3583694059022 103.33549351892461 L 858.1848119633041 103.40943828847196 L 858.0096274778358 103.48259479914732 L 857.8328334677998 103.55495573536056 L 857.6544476124498 103.6265138610784 L 857.4744877502225 103.69726202054787 L 857.2929718769544 103.76719313901197 L 857.1099181440815 103.83630022341715 L 856.9253448568245 103.90457636311257 L 856.7392704723583 103.97201473054113 L 856.5517135979663 104.03860858192229 L 856.3626929891797 104.10435125792642 L 856.1722275479018 104.1692361843407 L 855.980336320518 104.23325687272656 L 855.7870384959912 104.29640692106851 L 855.5923534039426 104.35868001441433 L 855.3963005127194 104.4200699255066 L 855.1988994274473 104.48057051540535 L 855.0001698880702 104.54017573410202 L 854.8001317673765 104.5988796211244 L 854.5988050690115 104.65667630613272 L 854.3962099254775 104.71356000950664 L 854.1923665961197 104.7695250429232 L 853.9872954651014 104.82456580992574 L 853.7810170393647 104.87867680648341 L 853.5735519465803 104.93185262154162 L 853.3649209330846 104.98408793756322 L 853.1551448618052 105.0353775310601 L 852.9442447101742 105.08571627311568 L 852.7322415680311 105.13509912989768 L 852.5191566355135 105.1835211631616 L 852.3050112209371 105.23097753074444 L 852.0898267386648 105.27746348704899 L 851.8736247069655 105.32297438351839 L 851.6564267458624 105.36750566910086 L 851.4382545749704 105.41105289070501 L 851.2191300113249 105.45361169364494 L 850.9990749671995 105.49517782207583 L 850.7781114479154 105.53574711941947 L 850.5562615496405 105.57531552877992 L 850.3335474571794 105.61387909334925 L 850.1099914417559 105.65143395680312 L 849.8856158587855 105.68797636368647 L 849.6604431456392 105.72350265978909 L 849.4344958194008 105.75800929251095 L 849.2077964746146 105.79149281121755 L 848.9803677810262 105.82394986758491 L 848.7522324813153 105.85537721593445 L 848.5234133888221 105.88577171355752 L 848.2939333852647 105.9151303210297 L 848.0638154184527 105.94345010251467 L 847.8330824999906 105.97072822605791 L 847.6017577029783 105.99696196386981 L 847.3698641597024 106.02214869259844 L 847.1374250593243 106.04628589359189 L 846.9044636455602 106.0693711531502 L 846.6710032143573 106.09140216276666 L 846.4370671115643 106.11237671935864 L 846.2026787305963 106.13229272548797 L 845.9678615100963 106.15114818957065 L 845.7326389315907 106.16894122607596 L 845.4970345171411 106.1856700557151 L 845.2610718269927 106.20133300561903 L 845.0247744572181 106.21592850950582 L 844.7881660373571 106.22945510783724 L 844.5512702280545 106.24191144796474 L 844.314110718694 106.25329628426466 L 844.0767112250288 106.2636084782629 L 843.8390954868104 106.2728469987486 L 843.6012872654147 106.28101092187747 L 843.3633103414656 106.28809943126396 L 843.1251885124573 106.29411181806304 L 842.8869455903741 106.29904748104106 L 842.6486053993098 106.30290592663582 L 842.4101917730848 106.30568676900597 L 842.171728552863 106.30738973006962 L 841.9332395847679 106.30801463953205 L 841.6947487174973 106.30756143490284 L 841.4562797999395 106.3060301615021 L 841.2178566787873 106.30342097245587 L 840.9795031961543 106.29973412868088 L 840.7412431871899 106.29496999885845 L 840.5031004776966 106.28912905939758 L 840.265098881747 106.28221189438736 L 840.0272621993022 106.27421919553852 L 839.7896142138322 106.26515176211427 L 839.5521786899377 106.25501050085043 L 839.314979370973 106.24379642586464 L 839.0780399766726 106.23151065855508 L 838.8413842007783 106.21815442748823 L 838.6050357086705 106.20372906827606 L 838.3690181350014 106.1882360234425 L 838.1333550813318 106.17167684227908 L 837.8980701137707 106.15405318069014 L 837.6631867606187 106.13536680102716 L 837.4287285100154 106.11561957191253 L 837.1947188075906 106.09481346805269 L 836.9611810541192 106.0729505700407 L 836.7281386031823 106.05003306414814 L 836.4956147588306 106.0260632421065 L 836.2636327732547 106.00104350087803 L 836.0322158444601 105.97497634241597 L 835.8013871139466 105.94786437341445 L 835.571169664395 105.9197103050478 L 835.3415865173585 105.89051695269937 L 835.1126606309601 105.86028723568009 L 834.8844148975982 105.82902417693644 L 834.6568721416555 105.79673090274827 L 834.4300551172182 105.76341064241608 L 834.2039865057998 105.72906672793813 L 833.9786889140728 105.69370259367726 L 833.7541848716087 105.6573217760174 L 833.5304968286248 105.61992791301003 L 833.3076471537389 105.58152474401028 L 833.0856581317328 105.54211610930304 L 832.8645519613237 105.50170594971894 L 832.6443507529443 105.46029830624026 L 832.4250765265322 105.41789731959686 L 832.206751209327 105.37450722985206 L 831.9893966336786 105.33013237597868 L 831.7730345348635 105.28477719542511 L 831.5576865489112 105.23844622367163 L 831.343374210441 105.1911440937768 L 831.1301189505078 105.14287553591419 L 830.9179420944604 105.09364537689936 L 830.7068648598071 105.0434585397072 L 830.4969083540957 104.99232004297959 L 830.2880935728018 104.9402350005236 L 830.0804413972295 104.88720862080007 L 829.8739725924233 104.83324620640276 L 829.6687078050917 104.77835315352817 L 829.4646675615422 104.72253495143585 L 829.2618722656292 104.66579718189945 L 829.0603421967135 104.60814551864868 L 828.8600975076338 104.54958572680184 L 828.6611582226922 104.49012366228926 L 828.4635442356514 104.42976527126788 L 828.2672753077455 104.36851658952648 L 828.0723710657037 104.30638374188221 L 827.8788509997878 104.24337294156805 L 827.686734461843 104.17949048961154 L 827.4960406633633 104.11474277420461 L 827.3067886735693 104.04913627006486 L 827.1189974175023 103.98267753778805 L 826.9326856741317 103.91537322319199 L 826.7478720744763 103.84723005665208 L 826.5645750997422 103.77825485242818 L 826.3828130794741 103.70845450798322 L 826.2026041897225 103.63783600329349 L 826.0239664512262 103.56640640015061 L 825.8469177276103 103.49417284145538 L 825.6714757235994 103.42114255050346 L 825.497657983248 103.3473228302631 L 825.3254818881851 103.27272106264479 L 825.1549646558767 103.19734470776314 L 824.9861233379041 103.1212013031908 L 824.8189748182582 103.04429846320481 L 824.6535358116519 102.96664387802507 L 824.4898228618476 102.88824531304537 L 824.3278523400044 102.8091106080569 L 824.1676404430391 102.72924767646418 L 824.0092031920079 102.64866450449387 L 823.8525564305041 102.56736915039596 L 823.6977158230733 102.48536974363815 L 823.5446968536469 102.40267448409276 L 823.3935148239947 102.31929164121684 L 823.2441848521934 102.2352295532252 L 823.0967218711158 102.15049662625658 L 822.9511406269373 102.06510133353308 L 822.8074556776609 101.97905221451278 L 822.6656813916617 101.89235787403591 L 822.5258319462503 101.80502698146424 L 822.3879213262545 101.71706826981428 L 822.2519633226215 101.62849053488388 L 822.1179715310384 101.53930263437272 L 821.9859593505727 101.44951348699652 L 821.8559399823323 101.35913207159521 L 821.7279264281458 101.26816742623502 L 821.6019314892619 101.17662864730465 L 821.4779677650696 101.08452488860574 L 821.3560476518379 100.9918653604374 L 821.2361833414765 100.89865932867522 L 821.1183868203166 100.80491611384473 L 821.0026698679121 100.71064509018925 L 820.8890440558619 100.61585568473262 L 820.7775207466525 100.5205573763364 L 820.6681110925218 100.424759694752 L 820.5608260343441 100.32847221966773 L 820.4556763005359 100.2317045797509 L 820.3526724059828 100.13446645168483 L 820.2518246509885 100.03676755920131 L 820.1531431202444 99.93861767210817 L 820.0566376818215 99.84002660531232 L 819.962317986183 99.7410042178383 L 819.87019346522 99.64156041184232 L 819.7802733313079 99.54170513162211 L 819.6925665763849 99.4414483626225 L 819.6070819710536 99.34080013043682 L 819.5238280637034 99.23977049980442 L 819.4428131796553 99.13836957360418 L 819.3640454203305 99.03660749184422 L 819.2875326624393 98.9344944306479 L 819.2132825571935 98.83204060123627 L 819.1413025295419 98.72925624890688 L 819.0715997774272 98.6261516520093 L 819.0041812710667 98.52273712091731 L 818.9390537522547 98.41902299699785 L 818.8762237336888 98.31501965157686 L 818.8156974983186 98.21073748490224 L 818.7574810987171 98.10618692510373 L 818.7015803564759 98.0013784271502 L 818.6480008616224 97.89632247180411 L 818.5967479720616 97.79102956457344 L 818.5478268130398 97.68551023466115 L 818.501242276632 97.57977503391233 L 818.4569990212531 97.47383453575894 L 818.4151014711916 97.3676993341625 L 818.3755538161679 97.2613800425547 L 818.3383600109142 97.15488729277617 L 818.3035237747804 97.04823173401307 L 818.2710485913607 96.94142403173245 L 818.2409377081467 96.8344748666155 L 818.2131941362014 96.72739493348962 L 818.1878206498591 96.6201949402589 L 818.1648197864471 96.51288560683331 L 818.1441938460326 96.40547766405678 L 818.1259448911925 96.29798185263407 L 818.1100747468071 96.19040892205675 L 818.0965849998776 96.08276962952824 L 818.0854769993673 95.9750747388881 L 818.0767518560673 95.86733501953563 L 818.0704104424843 95.75956124535298 L 818.0664533927547 95.65176419362778 L 818.06488110258 95.54395464397535" stroke-miterlimit="10" stroke-width="2.7769845610000004" stroke-dasharray=""/></g><g><g/><text fill="black" stroke="none" font-family="sans-serif" font-size="11pt" font-style="normal" font-weight="normal" text-decoration="normal" x="810.5363027267578" y="123.83569119881818" text-anchor="start" dominant-baseline="alphabetic" xml:space="preserve">Database</text></g><g><path fill="white" stroke="black" paint-order="fill stroke markers" d=" M 90.987082381 725.8696088203181 A 9.311065881 9.311065881 0 1 1 90.98707772546743 725.860297755989 M 81.67601649999999 735.1806747013181 L 81.67601649999999 755.1096227273181 M 69.914670124 742.3681641533182 L 93.43736287599998 742.3681641533182 M 81.67601649999999 755.1096227273181 L 69.914670124 773.7317544893182 M 81.67601649999999 755.1096227273181 L 93.43736287599998 773.7317544893182" stroke-miterlimit="10" stroke-width="2.7769845610000004" stroke-dasharray=""/></g><g><g/><text fill="black" stroke="none" font-family="sans-serif" font-size="11pt" font-style="normal" font-weight="normal" text-decoration="normal" x="53.1470400595703" y="710.2694896688181" text-anchor="start" dominant-baseline="alphabetic" xml:space="preserve">Landlord</text></g><g><path fill="white" stroke="black" paint-order="fill stroke markers" d=" M 354.8989052889114 741.3717167520181 A 24.2577769005 24.2577769005 0 1 1 354.898893160024 741.3474589791605 M 304.9948592074114 767.851081301318 L 356.2873975694114 767.851081301318" stroke-miterlimit="10" stroke-width="2.7769845610000004" stroke-dasharray=""/></g><g><g/><text fill="black" stroke="none" font-family="sans-serif" font-size="11pt" font-style="normal" font-weight="normal" text-decoration="normal" x="311.90097793675125" y="710.2694896688181" text-anchor="start" dominant-baseline="alphabetic" xml:space="preserve">Client</text></g><g><path fill="white" stroke="black" paint-order="fill stroke markers" d=" M 634.0573002583775 741.3717167520181 A 24.2577769005 24.2577769005 0 1 1 634.0572881294901 741.3474589791605 M 584.1532541768776 767.851081301318 L 635.4457925388775 767.851081301318" stroke-miterlimit="10" stroke-width="2.7769845610000004" stroke-dasharray=""/></g><g><g/><text fill="black" stroke="none" font-family="sans-serif" font-size="11pt" font-style="normal" font-weight="normal" text-decoration="normal" x="581.274125103483" y="710.2694896688181" text-anchor="start" dominant-baseline="alphabetic" xml:space="preserve">Backend</text></g><g><path fill="white" stroke="black" paint-order="fill stroke markers" d=" M 818.0648508550469 763.032196327818 L 818.0648508550469 728.7282693978179 L 865.7636444910468 728.7282693978179 L 865.7636444910468 763.032196327818" stroke-miterlimit="10" stroke-width="2.7769845610000004" stroke-dasharray=""/><path fill="white" stroke="black" paint-order="fill stroke markers" d=" M 865.7636444910468 727.5357995569179 L 865.7624520311431 727.6436101018346 L 865.758874770677 727.7514098657865 L 865.7529130673718 727.8591880688873 L 865.7445675173924 727.9669339334064 L 865.7338389552872 728.0746366848471 L 865.7207284539033 728.1822855530239 L 865.7052373242801 728.28986977314 L 865.6873671155175 728.3973785868628 L 865.6671196146215 728.5048012434006 L 865.6444968463253 728.6121270005773 L 865.6195010728869 728.7193451259064 L 865.5921347938629 728.826444897665 L 865.5624007458583 728.9334156059651 L 865.5303019022532 729.040246553825 L 865.4958414729051 729.1469270582388 L 865.4590229038283 729.253446451245 L 865.419849876849 729.3597940809933 L 865.3783263092372 729.4659593128092 L 865.3344563533152 729.5719315302579 L 865.2882443960418 729.677700136206 L 865.2396950585745 729.7832545538812 L 865.1888131958065 729.8885842279294 L 865.1356038958816 729.9936786254713 L 865.0800724796853 730.0985272371545 L 865.0222245003133 730.2031195782054 L 864.9620657425152 730.3074451894768 L 864.8996022221165 730.4114936384946 L 864.8348401854173 730.5152545205007 L 864.7677861085673 730.6187174594934 L 864.6984466969184 730.7218721092648 L 864.6268288843537 730.824708154436 L 864.552939832595 730.9272153114883 L 864.476786930486 731.0293833297914 L 864.3983777932532 731.1312019926283 L 864.3177202617451 731.232661118218 L 864.2348224016476 731.333750560732 L 864.1496925026778 731.4344602113108 L 864.0623390777544 731.534779999073 L 863.9727708621472 731.6346998921234 L 863.8809968126031 731.7342098985561 L 863.7870261064506 731.8333000674533 L 863.6908681406821 731.9319604898806 L 863.5925325310141 732.030181299878 L 863.4920291109252 732.1279526754465 L 863.3893679306741 732.2252648395299 L 863.284559256293 732.322108060993 L 863.1776135685622 732.4184726555942 L 863.0685415619612 732.5143489869545 L 862.9573541435999 732.6097274675204 L 862.8440624321273 732.7045985595237 L 862.7286777566204 732.7989527759339 L 862.6112116554503 732.8927806814082 L 862.4916758751294 732.9860728932342 L 862.3700823691362 733.0788200822684 L 862.2464432967198 733.1710129738693 L 862.1207710216844 733.2626423488244 L 861.993078111153 733.3536990442727 L 861.8633773343099 733.4441739546206 L 861.731681661125 733.5340580324523 L 861.5980042610557 733.623342289435 L 861.4623585017308 733.7120177972173 L 861.324757947613 733.8000756883224 L 861.1852163586431 733.8875071570346 L 861.0437476888637 733.97430346028 L 860.900366085024 734.0604559185003 L 860.7550858851648 734.1459559165216 L 860.607921617185 734.2307949044156 L 860.4588879973888 734.3149643983538 L 860.3079999290139 734.3984559814572 L 860.1552725007416 734.4812613046371 L 860.0007209851874 734.5633720874299 L 859.8443608373739 734.6447801188261 L 859.6862076931856 734.7254772580902 L 859.5262773678053 734.8054554355756 L 859.3645858541321 734.884706653531 L 859.2011493211828 734.963222986901 L 859.0359841124742 735.0409965841174 L 858.8691067443899 735.1180196678854 L 858.7005339045274 735.1942845359608 L 858.5302824500303 735.2697835619203 L 858.3583694059022 735.3445091959244 L 858.1848119633041 735.4184539654717 L 858.0096274778358 735.4916104761471 L 857.8328334677998 735.5639714123603 L 857.6544476124498 735.6355295380781 L 857.4744877502225 735.7062776975476 L 857.2929718769544 735.7762088160117 L 857.1099181440815 735.845315900417 L 856.9253448568245 735.9135920401123 L 856.7392704723583 735.9810304075409 L 856.5517135979663 736.047624258922 L 856.3626929891797 736.1133669349261 L 856.1722275479018 736.1782518613404 L 855.980336320518 736.2422725497263 L 855.7870384959912 736.3054225980683 L 855.5923534039426 736.367695691414 L 855.3963005127194 736.4290856025063 L 855.1988994274473 736.4895861924051 L 855.0001698880702 736.5491914111018 L 854.8001317673765 736.6078952981242 L 854.5988050690115 736.6656919831324 L 854.3962099254775 736.7225756865064 L 854.1923665961197 736.778540719923 L 853.9872954651014 736.8335814869255 L 853.7810170393647 736.8876924834832 L 853.5735519465803 736.9408682985414 L 853.3649209330846 736.993103614563 L 853.1551448618052 737.0443932080599 L 852.9442447101742 737.0947319501155 L 852.7322415680311 737.1441148068974 L 852.5191566355135 737.1925368401613 L 852.3050112209371 737.2399932077442 L 852.0898267386648 737.2864791640487 L 851.8736247069655 737.3319900605181 L 851.6564267458624 737.3765213461006 L 851.4382545749704 737.4200685677048 L 851.2191300113249 737.4626273706447 L 850.9990749671995 737.5041934990755 L 850.7781114479154 737.5447627964193 L 850.5562615496405 737.5843312057797 L 850.3335474571794 737.622894770349 L 850.1099914417559 737.6604496338028 L 849.8856158587855 737.6969920406863 L 849.6604431456392 737.7325183367889 L 849.4344958194008 737.7670249695107 L 849.2077964746146 737.8005084882172 L 848.9803677810262 737.8329655445847 L 848.7522324813153 737.8643928929342 L 848.5234133888221 737.8947873905573 L 848.2939333852647 737.9241459980294 L 848.0638154184527 737.9524657795145 L 847.8330824999906 737.9797439030576 L 847.6017577029783 738.0059776408696 L 847.3698641597024 738.0311643695982 L 847.1374250593243 738.0553015705916 L 846.9044636455602 738.07838683015 L 846.6710032143573 738.1004178397664 L 846.4370671115643 738.1213923963584 L 846.2026787305963 738.1413084024878 L 845.9678615100963 738.1601638665704 L 845.7326389315907 738.1779569030757 L 845.4970345171411 738.1946857327149 L 845.2610718269927 738.2103486826188 L 845.0247744572181 738.2249441865056 L 844.7881660373571 738.238470784837 L 844.5512702280545 738.2509271249645 L 844.314110718694 738.2623119612645 L 844.0767112250288 738.2726241552626 L 843.8390954868104 738.2818626757484 L 843.6012872654147 738.2900265988773 L 843.3633103414656 738.2971151082637 L 843.1251885124573 738.3031274950628 L 842.8869455903741 738.3080631580408 L 842.6486053993098 738.3119216036356 L 842.4101917730848 738.3147024460058 L 842.171728552863 738.3164054070694 L 841.9332395847679 738.3170303165318 L 841.6947487174973 738.3165771119026 L 841.4562797999395 738.3150458385019 L 841.2178566787873 738.3124366494557 L 840.9795031961543 738.3087498056807 L 840.7412431871899 738.3039856758583 L 840.5031004776966 738.2981447363974 L 840.265098881747 738.2912275713871 L 840.0272621993022 738.2832348725383 L 839.7896142138322 738.2741674391141 L 839.5521786899377 738.2640261778502 L 839.314979370973 738.2528121028644 L 839.0780399766726 738.2405263355548 L 838.8413842007783 738.227170104488 L 838.6050357086705 738.2127447452758 L 838.3690181350014 738.1972517004423 L 838.1333550813318 738.1806925192789 L 837.8980701137707 738.16306885769 L 837.6631867606187 738.144382478027 L 837.4287285100154 738.1246352489122 L 837.1947188075906 738.1038291450525 L 836.9611810541192 738.0819662470404 L 836.7281386031823 738.0590487411479 L 836.4956147588306 738.0350789191062 L 836.2636327732547 738.0100591778778 L 836.0322158444601 737.9839920194157 L 835.8013871139466 737.9568800504142 L 835.571169664395 737.9287259820476 L 835.3415865173585 737.8995326296991 L 835.1126606309601 737.8693029126798 L 834.8844148975982 737.8380398539362 L 834.6568721416555 737.8057465797481 L 834.4300551172182 737.7724263194158 L 834.2039865057998 737.7380824049379 L 833.9786889140728 737.702718270677 L 833.7541848716087 737.6663374530171 L 833.5304968286248 737.6289435900098 L 833.3076471537389 737.59054042101 L 833.0856581317328 737.5511317863028 L 832.8645519613237 737.5107216267187 L 832.6443507529443 737.46931398324 L 832.4250765265322 737.4269129965966 L 832.206751209327 737.3835229068518 L 831.9893966336786 737.3391480529784 L 831.7730345348635 737.2937928724249 L 831.5576865489112 737.2474619006714 L 831.343374210441 737.2001597707765 L 831.1301189505078 737.1518912129139 L 830.9179420944604 737.1026610538992 L 830.7068648598071 737.052474216707 L 830.4969083540957 737.0013357199794 L 830.2880935728018 736.9492506775233 L 830.0804413972295 736.8962242977998 L 829.8739725924233 736.8422618834026 L 829.6687078050917 736.787368830528 L 829.4646675615422 736.7315506284356 L 829.2618722656292 736.6748128588993 L 829.0603421967135 736.6171611956485 L 828.8600975076338 736.5586014038016 L 828.6611582226922 736.4991393392891 L 828.4635442356514 736.4387809482677 L 828.2672753077455 736.3775322665263 L 828.0723710657037 736.315399418882 L 827.8788509997878 736.2523886185678 L 827.686734461843 736.1885061666113 L 827.4960406633633 736.1237584512044 L 827.3067886735693 736.0581519470646 L 827.1189974175023 735.9916932147878 L 826.9326856741317 735.9243889001917 L 826.7478720744763 735.8562457336518 L 826.5645750997422 735.7872705294279 L 826.3828130794741 735.717470184983 L 826.2026041897225 735.6468516802933 L 826.0239664512262 735.5754220771504 L 825.8469177276103 735.5031885184551 L 825.6714757235994 735.4301582275032 L 825.497657983248 735.3563385072629 L 825.3254818881851 735.2817367396445 L 825.1549646558767 735.2063603847629 L 824.9861233379041 735.1302169801905 L 824.8189748182582 735.0533141402045 L 824.6535358116519 734.9756595550248 L 824.4898228618476 734.8972609900451 L 824.3278523400044 734.8181262850567 L 824.1676404430391 734.7382633534639 L 824.0092031920079 734.6576801814936 L 823.8525564305041 734.5763848273957 L 823.6977158230733 734.4943854206379 L 823.5446968536469 734.4116901610925 L 823.3935148239947 734.3283073182166 L 823.2441848521934 734.2442452302249 L 823.0967218711158 734.1595123032563 L 822.9511406269373 734.0741170105329 L 822.8074556776609 733.9880678915125 L 822.6656813916617 733.9013735510357 L 822.5258319462503 733.814042658464 L 822.3879213262545 733.726083946814 L 822.2519633226215 733.6375062118836 L 822.1179715310384 733.5483183113724 L 821.9859593505727 733.4585291639963 L 821.8559399823323 733.368147748595 L 821.7279264281458 733.2771831032347 L 821.6019314892619 733.1856443243045 L 821.4779677650696 733.0935405656055 L 821.3560476518379 733.0008810374371 L 821.2361833414765 732.907675005675 L 821.1183868203166 732.8139317908444 L 821.0026698679121 732.719660767189 L 820.8890440558619 732.6248713617324 L 820.7775207466525 732.5295730533361 L 820.6681110925218 732.4337753717517 L 820.5608260343441 732.3374878966675 L 820.4556763005359 732.2407202567507 L 820.3526724059828 732.1434821286846 L 820.2518246509885 732.045783236201 L 820.1531431202444 731.947633349108 L 820.0566376818215 731.8490422823121 L 819.962317986183 731.750019894838 L 819.87019346522 731.6505760888421 L 819.7802733313079 731.5507208086219 L 819.6925665763849 731.4504640396223 L 819.6070819710536 731.3498158074366 L 819.5238280637034 731.2487861768042 L 819.4428131796553 731.147385250604 L 819.3640454203305 731.0456231688439 L 819.2875326624393 730.9435101076476 L 819.2132825571935 730.841056278236 L 819.1413025295419 730.7382719259066 L 819.0715997774272 730.635167329009 L 819.0041812710667 730.5317527979171 L 818.9390537522547 730.4280386739975 L 818.8762237336888 730.3240353285767 L 818.8156974983186 730.219753161902 L 818.7574810987171 730.1152026021035 L 818.7015803564759 730.01039410415 L 818.6480008616224 729.9053381488038 L 818.5967479720616 729.8000452415732 L 818.5478268130398 729.6945259116609 L 818.501242276632 729.5887907109121 L 818.4569990212531 729.4828502127586 L 818.4151014711916 729.3767150111622 L 818.3755538161679 729.2703957195545 L 818.3383600109142 729.1639029697759 L 818.3035237747804 729.0572474110128 L 818.2710485913607 728.9504397087322 L 818.2409377081467 728.8434905436153 L 818.2131941362014 728.7364106104894 L 818.1878206498591 728.6292106172587 L 818.1648197864471 728.521901283833 L 818.1441938460326 728.4144933410565 L 818.1259448911925 728.3069975296338 L 818.1100747468071 728.1994245990566 L 818.0965849998776 728.091785306528 L 818.0854769993673 727.9840904158879 L 818.0767518560673 727.8763506965354 L 818.0704104424843 727.7685769223527 L 818.0664533927547 727.6607798706275 L 818.06488110258 727.5529703209751 L 818.065693729188 727.4451590542606 L 818.0688911913165 727.3373568515208 L 818.0744731692222 727.2295744928862 L 818.0824391047119 727.1218227565028 L 818.0927882011986 727.0141124174544 L 818.1055194237814 726.9064542466853 L 818.1206314993485 726.7988590099227 L 818.1381229167051 726.6913374666008 L 818.157991926724 726.583900368784 L 818.1802365425206 726.476558460093 L 818.204854539652 726.3693224746289 L 818.231843456339 726.2622031359009 L 818.2612005937124 726.1552111557538 L 818.2929230160829 726.0483572332962 L 818.3270075512348 725.9416520538315 L 818.3634507907428 725.8351062877887 L 818.4022490903136 725.7287305896555 L 818.4433985701493 725.6225355969132 L 818.4868951153363 725.5165319289724 L 818.5327343762564 725.4107301861118 L 818.5809117690216 725.3051409484174 L 818.6314224759328 725.1997747747249 L 818.6842614459614 725.0946422015639 L 818.7394233952546 724.9897537421043 L 818.7969028076632 724.8851198851044 L 818.856693935294 724.7807510938628 L 818.9187907990838 724.6766578051715 L 818.9831871893983 724.572850428273 L 819.0498766666522 724.4693393438181 L 819.118852561953 724.3661349028292 L 819.1901079777688 724.2632474256643 L 819.2636357886174 724.1606872009854 L 819.339428641779 724.0584644847295 L 819.4174789580314 723.9565894990831 L 819.4977789324082 723.8550724314598 L 819.5803205349786 723.7539234334818 L 819.6650955116513 723.6531526199645 L 819.7520953849993 723.5527700679055 L 819.8413114551076 723.4527858154761 L 819.9327348004438 723.3532098610184 L 820.0263562787493 723.2540521620448 L 820.1221665279543 723.1553226342426 L 820.2201559671139 723.0570311504822 L 820.3203147973658 722.9591875398303 L 820.4226330029103 722.8618015865661 L 820.5271003520121 722.764883029204 L 820.6337063980236 722.668441559519 L 820.7424404804289 722.5724868215776 L 820.8532917259101 722.4770284107736 L 820.9662490494355 722.3820758728687 L 821.0813011553666 722.2876387030374 L 821.1984365385888 722.193726344918 L 821.3176434856612 722.100348189668 L 821.4389100759886 722.0075135750253 L 821.5622241830131 721.915231784374 L 821.6875734754265 721.823512045816 L 821.8149454184041 721.7323635312489 L 821.944327274858 721.6417953554483 L 822.0757061067101 721.5518165751561 L 822.2090687761867 721.4624361881754 L 822.344401947132 721.3736631324706 L 822.4816920863419 721.285506285273 L 822.6209254649167 721.1979744621941 L 822.7620881596346 721.1110764163432 L 822.9051660543437 721.0248208374522 L 823.0501448413738 720.9392163510076 L 823.1970100229671 720.8542715173865 L 823.3457469127278 720.7699948310012 L 823.4963406370907 720.6863947194505 L 823.6487761368091 720.6034795426756 L 823.8030381684599 720.5212575921254 L 823.9591113059686 720.4397370899261 L 824.1169799421514 720.3589261880602 L 824.2766282902763 720.2788329675504 L 824.4380403856414 720.1994654376522 L 824.601200087172 720.1208315350522 L 824.7660910790335 720.0429391230754 L 824.9326968722644 719.9657959908978 L 825.1010008064242 719.8894098527686 L 825.2709860512595 719.8137883472378 L 825.4426356083877 719.738939036393 L 825.6159323129962 719.6648694051029 L 825.7908588355587 719.5915868602689 L 825.9673976835688 719.5190987300844 L 826.1455312032889 719.447412263302 L 826.3252415815155 719.3765346285087 L 826.5065108473603 719.3064729134088 L 826.689320874048 719.2372341241156 L 826.8736533807282 719.1688251844502 L 827.059489934304 719.1012529352496 L 827.2468119512746 719.0345241336823 L 827.4356006995945 718.9686454525731 L 827.6258373005463 718.903623479735 L 827.8175027306285 718.8394647173112 L 828.0105778234575 718.7761755811243 L 828.2050432716852 718.7137624000354 L 828.4008796289288 718.6522314153106 L 828.5980673117156 718.591588779997 L 828.7965866014418 718.5318405583075 L 828.9964176463438 718.4729927250146 L 829.1975404634836 718.4150511648527 L 829.3999349407472 718.3580216719292 L 829.6035808388556 718.3019099491463 L 829.8084577933884 718.2467216076292 L 830.014545316821 718.1924621661661 L 830.2218228005729 718.139137050656 L 830.4302695170684 718.0867515935661 L 830.6398646218096 718.0353110333983 L 830.8505871554605 717.9848205141658 L 831.0624160459436 717.9352850848784 L 831.2753301105462 717.8867096990379 L 831.4893080580393 717.8390992141423 L 831.7043284908066 717.7924583912003 L 831.9203699069838 717.7467918942556 L 832.1374107026093 717.7021042899196 L 832.3554291737846 717.6584000469155 L 832.5744035188442 717.6156835356314 L 832.794311840536 717.5739590276826 L 833.0151321482111 717.5332306954853 L 833.2368423600228 717.4935026118386 L 833.4594203051347 717.454778749518 L 833.6828437259377 717.4170629808772 L 833.9070902802758 717.3803590774618 L 834.1321375436808 717.3446707096315 L 834.3579630116135 717.3100014461934 L 834.5845441017156 717.2763547540447 L 834.8118581560667 717.243733997827 L 835.0398824434508 717.2121424395884 L 835.2685941616293 717.1815832384585 L 835.4979704396209 717.1520594503321 L 835.727988339989 717.1235740275632 L 835.9586248611351 717.0961298186704 L 836.1898569395995 717.0697295680517 L 836.4216614523668 717.0443759157102 L 836.6540152191792 717.02007139699 L 836.8868950048534 716.9968184423227 L 837.120277521605 716.9746193769845 L 837.3541394313768 716.9534764208632 L 837.5884573481726 716.9333916882371 L 837.8232078403961 716.9143671875624 L 838.0583674331937 716.8964048212736 L 838.2939126108021 716.8795063855921 L 838.5298198188997 716.8636735703476 L 838.7660654669625 716.8489079588084 L 839.0026259306222 716.8352110275231 L 839.23947755403 716.8225841461738 L 839.4765966522207 716.8110285774378 L 839.7139595134821 716.8005454768626 L 839.9515424017259 716.7911358927493 L 840.1893215588611 716.7828007660486 L 840.4272732071705 716.7755409302662 L 840.6653735516873 716.7693571113795 L 840.9035987825754 716.7642499277655 L 841.1419250775105 716.760219890138 L 841.3803286040614 716.7572674014976 L 841.6187855220743 716.7553927570908 L 841.8572719860562 716.7545961443802 L 842.0957641475592 716.7548776430266 L 842.334238157566 716.7562372248804 L 842.5726701688744 716.7586747539842 L 842.8110363384819 716.7621899865876 L 843.0493128299702 716.7667825711701 L 843.2874758158887 716.7724520484769 L 843.5255014801372 716.7791978515652 L 843.7633660203477 716.7870193058601 L 844.0010456502644 716.7959156292229 L 844.2385166021224 716.8058859320286 L 844.4757551290244 716.8169292172553 L 844.7127375073153 716.8290443805835 L 844.9494400389549 716.8422302105071 L 845.1858390538872 716.856485388454 L 845.4219109124078 716.8718084889184 L 845.6576320075275 716.888197979603 L 845.8929787673331 716.9056522215724 L 846.127927657345 716.9241694694168 L 846.3624551828698 716.9437478714269 L 846.5965378913505 716.964385469779 L 846.8301523747112 716.9860802007304 L 847.0632752716983 717.0088298948258 L 847.2958832702165 717.0326322771151 L 847.5279531096595 717.0574849673798 L 847.759461583237 717.0833854803715 L 847.9903855402945 717.1103312260605 L 848.2207018886287 717.1383195098948 L 848.4503875967966 717.1673475330692 L 848.679419696419 717.1974123928056 L 848.9077752844767 717.2285110826432 L 849.1354315256011 717.2606404927388 L 849.3623656543579 717.2937974101783 L 849.5885549775232 717.3279785192975 L 849.8139768763535 717.3631804020139 L 850.0386088088464 717.3993995381686 L 850.2624283119961 717.4366323058783 L 850.4854130040387 717.4748749818971 L 850.7075405866907 717.5141237419894 L 850.9287888473792 717.5543746613117 L 851.1491356614623 717.5956237148058 L 851.3685589944422 717.6378667776007 L 851.5870369041686 717.6810996254252 L 851.8045475430325 717.7253179350307 L 852.0210691601513 717.770517284623 L 852.2365801035437 717.8166931543047 L 852.451058822295 717.8638409265276 L 852.664483868712 717.9119558865535 L 852.8768339004679 717.9610332229266 L 853.0880876827366 718.0110680279543 L 853.2982240903158 718.0620552981975 L 853.5072221097398 718.1139899349719 L 853.715060841381 718.1668667448569 L 853.9217195015393 718.2206804402157 L 854.127177424521 718.2754256397237 L 854.331414064705 718.3310968689063 L 854.5344089985973 718.3876885606874 L 854.7361419268739 718.4451950559445 L 854.93659267641 718.5036106040762 L 855.1357412022976 718.5629293635766 L 855.3335675898502 718.6231454026188 L 855.5300520565938 718.6842526996493 L 855.7251749542456 718.7462451439892 L 855.9189167706784 718.8091165364459 L 856.1112581318718 718.8728605899323 L 856.3021798038502 718.9374709300964 L 856.4916626946053 719.0029410959579 L 856.6796878560062 719.0692645405549 L 856.8662364856933 719.1364346315979 L 857.051289928959 719.2044446521342 L 857.2348296806133 719.2732878012181 L 857.416837386834 719.3429571945921 L 857.5972948470021 719.4134458653751 L 857.776184015522 719.4847467647587 L 857.9534870036257 719.5568527627122 L 858.1291860811625 719.6297566486961 L 858.3032636783709 719.7034511323825 L 858.4757023876361 719.7779288443843 L 858.6464849652311 719.8531823369925 L 858.8155943330404 719.9292040849206 L 858.983013580268 720.005986486057 L 859.1487259651288 720.0835218622258 L 859.3127149165225 720.1618024599538 L 859.4749640356905 720.2408204512466 L 859.6354570978561 720.3205679343706 L 859.794178053847 720.4010369346444 L 859.9511110316995 720.4822194052348 L 860.1062403382468 720.5641072279623 L 860.2595504606877 720.646692214113 L 860.4110260681374 720.7299661052571 L 860.5606520131615 720.8139205740748 L 860.7084133332903 720.8985472251893 L 860.8542952525148 720.983837596006 L 860.9982831827647 721.0697831575587 L 861.1403627253669 721.1563753153631 L 861.2805196724856 721.2436054102754 L 861.4187400085428 721.331464719359 L 861.5550099116202 721.4199444567561 L 861.689315754841 721.5090357745667 L 861.8216441077328 721.5987297637331 L 861.9519817375705 721.6890174549313 L 862.0803156106998 721.7798898194675 L 862.2066328938405 721.8713377701808 L 862.3309209553692 721.9633521623525 L 862.4531673665836 722.0559237946198 L 862.5733599029443 722.149043409897 L 862.691486545298 722.2427016962998 L 862.8075354810786 722.3368892880778 L 862.9214951054895 722.4315967665502 L 863.0333540226632 722.5268146610483 L 863.143101046801 722.6225334498617 L 863.2507252032922 722.7187435611916 L 863.3562157298106 722.8154353741068 L 863.4595620773916 722.9125992195065 L 863.5607539114866 723.0102253810875 L 863.6597811129965 723.1083040963147 L 863.7566337792834 723.2068255573984 L 863.8513022251618 723.3057799122745 L 863.9437769838657 723.4051572655901 L 864.0340488079966 723.5049476796927 L 864.1221086704469 723.605141175624 L 864.207947765304 723.7057277341179 L 864.29155750873 723.8066972966022 L 864.3729295398199 723.9080397662052 L 864.4520557214388 724.009745008764 L 864.5289281410343 724.1118028538392 L 864.6035391114284 724.2142030957315 L 864.6758811715865 724.3169354945019 L 864.7459470873627 724.4199897769962 L 864.8137298522237 724.5233556378719 L 864.8792226879497 724.6270227406292 L 864.9424190453115 724.7309807186441 L 865.0033126047263 724.8352191762056 L 865.0618972768887 724.9397276895546 L 865.1181672033803 725.044495807927 L 865.1721167572555 725.1495130545982 L 865.2237405436038 725.2547689279311 L 865.2730334000894 725.3602529024259 L 865.319990397468 725.4659544297734 L 865.3646068400789 725.5718629399087 L 865.406878266315 725.6779678420689 L 865.4468004490687 725.7842585258527 L 865.4843693961554 725.8907243622798 L 865.5195813507114 725.9973547048555 L 865.5524327915707 726.1041388906344 L 865.5829204336167 726.2110662412869 L 865.6110412281104 726.3181260641669 L 865.6367923629957 726.4253076533817 L 865.6601712631809 726.5326002908612 L 865.6811755907952 726.6399932474313 L 865.6998032454235 726.747475783886 L 865.7160523643157 726.8550371520611 L 865.7299213225737 726.9626665959092 L 865.7414087333129 727.0703533525759 L 865.7505134478021 727.1780866534752 L 865.7572345555773 727.2858557253667 L 865.7615713845332 727.3936497914331 L 865.7635235009908 727.5014580723575 M 865.7636444910468 761.839726486918 L 865.7624520311431 761.9475370318347 L 865.758874770677 762.0553367957866 L 865.7529130673718 762.1631149988874 L 865.7445675173924 762.2708608634065 L 865.7338389552872 762.3785636148472 L 865.7207284539033 762.486212483024 L 865.7052373242801 762.5937967031401 L 865.6873671155175 762.7013055168629 L 865.6671196146215 762.8087281734007 L 865.6444968463253 762.9160539305774 L 865.6195010728869 763.0232720559065 L 865.5921347938629 763.1303718276652 L 865.5624007458583 763.2373425359652 L 865.5303019022532 763.3441734838251 L 865.4958414729051 763.4508539882389 L 865.4590229038283 763.5573733812453 L 865.419849876849 763.6637210109934 L 865.3783263092372 763.7698862428093 L 865.3344563533152 763.875858460258 L 865.2882443960418 763.9816270662061 L 865.2396950585745 764.0871814838813 L 865.1888131958065 764.1925111579295 L 865.1356038958816 764.2976055554714 L 865.0800724796853 764.4024541671546 L 865.0222245003133 764.5070465082055 L 864.9620657425152 764.6113721194769 L 864.8996022221165 764.7154205684947 L 864.8348401854173 764.8191814505008 L 864.7677861085673 764.9226443894935 L 864.6984466969184 765.0257990392649 L 864.6268288843537 765.1286350844362 L 864.552939832595 765.2311422414884 L 864.476786930486 765.3333102597915 L 864.3983777932532 765.4351289226285 L 864.3177202617451 765.536588048218 L 864.2348224016476 765.6376774907321 L 864.1496925026778 765.7383871413109 L 864.0623390777544 765.838706929073 L 863.9727708621472 765.9386268221235 L 863.8809968126031 766.0381368285562 L 863.7870261064506 766.1372269974534 L 863.6908681406821 766.2358874198807 L 863.5925325310141 766.3341082298781 L 863.4920291109252 766.4318796054466 L 863.3893679306741 766.52919176953 L 863.284559256293 766.626034990993 L 863.1776135685622 766.7223995855943 L 863.0685415619612 766.8182759169546 L 862.9573541435999 766.9136543975205 L 862.8440624321273 767.0085254895238 L 862.7286777566204 767.102879705934 L 862.6112116554503 767.1967076114083 L 862.4916758751294 767.2899998232343 L 862.3700823691362 767.3827470122685 L 862.2464432967198 767.4749399038694 L 862.1207710216844 767.5665692788245 L 861.993078111153 767.6576259742728 L 861.8633773343099 767.7481008846207 L 861.731681661125 767.8379849624524 L 861.5980042610557 767.9272692194351 L 861.4623585017308 768.0159447272174 L 861.324757947613 768.1040026183225 L 861.1852163586431 768.1914340870347 L 861.0437476888637 768.2782303902801 L 860.900366085024 768.3643828485004 L 860.7550858851648 768.4498828465217 L 860.607921617185 768.5347218344157 L 860.4588879973888 768.6188913283539 L 860.3079999290139 768.7023829114573 L 860.1552725007416 768.7851882346372 L 860.0007209851874 768.86729901743 L 859.8443608373739 768.9487070488262 L 859.6862076931856 769.0294041880903 L 859.5262773678053 769.1093823655757 L 859.3645858541321 769.1886335835311 L 859.2011493211828 769.2671499169011 L 859.0359841124742 769.3449235141175 L 858.8691067443899 769.4219465978855 L 858.7005339045274 769.4982114659609 L 858.5302824500303 769.5737104919205 L 858.3583694059022 769.6484361259245 L 858.1848119633041 769.7223808954718 L 858.0096274778358 769.7955374061472 L 857.8328334677998 769.8678983423604 L 857.6544476124498 769.9394564680782 L 857.4744877502225 770.0102046275478 L 857.2929718769544 770.0801357460118 L 857.1099181440815 770.149242830417 L 856.9253448568245 770.2175189701125 L 856.7392704723583 770.284957337541 L 856.5517135979663 770.3515511889221 L 856.3626929891797 770.4172938649263 L 856.1722275479018 770.4821787913405 L 855.980336320518 770.5461994797264 L 855.7870384959912 770.6093495280684 L 855.5923534039426 770.6716226214141 L 855.3963005127194 770.7330125325065 L 855.1988994274473 770.7935131224052 L 855.0001698880702 770.8531183411019 L 854.8001317673765 770.9118222281243 L 854.5988050690115 770.9696189131325 L 854.3962099254775 771.0265026165065 L 854.1923665961197 771.082467649923 L 853.9872954651014 771.1375084169256 L 853.7810170393647 771.1916194134833 L 853.5735519465803 771.2447952285415 L 853.3649209330846 771.2970305445631 L 853.1551448618052 771.34832013806 L 852.9442447101742 771.3986588801156 L 852.7322415680311 771.4480417368975 L 852.5191566355135 771.4964637701614 L 852.3050112209371 771.5439201377443 L 852.0898267386648 771.5904060940488 L 851.8736247069655 771.6359169905182 L 851.6564267458624 771.6804482761007 L 851.4382545749704 771.7239954977049 L 851.2191300113249 771.7665543006448 L 850.9990749671995 771.8081204290756 L 850.7781114479154 771.8486897264194 L 850.5562615496405 771.8882581357798 L 850.3335474571794 771.9268217003491 L 850.1099914417559 771.964376563803 L 849.8856158587855 772.0009189706864 L 849.6604431456392 772.036445266789 L 849.4344958194008 772.0709518995108 L 849.2077964746146 772.1044354182175 L 848.9803677810262 772.1368924745848 L 848.7522324813153 772.1683198229343 L 848.5234133888221 772.1987143205574 L 848.2939333852647 772.2280729280295 L 848.0638154184527 772.2563927095146 L 847.8330824999906 772.2836708330577 L 847.6017577029783 772.3099045708697 L 847.3698641597024 772.3350912995983 L 847.1374250593243 772.3592285005917 L 846.9044636455602 772.38231376015 L 846.6710032143573 772.4043447697665 L 846.4370671115643 772.4253193263585 L 846.2026787305963 772.4452353324879 L 845.9678615100963 772.4640907965705 L 845.7326389315907 772.4818838330758 L 845.4970345171411 772.498612662715 L 845.2610718269927 772.5142756126189 L 845.0247744572181 772.5288711165057 L 844.7881660373571 772.5423977148371 L 844.5512702280545 772.5548540549646 L 844.314110718694 772.5662388912646 L 844.0767112250288 772.5765510852627 L 843.8390954868104 772.5857896057485 L 843.6012872654147 772.5939535288774 L 843.3633103414656 772.6010420382638 L 843.1251885124573 772.6070544250629 L 842.8869455903741 772.6119900880409 L 842.6486053993098 772.6158485336357 L 842.4101917730848 772.6186293760059 L 842.171728552863 772.6203323370695 L 841.9332395847679 772.6209572465319 L 841.6947487174973 772.6205040419027 L 841.4562797999395 772.618972768502 L 841.2178566787873 772.6163635794558 L 840.9795031961543 772.6126767356807 L 840.7412431871899 772.6079126058584 L 840.5031004776966 772.6020716663975 L 840.265098881747 772.5951545013872 L 840.0272621993022 772.5871618025384 L 839.7896142138322 772.5780943691142 L 839.5521786899377 772.5679531078503 L 839.314979370973 772.5567390328645 L 839.0780399766726 772.5444532655549 L 838.8413842007783 772.5310970344881 L 838.6050357086705 772.5166716752759 L 838.3690181350014 772.5011786304424 L 838.1333550813318 772.484619449279 L 837.8980701137707 772.46699578769 L 837.6631867606187 772.4483094080271 L 837.4287285100154 772.4285621789123 L 837.1947188075906 772.4077560750526 L 836.9611810541192 772.3858931770405 L 836.7281386031823 772.362975671148 L 836.4956147588306 772.3390058491063 L 836.2636327732547 772.3139861078779 L 836.0322158444601 772.2879189494158 L 835.8013871139466 772.2608069804143 L 835.571169664395 772.2326529120477 L 835.3415865173585 772.2034595596992 L 835.1126606309601 772.1732298426799 L 834.8844148975982 772.1419667839363 L 834.6568721416555 772.1096735097482 L 834.4300551172182 772.0763532494159 L 834.2039865057998 772.042009334938 L 833.9786889140728 772.0066452006771 L 833.7541848716087 771.9702643830173 L 833.5304968286248 771.9328705200099 L 833.3076471537389 771.8944673510101 L 833.0856581317328 771.8550587163029 L 832.8645519613237 771.8146485567188 L 832.6443507529443 771.7732409132401 L 832.4250765265322 771.7308399265967 L 832.206751209327 771.6874498368519 L 831.9893966336786 771.6430749829785 L 831.7730345348635 771.597719802425 L 831.5576865489112 771.5513888306715 L 831.343374210441 771.5040867007766 L 831.1301189505078 771.455818142914 L 830.9179420944604 771.4065879838993 L 830.7068648598071 771.3564011467071 L 830.4969083540957 771.3052626499795 L 830.2880935728018 771.2531776075234 L 830.0804413972295 771.2001512277999 L 829.8739725924233 771.1461888134027 L 829.6687078050917 771.091295760528 L 829.4646675615422 771.0354775584357 L 829.2618722656292 770.9787397888994 L 829.0603421967135 770.9210881256486 L 828.8600975076338 770.8625283338017 L 828.6611582226922 770.8030662692892 L 828.4635442356514 770.7427078782678 L 828.2672753077455 770.6814591965264 L 828.0723710657037 770.619326348882 L 827.8788509997878 770.5563155485679 L 827.686734461843 770.4924330966114 L 827.4960406633633 770.4276853812045 L 827.3067886735693 770.3620788770647 L 827.1189974175023 770.2956201447879 L 826.9326856741317 770.2283158301918 L 826.7478720744763 770.1601726636519 L 826.5645750997422 770.091197459428 L 826.3828130794741 770.0213971149831 L 826.2026041897225 769.9507786102934 L 826.0239664512262 769.8793490071505 L 825.8469177276103 769.8071154484552 L 825.6714757235994 769.7340851575033 L 825.497657983248 769.660265437263 L 825.3254818881851 769.5856636696446 L 825.1549646558767 769.510287314763 L 824.9861233379041 769.4341439101906 L 824.8189748182582 769.3572410702046 L 824.6535358116519 769.2795864850249 L 824.4898228618476 769.2011879200452 L 824.3278523400044 769.1220532150568 L 824.1676404430391 769.042190283464 L 824.0092031920079 768.9616071114937 L 823.8525564305041 768.8803117573958 L 823.6977158230733 768.798312350638 L 823.5446968536469 768.7156170910926 L 823.3935148239947 768.6322342482167 L 823.2441848521934 768.548172160225 L 823.0967218711158 768.4634392332564 L 822.9511406269373 768.378043940533 L 822.8074556776609 768.2919948215126 L 822.6656813916617 768.2053004810358 L 822.5258319462503 768.1179695884641 L 822.3879213262545 768.0300108768141 L 822.2519633226215 767.9414331418837 L 822.1179715310384 767.8522452413725 L 821.9859593505727 767.7624560939964 L 821.8559399823323 767.6720746785951 L 821.7279264281458 767.5811100332348 L 821.6019314892619 767.4895712543046 L 821.4779677650696 767.3974674956056 L 821.3560476518379 767.3048079674372 L 821.2361833414765 767.211601935675 L 821.1183868203166 767.1178587208445 L 821.0026698679121 767.0235876971891 L 820.8890440558619 766.9287982917325 L 820.7775207466525 766.8334999833362 L 820.6681110925218 766.7377023017518 L 820.5608260343441 766.6414148266676 L 820.4556763005359 766.5446471867508 L 820.3526724059828 766.4474090586847 L 820.2518246509885 766.3497101662011 L 820.1531431202444 766.251560279108 L 820.0566376818215 766.1529692123122 L 819.962317986183 766.0539468248381 L 819.87019346522 765.9545030188422 L 819.7802733313079 765.854647738622 L 819.6925665763849 765.7543909696224 L 819.6070819710536 765.6537427374367 L 819.5238280637034 765.5527131068043 L 819.4428131796553 765.4513121806041 L 819.3640454203305 765.349550098844 L 819.2875326624393 765.2474370376477 L 819.2132825571935 765.1449832082361 L 819.1413025295419 765.0421988559067 L 819.0715997774272 764.9390942590092 L 819.0041812710667 764.8356797279172 L 818.9390537522547 764.7319656039977 L 818.8762237336888 764.6279622585768 L 818.8156974983186 764.5236800919021 L 818.7574810987171 764.4191295321036 L 818.7015803564759 764.3143210341501 L 818.6480008616224 764.2092650788039 L 818.5967479720616 764.1039721715733 L 818.5478268130398 763.998452841661 L 818.501242276632 763.8927176409122 L 818.4569990212531 763.7867771427588 L 818.4151014711916 763.6806419411623 L 818.3755538161679 763.5743226495546 L 818.3383600109142 763.467829899776 L 818.3035237747804 763.3611743410129 L 818.2710485913607 763.2543666387323 L 818.2409377081467 763.1474174736154 L 818.2131941362014 763.0403375404895 L 818.1878206498591 762.9331375472588 L 818.1648197864471 762.8258282138331 L 818.1441938460326 762.7184202710566 L 818.1259448911925 762.6109244596339 L 818.1100747468071 762.5033515290567 L 818.0965849998776 762.3957122365281 L 818.0854769993673 762.288017345888 L 818.0767518560673 762.1802776265355 L 818.0704104424843 762.0725038523528 L 818.0664533927547 761.9647068006276 L 818.06488110258 761.8568972509752" stroke-miterlimit="10" stroke-width="2.7769845610000004" stroke-dasharray=""/></g><g><g/><text fill="black" stroke="none" font-family="sans-serif" font-size="11pt" font-style="normal" font-weight="normal" text-decoration="normal" x="810.5363027267578" y="710.2694896688181" text-anchor="start" dominant-baseline="alphabetic" xml:space="preserve">Database</text></g></g><g><path fill="white" stroke="black" paint-order="fill stroke markers" d=" M 73.50841485 182.64242307881818 L 89.84361814999998 182.64242307881818 L 89.84361814999998 636.7610748188181 L 73.50841485 636.7610748188181 L 73.50841485 182.64242307881818" stroke-miterlimit="10" stroke-width="1.3612669416666667" stroke-dasharray=""/><path fill="white" stroke="black" paint-order="fill stroke markers" d=" M 322.4735267384114 182.64242307881818 L 338.8087300384114 182.64242307881818 L 338.8087300384114 636.7610748188181 L 322.4735267384114 636.7610748188181 L 322.4735267384114 182.64242307881818" stroke-miterlimit="10" stroke-width="1.3612669416666667" stroke-dasharray=""/><path fill="white" stroke="black" paint-order="fill stroke markers" d=" M 601.6319217078775 228.3809923188182 L 617.9671250078776 228.3809923188182 L 617.9671250078776 612.258269868818 L 601.6319217078775 612.258269868818 L 601.6319217078775 228.3809923188182" stroke-miterlimit="10" stroke-width="1.3612669416666667" stroke-dasharray=""/><path fill="white" stroke="black" paint-order="fill stroke markers" d=" M 833.7466460230468 295.3553258488182 L 850.0818493230469 295.3553258488182 L 850.0818493230469 386.8324643288182 L 833.7466460230468 386.8324643288182 L 833.7466460230468 295.3553258488182" stroke-miterlimit="10" stroke-width="1.3612669416666667" stroke-dasharray=""/><g><text fill="black" stroke="none" font-family="sans-serif" font-size="16pt" font-style="normal" font-weight="normal" text-decoration="normal" x="384.0870895385742" y="24.651306798181814" text-anchor="start" dominant-baseline="alphabetic" xml:space="preserve">Chitittng</text></g><g><rect fill="white" stroke="none" x="116.92234987156895" y="161.4066587888182" width="178.47244514527344" height="21.23576429"/><text fill="black" stroke="none" font-family="sans-serif" font-size="11pt" font-style="normal" font-weight="normal" text-decoration="normal" x="119.37263036656896" y="176.10834175881817" text-anchor="start" dominant-baseline="alphabetic" xml:space="preserve">Chntngcnxemchitit</text></g><g><path fill="none" stroke="black" paint-order="fill stroke markers" d=" M 89.84361814999998 182.64242307881818 L 309.02420935474476 182.64242307881818" stroke-miterlimit="10" stroke-width="1.3612669416666667" stroke-dasharray=""/><g transform="translate(322.4735267384114,182.64242307881818) translate(-322.4735267384114,-182.64242307881818)"><path fill="black" stroke="none" paint-order="stroke fill markers" d=" M 308.86085732174473 175.83608837048484 L 322.4735267384114 182.64242307881818 L 308.86085732174473 189.44875778715152 Z"/></g></g><g><rect fill="white" stroke="none" x="381.381381132539" y="207.1452280288182" width="177.67788948121094" height="21.23576429"/><text fill="black" stroke="none" font-family="sans-serif" font-size="11pt" font-style="normal" font-weight="normal" text-decoration="normal" x="383.831661627539" y="221.84691099881817" text-anchor="start" dominant-baseline="alphabetic" xml:space="preserve">GiIDtngcnlychitit</text></g><g><path fill="none" stroke="black" paint-order="fill stroke markers" d=" M 338.8087300384114 228.3809923188182 L 588.1826043242108 228.3809923188182" stroke-miterlimit="10" stroke-width="1.3612669416666667" stroke-dasharray=""/><g transform="translate(601.6319217078775,228.3809923188182) translate(-601.6319217078775,-228.3809923188182)"><path fill="black" stroke="none" paint-order="stroke fill markers" d=" M 588.0192522912108 221.57465761048485 L 601.6319217078775 228.3809923188182 L 588.0192522912108 235.18732702715153 Z"/></g></g><g><rect fill="white" stroke="none" x="637.2971155795443" y="252.88379726881823" width="103.49751533570313" height="21.23576429"/><text fill="black" stroke="none" font-family="sans-serif" font-size="11pt" font-style="normal" font-weight="normal" text-decoration="normal" x="639.7473960745443" y="267.5854802388182" text-anchor="start" dominant-baseline="alphabetic" xml:space="preserve">Kimtraquyn</text></g><g><path fill="none" stroke="black" paint-order="fill stroke markers" d=" M 617.9671250078776 274.1195615588182 L 683.3079382078776 274.1195615588182 L 683.3079382078776 295.3553258488182 L 631.4164423915443 295.3553258488182" stroke-miterlimit="10" stroke-width="1.3612669416666667" stroke-dasharray=""/><g transform="translate(617.9671250078776,295.3553258488182) translate(-617.9671250078776,-295.3553258488182)"><path fill="black" stroke="none" paint-order="stroke fill markers" d=" M 631.5797944245443 288.5489911404849 L 617.9671250078776 295.3553258488182 L 631.5797944245443 302.16166055715155 Z"/></g></g><g><rect fill="white" stroke="none" x="644.2334101352083" y="319.8581307988182" width="163.24695076050781" height="21.23576429"/><text fill="black" stroke="none" font-family="sans-serif" font-size="11pt" font-style="normal" font-weight="normal" text-decoration="normal" x="646.6836906302083" y="334.5598137688182" text-anchor="start" dominant-baseline="alphabetic" xml:space="preserve">Truyvnlychitittng</text></g><g><path fill="none" stroke="black" paint-order="fill stroke markers" d=" M 617.9671250078776 341.0938950888182 L 820.2973286393801 341.0938950888182" stroke-miterlimit="10" stroke-width="1.3612669416666667" stroke-dasharray=""/><g transform="translate(833.7466460230468,341.0938950888182) translate(-833.7466460230468,-341.0938950888182)"><path fill="black" stroke="none" paint-order="stroke fill markers" d=" M 820.1339766063801 334.2875603804849 L 833.7466460230468 341.0938950888182 L 820.1339766063801 347.90022979715155 Z"/></g></g><g><rect fill="white" stroke="none" x="637.2971155795442" y="365.5967000388182" width="177.11953987183594" height="21.23576429"/><text fill="black" stroke="none" font-family="sans-serif" font-size="11pt" font-style="normal" font-weight="normal" text-decoration="normal" x="639.7473960745442" y="380.2983830088182" text-anchor="start" dominant-baseline="alphabetic" xml:space="preserve">Trvbnghichitittng</text></g><g><path fill="none" stroke="black" paint-order="fill stroke markers" d=" M 833.7466460230468 386.8324643288182 L 631.4164423915443 386.8324643288182" stroke-miterlimit="10" stroke-width="1.3612669416666667" stroke-dasharray="6.53408132"/><g transform="translate(617.9671250078776,386.8324643288182) translate(-617.9671250078776,-386.8324643288182)"><path fill="black" stroke="none" paint-order="stroke fill markers" d=" M 631.5797944245443 380.0261296204849 L 617.9671250078776 386.8324643288182 L 631.5797944245443 393.63879903715156 Z"/></g></g><g><rect fill="white" stroke="none" x="377.5875426315624" y="455.4403181888182" width="185.26556648316406" height="21.23576429"/><text fill="black" stroke="none" font-family="sans-serif" font-size="11pt" font-style="normal" font-weight="normal" text-decoration="normal" x="380.03782312656244" y="470.1420011588182" text-anchor="start" dominant-baseline="alphabetic" xml:space="preserve">Trvthngtinchitittng</text></g><g><path fill="none" stroke="black" paint-order="fill stroke markers" d=" M 601.6319217078775 476.6760824788182 L 352.25804742207805 476.6760824788182" stroke-miterlimit="10" stroke-width="1.3612669416666667" stroke-dasharray="6.53408132"/><g transform="translate(338.8087300384114,476.6760824788182) translate(-338.8087300384114,-476.6760824788182)"><path fill="black" stroke="none" paint-order="stroke fill markers" d=" M 352.4213994550781 469.8697477704849 L 338.8087300384114 476.6760824788182 L 352.4213994550781 483.48241718715155 Z"/></g></g><g><rect fill="white" stroke="none" x="109.17360872166661" y="501.17888742881814" width="193.96992744507813" height="21.23576429"/><text fill="black" stroke="none" font-family="sans-serif" font-size="11pt" font-style="normal" font-weight="normal" text-decoration="normal" x="111.62388921666661" y="515.8805703988181" text-anchor="start" dominant-baseline="alphabetic" xml:space="preserve">Hinththngtinchitittng</text></g><g><path fill="none" stroke="black" paint-order="fill stroke markers" d=" M 322.4735267384114 522.4146517188182 L 103.29293553366665 522.4146517188182" stroke-miterlimit="10" stroke-width="1.3612669416666667" stroke-dasharray="6.53408132"/><g transform="translate(89.84361814999998,522.4146517188182) translate(-89.84361814999998,-522.4146517188182)"><path fill="black" stroke="none" paint-order="stroke fill markers" d=" M 103.45628756666665 515.6083170104848 L 89.84361814999998 522.4146517188182 L 103.45628756666665 529.2209864271515 Z"/></g></g><g><rect fill="white" stroke="none" x="358.13872061007805" y="591.022505578818" width="224.16321052613281" height="21.23576429"/><text fill="black" stroke="none" font-family="sans-serif" font-size="11pt" font-style="normal" font-weight="normal" text-decoration="normal" x="360.58900110507807" y="605.724188548818" text-anchor="start" dominant-baseline="alphabetic" xml:space="preserve">Thngbokhngtmthydliu</text></g><g><path fill="none" stroke="black" paint-order="fill stroke markers" d=" M 601.6319217078775 612.258269868818 L 352.25804742207805 612.258269868818" stroke-miterlimit="10" stroke-width="1.3612669416666667" stroke-dasharray="6.53408132"/><g transform="translate(338.8087300384114,612.258269868818) translate(-338.8087300384114,-612.258269868818)"><path fill="black" stroke="none" paint-order="stroke fill markers" d=" M 352.4213994550781 605.4519351604847 L 338.8087300384114 612.258269868818 L 352.4213994550781 619.0646045771514 Z"/></g></g><g><g/><path fill="none" stroke="black" paint-order="fill stroke markers" d=" M 16.33520329999999 411.3352692788182 L 666.9727349078776 411.3352692788182 L 666.9727349078776 636.7610748188181 L 16.33520329999999 636.7610748188181 L 16.33520329999999 411.3352692788182 Z" stroke-miterlimit="10" stroke-width="2.3336004714285714" stroke-dasharray=""/><path fill="white" stroke="black" paint-order="fill stroke markers" d=" M 16.33520329999999 411.3352692788182 L 16.33520329999999 430.9375132388182 L 62.6944068970703 430.9375132388182 L 72.4955288770703 421.1363912588182 L 72.4955288770703 411.3352692788182 L 16.33520329999999 411.3352692788182" stroke-miterlimit="10" stroke-width="2.3336004714285714" stroke-dasharray=""/><text fill="black" stroke="none" font-family="sans-serif" font-size="8.8pt" font-style="normal" font-weight="bold" text-decoration="normal" x="32.67040659999999" y="424.4034319188182" text-anchor="start" dominant-baseline="alphabetic" xml:space="preserve">alt</text><g><rect fill="white" stroke="none" x="86.3804516820703" y="412.6420855428182" width="70.73279060425781" height="16.988611432000003"/></g><text fill="black" stroke="none" font-family="sans-serif" font-size="8.8pt" font-style="normal" font-weight="bold" text-decoration="normal" x="88.8307321770703" y="424.4034319188182" text-anchor="start" dominant-baseline="alphabetic" xml:space="preserve">[Cdliu]</text><g><path fill="none" stroke="black" paint-order="fill stroke markers" d=" M 16.33520329999999 546.9174566688181 L 666.9727349078776 546.9174566688181" stroke-miterlimit="10" stroke-width="2.3336004714285714" stroke-dasharray="4.083800825"/></g><g/><g><rect fill="white" stroke="none" x="86.3804516820703" y="548.224272932818" width="109.17599739136719" height="16.988611432000003"/></g><text fill="black" stroke="none" font-family="sans-serif" font-size="8.8pt" font-style="normal" font-weight="bold" text-decoration="normal" x="88.8307321770703" y="559.9856193088181" text-anchor="start" dominant-baseline="alphabetic" xml:space="preserve">[Khngcdliu]</text></g><g/></g><g/><g/><g/><g/></g></svg>