<svg xmlns="http://www.w3.org/2000/svg" xmlns:xlink="http://www.w3.org/1999/xlink" version="1.1" width="1034.2840857570313" height="763.3589003938182"><desc>title%20Xem%20danh%20s%C3%A1ch%20t%E1%BA%A7ng%0A%0Abottomparticipants%0A%0Aactor%20Landlord%0Aentity%20Client%0Aentity%20Backend%0Adatabase%20Database%0A%0Aactivate%20Landlord%0Aactivate%20Client%0A%0ALandlord%20-%3E%20Client%3A%20Ch%E1%BB%8Dn%20xem%20danh%20s%C3%A1ch%20t%E1%BA%A7ng%0A%0Aactivate%20Backend%0AClient%20-%3E%20Backend%3A%20G%E1%BB%ADi%20y%C3%AAu%20c%E1%BA%A7u%20l%E1%BA%A5y%20danh%20s%C3%A1ch%20t%E1%BA%A7ng%0A%0Aactivate%20Database%0ABackend%20-%3E%20Database%3A%20Truy%20v%E1%BA%A5n%20danh%20s%C3%A1ch%20t%E1%BA%A7ng%0ADatabase%20--%3E%20Backend%3A%20Tr%E1%BA%A3%20v%E1%BB%81%20danh%20s%C3%A1ch%20t%E1%BA%A7ng%0A%0Adeactivate%20Database%0A%0Aalt%20Danh%20s%C3%A1ch%20kh%C3%B4ng%20tr%E1%BB%91ng%0A%20%20Backend%20--%3E%20Client%3A%20Tr%E1%BA%A3%20v%E1%BB%81%20danh%20s%C3%A1ch%20t%E1%BA%A7ng%20%C4%91%C3%A3%20l%E1%BB%8Dc%0A%20%20Client%20--%3E%20Landlord%3A%20Hi%E1%BB%83n%20th%E1%BB%8B%20danh%20s%C3%A1ch%20t%E1%BA%A7ng%0Aelse%20Danh%20s%C3%A1ch%20tr%E1%BB%91ng%0A%20%20Backend%20--%3E%20Client%3A%20Tr%E1%BA%A3%20v%E1%BB%81%20th%C3%B4ng%20b%C3%A1o%20danh%20s%C3%A1ch%20tr%E1%BB%91ng%0A%20%20Client%20--%3E%20Landlord%3A%20Hi%E1%BB%83n%20th%E1%BB%8B%20th%C3%B4ng%20b%C3%A1o%20%22Kh%C3%B4ng%20c%C3%B3%20t%E1%BA%A7ng%20n%C3%A0o%20%C4%91%C6%B0%E1%BB%A3c%20t%C3%ACm%20th%E1%BA%A5y%22%0Aend%0A%0Adeactivate%20Landlord%0Adeactivate%20Client%0Adeactivate%20Backend%0A</desc><defs/><g><g/><g/><g/><g/><g/><g/><g/><g/><g/><g/><g/><g/><g/><g/><g/><g/><g/><g/><g/><g/><g/><g/><g/><g/><g/><g/><g/><g/><g/><g/><g/><g/><g/><g/><g/><g/><g/><g/><g/><g/><g/><g/><g/><g/><g/><g/><g/><g/><g/><g/><g/><g/><g/><g/><g/><g/><g/><g/><g/><g/><g/><g/><g/><g/><g/><g/><g/><g/><g/><g/><g/><g/><g/><g/><g/><g/><g/><g/><g/><g/><g/><g/><g/><g/><g/><g/><g/><g/><g/><g/><g/><g/><g/><g/><g/><g/><g/><g/><g/><g/><g/><g/><g/><g/><g/><g/><g/><g/><g/><g/><g/><g/><g><rect fill="white" stroke="none" x="0" y="0" width="1034" height="763"/></g><g/><g><path fill="none" stroke="black" paint-order="fill stroke markers" d=" M 81.67601649999999 128.73625218881818 L 81.67601649999999 672.6985220788182" stroke-miterlimit="10" stroke-width="1.3612669416666667" stroke-dasharray="12.565541,5.445067766666667"/><path fill="none" stroke="black" paint-order="fill stroke markers" d=" M 493.3325956735677 128.73625218881818 L 493.3325956735677 672.6985220788182" stroke-miterlimit="10" stroke-width="1.3612669416666667" stroke-dasharray="12.565541,5.445067766666667"/><path fill="none" stroke="black" paint-order="fill stroke markers" d=" M 772.7343530697917 128.73625218881818 L 772.7343530697917 672.6985220788182" stroke-miterlimit="10" stroke-width="1.3612669416666667" stroke-dasharray="12.565541,5.445067766666667"/><path fill="none" stroke="black" paint-order="fill stroke markers" d=" M 993.4460775070313 128.73625218881818 L 993.4460775070313 672.6985220788182" stroke-miterlimit="10" stroke-width="1.3612669416666667" stroke-dasharray="12.565541,5.445067766666667"/></g><g><g><path fill="white" stroke="black" paint-order="fill stroke markers" d=" M 90.987082381 59.63834222981819 A 9.311065881 9.311065881 0 1 1 90.98707772546743 59.62903116548903 M 81.67601649999999 68.9494081108182 L 81.67601649999999 88.8783561368182 M 69.914670124 76.13689756281819 L 93.43736287599998 76.13689756281819 M 81.67601649999999 88.8783561368182 L 69.914670124 107.50048789881819 M 81.67601649999999 88.8783561368182 L 93.43736287599998 107.50048789881819" stroke-miterlimit="10" stroke-width="2.7769845610000004" stroke-dasharray=""/></g><g><g/><text fill="black" stroke="none" font-family="sans-serif" font-size="11pt" font-style="normal" font-weight="normal" text-decoration="normal" x="53.1470400595703" y="123.83569119881818" text-anchor="start" dominant-baseline="alphabetic" xml:space="preserve">Landlord</text></g><g><path fill="white" stroke="black" paint-order="fill stroke markers" d=" M 517.5903725740677 79.63263106901819 A 24.2577769005 24.2577769005 0 1 1 517.5903604451803 79.60837329616064 M 467.68632649256773 106.11199561831819 L 518.9788648545677 106.11199561831819" stroke-miterlimit="10" stroke-width="2.7769845610000004" stroke-dasharray=""/></g><g><g/><text fill="black" stroke="none" font-family="sans-serif" font-size="11pt" font-style="normal" font-weight="normal" text-decoration="normal" x="474.59244522190755" y="123.83569119881818" text-anchor="start" dominant-baseline="alphabetic" xml:space="preserve">Client</text></g><g><path fill="white" stroke="black" paint-order="fill stroke markers" d=" M 796.9921299702917 79.63263106901819 A 24.2577769005 24.2577769005 0 1 1 796.9921178414043 79.60837329616064 M 747.0880838887917 106.11199561831819 L 798.3806222507917 106.11199561831819" stroke-miterlimit="10" stroke-width="2.7769845610000004" stroke-dasharray=""/></g><g><g/><text fill="black" stroke="none" font-family="sans-serif" font-size="11pt" font-style="normal" font-weight="normal" text-decoration="normal" x="744.2089548153972" y="123.83569119881818" text-anchor="start" dominant-baseline="alphabetic" xml:space="preserve">Backend</text></g><g><path fill="white" stroke="black" paint-order="fill stroke markers" d=" M 969.5966806890314 96.71925372081819 L 969.5966806890314 62.41532679081819 L 1017.2954743250313 62.41532679081819 L 1017.2954743250313 96.71925372081819" stroke-miterlimit="10" stroke-width="2.7769845610000004" stroke-dasharray=""/><path fill="white" stroke="black" paint-order="fill stroke markers" d=" M 1017.2954743250313 61.22285694991819 L 1017.2942818651276 61.33066749483481 L 1017.2907046046615 61.43846725878678 L 1017.2847429013563 61.546245461887544 L 1017.2763973513769 61.65399132640659 L 1017.2656687892717 61.761694077847274 L 1017.2525582878878 61.86934294602419 L 1017.2370671582646 61.976927166140236 L 1017.219196949502 62.084435979863045 L 1017.198949448606 62.19185863640084 L 1017.1763266803098 62.299184393577484 L 1017.1513309068714 62.4064025189067 L 1017.1239646278474 62.51350229066531 L 1017.0942305798428 62.62047299896537 L 1017.0621317362377 62.7273039468252 L 1017.0276713068896 62.83398445123905 L 1016.9908527378128 62.94050384424536 L 1016.9516797108334 63.04685147399361 L 1016.9101561432217 63.15301670580944 L 1016.8662861872997 63.25898892325815 L 1016.8200742300263 63.364757529206294 L 1016.771524892559 63.47031194688142 L 1016.720643029791 63.575641620929716 L 1016.667433729866 63.68073601847156 L 1016.6119023136698 63.78558463015478 L 1016.5540543342978 63.89017697120557 L 1016.4938955764997 63.994502582477 L 1016.431432056101 64.09855103149486 L 1016.3666700194018 64.20231191350096 L 1016.2996159425518 64.3057748524936 L 1016.2302765309029 64.40892950226505 L 1016.1586587183382 64.51176554743633 L 1016.0847696665795 64.61427270448858 L 1016.0086167644705 64.71644072279157 L 1015.9302076272377 64.81825938562858 L 1015.8495500957296 64.91971851121816 L 1015.7666522356321 65.02080795373233 L 1015.6815223366623 65.12151760431107 L 1015.5941689117388 65.22183739207324 L 1015.5046006961317 65.32175728512367 L 1015.4128266465876 65.42126729155632 L 1015.3188559404352 65.52035746045347 L 1015.2226979746666 65.6190178828808 L 1015.1243623649985 65.71723869287828 L 1015.0238589449098 65.81501006844678 L 1014.9211977646586 65.91232223253022 L 1014.8163890902775 66.00916545399325 L 1014.7094434025466 66.10553004859446 L 1014.6003713959457 66.20140637995469 L 1014.4891839775844 66.29678486052069 L 1014.3758922661118 66.39165595252388 L 1014.2605075906049 66.48601016893414 L 1014.1430414894348 66.57983807440844 L 1014.0235057091139 66.67313028623443 L 1013.9019122031207 66.76587747526865 L 1013.7782731307043 66.85807036686953 L 1013.6526008556689 66.94969974182469 L 1013.5249079451374 67.04075643727302 L 1013.3952071682944 67.13123134762085 L 1013.2635114951095 67.22111542545254 L 1013.1298340950402 67.3103996824352 L 1012.9941883357153 67.39907519021754 L 1012.8565877815975 67.4871330813227 L 1012.7170461926275 67.57456455003492 L 1012.5755775228482 67.6613608532802 L 1012.4321959190084 67.74751331150055 L 1012.2869157191493 67.83301330952195 L 1012.1397514511694 67.91785229741582 L 1011.9907178313733 68.00202179135408 L 1011.8398297629984 68.08551337445749 L 1011.6871023347261 68.1683186976373 L 1011.5325508191718 68.25042948043021 L 1011.3761906713584 68.33183751182635 L 1011.21803752717 68.41253465109044 L 1011.0581072017898 68.4925128285758 L 1010.8964156881166 68.5717640465313 L 1010.7329791551673 68.65028037990122 L 1010.5678139464587 68.72805397711764 L 1010.4009365783744 68.80507706088565 L 1010.2323637385119 68.88134192896105 L 1010.0621122840148 68.95684095492061 L 1009.8901992398867 69.03156658892462 L 1009.7166417972886 69.10551135847197 L 1009.5414573118203 69.17866786914732 L 1009.3646633017843 69.25102880536058 L 1009.1862774464342 69.3225869310784 L 1009.006317584207 69.39333509054786 L 1008.8248017109389 69.46326620901198 L 1008.641747978066 69.53237329341717 L 1008.457174690809 69.60064943311258 L 1008.2711003063428 69.66808780054113 L 1008.0835434319508 69.7346816519223 L 1007.8945228231642 69.80042432792644 L 1007.7040573818863 69.86530925434072 L 1007.5121661545024 69.92932994272657 L 1007.3188683299757 69.9924799910685 L 1007.1241832379271 70.05475308441433 L 1006.9281303467039 70.1161429955066 L 1006.7307292614317 70.17664358540536 L 1006.5319997220547 70.23624880410202 L 1006.331961601361 70.29495269112441 L 1006.130634902996 70.35274937613272 L 1005.928039759462 70.40963307950663 L 1005.7241964301041 70.46559811292322 L 1005.5191252990859 70.52063887992576 L 1005.3128468733491 70.57474987648341 L 1005.1053817805648 70.62792569154163 L 1004.8967507670691 70.68016100756323 L 1004.6869746957897 70.73145060106012 L 1004.4760745441587 70.78178934311569 L 1004.2640714020156 70.8311721998977 L 1004.050986469498 70.8795942331616 L 1003.8368410549216 70.92705060074444 L 1003.6216565726493 70.973536557049 L 1003.40545454095 71.01904745351838 L 1003.1882565798469 71.06357873910088 L 1002.9700844089549 71.10712596070502 L 1002.7509598453094 71.14968476364494 L 1002.530904801184 71.19125089207583 L 1002.3099412818999 71.23182018941947 L 1002.0880913836249 71.27138859877994 L 1001.8653772911639 71.30995216334925 L 1001.6418212757404 71.34750702680313 L 1001.41744569277 71.38404943368649 L 1001.1922729796237 71.4195757297891 L 1000.9663256533853 71.45408236251096 L 1000.7396263085991 71.48756588121756 L 1000.5121976150107 71.52002293758491 L 1000.2840623152998 71.55145028593446 L 1000.0552432228066 71.58184478355753 L 999.8257632192492 71.61120339102969 L 999.5956452524372 71.63952317251467 L 999.3649123339751 71.66680129605793 L 999.1335875369628 71.69303503386982 L 998.9016939936869 71.71822176259843 L 998.6692548933088 71.7423589635919 L 998.4362934795447 71.7654442231502 L 998.2028330483417 71.78747523276665 L 997.9688969455487 71.80844978935863 L 997.7345085645808 71.82836579548797 L 997.4996913440808 71.84722125957065 L 997.2644687655752 71.86501429607597 L 997.0288643511255 71.8817431257151 L 996.7929016609772 71.89740607561903 L 996.5566042912026 71.91200157950583 L 996.3199958713416 71.92552817783725 L 996.083100062039 71.93798451796474 L 995.8459405526785 71.94936935426468 L 995.6085410590133 71.95968154826289 L 995.3709253207949 71.96892006874862 L 995.1331170993992 71.97708399187748 L 994.8951401754501 71.98417250126396 L 994.6570183464418 71.99018488806304 L 994.4187754243586 71.99512055104105 L 994.1804352332942 71.99897899663581 L 993.9420216070693 72.00175983900598 L 993.7035583868475 72.00346280006961 L 993.4650694187524 72.00408770953204 L 993.2265785514818 72.00363450490285 L 992.988109633924 72.0021032315021 L 992.7496865127717 71.99949404245586 L 992.5113330301388 71.9958071986809 L 992.2730730211744 71.99104306885846 L 992.0349303116811 71.98520212939759 L 991.7969287157315 71.97828496438737 L 991.5590920332867 71.97029226553852 L 991.3214440478167 71.96122483211428 L 991.0840085239222 71.95108357085043 L 990.8468092049575 71.93986949586466 L 990.6098698106571 71.92758372855508 L 990.3732140347628 71.91422749748824 L 990.136865542655 71.89980213827607 L 989.9008479689859 71.8843090934425 L 989.6651849153163 71.86774991227908 L 989.4298999477552 71.85012625069015 L 989.1950165946032 71.83143987102717 L 988.9605583439999 71.81169264191253 L 988.726548641575 71.79088653805269 L 988.4930108881036 71.7690236400407 L 988.2599684371668 71.74610613414815 L 988.0274445928151 71.72213631210651 L 987.7954626072392 71.69711657087802 L 987.5640456784446 71.67104941241597 L 987.3332169479311 71.64393744341446 L 987.1029994983795 71.6157833750478 L 986.8734163513429 71.58659002269937 L 986.6444904649446 71.55636030568009 L 986.4162447315827 71.52509724693644 L 986.18870197564 71.49280397274828 L 985.9618849512027 71.45948371241609 L 985.7358163397843 71.42513979793813 L 985.5105187480573 71.38977566367726 L 985.2860147055932 71.35339484601741 L 985.0623266626093 71.31600098301004 L 984.8394769877234 71.27759781401028 L 984.6174879657173 71.23818917930303 L 984.3963817953082 71.19777901971894 L 984.1761805869288 71.15637137624027 L 983.9569063605167 71.11397038959687 L 983.7385810433115 71.07058029985207 L 983.521226467663 71.02620544597868 L 983.304864368848 70.98085026542512 L 983.0895163828957 70.93451929367163 L 982.8752040444255 70.8872171637768 L 982.6619487844923 70.8389486059142 L 982.4497719284449 70.78971844689937 L 982.2386946937916 70.7395316097072 L 982.0287381880802 70.6883931129796 L 981.8199234067863 70.6363080705236 L 981.612271231214 70.58328169080006 L 981.4058024264078 70.52931927640276 L 981.2005376390762 70.47442622352818 L 980.9964973955267 70.41860802143584 L 980.7937020996137 70.36187025189946 L 980.592172030698 70.3042185886487 L 980.3919273416183 70.24565879680183 L 980.1929880566767 70.18619673228926 L 979.9953740696359 70.12583834126788 L 979.79910514173 70.06458965952649 L 979.6042008996882 70.00245681188221 L 979.4106808337723 69.93944601156807 L 979.2185642958275 69.87556355961155 L 979.0278704973477 69.81081584420461 L 978.8386185075537 69.74520934006487 L 978.6508272514868 69.67875060778805 L 978.4645155081162 69.61144629319199 L 978.2797019084608 69.54330312665208 L 978.0964049337267 69.47432792242817 L 977.9146429134585 69.40452757798322 L 977.734434023707 69.3339090732935 L 977.5557962852107 69.26247947015062 L 977.3787475615948 69.19024591145539 L 977.2033055575839 69.11721562050347 L 977.0294878172325 69.0433959002631 L 976.8573117221696 68.96879413264479 L 976.6867944898612 68.89341777776313 L 976.5179531718886 68.81727437319081 L 976.3508046522427 68.74037153320482 L 976.1853656456364 68.66271694802508 L 976.0216526958321 68.58431838304537 L 975.8596821739889 68.5051836780569 L 975.6994702770236 68.4253207464642 L 975.5410330259924 68.34473757449386 L 975.3843862644886 68.26344222039596 L 975.2295456570578 68.18144281363814 L 975.0765266876315 68.09874755409275 L 974.9253446579792 68.01536471121685 L 974.7760146861779 67.9313026232252 L 974.6285517051003 67.84656969625658 L 974.4829704609218 67.76117440353308 L 974.3392855116454 67.67512528451279 L 974.1975112256462 67.5884309440359 L 974.0576617802348 67.50110005146425 L 973.919751160239 67.41314133981427 L 973.783793156606 67.32456360488388 L 973.6498013650229 67.23537570437271 L 973.5177891845572 67.14558655699653 L 973.3877698163168 67.05520514159522 L 973.2597562621303 66.96424049623502 L 973.1337613232464 66.87270171730466 L 973.0097975990541 66.78059795860575 L 972.8878774858224 66.68793843043741 L 972.768013175461 66.59473239867523 L 972.6502166543011 66.50098918384472 L 972.5344997018966 66.40671816018926 L 972.4208738898463 66.31192875473263 L 972.309350580637 66.2166304463364 L 972.1999409265063 66.120832764752 L 972.0926558683286 66.02454528966774 L 971.9875061345203 65.92777764975091 L 971.8845022399673 65.83053952168484 L 971.783654484973 65.73284062920132 L 971.6849729542289 65.63469074210818 L 971.588467515806 65.53609967531233 L 971.4941478201675 65.4370772878383 L 971.4020232992045 65.33763348184232 L 971.3121031652923 65.23777820162212 L 971.2243964103694 65.13752143262249 L 971.1389118050381 65.03687320043682 L 971.0556578976879 64.93584356980442 L 970.9746430136398 64.83444264360419 L 970.895875254315 64.73268056184422 L 970.8193624964238 64.63056750064791 L 970.7451123911779 64.52811367123628 L 970.6731323635264 64.42532931890689 L 970.6034296114117 64.32222472200931 L 970.5360111050512 64.21881019091732 L 970.4708835862392 64.11509606699785 L 970.4080535676733 64.01109272157687 L 970.3475273323031 63.90681055490224 L 970.2893109327016 63.80225999510374 L 970.2334101904604 63.697451497150205 L 970.1798306956069 63.59239554180411 L 970.1285778060461 63.48710263457343 L 970.0796566470243 63.381583304661156 L 970.0330721106164 63.27584810391234 L 969.9888288552376 63.16990760575894 L 969.9469313051761 63.06377240416249 L 969.9073836501524 62.95745311255472 L 969.8701898448987 62.85096036277616 L 969.8353536087649 62.744304804013076 L 969.8028784253452 62.63749710173245 L 969.7727675421312 62.530547936615505 L 969.7450239701859 62.423468003489624 L 969.7196504838436 62.316268010258895 L 969.6966496204316 62.208958676833305 L 969.6760236800171 62.10155073405677 L 969.657774725177 61.99405492263407 L 969.6419045807916 61.88648199205676 L 969.628414833862 61.77884269952825 L 969.6173068333518 61.6711478088881 L 969.6085816900518 61.56340808953563 L 969.6022402764688 61.45563431535299 L 969.5982832267392 61.34783726362778 L 969.5967109365645 61.24002771397536 L 969.5975235631724 61.13221644726084 L 969.600721025301 61.02441424452105 L 969.6063030032067 60.916631885886424 L 969.6142689386963 60.808880149503025 L 969.6246180351831 60.70116981045468 L 969.6373492577659 60.59351163968555 L 969.652461333333 60.48591640292299 L 969.6699527506896 60.378394859601016 L 969.6898217607084 60.27095776178435 L 969.712066376505 60.163615853093255 L 969.7366843736365 60.05637986762915 L 969.7636732903235 59.949260528901206 L 969.7930304276969 59.84226854875404 L 969.8247528500674 59.7354146262965 L 969.8588373852193 59.62870944683179 L 969.8952806247273 59.52216368078894 L 969.9340789242981 59.41578798265577 L 969.9752284041338 59.30959298991343 L 970.0187249493208 59.203589321972714 L 970.0645642102409 59.09778757911208 L 970.112741603006 58.992198341417634 L 970.1632523099173 58.88683216772516 L 970.2160912799459 58.78169959456423 L 970.271253229239 58.67681113510454 L 970.3287326416477 58.57217727810464 L 970.3885237692784 58.46780848686303 L 970.4506206330683 58.36371519817185 L 970.5150170233828 58.25990782127324 L 970.5817065006366 58.15639673681838 L 970.6506823959375 58.053192295829454 L 970.7219378117533 57.950304818664556 L 970.7954656226019 57.84774459398567 L 970.8712584757635 57.745521877729786 L 970.9493087920159 57.64364689208335 L 971.0296087663927 57.54212982446004 L 971.1121503689631 57.44098082648201 L 971.1969253456358 57.340210012964775 L 971.2839252189838 57.2398274609057 L 971.3731412890921 57.13984320847635 L 971.4645646344283 57.040267254018644 L 971.5581861127338 56.94110955504505 L 971.6539963619388 56.84238002724283 L 971.7519858010984 56.74408854348249 L 971.8521446313503 56.646244932830506 L 971.9544628368948 56.54885897956639 L 972.0589301859966 56.45194042220433 L 972.1655362320081 56.35549895251929 L 972.2742703144133 56.25954421457787 L 972.3851215598946 56.16408580377391 L 972.49807888342 56.06913326586893 L 972.6131309893511 55.974696096037604 L 972.7302663725733 55.88078373791821 L 972.8494733196457 55.7874055826683 L 972.9707399099731 55.694570968025594 L 973.0940540169975 55.60228917737418 L 973.219403309411 55.51056943881623 L 973.3467752523886 55.41942092424918 L 973.4761571088425 55.328852748448504 L 973.6075359406946 55.23887396815633 L 973.7408986101711 55.14949358117568 L 973.8762317811165 55.0607205254708 L 974.0135219203264 54.97256367827326 L 974.1527552989012 54.88503185519433 L 974.2939179936191 54.79813380934336 L 974.4369958883282 54.71187823045254 L 974.5819746753583 54.62627374400786 L 974.7288398569516 54.541328910386646 L 974.8775767467123 54.45705222400146 L 975.0281704710752 54.373452112450714 L 975.1806059707936 54.290536935675895 L 975.3348680024444 54.20831498512558 L 975.4909411399531 54.12679448292632 L 975.6488097761359 54.0459835810604 L 975.8084581242608 53.965890360550645 L 975.9698702196259 53.88652283065238 L 976.1330299211564 53.80788892805245 L 976.297920913018 53.72999651607559 L 976.4645267062489 53.652853383898076 L 976.6328306404087 53.57646724576885 L 976.802815885244 53.50084574023808 L 976.9744654423722 53.42599642939328 L 977.1477621469807 53.35192679810317 L 977.3226886695431 53.278644253269164 L 977.4992275175533 53.20615612308466 L 977.6773610372734 53.13446965630228 L 977.8570714155 53.06359202150896 L 978.0383406813448 52.99353030640911 L 978.2211507080325 52.924291517115876 L 978.4054832147127 52.85588257745046 L 978.5913197682885 52.78831032824984 L 978.7786417852591 52.72158152668263 L 978.967430533579 52.65570284557336 L 979.1576671345308 52.590680872735255 L 979.349332564613 52.52652211031142 L 979.542407657442 52.463232974124615 L 979.7368731056697 52.40081979303573 L 979.9327094629133 52.33928880831086 L 980.1298971457 52.278646172997206 L 980.3284164354263 52.21889795130775 L 980.5282474803283 52.160050118014894 L 980.7293702974681 52.1021085578529 L 980.9317647747317 52.045079064929524 L 981.1354106728401 51.98896734214652 L 981.3402876273728 51.933779000629414 L 981.5463751508055 51.87951955916637 L 981.7536526345574 51.826194443656306 L 981.9620993510529 51.77380898656634 L 982.1716944557941 51.72236842639853 L 982.382416989445 51.67187790716602 L 982.594245879928 51.622342477878675 L 982.8071599445307 51.57376709203812 L 983.0211378920238 51.526156607142475 L 983.2361583247911 51.47951578420055 L 983.4521997409682 51.43384928725578 L 983.6692405365937 51.38916168291979 L 983.8872590077691 51.34545743991578 L 984.1062333528287 51.302740928631636 L 984.3261416745204 51.261016420682886 L 984.5469619821956 51.220288088485546 L 984.7686721940073 51.18056000483891 L 984.9912501391192 51.14183614251822 L 985.2146735599222 51.10412037387746 L 985.4389201142603 51.06741647046204 L 985.6639673776652 51.03172810263173 L 985.889792845598 50.99705883919358 L 986.1163739357 50.96341214704502 L 986.3436879900512 50.930791390827245 L 986.5717122774353 50.899199832588685 L 986.8004239956138 50.86864063145883 L 987.0298002736054 50.83911684333235 L 987.2598181739735 50.81063142056343 L 987.4904546951196 50.78318721167063 L 987.721686773584 50.75678696105195 L 987.9534912863513 50.731433308710464 L 988.1858450531637 50.70712878999027 L 988.4187248388379 50.683875835323 L 988.6521073555895 50.66167676998473 L 988.8859692653613 50.6405338138635 L 989.1202871821571 50.6204490812373 L 989.3550376743806 50.60142458056266 L 989.5901972671782 50.583462214273794 L 989.8257424447866 50.566563778592354 L 990.0616496528842 50.55073096334783 L 990.297895300947 50.53596535180856 L 990.5344557646067 50.52226842052339 L 990.7713073880145 50.50964153917403 L 991.0084264862052 50.49808597043808 L 991.2457893474666 50.48760286986282 L 991.4833722357104 50.47819328574954 L 991.7211513928456 50.46985815904882 L 991.959103041155 50.462598323266384 L 992.1972033856717 50.456414504379765 L 992.4354286165599 50.45130732076569 L 992.6737549114949 50.44727728313828 L 992.9121584380459 50.444324794497916 L 993.1506153560588 50.44245015009101 L 993.3891018200407 50.44165353738045 L 993.6275939815437 50.44193503602685 L 993.8660679915505 50.443294617880554 L 994.1045000028589 50.445732146984525 L 994.3428661724664 50.44924737958788 L 994.5811426639547 50.45383996417029 L 994.8193056498732 50.459509441477124 L 995.0573313141217 50.46625524456538 L 995.2951958543322 50.474076698860365 L 995.5328754842488 50.48297302222316 L 995.7703464361069 50.49294332502887 L 996.0075849630089 50.50398661025549 L 996.2445673412998 50.51610177358371 L 996.4812698729394 50.52928760350731 L 996.7176688878717 50.54354278145426 L 996.9537407463923 50.55886588191867 L 997.189461841512 50.575255372603245 L 997.4248086013176 50.592709614572584 L 997.6597574913295 50.61122686241703 L 997.8942850168543 50.630805264427224 L 998.128367725335 50.651442862779284 L 998.3619822086957 50.67313759373059 L 998.5951051056828 50.695887287826096 L 998.8277131042009 50.71968967011537 L 999.059782943644 50.74454236038002 L 999.2912914172215 50.77044287337172 L 999.522215374279 50.797388619060754 L 999.7525317226132 50.825376902895016 L 999.9822174307811 50.85440492606945 L 1000.2112495304035 50.88446978580591 L 1000.4396051184611 50.9155684756435 L 1000.6672613595856 50.947697885739125 L 1000.8941954883423 50.980854803178566 L 1001.1203848115077 51.01503591229771 L 1001.345806710338 51.05023779501413 L 1001.5704386428309 51.08645693116888 L 1001.7942581459806 51.12368969887854 L 1002.0172428380232 51.16193237489736 L 1002.2393704206752 51.201181134989596 L 1002.4606186813637 51.241432054311964 L 1002.6809654954468 51.28268110780607 L 1002.9003888284267 51.32492417060092 L 1003.1188667381531 51.368157018425464 L 1003.336377377017 51.41237532803093 L 1003.5528989941358 51.45757467762322 L 1003.7684099375282 51.503750547305025 L 1003.9828886562794 51.55089831952786 L 1004.1963137026964 51.5990132795538 L 1004.4086637344524 51.64809061592693 L 1004.6199175167211 51.69812542095451 L 1004.8300539243003 51.749112691197745 L 1005.0390519437243 51.801047327972086 L 1005.2468906753655 51.85392413785714 L 1005.4535493355238 51.90773783321599 L 1005.6590072585055 51.962483032723924 L 1005.8632438986895 52.01815426190663 L 1006.0662388325818 52.07474595368758 L 1006.2679717608584 52.132252448944755 L 1006.4684225103945 52.190667997076545 L 1006.6675710362821 52.24998675657682 L 1006.8653974238347 52.310202795619055 L 1007.0618818905783 52.371310092649544 L 1007.2570047882301 52.43330253698949 L 1007.4507466046629 52.49617392944612 L 1007.6430879658562 52.559917982932596 L 1007.8340096378347 52.62452832309667 L 1008.0234925285898 52.68999848895818 L 1008.2115176899907 52.7563219335551 L 1008.3980663196778 52.823492024598224 L 1008.5831197629435 52.89150204513444 L 1008.7666595145978 52.960345194218355 L 1008.9486672208185 53.03001458759244 L 1009.1291246809866 53.10050325837541 L 1009.3080138495064 53.171804157758935 L 1009.4853168376102 53.243910155712484 L 1009.661015915147 53.31681404169635 L 1009.8350935123553 53.39050852538269 L 1010.0075322216206 53.46498623738456 L 1010.1783147992156 53.5402397299928 L 1010.3474241670249 53.61626147792087 L 1010.5148434142525 53.69304387905734 L 1010.6805557991133 53.770579255226075 L 1010.844544750507 53.848859852954064 L 1011.006793869675 53.92787784424677 L 1011.1672869318406 54.00762532737092 L 1011.3260078878315 54.08809432764465 L 1011.482940865684 54.16927679823499 L 1011.6380701722313 54.251164620962534 L 1011.7913802946722 54.33374960711325 L 1011.9428559021219 54.41702349825734 L 1012.092481847146 54.500977967075094 L 1012.2402431672748 54.58560461818958 L 1012.3861250864993 54.670894989006214 L 1012.5301130167492 54.75684055055899 L 1012.6721925593514 54.84343270836337 L 1012.8123495064701 54.93066280327574 L 1012.9505698425273 55.0185221123593 L 1013.0868397456047 55.107001849756344 L 1013.2211455888255 55.196093167566886 L 1013.3534739417173 55.28578715673337 L 1013.483811571555 55.37607484793163 L 1013.6121454446843 55.46694721246779 L 1013.738462727825 55.55839516318112 L 1013.8627507893536 55.65040955535275 L 1013.984997200568 55.742981187620146 L 1014.1051897369288 55.83610080289723 L 1014.2233163792824 55.92975908930006 L 1014.3393653150631 56.02394668107806 L 1014.453324939474 56.11865415955053 L 1014.5651838566476 56.213872054048544 L 1014.6749308807855 56.30959084286201 L 1014.7825550372767 56.405800954191804 L 1014.8880455637951 56.50249276710697 L 1014.9913919113761 56.5996566125068 L 1015.0925837454711 56.69728277408771 L 1015.191610946981 56.79536148931491 L 1015.2884636132679 56.89388295039859 L 1015.3831320591463 56.99283730527477 L 1015.4756068178502 57.09221465859041 L 1015.565878641981 57.19200507269298 L 1015.6539385044314 57.29219856862425 L 1015.7397775992885 57.39278512711811 L 1015.8233873427145 57.49375468960253 L 1015.9047593738044 57.59509715920541 L 1015.9838855554233 57.69680240176424 L 1016.0607579750188 57.79886024683951 L 1016.1353689454129 57.90126048873177 L 1016.2077110055709 58.003992887502164 L 1016.2777769213471 58.10704716999642 L 1016.3455596862082 58.21041303087217 L 1016.4110525219342 58.31408013362946 L 1016.474248879296 58.41803811164441 L 1016.5351424387107 58.52227656920584 L 1016.5937271108731 58.62678508255487 L 1016.6499970373648 58.731553200927245 L 1016.70394659124 58.83657044759845 L 1016.7555703775882 58.94182632093131 L 1016.8048632340739 59.04731029542622 L 1016.8518202314525 59.153011822773635 L 1016.8964366740634 59.25892033290889 L 1016.9387081002994 59.36502523506925 L 1016.9786302830532 59.471315918852895 L 1017.0161992301399 59.57778175528004 L 1017.0514111846959 59.684412097855756 L 1017.0842626255553 59.79119628363465 L 1017.1147502676012 59.89812363428712 L 1017.1428710620949 60.005183457167206 L 1017.1686221969802 60.11236504638185 L 1017.1920010971654 60.21965768386144 L 1017.2130054247797 60.327050640431644 L 1017.231633079408 60.43453317688629 L 1017.2478821983002 60.5420945450613 L 1017.2617511565581 60.6497239889095 L 1017.2732385672974 60.757410745576195 L 1017.2823432817866 60.86514404647545 L 1017.2890643895618 60.972913118366954 L 1017.2934012185177 61.08070718443333 L 1017.2953533349753 61.188515465357796 M 1017.2954743250313 95.52678387991818 L 1017.2942818651276 95.6345944248348 L 1017.2907046046615 95.74239418878678 L 1017.2847429013563 95.85017239188754 L 1017.2763973513769 95.95791825640659 L 1017.2656687892717 96.06562100784727 L 1017.2525582878878 96.1732698760242 L 1017.2370671582646 96.28085409614023 L 1017.219196949502 96.38836290986303 L 1017.198949448606 96.49578556640084 L 1017.1763266803098 96.60311132357748 L 1017.1513309068714 96.7103294489067 L 1017.1239646278474 96.8174292206653 L 1017.0942305798428 96.92439992896537 L 1017.0621317362377 97.0312308768252 L 1017.0276713068896 97.13791138123905 L 1016.9908527378128 97.24443077424536 L 1016.9516797108334 97.35077840399362 L 1016.9101561432217 97.45694363580944 L 1016.8662861872997 97.56291585325815 L 1016.8200742300263 97.66868445920629 L 1016.771524892559 97.77423887688141 L 1016.720643029791 97.8795685509297 L 1016.667433729866 97.98466294847155 L 1016.6119023136698 98.08951156015478 L 1016.5540543342978 98.19410390120557 L 1016.4938955764997 98.29842951247699 L 1016.431432056101 98.40247796149485 L 1016.3666700194018 98.50623884350097 L 1016.2996159425518 98.60970178249359 L 1016.2302765309029 98.71285643226504 L 1016.1586587183382 98.81569247743631 L 1016.0847696665795 98.91819963448859 L 1016.0086167644705 99.02036765279156 L 1015.9302076272377 99.12218631562857 L 1015.8495500957296 99.22364544121817 L 1015.7666522356321 99.32473488373233 L 1015.6815223366623 99.42544453431107 L 1015.5941689117388 99.52576432207324 L 1015.5046006961317 99.62568421512367 L 1015.4128266465876 99.72519422155631 L 1015.3188559404352 99.82428439045346 L 1015.2226979746666 99.92294481288079 L 1015.1243623649985 100.02116562287829 L 1015.0238589449098 100.11893699844678 L 1014.9211977646586 100.2162491625302 L 1014.8163890902775 100.31309238399325 L 1014.7094434025466 100.40945697859446 L 1014.6003713959457 100.50533330995468 L 1014.4891839775844 100.60071179052068 L 1014.3758922661118 100.69558288252388 L 1014.2605075906049 100.78993709893413 L 1014.1430414894348 100.88376500440843 L 1014.0235057091139 100.97705721623441 L 1013.9019122031207 101.06980440526866 L 1013.7782731307043 101.16199729686952 L 1013.6526008556689 101.25362667182469 L 1013.5249079451374 101.34468336727302 L 1013.3952071682944 101.43515827762084 L 1013.2635114951095 101.52504235545253 L 1013.1298340950402 101.61432661243519 L 1012.9941883357153 101.70300212021755 L 1012.8565877815975 101.7910600113227 L 1012.7170461926275 101.87849148003492 L 1012.5755775228482 101.9652877832802 L 1012.4321959190084 102.05144024150056 L 1012.2869157191493 102.13694023952193 L 1012.1397514511694 102.22177922741581 L 1011.9907178313733 102.30594872135407 L 1011.8398297629984 102.38944030445748 L 1011.6871023347261 102.47224562763729 L 1011.5325508191718 102.5543564104302 L 1011.3761906713584 102.63576444182635 L 1011.21803752717 102.71646158109044 L 1011.0581072017898 102.79643975857579 L 1010.8964156881166 102.8756909765313 L 1010.7329791551673 102.95420730990122 L 1010.5678139464587 103.03198090711763 L 1010.4009365783744 103.10900399088564 L 1010.2323637385119 103.18526885896105 L 1010.0621122840148 103.2607678849206 L 1009.8901992398867 103.33549351892461 L 1009.7166417972886 103.40943828847196 L 1009.5414573118203 103.48259479914732 L 1009.3646633017843 103.55495573536056 L 1009.1862774464342 103.6265138610784 L 1009.006317584207 103.69726202054787 L 1008.8248017109389 103.76719313901197 L 1008.641747978066 103.83630022341715 L 1008.457174690809 103.90457636311257 L 1008.2711003063428 103.97201473054113 L 1008.0835434319508 104.03860858192229 L 1007.8945228231642 104.10435125792642 L 1007.7040573818863 104.1692361843407 L 1007.5121661545024 104.23325687272656 L 1007.3188683299757 104.29640692106851 L 1007.1241832379271 104.35868001441433 L 1006.9281303467039 104.4200699255066 L 1006.7307292614317 104.48057051540535 L 1006.5319997220547 104.54017573410202 L 1006.331961601361 104.5988796211244 L 1006.130634902996 104.65667630613272 L 1005.928039759462 104.71356000950664 L 1005.7241964301041 104.7695250429232 L 1005.5191252990859 104.82456580992574 L 1005.3128468733491 104.87867680648341 L 1005.1053817805648 104.93185262154162 L 1004.8967507670691 104.98408793756322 L 1004.6869746957897 105.0353775310601 L 1004.4760745441587 105.08571627311568 L 1004.2640714020156 105.13509912989768 L 1004.050986469498 105.1835211631616 L 1003.8368410549216 105.23097753074444 L 1003.6216565726493 105.27746348704899 L 1003.40545454095 105.32297438351839 L 1003.1882565798469 105.36750566910086 L 1002.9700844089549 105.41105289070501 L 1002.7509598453094 105.45361169364494 L 1002.530904801184 105.49517782207583 L 1002.3099412818999 105.53574711941947 L 1002.0880913836249 105.57531552877992 L 1001.8653772911639 105.61387909334925 L 1001.6418212757404 105.65143395680312 L 1001.41744569277 105.68797636368647 L 1001.1922729796237 105.72350265978909 L 1000.9663256533853 105.75800929251095 L 1000.7396263085991 105.79149281121755 L 1000.5121976150107 105.82394986758491 L 1000.2840623152998 105.85537721593445 L 1000.0552432228066 105.88577171355752 L 999.8257632192492 105.9151303210297 L 999.5956452524372 105.94345010251467 L 999.3649123339751 105.97072822605791 L 999.1335875369628 105.99696196386981 L 998.9016939936869 106.02214869259844 L 998.6692548933088 106.04628589359189 L 998.4362934795447 106.0693711531502 L 998.2028330483417 106.09140216276666 L 997.9688969455487 106.11237671935864 L 997.7345085645808 106.13229272548797 L 997.4996913440808 106.15114818957065 L 997.2644687655752 106.16894122607596 L 997.0288643511255 106.1856700557151 L 996.7929016609772 106.20133300561903 L 996.5566042912026 106.21592850950582 L 996.3199958713416 106.22945510783724 L 996.083100062039 106.24191144796474 L 995.8459405526785 106.25329628426466 L 995.6085410590133 106.2636084782629 L 995.3709253207949 106.2728469987486 L 995.1331170993992 106.28101092187747 L 994.8951401754501 106.28809943126396 L 994.6570183464418 106.29411181806304 L 994.4187754243586 106.29904748104106 L 994.1804352332942 106.30290592663582 L 993.9420216070693 106.30568676900597 L 993.7035583868475 106.30738973006962 L 993.4650694187524 106.30801463953205 L 993.2265785514818 106.30756143490284 L 992.988109633924 106.3060301615021 L 992.7496865127717 106.30342097245587 L 992.5113330301388 106.29973412868088 L 992.2730730211744 106.29496999885845 L 992.0349303116811 106.28912905939758 L 991.7969287157315 106.28221189438736 L 991.5590920332867 106.27421919553852 L 991.3214440478167 106.26515176211427 L 991.0840085239222 106.25501050085043 L 990.8468092049575 106.24379642586464 L 990.6098698106571 106.23151065855508 L 990.3732140347628 106.21815442748823 L 990.136865542655 106.20372906827606 L 989.9008479689859 106.1882360234425 L 989.6651849153163 106.17167684227908 L 989.4298999477552 106.15405318069014 L 989.1950165946032 106.13536680102716 L 988.9605583439999 106.11561957191253 L 988.726548641575 106.09481346805269 L 988.4930108881036 106.0729505700407 L 988.2599684371668 106.05003306414814 L 988.0274445928151 106.0260632421065 L 987.7954626072392 106.00104350087803 L 987.5640456784446 105.97497634241597 L 987.3332169479311 105.94786437341445 L 987.1029994983795 105.9197103050478 L 986.8734163513429 105.89051695269937 L 986.6444904649446 105.86028723568009 L 986.4162447315827 105.82902417693644 L 986.18870197564 105.79673090274827 L 985.9618849512027 105.76341064241608 L 985.7358163397843 105.72906672793813 L 985.5105187480573 105.69370259367726 L 985.2860147055932 105.6573217760174 L 985.0623266626093 105.61992791301003 L 984.8394769877234 105.58152474401028 L 984.6174879657173 105.54211610930304 L 984.3963817953082 105.50170594971894 L 984.1761805869288 105.46029830624026 L 983.9569063605167 105.41789731959686 L 983.7385810433115 105.37450722985206 L 983.521226467663 105.33013237597868 L 983.304864368848 105.28477719542511 L 983.0895163828957 105.23844622367163 L 982.8752040444255 105.1911440937768 L 982.6619487844923 105.14287553591419 L 982.4497719284449 105.09364537689936 L 982.2386946937916 105.0434585397072 L 982.0287381880802 104.99232004297959 L 981.8199234067863 104.9402350005236 L 981.612271231214 104.88720862080007 L 981.4058024264078 104.83324620640276 L 981.2005376390762 104.77835315352817 L 980.9964973955267 104.72253495143585 L 980.7937020996137 104.66579718189945 L 980.592172030698 104.60814551864868 L 980.3919273416183 104.54958572680184 L 980.1929880566767 104.49012366228926 L 979.9953740696359 104.42976527126788 L 979.79910514173 104.36851658952648 L 979.6042008996882 104.30638374188221 L 979.4106808337723 104.24337294156805 L 979.2185642958275 104.17949048961154 L 979.0278704973477 104.11474277420461 L 978.8386185075537 104.04913627006486 L 978.6508272514868 103.98267753778805 L 978.4645155081162 103.91537322319199 L 978.2797019084608 103.84723005665208 L 978.0964049337267 103.77825485242818 L 977.9146429134585 103.70845450798322 L 977.734434023707 103.63783600329349 L 977.5557962852107 103.56640640015061 L 977.3787475615948 103.49417284145538 L 977.2033055575839 103.42114255050346 L 977.0294878172325 103.3473228302631 L 976.8573117221696 103.27272106264479 L 976.6867944898612 103.19734470776314 L 976.5179531718886 103.1212013031908 L 976.3508046522427 103.04429846320481 L 976.1853656456364 102.96664387802507 L 976.0216526958321 102.88824531304537 L 975.8596821739889 102.8091106080569 L 975.6994702770236 102.72924767646418 L 975.5410330259924 102.64866450449387 L 975.3843862644886 102.56736915039596 L 975.2295456570578 102.48536974363815 L 975.0765266876315 102.40267448409276 L 974.9253446579792 102.31929164121684 L 974.7760146861779 102.2352295532252 L 974.6285517051003 102.15049662625658 L 974.4829704609218 102.06510133353308 L 974.3392855116454 101.97905221451278 L 974.1975112256462 101.89235787403591 L 974.0576617802348 101.80502698146424 L 973.919751160239 101.71706826981428 L 973.783793156606 101.62849053488388 L 973.6498013650229 101.53930263437272 L 973.5177891845572 101.44951348699652 L 973.3877698163168 101.35913207159521 L 973.2597562621303 101.26816742623502 L 973.1337613232464 101.17662864730465 L 973.0097975990541 101.08452488860574 L 972.8878774858224 100.9918653604374 L 972.768013175461 100.89865932867522 L 972.6502166543011 100.80491611384473 L 972.5344997018966 100.71064509018925 L 972.4208738898463 100.61585568473262 L 972.309350580637 100.5205573763364 L 972.1999409265063 100.424759694752 L 972.0926558683286 100.32847221966773 L 971.9875061345203 100.2317045797509 L 971.8845022399673 100.13446645168483 L 971.783654484973 100.03676755920131 L 971.6849729542289 99.93861767210817 L 971.588467515806 99.84002660531232 L 971.4941478201675 99.7410042178383 L 971.4020232992045 99.64156041184232 L 971.3121031652923 99.54170513162211 L 971.2243964103694 99.4414483626225 L 971.1389118050381 99.34080013043682 L 971.0556578976879 99.23977049980442 L 970.9746430136398 99.13836957360418 L 970.895875254315 99.03660749184422 L 970.8193624964238 98.9344944306479 L 970.7451123911779 98.83204060123627 L 970.6731323635264 98.72925624890688 L 970.6034296114117 98.6261516520093 L 970.5360111050512 98.52273712091731 L 970.4708835862392 98.41902299699785 L 970.4080535676733 98.31501965157686 L 970.3475273323031 98.21073748490224 L 970.2893109327016 98.10618692510373 L 970.2334101904604 98.0013784271502 L 970.1798306956069 97.89632247180411 L 970.1285778060461 97.79102956457344 L 970.0796566470243 97.68551023466115 L 970.0330721106164 97.57977503391233 L 969.9888288552376 97.47383453575894 L 969.9469313051761 97.3676993341625 L 969.9073836501524 97.2613800425547 L 969.8701898448987 97.15488729277617 L 969.8353536087649 97.04823173401307 L 969.8028784253452 96.94142403173245 L 969.7727675421312 96.8344748666155 L 969.7450239701859 96.72739493348962 L 969.7196504838436 96.6201949402589 L 969.6966496204316 96.51288560683331 L 969.6760236800171 96.40547766405678 L 969.657774725177 96.29798185263407 L 969.6419045807916 96.19040892205675 L 969.628414833862 96.08276962952824 L 969.6173068333518 95.9750747388881 L 969.6085816900518 95.86733501953563 L 969.6022402764688 95.75956124535298 L 969.5982832267392 95.65176419362778 L 969.5967109365645 95.54395464397535" stroke-miterlimit="10" stroke-width="2.7769845610000004" stroke-dasharray=""/></g><g><g/><text fill="black" stroke="none" font-family="sans-serif" font-size="11pt" font-style="normal" font-weight="normal" text-decoration="normal" x="962.0681325607422" y="123.83569119881818" text-anchor="start" dominant-baseline="alphabetic" xml:space="preserve">Database</text></g><g><path fill="white" stroke="black" paint-order="fill stroke markers" d=" M 90.987082381 704.6338445303182 A 9.311065881 9.311065881 0 1 1 90.98707772546743 704.6245334659891 M 81.67601649999999 713.9449104113182 L 81.67601649999999 733.8738584373182 M 69.914670124 721.1323998633183 L 93.43736287599998 721.1323998633183 M 81.67601649999999 733.8738584373182 L 69.914670124 752.4959901993183 M 81.67601649999999 733.8738584373182 L 93.43736287599998 752.4959901993183" stroke-miterlimit="10" stroke-width="2.7769845610000004" stroke-dasharray=""/></g><g><g/><text fill="black" stroke="none" font-family="sans-serif" font-size="11pt" font-style="normal" font-weight="normal" text-decoration="normal" x="53.1470400595703" y="689.0337253788182" text-anchor="start" dominant-baseline="alphabetic" xml:space="preserve">Landlord</text></g><g><path fill="white" stroke="black" paint-order="fill stroke markers" d=" M 517.5903725740677 720.1359524620182 A 24.2577769005 24.2577769005 0 1 1 517.5903604451803 720.1116946891606 M 467.68632649256773 746.6153170113181 L 518.9788648545677 746.6153170113181" stroke-miterlimit="10" stroke-width="2.7769845610000004" stroke-dasharray=""/></g><g><g/><text fill="black" stroke="none" font-family="sans-serif" font-size="11pt" font-style="normal" font-weight="normal" text-decoration="normal" x="474.59244522190755" y="689.0337253788182" text-anchor="start" dominant-baseline="alphabetic" xml:space="preserve">Client</text></g><g><path fill="white" stroke="black" paint-order="fill stroke markers" d=" M 796.9921299702917 720.1359524620182 A 24.2577769005 24.2577769005 0 1 1 796.9921178414043 720.1116946891606 M 747.0880838887917 746.6153170113181 L 798.3806222507917 746.6153170113181" stroke-miterlimit="10" stroke-width="2.7769845610000004" stroke-dasharray=""/></g><g><g/><text fill="black" stroke="none" font-family="sans-serif" font-size="11pt" font-style="normal" font-weight="normal" text-decoration="normal" x="744.2089548153972" y="689.0337253788182" text-anchor="start" dominant-baseline="alphabetic" xml:space="preserve">Backend</text></g><g><path fill="white" stroke="black" paint-order="fill stroke markers" d=" M 969.5966806890314 741.7964320378181 L 969.5966806890314 707.492505107818 L 1017.2954743250313 707.492505107818 L 1017.2954743250313 741.7964320378181" stroke-miterlimit="10" stroke-width="2.7769845610000004" stroke-dasharray=""/><path fill="white" stroke="black" paint-order="fill stroke markers" d=" M 1017.2954743250313 706.300035266918 L 1017.2942818651276 706.4078458118347 L 1017.2907046046615 706.5156455757866 L 1017.2847429013563 706.6234237788874 L 1017.2763973513769 706.7311696434065 L 1017.2656687892717 706.8388723948472 L 1017.2525582878878 706.946521263024 L 1017.2370671582646 707.0541054831401 L 1017.219196949502 707.1616142968629 L 1017.198949448606 707.2690369534007 L 1017.1763266803098 707.3763627105774 L 1017.1513309068714 707.4835808359065 L 1017.1239646278474 707.5906806076651 L 1017.0942305798428 707.6976513159652 L 1017.0621317362377 707.8044822638251 L 1017.0276713068896 707.9111627682389 L 1016.9908527378128 708.0176821612451 L 1016.9516797108334 708.1240297909934 L 1016.9101561432217 708.2301950228093 L 1016.8662861872997 708.336167240258 L 1016.8200742300263 708.4419358462061 L 1016.771524892559 708.5474902638813 L 1016.720643029791 708.6528199379295 L 1016.667433729866 708.7579143354714 L 1016.6119023136698 708.8627629471546 L 1016.5540543342978 708.9673552882055 L 1016.4938955764997 709.0716808994769 L 1016.431432056101 709.1757293484947 L 1016.3666700194018 709.2794902305008 L 1016.2996159425518 709.3829531694935 L 1016.2302765309029 709.4861078192649 L 1016.1586587183382 709.5889438644361 L 1016.0847696665795 709.6914510214884 L 1016.0086167644705 709.7936190397915 L 1015.9302076272377 709.8954377026284 L 1015.8495500957296 709.996896828218 L 1015.7666522356321 710.0979862707321 L 1015.6815223366623 710.1986959213109 L 1015.5941689117388 710.299015709073 L 1015.5046006961317 710.3989356021235 L 1015.4128266465876 710.4984456085562 L 1015.3188559404352 710.5975357774533 L 1015.2226979746666 710.6961961998807 L 1015.1243623649985 710.7944170098781 L 1015.0238589449098 710.8921883854466 L 1014.9211977646586 710.98950054953 L 1014.8163890902775 711.086343770993 L 1014.7094434025466 711.1827083655943 L 1014.6003713959457 711.2785846969546 L 1014.4891839775844 711.3739631775205 L 1014.3758922661118 711.4688342695238 L 1014.2605075906049 711.563188485934 L 1014.1430414894348 711.6570163914083 L 1014.0235057091139 711.7503086032343 L 1013.9019122031207 711.8430557922685 L 1013.7782731307043 711.9352486838694 L 1013.6526008556689 712.0268780588245 L 1013.5249079451374 712.1179347542728 L 1013.3952071682944 712.2084096646207 L 1013.2635114951095 712.2982937424524 L 1013.1298340950402 712.387577999435 L 1012.9941883357153 712.4762535072174 L 1012.8565877815975 712.5643113983225 L 1012.7170461926275 712.6517428670347 L 1012.5755775228482 712.7385391702801 L 1012.4321959190084 712.8246916285004 L 1012.2869157191493 712.9101916265217 L 1012.1397514511694 712.9950306144157 L 1011.9907178313733 713.0792001083539 L 1011.8398297629984 713.1626916914573 L 1011.6871023347261 713.2454970146372 L 1011.5325508191718 713.32760779743 L 1011.3761906713584 713.4090158288262 L 1011.21803752717 713.4897129680903 L 1011.0581072017898 713.5696911455757 L 1010.8964156881166 713.6489423635311 L 1010.7329791551673 713.7274586969011 L 1010.5678139464587 713.8052322941174 L 1010.4009365783744 713.8822553778855 L 1010.2323637385119 713.9585202459609 L 1010.0621122840148 714.0340192719204 L 1009.8901992398867 714.1087449059245 L 1009.7166417972886 714.1826896754718 L 1009.5414573118203 714.2558461861472 L 1009.3646633017843 714.3282071223604 L 1009.1862774464342 714.3997652480782 L 1009.006317584207 714.4705134075477 L 1008.8248017109389 714.5404445260118 L 1008.641747978066 714.609551610417 L 1008.457174690809 714.6778277501124 L 1008.2711003063428 714.745266117541 L 1008.0835434319508 714.8118599689221 L 1007.8945228231642 714.8776026449262 L 1007.7040573818863 714.9424875713405 L 1007.5121661545024 715.0065082597264 L 1007.3188683299757 715.0696583080684 L 1007.1241832379271 715.1319314014141 L 1006.9281303467039 715.1933213125064 L 1006.7307292614317 715.2538219024052 L 1006.5319997220547 715.3134271211019 L 1006.331961601361 715.3721310081243 L 1006.130634902996 715.4299276931325 L 1005.928039759462 715.4868113965065 L 1005.7241964301041 715.542776429923 L 1005.5191252990859 715.5978171969256 L 1005.3128468733491 715.6519281934833 L 1005.1053817805648 715.7051040085415 L 1004.8967507670691 715.7573393245631 L 1004.6869746957897 715.80862891806 L 1004.4760745441587 715.8589676601156 L 1004.2640714020156 715.9083505168975 L 1004.050986469498 715.9567725501614 L 1003.8368410549216 716.0042289177443 L 1003.6216565726493 716.0507148740488 L 1003.40545454095 716.0962257705182 L 1003.1882565798469 716.1407570561007 L 1002.9700844089549 716.1843042777049 L 1002.7509598453094 716.2268630806448 L 1002.530904801184 716.2684292090756 L 1002.3099412818999 716.3089985064194 L 1002.0880913836249 716.3485669157798 L 1001.8653772911639 716.3871304803491 L 1001.6418212757404 716.4246853438029 L 1001.41744569277 716.4612277506864 L 1001.1922729796237 716.496754046789 L 1000.9663256533853 716.5312606795108 L 1000.7396263085991 716.5647441982173 L 1000.5121976150107 716.5972012545848 L 1000.2840623152998 716.6286286029343 L 1000.0552432228066 716.6590231005574 L 999.8257632192492 716.6883817080295 L 999.5956452524372 716.7167014895145 L 999.3649123339751 716.7439796130577 L 999.1335875369628 716.7702133508697 L 998.9016939936869 716.7954000795983 L 998.6692548933088 716.8195372805917 L 998.4362934795447 716.84262254015 L 998.2028330483417 716.8646535497664 L 997.9688969455487 716.8856281063585 L 997.7345085645808 716.9055441124879 L 997.4996913440808 716.9243995765705 L 997.2644687655752 716.9421926130758 L 997.0288643511255 716.958921442715 L 996.7929016609772 716.9745843926189 L 996.5566042912026 716.9891798965057 L 996.3199958713416 717.0027064948371 L 996.083100062039 717.0151628349646 L 995.8459405526785 717.0265476712646 L 995.6085410590133 717.0368598652627 L 995.3709253207949 717.0460983857485 L 995.1331170993992 717.0542623088774 L 994.8951401754501 717.0613508182638 L 994.6570183464418 717.0673632050629 L 994.4187754243586 717.0722988680409 L 994.1804352332942 717.0761573136357 L 993.9420216070693 717.0789381560058 L 993.7035583868475 717.0806411170695 L 993.4650694187524 717.0812660265319 L 993.2265785514818 717.0808128219027 L 992.988109633924 717.079281548502 L 992.7496865127717 717.0766723594558 L 992.5113330301388 717.0729855156808 L 992.2730730211744 717.0682213858584 L 992.0349303116811 717.0623804463975 L 991.7969287157315 717.0554632813872 L 991.5590920332867 717.0474705825384 L 991.3214440478167 717.0384031491142 L 991.0840085239222 717.0282618878502 L 990.8468092049575 717.0170478128645 L 990.6098698106571 717.0047620455549 L 990.3732140347628 716.9914058144881 L 990.136865542655 716.9769804552759 L 989.9008479689859 716.9614874104424 L 989.6651849153163 716.944928229279 L 989.4298999477552 716.92730456769 L 989.1950165946032 716.908618188027 L 988.9605583439999 716.8888709589123 L 988.726548641575 716.8680648550526 L 988.4930108881036 716.8462019570405 L 988.2599684371668 716.823284451148 L 988.0274445928151 716.7993146291063 L 987.7954626072392 716.7742948878779 L 987.5640456784446 716.7482277294158 L 987.3332169479311 716.7211157604142 L 987.1029994983795 716.6929616920477 L 986.8734163513429 716.6637683396992 L 986.6444904649446 716.6335386226799 L 986.4162447315827 716.6022755639362 L 986.18870197564 716.5699822897482 L 985.9618849512027 716.5366620294159 L 985.7358163397843 716.502318114938 L 985.5105187480573 716.4669539806771 L 985.2860147055932 716.4305731630172 L 985.0623266626093 716.3931793000099 L 984.8394769877234 716.3547761310101 L 984.6174879657173 716.3153674963029 L 984.3963817953082 716.2749573367188 L 984.1761805869288 716.2335496932401 L 983.9569063605167 716.1911487065967 L 983.7385810433115 716.1477586168519 L 983.521226467663 716.1033837629785 L 983.304864368848 716.058028582425 L 983.0895163828957 716.0116976106715 L 982.8752040444255 715.9643954807766 L 982.6619487844923 715.916126922914 L 982.4497719284449 715.8668967638993 L 982.2386946937916 715.8167099267071 L 982.0287381880802 715.7655714299794 L 981.8199234067863 715.7134863875234 L 981.612271231214 715.6604600077999 L 981.4058024264078 715.6064975934027 L 981.2005376390762 715.551604540528 L 980.9964973955267 715.4957863384357 L 980.7937020996137 715.4390485688994 L 980.592172030698 715.3813969056486 L 980.3919273416183 715.3228371138017 L 980.1929880566767 715.2633750492892 L 979.9953740696359 715.2030166582678 L 979.79910514173 715.1417679765264 L 979.6042008996882 715.079635128882 L 979.4106808337723 715.0166243285679 L 979.2185642958275 714.9527418766114 L 979.0278704973477 714.8879941612045 L 978.8386185075537 714.8223876570647 L 978.6508272514868 714.7559289247879 L 978.4645155081162 714.6886246101918 L 978.2797019084608 714.6204814436519 L 978.0964049337267 714.551506239428 L 977.9146429134585 714.4817058949831 L 977.734434023707 714.4110873902933 L 977.5557962852107 714.3396577871505 L 977.3787475615948 714.2674242284552 L 977.2033055575839 714.1943939375033 L 977.0294878172325 714.120574217263 L 976.8573117221696 714.0459724496446 L 976.6867944898612 713.970596094763 L 976.5179531718886 713.8944526901906 L 976.3508046522427 713.8175498502046 L 976.1853656456364 713.7398952650249 L 976.0216526958321 713.6614967000452 L 975.8596821739889 713.5823619950568 L 975.6994702770236 713.502499063464 L 975.5410330259924 713.4219158914937 L 975.3843862644886 713.3406205373958 L 975.2295456570578 713.258621130638 L 975.0765266876315 713.1759258710925 L 974.9253446579792 713.0925430282167 L 974.7760146861779 713.008480940225 L 974.6285517051003 712.9237480132564 L 974.4829704609218 712.838352720533 L 974.3392855116454 712.7523036015126 L 974.1975112256462 712.6656092610358 L 974.0576617802348 712.5782783684641 L 973.919751160239 712.4903196568141 L 973.783793156606 712.4017419218837 L 973.6498013650229 712.3125540213725 L 973.5177891845572 712.2227648739964 L 973.3877698163168 712.1323834585951 L 973.2597562621303 712.0414188132348 L 973.1337613232464 711.9498800343046 L 973.0097975990541 711.8577762756056 L 972.8878774858224 711.7651167474372 L 972.768013175461 711.671910715675 L 972.6502166543011 711.5781675008445 L 972.5344997018966 711.4838964771891 L 972.4208738898463 711.3891070717325 L 972.309350580637 711.2938087633362 L 972.1999409265063 711.1980110817518 L 972.0926558683286 711.1017236066676 L 971.9875061345203 711.0049559667508 L 971.8845022399673 710.9077178386847 L 971.783654484973 710.8100189462011 L 971.6849729542289 710.711869059108 L 971.588467515806 710.6132779923122 L 971.4941478201675 710.5142556048381 L 971.4020232992045 710.4148117988422 L 971.3121031652923 710.314956518622 L 971.2243964103694 710.2146997496224 L 971.1389118050381 710.1140515174367 L 971.0556578976879 710.0130218868043 L 970.9746430136398 709.9116209606041 L 970.895875254315 709.809858878844 L 970.8193624964238 709.7077458176477 L 970.7451123911779 709.6052919882361 L 970.6731323635264 709.5025076359067 L 970.6034296114117 709.3994030390091 L 970.5360111050512 709.2959885079172 L 970.4708835862392 709.1922743839976 L 970.4080535676733 709.0882710385767 L 970.3475273323031 708.983988871902 L 970.2893109327016 708.8794383121036 L 970.2334101904604 708.7746298141501 L 970.1798306956069 708.6695738588039 L 970.1285778060461 708.5642809515733 L 970.0796566470243 708.458761621661 L 970.0330721106164 708.3530264209122 L 969.9888288552376 708.2470859227587 L 969.9469313051761 708.1409507211623 L 969.9073836501524 708.0346314295546 L 969.8701898448987 707.928138679776 L 969.8353536087649 707.8214831210129 L 969.8028784253452 707.7146754187323 L 969.7727675421312 707.6077262536154 L 969.7450239701859 707.5006463204895 L 969.7196504838436 707.3934463272587 L 969.6966496204316 707.2861369938331 L 969.6760236800171 707.1787290510566 L 969.657774725177 707.0712332396339 L 969.6419045807916 706.9636603090566 L 969.628414833862 706.8560210165281 L 969.6173068333518 706.748326125888 L 969.6085816900518 706.6405864065355 L 969.6022402764688 706.5328126323528 L 969.5982832267392 706.4250155806276 L 969.5967109365645 706.3172060309752 L 969.5975235631724 706.2093947642607 L 969.600721025301 706.1015925615209 L 969.6063030032067 705.9938102028863 L 969.6142689386963 705.8860584665028 L 969.6246180351831 705.7783481274545 L 969.6373492577659 705.6706899566854 L 969.652461333333 705.5630947199228 L 969.6699527506896 705.4555731766009 L 969.6898217607084 705.3481360787841 L 969.712066376505 705.2407941700931 L 969.7366843736365 705.133558184629 L 969.7636732903235 705.026438845901 L 969.7930304276969 704.9194468657539 L 969.8247528500674 704.8125929432963 L 969.8588373852193 704.7058877638316 L 969.8952806247273 704.5993419977888 L 969.9340789242981 704.4929662996556 L 969.9752284041338 704.3867713069133 L 970.0187249493208 704.2807676389725 L 970.0645642102409 704.1749658961119 L 970.112741603006 704.0693766584175 L 970.1632523099173 703.964010484725 L 970.2160912799459 703.858877911564 L 970.271253229239 703.7539894521044 L 970.3287326416477 703.6493555951045 L 970.3885237692784 703.5449868038629 L 970.4506206330683 703.4408935151716 L 970.5150170233828 703.3370861382731 L 970.5817065006366 703.2335750538182 L 970.6506823959375 703.1303706128293 L 970.7219378117533 703.0274831356644 L 970.7954656226019 702.9249229109855 L 970.8712584757635 702.8227001947296 L 970.9493087920159 702.7208252090832 L 971.0296087663927 702.6193081414599 L 971.1121503689631 702.5181591434819 L 971.1969253456358 702.4173883299646 L 971.2839252189838 702.3170057779056 L 971.3731412890921 702.2170215254762 L 971.4645646344283 702.1174455710185 L 971.5581861127338 702.0182878720449 L 971.6539963619388 701.9195583442427 L 971.7519858010984 701.8212668604823 L 971.8521446313503 701.7234232498304 L 971.9544628368948 701.6260372965662 L 972.0589301859966 701.5291187392041 L 972.1655362320081 701.4326772695191 L 972.2742703144133 701.3367225315777 L 972.3851215598946 701.2412641207737 L 972.49807888342 701.1463115828687 L 972.6131309893511 701.0518744130375 L 972.7302663725733 700.9579620549181 L 972.8494733196457 700.8645838996681 L 972.9707399099731 700.7717492850254 L 973.0940540169975 700.6794674943741 L 973.219403309411 700.587747755816 L 973.3467752523886 700.496599241249 L 973.4761571088425 700.4060310654484 L 973.6075359406946 700.3160522851562 L 973.7408986101711 700.2266718981755 L 973.8762317811165 700.1378988424707 L 974.0135219203264 700.049741995273 L 974.1527552989012 699.9622101721942 L 974.2939179936191 699.8753121263433 L 974.4369958883282 699.7890565474523 L 974.5819746753583 699.7034520610077 L 974.7288398569516 699.6185072273865 L 974.8775767467123 699.5342305410013 L 975.0281704710752 699.4506304294506 L 975.1806059707936 699.3677152526757 L 975.3348680024444 699.2854933021255 L 975.4909411399531 699.2039727999262 L 975.6488097761359 699.1231618980603 L 975.8084581242608 699.0430686775505 L 975.9698702196259 698.9637011476523 L 976.1330299211564 698.8850672450523 L 976.297920913018 698.8071748330755 L 976.4645267062489 698.7300317008979 L 976.6328306404087 698.6536455627687 L 976.802815885244 698.5780240572379 L 976.9744654423722 698.5031747463931 L 977.1477621469807 698.429105115103 L 977.3226886695431 698.355822570269 L 977.4992275175533 698.2833344400844 L 977.6773610372734 698.2116479733021 L 977.8570714155 698.1407703385088 L 978.0383406813448 698.0707086234089 L 978.2211507080325 698.0014698341157 L 978.4054832147127 697.9330608944503 L 978.5913197682885 697.8654886452497 L 978.7786417852591 697.7987598436824 L 978.967430533579 697.7328811625732 L 979.1576671345308 697.667859189735 L 979.349332564613 697.6037004273113 L 979.542407657442 697.5404112911244 L 979.7368731056697 697.4779981100355 L 979.9327094629133 697.4164671253106 L 980.1298971457 697.3558244899971 L 980.3284164354263 697.2960762683076 L 980.5282474803283 697.2372284350147 L 980.7293702974681 697.1792868748528 L 980.9317647747317 697.1222573819293 L 981.1354106728401 697.0661456591464 L 981.3402876273728 697.0109573176293 L 981.5463751508055 696.9566978761662 L 981.7536526345574 696.9033727606561 L 981.9620993510529 696.8509873035662 L 982.1716944557941 696.7995467433984 L 982.382416989445 696.7490562241659 L 982.594245879928 696.6995207948785 L 982.8071599445307 696.650945409038 L 983.0211378920238 696.6033349241424 L 983.2361583247911 696.5566941012004 L 983.4521997409682 696.5110276042557 L 983.6692405365937 696.4663399999197 L 983.8872590077691 696.4226357569156 L 984.1062333528287 696.3799192456315 L 984.3261416745204 696.3381947376827 L 984.5469619821956 696.2974664054854 L 984.7686721940073 696.2577383218387 L 984.9912501391192 696.2190144595181 L 985.2146735599222 696.1812986908773 L 985.4389201142603 696.1445947874619 L 985.6639673776652 696.1089064196316 L 985.889792845598 696.0742371561935 L 986.1163739357 696.0405904640448 L 986.3436879900512 696.0079697078271 L 986.5717122774353 695.9763781495885 L 986.8004239956138 695.9458189484586 L 987.0298002736054 695.9162951603322 L 987.2598181739735 695.8878097375633 L 987.4904546951196 695.8603655286705 L 987.721686773584 695.8339652780518 L 987.9534912863513 695.8086116257103 L 988.1858450531637 695.7843071069901 L 988.4187248388379 695.7610541523228 L 988.6521073555895 695.7388550869846 L 988.8859692653613 695.7177121308633 L 989.1202871821571 695.6976273982372 L 989.3550376743806 695.6786028975625 L 989.5901972671782 695.6606405312737 L 989.8257424447866 695.6437420955922 L 990.0616496528842 695.6279092803477 L 990.297895300947 695.6131436688084 L 990.5344557646067 695.5994467375232 L 990.7713073880145 695.5868198561739 L 991.0084264862052 695.5752642874379 L 991.2457893474666 695.5647811868627 L 991.4833722357104 695.5553716027493 L 991.7211513928456 695.5470364760487 L 991.959103041155 695.5397766402663 L 992.1972033856717 695.5335928213796 L 992.4354286165599 695.5284856377656 L 992.6737549114949 695.5244556001381 L 992.9121584380459 695.5215031114977 L 993.1506153560588 695.5196284670909 L 993.3891018200407 695.5188318543803 L 993.6275939815437 695.5191133530267 L 993.8660679915505 695.5204729348804 L 994.1045000028589 695.5229104639843 L 994.3428661724664 695.5264256965877 L 994.5811426639547 695.5310182811702 L 994.8193056498732 695.536687758477 L 995.0573313141217 695.5434335615653 L 995.2951958543322 695.5512550158602 L 995.5328754842488 695.560151339223 L 995.7703464361069 695.5701216420287 L 996.0075849630089 695.5811649272554 L 996.2445673412998 695.5932800905836 L 996.4812698729394 695.6064659205072 L 996.7176688878717 695.620721098454 L 996.9537407463923 695.6360441989185 L 997.189461841512 695.6524336896031 L 997.4248086013176 695.6698879315725 L 997.6597574913295 695.6884051794169 L 997.8942850168543 695.707983581427 L 998.128367725335 695.7286211797791 L 998.3619822086957 695.7503159107305 L 998.5951051056828 695.7730656048259 L 998.8277131042009 695.7968679871152 L 999.059782943644 695.8217206773799 L 999.2912914172215 695.8476211903716 L 999.522215374279 695.8745669360605 L 999.7525317226132 695.9025552198949 L 999.9822174307811 695.9315832430693 L 1000.2112495304035 695.9616481028057 L 1000.4396051184611 695.9927467926433 L 1000.6672613595856 696.0248762027389 L 1000.8941954883423 696.0580331201784 L 1001.1203848115077 696.0922142292976 L 1001.345806710338 696.127416112014 L 1001.5704386428309 696.1636352481687 L 1001.7942581459806 696.2008680158784 L 1002.0172428380232 696.2391106918972 L 1002.2393704206752 696.2783594519894 L 1002.4606186813637 696.3186103713118 L 1002.6809654954468 696.3598594248059 L 1002.9003888284267 696.4021024876008 L 1003.1188667381531 696.4453353354253 L 1003.336377377017 696.4895536450308 L 1003.5528989941358 696.5347529946231 L 1003.7684099375282 696.5809288643048 L 1003.9828886562794 696.6280766365277 L 1004.1963137026964 696.6761915965536 L 1004.4086637344524 696.7252689329267 L 1004.6199175167211 696.7753037379543 L 1004.8300539243003 696.8262910081976 L 1005.0390519437243 696.878225644972 L 1005.2468906753655 696.931102454857 L 1005.4535493355238 696.9849161502158 L 1005.6590072585055 697.0396613497238 L 1005.8632438986895 697.0953325789064 L 1006.0662388325818 697.1519242706875 L 1006.2679717608584 697.2094307659446 L 1006.4684225103945 697.2678463140763 L 1006.6675710362821 697.3271650735767 L 1006.8653974238347 697.3873811126189 L 1007.0618818905783 697.4484884096494 L 1007.2570047882301 697.5104808539893 L 1007.4507466046629 697.573352246446 L 1007.6430879658562 697.6370962999324 L 1007.8340096378347 697.7017066400965 L 1008.0234925285898 697.767176805958 L 1008.2115176899907 697.833500250555 L 1008.3980663196778 697.900670341598 L 1008.5831197629435 697.9686803621343 L 1008.7666595145978 698.0375235112182 L 1008.9486672208185 698.1071929045922 L 1009.1291246809866 698.1776815753752 L 1009.3080138495064 698.2489824747588 L 1009.4853168376102 698.3210884727123 L 1009.661015915147 698.3939923586962 L 1009.8350935123553 698.4676868423826 L 1010.0075322216206 698.5421645543844 L 1010.1783147992156 698.6174180469926 L 1010.3474241670249 698.6934397949207 L 1010.5148434142525 698.7702221960571 L 1010.6805557991133 698.8477575722259 L 1010.844544750507 698.9260381699539 L 1011.006793869675 699.0050561612467 L 1011.1672869318406 699.0848036443707 L 1011.3260078878315 699.1652726446445 L 1011.482940865684 699.2464551152349 L 1011.6380701722313 699.3283429379624 L 1011.7913802946722 699.4109279241131 L 1011.9428559021219 699.4942018152572 L 1012.092481847146 699.5781562840749 L 1012.2402431672748 699.6627829351894 L 1012.3861250864993 699.7480733060061 L 1012.5301130167492 699.8340188675588 L 1012.6721925593514 699.9206110253632 L 1012.8123495064701 700.0078411202755 L 1012.9505698425273 700.0957004293591 L 1013.0868397456047 700.1841801667562 L 1013.2211455888255 700.2732714845667 L 1013.3534739417173 700.3629654737332 L 1013.483811571555 700.4532531649314 L 1013.6121454446843 700.5441255294676 L 1013.738462727825 700.6355734801809 L 1013.8627507893536 700.7275878723526 L 1013.984997200568 700.8201595046199 L 1014.1051897369288 700.9132791198971 L 1014.2233163792824 701.0069374062999 L 1014.3393653150631 701.1011249980779 L 1014.453324939474 701.1958324765503 L 1014.5651838566476 701.2910503710484 L 1014.6749308807855 701.3867691598618 L 1014.7825550372767 701.4829792711917 L 1014.8880455637951 701.5796710841068 L 1014.9913919113761 701.6768349295066 L 1015.0925837454711 701.7744610910876 L 1015.191610946981 701.8725398063148 L 1015.2884636132679 701.9710612673985 L 1015.3831320591463 702.0700156222746 L 1015.4756068178502 702.1693929755902 L 1015.565878641981 702.2691833896928 L 1015.6539385044314 702.3693768856241 L 1015.7397775992885 702.469963444118 L 1015.8233873427145 702.5709330066023 L 1015.9047593738044 702.6722754762053 L 1015.9838855554233 702.773980718764 L 1016.0607579750188 702.8760385638393 L 1016.1353689454129 702.9784388057316 L 1016.2077110055709 703.081171204502 L 1016.2777769213471 703.1842254869963 L 1016.3455596862082 703.287591347872 L 1016.4110525219342 703.3912584506293 L 1016.474248879296 703.4952164286442 L 1016.5351424387107 703.5994548862056 L 1016.5937271108731 703.7039633995547 L 1016.6499970373648 703.8087315179271 L 1016.70394659124 703.9137487645983 L 1016.7555703775882 704.0190046379312 L 1016.8048632340739 704.124488612426 L 1016.8518202314525 704.2301901397735 L 1016.8964366740634 704.3360986499088 L 1016.9387081002994 704.442203552069 L 1016.9786302830532 704.5484942358528 L 1017.0161992301399 704.6549600722799 L 1017.0514111846959 704.7615904148556 L 1017.0842626255553 704.8683746006345 L 1017.1147502676012 704.975301951287 L 1017.1428710620949 705.082361774167 L 1017.1686221969802 705.1895433633817 L 1017.1920010971654 705.2968360008613 L 1017.2130054247797 705.4042289574314 L 1017.231633079408 705.5117114938861 L 1017.2478821983002 705.6192728620612 L 1017.2617511565581 705.7269023059093 L 1017.2732385672974 705.834589062576 L 1017.2823432817866 705.9423223634753 L 1017.2890643895618 706.0500914353668 L 1017.2934012185177 706.1578855014332 L 1017.2953533349753 706.2656937823576 M 1017.2954743250313 740.6039621969181 L 1017.2942818651276 740.7117727418348 L 1017.2907046046615 740.8195725057867 L 1017.2847429013563 740.9273507088875 L 1017.2763973513769 741.0350965734066 L 1017.2656687892717 741.1427993248473 L 1017.2525582878878 741.2504481930241 L 1017.2370671582646 741.3580324131402 L 1017.219196949502 741.465541226863 L 1017.198949448606 741.5729638834008 L 1017.1763266803098 741.6802896405775 L 1017.1513309068714 741.7875077659066 L 1017.1239646278474 741.8946075376653 L 1017.0942305798428 742.0015782459653 L 1017.0621317362377 742.1084091938252 L 1017.0276713068896 742.215089698239 L 1016.9908527378128 742.3216090912454 L 1016.9516797108334 742.4279567209935 L 1016.9101561432217 742.5341219528094 L 1016.8662861872997 742.6400941702581 L 1016.8200742300263 742.7458627762062 L 1016.771524892559 742.8514171938814 L 1016.720643029791 742.9567468679296 L 1016.667433729866 743.0618412654715 L 1016.6119023136698 743.1666898771547 L 1016.5540543342978 743.2712822182056 L 1016.4938955764997 743.375607829477 L 1016.431432056101 743.4796562784948 L 1016.3666700194018 743.5834171605009 L 1016.2996159425518 743.6868800994936 L 1016.2302765309029 743.790034749265 L 1016.1586587183382 743.8928707944362 L 1016.0847696665795 743.9953779514885 L 1016.0086167644705 744.0975459697916 L 1015.9302076272377 744.1993646326285 L 1015.8495500957296 744.3008237582181 L 1015.7666522356321 744.4019132007322 L 1015.6815223366623 744.502622851311 L 1015.5941689117388 744.6029426390731 L 1015.5046006961317 744.7028625321236 L 1015.4128266465876 744.8023725385563 L 1015.3188559404352 744.9014627074534 L 1015.2226979746666 745.0001231298808 L 1015.1243623649985 745.0983439398782 L 1015.0238589449098 745.1961153154467 L 1014.9211977646586 745.2934274795301 L 1014.8163890902775 745.3902707009931 L 1014.7094434025466 745.4866352955944 L 1014.6003713959457 745.5825116269547 L 1014.4891839775844 745.6778901075206 L 1014.3758922661118 745.7727611995239 L 1014.2605075906049 745.8671154159341 L 1014.1430414894348 745.9609433214084 L 1014.0235057091139 746.0542355332344 L 1013.9019122031207 746.1469827222686 L 1013.7782731307043 746.2391756138695 L 1013.6526008556689 746.3308049888246 L 1013.5249079451374 746.4218616842729 L 1013.3952071682944 746.5123365946208 L 1013.2635114951095 746.6022206724525 L 1013.1298340950402 746.6915049294352 L 1012.9941883357153 746.7801804372175 L 1012.8565877815975 746.8682383283226 L 1012.7170461926275 746.9556697970348 L 1012.5755775228482 747.0424661002802 L 1012.4321959190084 747.1286185585005 L 1012.2869157191493 747.2141185565218 L 1012.1397514511694 747.2989575444158 L 1011.9907178313733 747.383127038354 L 1011.8398297629984 747.4666186214574 L 1011.6871023347261 747.5494239446373 L 1011.5325508191718 747.6315347274301 L 1011.3761906713584 747.7129427588263 L 1011.21803752717 747.7936398980904 L 1011.0581072017898 747.8736180755758 L 1010.8964156881166 747.9528692935312 L 1010.7329791551673 748.0313856269012 L 1010.5678139464587 748.1091592241175 L 1010.4009365783744 748.1861823078856 L 1010.2323637385119 748.262447175961 L 1010.0621122840148 748.3379462019205 L 1009.8901992398867 748.4126718359246 L 1009.7166417972886 748.4866166054719 L 1009.5414573118203 748.5597731161473 L 1009.3646633017843 748.6321340523605 L 1009.1862774464342 748.7036921780783 L 1009.006317584207 748.7744403375478 L 1008.8248017109389 748.8443714560119 L 1008.641747978066 748.9134785404171 L 1008.457174690809 748.9817546801125 L 1008.2711003063428 749.049193047541 L 1008.0835434319508 749.1157868989222 L 1007.8945228231642 749.1815295749263 L 1007.7040573818863 749.2464145013406 L 1007.5121661545024 749.3104351897265 L 1007.3188683299757 749.3735852380685 L 1007.1241832379271 749.4358583314142 L 1006.9281303467039 749.4972482425065 L 1006.7307292614317 749.5577488324053 L 1006.5319997220547 749.617354051102 L 1006.331961601361 749.6760579381244 L 1006.130634902996 749.7338546231326 L 1005.928039759462 749.7907383265066 L 1005.7241964301041 749.8467033599231 L 1005.5191252990859 749.9017441269257 L 1005.3128468733491 749.9558551234834 L 1005.1053817805648 750.0090309385416 L 1004.8967507670691 750.0612662545632 L 1004.6869746957897 750.1125558480601 L 1004.4760745441587 750.1628945901157 L 1004.2640714020156 750.2122774468976 L 1004.050986469498 750.2606994801615 L 1003.8368410549216 750.3081558477444 L 1003.6216565726493 750.3546418040489 L 1003.40545454095 750.4001527005183 L 1003.1882565798469 750.4446839861008 L 1002.9700844089549 750.488231207705 L 1002.7509598453094 750.5307900106449 L 1002.530904801184 750.5723561390757 L 1002.3099412818999 750.6129254364195 L 1002.0880913836249 750.6524938457799 L 1001.8653772911639 750.6910574103492 L 1001.6418212757404 750.728612273803 L 1001.41744569277 750.7651546806865 L 1001.1922729796237 750.8006809767891 L 1000.9663256533853 750.8351876095109 L 1000.7396263085991 750.8686711282176 L 1000.5121976150107 750.9011281845849 L 1000.2840623152998 750.9325555329344 L 1000.0552432228066 750.9629500305575 L 999.8257632192492 750.9923086380296 L 999.5956452524372 751.0206284195147 L 999.3649123339751 751.0479065430578 L 999.1335875369628 751.0741402808698 L 998.9016939936869 751.0993270095984 L 998.6692548933088 751.1234642105918 L 998.4362934795447 751.1465494701501 L 998.2028330483417 751.1685804797665 L 997.9688969455487 751.1895550363586 L 997.7345085645808 751.209471042488 L 997.4996913440808 751.2283265065706 L 997.2644687655752 751.2461195430759 L 997.0288643511255 751.2628483727151 L 996.7929016609772 751.278511322619 L 996.5566042912026 751.2931068265058 L 996.3199958713416 751.3066334248372 L 996.083100062039 751.3190897649647 L 995.8459405526785 751.3304746012647 L 995.6085410590133 751.3407867952628 L 995.3709253207949 751.3500253157486 L 995.1331170993992 751.3581892388775 L 994.8951401754501 751.3652777482639 L 994.6570183464418 751.371290135063 L 994.4187754243586 751.376225798041 L 994.1804352332942 751.3800842436358 L 993.9420216070693 751.382865086006 L 993.7035583868475 751.3845680470696 L 993.4650694187524 751.385192956532 L 993.2265785514818 751.3847397519028 L 992.988109633924 751.3832084785021 L 992.7496865127717 751.3805992894559 L 992.5113330301388 751.3769124456808 L 992.2730730211744 751.3721483158585 L 992.0349303116811 751.3663073763976 L 991.7969287157315 751.3593902113873 L 991.5590920332867 751.3513975125385 L 991.3214440478167 751.3423300791143 L 991.0840085239222 751.3321888178504 L 990.8468092049575 751.3209747428646 L 990.6098698106571 751.308688975555 L 990.3732140347628 751.2953327444882 L 990.136865542655 751.280907385276 L 989.9008479689859 751.2654143404425 L 989.6651849153163 751.2488551592791 L 989.4298999477552 751.2312314976901 L 989.1950165946032 751.2125451180272 L 988.9605583439999 751.1927978889124 L 988.726548641575 751.1719917850527 L 988.4930108881036 751.1501288870406 L 988.2599684371668 751.1272113811481 L 988.0274445928151 751.1032415591064 L 987.7954626072392 751.078221817878 L 987.5640456784446 751.0521546594159 L 987.3332169479311 751.0250426904144 L 987.1029994983795 750.9968886220478 L 986.8734163513429 750.9676952696993 L 986.6444904649446 750.93746555268 L 986.4162447315827 750.9062024939363 L 986.18870197564 750.8739092197483 L 985.9618849512027 750.840588959416 L 985.7358163397843 750.8062450449381 L 985.5105187480573 750.7708809106772 L 985.2860147055932 750.7345000930173 L 985.0623266626093 750.69710623001 L 984.8394769877234 750.6587030610102 L 984.6174879657173 750.619294426303 L 984.3963817953082 750.5788842667189 L 984.1761805869288 750.5374766232402 L 983.9569063605167 750.4950756365968 L 983.7385810433115 750.451685546852 L 983.521226467663 750.4073106929786 L 983.304864368848 750.3619555124251 L 983.0895163828957 750.3156245406716 L 982.8752040444255 750.2683224107767 L 982.6619487844923 750.2200538529141 L 982.4497719284449 750.1708236938994 L 982.2386946937916 750.1206368567072 L 982.0287381880802 750.0694983599795 L 981.8199234067863 750.0174133175235 L 981.612271231214 749.9643869378 L 981.4058024264078 749.9104245234028 L 981.2005376390762 749.8555314705281 L 980.9964973955267 749.7997132684358 L 980.7937020996137 749.7429754988995 L 980.592172030698 749.6853238356487 L 980.3919273416183 749.6267640438018 L 980.1929880566767 749.5673019792893 L 979.9953740696359 749.5069435882679 L 979.79910514173 749.4456949065265 L 979.6042008996882 749.3835620588821 L 979.4106808337723 749.320551258568 L 979.2185642958275 749.2566688066115 L 979.0278704973477 749.1919210912046 L 978.8386185075537 749.1263145870648 L 978.6508272514868 749.059855854788 L 978.4645155081162 748.9925515401919 L 978.2797019084608 748.924408373652 L 978.0964049337267 748.8554331694281 L 977.9146429134585 748.7856328249832 L 977.734434023707 748.7150143202934 L 977.5557962852107 748.6435847171506 L 977.3787475615948 748.5713511584553 L 977.2033055575839 748.4983208675034 L 977.0294878172325 748.4245011472631 L 976.8573117221696 748.3498993796447 L 976.6867944898612 748.2745230247631 L 976.5179531718886 748.1983796201907 L 976.3508046522427 748.1214767802047 L 976.1853656456364 748.043822195025 L 976.0216526958321 747.9654236300453 L 975.8596821739889 747.8862889250569 L 975.6994702770236 747.8064259934641 L 975.5410330259924 747.7258428214938 L 975.3843862644886 747.6445474673959 L 975.2295456570578 747.562548060638 L 975.0765266876315 747.4798528010926 L 974.9253446579792 747.3964699582168 L 974.7760146861779 747.3124078702251 L 974.6285517051003 747.2276749432565 L 974.4829704609218 747.142279650533 L 974.3392855116454 747.0562305315127 L 974.1975112256462 746.9695361910359 L 974.0576617802348 746.8822052984642 L 973.919751160239 746.7942465868142 L 973.783793156606 746.7056688518838 L 973.6498013650229 746.6164809513726 L 973.5177891845572 746.5266918039965 L 973.3877698163168 746.4363103885952 L 973.2597562621303 746.3453457432349 L 973.1337613232464 746.2538069643047 L 973.0097975990541 746.1617032056057 L 972.8878774858224 746.0690436774373 L 972.768013175461 745.9758376456751 L 972.6502166543011 745.8820944308446 L 972.5344997018966 745.7878234071892 L 972.4208738898463 745.6930340017326 L 972.309350580637 745.5977356933363 L 972.1999409265063 745.5019380117519 L 972.0926558683286 745.4056505366677 L 971.9875061345203 745.3088828967509 L 971.8845022399673 745.2116447686848 L 971.783654484973 745.1139458762012 L 971.6849729542289 745.0157959891081 L 971.588467515806 744.9172049223123 L 971.4941478201675 744.8181825348382 L 971.4020232992045 744.7187387288423 L 971.3121031652923 744.6188834486221 L 971.2243964103694 744.5186266796225 L 971.1389118050381 744.4179784474368 L 971.0556578976879 744.3169488168044 L 970.9746430136398 744.2155478906042 L 970.895875254315 744.1137858088441 L 970.8193624964238 744.0116727476478 L 970.7451123911779 743.9092189182362 L 970.6731323635264 743.8064345659068 L 970.6034296114117 743.7033299690092 L 970.5360111050512 743.5999154379173 L 970.4708835862392 743.4962013139977 L 970.4080535676733 743.3921979685769 L 970.3475273323031 743.2879158019022 L 970.2893109327016 743.1833652421037 L 970.2334101904604 743.0785567441502 L 970.1798306956069 742.973500788804 L 970.1285778060461 742.8682078815734 L 970.0796566470243 742.7626885516611 L 970.0330721106164 742.6569533509123 L 969.9888288552376 742.5510128527588 L 969.9469313051761 742.4448776511624 L 969.9073836501524 742.3385583595547 L 969.8701898448987 742.2320656097761 L 969.8353536087649 742.125410051013 L 969.8028784253452 742.0186023487324 L 969.7727675421312 741.9116531836155 L 969.7450239701859 741.8045732504896 L 969.7196504838436 741.6973732572588 L 969.6966496204316 741.5900639238332 L 969.6760236800171 741.4826559810567 L 969.657774725177 741.375160169634 L 969.6419045807916 741.2675872390568 L 969.628414833862 741.1599479465282 L 969.6173068333518 741.0522530558881 L 969.6085816900518 740.9445133365356 L 969.6022402764688 740.8367395623529 L 969.5982832267392 740.7289425106277 L 969.5967109365645 740.6211329609753" stroke-miterlimit="10" stroke-width="2.7769845610000004" stroke-dasharray=""/></g><g><g/><text fill="black" stroke="none" font-family="sans-serif" font-size="11pt" font-style="normal" font-weight="normal" text-decoration="normal" x="962.0681325607422" y="689.0337253788182" text-anchor="start" dominant-baseline="alphabetic" xml:space="preserve">Database</text></g></g><g><path fill="white" stroke="black" paint-order="fill stroke markers" d=" M 73.50841485 136.90385383881818 L 89.84361814999998 136.90385383881818 L 89.84361814999998 615.5253105288182 L 73.50841485 615.5253105288182 L 73.50841485 136.90385383881818" stroke-miterlimit="10" stroke-width="1.3612669416666667" stroke-dasharray=""/><path fill="white" stroke="black" paint-order="fill stroke markers" d=" M 485.1649940235677 136.90385383881818 L 501.5001973235677 136.90385383881818 L 501.5001973235677 615.5253105288182 L 485.1649940235677 615.5253105288182 L 485.1649940235677 136.90385383881818" stroke-miterlimit="10" stroke-width="1.3612669416666667" stroke-dasharray=""/><path fill="white" stroke="black" paint-order="fill stroke markers" d=" M 764.5667514197917 182.64242307881818 L 780.9019547197918 182.64242307881818 L 780.9019547197918 615.5253105288182 L 764.5667514197917 615.5253105288182 L 764.5667514197917 182.64242307881818" stroke-miterlimit="10" stroke-width="1.3612669416666667" stroke-dasharray=""/><path fill="white" stroke="black" paint-order="fill stroke markers" d=" M 985.2784758570313 228.3809923188182 L 1001.6136791570314 228.3809923188182 L 1001.6136791570314 319.8581307988182 L 985.2784758570313 319.8581307988182 L 985.2784758570313 228.3809923188182" stroke-miterlimit="10" stroke-width="1.3612669416666667" stroke-dasharray=""/><g><text fill="black" stroke="none" font-family="sans-serif" font-size="16pt" font-style="normal" font-weight="normal" text-decoration="normal" x="419.17163848876953" y="24.651306798181814" text-anchor="start" dominant-baseline="alphabetic" xml:space="preserve">Xemdanhschtng</text></g><g><rect fill="white" stroke="none" x="199.48139375584637" y="161.4066587888182" width="176.045824661875" height="21.23576429"/><text fill="black" stroke="none" font-family="sans-serif" font-size="11pt" font-style="normal" font-weight="normal" text-decoration="normal" x="201.93167425084636" y="176.10834175881817" text-anchor="start" dominant-baseline="alphabetic" xml:space="preserve">Chnxemdanhschtng</text></g><g><path fill="none" stroke="black" paint-order="fill stroke markers" d=" M 89.84361814999998 182.64242307881818 L 471.71567663990106 182.64242307881818" stroke-miterlimit="10" stroke-width="1.3612669416666667" stroke-dasharray=""/><g transform="translate(485.1649940235677,182.64242307881818) translate(-485.1649940235677,-182.64242307881818)"><path fill="black" stroke="none" paint-order="stroke fill markers" d=" M 471.55232460690104 175.83608837048484 L 485.1649940235677 182.64242307881818 L 471.55232460690104 189.44875778715152 Z"/></g></g><g><rect fill="white" stroke="none" x="527.064974882539" y="207.1452280288182" width="211.93699897828125" height="21.23576429"/><text fill="black" stroke="none" font-family="sans-serif" font-size="11pt" font-style="normal" font-weight="normal" text-decoration="normal" x="529.515255377539" y="221.84691099881817" text-anchor="start" dominant-baseline="alphabetic" xml:space="preserve">Giyuculydanhschtng</text></g><g><path fill="none" stroke="black" paint-order="fill stroke markers" d=" M 501.5001973235677 228.3809923188182 L 751.117434036125 228.3809923188182" stroke-miterlimit="10" stroke-width="1.3612669416666667" stroke-dasharray=""/><g transform="translate(764.5667514197917,228.3809923188182) translate(-764.5667514197917,-228.3809923188182)"><path fill="black" stroke="none" paint-order="stroke fill markers" d=" M 750.954082003125 221.57465761048485 L 764.5667514197917 228.3809923188182 L 750.954082003125 235.18732702715153 Z"/></g></g><g><rect fill="white" stroke="none" x="800.2319452914584" y="252.88379726881823" width="165.71653999390625" height="21.23576429"/><text fill="black" stroke="none" font-family="sans-serif" font-size="11pt" font-style="normal" font-weight="normal" text-decoration="normal" x="802.6822257864584" y="267.5854802388182" text-anchor="start" dominant-baseline="alphabetic" xml:space="preserve">Truyvndanhschtng</text></g><g><path fill="none" stroke="black" paint-order="fill stroke markers" d=" M 780.9019547197918 274.1195615588182 L 971.8291584733646 274.1195615588182" stroke-miterlimit="10" stroke-width="1.3612669416666667" stroke-dasharray=""/><g transform="translate(985.2784758570313,274.1195615588182) translate(-985.2784758570313,-274.1195615588182)"><path fill="black" stroke="none" paint-order="stroke fill markers" d=" M 971.6658064403646 267.31322685048485 L 985.2784758570313 274.1195615588182 L 971.6658064403646 280.92589626715153 Z"/></g></g><g><rect fill="white" stroke="none" x="807.9735300692904" y="298.6223665088182" width="150.2333704382422" height="21.23576429"/><text fill="black" stroke="none" font-family="sans-serif" font-size="11pt" font-style="normal" font-weight="normal" text-decoration="normal" x="810.4238105642904" y="313.32404947881815" text-anchor="start" dominant-baseline="alphabetic" xml:space="preserve">Trvdanhschtng</text></g><g><path fill="none" stroke="black" paint-order="fill stroke markers" d=" M 985.2784758570313 319.8581307988182 L 794.3512721034584 319.8581307988182" stroke-miterlimit="10" stroke-width="1.3612669416666667" stroke-dasharray="6.53408132"/><g transform="translate(780.9019547197918,319.8581307988182) translate(-780.9019547197918,-319.8581307988182)"><path fill="black" stroke="none" paint-order="stroke fill markers" d=" M 794.5146241364585 313.05179609048486 L 780.9019547197918 319.8581307988182 L 794.5146241364585 326.66446550715153 Z"/></g></g><g><rect fill="white" stroke="none" x="536.3205214523632" y="388.4659846588182" width="193.42590583863281" height="21.23576429"/><text fill="black" stroke="none" font-family="sans-serif" font-size="11pt" font-style="normal" font-weight="normal" text-decoration="normal" x="538.7708019473632" y="403.16766762881815" text-anchor="start" dominant-baseline="alphabetic" xml:space="preserve">Trvdanhschtnglc</text></g><g><path fill="none" stroke="black" paint-order="fill stroke markers" d=" M 764.5667514197917 409.7017489488182 L 514.9495147072344 409.7017489488182" stroke-miterlimit="10" stroke-width="1.3612669416666667" stroke-dasharray="6.53408132"/><g transform="translate(501.5001973235677,409.7017489488182) translate(-501.5001973235677,-409.7017489488182)"><path fill="black" stroke="none" paint-order="stroke fill markers" d=" M 515.1128667402344 402.89541424048485 L 501.5001973235677 409.7017489488182 L 515.1128667402344 416.50808365715153 Z"/></g></g><g><rect fill="white" stroke="none" x="208.03544038670574" y="434.2045538988182" width="158.93773140015625" height="21.23576429"/><text fill="black" stroke="none" font-family="sans-serif" font-size="11pt" font-style="normal" font-weight="normal" text-decoration="normal" x="210.48572088170573" y="448.90623686881816" text-anchor="start" dominant-baseline="alphabetic" xml:space="preserve">Hinthdanhschtng</text></g><g><path fill="none" stroke="black" paint-order="fill stroke markers" d=" M 485.1649940235677 455.4403181888182 L 103.29293553366665 455.4403181888182" stroke-miterlimit="10" stroke-width="1.3612669416666667" stroke-dasharray="6.53408132"/><g transform="translate(89.84361814999998,455.4403181888182) translate(-89.84361814999998,-455.4403181888182)"><path fill="black" stroke="none" paint-order="stroke fill markers" d=" M 103.45628756666665 448.63398348048486 L 89.84361814999998 455.4403181888182 L 103.45628756666665 462.24665289715153 Z"/></g></g><g><rect fill="white" stroke="none" x="520.8301878952343" y="524.0481720488182" width="224.40657295289063" height="21.23576429"/><text fill="black" stroke="none" font-family="sans-serif" font-size="11pt" font-style="normal" font-weight="normal" text-decoration="normal" x="523.2804683902343" y="538.7498550188182" text-anchor="start" dominant-baseline="alphabetic" xml:space="preserve">Trvthngbodanhschtrng</text></g><g><path fill="none" stroke="black" paint-order="fill stroke markers" d=" M 764.5667514197917 545.2839363388182 L 514.9495147072344 545.2839363388182" stroke-miterlimit="10" stroke-width="1.3612669416666667" stroke-dasharray="6.53408132"/><g transform="translate(501.5001973235677,545.2839363388182) translate(-501.5001973235677,-545.2839363388182)"><path fill="black" stroke="none" paint-order="stroke fill markers" d=" M 515.1128667402344 538.4776016304849 L 501.5001973235677 545.2839363388182 L 515.1128667402344 552.0902710471515 Z"/></g></g><g><rect fill="white" stroke="none" x="109.17360872166667" y="569.7867412888181" width="356.6613642126562" height="21.23576429"/><text fill="black" stroke="none" font-family="sans-serif" font-size="11pt" font-style="normal" font-weight="normal" text-decoration="normal" x="111.62388921666667" y="584.4884242588181" text-anchor="start" dominant-baseline="alphabetic" xml:space="preserve">Hinththngbo"Khngctngnoctmthy"</text></g><g><path fill="none" stroke="black" paint-order="fill stroke markers" d=" M 485.1649940235677 591.0225055788181 L 103.29293553366665 591.0225055788181" stroke-miterlimit="10" stroke-width="1.3612669416666667" stroke-dasharray="6.53408132"/><g transform="translate(89.84361814999998,591.0225055788181) translate(-89.84361814999998,-591.0225055788181)"><path fill="black" stroke="none" paint-order="stroke fill markers" d=" M 103.45628756666665 584.2161708704848 L 89.84361814999998 591.0225055788181 L 103.45628756666665 597.8288402871515 Z"/></g></g><g><g/><path fill="none" stroke="black" paint-order="fill stroke markers" d=" M 16.33520329999999 344.3609357488182 L 829.9075646197917 344.3609357488182 L 829.9075646197917 615.5253105288182 L 16.33520329999999 615.5253105288182 L 16.33520329999999 344.3609357488182 Z" stroke-miterlimit="10" stroke-width="2.3336004714285714" stroke-dasharray=""/><path fill="white" stroke="black" paint-order="fill stroke markers" d=" M 16.33520329999999 344.3609357488182 L 16.33520329999999 363.9631797088182 L 62.6944068970703 363.9631797088182 L 72.4955288770703 354.1620577288182 L 72.4955288770703 344.3609357488182 L 16.33520329999999 344.3609357488182" stroke-miterlimit="10" stroke-width="2.3336004714285714" stroke-dasharray=""/><text fill="black" stroke="none" font-family="sans-serif" font-size="8.8pt" font-style="normal" font-weight="bold" text-decoration="normal" x="32.67040659999999" y="357.4290983888182" text-anchor="start" dominant-baseline="alphabetic" xml:space="preserve">alt</text><g><rect fill="white" stroke="none" x="86.3804516820703" y="345.6677520128182" width="143.70160163941406" height="16.988611432000003"/></g><text fill="black" stroke="none" font-family="sans-serif" font-size="8.8pt" font-style="normal" font-weight="bold" text-decoration="normal" x="88.8307321770703" y="357.4290983888182" text-anchor="start" dominant-baseline="alphabetic" xml:space="preserve">[Danhschkhngtrng]</text><g><path fill="none" stroke="black" paint-order="fill stroke markers" d=" M 16.33520329999999 479.9431231388182 L 829.9075646197917 479.9431231388182" stroke-miterlimit="10" stroke-width="2.3336004714285714" stroke-dasharray="4.083800825"/></g><g/><g><rect fill="white" stroke="none" x="86.3804516820703" y="481.2499394028182" width="105.25839485230469" height="16.988611432000003"/></g><text fill="black" stroke="none" font-family="sans-serif" font-size="8.8pt" font-style="normal" font-weight="bold" text-decoration="normal" x="88.8307321770703" y="493.0112857788182" text-anchor="start" dominant-baseline="alphabetic" xml:space="preserve">[Danhschtrng]</text></g><g/></g><g/><g/><g/><g/></g></svg>