<svg xmlns="http://www.w3.org/2000/svg" xmlns:xlink="http://www.w3.org/1999/xlink" version="1.1" width="874.6062293117187" height="784.5946646838181"><desc>title%20Chi%20ti%E1%BA%BFt%20nh%C3%A0%0A%0Abottomparticipants%20%0A%0Aactor%20Landlord%0Aentity%20Client%0Aentity%20Backend%0Adatabase%20Database%0A%0ALandlord%20-%3E%20Client%3A%20Ch%E1%BB%8Dn%20nh%C3%A0%20c%E1%BA%A7n%20xem%20chi%20ti%E1%BA%BFt%0Aactivate%20Landlord%0Aactivate%20Client%0A%0AClient%20-%3E%20Backend%3A%20G%E1%BB%ADi%20ID%20nh%C3%A0%20c%E1%BA%A7n%20l%E1%BA%A5y%20chi%20ti%E1%BA%BFt%0Aactivate%20Backend%0A%0ABackend%20-%3E%20Backend%3A%20Ki%E1%BB%83m%20tra%20quy%E1%BB%81n%0Aactivate%20Database%0ABackend%20-%3E%20Database%3A%20Truy%20v%E1%BA%A5n%20l%E1%BA%A5y%20chi%20ti%E1%BA%BFt%20nh%C3%A0%0A%0ADatabase%20--%3E%20Backend%3A%20Tr%E1%BA%A3%20v%E1%BB%81%20b%E1%BA%A3n%20ghi%20chi%20ti%E1%BA%BFt%20nh%C3%A0%0Adeactivate%20Database%0A%0Aalt%20C%C3%B3%20d%E1%BB%AF%20li%E1%BB%87u%0A%20%20%20%20Backend%20--%3E%20Client%3A%20Tr%E1%BA%A3%20v%E1%BB%81%20th%C3%B4ng%20tin%20chi%20ti%E1%BA%BFt%20nh%C3%A0%0A%20%20%20%20Client%20--%3E%20Landlord%3A%20Hi%E1%BB%83n%20th%E1%BB%8B%20th%C3%B4ng%20tin%20chi%20ti%E1%BA%BFt%20nh%C3%A0%0Aelse%20Kh%C3%B4ng%20c%C3%B3%20d%E1%BB%AF%20li%E1%BB%87u%0A%20%20%20%20Backend%20--%3E%20Client%3A%20Th%C3%B4ng%20b%C3%A1o%20kh%C3%B4ng%20t%C3%ACm%20th%E1%BA%A5y%20d%E1%BB%AF%20li%E1%BB%87u%0A%20%20%20%20deactivate%20Backend%0Aend%0A%0Adeactivate%20Client%0Adeactivate%20Landlord%0A</desc><defs/><g><g/><g/><g/><g/><g/><g/><g/><g/><g/><g/><g/><g/><g/><g/><g/><g/><g/><g/><g/><g/><g/><g/><g/><g/><g/><g/><g/><g/><g/><g/><g/><g/><g/><g/><g/><g/><g/><g/><g/><g/><g/><g/><g/><g/><g/><g/><g/><g/><g/><g/><g/><g/><g/><g/><g/><g/><g/><g/><g/><g/><g/><g/><g/><g/><g/><g/><g/><g/><g/><g/><g/><g/><g/><g/><g/><g/><g/><g/><g/><g/><g/><g/><g/><g/><g/><g/><g/><g/><g/><g/><g/><g/><g/><g/><g/><g/><g/><g/><g/><g/><g/><g/><g/><g/><g/><g/><g><rect fill="white" stroke="none" x="0" y="0" width="874" height="784"/></g><g/><g><path fill="none" stroke="black" paint-order="fill stroke markers" d=" M 81.67601649999999 128.73625218881818 L 81.67601649999999 693.9342863688181" stroke-miterlimit="10" stroke-width="1.3612669416666667" stroke-dasharray="12.565541,5.445067766666667"/><path fill="none" stroke="black" paint-order="fill stroke markers" d=" M 326.56811508274734 128.73625218881818 L 326.56811508274734 693.9342863688181" stroke-miterlimit="10" stroke-width="1.3612669416666667" stroke-dasharray="12.565541,5.445067766666667"/><path fill="none" stroke="black" paint-order="fill stroke markers" d=" M 605.7265100522135 128.73625218881818 L 605.7265100522135 693.9342863688181" stroke-miterlimit="10" stroke-width="1.3612669416666667" stroke-dasharray="12.565541,5.445067766666667"/><path fill="none" stroke="black" paint-order="fill stroke markers" d=" M 833.7682210617187 128.73625218881818 L 833.7682210617187 693.9342863688181" stroke-miterlimit="10" stroke-width="1.3612669416666667" stroke-dasharray="12.565541,5.445067766666667"/></g><g><g><path fill="white" stroke="black" paint-order="fill stroke markers" d=" M 90.987082381 59.63834222981819 A 9.311065881 9.311065881 0 1 1 90.98707772546743 59.62903116548903 M 81.67601649999999 68.9494081108182 L 81.67601649999999 88.8783561368182 M 69.914670124 76.13689756281819 L 93.43736287599998 76.13689756281819 M 81.67601649999999 88.8783561368182 L 69.914670124 107.50048789881819 M 81.67601649999999 88.8783561368182 L 93.43736287599998 107.50048789881819" stroke-miterlimit="10" stroke-width="2.7769845610000004" stroke-dasharray=""/></g><g><g/><text fill="black" stroke="none" font-family="sans-serif" font-size="11pt" font-style="normal" font-weight="normal" text-decoration="normal" x="53.1470400595703" y="123.83569119881818" text-anchor="start" dominant-baseline="alphabetic" xml:space="preserve">Landlord</text></g><g><path fill="white" stroke="black" paint-order="fill stroke markers" d=" M 350.82589198324735 79.63263106901819 A 24.2577769005 24.2577769005 0 1 1 350.8258798543599 79.60837329616064 M 300.92184590174736 106.11199561831819 L 352.2143842637473 106.11199561831819" stroke-miterlimit="10" stroke-width="2.7769845610000004" stroke-dasharray=""/></g><g><g/><text fill="black" stroke="none" font-family="sans-serif" font-size="11pt" font-style="normal" font-weight="normal" text-decoration="normal" x="307.8279646310872" y="123.83569119881818" text-anchor="start" dominant-baseline="alphabetic" xml:space="preserve">Client</text></g><g><path fill="white" stroke="black" paint-order="fill stroke markers" d=" M 629.9842869527134 79.63263106901819 A 24.2577769005 24.2577769005 0 1 1 629.984274823826 79.60837329616064 M 580.0802408712135 106.11199561831819 L 631.3727792332135 106.11199561831819" stroke-miterlimit="10" stroke-width="2.7769845610000004" stroke-dasharray=""/></g><g><g/><text fill="black" stroke="none" font-family="sans-serif" font-size="11pt" font-style="normal" font-weight="normal" text-decoration="normal" x="577.201111797819" y="123.83569119881818" text-anchor="start" dominant-baseline="alphabetic" xml:space="preserve">Backend</text></g><g><path fill="white" stroke="black" paint-order="fill stroke markers" d=" M 809.9188242437187 96.71925372081819 L 809.9188242437187 62.41532679081819 L 857.6176178797186 62.41532679081819 L 857.6176178797186 96.71925372081819" stroke-miterlimit="10" stroke-width="2.7769845610000004" stroke-dasharray=""/><path fill="white" stroke="black" paint-order="fill stroke markers" d=" M 857.6176178797186 61.22285694991819 L 857.616425419815 61.33066749483481 L 857.6128481593489 61.43846725878678 L 857.6068864560436 61.546245461887544 L 857.5985409060643 61.65399132640659 L 857.5878123439591 61.761694077847274 L 857.5747018425752 61.86934294602419 L 857.559210712952 61.976927166140236 L 857.5413405041894 62.084435979863045 L 857.5210930032933 62.19185863640084 L 857.4984702349972 62.299184393577484 L 857.4734744615588 62.4064025189067 L 857.4461081825348 62.51350229066531 L 857.4163741345302 62.62047299896537 L 857.3842752909251 62.7273039468252 L 857.349814861577 62.83398445123905 L 857.3129962925002 62.94050384424536 L 857.2738232655208 63.04685147399361 L 857.2322996979091 63.15301670580944 L 857.1884297419871 63.25898892325815 L 857.1422177847137 63.364757529206294 L 857.0936684472464 63.47031194688142 L 857.0427865844783 63.575641620929716 L 856.9895772845534 63.68073601847156 L 856.9340458683572 63.78558463015478 L 856.8761978889852 63.89017697120557 L 856.816039131187 63.994502582477 L 856.7535756107884 64.09855103149486 L 856.6888135740892 64.20231191350096 L 856.6217594972392 64.3057748524936 L 856.5524200855903 64.40892950226505 L 856.4808022730256 64.51176554743633 L 856.4069132212669 64.61427270448858 L 856.3307603191579 64.71644072279157 L 856.2523511819251 64.81825938562858 L 856.171693650417 64.91971851121816 L 856.0887957903195 65.02080795373233 L 856.0036658913497 65.12151760431107 L 855.9163124664262 65.22183739207324 L 855.826744250819 65.32175728512367 L 855.734970201275 65.42126729155632 L 855.6409994951225 65.52035746045347 L 855.544841529354 65.6190178828808 L 855.4465059196859 65.71723869287828 L 855.346002499597 65.81501006844678 L 855.243341319346 65.91232223253022 L 855.1385326449649 66.00916545399325 L 855.031586957234 66.10553004859446 L 854.9225149506331 66.20140637995469 L 854.8113275322718 66.29678486052069 L 854.6980358207992 66.39165595252388 L 854.5826511452923 66.48601016893414 L 854.4651850441222 66.57983807440844 L 854.3456492638013 66.67313028623443 L 854.2240557578081 66.76587747526865 L 854.1004166853917 66.85807036686953 L 853.9747444103563 66.94969974182469 L 853.8470514998248 67.04075643727302 L 853.7173507229818 67.13123134762085 L 853.5856550497969 67.22111542545254 L 853.4519776497276 67.3103996824352 L 853.3163318904027 67.39907519021754 L 853.1787313362848 67.4871330813227 L 853.0391897473149 67.57456455003492 L 852.8977210775356 67.6613608532802 L 852.7543394736958 67.74751331150055 L 852.6090592738367 67.83301330952195 L 852.4618950058568 67.91785229741582 L 852.3128613860607 68.00202179135408 L 852.1619733176858 68.08551337445749 L 852.0092458894135 68.1683186976373 L 851.8546943738593 68.25042948043021 L 851.6983342260457 68.33183751182635 L 851.5401810818574 68.41253465109044 L 851.3802507564772 68.4925128285758 L 851.218559242804 68.5717640465313 L 851.0551227098547 68.65028037990122 L 850.8899575011461 68.72805397711764 L 850.7230801330618 68.80507706088565 L 850.5545072931993 68.88134192896105 L 850.3842558387022 68.95684095492061 L 850.212342794574 69.03156658892462 L 850.038785351976 69.10551135847197 L 849.8636008665077 69.17866786914732 L 849.6868068564717 69.25102880536058 L 849.5084210011216 69.3225869310784 L 849.3284611388943 69.39333509054786 L 849.1469452656263 69.46326620901198 L 848.9638915327533 69.53237329341717 L 848.7793182454964 69.60064943311258 L 848.5932438610301 69.66808780054113 L 848.4056869866382 69.7346816519223 L 848.2166663778515 69.80042432792644 L 848.0262009365737 69.86530925434072 L 847.8343097091898 69.92932994272657 L 847.641011884663 69.9924799910685 L 847.4463267926145 70.05475308441433 L 847.2502739013913 70.1161429955066 L 847.0528728161191 70.17664358540536 L 846.8541432767421 70.23624880410202 L 846.6541051560483 70.29495269112441 L 846.4527784576834 70.35274937613272 L 846.2501833141494 70.40963307950663 L 846.0463399847915 70.46559811292322 L 845.8412688537733 70.52063887992576 L 845.6349904280365 70.57474987648341 L 845.4275253352522 70.62792569154163 L 845.2188943217565 70.68016100756323 L 845.0091182504771 70.73145060106012 L 844.7982180988461 70.78178934311569 L 844.586214956703 70.8311721998977 L 844.3731300241853 70.8795942331616 L 844.158984609609 70.92705060074444 L 843.9438001273367 70.973536557049 L 843.7275980956374 71.01904745351838 L 843.5104001345343 71.06357873910088 L 843.2922279636423 71.10712596070502 L 843.0731033999967 71.14968476364494 L 842.8530483558714 71.19125089207583 L 842.6320848365873 71.23182018941947 L 842.4102349383123 71.27138859877994 L 842.1875208458513 71.30995216334925 L 841.9639648304278 71.34750702680313 L 841.7395892474574 71.38404943368649 L 841.5144165343111 71.4195757297891 L 841.2884692080727 71.45408236251096 L 841.0617698632865 71.48756588121756 L 840.8343411696981 71.52002293758491 L 840.6062058699872 71.55145028593446 L 840.3773867774939 71.58184478355753 L 840.1479067739366 71.61120339102969 L 839.9177888071246 71.63952317251467 L 839.6870558886625 71.66680129605793 L 839.4557310916501 71.69303503386982 L 839.2238375483743 71.71822176259843 L 838.9913984479962 71.7423589635919 L 838.7584370342321 71.7654442231502 L 838.5249766030291 71.78747523276665 L 838.2910405002361 71.80844978935863 L 838.0566521192682 71.82836579548797 L 837.8218348987682 71.84722125957065 L 837.5866123202626 71.86501429607597 L 837.3510079058129 71.8817431257151 L 837.1150452156646 71.89740607561903 L 836.87874784589 71.91200157950583 L 836.642139426029 71.92552817783725 L 836.4052436167264 71.93798451796474 L 836.1680841073659 71.94936935426468 L 835.9306846137007 71.95968154826289 L 835.6930688754823 71.96892006874862 L 835.4552606540866 71.97708399187748 L 835.2172837301375 71.98417250126396 L 834.9791619011291 71.99018488806304 L 834.740918979046 71.99512055104105 L 834.5025787879816 71.99897899663581 L 834.2641651617566 72.00175983900598 L 834.0257019415349 72.00346280006961 L 833.7872129734398 72.00408770953204 L 833.5487221061692 72.00363450490285 L 833.3102531886113 72.0021032315021 L 833.0718300674591 71.99949404245586 L 832.8334765848261 71.9958071986809 L 832.5952165758617 71.99104306885846 L 832.3570738663685 71.98520212939759 L 832.1190722704189 71.97828496438737 L 831.8812355879741 71.97029226553852 L 831.6435876025041 71.96122483211428 L 831.4061520786096 71.95108357085043 L 831.1689527596449 71.93986949586466 L 830.9320133653445 71.92758372855508 L 830.6953575894502 71.91422749748824 L 830.4590090973423 71.89980213827607 L 830.2229915236733 71.8843090934425 L 829.9873284700037 71.86774991227908 L 829.7520435024426 71.85012625069015 L 829.5171601492906 71.83143987102717 L 829.2827018986873 71.81169264191253 L 829.0486921962624 71.79088653805269 L 828.815154442791 71.7690236400407 L 828.5821119918542 71.74610613414815 L 828.3495881475025 71.72213631210651 L 828.1176061619266 71.69711657087802 L 827.886189233132 71.67104941241597 L 827.6553605026185 71.64393744341446 L 827.4251430530669 71.6157833750478 L 827.1955599060303 71.58659002269937 L 826.966634019632 71.55636030568009 L 826.73838828627 71.52509724693644 L 826.5108455303274 71.49280397274828 L 826.2840285058901 71.45948371241609 L 826.0579598944717 71.42513979793813 L 825.8326623027447 71.38977566367726 L 825.6081582602806 71.35339484601741 L 825.3844702172967 71.31600098301004 L 825.1616205424108 71.27759781401028 L 824.9396315204046 71.23818917930303 L 824.7185253499956 71.19777901971894 L 824.4983241416162 71.15637137624027 L 824.279049915204 71.11397038959687 L 824.0607245979988 71.07058029985207 L 823.8433700223504 71.02620544597868 L 823.6270079235354 70.98085026542512 L 823.4116599375831 70.93451929367163 L 823.1973475991128 70.8872171637768 L 822.9840923391797 70.8389486059142 L 822.7719154831323 70.78971844689937 L 822.560838248479 70.7395316097072 L 822.3508817427676 70.6883931129796 L 822.1420669614737 70.6363080705236 L 821.9344147859014 70.58328169080006 L 821.7279459810952 70.52931927640276 L 821.5226811937636 70.47442622352818 L 821.3186409502141 70.41860802143584 L 821.1158456543011 70.36187025189946 L 820.9143155853853 70.3042185886487 L 820.7140708963057 70.24565879680183 L 820.515131611364 70.18619673228926 L 820.3175176243233 70.12583834126788 L 820.1212486964174 70.06458965952649 L 819.9263444543756 70.00245681188221 L 819.7328243884597 69.93944601156807 L 819.5407078505149 69.87556355961155 L 819.3500140520351 69.81081584420461 L 819.1607620622411 69.74520934006487 L 818.9729708061742 69.67875060778805 L 818.7866590628036 69.61144629319199 L 818.6018454631482 69.54330312665208 L 818.4185484884141 69.47432792242817 L 818.236786468146 69.40452757798322 L 818.0565775783944 69.3339090732935 L 817.8779398398981 69.26247947015062 L 817.7008911162822 69.19024591145539 L 817.5254491122713 69.11721562050347 L 817.3516313719199 69.0433959002631 L 817.179455276857 68.96879413264479 L 817.0089380445486 68.89341777776313 L 816.840096726576 68.81727437319081 L 816.6729482069301 68.74037153320482 L 816.5075092003237 68.66271694802508 L 816.3437962505195 68.58431838304537 L 816.1818257286762 68.5051836780569 L 816.021613831711 68.4253207464642 L 815.8631765806798 68.34473757449386 L 815.706529819176 68.26344222039596 L 815.5516892117452 68.18144281363814 L 815.3986702423188 68.09874755409275 L 815.2474882126666 68.01536471121685 L 815.0981582408652 67.9313026232252 L 814.9506952597877 67.84656969625658 L 814.8051140156092 67.76117440353308 L 814.6614290663327 67.67512528451279 L 814.5196547803336 67.5884309440359 L 814.3798053349221 67.50110005146425 L 814.2418947149264 67.41314133981427 L 814.1059367112933 67.32456360488388 L 813.9719449197103 67.23537570437271 L 813.8399327392445 67.14558655699653 L 813.7099133710042 67.05520514159522 L 813.5818998168177 66.96424049623502 L 813.4559048779338 66.87270171730466 L 813.3319411537415 66.78059795860575 L 813.2100210405098 66.68793843043741 L 813.0901567301484 66.59473239867523 L 812.9723602089884 66.50098918384472 L 812.856643256584 66.40671816018926 L 812.7430174445337 66.31192875473263 L 812.6314941353244 66.2166304463364 L 812.5220844811937 66.120832764752 L 812.414799423016 66.02454528966774 L 812.3096496892077 65.92777764975091 L 812.2066457946547 65.83053952168484 L 812.1057980396604 65.73284062920132 L 812.0071165089163 65.63469074210818 L 811.9106110704934 65.53609967531233 L 811.8162913748549 65.4370772878383 L 811.7241668538919 65.33763348184232 L 811.6342467199797 65.23777820162212 L 811.5465399650568 65.13752143262249 L 811.4610553597255 65.03687320043682 L 811.3778014523753 64.93584356980442 L 811.2967865683272 64.83444264360419 L 811.2180188090024 64.73268056184422 L 811.1415060511112 64.63056750064791 L 811.0672559458653 64.52811367123628 L 810.9952759182138 64.42532931890689 L 810.9255731660991 64.32222472200931 L 810.8581546597386 64.21881019091732 L 810.7930271409266 64.11509606699785 L 810.7301971223607 64.01109272157687 L 810.6696708869905 63.90681055490224 L 810.611454487389 63.80225999510374 L 810.5555537451478 63.697451497150205 L 810.5019742502943 63.59239554180411 L 810.4507213607335 63.48710263457343 L 810.4018002017117 63.381583304661156 L 810.3552156653038 63.27584810391234 L 810.310972409925 63.16990760575894 L 810.2690748598635 63.06377240416249 L 810.2295272048398 62.95745311255472 L 810.1923333995861 62.85096036277616 L 810.1574971634523 62.744304804013076 L 810.1250219800326 62.63749710173245 L 810.0949110968186 62.530547936615505 L 810.0671675248733 62.423468003489624 L 810.041794038531 62.316268010258895 L 810.018793175119 62.208958676833305 L 809.9981672347045 62.10155073405677 L 809.9799182798644 61.99405492263407 L 809.964048135479 61.88648199205676 L 809.9505583885494 61.77884269952825 L 809.9394503880392 61.6711478088881 L 809.9307252447392 61.56340808953563 L 809.9243838311562 61.45563431535299 L 809.9204267814266 61.34783726362778 L 809.9188544912519 61.24002771397536 L 809.9196671178598 61.13221644726084 L 809.9228645799884 61.02441424452105 L 809.9284465578941 60.916631885886424 L 809.9364124933837 60.808880149503025 L 809.9467615898704 60.70116981045468 L 809.9594928124533 60.59351163968555 L 809.9746048880204 60.48591640292299 L 809.992096305377 60.378394859601016 L 810.0119653153959 60.27095776178435 L 810.0342099311924 60.163615853093255 L 810.0588279283239 60.05637986762915 L 810.0858168450109 59.949260528901206 L 810.1151739823842 59.84226854875404 L 810.1468964047548 59.7354146262965 L 810.1809809399067 59.62870944683179 L 810.2174241794147 59.52216368078894 L 810.2562224789855 59.41578798265577 L 810.2973719588211 59.30959298991343 L 810.3408685040082 59.203589321972714 L 810.3867077649282 59.09778757911208 L 810.4348851576934 58.992198341417634 L 810.4853958646047 58.88683216772516 L 810.5382348346333 58.78169959456423 L 810.5933967839264 58.67681113510454 L 810.650876196335 58.57217727810464 L 810.7106673239658 58.46780848686303 L 810.7727641877557 58.36371519817185 L 810.8371605780702 58.25990782127324 L 810.903850055324 58.15639673681838 L 810.9728259506248 58.053192295829454 L 811.0440813664407 57.950304818664556 L 811.1176091772893 57.84774459398567 L 811.1934020304509 57.745521877729786 L 811.2714523467033 57.64364689208335 L 811.3517523210801 57.54212982446004 L 811.4342939236504 57.44098082648201 L 811.5190689003232 57.340210012964775 L 811.6060687736712 57.2398274609057 L 811.6952848437795 57.13984320847635 L 811.7867081891156 57.040267254018644 L 811.8803296674212 56.94110955504505 L 811.9761399166262 56.84238002724283 L 812.0741293557858 56.74408854348249 L 812.1742881860376 56.646244932830506 L 812.2766063915822 56.54885897956639 L 812.381073740684 56.45194042220433 L 812.4876797866955 56.35549895251929 L 812.5964138691007 56.25954421457787 L 812.707265114582 56.16408580377391 L 812.8202224381074 56.06913326586893 L 812.9352745440385 55.974696096037604 L 813.0524099272607 55.88078373791821 L 813.171616874333 55.7874055826683 L 813.2928834646605 55.694570968025594 L 813.416197571685 55.60228917737418 L 813.5415468640983 55.51056943881623 L 813.668918807076 55.41942092424918 L 813.7983006635299 55.328852748448504 L 813.929679495382 55.23887396815633 L 814.0630421648585 55.14949358117568 L 814.1983753358039 55.0607205254708 L 814.3356654750138 54.97256367827326 L 814.4748988535886 54.88503185519433 L 814.6160615483064 54.79813380934336 L 814.7591394430156 54.71187823045254 L 814.9041182300457 54.62627374400786 L 815.050983411639 54.541328910386646 L 815.1997203013997 54.45705222400146 L 815.3503140257626 54.373452112450714 L 815.502749525481 54.290536935675895 L 815.6570115571318 54.20831498512558 L 815.8130846946405 54.12679448292632 L 815.9709533308232 54.0459835810604 L 816.1306016789482 53.965890360550645 L 816.2920137743133 53.88652283065238 L 816.4551734758438 53.80788892805245 L 816.6200644677053 53.72999651607559 L 816.7866702609363 53.652853383898076 L 816.954974195096 53.57646724576885 L 817.1249594399313 53.50084574023808 L 817.2966089970596 53.42599642939328 L 817.469905701668 53.35192679810317 L 817.6448322242305 53.278644253269164 L 817.8213710722407 53.20615612308466 L 817.9995045919608 53.13446965630228 L 818.1792149701873 53.06359202150896 L 818.3604842360322 52.99353030640911 L 818.5432942627199 52.924291517115876 L 818.7276267694001 52.85588257745046 L 818.9134633229759 52.78831032824984 L 819.1007853399465 52.72158152668263 L 819.2895740882664 52.65570284557336 L 819.4798106892182 52.590680872735255 L 819.6714761193003 52.52652211031142 L 819.8645512121294 52.463232974124615 L 820.0590166603571 52.40081979303573 L 820.2548530176007 52.33928880831086 L 820.4520407003874 52.278646172997206 L 820.6505599901137 52.21889795130775 L 820.8503910350157 52.160050118014894 L 821.0515138521555 52.1021085578529 L 821.2539083294191 52.045079064929524 L 821.4575542275275 51.98896734214652 L 821.6624311820602 51.933779000629414 L 821.8685187054929 51.87951955916637 L 822.0757961892448 51.826194443656306 L 822.2842429057403 51.77380898656634 L 822.4938380104815 51.72236842639853 L 822.7045605441324 51.67187790716602 L 822.9163894346154 51.622342477878675 L 823.129303499218 51.57376709203812 L 823.3432814467112 51.526156607142475 L 823.5583018794784 51.47951578420055 L 823.7743432956556 51.43384928725578 L 823.9913840912811 51.38916168291979 L 824.2094025624565 51.34545743991578 L 824.428376907516 51.302740928631636 L 824.6482852292079 51.261016420682886 L 824.869105536883 51.220288088485546 L 825.0908157486947 51.18056000483891 L 825.3133936938066 51.14183614251822 L 825.5368171146096 51.10412037387746 L 825.7610636689477 51.06741647046204 L 825.9861109323526 51.03172810263173 L 826.2119364002854 50.99705883919358 L 826.4385174903874 50.96341214704502 L 826.6658315447386 50.930791390827245 L 826.8938558321227 50.899199832588685 L 827.1225675503011 50.86864063145883 L 827.3519438282927 50.83911684333235 L 827.5819617286609 50.81063142056343 L 827.812598249807 50.78318721167063 L 828.0438303282714 50.75678696105195 L 828.2756348410387 50.731433308710464 L 828.5079886078511 50.70712878999027 L 828.7408683935253 50.683875835323 L 828.9742509102769 50.66167676998473 L 829.2081128200487 50.6405338138635 L 829.4424307368445 50.6204490812373 L 829.677181229068 50.60142458056266 L 829.9123408218655 50.583462214273794 L 830.1478859994739 50.566563778592354 L 830.3837932075716 50.55073096334783 L 830.6200388556343 50.53596535180856 L 830.8565993192941 50.52226842052339 L 831.0934509427019 50.50964153917403 L 831.3305700408926 50.49808597043808 L 831.567932902154 50.48760286986282 L 831.8055157903977 50.47819328574954 L 832.043294947533 50.46985815904882 L 832.2812465958424 50.462598323266384 L 832.5193469403591 50.456414504379765 L 832.7575721712473 50.45130732076569 L 832.9958984661823 50.44727728313828 L 833.2343019927333 50.444324794497916 L 833.4727589107462 50.44245015009101 L 833.711245374728 50.44165353738045 L 833.949737536231 50.44193503602685 L 834.1882115462379 50.443294617880554 L 834.4266435575463 50.445732146984525 L 834.6650097271538 50.44924737958788 L 834.903286218642 50.45383996417029 L 835.1414492045606 50.459509441477124 L 835.3794748688091 50.46625524456538 L 835.6173394090196 50.474076698860365 L 835.8550190389362 50.48297302222316 L 836.0924899907943 50.49294332502887 L 836.3297285176963 50.50398661025549 L 836.5667108959872 50.51610177358371 L 836.8034134276268 50.52928760350731 L 837.0398124425591 50.54354278145426 L 837.2758843010797 50.55886588191867 L 837.5116053961993 50.575255372603245 L 837.746952156005 50.592709614572584 L 837.9819010460169 50.61122686241703 L 838.2164285715417 50.630805264427224 L 838.4505112800224 50.651442862779284 L 838.6841257633831 50.67313759373059 L 838.9172486603702 50.695887287826096 L 839.1498566588883 50.71968967011537 L 839.3819264983314 50.74454236038002 L 839.6134349719089 50.77044287337172 L 839.8443589289664 50.797388619060754 L 840.0746752773006 50.825376902895016 L 840.3043609854685 50.85440492606945 L 840.5333930850909 50.88446978580591 L 840.7617486731485 50.9155684756435 L 840.989404914273 50.947697885739125 L 841.2163390430297 50.980854803178566 L 841.4425283661951 51.01503591229771 L 841.6679502650254 51.05023779501413 L 841.8925821975183 51.08645693116888 L 842.116401700668 51.12368969887854 L 842.3393863927106 51.16193237489736 L 842.5615139753626 51.201181134989596 L 842.7827622360511 51.241432054311964 L 843.0031090501342 51.28268110780607 L 843.2225323831141 51.32492417060092 L 843.4410102928405 51.368157018425464 L 843.6585209317044 51.41237532803093 L 843.8750425488232 51.45757467762322 L 844.0905534922156 51.503750547305025 L 844.3050322109668 51.55089831952786 L 844.5184572573838 51.5990132795538 L 844.7308072891398 51.64809061592693 L 844.9420610714085 51.69812542095451 L 845.1521974789877 51.749112691197745 L 845.3611954984117 51.801047327972086 L 845.5690342300529 51.85392413785714 L 845.7756928902112 51.90773783321599 L 845.9811508131929 51.962483032723924 L 846.1853874533768 52.01815426190663 L 846.3883823872692 52.07474595368758 L 846.5901153155457 52.132252448944755 L 846.7905660650819 52.190667997076545 L 846.9897145909695 52.24998675657682 L 847.1875409785221 52.310202795619055 L 847.3840254452657 52.371310092649544 L 847.5791483429175 52.43330253698949 L 847.7728901593503 52.49617392944612 L 847.9652315205436 52.559917982932596 L 848.1561531925221 52.62452832309667 L 848.3456360832772 52.68999848895818 L 848.5336612446781 52.7563219335551 L 848.7202098743652 52.823492024598224 L 848.9052633176309 52.89150204513444 L 849.0888030692852 52.960345194218355 L 849.2708107755059 53.03001458759244 L 849.451268235674 53.10050325837541 L 849.6301574041938 53.171804157758935 L 849.8074603922976 53.243910155712484 L 849.9831594698344 53.31681404169635 L 850.1572370670427 53.39050852538269 L 850.329675776308 53.46498623738456 L 850.500458353903 53.5402397299928 L 850.6695677217123 53.61626147792087 L 850.8369869689399 53.69304387905734 L 851.0026993538007 53.770579255226075 L 851.1666883051944 53.848859852954064 L 851.3289374243624 53.92787784424677 L 851.489430486528 54.00762532737092 L 851.6481514425188 54.08809432764465 L 851.8050844203714 54.16927679823499 L 851.9602137269187 54.251164620962534 L 852.1135238493596 54.33374960711325 L 852.2649994568093 54.41702349825734 L 852.4146254018334 54.500977967075094 L 852.5623867219622 54.58560461818958 L 852.7082686411867 54.670894989006214 L 852.8522565714366 54.75684055055899 L 852.9943361140388 54.84343270836337 L 853.1344930611575 54.93066280327574 L 853.2727133972147 55.0185221123593 L 853.4089833002921 55.107001849756344 L 853.5432891435129 55.196093167566886 L 853.6756174964047 55.28578715673337 L 853.8059551262423 55.37607484793163 L 853.9342889993717 55.46694721246779 L 854.0606062825124 55.55839516318112 L 854.184894344041 55.65040955535275 L 854.3071407552554 55.742981187620146 L 854.4273332916162 55.83610080289723 L 854.5454599339698 55.92975908930006 L 854.6615088697505 56.02394668107806 L 854.7754684941614 56.11865415955053 L 854.887327411335 56.213872054048544 L 854.9970744354729 56.30959084286201 L 855.104698591964 56.405800954191804 L 855.2101891184825 56.50249276710697 L 855.3135354660635 56.5996566125068 L 855.4147273001585 56.69728277408771 L 855.5137545016684 56.79536148931491 L 855.6106071679553 56.89388295039859 L 855.7052756138337 56.99283730527477 L 855.7977503725376 57.09221465859041 L 855.8880221966684 57.19200507269298 L 855.9760820591188 57.29219856862425 L 856.0619211539758 57.39278512711811 L 856.1455308974018 57.49375468960253 L 856.2269029284918 57.59509715920541 L 856.3060291101107 57.69680240176424 L 856.3829015297061 57.79886024683951 L 856.4575125001003 57.90126048873177 L 856.5298545602584 58.003992887502164 L 856.5999204760345 58.10704716999642 L 856.6677032408955 58.21041303087217 L 856.7331960766215 58.31408013362946 L 856.7963924339833 58.41803811164441 L 856.8572859933981 58.52227656920584 L 856.9158706655605 58.62678508255487 L 856.9721405920521 58.731553200927245 L 857.0260901459274 58.83657044759845 L 857.0777139322756 58.94182632093131 L 857.1270067887613 59.04731029542622 L 857.1739637861399 59.153011822773635 L 857.2185802287507 59.25892033290889 L 857.2608516549868 59.36502523506925 L 857.3007738377406 59.471315918852895 L 857.3383427848273 59.57778175528004 L 857.3735547393833 59.684412097855756 L 857.4064061802426 59.79119628363465 L 857.4368938222885 59.89812363428712 L 857.4650146167822 60.005183457167206 L 857.4907657516676 60.11236504638185 L 857.5141446518528 60.21965768386144 L 857.5351489794671 60.327050640431644 L 857.5537766340954 60.43453317688629 L 857.5700257529876 60.5420945450613 L 857.5838947112455 60.6497239889095 L 857.5953821219848 60.757410745576195 L 857.6044868364739 60.86514404647545 L 857.6112079442491 60.972913118366954 L 857.6155447732051 61.08070718443333 L 857.6174968896627 61.188515465357796 M 857.6176178797186 95.52678387991818 L 857.616425419815 95.6345944248348 L 857.6128481593489 95.74239418878678 L 857.6068864560436 95.85017239188754 L 857.5985409060643 95.95791825640659 L 857.5878123439591 96.06562100784727 L 857.5747018425752 96.1732698760242 L 857.559210712952 96.28085409614023 L 857.5413405041894 96.38836290986303 L 857.5210930032933 96.49578556640084 L 857.4984702349972 96.60311132357748 L 857.4734744615588 96.7103294489067 L 857.4461081825348 96.8174292206653 L 857.4163741345302 96.92439992896537 L 857.3842752909251 97.0312308768252 L 857.349814861577 97.13791138123905 L 857.3129962925002 97.24443077424536 L 857.2738232655208 97.35077840399362 L 857.2322996979091 97.45694363580944 L 857.1884297419871 97.56291585325815 L 857.1422177847137 97.66868445920629 L 857.0936684472464 97.77423887688141 L 857.0427865844783 97.8795685509297 L 856.9895772845534 97.98466294847155 L 856.9340458683572 98.08951156015478 L 856.8761978889852 98.19410390120557 L 856.816039131187 98.29842951247699 L 856.7535756107884 98.40247796149485 L 856.6888135740892 98.50623884350097 L 856.6217594972392 98.60970178249359 L 856.5524200855903 98.71285643226504 L 856.4808022730256 98.81569247743631 L 856.4069132212669 98.91819963448859 L 856.3307603191579 99.02036765279156 L 856.2523511819251 99.12218631562857 L 856.171693650417 99.22364544121817 L 856.0887957903195 99.32473488373233 L 856.0036658913497 99.42544453431107 L 855.9163124664262 99.52576432207324 L 855.826744250819 99.62568421512367 L 855.734970201275 99.72519422155631 L 855.6409994951225 99.82428439045346 L 855.544841529354 99.92294481288079 L 855.4465059196859 100.02116562287829 L 855.346002499597 100.11893699844678 L 855.243341319346 100.2162491625302 L 855.1385326449649 100.31309238399325 L 855.031586957234 100.40945697859446 L 854.9225149506331 100.50533330995468 L 854.8113275322718 100.60071179052068 L 854.6980358207992 100.69558288252388 L 854.5826511452923 100.78993709893413 L 854.4651850441222 100.88376500440843 L 854.3456492638013 100.97705721623441 L 854.2240557578081 101.06980440526866 L 854.1004166853917 101.16199729686952 L 853.9747444103563 101.25362667182469 L 853.8470514998248 101.34468336727302 L 853.7173507229818 101.43515827762084 L 853.5856550497969 101.52504235545253 L 853.4519776497276 101.61432661243519 L 853.3163318904027 101.70300212021755 L 853.1787313362848 101.7910600113227 L 853.0391897473149 101.87849148003492 L 852.8977210775356 101.9652877832802 L 852.7543394736958 102.05144024150056 L 852.6090592738367 102.13694023952193 L 852.4618950058568 102.22177922741581 L 852.3128613860607 102.30594872135407 L 852.1619733176858 102.38944030445748 L 852.0092458894135 102.47224562763729 L 851.8546943738593 102.5543564104302 L 851.6983342260457 102.63576444182635 L 851.5401810818574 102.71646158109044 L 851.3802507564772 102.79643975857579 L 851.218559242804 102.8756909765313 L 851.0551227098547 102.95420730990122 L 850.8899575011461 103.03198090711763 L 850.7230801330618 103.10900399088564 L 850.5545072931993 103.18526885896105 L 850.3842558387022 103.2607678849206 L 850.212342794574 103.33549351892461 L 850.038785351976 103.40943828847196 L 849.8636008665077 103.48259479914732 L 849.6868068564717 103.55495573536056 L 849.5084210011216 103.6265138610784 L 849.3284611388943 103.69726202054787 L 849.1469452656263 103.76719313901197 L 848.9638915327533 103.83630022341715 L 848.7793182454964 103.90457636311257 L 848.5932438610301 103.97201473054113 L 848.4056869866382 104.03860858192229 L 848.2166663778515 104.10435125792642 L 848.0262009365737 104.1692361843407 L 847.8343097091898 104.23325687272656 L 847.641011884663 104.29640692106851 L 847.4463267926145 104.35868001441433 L 847.2502739013913 104.4200699255066 L 847.0528728161191 104.48057051540535 L 846.8541432767421 104.54017573410202 L 846.6541051560483 104.5988796211244 L 846.4527784576834 104.65667630613272 L 846.2501833141494 104.71356000950664 L 846.0463399847915 104.7695250429232 L 845.8412688537733 104.82456580992574 L 845.6349904280365 104.87867680648341 L 845.4275253352522 104.93185262154162 L 845.2188943217565 104.98408793756322 L 845.0091182504771 105.0353775310601 L 844.7982180988461 105.08571627311568 L 844.586214956703 105.13509912989768 L 844.3731300241853 105.1835211631616 L 844.158984609609 105.23097753074444 L 843.9438001273367 105.27746348704899 L 843.7275980956374 105.32297438351839 L 843.5104001345343 105.36750566910086 L 843.2922279636423 105.41105289070501 L 843.0731033999967 105.45361169364494 L 842.8530483558714 105.49517782207583 L 842.6320848365873 105.53574711941947 L 842.4102349383123 105.57531552877992 L 842.1875208458513 105.61387909334925 L 841.9639648304278 105.65143395680312 L 841.7395892474574 105.68797636368647 L 841.5144165343111 105.72350265978909 L 841.2884692080727 105.75800929251095 L 841.0617698632865 105.79149281121755 L 840.8343411696981 105.82394986758491 L 840.6062058699872 105.85537721593445 L 840.3773867774939 105.88577171355752 L 840.1479067739366 105.9151303210297 L 839.9177888071246 105.94345010251467 L 839.6870558886625 105.97072822605791 L 839.4557310916501 105.99696196386981 L 839.2238375483743 106.02214869259844 L 838.9913984479962 106.04628589359189 L 838.7584370342321 106.0693711531502 L 838.5249766030291 106.09140216276666 L 838.2910405002361 106.11237671935864 L 838.0566521192682 106.13229272548797 L 837.8218348987682 106.15114818957065 L 837.5866123202626 106.16894122607596 L 837.3510079058129 106.1856700557151 L 837.1150452156646 106.20133300561903 L 836.87874784589 106.21592850950582 L 836.642139426029 106.22945510783724 L 836.4052436167264 106.24191144796474 L 836.1680841073659 106.25329628426466 L 835.9306846137007 106.2636084782629 L 835.6930688754823 106.2728469987486 L 835.4552606540866 106.28101092187747 L 835.2172837301375 106.28809943126396 L 834.9791619011291 106.29411181806304 L 834.740918979046 106.29904748104106 L 834.5025787879816 106.30290592663582 L 834.2641651617566 106.30568676900597 L 834.0257019415349 106.30738973006962 L 833.7872129734398 106.30801463953205 L 833.5487221061692 106.30756143490284 L 833.3102531886113 106.3060301615021 L 833.0718300674591 106.30342097245587 L 832.8334765848261 106.29973412868088 L 832.5952165758617 106.29496999885845 L 832.3570738663685 106.28912905939758 L 832.1190722704189 106.28221189438736 L 831.8812355879741 106.27421919553852 L 831.6435876025041 106.26515176211427 L 831.4061520786096 106.25501050085043 L 831.1689527596449 106.24379642586464 L 830.9320133653445 106.23151065855508 L 830.6953575894502 106.21815442748823 L 830.4590090973423 106.20372906827606 L 830.2229915236733 106.1882360234425 L 829.9873284700037 106.17167684227908 L 829.7520435024426 106.15405318069014 L 829.5171601492906 106.13536680102716 L 829.2827018986873 106.11561957191253 L 829.0486921962624 106.09481346805269 L 828.815154442791 106.0729505700407 L 828.5821119918542 106.05003306414814 L 828.3495881475025 106.0260632421065 L 828.1176061619266 106.00104350087803 L 827.886189233132 105.97497634241597 L 827.6553605026185 105.94786437341445 L 827.4251430530669 105.9197103050478 L 827.1955599060303 105.89051695269937 L 826.966634019632 105.86028723568009 L 826.73838828627 105.82902417693644 L 826.5108455303274 105.79673090274827 L 826.2840285058901 105.76341064241608 L 826.0579598944717 105.72906672793813 L 825.8326623027447 105.69370259367726 L 825.6081582602806 105.6573217760174 L 825.3844702172967 105.61992791301003 L 825.1616205424108 105.58152474401028 L 824.9396315204046 105.54211610930304 L 824.7185253499956 105.50170594971894 L 824.4983241416162 105.46029830624026 L 824.279049915204 105.41789731959686 L 824.0607245979988 105.37450722985206 L 823.8433700223504 105.33013237597868 L 823.6270079235354 105.28477719542511 L 823.4116599375831 105.23844622367163 L 823.1973475991128 105.1911440937768 L 822.9840923391797 105.14287553591419 L 822.7719154831323 105.09364537689936 L 822.560838248479 105.0434585397072 L 822.3508817427676 104.99232004297959 L 822.1420669614737 104.9402350005236 L 821.9344147859014 104.88720862080007 L 821.7279459810952 104.83324620640276 L 821.5226811937636 104.77835315352817 L 821.3186409502141 104.72253495143585 L 821.1158456543011 104.66579718189945 L 820.9143155853853 104.60814551864868 L 820.7140708963057 104.54958572680184 L 820.515131611364 104.49012366228926 L 820.3175176243233 104.42976527126788 L 820.1212486964174 104.36851658952648 L 819.9263444543756 104.30638374188221 L 819.7328243884597 104.24337294156805 L 819.5407078505149 104.17949048961154 L 819.3500140520351 104.11474277420461 L 819.1607620622411 104.04913627006486 L 818.9729708061742 103.98267753778805 L 818.7866590628036 103.91537322319199 L 818.6018454631482 103.84723005665208 L 818.4185484884141 103.77825485242818 L 818.236786468146 103.70845450798322 L 818.0565775783944 103.63783600329349 L 817.8779398398981 103.56640640015061 L 817.7008911162822 103.49417284145538 L 817.5254491122713 103.42114255050346 L 817.3516313719199 103.3473228302631 L 817.179455276857 103.27272106264479 L 817.0089380445486 103.19734470776314 L 816.840096726576 103.1212013031908 L 816.6729482069301 103.04429846320481 L 816.5075092003237 102.96664387802507 L 816.3437962505195 102.88824531304537 L 816.1818257286762 102.8091106080569 L 816.021613831711 102.72924767646418 L 815.8631765806798 102.64866450449387 L 815.706529819176 102.56736915039596 L 815.5516892117452 102.48536974363815 L 815.3986702423188 102.40267448409276 L 815.2474882126666 102.31929164121684 L 815.0981582408652 102.2352295532252 L 814.9506952597877 102.15049662625658 L 814.8051140156092 102.06510133353308 L 814.6614290663327 101.97905221451278 L 814.5196547803336 101.89235787403591 L 814.3798053349221 101.80502698146424 L 814.2418947149264 101.71706826981428 L 814.1059367112933 101.62849053488388 L 813.9719449197103 101.53930263437272 L 813.8399327392445 101.44951348699652 L 813.7099133710042 101.35913207159521 L 813.5818998168177 101.26816742623502 L 813.4559048779338 101.17662864730465 L 813.3319411537415 101.08452488860574 L 813.2100210405098 100.9918653604374 L 813.0901567301484 100.89865932867522 L 812.9723602089884 100.80491611384473 L 812.856643256584 100.71064509018925 L 812.7430174445337 100.61585568473262 L 812.6314941353244 100.5205573763364 L 812.5220844811937 100.424759694752 L 812.414799423016 100.32847221966773 L 812.3096496892077 100.2317045797509 L 812.2066457946547 100.13446645168483 L 812.1057980396604 100.03676755920131 L 812.0071165089163 99.93861767210817 L 811.9106110704934 99.84002660531232 L 811.8162913748549 99.7410042178383 L 811.7241668538919 99.64156041184232 L 811.6342467199797 99.54170513162211 L 811.5465399650568 99.4414483626225 L 811.4610553597255 99.34080013043682 L 811.3778014523753 99.23977049980442 L 811.2967865683272 99.13836957360418 L 811.2180188090024 99.03660749184422 L 811.1415060511112 98.9344944306479 L 811.0672559458653 98.83204060123627 L 810.9952759182138 98.72925624890688 L 810.9255731660991 98.6261516520093 L 810.8581546597386 98.52273712091731 L 810.7930271409266 98.41902299699785 L 810.7301971223607 98.31501965157686 L 810.6696708869905 98.21073748490224 L 810.611454487389 98.10618692510373 L 810.5555537451478 98.0013784271502 L 810.5019742502943 97.89632247180411 L 810.4507213607335 97.79102956457344 L 810.4018002017117 97.68551023466115 L 810.3552156653038 97.57977503391233 L 810.310972409925 97.47383453575894 L 810.2690748598635 97.3676993341625 L 810.2295272048398 97.2613800425547 L 810.1923333995861 97.15488729277617 L 810.1574971634523 97.04823173401307 L 810.1250219800326 96.94142403173245 L 810.0949110968186 96.8344748666155 L 810.0671675248733 96.72739493348962 L 810.041794038531 96.6201949402589 L 810.018793175119 96.51288560683331 L 809.9981672347045 96.40547766405678 L 809.9799182798644 96.29798185263407 L 809.964048135479 96.19040892205675 L 809.9505583885494 96.08276962952824 L 809.9394503880392 95.9750747388881 L 809.9307252447392 95.86733501953563 L 809.9243838311562 95.75956124535298 L 809.9204267814266 95.65176419362778 L 809.9188544912519 95.54395464397535" stroke-miterlimit="10" stroke-width="2.7769845610000004" stroke-dasharray=""/></g><g><g/><text fill="black" stroke="none" font-family="sans-serif" font-size="11pt" font-style="normal" font-weight="normal" text-decoration="normal" x="802.3902761154296" y="123.83569119881818" text-anchor="start" dominant-baseline="alphabetic" xml:space="preserve">Database</text></g><g><path fill="white" stroke="black" paint-order="fill stroke markers" d=" M 90.987082381 725.8696088203181 A 9.311065881 9.311065881 0 1 1 90.98707772546743 725.860297755989 M 81.67601649999999 735.1806747013181 L 81.67601649999999 755.1096227273181 M 69.914670124 742.3681641533182 L 93.43736287599998 742.3681641533182 M 81.67601649999999 755.1096227273181 L 69.914670124 773.7317544893182 M 81.67601649999999 755.1096227273181 L 93.43736287599998 773.7317544893182" stroke-miterlimit="10" stroke-width="2.7769845610000004" stroke-dasharray=""/></g><g><g/><text fill="black" stroke="none" font-family="sans-serif" font-size="11pt" font-style="normal" font-weight="normal" text-decoration="normal" x="53.1470400595703" y="710.2694896688181" text-anchor="start" dominant-baseline="alphabetic" xml:space="preserve">Landlord</text></g><g><path fill="white" stroke="black" paint-order="fill stroke markers" d=" M 350.82589198324735 741.3717167520181 A 24.2577769005 24.2577769005 0 1 1 350.8258798543599 741.3474589791605 M 300.92184590174736 767.851081301318 L 352.2143842637473 767.851081301318" stroke-miterlimit="10" stroke-width="2.7769845610000004" stroke-dasharray=""/></g><g><g/><text fill="black" stroke="none" font-family="sans-serif" font-size="11pt" font-style="normal" font-weight="normal" text-decoration="normal" x="307.8279646310872" y="710.2694896688181" text-anchor="start" dominant-baseline="alphabetic" xml:space="preserve">Client</text></g><g><path fill="white" stroke="black" paint-order="fill stroke markers" d=" M 629.9842869527134 741.3717167520181 A 24.2577769005 24.2577769005 0 1 1 629.984274823826 741.3474589791605 M 580.0802408712135 767.851081301318 L 631.3727792332135 767.851081301318" stroke-miterlimit="10" stroke-width="2.7769845610000004" stroke-dasharray=""/></g><g><g/><text fill="black" stroke="none" font-family="sans-serif" font-size="11pt" font-style="normal" font-weight="normal" text-decoration="normal" x="577.201111797819" y="710.2694896688181" text-anchor="start" dominant-baseline="alphabetic" xml:space="preserve">Backend</text></g><g><path fill="white" stroke="black" paint-order="fill stroke markers" d=" M 809.9188242437187 763.032196327818 L 809.9188242437187 728.7282693978179 L 857.6176178797186 728.7282693978179 L 857.6176178797186 763.032196327818" stroke-miterlimit="10" stroke-width="2.7769845610000004" stroke-dasharray=""/><path fill="white" stroke="black" paint-order="fill stroke markers" d=" M 857.6176178797186 727.5357995569179 L 857.616425419815 727.6436101018346 L 857.6128481593489 727.7514098657865 L 857.6068864560436 727.8591880688873 L 857.5985409060643 727.9669339334064 L 857.5878123439591 728.0746366848471 L 857.5747018425752 728.1822855530239 L 857.559210712952 728.28986977314 L 857.5413405041894 728.3973785868628 L 857.5210930032933 728.5048012434006 L 857.4984702349972 728.6121270005773 L 857.4734744615588 728.7193451259064 L 857.4461081825348 728.826444897665 L 857.4163741345302 728.9334156059651 L 857.3842752909251 729.040246553825 L 857.349814861577 729.1469270582388 L 857.3129962925002 729.253446451245 L 857.2738232655208 729.3597940809933 L 857.2322996979091 729.4659593128092 L 857.1884297419871 729.5719315302579 L 857.1422177847137 729.677700136206 L 857.0936684472464 729.7832545538812 L 857.0427865844783 729.8885842279294 L 856.9895772845534 729.9936786254713 L 856.9340458683572 730.0985272371545 L 856.8761978889852 730.2031195782054 L 856.816039131187 730.3074451894768 L 856.7535756107884 730.4114936384946 L 856.6888135740892 730.5152545205007 L 856.6217594972392 730.6187174594934 L 856.5524200855903 730.7218721092648 L 856.4808022730256 730.824708154436 L 856.4069132212669 730.9272153114883 L 856.3307603191579 731.0293833297914 L 856.2523511819251 731.1312019926283 L 856.171693650417 731.232661118218 L 856.0887957903195 731.333750560732 L 856.0036658913497 731.4344602113108 L 855.9163124664262 731.534779999073 L 855.826744250819 731.6346998921234 L 855.734970201275 731.7342098985561 L 855.6409994951225 731.8333000674533 L 855.544841529354 731.9319604898806 L 855.4465059196859 732.030181299878 L 855.346002499597 732.1279526754465 L 855.243341319346 732.2252648395299 L 855.1385326449649 732.322108060993 L 855.031586957234 732.4184726555942 L 854.9225149506331 732.5143489869545 L 854.8113275322718 732.6097274675204 L 854.6980358207992 732.7045985595237 L 854.5826511452923 732.7989527759339 L 854.4651850441222 732.8927806814082 L 854.3456492638013 732.9860728932342 L 854.2240557578081 733.0788200822684 L 854.1004166853917 733.1710129738693 L 853.9747444103563 733.2626423488244 L 853.8470514998248 733.3536990442727 L 853.7173507229818 733.4441739546206 L 853.5856550497969 733.5340580324523 L 853.4519776497276 733.623342289435 L 853.3163318904027 733.7120177972173 L 853.1787313362848 733.8000756883224 L 853.0391897473149 733.8875071570346 L 852.8977210775356 733.97430346028 L 852.7543394736958 734.0604559185003 L 852.6090592738367 734.1459559165216 L 852.4618950058568 734.2307949044156 L 852.3128613860607 734.3149643983538 L 852.1619733176858 734.3984559814572 L 852.0092458894135 734.4812613046371 L 851.8546943738593 734.5633720874299 L 851.6983342260457 734.6447801188261 L 851.5401810818574 734.7254772580902 L 851.3802507564772 734.8054554355756 L 851.218559242804 734.884706653531 L 851.0551227098547 734.963222986901 L 850.8899575011461 735.0409965841174 L 850.7230801330618 735.1180196678854 L 850.5545072931993 735.1942845359608 L 850.3842558387022 735.2697835619203 L 850.212342794574 735.3445091959244 L 850.038785351976 735.4184539654717 L 849.8636008665077 735.4916104761471 L 849.6868068564717 735.5639714123603 L 849.5084210011216 735.6355295380781 L 849.3284611388943 735.7062776975476 L 849.1469452656263 735.7762088160117 L 848.9638915327533 735.845315900417 L 848.7793182454964 735.9135920401123 L 848.5932438610301 735.9810304075409 L 848.4056869866382 736.047624258922 L 848.2166663778515 736.1133669349261 L 848.0262009365737 736.1782518613404 L 847.8343097091898 736.2422725497263 L 847.641011884663 736.3054225980683 L 847.4463267926145 736.367695691414 L 847.2502739013913 736.4290856025063 L 847.0528728161191 736.4895861924051 L 846.8541432767421 736.5491914111018 L 846.6541051560483 736.6078952981242 L 846.4527784576834 736.6656919831324 L 846.2501833141494 736.7225756865064 L 846.0463399847915 736.778540719923 L 845.8412688537733 736.8335814869255 L 845.6349904280365 736.8876924834832 L 845.4275253352522 736.9408682985414 L 845.2188943217565 736.993103614563 L 845.0091182504771 737.0443932080599 L 844.7982180988461 737.0947319501155 L 844.586214956703 737.1441148068974 L 844.3731300241853 737.1925368401613 L 844.158984609609 737.2399932077442 L 843.9438001273367 737.2864791640487 L 843.7275980956374 737.3319900605181 L 843.5104001345343 737.3765213461006 L 843.2922279636423 737.4200685677048 L 843.0731033999967 737.4626273706447 L 842.8530483558714 737.5041934990755 L 842.6320848365873 737.5447627964193 L 842.4102349383123 737.5843312057797 L 842.1875208458513 737.622894770349 L 841.9639648304278 737.6604496338028 L 841.7395892474574 737.6969920406863 L 841.5144165343111 737.7325183367889 L 841.2884692080727 737.7670249695107 L 841.0617698632865 737.8005084882172 L 840.8343411696981 737.8329655445847 L 840.6062058699872 737.8643928929342 L 840.3773867774939 737.8947873905573 L 840.1479067739366 737.9241459980294 L 839.9177888071246 737.9524657795145 L 839.6870558886625 737.9797439030576 L 839.4557310916501 738.0059776408696 L 839.2238375483743 738.0311643695982 L 838.9913984479962 738.0553015705916 L 838.7584370342321 738.07838683015 L 838.5249766030291 738.1004178397664 L 838.2910405002361 738.1213923963584 L 838.0566521192682 738.1413084024878 L 837.8218348987682 738.1601638665704 L 837.5866123202626 738.1779569030757 L 837.3510079058129 738.1946857327149 L 837.1150452156646 738.2103486826188 L 836.87874784589 738.2249441865056 L 836.642139426029 738.238470784837 L 836.4052436167264 738.2509271249645 L 836.1680841073659 738.2623119612645 L 835.9306846137007 738.2726241552626 L 835.6930688754823 738.2818626757484 L 835.4552606540866 738.2900265988773 L 835.2172837301375 738.2971151082637 L 834.9791619011291 738.3031274950628 L 834.740918979046 738.3080631580408 L 834.5025787879816 738.3119216036356 L 834.2641651617566 738.3147024460058 L 834.0257019415349 738.3164054070694 L 833.7872129734398 738.3170303165318 L 833.5487221061692 738.3165771119026 L 833.3102531886113 738.3150458385019 L 833.0718300674591 738.3124366494557 L 832.8334765848261 738.3087498056807 L 832.5952165758617 738.3039856758583 L 832.3570738663685 738.2981447363974 L 832.1190722704189 738.2912275713871 L 831.8812355879741 738.2832348725383 L 831.6435876025041 738.2741674391141 L 831.4061520786096 738.2640261778502 L 831.1689527596449 738.2528121028644 L 830.9320133653445 738.2405263355548 L 830.6953575894502 738.227170104488 L 830.4590090973423 738.2127447452758 L 830.2229915236733 738.1972517004423 L 829.9873284700037 738.1806925192789 L 829.7520435024426 738.16306885769 L 829.5171601492906 738.144382478027 L 829.2827018986873 738.1246352489122 L 829.0486921962624 738.1038291450525 L 828.815154442791 738.0819662470404 L 828.5821119918542 738.0590487411479 L 828.3495881475025 738.0350789191062 L 828.1176061619266 738.0100591778778 L 827.886189233132 737.9839920194157 L 827.6553605026185 737.9568800504142 L 827.4251430530669 737.9287259820476 L 827.1955599060303 737.8995326296991 L 826.966634019632 737.8693029126798 L 826.73838828627 737.8380398539362 L 826.5108455303274 737.8057465797481 L 826.2840285058901 737.7724263194158 L 826.0579598944717 737.7380824049379 L 825.8326623027447 737.702718270677 L 825.6081582602806 737.6663374530171 L 825.3844702172967 737.6289435900098 L 825.1616205424108 737.59054042101 L 824.9396315204046 737.5511317863028 L 824.7185253499956 737.5107216267187 L 824.4983241416162 737.46931398324 L 824.279049915204 737.4269129965966 L 824.0607245979988 737.3835229068518 L 823.8433700223504 737.3391480529784 L 823.6270079235354 737.2937928724249 L 823.4116599375831 737.2474619006714 L 823.1973475991128 737.2001597707765 L 822.9840923391797 737.1518912129139 L 822.7719154831323 737.1026610538992 L 822.560838248479 737.052474216707 L 822.3508817427676 737.0013357199794 L 822.1420669614737 736.9492506775233 L 821.9344147859014 736.8962242977998 L 821.7279459810952 736.8422618834026 L 821.5226811937636 736.787368830528 L 821.3186409502141 736.7315506284356 L 821.1158456543011 736.6748128588993 L 820.9143155853853 736.6171611956485 L 820.7140708963057 736.5586014038016 L 820.515131611364 736.4991393392891 L 820.3175176243233 736.4387809482677 L 820.1212486964174 736.3775322665263 L 819.9263444543756 736.315399418882 L 819.7328243884597 736.2523886185678 L 819.5407078505149 736.1885061666113 L 819.3500140520351 736.1237584512044 L 819.1607620622411 736.0581519470646 L 818.9729708061742 735.9916932147878 L 818.7866590628036 735.9243889001917 L 818.6018454631482 735.8562457336518 L 818.4185484884141 735.7872705294279 L 818.236786468146 735.717470184983 L 818.0565775783944 735.6468516802933 L 817.8779398398981 735.5754220771504 L 817.7008911162822 735.5031885184551 L 817.5254491122713 735.4301582275032 L 817.3516313719199 735.3563385072629 L 817.179455276857 735.2817367396445 L 817.0089380445486 735.2063603847629 L 816.840096726576 735.1302169801905 L 816.6729482069301 735.0533141402045 L 816.5075092003237 734.9756595550248 L 816.3437962505195 734.8972609900451 L 816.1818257286762 734.8181262850567 L 816.021613831711 734.7382633534639 L 815.8631765806798 734.6576801814936 L 815.706529819176 734.5763848273957 L 815.5516892117452 734.4943854206379 L 815.3986702423188 734.4116901610925 L 815.2474882126666 734.3283073182166 L 815.0981582408652 734.2442452302249 L 814.9506952597877 734.1595123032563 L 814.8051140156092 734.0741170105329 L 814.6614290663327 733.9880678915125 L 814.5196547803336 733.9013735510357 L 814.3798053349221 733.814042658464 L 814.2418947149264 733.726083946814 L 814.1059367112933 733.6375062118836 L 813.9719449197103 733.5483183113724 L 813.8399327392445 733.4585291639963 L 813.7099133710042 733.368147748595 L 813.5818998168177 733.2771831032347 L 813.4559048779338 733.1856443243045 L 813.3319411537415 733.0935405656055 L 813.2100210405098 733.0008810374371 L 813.0901567301484 732.907675005675 L 812.9723602089884 732.8139317908444 L 812.856643256584 732.719660767189 L 812.7430174445337 732.6248713617324 L 812.6314941353244 732.5295730533361 L 812.5220844811937 732.4337753717517 L 812.414799423016 732.3374878966675 L 812.3096496892077 732.2407202567507 L 812.2066457946547 732.1434821286846 L 812.1057980396604 732.045783236201 L 812.0071165089163 731.947633349108 L 811.9106110704934 731.8490422823121 L 811.8162913748549 731.750019894838 L 811.7241668538919 731.6505760888421 L 811.6342467199797 731.5507208086219 L 811.5465399650568 731.4504640396223 L 811.4610553597255 731.3498158074366 L 811.3778014523753 731.2487861768042 L 811.2967865683272 731.147385250604 L 811.2180188090024 731.0456231688439 L 811.1415060511112 730.9435101076476 L 811.0672559458653 730.841056278236 L 810.9952759182138 730.7382719259066 L 810.9255731660991 730.635167329009 L 810.8581546597386 730.5317527979171 L 810.7930271409266 730.4280386739975 L 810.7301971223607 730.3240353285767 L 810.6696708869905 730.219753161902 L 810.611454487389 730.1152026021035 L 810.5555537451478 730.01039410415 L 810.5019742502943 729.9053381488038 L 810.4507213607335 729.8000452415732 L 810.4018002017117 729.6945259116609 L 810.3552156653038 729.5887907109121 L 810.310972409925 729.4828502127586 L 810.2690748598635 729.3767150111622 L 810.2295272048398 729.2703957195545 L 810.1923333995861 729.1639029697759 L 810.1574971634523 729.0572474110128 L 810.1250219800326 728.9504397087322 L 810.0949110968186 728.8434905436153 L 810.0671675248733 728.7364106104894 L 810.041794038531 728.6292106172587 L 810.018793175119 728.521901283833 L 809.9981672347045 728.4144933410565 L 809.9799182798644 728.3069975296338 L 809.964048135479 728.1994245990566 L 809.9505583885494 728.091785306528 L 809.9394503880392 727.9840904158879 L 809.9307252447392 727.8763506965354 L 809.9243838311562 727.7685769223527 L 809.9204267814266 727.6607798706275 L 809.9188544912519 727.5529703209751 L 809.9196671178598 727.4451590542606 L 809.9228645799884 727.3373568515208 L 809.9284465578941 727.2295744928862 L 809.9364124933837 727.1218227565028 L 809.9467615898704 727.0141124174544 L 809.9594928124533 726.9064542466853 L 809.9746048880204 726.7988590099227 L 809.992096305377 726.6913374666008 L 810.0119653153959 726.583900368784 L 810.0342099311924 726.476558460093 L 810.0588279283239 726.3693224746289 L 810.0858168450109 726.2622031359009 L 810.1151739823842 726.1552111557538 L 810.1468964047548 726.0483572332962 L 810.1809809399067 725.9416520538315 L 810.2174241794147 725.8351062877887 L 810.2562224789855 725.7287305896555 L 810.2973719588211 725.6225355969132 L 810.3408685040082 725.5165319289724 L 810.3867077649282 725.4107301861118 L 810.4348851576934 725.3051409484174 L 810.4853958646047 725.1997747747249 L 810.5382348346333 725.0946422015639 L 810.5933967839264 724.9897537421043 L 810.650876196335 724.8851198851044 L 810.7106673239658 724.7807510938628 L 810.7727641877557 724.6766578051715 L 810.8371605780702 724.572850428273 L 810.903850055324 724.4693393438181 L 810.9728259506248 724.3661349028292 L 811.0440813664407 724.2632474256643 L 811.1176091772893 724.1606872009854 L 811.1934020304509 724.0584644847295 L 811.2714523467033 723.9565894990831 L 811.3517523210801 723.8550724314598 L 811.4342939236504 723.7539234334818 L 811.5190689003232 723.6531526199645 L 811.6060687736712 723.5527700679055 L 811.6952848437795 723.4527858154761 L 811.7867081891156 723.3532098610184 L 811.8803296674212 723.2540521620448 L 811.9761399166262 723.1553226342426 L 812.0741293557858 723.0570311504822 L 812.1742881860376 722.9591875398303 L 812.2766063915822 722.8618015865661 L 812.381073740684 722.764883029204 L 812.4876797866955 722.668441559519 L 812.5964138691007 722.5724868215776 L 812.707265114582 722.4770284107736 L 812.8202224381074 722.3820758728687 L 812.9352745440385 722.2876387030374 L 813.0524099272607 722.193726344918 L 813.171616874333 722.100348189668 L 813.2928834646605 722.0075135750253 L 813.416197571685 721.915231784374 L 813.5415468640983 721.823512045816 L 813.668918807076 721.7323635312489 L 813.7983006635299 721.6417953554483 L 813.929679495382 721.5518165751561 L 814.0630421648585 721.4624361881754 L 814.1983753358039 721.3736631324706 L 814.3356654750138 721.285506285273 L 814.4748988535886 721.1979744621941 L 814.6160615483064 721.1110764163432 L 814.7591394430156 721.0248208374522 L 814.9041182300457 720.9392163510076 L 815.050983411639 720.8542715173865 L 815.1997203013997 720.7699948310012 L 815.3503140257626 720.6863947194505 L 815.502749525481 720.6034795426756 L 815.6570115571318 720.5212575921254 L 815.8130846946405 720.4397370899261 L 815.9709533308232 720.3589261880602 L 816.1306016789482 720.2788329675504 L 816.2920137743133 720.1994654376522 L 816.4551734758438 720.1208315350522 L 816.6200644677053 720.0429391230754 L 816.7866702609363 719.9657959908978 L 816.954974195096 719.8894098527686 L 817.1249594399313 719.8137883472378 L 817.2966089970596 719.738939036393 L 817.469905701668 719.6648694051029 L 817.6448322242305 719.5915868602689 L 817.8213710722407 719.5190987300844 L 817.9995045919608 719.447412263302 L 818.1792149701873 719.3765346285087 L 818.3604842360322 719.3064729134088 L 818.5432942627199 719.2372341241156 L 818.7276267694001 719.1688251844502 L 818.9134633229759 719.1012529352496 L 819.1007853399465 719.0345241336823 L 819.2895740882664 718.9686454525731 L 819.4798106892182 718.903623479735 L 819.6714761193003 718.8394647173112 L 819.8645512121294 718.7761755811243 L 820.0590166603571 718.7137624000354 L 820.2548530176007 718.6522314153106 L 820.4520407003874 718.591588779997 L 820.6505599901137 718.5318405583075 L 820.8503910350157 718.4729927250146 L 821.0515138521555 718.4150511648527 L 821.2539083294191 718.3580216719292 L 821.4575542275275 718.3019099491463 L 821.6624311820602 718.2467216076292 L 821.8685187054929 718.1924621661661 L 822.0757961892448 718.139137050656 L 822.2842429057403 718.0867515935661 L 822.4938380104815 718.0353110333983 L 822.7045605441324 717.9848205141658 L 822.9163894346154 717.9352850848784 L 823.129303499218 717.8867096990379 L 823.3432814467112 717.8390992141423 L 823.5583018794784 717.7924583912003 L 823.7743432956556 717.7467918942556 L 823.9913840912811 717.7021042899196 L 824.2094025624565 717.6584000469155 L 824.428376907516 717.6156835356314 L 824.6482852292079 717.5739590276826 L 824.869105536883 717.5332306954853 L 825.0908157486947 717.4935026118386 L 825.3133936938066 717.454778749518 L 825.5368171146096 717.4170629808772 L 825.7610636689477 717.3803590774618 L 825.9861109323526 717.3446707096315 L 826.2119364002854 717.3100014461934 L 826.4385174903874 717.2763547540447 L 826.6658315447386 717.243733997827 L 826.8938558321227 717.2121424395884 L 827.1225675503011 717.1815832384585 L 827.3519438282927 717.1520594503321 L 827.5819617286609 717.1235740275632 L 827.812598249807 717.0961298186704 L 828.0438303282714 717.0697295680517 L 828.2756348410387 717.0443759157102 L 828.5079886078511 717.02007139699 L 828.7408683935253 716.9968184423227 L 828.9742509102769 716.9746193769845 L 829.2081128200487 716.9534764208632 L 829.4424307368445 716.9333916882371 L 829.677181229068 716.9143671875624 L 829.9123408218655 716.8964048212736 L 830.1478859994739 716.8795063855921 L 830.3837932075716 716.8636735703476 L 830.6200388556343 716.8489079588084 L 830.8565993192941 716.8352110275231 L 831.0934509427019 716.8225841461738 L 831.3305700408926 716.8110285774378 L 831.567932902154 716.8005454768626 L 831.8055157903977 716.7911358927493 L 832.043294947533 716.7828007660486 L 832.2812465958424 716.7755409302662 L 832.5193469403591 716.7693571113795 L 832.7575721712473 716.7642499277655 L 832.9958984661823 716.760219890138 L 833.2343019927333 716.7572674014976 L 833.4727589107462 716.7553927570908 L 833.711245374728 716.7545961443802 L 833.949737536231 716.7548776430266 L 834.1882115462379 716.7562372248804 L 834.4266435575463 716.7586747539842 L 834.6650097271538 716.7621899865876 L 834.903286218642 716.7667825711701 L 835.1414492045606 716.7724520484769 L 835.3794748688091 716.7791978515652 L 835.6173394090196 716.7870193058601 L 835.8550190389362 716.7959156292229 L 836.0924899907943 716.8058859320286 L 836.3297285176963 716.8169292172553 L 836.5667108959872 716.8290443805835 L 836.8034134276268 716.8422302105071 L 837.0398124425591 716.856485388454 L 837.2758843010797 716.8718084889184 L 837.5116053961993 716.888197979603 L 837.746952156005 716.9056522215724 L 837.9819010460169 716.9241694694168 L 838.2164285715417 716.9437478714269 L 838.4505112800224 716.964385469779 L 838.6841257633831 716.9860802007304 L 838.9172486603702 717.0088298948258 L 839.1498566588883 717.0326322771151 L 839.3819264983314 717.0574849673798 L 839.6134349719089 717.0833854803715 L 839.8443589289664 717.1103312260605 L 840.0746752773006 717.1383195098948 L 840.3043609854685 717.1673475330692 L 840.5333930850909 717.1974123928056 L 840.7617486731485 717.2285110826432 L 840.989404914273 717.2606404927388 L 841.2163390430297 717.2937974101783 L 841.4425283661951 717.3279785192975 L 841.6679502650254 717.3631804020139 L 841.8925821975183 717.3993995381686 L 842.116401700668 717.4366323058783 L 842.3393863927106 717.4748749818971 L 842.5615139753626 717.5141237419894 L 842.7827622360511 717.5543746613117 L 843.0031090501342 717.5956237148058 L 843.2225323831141 717.6378667776007 L 843.4410102928405 717.6810996254252 L 843.6585209317044 717.7253179350307 L 843.8750425488232 717.770517284623 L 844.0905534922156 717.8166931543047 L 844.3050322109668 717.8638409265276 L 844.5184572573838 717.9119558865535 L 844.7308072891398 717.9610332229266 L 844.9420610714085 718.0110680279543 L 845.1521974789877 718.0620552981975 L 845.3611954984117 718.1139899349719 L 845.5690342300529 718.1668667448569 L 845.7756928902112 718.2206804402157 L 845.9811508131929 718.2754256397237 L 846.1853874533768 718.3310968689063 L 846.3883823872692 718.3876885606874 L 846.5901153155457 718.4451950559445 L 846.7905660650819 718.5036106040762 L 846.9897145909695 718.5629293635766 L 847.1875409785221 718.6231454026188 L 847.3840254452657 718.6842526996493 L 847.5791483429175 718.7462451439892 L 847.7728901593503 718.8091165364459 L 847.9652315205436 718.8728605899323 L 848.1561531925221 718.9374709300964 L 848.3456360832772 719.0029410959579 L 848.5336612446781 719.0692645405549 L 848.7202098743652 719.1364346315979 L 848.9052633176309 719.2044446521342 L 849.0888030692852 719.2732878012181 L 849.2708107755059 719.3429571945921 L 849.451268235674 719.4134458653751 L 849.6301574041938 719.4847467647587 L 849.8074603922976 719.5568527627122 L 849.9831594698344 719.6297566486961 L 850.1572370670427 719.7034511323825 L 850.329675776308 719.7779288443843 L 850.500458353903 719.8531823369925 L 850.6695677217123 719.9292040849206 L 850.8369869689399 720.005986486057 L 851.0026993538007 720.0835218622258 L 851.1666883051944 720.1618024599538 L 851.3289374243624 720.2408204512466 L 851.489430486528 720.3205679343706 L 851.6481514425188 720.4010369346444 L 851.8050844203714 720.4822194052348 L 851.9602137269187 720.5641072279623 L 852.1135238493596 720.646692214113 L 852.2649994568093 720.7299661052571 L 852.4146254018334 720.8139205740748 L 852.5623867219622 720.8985472251893 L 852.7082686411867 720.983837596006 L 852.8522565714366 721.0697831575587 L 852.9943361140388 721.1563753153631 L 853.1344930611575 721.2436054102754 L 853.2727133972147 721.331464719359 L 853.4089833002921 721.4199444567561 L 853.5432891435129 721.5090357745667 L 853.6756174964047 721.5987297637331 L 853.8059551262423 721.6890174549313 L 853.9342889993717 721.7798898194675 L 854.0606062825124 721.8713377701808 L 854.184894344041 721.9633521623525 L 854.3071407552554 722.0559237946198 L 854.4273332916162 722.149043409897 L 854.5454599339698 722.2427016962998 L 854.6615088697505 722.3368892880778 L 854.7754684941614 722.4315967665502 L 854.887327411335 722.5268146610483 L 854.9970744354729 722.6225334498617 L 855.104698591964 722.7187435611916 L 855.2101891184825 722.8154353741068 L 855.3135354660635 722.9125992195065 L 855.4147273001585 723.0102253810875 L 855.5137545016684 723.1083040963147 L 855.6106071679553 723.2068255573984 L 855.7052756138337 723.3057799122745 L 855.7977503725376 723.4051572655901 L 855.8880221966684 723.5049476796927 L 855.9760820591188 723.605141175624 L 856.0619211539758 723.7057277341179 L 856.1455308974018 723.8066972966022 L 856.2269029284918 723.9080397662052 L 856.3060291101107 724.009745008764 L 856.3829015297061 724.1118028538392 L 856.4575125001003 724.2142030957315 L 856.5298545602584 724.3169354945019 L 856.5999204760345 724.4199897769962 L 856.6677032408955 724.5233556378719 L 856.7331960766215 724.6270227406292 L 856.7963924339833 724.7309807186441 L 856.8572859933981 724.8352191762056 L 856.9158706655605 724.9397276895546 L 856.9721405920521 725.044495807927 L 857.0260901459274 725.1495130545982 L 857.0777139322756 725.2547689279311 L 857.1270067887613 725.3602529024259 L 857.1739637861399 725.4659544297734 L 857.2185802287507 725.5718629399087 L 857.2608516549868 725.6779678420689 L 857.3007738377406 725.7842585258527 L 857.3383427848273 725.8907243622798 L 857.3735547393833 725.9973547048555 L 857.4064061802426 726.1041388906344 L 857.4368938222885 726.2110662412869 L 857.4650146167822 726.3181260641669 L 857.4907657516676 726.4253076533817 L 857.5141446518528 726.5326002908612 L 857.5351489794671 726.6399932474313 L 857.5537766340954 726.747475783886 L 857.5700257529876 726.8550371520611 L 857.5838947112455 726.9626665959092 L 857.5953821219848 727.0703533525759 L 857.6044868364739 727.1780866534752 L 857.6112079442491 727.2858557253667 L 857.6155447732051 727.3936497914331 L 857.6174968896627 727.5014580723575 M 857.6176178797186 761.839726486918 L 857.616425419815 761.9475370318347 L 857.6128481593489 762.0553367957866 L 857.6068864560436 762.1631149988874 L 857.5985409060643 762.2708608634065 L 857.5878123439591 762.3785636148472 L 857.5747018425752 762.486212483024 L 857.559210712952 762.5937967031401 L 857.5413405041894 762.7013055168629 L 857.5210930032933 762.8087281734007 L 857.4984702349972 762.9160539305774 L 857.4734744615588 763.0232720559065 L 857.4461081825348 763.1303718276652 L 857.4163741345302 763.2373425359652 L 857.3842752909251 763.3441734838251 L 857.349814861577 763.4508539882389 L 857.3129962925002 763.5573733812453 L 857.2738232655208 763.6637210109934 L 857.2322996979091 763.7698862428093 L 857.1884297419871 763.875858460258 L 857.1422177847137 763.9816270662061 L 857.0936684472464 764.0871814838813 L 857.0427865844783 764.1925111579295 L 856.9895772845534 764.2976055554714 L 856.9340458683572 764.4024541671546 L 856.8761978889852 764.5070465082055 L 856.816039131187 764.6113721194769 L 856.7535756107884 764.7154205684947 L 856.6888135740892 764.8191814505008 L 856.6217594972392 764.9226443894935 L 856.5524200855903 765.0257990392649 L 856.4808022730256 765.1286350844362 L 856.4069132212669 765.2311422414884 L 856.3307603191579 765.3333102597915 L 856.2523511819251 765.4351289226285 L 856.171693650417 765.536588048218 L 856.0887957903195 765.6376774907321 L 856.0036658913497 765.7383871413109 L 855.9163124664262 765.838706929073 L 855.826744250819 765.9386268221235 L 855.734970201275 766.0381368285562 L 855.6409994951225 766.1372269974534 L 855.544841529354 766.2358874198807 L 855.4465059196859 766.3341082298781 L 855.346002499597 766.4318796054466 L 855.243341319346 766.52919176953 L 855.1385326449649 766.626034990993 L 855.031586957234 766.7223995855943 L 854.9225149506331 766.8182759169546 L 854.8113275322718 766.9136543975205 L 854.6980358207992 767.0085254895238 L 854.5826511452923 767.102879705934 L 854.4651850441222 767.1967076114083 L 854.3456492638013 767.2899998232343 L 854.2240557578081 767.3827470122685 L 854.1004166853917 767.4749399038694 L 853.9747444103563 767.5665692788245 L 853.8470514998248 767.6576259742728 L 853.7173507229818 767.7481008846207 L 853.5856550497969 767.8379849624524 L 853.4519776497276 767.9272692194351 L 853.3163318904027 768.0159447272174 L 853.1787313362848 768.1040026183225 L 853.0391897473149 768.1914340870347 L 852.8977210775356 768.2782303902801 L 852.7543394736958 768.3643828485004 L 852.6090592738367 768.4498828465217 L 852.4618950058568 768.5347218344157 L 852.3128613860607 768.6188913283539 L 852.1619733176858 768.7023829114573 L 852.0092458894135 768.7851882346372 L 851.8546943738593 768.86729901743 L 851.6983342260457 768.9487070488262 L 851.5401810818574 769.0294041880903 L 851.3802507564772 769.1093823655757 L 851.218559242804 769.1886335835311 L 851.0551227098547 769.2671499169011 L 850.8899575011461 769.3449235141175 L 850.7230801330618 769.4219465978855 L 850.5545072931993 769.4982114659609 L 850.3842558387022 769.5737104919205 L 850.212342794574 769.6484361259245 L 850.038785351976 769.7223808954718 L 849.8636008665077 769.7955374061472 L 849.6868068564717 769.8678983423604 L 849.5084210011216 769.9394564680782 L 849.3284611388943 770.0102046275478 L 849.1469452656263 770.0801357460118 L 848.9638915327533 770.149242830417 L 848.7793182454964 770.2175189701125 L 848.5932438610301 770.284957337541 L 848.4056869866382 770.3515511889221 L 848.2166663778515 770.4172938649263 L 848.0262009365737 770.4821787913405 L 847.8343097091898 770.5461994797264 L 847.641011884663 770.6093495280684 L 847.4463267926145 770.6716226214141 L 847.2502739013913 770.7330125325065 L 847.0528728161191 770.7935131224052 L 846.8541432767421 770.8531183411019 L 846.6541051560483 770.9118222281243 L 846.4527784576834 770.9696189131325 L 846.2501833141494 771.0265026165065 L 846.0463399847915 771.082467649923 L 845.8412688537733 771.1375084169256 L 845.6349904280365 771.1916194134833 L 845.4275253352522 771.2447952285415 L 845.2188943217565 771.2970305445631 L 845.0091182504771 771.34832013806 L 844.7982180988461 771.3986588801156 L 844.586214956703 771.4480417368975 L 844.3731300241853 771.4964637701614 L 844.158984609609 771.5439201377443 L 843.9438001273367 771.5904060940488 L 843.7275980956374 771.6359169905182 L 843.5104001345343 771.6804482761007 L 843.2922279636423 771.7239954977049 L 843.0731033999967 771.7665543006448 L 842.8530483558714 771.8081204290756 L 842.6320848365873 771.8486897264194 L 842.4102349383123 771.8882581357798 L 842.1875208458513 771.9268217003491 L 841.9639648304278 771.964376563803 L 841.7395892474574 772.0009189706864 L 841.5144165343111 772.036445266789 L 841.2884692080727 772.0709518995108 L 841.0617698632865 772.1044354182175 L 840.8343411696981 772.1368924745848 L 840.6062058699872 772.1683198229343 L 840.3773867774939 772.1987143205574 L 840.1479067739366 772.2280729280295 L 839.9177888071246 772.2563927095146 L 839.6870558886625 772.2836708330577 L 839.4557310916501 772.3099045708697 L 839.2238375483743 772.3350912995983 L 838.9913984479962 772.3592285005917 L 838.7584370342321 772.38231376015 L 838.5249766030291 772.4043447697665 L 838.2910405002361 772.4253193263585 L 838.0566521192682 772.4452353324879 L 837.8218348987682 772.4640907965705 L 837.5866123202626 772.4818838330758 L 837.3510079058129 772.498612662715 L 837.1150452156646 772.5142756126189 L 836.87874784589 772.5288711165057 L 836.642139426029 772.5423977148371 L 836.4052436167264 772.5548540549646 L 836.1680841073659 772.5662388912646 L 835.9306846137007 772.5765510852627 L 835.6930688754823 772.5857896057485 L 835.4552606540866 772.5939535288774 L 835.2172837301375 772.6010420382638 L 834.9791619011291 772.6070544250629 L 834.740918979046 772.6119900880409 L 834.5025787879816 772.6158485336357 L 834.2641651617566 772.6186293760059 L 834.0257019415349 772.6203323370695 L 833.7872129734398 772.6209572465319 L 833.5487221061692 772.6205040419027 L 833.3102531886113 772.618972768502 L 833.0718300674591 772.6163635794558 L 832.8334765848261 772.6126767356807 L 832.5952165758617 772.6079126058584 L 832.3570738663685 772.6020716663975 L 832.1190722704189 772.5951545013872 L 831.8812355879741 772.5871618025384 L 831.6435876025041 772.5780943691142 L 831.4061520786096 772.5679531078503 L 831.1689527596449 772.5567390328645 L 830.9320133653445 772.5444532655549 L 830.6953575894502 772.5310970344881 L 830.4590090973423 772.5166716752759 L 830.2229915236733 772.5011786304424 L 829.9873284700037 772.484619449279 L 829.7520435024426 772.46699578769 L 829.5171601492906 772.4483094080271 L 829.2827018986873 772.4285621789123 L 829.0486921962624 772.4077560750526 L 828.815154442791 772.3858931770405 L 828.5821119918542 772.362975671148 L 828.3495881475025 772.3390058491063 L 828.1176061619266 772.3139861078779 L 827.886189233132 772.2879189494158 L 827.6553605026185 772.2608069804143 L 827.4251430530669 772.2326529120477 L 827.1955599060303 772.2034595596992 L 826.966634019632 772.1732298426799 L 826.73838828627 772.1419667839363 L 826.5108455303274 772.1096735097482 L 826.2840285058901 772.0763532494159 L 826.0579598944717 772.042009334938 L 825.8326623027447 772.0066452006771 L 825.6081582602806 771.9702643830173 L 825.3844702172967 771.9328705200099 L 825.1616205424108 771.8944673510101 L 824.9396315204046 771.8550587163029 L 824.7185253499956 771.8146485567188 L 824.4983241416162 771.7732409132401 L 824.279049915204 771.7308399265967 L 824.0607245979988 771.6874498368519 L 823.8433700223504 771.6430749829785 L 823.6270079235354 771.597719802425 L 823.4116599375831 771.5513888306715 L 823.1973475991128 771.5040867007766 L 822.9840923391797 771.455818142914 L 822.7719154831323 771.4065879838993 L 822.560838248479 771.3564011467071 L 822.3508817427676 771.3052626499795 L 822.1420669614737 771.2531776075234 L 821.9344147859014 771.2001512277999 L 821.7279459810952 771.1461888134027 L 821.5226811937636 771.091295760528 L 821.3186409502141 771.0354775584357 L 821.1158456543011 770.9787397888994 L 820.9143155853853 770.9210881256486 L 820.7140708963057 770.8625283338017 L 820.515131611364 770.8030662692892 L 820.3175176243233 770.7427078782678 L 820.1212486964174 770.6814591965264 L 819.9263444543756 770.619326348882 L 819.7328243884597 770.5563155485679 L 819.5407078505149 770.4924330966114 L 819.3500140520351 770.4276853812045 L 819.1607620622411 770.3620788770647 L 818.9729708061742 770.2956201447879 L 818.7866590628036 770.2283158301918 L 818.6018454631482 770.1601726636519 L 818.4185484884141 770.091197459428 L 818.236786468146 770.0213971149831 L 818.0565775783944 769.9507786102934 L 817.8779398398981 769.8793490071505 L 817.7008911162822 769.8071154484552 L 817.5254491122713 769.7340851575033 L 817.3516313719199 769.660265437263 L 817.179455276857 769.5856636696446 L 817.0089380445486 769.510287314763 L 816.840096726576 769.4341439101906 L 816.6729482069301 769.3572410702046 L 816.5075092003237 769.2795864850249 L 816.3437962505195 769.2011879200452 L 816.1818257286762 769.1220532150568 L 816.021613831711 769.042190283464 L 815.8631765806798 768.9616071114937 L 815.706529819176 768.8803117573958 L 815.5516892117452 768.798312350638 L 815.3986702423188 768.7156170910926 L 815.2474882126666 768.6322342482167 L 815.0981582408652 768.548172160225 L 814.9506952597877 768.4634392332564 L 814.8051140156092 768.378043940533 L 814.6614290663327 768.2919948215126 L 814.5196547803336 768.2053004810358 L 814.3798053349221 768.1179695884641 L 814.2418947149264 768.0300108768141 L 814.1059367112933 767.9414331418837 L 813.9719449197103 767.8522452413725 L 813.8399327392445 767.7624560939964 L 813.7099133710042 767.6720746785951 L 813.5818998168177 767.5811100332348 L 813.4559048779338 767.4895712543046 L 813.3319411537415 767.3974674956056 L 813.2100210405098 767.3048079674372 L 813.0901567301484 767.211601935675 L 812.9723602089884 767.1178587208445 L 812.856643256584 767.0235876971891 L 812.7430174445337 766.9287982917325 L 812.6314941353244 766.8334999833362 L 812.5220844811937 766.7377023017518 L 812.414799423016 766.6414148266676 L 812.3096496892077 766.5446471867508 L 812.2066457946547 766.4474090586847 L 812.1057980396604 766.3497101662011 L 812.0071165089163 766.251560279108 L 811.9106110704934 766.1529692123122 L 811.8162913748549 766.0539468248381 L 811.7241668538919 765.9545030188422 L 811.6342467199797 765.854647738622 L 811.5465399650568 765.7543909696224 L 811.4610553597255 765.6537427374367 L 811.3778014523753 765.5527131068043 L 811.2967865683272 765.4513121806041 L 811.2180188090024 765.349550098844 L 811.1415060511112 765.2474370376477 L 811.0672559458653 765.1449832082361 L 810.9952759182138 765.0421988559067 L 810.9255731660991 764.9390942590092 L 810.8581546597386 764.8356797279172 L 810.7930271409266 764.7319656039977 L 810.7301971223607 764.6279622585768 L 810.6696708869905 764.5236800919021 L 810.611454487389 764.4191295321036 L 810.5555537451478 764.3143210341501 L 810.5019742502943 764.2092650788039 L 810.4507213607335 764.1039721715733 L 810.4018002017117 763.998452841661 L 810.3552156653038 763.8927176409122 L 810.310972409925 763.7867771427588 L 810.2690748598635 763.6806419411623 L 810.2295272048398 763.5743226495546 L 810.1923333995861 763.467829899776 L 810.1574971634523 763.3611743410129 L 810.1250219800326 763.2543666387323 L 810.0949110968186 763.1474174736154 L 810.0671675248733 763.0403375404895 L 810.041794038531 762.9331375472588 L 810.018793175119 762.8258282138331 L 809.9981672347045 762.7184202710566 L 809.9799182798644 762.6109244596339 L 809.964048135479 762.5033515290567 L 809.9505583885494 762.3957122365281 L 809.9394503880392 762.288017345888 L 809.9307252447392 762.1802776265355 L 809.9243838311562 762.0725038523528 L 809.9204267814266 761.9647068006276 L 809.9188544912519 761.8568972509752" stroke-miterlimit="10" stroke-width="2.7769845610000004" stroke-dasharray=""/></g><g><g/><text fill="black" stroke="none" font-family="sans-serif" font-size="11pt" font-style="normal" font-weight="normal" text-decoration="normal" x="802.3902761154296" y="710.2694896688181" text-anchor="start" dominant-baseline="alphabetic" xml:space="preserve">Database</text></g></g><g><path fill="white" stroke="black" paint-order="fill stroke markers" d=" M 73.50841485 182.64242307881818 L 89.84361814999998 182.64242307881818 L 89.84361814999998 636.7610748188181 L 73.50841485 636.7610748188181 L 73.50841485 182.64242307881818" stroke-miterlimit="10" stroke-width="1.3612669416666667" stroke-dasharray=""/><path fill="white" stroke="black" paint-order="fill stroke markers" d=" M 318.40051343274735 182.64242307881818 L 334.73571673274733 182.64242307881818 L 334.73571673274733 636.7610748188181 L 318.40051343274735 636.7610748188181 L 318.40051343274735 182.64242307881818" stroke-miterlimit="10" stroke-width="1.3612669416666667" stroke-dasharray=""/><path fill="white" stroke="black" paint-order="fill stroke markers" d=" M 597.5589084022134 228.3809923188182 L 613.8941117022135 228.3809923188182 L 613.8941117022135 612.258269868818 L 597.5589084022134 612.258269868818 L 597.5589084022134 228.3809923188182" stroke-miterlimit="10" stroke-width="1.3612669416666667" stroke-dasharray=""/><path fill="white" stroke="black" paint-order="fill stroke markers" d=" M 825.6006194117186 295.3553258488182 L 841.9358227117187 295.3553258488182 L 841.9358227117187 386.8324643288182 L 825.6006194117186 386.8324643288182 L 825.6006194117186 295.3553258488182" stroke-miterlimit="10" stroke-width="1.3612669416666667" stroke-dasharray=""/><g><text fill="black" stroke="none" font-family="sans-serif" font-size="16pt" font-style="normal" font-weight="normal" text-decoration="normal" x="383.05016326904297" y="24.651306798181814" text-anchor="start" dominant-baseline="alphabetic" xml:space="preserve">Chititnh</text></g><g><rect fill="white" stroke="none" x="116.92234987156895" y="161.4066587888182" width="174.39943183960938" height="21.23576429"/><text fill="black" stroke="none" font-family="sans-serif" font-size="11pt" font-style="normal" font-weight="normal" text-decoration="normal" x="119.37263036656896" y="176.10834175881817" text-anchor="start" dominant-baseline="alphabetic" xml:space="preserve">Chnnhcnxemchitit</text></g><g><path fill="none" stroke="black" paint-order="fill stroke markers" d=" M 89.84361814999998 182.64242307881818 L 304.9511960490807 182.64242307881818" stroke-miterlimit="10" stroke-width="1.3612669416666667" stroke-dasharray=""/><g transform="translate(318.40051343274735,182.64242307881818) translate(-318.40051343274735,-182.64242307881818)"><path fill="black" stroke="none" paint-order="stroke fill markers" d=" M 304.78784401608067 175.83608837048484 L 318.40051343274735 182.64242307881818 L 304.78784401608067 189.44875778715152 Z"/></g></g><g><rect fill="white" stroke="none" x="379.34487447970696" y="207.1452280288182" width="173.60487617554688" height="21.23576429"/><text fill="black" stroke="none" font-family="sans-serif" font-size="11pt" font-style="normal" font-weight="normal" text-decoration="normal" x="381.795154974707" y="221.84691099881817" text-anchor="start" dominant-baseline="alphabetic" xml:space="preserve">GiIDnhcnlychitit</text></g><g><path fill="none" stroke="black" paint-order="fill stroke markers" d=" M 334.73571673274733 228.3809923188182 L 584.1095910185468 228.3809923188182" stroke-miterlimit="10" stroke-width="1.3612669416666667" stroke-dasharray=""/><g transform="translate(597.5589084022134,228.3809923188182) translate(-597.5589084022134,-228.3809923188182)"><path fill="black" stroke="none" paint-order="stroke fill markers" d=" M 583.9462389855468 221.57465761048485 L 597.5589084022134 228.3809923188182 L 583.9462389855468 235.18732702715153 Z"/></g></g><g><rect fill="white" stroke="none" x="633.2241022738802" y="252.88379726881823" width="103.49751533570313" height="21.23576429"/><text fill="black" stroke="none" font-family="sans-serif" font-size="11pt" font-style="normal" font-weight="normal" text-decoration="normal" x="635.6743827688803" y="267.5854802388182" text-anchor="start" dominant-baseline="alphabetic" xml:space="preserve">Kimtraquyn</text></g><g><path fill="none" stroke="black" paint-order="fill stroke markers" d=" M 613.8941117022135 274.1195615588182 L 679.2349249022135 274.1195615588182 L 679.2349249022135 295.3553258488182 L 627.3434290858802 295.3553258488182" stroke-miterlimit="10" stroke-width="1.3612669416666667" stroke-dasharray=""/><g transform="translate(613.8941117022135,295.3553258488182) translate(-613.8941117022135,-295.3553258488182)"><path fill="black" stroke="none" paint-order="stroke fill markers" d=" M 627.5067811188802 288.5489911404849 L 613.8941117022135 295.3553258488182 L 627.5067811188802 302.16166055715155 Z"/></g></g><g><rect fill="white" stroke="none" x="640.1603968295442" y="319.8581307988182" width="159.17393745484375" height="21.23576429"/><text fill="black" stroke="none" font-family="sans-serif" font-size="11pt" font-style="normal" font-weight="normal" text-decoration="normal" x="642.6106773245442" y="334.5598137688182" text-anchor="start" dominant-baseline="alphabetic" xml:space="preserve">Truyvnlychititnh</text></g><g><path fill="none" stroke="black" paint-order="fill stroke markers" d=" M 613.8941117022135 341.0938950888182 L 812.151302028052 341.0938950888182" stroke-miterlimit="10" stroke-width="1.3612669416666667" stroke-dasharray=""/><g transform="translate(825.6006194117186,341.0938950888182) translate(-825.6006194117186,-341.0938950888182)"><path fill="black" stroke="none" paint-order="stroke fill markers" d=" M 811.987949995052 334.2875603804849 L 825.6006194117186 341.0938950888182 L 811.987949995052 347.90022979715155 Z"/></g></g><g><rect fill="white" stroke="none" x="633.2241022738801" y="365.5967000388182" width="173.04652656617188" height="21.23576429"/><text fill="black" stroke="none" font-family="sans-serif" font-size="11pt" font-style="normal" font-weight="normal" text-decoration="normal" x="635.6743827688802" y="380.2983830088182" text-anchor="start" dominant-baseline="alphabetic" xml:space="preserve">Trvbnghichititnh</text></g><g><path fill="none" stroke="black" paint-order="fill stroke markers" d=" M 825.6006194117186 386.8324643288182 L 627.3434290858802 386.8324643288182" stroke-miterlimit="10" stroke-width="1.3612669416666667" stroke-dasharray="6.53408132"/><g transform="translate(613.8941117022135,386.8324643288182) translate(-613.8941117022135,-386.8324643288182)"><path fill="black" stroke="none" paint-order="stroke fill markers" d=" M 627.5067811188802 380.0261296204849 L 613.8941117022135 386.8324643288182 L 627.5067811188802 393.63879903715156 Z"/></g></g><g><rect fill="white" stroke="none" x="375.5510359787304" y="455.4403181888182" width="181.1925531775" height="21.23576429"/><text fill="black" stroke="none" font-family="sans-serif" font-size="11pt" font-style="normal" font-weight="normal" text-decoration="normal" x="378.0013164737304" y="470.1420011588182" text-anchor="start" dominant-baseline="alphabetic" xml:space="preserve">Trvthngtinchititnh</text></g><g><path fill="none" stroke="black" paint-order="fill stroke markers" d=" M 597.5589084022134 476.6760824788182 L 348.185034116414 476.6760824788182" stroke-miterlimit="10" stroke-width="1.3612669416666667" stroke-dasharray="6.53408132"/><g transform="translate(334.73571673274733,476.6760824788182) translate(-334.73571673274733,-476.6760824788182)"><path fill="black" stroke="none" paint-order="stroke fill markers" d=" M 348.348386149414 469.8697477704849 L 334.73571673274733 476.6760824788182 L 348.348386149414 483.48241718715155 Z"/></g></g><g><rect fill="white" stroke="none" x="109.17360872166661" y="501.17888742881814" width="189.89691413941406" height="21.23576429"/><text fill="black" stroke="none" font-family="sans-serif" font-size="11pt" font-style="normal" font-weight="normal" text-decoration="normal" x="111.62388921666661" y="515.8805703988181" text-anchor="start" dominant-baseline="alphabetic" xml:space="preserve">Hinththngtinchititnh</text></g><g><path fill="none" stroke="black" paint-order="fill stroke markers" d=" M 318.40051343274735 522.4146517188182 L 103.29293553366665 522.4146517188182" stroke-miterlimit="10" stroke-width="1.3612669416666667" stroke-dasharray="6.53408132"/><g transform="translate(89.84361814999998,522.4146517188182) translate(-89.84361814999998,-522.4146517188182)"><path fill="black" stroke="none" paint-order="stroke fill markers" d=" M 103.45628756666665 515.6083170104848 L 89.84361814999998 522.4146517188182 L 103.45628756666665 529.2209864271515 Z"/></g></g><g><rect fill="white" stroke="none" x="354.065707304414" y="591.022505578818" width="224.16321052613281" height="21.23576429"/><text fill="black" stroke="none" font-family="sans-serif" font-size="11pt" font-style="normal" font-weight="normal" text-decoration="normal" x="356.515987799414" y="605.724188548818" text-anchor="start" dominant-baseline="alphabetic" xml:space="preserve">Thngbokhngtmthydliu</text></g><g><path fill="none" stroke="black" paint-order="fill stroke markers" d=" M 597.5589084022134 612.258269868818 L 348.185034116414 612.258269868818" stroke-miterlimit="10" stroke-width="1.3612669416666667" stroke-dasharray="6.53408132"/><g transform="translate(334.73571673274733,612.258269868818) translate(-334.73571673274733,-612.258269868818)"><path fill="black" stroke="none" paint-order="stroke fill markers" d=" M 348.348386149414 605.4519351604847 L 334.73571673274733 612.258269868818 L 348.348386149414 619.0646045771514 Z"/></g></g><g><g/><path fill="none" stroke="black" paint-order="fill stroke markers" d=" M 16.33520329999999 411.3352692788182 L 662.8997216022135 411.3352692788182 L 662.8997216022135 636.7610748188181 L 16.33520329999999 636.7610748188181 L 16.33520329999999 411.3352692788182 Z" stroke-miterlimit="10" stroke-width="2.3336004714285714" stroke-dasharray=""/><path fill="white" stroke="black" paint-order="fill stroke markers" d=" M 16.33520329999999 411.3352692788182 L 16.33520329999999 430.9375132388182 L 62.6944068970703 430.9375132388182 L 72.4955288770703 421.1363912588182 L 72.4955288770703 411.3352692788182 L 16.33520329999999 411.3352692788182" stroke-miterlimit="10" stroke-width="2.3336004714285714" stroke-dasharray=""/><text fill="black" stroke="none" font-family="sans-serif" font-size="8.8pt" font-style="normal" font-weight="bold" text-decoration="normal" x="32.67040659999999" y="424.4034319188182" text-anchor="start" dominant-baseline="alphabetic" xml:space="preserve">alt</text><g><rect fill="white" stroke="none" x="86.3804516820703" y="412.6420855428182" width="70.73279060425781" height="16.988611432000003"/></g><text fill="black" stroke="none" font-family="sans-serif" font-size="8.8pt" font-style="normal" font-weight="bold" text-decoration="normal" x="88.8307321770703" y="424.4034319188182" text-anchor="start" dominant-baseline="alphabetic" xml:space="preserve">[Cdliu]</text><g><path fill="none" stroke="black" paint-order="fill stroke markers" d=" M 16.33520329999999 546.9174566688181 L 662.8997216022135 546.9174566688181" stroke-miterlimit="10" stroke-width="2.3336004714285714" stroke-dasharray="4.083800825"/></g><g/><g><rect fill="white" stroke="none" x="86.3804516820703" y="548.224272932818" width="109.17599739136719" height="16.988611432000003"/></g><text fill="black" stroke="none" font-family="sans-serif" font-size="8.8pt" font-style="normal" font-weight="bold" text-decoration="normal" x="88.8307321770703" y="559.9856193088181" text-anchor="start" dominant-baseline="alphabetic" xml:space="preserve">[Khngcdliu]</text></g><g/></g><g/><g/><g/><g/></g></svg>