<svg xmlns="http://www.w3.org/2000/svg" xmlns:xlink="http://www.w3.org/1999/xlink" version="1.1" width="1111.7714667384766" height="763.3589003938182"><desc>title%20Danh%20s%C3%A1ch%20nh%C3%A0%0A%0Abottomparticipants%0A%0Aactor%20Landlord%0Aentity%20Client%0Aentity%20Backend%0Adatabase%20Database%0A%0Aactivate%20Landlord%0Aactivate%20Client%0A%0ALandlord%20-%3E%20Client%3A%20Ch%E1%BB%8Dn%20m%C3%A0n%20h%C3%ACnh%20danh%20s%C3%A1ch%20nh%C3%A0%0Aactivate%20Backend%0A%0AClient%20-%3E%20Backend%3A%20G%E1%BB%ADi%20y%C3%AAu%20c%E1%BA%A7u%20l%E1%BA%A5y%20danh%20s%C3%A1ch%20nh%C3%A0%20(bao%20g%E1%BB%93m%20b%E1%BB%99%20l%E1%BB%8Dc)%0A%0Aactivate%20Database%0A%0ABackend%20-%3E%20Database%3A%20Truy%20v%E1%BA%A5n%20danh%20s%C3%A1ch%20nh%C3%A0%20(%C3%A1p%20d%E1%BB%A5ng%20b%E1%BB%99%20l%E1%BB%8Dc)%0ADatabase%20--%3E%20Backend%3A%20Tr%E1%BA%A3%20v%E1%BB%81%20danh%20s%C3%A1ch%20nh%C3%A0%20%C4%91%C3%A3%20l%E1%BB%8Dc%0A%0Adeactivate%20Database%0A%0Aalt%20C%C3%B3%20d%E1%BB%AF%20li%E1%BB%87u%0A%20%20%20%20Backend%20--%3E%20Client%3A%20G%E1%BB%ADi%20danh%20s%C3%A1ch%20nh%C3%A0%20%C4%91%C3%A3%20l%E1%BB%8Dc%0A%20%20%20%20%0A%20%20%20%20Client%20--%3E%20Landlord%3A%20Hi%E1%BB%83n%20th%E1%BB%8B%20danh%20s%C3%A1ch%20nh%C3%A0%20theo%20b%E1%BB%99%20l%E1%BB%8Dc%0Aelse%20Kh%C3%B4ng%20c%C3%B3%20d%E1%BB%AF%20li%E1%BB%87u%0A%20%20%20%20Backend%20--%3E%20Client%3A%20G%E1%BB%ADi%20th%C3%B4ng%20b%C3%A1o%20danh%20s%C3%A1ch%20r%E1%BB%97ng%0A%20%20%20%20deactivate%20Backend%0A%20%20%20%20Client%20--%3E%20Landlord%3A%20Hi%E1%BB%83n%20th%E1%BB%8B%20b%E1%BA%A3ng%20tr%E1%BB%91ng%0Aend%0A%0Adeactivate%20Client%0Adeactivate%20Landlord%0A%0A</desc><defs/><g><g/><g/><g/><g/><g/><g/><g/><g/><g/><g/><g/><g/><g/><g/><g/><g/><g/><g/><g/><g/><g/><g/><g/><g/><g/><g/><g/><g/><g/><g/><g/><g/><g/><g/><g/><g/><g/><g/><g/><g/><g/><g/><g/><g/><g/><g/><g/><g/><g/><g/><g/><g/><g/><g/><g/><g/><g/><g/><g/><g/><g/><g/><g/><g/><g/><g/><g/><g/><g/><g/><g/><g/><g/><g/><g/><g/><g/><g/><g/><g/><g/><g/><g/><g/><g/><g/><g/><g/><g/><g/><g/><g/><g/><g/><g/><g/><g/><g/><g/><g/><g/><g/><g/><g/><g/><g/><g/><g/><g/><g/><g/><g/><g/><g/><g/><g/><g/><g/><g/><g/><g><rect fill="white" stroke="none" x="0" y="0" width="1111" height="763"/></g><g/><g><path fill="none" stroke="black" paint-order="fill stroke markers" d=" M 81.67601649999999 128.73625218881818 L 81.67601649999999 672.6985220788182" stroke-miterlimit="10" stroke-width="1.3612669416666667" stroke-dasharray="12.565541,5.445067766666667"/><path fill="none" stroke="black" paint-order="fill stroke markers" d=" M 367.3340299997396 128.73625218881818 L 367.3340299997396 672.6985220788182" stroke-miterlimit="10" stroke-width="1.3612669416666667" stroke-dasharray="12.565541,5.445067766666667"/><path fill="none" stroke="black" paint-order="fill stroke markers" d=" M 744.2733240170573 128.73625218881818 L 744.2733240170573 672.6985220788182" stroke-miterlimit="10" stroke-width="1.3612669416666667" stroke-dasharray="12.565541,5.445067766666667"/><path fill="none" stroke="black" paint-order="fill stroke markers" d=" M 1070.9334584884766 128.73625218881818 L 1070.9334584884766 672.6985220788182" stroke-miterlimit="10" stroke-width="1.3612669416666667" stroke-dasharray="12.565541,5.445067766666667"/></g><g><g><path fill="white" stroke="black" paint-order="fill stroke markers" d=" M 90.987082381 59.63834222981819 A 9.311065881 9.311065881 0 1 1 90.98707772546743 59.62903116548903 M 81.67601649999999 68.9494081108182 L 81.67601649999999 88.8783561368182 M 69.914670124 76.13689756281819 L 93.43736287599998 76.13689756281819 M 81.67601649999999 88.8783561368182 L 69.914670124 107.50048789881819 M 81.67601649999999 88.8783561368182 L 93.43736287599998 107.50048789881819" stroke-miterlimit="10" stroke-width="2.7769845610000004" stroke-dasharray=""/></g><g><g/><text fill="black" stroke="none" font-family="sans-serif" font-size="11pt" font-style="normal" font-weight="normal" text-decoration="normal" x="53.1470400595703" y="123.83569119881818" text-anchor="start" dominant-baseline="alphabetic" xml:space="preserve">Landlord</text></g><g><path fill="white" stroke="black" paint-order="fill stroke markers" d=" M 391.5918069002396 79.63263106901819 A 24.2577769005 24.2577769005 0 1 1 391.59179477135217 79.60837329616064 M 341.6877608187396 106.11199561831819 L 392.98029918073956 106.11199561831819" stroke-miterlimit="10" stroke-width="2.7769845610000004" stroke-dasharray=""/></g><g><g/><text fill="black" stroke="none" font-family="sans-serif" font-size="11pt" font-style="normal" font-weight="normal" text-decoration="normal" x="348.5938795480794" y="123.83569119881818" text-anchor="start" dominant-baseline="alphabetic" xml:space="preserve">Client</text></g><g><path fill="white" stroke="black" paint-order="fill stroke markers" d=" M 768.5311009175573 79.63263106901819 A 24.2577769005 24.2577769005 0 1 1 768.5310887886699 79.60837329616064 M 718.6270548360574 106.11199561831819 L 769.9195931980573 106.11199561831819" stroke-miterlimit="10" stroke-width="2.7769845610000004" stroke-dasharray=""/></g><g><g/><text fill="black" stroke="none" font-family="sans-serif" font-size="11pt" font-style="normal" font-weight="normal" text-decoration="normal" x="715.7479257626628" y="123.83569119881818" text-anchor="start" dominant-baseline="alphabetic" xml:space="preserve">Backend</text></g><g><path fill="white" stroke="black" paint-order="fill stroke markers" d=" M 1047.0840616704766 96.71925372081819 L 1047.0840616704766 62.41532679081819 L 1094.7828553064767 62.41532679081819 L 1094.7828553064767 96.71925372081819" stroke-miterlimit="10" stroke-width="2.7769845610000004" stroke-dasharray=""/><path fill="white" stroke="black" paint-order="fill stroke markers" d=" M 1094.7828553064767 61.22285694991819 L 1094.781662846573 61.33066749483481 L 1094.778085586107 61.43846725878678 L 1094.7721238828015 61.546245461887544 L 1094.7637783328223 61.65399132640659 L 1094.753049770717 61.761694077847274 L 1094.7399392693333 61.86934294602419 L 1094.72444813971 61.976927166140236 L 1094.7065779309473 62.084435979863045 L 1094.6863304300514 62.19185863640084 L 1094.663707661755 62.299184393577484 L 1094.6387118883167 62.4064025189067 L 1094.6113456092928 62.51350229066531 L 1094.5816115612881 62.62047299896537 L 1094.549512717683 62.7273039468252 L 1094.5150522883348 62.83398445123905 L 1094.478233719258 62.94050384424536 L 1094.4390606922789 63.04685147399361 L 1094.397537124667 63.15301670580944 L 1094.353667168745 63.25898892325815 L 1094.3074552114717 63.364757529206294 L 1094.2589058740043 63.47031194688142 L 1094.2080240112364 63.575641620929716 L 1094.1548147113112 63.68073601847156 L 1094.0992832951151 63.78558463015478 L 1094.0414353157432 63.89017697120557 L 1093.981276557945 63.994502582477 L 1093.9188130375462 64.09855103149486 L 1093.8540510008472 64.20231191350096 L 1093.786996923997 64.3057748524936 L 1093.717657512348 64.40892950226505 L 1093.6460396997836 64.51176554743633 L 1093.572150648025 64.61427270448858 L 1093.4959977459157 64.71644072279157 L 1093.417588608683 64.81825938562858 L 1093.336931077175 64.91971851121816 L 1093.2540332170774 65.02080795373233 L 1093.1689033181076 65.12151760431107 L 1093.0815498931843 65.22183739207324 L 1092.991981677577 65.32175728512367 L 1092.9002076280328 65.42126729155632 L 1092.8062369218806 65.52035746045347 L 1092.710078956112 65.6190178828808 L 1092.6117433464437 65.71723869287828 L 1092.511239926355 65.81501006844678 L 1092.4085787461038 65.91232223253022 L 1092.3037700717227 66.00916545399325 L 1092.196824383992 66.10553004859446 L 1092.087752377391 66.20140637995469 L 1091.9765649590297 66.29678486052069 L 1091.8632732475571 66.39165595252388 L 1091.7478885720502 66.48601016893414 L 1091.6304224708801 66.57983807440844 L 1091.5108866905593 66.67313028623443 L 1091.389293184566 66.76587747526865 L 1091.2656541121496 66.85807036686953 L 1091.1399818371142 66.94969974182469 L 1091.0122889265826 67.04075643727302 L 1090.8825881497398 67.13123134762085 L 1090.7508924765548 67.22111542545254 L 1090.6172150764855 67.3103996824352 L 1090.4815693171606 67.39907519021754 L 1090.3439687630428 67.4871330813227 L 1090.2044271740729 67.57456455003492 L 1090.0629585042936 67.6613608532802 L 1089.9195769004539 67.74751331150055 L 1089.7742967005945 67.83301330952195 L 1089.6271324326149 67.91785229741582 L 1089.4780988128186 68.00202179135408 L 1089.3272107444438 68.08551337445749 L 1089.1744833161715 68.1683186976373 L 1089.019931800617 68.25042948043021 L 1088.8635716528036 68.33183751182635 L 1088.7054185086154 68.41253465109044 L 1088.5454881832352 68.4925128285758 L 1088.383796669562 68.5717640465313 L 1088.2203601366125 68.65028037990122 L 1088.055194927904 68.72805397711764 L 1087.8883175598198 68.80507706088565 L 1087.7197447199574 68.88134192896105 L 1087.5494932654601 68.95684095492061 L 1087.377580221332 69.03156658892462 L 1087.204022778734 69.10551135847197 L 1087.0288382932656 69.17866786914732 L 1086.8520442832296 69.25102880536058 L 1086.6736584278794 69.3225869310784 L 1086.4936985656523 69.39333509054786 L 1086.312182692384 69.46326620901198 L 1086.1291289595113 69.53237329341717 L 1085.9445556722542 69.60064943311258 L 1085.758481287788 69.66808780054113 L 1085.5709244133961 69.7346816519223 L 1085.3819038046095 69.80042432792644 L 1085.1914383633316 69.86530925434072 L 1084.9995471359478 69.92932994272657 L 1084.806249311421 69.9924799910685 L 1084.6115642193724 70.05475308441433 L 1084.4155113281493 70.1161429955066 L 1084.2181102428772 70.17664358540536 L 1084.0193807035 70.23624880410202 L 1083.8193425828063 70.29495269112441 L 1083.6180158844413 70.35274937613272 L 1083.4154207409072 70.40963307950663 L 1083.2115774115496 70.46559811292322 L 1083.006506280531 70.52063887992576 L 1082.8002278547945 70.57474987648341 L 1082.5927627620101 70.62792569154163 L 1082.3841317485144 70.68016100756323 L 1082.1743556772349 70.73145060106012 L 1081.9634555256039 70.78178934311569 L 1081.751452383461 70.8311721998977 L 1081.5383674509433 70.8795942331616 L 1081.3242220363668 70.92705060074444 L 1081.1090375540946 70.973536557049 L 1080.8928355223954 71.01904745351838 L 1080.6756375612922 71.06357873910088 L 1080.4574653904 71.10712596070502 L 1080.2383408267547 71.14968476364494 L 1080.0182857826294 71.19125089207583 L 1079.7973222633452 71.23182018941947 L 1079.5754723650703 71.27138859877994 L 1079.3527582726092 71.30995216334925 L 1079.1292022571859 71.34750702680313 L 1078.9048266742152 71.38404943368649 L 1078.6796539610689 71.4195757297891 L 1078.4537066348305 71.45408236251096 L 1078.2270072900444 71.48756588121756 L 1077.9995785964559 71.52002293758491 L 1077.7714432967452 71.55145028593446 L 1077.5426242042518 71.58184478355753 L 1077.3131442006945 71.61120339102969 L 1077.0830262338825 71.63952317251467 L 1076.8522933154204 71.66680129605793 L 1076.620968518408 71.69303503386982 L 1076.3890749751322 71.71822176259843 L 1076.156635874754 71.7423589635919 L 1075.92367446099 71.7654442231502 L 1075.690214029787 71.78747523276665 L 1075.456277926994 71.80844978935863 L 1075.2218895460262 71.82836579548797 L 1074.9870723255262 71.84722125957065 L 1074.7518497470205 71.86501429607597 L 1074.5162453325709 71.8817431257151 L 1074.2802826424227 71.89740607561903 L 1074.043985272648 71.91200157950583 L 1073.8073768527868 71.92552817783725 L 1073.5704810434843 71.93798451796474 L 1073.3333215341238 71.94936935426468 L 1073.0959220404586 71.95968154826289 L 1072.8583063022402 71.96892006874862 L 1072.6204980808445 71.97708399187748 L 1072.3825211568956 71.98417250126396 L 1072.1443993278872 71.99018488806304 L 1071.9061564058038 71.99512055104105 L 1071.6678162147396 71.99897899663581 L 1071.4294025885144 72.00175983900598 L 1071.190939368293 72.00346280006961 L 1070.9524504001977 72.00408770953204 L 1070.7139595329272 72.00363450490285 L 1070.4754906153694 72.0021032315021 L 1070.2370674942172 71.99949404245586 L 1069.998714011584 71.9958071986809 L 1069.7604540026198 71.99104306885846 L 1069.5223112931264 71.98520212939759 L 1069.2843096971767 71.97828496438737 L 1069.0464730147319 71.97029226553852 L 1068.808825029262 71.96122483211428 L 1068.5713895053675 71.95108357085043 L 1068.3341901864028 71.93986949586466 L 1068.0972507921024 71.92758372855508 L 1067.860595016208 71.91422749748824 L 1067.6242465241003 71.89980213827607 L 1067.3882289504313 71.8843090934425 L 1067.1525658967616 71.86774991227908 L 1066.9172809292006 71.85012625069015 L 1066.6823975760485 71.83143987102717 L 1066.4479393254453 71.81169264191253 L 1066.2139296230202 71.79088653805269 L 1065.980391869549 71.7690236400407 L 1065.747349418612 71.74610613414815 L 1065.5148255742604 71.72213631210651 L 1065.2828435886845 71.69711657087802 L 1065.0514266598898 71.67104941241597 L 1064.8205979293764 71.64393744341446 L 1064.5903804798247 71.6157833750478 L 1064.3607973327883 71.58659002269937 L 1064.13187144639 71.55636030568009 L 1063.903625713028 71.52509724693644 L 1063.6760829570853 71.49280397274828 L 1063.4492659326481 71.45948371241609 L 1063.2231973212295 71.42513979793813 L 1062.9978997295025 71.38977566367726 L 1062.7733956870386 71.35339484601741 L 1062.5497076440547 71.31600098301004 L 1062.3268579691687 71.27759781401028 L 1062.1048689471627 71.23818917930303 L 1061.8837627767534 71.19777901971894 L 1061.6635615683742 71.15637137624027 L 1061.4442873419619 71.11397038959687 L 1061.2259620247567 71.07058029985207 L 1061.0086074491085 71.02620544597868 L 1060.7922453502933 70.98085026542512 L 1060.576897364341 70.93451929367163 L 1060.3625850258707 70.8872171637768 L 1060.1493297659376 70.8389486059142 L 1059.93715290989 70.78971844689937 L 1059.7260756752369 70.7395316097072 L 1059.5161191695256 70.6883931129796 L 1059.3073043882316 70.6363080705236 L 1059.0996522126593 70.58328169080006 L 1058.893183407853 70.52931927640276 L 1058.6879186205215 70.47442622352818 L 1058.483878376972 70.41860802143584 L 1058.281083081059 70.36187025189946 L 1058.0795530121434 70.3042185886487 L 1057.8793083230635 70.24565879680183 L 1057.680369038122 70.18619673228926 L 1057.4827550510813 70.12583834126788 L 1057.2864861231753 70.06458965952649 L 1057.0915818811336 70.00245681188221 L 1056.8980618152175 69.93944601156807 L 1056.7059452772728 69.87556355961155 L 1056.515251478793 69.81081584420461 L 1056.325999488999 69.74520934006487 L 1056.1382082329321 69.67875060778805 L 1055.9518964895615 69.61144629319199 L 1055.767082889906 69.54330312665208 L 1055.583785915172 69.47432792242817 L 1055.4020238949038 69.40452757798322 L 1055.2218150051522 69.3339090732935 L 1055.043177266656 69.26247947015062 L 1054.86612854304 69.19024591145539 L 1054.6906865390292 69.11721562050347 L 1054.5168687986777 69.0433959002631 L 1054.3446927036148 68.96879413264479 L 1054.1741754713066 68.89341777776313 L 1054.005334153334 68.81727437319081 L 1053.838185633688 68.74037153320482 L 1053.6727466270816 68.66271694802508 L 1053.5090336772776 68.58431838304537 L 1053.3470631554342 68.5051836780569 L 1053.1868512584688 68.4253207464642 L 1053.0284140074377 68.34473757449386 L 1052.871767245934 68.26344222039596 L 1052.716926638503 68.18144281363814 L 1052.5639076690768 68.09874755409275 L 1052.4127256394245 68.01536471121685 L 1052.2633956676232 67.9313026232252 L 1052.1159326865456 67.84656969625658 L 1051.9703514423672 67.76117440353308 L 1051.8266664930907 67.67512528451279 L 1051.6848922070915 67.5884309440359 L 1051.54504276168 67.50110005146425 L 1051.4071321416843 67.41314133981427 L 1051.2711741380513 67.32456360488388 L 1051.1371823464683 67.23537570437271 L 1051.0051701660025 67.14558655699653 L 1050.8751507977622 67.05520514159522 L 1050.7471372435757 66.96424049623502 L 1050.6211423046918 66.87270171730466 L 1050.4971785804994 66.78059795860575 L 1050.3752584672677 66.68793843043741 L 1050.2553941569063 66.59473239867523 L 1050.1375976357463 66.50098918384472 L 1050.0218806833418 66.40671816018926 L 1049.9082548712918 66.31192875473263 L 1049.7967315620822 66.2166304463364 L 1049.6873219079516 66.120832764752 L 1049.580036849774 66.02454528966774 L 1049.4748871159657 65.92777764975091 L 1049.3718832214126 65.83053952168484 L 1049.2710354664184 65.73284062920132 L 1049.1723539356742 65.63469074210818 L 1049.0758484972514 65.53609967531233 L 1048.9815288016127 65.4370772878383 L 1048.8894042806498 65.33763348184232 L 1048.7994841467375 65.23777820162212 L 1048.7117773918146 65.13752143262249 L 1048.6262927864834 65.03687320043682 L 1048.543038879133 64.93584356980442 L 1048.4620239950852 64.83444264360419 L 1048.3832562357604 64.73268056184422 L 1048.306743477869 64.63056750064791 L 1048.2324933726234 64.52811367123628 L 1048.1605133449716 64.42532931890689 L 1048.090810592857 64.32222472200931 L 1048.0233920864964 64.21881019091732 L 1047.9582645676844 64.11509606699785 L 1047.8954345491186 64.01109272157687 L 1047.8349083137484 63.90681055490224 L 1047.776691914147 63.80225999510374 L 1047.7207911719056 63.697451497150205 L 1047.6672116770521 63.59239554180411 L 1047.6159587874915 63.48710263457343 L 1047.5670376284695 63.381583304661156 L 1047.5204530920619 63.27584810391234 L 1047.4762098366828 63.16990760575894 L 1047.4343122866214 63.06377240416249 L 1047.3947646315976 62.95745311255472 L 1047.357570826344 62.85096036277616 L 1047.32273459021 62.744304804013076 L 1047.2902594067905 62.63749710173245 L 1047.2601485235764 62.530547936615505 L 1047.2324049516312 62.423468003489624 L 1047.2070314652888 62.316268010258895 L 1047.1840306018769 62.208958676833305 L 1047.1634046614624 62.10155073405677 L 1047.1451557066223 61.99405492263407 L 1047.1292855622369 61.88648199205676 L 1047.1157958153074 61.77884269952825 L 1047.1046878147972 61.6711478088881 L 1047.095962671497 61.56340808953563 L 1047.0896212579141 61.45563431535299 L 1047.0856642081844 61.34783726362778 L 1047.0840919180098 61.24002771397536 L 1047.0849045446178 61.13221644726084 L 1047.0881020067463 61.02441424452105 L 1047.093683984652 60.916631885886424 L 1047.1016499201417 60.808880149503025 L 1047.1119990166285 60.70116981045468 L 1047.1247302392112 60.59351163968555 L 1047.1398423147784 60.48591640292299 L 1047.157333732135 60.378394859601016 L 1047.1772027421537 60.27095776178435 L 1047.1994473579505 60.163615853093255 L 1047.2240653550818 60.05637986762915 L 1047.251054271769 59.949260528901206 L 1047.2804114091423 59.84226854875404 L 1047.3121338315127 59.7354146262965 L 1047.3462183666645 59.62870944683179 L 1047.3826616061726 59.52216368078894 L 1047.4214599057434 59.41578798265577 L 1047.462609385579 59.30959298991343 L 1047.5061059307661 59.203589321972714 L 1047.5519451916862 59.09778757911208 L 1047.6001225844514 58.992198341417634 L 1047.6506332913625 58.88683216772516 L 1047.7034722613912 58.78169959456423 L 1047.7586342106842 58.67681113510454 L 1047.8161136230929 58.57217727810464 L 1047.8759047507237 58.46780848686303 L 1047.9380016145137 58.36371519817185 L 1048.0023980048281 58.25990782127324 L 1048.0690874820818 58.15639673681838 L 1048.1380633773827 58.053192295829454 L 1048.2093187931985 57.950304818664556 L 1048.282846604047 57.84774459398567 L 1048.3586394572087 57.745521877729786 L 1048.4366897734612 57.64364689208335 L 1048.516989747838 57.54212982446004 L 1048.5995313504084 57.44098082648201 L 1048.6843063270812 57.340210012964775 L 1048.771306200429 57.2398274609057 L 1048.8605222705376 57.13984320847635 L 1048.9519456158735 57.040267254018644 L 1049.045567094179 56.94110955504505 L 1049.1413773433842 56.84238002724283 L 1049.2393667825438 56.74408854348249 L 1049.3395256127956 56.646244932830506 L 1049.44184381834 56.54885897956639 L 1049.546311167442 56.45194042220433 L 1049.6529172134533 56.35549895251929 L 1049.7616512958587 56.25954421457787 L 1049.87250254134 56.16408580377391 L 1049.9854598648653 56.06913326586893 L 1050.1005119707963 55.974696096037604 L 1050.2176473540185 55.88078373791821 L 1050.336854301091 55.7874055826683 L 1050.4581208914185 55.694570968025594 L 1050.5814349984428 55.60228917737418 L 1050.7067842908564 55.51056943881623 L 1050.834156233834 55.41942092424918 L 1050.9635380902878 55.328852748448504 L 1051.0949169221399 55.23887396815633 L 1051.2282795916165 55.14949358117568 L 1051.3636127625618 55.0607205254708 L 1051.5009029017717 54.97256367827326 L 1051.6401362803465 54.88503185519433 L 1051.7812989750644 54.79813380934336 L 1051.9243768697736 54.71187823045254 L 1052.0693556568037 54.62627374400786 L 1052.216220838397 54.541328910386646 L 1052.3649577281576 54.45705222400146 L 1052.5155514525206 54.373452112450714 L 1052.6679869522388 54.290536935675895 L 1052.8222489838897 54.20831498512558 L 1052.9783221213984 54.12679448292632 L 1053.1361907575813 54.0459835810604 L 1053.2958391057061 53.965890360550645 L 1053.4572512010714 53.88652283065238 L 1053.6204109026016 53.80788892805245 L 1053.7853018944634 53.72999651607559 L 1053.9519076876943 53.652853383898076 L 1054.120211621854 53.57646724576885 L 1054.2901968666893 53.50084574023808 L 1054.4618464238176 53.42599642939328 L 1054.6351431284259 53.35192679810317 L 1054.8100696509885 53.278644253269164 L 1054.9866084989985 53.20615612308466 L 1055.1647420187187 53.13446965630228 L 1055.3444523969451 53.06359202150896 L 1055.5257216627901 52.99353030640911 L 1055.708531689478 52.924291517115876 L 1055.8928641961581 52.85588257745046 L 1056.0787007497338 52.78831032824984 L 1056.2660227667043 52.72158152668263 L 1056.4548115150244 52.65570284557336 L 1056.6450481159761 52.590680872735255 L 1056.8367135460583 52.52652211031142 L 1057.0297886388873 52.463232974124615 L 1057.224254087115 52.40081979303573 L 1057.4200904443585 52.33928880831086 L 1057.6172781271455 52.278646172997206 L 1057.8157974168716 52.21889795130775 L 1058.0156284617735 52.160050118014894 L 1058.2167512789135 52.1021085578529 L 1058.4191457561772 52.045079064929524 L 1058.6227916542853 51.98896734214652 L 1058.8276686088182 51.933779000629414 L 1059.0337561322508 51.87951955916637 L 1059.2410336160028 51.826194443656306 L 1059.4494803324983 51.77380898656634 L 1059.6590754372394 51.72236842639853 L 1059.8697979708904 51.67187790716602 L 1060.0816268613735 51.622342477878675 L 1060.294540925976 51.57376709203812 L 1060.508518873469 51.526156607142475 L 1060.7235393062363 51.47951578420055 L 1060.9395807224134 51.43384928725578 L 1061.1566215180392 51.38916168291979 L 1061.3746399892143 51.34545743991578 L 1061.593614334274 51.302740928631636 L 1061.8135226559657 51.261016420682886 L 1062.034342963641 51.220288088485546 L 1062.2560531754525 51.18056000483891 L 1062.4786311205644 51.14183614251822 L 1062.7020545413675 51.10412037387746 L 1062.9263010957056 51.06741647046204 L 1063.1513483591107 51.03172810263173 L 1063.3771738270434 50.99705883919358 L 1063.6037549171454 50.96341214704502 L 1063.8310689714965 50.930791390827245 L 1064.0590932588807 50.899199832588685 L 1064.287804977059 50.86864063145883 L 1064.5171812550507 50.83911684333235 L 1064.7471991554187 50.81063142056343 L 1064.9778356765648 50.78318721167063 L 1065.2090677550293 50.75678696105195 L 1065.4408722677967 50.731433308710464 L 1065.6732260346091 50.70712878999027 L 1065.9061058202833 50.683875835323 L 1066.139488337035 50.66167676998473 L 1066.3733502468065 50.6405338138635 L 1066.6076681636023 50.6204490812373 L 1066.842418655826 50.60142458056266 L 1067.0775782486235 50.583462214273794 L 1067.3131234262319 50.566563778592354 L 1067.5490306343295 50.55073096334783 L 1067.7852762823923 50.53596535180856 L 1068.021836746052 50.52226842052339 L 1068.2586883694598 50.50964153917403 L 1068.4958074676504 50.49808597043808 L 1068.733170328912 50.48760286986282 L 1068.9707532171556 50.47819328574954 L 1069.208532374291 50.46985815904882 L 1069.4464840226003 50.462598323266384 L 1069.6845843671172 50.456414504379765 L 1069.9228095980052 50.45130732076569 L 1070.1611358929401 50.44727728313828 L 1070.3995394194912 50.444324794497916 L 1070.637996337504 50.44245015009101 L 1070.876482801486 50.44165353738045 L 1071.114974962989 50.44193503602685 L 1071.353448972996 50.443294617880554 L 1071.5918809843042 50.445732146984525 L 1071.8302471539116 50.44924737958788 L 1072.0685236454 50.45383996417029 L 1072.3066866313184 50.459509441477124 L 1072.544712295567 50.46625524456538 L 1072.7825768357775 50.474076698860365 L 1073.0202564656943 50.48297302222316 L 1073.2577274175521 50.49294332502887 L 1073.4949659444542 50.50398661025549 L 1073.7319483227452 50.51610177358371 L 1073.9686508543848 50.52928760350731 L 1074.205049869317 50.54354278145426 L 1074.4411217278375 50.55886588191867 L 1074.6768428229573 50.575255372603245 L 1074.912189582763 50.592709614572584 L 1075.1471384727747 50.61122686241703 L 1075.3816659982997 50.630805264427224 L 1075.6157487067803 50.651442862779284 L 1075.849363190141 50.67313759373059 L 1076.0824860871282 50.695887287826096 L 1076.3150940856463 50.71968967011537 L 1076.5471639250893 50.74454236038002 L 1076.778672398667 50.77044287337172 L 1077.0095963557242 50.797388619060754 L 1077.2399127040585 50.825376902895016 L 1077.4695984122263 50.85440492606945 L 1077.6986305118487 50.88446978580591 L 1077.9269860999063 50.9155684756435 L 1078.154642341031 50.947697885739125 L 1078.3815764697877 50.980854803178566 L 1078.6077657929532 51.01503591229771 L 1078.8331876917832 51.05023779501413 L 1079.0578196242764 51.08645693116888 L 1079.281639127426 51.12368969887854 L 1079.5046238194684 51.16193237489736 L 1079.7267514021205 51.201181134989596 L 1079.947999662809 51.241432054311964 L 1080.168346476892 51.28268110780607 L 1080.387769809872 51.32492417060092 L 1080.6062477195985 51.368157018425464 L 1080.8237583584623 51.41237532803093 L 1081.0402799755811 51.45757467762322 L 1081.2557909189736 51.503750547305025 L 1081.4702696377249 51.55089831952786 L 1081.6836946841418 51.5990132795538 L 1081.8960447158977 51.64809061592693 L 1082.1072984981663 51.69812542095451 L 1082.3174349057456 51.749112691197745 L 1082.5264329251697 51.801047327972086 L 1082.7342716568107 51.85392413785714 L 1082.9409303169691 51.90773783321599 L 1083.1463882399507 51.962483032723924 L 1083.3506248801348 52.01815426190663 L 1083.5536198140271 52.07474595368758 L 1083.7553527423038 52.132252448944755 L 1083.9558034918398 52.190667997076545 L 1084.1549520177275 52.24998675657682 L 1084.35277840528 52.310202795619055 L 1084.5492628720237 52.371310092649544 L 1084.7443857696753 52.43330253698949 L 1084.938127586108 52.49617392944612 L 1085.1304689473016 52.559917982932596 L 1085.32139061928 52.62452832309667 L 1085.5108735100353 52.68999848895818 L 1085.6988986714362 52.7563219335551 L 1085.8854473011231 52.823492024598224 L 1086.070500744389 52.89150204513444 L 1086.2540404960432 52.960345194218355 L 1086.436048202264 53.03001458759244 L 1086.6165056624318 53.10050325837541 L 1086.7953948309516 53.171804157758935 L 1086.9726978190556 53.243910155712484 L 1087.1483968965922 53.31681404169635 L 1087.3224744938007 53.39050852538269 L 1087.4949132030658 53.46498623738456 L 1087.6656957806608 53.5402397299928 L 1087.8348051484702 53.61626147792087 L 1088.0022243956978 53.69304387905734 L 1088.1679367805586 53.770579255226075 L 1088.3319257319524 53.848859852954064 L 1088.4941748511203 53.92787784424677 L 1088.654667913286 54.00762532737092 L 1088.8133888692767 54.08809432764465 L 1088.9703218471293 54.16927679823499 L 1089.1254511536767 54.251164620962534 L 1089.2787612761174 54.33374960711325 L 1089.4302368835672 54.41702349825734 L 1089.5798628285913 54.500977967075094 L 1089.7276241487202 54.58560461818958 L 1089.8735060679446 54.670894989006214 L 1090.0174939981946 54.75684055055899 L 1090.1595735407968 54.84343270836337 L 1090.2997304879154 54.93066280327574 L 1090.4379508239726 55.0185221123593 L 1090.57422072705 55.107001849756344 L 1090.7085265702708 55.196093167566886 L 1090.8408549231626 55.28578715673337 L 1090.9711925530003 55.37607484793163 L 1091.0995264261296 55.46694721246779 L 1091.2258437092703 55.55839516318112 L 1091.350131770799 55.65040955535275 L 1091.4723781820135 55.742981187620146 L 1091.5925707183742 55.83610080289723 L 1091.7106973607276 55.92975908930006 L 1091.8267462965084 56.02394668107806 L 1091.9407059209193 56.11865415955053 L 1092.0525648380928 56.213872054048544 L 1092.1623118622308 56.30959084286201 L 1092.2699360187219 56.405800954191804 L 1092.3754265452403 56.50249276710697 L 1092.4787728928216 56.5996566125068 L 1092.5799647269164 56.69728277408771 L 1092.6789919284263 56.79536148931491 L 1092.7758445947134 56.89388295039859 L 1092.8705130405917 56.99283730527477 L 1092.9629877992957 57.09221465859041 L 1093.0532596234264 57.19200507269298 L 1093.1413194858767 57.29219856862425 L 1093.2271585807339 57.39278512711811 L 1093.3107683241597 57.49375468960253 L 1093.3921403552497 57.59509715920541 L 1093.4712665368686 57.69680240176424 L 1093.548138956464 57.79886024683951 L 1093.6227499268582 57.90126048873177 L 1093.6950919870162 58.003992887502164 L 1093.7651579027925 58.10704716999642 L 1093.8329406676535 58.21041303087217 L 1093.8984335033795 58.31408013362946 L 1093.9616298607414 58.41803811164441 L 1094.022523420156 58.52227656920584 L 1094.0811080923186 58.62678508255487 L 1094.13737801881 58.731553200927245 L 1094.1913275726854 58.83657044759845 L 1094.2429513590334 58.94182632093131 L 1094.2922442155193 59.04731029542622 L 1094.3392012128977 59.153011822773635 L 1094.3838176555087 59.25892033290889 L 1094.4260890817447 59.36502523506925 L 1094.4660112644985 59.471315918852895 L 1094.5035802115851 59.57778175528004 L 1094.5387921661413 59.684412097855756 L 1094.5716436070006 59.79119628363465 L 1094.6021312490464 59.89812363428712 L 1094.6302520435402 60.005183457167206 L 1094.6560031784256 60.11236504638185 L 1094.6793820786106 60.21965768386144 L 1094.700386406225 60.327050640431644 L 1094.7190140608532 60.43453317688629 L 1094.7352631797455 60.5420945450613 L 1094.7491321380035 60.6497239889095 L 1094.7606195487426 60.757410745576195 L 1094.7697242632319 60.86514404647545 L 1094.776445371007 60.972913118366954 L 1094.7807821999631 61.08070718443333 L 1094.7827343164206 61.188515465357796 M 1094.7828553064767 95.52678387991818 L 1094.781662846573 95.6345944248348 L 1094.778085586107 95.74239418878678 L 1094.7721238828015 95.85017239188754 L 1094.7637783328223 95.95791825640659 L 1094.753049770717 96.06562100784727 L 1094.7399392693333 96.1732698760242 L 1094.72444813971 96.28085409614023 L 1094.7065779309473 96.38836290986303 L 1094.6863304300514 96.49578556640084 L 1094.663707661755 96.60311132357748 L 1094.6387118883167 96.7103294489067 L 1094.6113456092928 96.8174292206653 L 1094.5816115612881 96.92439992896537 L 1094.549512717683 97.0312308768252 L 1094.5150522883348 97.13791138123905 L 1094.478233719258 97.24443077424536 L 1094.4390606922789 97.35077840399362 L 1094.397537124667 97.45694363580944 L 1094.353667168745 97.56291585325815 L 1094.3074552114717 97.66868445920629 L 1094.2589058740043 97.77423887688141 L 1094.2080240112364 97.8795685509297 L 1094.1548147113112 97.98466294847155 L 1094.0992832951151 98.08951156015478 L 1094.0414353157432 98.19410390120557 L 1093.981276557945 98.29842951247699 L 1093.9188130375462 98.40247796149485 L 1093.8540510008472 98.50623884350097 L 1093.786996923997 98.60970178249359 L 1093.717657512348 98.71285643226504 L 1093.6460396997836 98.81569247743631 L 1093.572150648025 98.91819963448859 L 1093.4959977459157 99.02036765279156 L 1093.417588608683 99.12218631562857 L 1093.336931077175 99.22364544121817 L 1093.2540332170774 99.32473488373233 L 1093.1689033181076 99.42544453431107 L 1093.0815498931843 99.52576432207324 L 1092.991981677577 99.62568421512367 L 1092.9002076280328 99.72519422155631 L 1092.8062369218806 99.82428439045346 L 1092.710078956112 99.92294481288079 L 1092.6117433464437 100.02116562287829 L 1092.511239926355 100.11893699844678 L 1092.4085787461038 100.2162491625302 L 1092.3037700717227 100.31309238399325 L 1092.196824383992 100.40945697859446 L 1092.087752377391 100.50533330995468 L 1091.9765649590297 100.60071179052068 L 1091.8632732475571 100.69558288252388 L 1091.7478885720502 100.78993709893413 L 1091.6304224708801 100.88376500440843 L 1091.5108866905593 100.97705721623441 L 1091.389293184566 101.06980440526866 L 1091.2656541121496 101.16199729686952 L 1091.1399818371142 101.25362667182469 L 1091.0122889265826 101.34468336727302 L 1090.8825881497398 101.43515827762084 L 1090.7508924765548 101.52504235545253 L 1090.6172150764855 101.61432661243519 L 1090.4815693171606 101.70300212021755 L 1090.3439687630428 101.7910600113227 L 1090.2044271740729 101.87849148003492 L 1090.0629585042936 101.9652877832802 L 1089.9195769004539 102.05144024150056 L 1089.7742967005945 102.13694023952193 L 1089.6271324326149 102.22177922741581 L 1089.4780988128186 102.30594872135407 L 1089.3272107444438 102.38944030445748 L 1089.1744833161715 102.47224562763729 L 1089.019931800617 102.5543564104302 L 1088.8635716528036 102.63576444182635 L 1088.7054185086154 102.71646158109044 L 1088.5454881832352 102.79643975857579 L 1088.383796669562 102.8756909765313 L 1088.2203601366125 102.95420730990122 L 1088.055194927904 103.03198090711763 L 1087.8883175598198 103.10900399088564 L 1087.7197447199574 103.18526885896105 L 1087.5494932654601 103.2607678849206 L 1087.377580221332 103.33549351892461 L 1087.204022778734 103.40943828847196 L 1087.0288382932656 103.48259479914732 L 1086.8520442832296 103.55495573536056 L 1086.6736584278794 103.6265138610784 L 1086.4936985656523 103.69726202054787 L 1086.312182692384 103.76719313901197 L 1086.1291289595113 103.83630022341715 L 1085.9445556722542 103.90457636311257 L 1085.758481287788 103.97201473054113 L 1085.5709244133961 104.03860858192229 L 1085.3819038046095 104.10435125792642 L 1085.1914383633316 104.1692361843407 L 1084.9995471359478 104.23325687272656 L 1084.806249311421 104.29640692106851 L 1084.6115642193724 104.35868001441433 L 1084.4155113281493 104.4200699255066 L 1084.2181102428772 104.48057051540535 L 1084.0193807035 104.54017573410202 L 1083.8193425828063 104.5988796211244 L 1083.6180158844413 104.65667630613272 L 1083.4154207409072 104.71356000950664 L 1083.2115774115496 104.7695250429232 L 1083.006506280531 104.82456580992574 L 1082.8002278547945 104.87867680648341 L 1082.5927627620101 104.93185262154162 L 1082.3841317485144 104.98408793756322 L 1082.1743556772349 105.0353775310601 L 1081.9634555256039 105.08571627311568 L 1081.751452383461 105.13509912989768 L 1081.5383674509433 105.1835211631616 L 1081.3242220363668 105.23097753074444 L 1081.1090375540946 105.27746348704899 L 1080.8928355223954 105.32297438351839 L 1080.6756375612922 105.36750566910086 L 1080.4574653904 105.41105289070501 L 1080.2383408267547 105.45361169364494 L 1080.0182857826294 105.49517782207583 L 1079.7973222633452 105.53574711941947 L 1079.5754723650703 105.57531552877992 L 1079.3527582726092 105.61387909334925 L 1079.1292022571859 105.65143395680312 L 1078.9048266742152 105.68797636368647 L 1078.6796539610689 105.72350265978909 L 1078.4537066348305 105.75800929251095 L 1078.2270072900444 105.79149281121755 L 1077.9995785964559 105.82394986758491 L 1077.7714432967452 105.85537721593445 L 1077.5426242042518 105.88577171355752 L 1077.3131442006945 105.9151303210297 L 1077.0830262338825 105.94345010251467 L 1076.8522933154204 105.97072822605791 L 1076.620968518408 105.99696196386981 L 1076.3890749751322 106.02214869259844 L 1076.156635874754 106.04628589359189 L 1075.92367446099 106.0693711531502 L 1075.690214029787 106.09140216276666 L 1075.456277926994 106.11237671935864 L 1075.2218895460262 106.13229272548797 L 1074.9870723255262 106.15114818957065 L 1074.7518497470205 106.16894122607596 L 1074.5162453325709 106.1856700557151 L 1074.2802826424227 106.20133300561903 L 1074.043985272648 106.21592850950582 L 1073.8073768527868 106.22945510783724 L 1073.5704810434843 106.24191144796474 L 1073.3333215341238 106.25329628426466 L 1073.0959220404586 106.2636084782629 L 1072.8583063022402 106.2728469987486 L 1072.6204980808445 106.28101092187747 L 1072.3825211568956 106.28809943126396 L 1072.1443993278872 106.29411181806304 L 1071.9061564058038 106.29904748104106 L 1071.6678162147396 106.30290592663582 L 1071.4294025885144 106.30568676900597 L 1071.190939368293 106.30738973006962 L 1070.9524504001977 106.30801463953205 L 1070.7139595329272 106.30756143490284 L 1070.4754906153694 106.3060301615021 L 1070.2370674942172 106.30342097245587 L 1069.998714011584 106.29973412868088 L 1069.7604540026198 106.29496999885845 L 1069.5223112931264 106.28912905939758 L 1069.2843096971767 106.28221189438736 L 1069.0464730147319 106.27421919553852 L 1068.808825029262 106.26515176211427 L 1068.5713895053675 106.25501050085043 L 1068.3341901864028 106.24379642586464 L 1068.0972507921024 106.23151065855508 L 1067.860595016208 106.21815442748823 L 1067.6242465241003 106.20372906827606 L 1067.3882289504313 106.1882360234425 L 1067.1525658967616 106.17167684227908 L 1066.9172809292006 106.15405318069014 L 1066.6823975760485 106.13536680102716 L 1066.4479393254453 106.11561957191253 L 1066.2139296230202 106.09481346805269 L 1065.980391869549 106.0729505700407 L 1065.747349418612 106.05003306414814 L 1065.5148255742604 106.0260632421065 L 1065.2828435886845 106.00104350087803 L 1065.0514266598898 105.97497634241597 L 1064.8205979293764 105.94786437341445 L 1064.5903804798247 105.9197103050478 L 1064.3607973327883 105.89051695269937 L 1064.13187144639 105.86028723568009 L 1063.903625713028 105.82902417693644 L 1063.6760829570853 105.79673090274827 L 1063.4492659326481 105.76341064241608 L 1063.2231973212295 105.72906672793813 L 1062.9978997295025 105.69370259367726 L 1062.7733956870386 105.6573217760174 L 1062.5497076440547 105.61992791301003 L 1062.3268579691687 105.58152474401028 L 1062.1048689471627 105.54211610930304 L 1061.8837627767534 105.50170594971894 L 1061.6635615683742 105.46029830624026 L 1061.4442873419619 105.41789731959686 L 1061.2259620247567 105.37450722985206 L 1061.0086074491085 105.33013237597868 L 1060.7922453502933 105.28477719542511 L 1060.576897364341 105.23844622367163 L 1060.3625850258707 105.1911440937768 L 1060.1493297659376 105.14287553591419 L 1059.93715290989 105.09364537689936 L 1059.7260756752369 105.0434585397072 L 1059.5161191695256 104.99232004297959 L 1059.3073043882316 104.9402350005236 L 1059.0996522126593 104.88720862080007 L 1058.893183407853 104.83324620640276 L 1058.6879186205215 104.77835315352817 L 1058.483878376972 104.72253495143585 L 1058.281083081059 104.66579718189945 L 1058.0795530121434 104.60814551864868 L 1057.8793083230635 104.54958572680184 L 1057.680369038122 104.49012366228926 L 1057.4827550510813 104.42976527126788 L 1057.2864861231753 104.36851658952648 L 1057.0915818811336 104.30638374188221 L 1056.8980618152175 104.24337294156805 L 1056.7059452772728 104.17949048961154 L 1056.515251478793 104.11474277420461 L 1056.325999488999 104.04913627006486 L 1056.1382082329321 103.98267753778805 L 1055.9518964895615 103.91537322319199 L 1055.767082889906 103.84723005665208 L 1055.583785915172 103.77825485242818 L 1055.4020238949038 103.70845450798322 L 1055.2218150051522 103.63783600329349 L 1055.043177266656 103.56640640015061 L 1054.86612854304 103.49417284145538 L 1054.6906865390292 103.42114255050346 L 1054.5168687986777 103.3473228302631 L 1054.3446927036148 103.27272106264479 L 1054.1741754713066 103.19734470776314 L 1054.005334153334 103.1212013031908 L 1053.838185633688 103.04429846320481 L 1053.6727466270816 102.96664387802507 L 1053.5090336772776 102.88824531304537 L 1053.3470631554342 102.8091106080569 L 1053.1868512584688 102.72924767646418 L 1053.0284140074377 102.64866450449387 L 1052.871767245934 102.56736915039596 L 1052.716926638503 102.48536974363815 L 1052.5639076690768 102.40267448409276 L 1052.4127256394245 102.31929164121684 L 1052.2633956676232 102.2352295532252 L 1052.1159326865456 102.15049662625658 L 1051.9703514423672 102.06510133353308 L 1051.8266664930907 101.97905221451278 L 1051.6848922070915 101.89235787403591 L 1051.54504276168 101.80502698146424 L 1051.4071321416843 101.71706826981428 L 1051.2711741380513 101.62849053488388 L 1051.1371823464683 101.53930263437272 L 1051.0051701660025 101.44951348699652 L 1050.8751507977622 101.35913207159521 L 1050.7471372435757 101.26816742623502 L 1050.6211423046918 101.17662864730465 L 1050.4971785804994 101.08452488860574 L 1050.3752584672677 100.9918653604374 L 1050.2553941569063 100.89865932867522 L 1050.1375976357463 100.80491611384473 L 1050.0218806833418 100.71064509018925 L 1049.9082548712918 100.61585568473262 L 1049.7967315620822 100.5205573763364 L 1049.6873219079516 100.424759694752 L 1049.580036849774 100.32847221966773 L 1049.4748871159657 100.2317045797509 L 1049.3718832214126 100.13446645168483 L 1049.2710354664184 100.03676755920131 L 1049.1723539356742 99.93861767210817 L 1049.0758484972514 99.84002660531232 L 1048.9815288016127 99.7410042178383 L 1048.8894042806498 99.64156041184232 L 1048.7994841467375 99.54170513162211 L 1048.7117773918146 99.4414483626225 L 1048.6262927864834 99.34080013043682 L 1048.543038879133 99.23977049980442 L 1048.4620239950852 99.13836957360418 L 1048.3832562357604 99.03660749184422 L 1048.306743477869 98.9344944306479 L 1048.2324933726234 98.83204060123627 L 1048.1605133449716 98.72925624890688 L 1048.090810592857 98.6261516520093 L 1048.0233920864964 98.52273712091731 L 1047.9582645676844 98.41902299699785 L 1047.8954345491186 98.31501965157686 L 1047.8349083137484 98.21073748490224 L 1047.776691914147 98.10618692510373 L 1047.7207911719056 98.0013784271502 L 1047.6672116770521 97.89632247180411 L 1047.6159587874915 97.79102956457344 L 1047.5670376284695 97.68551023466115 L 1047.5204530920619 97.57977503391233 L 1047.4762098366828 97.47383453575894 L 1047.4343122866214 97.3676993341625 L 1047.3947646315976 97.2613800425547 L 1047.357570826344 97.15488729277617 L 1047.32273459021 97.04823173401307 L 1047.2902594067905 96.94142403173245 L 1047.2601485235764 96.8344748666155 L 1047.2324049516312 96.72739493348962 L 1047.2070314652888 96.6201949402589 L 1047.1840306018769 96.51288560683331 L 1047.1634046614624 96.40547766405678 L 1047.1451557066223 96.29798185263407 L 1047.1292855622369 96.19040892205675 L 1047.1157958153074 96.08276962952824 L 1047.1046878147972 95.9750747388881 L 1047.095962671497 95.86733501953563 L 1047.0896212579141 95.75956124535298 L 1047.0856642081844 95.65176419362778 L 1047.0840919180098 95.54395464397535" stroke-miterlimit="10" stroke-width="2.7769845610000004" stroke-dasharray=""/></g><g><g/><text fill="black" stroke="none" font-family="sans-serif" font-size="11pt" font-style="normal" font-weight="normal" text-decoration="normal" x="1039.5555135421876" y="123.83569119881818" text-anchor="start" dominant-baseline="alphabetic" xml:space="preserve">Database</text></g><g><path fill="white" stroke="black" paint-order="fill stroke markers" d=" M 90.987082381 704.6338445303182 A 9.311065881 9.311065881 0 1 1 90.98707772546743 704.6245334659891 M 81.67601649999999 713.9449104113182 L 81.67601649999999 733.8738584373182 M 69.914670124 721.1323998633183 L 93.43736287599998 721.1323998633183 M 81.67601649999999 733.8738584373182 L 69.914670124 752.4959901993183 M 81.67601649999999 733.8738584373182 L 93.43736287599998 752.4959901993183" stroke-miterlimit="10" stroke-width="2.7769845610000004" stroke-dasharray=""/></g><g><g/><text fill="black" stroke="none" font-family="sans-serif" font-size="11pt" font-style="normal" font-weight="normal" text-decoration="normal" x="53.1470400595703" y="689.0337253788182" text-anchor="start" dominant-baseline="alphabetic" xml:space="preserve">Landlord</text></g><g><path fill="white" stroke="black" paint-order="fill stroke markers" d=" M 391.5918069002396 720.1359524620182 A 24.2577769005 24.2577769005 0 1 1 391.59179477135217 720.1116946891606 M 341.6877608187396 746.6153170113181 L 392.98029918073956 746.6153170113181" stroke-miterlimit="10" stroke-width="2.7769845610000004" stroke-dasharray=""/></g><g><g/><text fill="black" stroke="none" font-family="sans-serif" font-size="11pt" font-style="normal" font-weight="normal" text-decoration="normal" x="348.5938795480794" y="689.0337253788182" text-anchor="start" dominant-baseline="alphabetic" xml:space="preserve">Client</text></g><g><path fill="white" stroke="black" paint-order="fill stroke markers" d=" M 768.5311009175573 720.1359524620182 A 24.2577769005 24.2577769005 0 1 1 768.5310887886699 720.1116946891606 M 718.6270548360574 746.6153170113181 L 769.9195931980573 746.6153170113181" stroke-miterlimit="10" stroke-width="2.7769845610000004" stroke-dasharray=""/></g><g><g/><text fill="black" stroke="none" font-family="sans-serif" font-size="11pt" font-style="normal" font-weight="normal" text-decoration="normal" x="715.7479257626628" y="689.0337253788182" text-anchor="start" dominant-baseline="alphabetic" xml:space="preserve">Backend</text></g><g><path fill="white" stroke="black" paint-order="fill stroke markers" d=" M 1047.0840616704766 741.7964320378181 L 1047.0840616704766 707.492505107818 L 1094.7828553064767 707.492505107818 L 1094.7828553064767 741.7964320378181" stroke-miterlimit="10" stroke-width="2.7769845610000004" stroke-dasharray=""/><path fill="white" stroke="black" paint-order="fill stroke markers" d=" M 1094.7828553064767 706.300035266918 L 1094.781662846573 706.4078458118347 L 1094.778085586107 706.5156455757866 L 1094.7721238828015 706.6234237788874 L 1094.7637783328223 706.7311696434065 L 1094.753049770717 706.8388723948472 L 1094.7399392693333 706.946521263024 L 1094.72444813971 707.0541054831401 L 1094.7065779309473 707.1616142968629 L 1094.6863304300514 707.2690369534007 L 1094.663707661755 707.3763627105774 L 1094.6387118883167 707.4835808359065 L 1094.6113456092928 707.5906806076651 L 1094.5816115612881 707.6976513159652 L 1094.549512717683 707.8044822638251 L 1094.5150522883348 707.9111627682389 L 1094.478233719258 708.0176821612451 L 1094.4390606922789 708.1240297909934 L 1094.397537124667 708.2301950228093 L 1094.353667168745 708.336167240258 L 1094.3074552114717 708.4419358462061 L 1094.2589058740043 708.5474902638813 L 1094.2080240112364 708.6528199379295 L 1094.1548147113112 708.7579143354714 L 1094.0992832951151 708.8627629471546 L 1094.0414353157432 708.9673552882055 L 1093.981276557945 709.0716808994769 L 1093.9188130375462 709.1757293484947 L 1093.8540510008472 709.2794902305008 L 1093.786996923997 709.3829531694935 L 1093.717657512348 709.4861078192649 L 1093.6460396997836 709.5889438644361 L 1093.572150648025 709.6914510214884 L 1093.4959977459157 709.7936190397915 L 1093.417588608683 709.8954377026284 L 1093.336931077175 709.996896828218 L 1093.2540332170774 710.0979862707321 L 1093.1689033181076 710.1986959213109 L 1093.0815498931843 710.299015709073 L 1092.991981677577 710.3989356021235 L 1092.9002076280328 710.4984456085562 L 1092.8062369218806 710.5975357774533 L 1092.710078956112 710.6961961998807 L 1092.6117433464437 710.7944170098781 L 1092.511239926355 710.8921883854466 L 1092.4085787461038 710.98950054953 L 1092.3037700717227 711.086343770993 L 1092.196824383992 711.1827083655943 L 1092.087752377391 711.2785846969546 L 1091.9765649590297 711.3739631775205 L 1091.8632732475571 711.4688342695238 L 1091.7478885720502 711.563188485934 L 1091.6304224708801 711.6570163914083 L 1091.5108866905593 711.7503086032343 L 1091.389293184566 711.8430557922685 L 1091.2656541121496 711.9352486838694 L 1091.1399818371142 712.0268780588245 L 1091.0122889265826 712.1179347542728 L 1090.8825881497398 712.2084096646207 L 1090.7508924765548 712.2982937424524 L 1090.6172150764855 712.387577999435 L 1090.4815693171606 712.4762535072174 L 1090.3439687630428 712.5643113983225 L 1090.2044271740729 712.6517428670347 L 1090.0629585042936 712.7385391702801 L 1089.9195769004539 712.8246916285004 L 1089.7742967005945 712.9101916265217 L 1089.6271324326149 712.9950306144157 L 1089.4780988128186 713.0792001083539 L 1089.3272107444438 713.1626916914573 L 1089.1744833161715 713.2454970146372 L 1089.019931800617 713.32760779743 L 1088.8635716528036 713.4090158288262 L 1088.7054185086154 713.4897129680903 L 1088.5454881832352 713.5696911455757 L 1088.383796669562 713.6489423635311 L 1088.2203601366125 713.7274586969011 L 1088.055194927904 713.8052322941174 L 1087.8883175598198 713.8822553778855 L 1087.7197447199574 713.9585202459609 L 1087.5494932654601 714.0340192719204 L 1087.377580221332 714.1087449059245 L 1087.204022778734 714.1826896754718 L 1087.0288382932656 714.2558461861472 L 1086.8520442832296 714.3282071223604 L 1086.6736584278794 714.3997652480782 L 1086.4936985656523 714.4705134075477 L 1086.312182692384 714.5404445260118 L 1086.1291289595113 714.609551610417 L 1085.9445556722542 714.6778277501124 L 1085.758481287788 714.745266117541 L 1085.5709244133961 714.8118599689221 L 1085.3819038046095 714.8776026449262 L 1085.1914383633316 714.9424875713405 L 1084.9995471359478 715.0065082597264 L 1084.806249311421 715.0696583080684 L 1084.6115642193724 715.1319314014141 L 1084.4155113281493 715.1933213125064 L 1084.2181102428772 715.2538219024052 L 1084.0193807035 715.3134271211019 L 1083.8193425828063 715.3721310081243 L 1083.6180158844413 715.4299276931325 L 1083.4154207409072 715.4868113965065 L 1083.2115774115496 715.542776429923 L 1083.006506280531 715.5978171969256 L 1082.8002278547945 715.6519281934833 L 1082.5927627620101 715.7051040085415 L 1082.3841317485144 715.7573393245631 L 1082.1743556772349 715.80862891806 L 1081.9634555256039 715.8589676601156 L 1081.751452383461 715.9083505168975 L 1081.5383674509433 715.9567725501614 L 1081.3242220363668 716.0042289177443 L 1081.1090375540946 716.0507148740488 L 1080.8928355223954 716.0962257705182 L 1080.6756375612922 716.1407570561007 L 1080.4574653904 716.1843042777049 L 1080.2383408267547 716.2268630806448 L 1080.0182857826294 716.2684292090756 L 1079.7973222633452 716.3089985064194 L 1079.5754723650703 716.3485669157798 L 1079.3527582726092 716.3871304803491 L 1079.1292022571859 716.4246853438029 L 1078.9048266742152 716.4612277506864 L 1078.6796539610689 716.496754046789 L 1078.4537066348305 716.5312606795108 L 1078.2270072900444 716.5647441982173 L 1077.9995785964559 716.5972012545848 L 1077.7714432967452 716.6286286029343 L 1077.5426242042518 716.6590231005574 L 1077.3131442006945 716.6883817080295 L 1077.0830262338825 716.7167014895145 L 1076.8522933154204 716.7439796130577 L 1076.620968518408 716.7702133508697 L 1076.3890749751322 716.7954000795983 L 1076.156635874754 716.8195372805917 L 1075.92367446099 716.84262254015 L 1075.690214029787 716.8646535497664 L 1075.456277926994 716.8856281063585 L 1075.2218895460262 716.9055441124879 L 1074.9870723255262 716.9243995765705 L 1074.7518497470205 716.9421926130758 L 1074.5162453325709 716.958921442715 L 1074.2802826424227 716.9745843926189 L 1074.043985272648 716.9891798965057 L 1073.8073768527868 717.0027064948371 L 1073.5704810434843 717.0151628349646 L 1073.3333215341238 717.0265476712646 L 1073.0959220404586 717.0368598652627 L 1072.8583063022402 717.0460983857485 L 1072.6204980808445 717.0542623088774 L 1072.3825211568956 717.0613508182638 L 1072.1443993278872 717.0673632050629 L 1071.9061564058038 717.0722988680409 L 1071.6678162147396 717.0761573136357 L 1071.4294025885144 717.0789381560058 L 1071.190939368293 717.0806411170695 L 1070.9524504001977 717.0812660265319 L 1070.7139595329272 717.0808128219027 L 1070.4754906153694 717.079281548502 L 1070.2370674942172 717.0766723594558 L 1069.998714011584 717.0729855156808 L 1069.7604540026198 717.0682213858584 L 1069.5223112931264 717.0623804463975 L 1069.2843096971767 717.0554632813872 L 1069.0464730147319 717.0474705825384 L 1068.808825029262 717.0384031491142 L 1068.5713895053675 717.0282618878502 L 1068.3341901864028 717.0170478128645 L 1068.0972507921024 717.0047620455549 L 1067.860595016208 716.9914058144881 L 1067.6242465241003 716.9769804552759 L 1067.3882289504313 716.9614874104424 L 1067.1525658967616 716.944928229279 L 1066.9172809292006 716.92730456769 L 1066.6823975760485 716.908618188027 L 1066.4479393254453 716.8888709589123 L 1066.2139296230202 716.8680648550526 L 1065.980391869549 716.8462019570405 L 1065.747349418612 716.823284451148 L 1065.5148255742604 716.7993146291063 L 1065.2828435886845 716.7742948878779 L 1065.0514266598898 716.7482277294158 L 1064.8205979293764 716.7211157604142 L 1064.5903804798247 716.6929616920477 L 1064.3607973327883 716.6637683396992 L 1064.13187144639 716.6335386226799 L 1063.903625713028 716.6022755639362 L 1063.6760829570853 716.5699822897482 L 1063.4492659326481 716.5366620294159 L 1063.2231973212295 716.502318114938 L 1062.9978997295025 716.4669539806771 L 1062.7733956870386 716.4305731630172 L 1062.5497076440547 716.3931793000099 L 1062.3268579691687 716.3547761310101 L 1062.1048689471627 716.3153674963029 L 1061.8837627767534 716.2749573367188 L 1061.6635615683742 716.2335496932401 L 1061.4442873419619 716.1911487065967 L 1061.2259620247567 716.1477586168519 L 1061.0086074491085 716.1033837629785 L 1060.7922453502933 716.058028582425 L 1060.576897364341 716.0116976106715 L 1060.3625850258707 715.9643954807766 L 1060.1493297659376 715.916126922914 L 1059.93715290989 715.8668967638993 L 1059.7260756752369 715.8167099267071 L 1059.5161191695256 715.7655714299794 L 1059.3073043882316 715.7134863875234 L 1059.0996522126593 715.6604600077999 L 1058.893183407853 715.6064975934027 L 1058.6879186205215 715.551604540528 L 1058.483878376972 715.4957863384357 L 1058.281083081059 715.4390485688994 L 1058.0795530121434 715.3813969056486 L 1057.8793083230635 715.3228371138017 L 1057.680369038122 715.2633750492892 L 1057.4827550510813 715.2030166582678 L 1057.2864861231753 715.1417679765264 L 1057.0915818811336 715.079635128882 L 1056.8980618152175 715.0166243285679 L 1056.7059452772728 714.9527418766114 L 1056.515251478793 714.8879941612045 L 1056.325999488999 714.8223876570647 L 1056.1382082329321 714.7559289247879 L 1055.9518964895615 714.6886246101918 L 1055.767082889906 714.6204814436519 L 1055.583785915172 714.551506239428 L 1055.4020238949038 714.4817058949831 L 1055.2218150051522 714.4110873902933 L 1055.043177266656 714.3396577871505 L 1054.86612854304 714.2674242284552 L 1054.6906865390292 714.1943939375033 L 1054.5168687986777 714.120574217263 L 1054.3446927036148 714.0459724496446 L 1054.1741754713066 713.970596094763 L 1054.005334153334 713.8944526901906 L 1053.838185633688 713.8175498502046 L 1053.6727466270816 713.7398952650249 L 1053.5090336772776 713.6614967000452 L 1053.3470631554342 713.5823619950568 L 1053.1868512584688 713.502499063464 L 1053.0284140074377 713.4219158914937 L 1052.871767245934 713.3406205373958 L 1052.716926638503 713.258621130638 L 1052.5639076690768 713.1759258710925 L 1052.4127256394245 713.0925430282167 L 1052.2633956676232 713.008480940225 L 1052.1159326865456 712.9237480132564 L 1051.9703514423672 712.838352720533 L 1051.8266664930907 712.7523036015126 L 1051.6848922070915 712.6656092610358 L 1051.54504276168 712.5782783684641 L 1051.4071321416843 712.4903196568141 L 1051.2711741380513 712.4017419218837 L 1051.1371823464683 712.3125540213725 L 1051.0051701660025 712.2227648739964 L 1050.8751507977622 712.1323834585951 L 1050.7471372435757 712.0414188132348 L 1050.6211423046918 711.9498800343046 L 1050.4971785804994 711.8577762756056 L 1050.3752584672677 711.7651167474372 L 1050.2553941569063 711.671910715675 L 1050.1375976357463 711.5781675008445 L 1050.0218806833418 711.4838964771891 L 1049.9082548712918 711.3891070717325 L 1049.7967315620822 711.2938087633362 L 1049.6873219079516 711.1980110817518 L 1049.580036849774 711.1017236066676 L 1049.4748871159657 711.0049559667508 L 1049.3718832214126 710.9077178386847 L 1049.2710354664184 710.8100189462011 L 1049.1723539356742 710.711869059108 L 1049.0758484972514 710.6132779923122 L 1048.9815288016127 710.5142556048381 L 1048.8894042806498 710.4148117988422 L 1048.7994841467375 710.314956518622 L 1048.7117773918146 710.2146997496224 L 1048.6262927864834 710.1140515174367 L 1048.543038879133 710.0130218868043 L 1048.4620239950852 709.9116209606041 L 1048.3832562357604 709.809858878844 L 1048.306743477869 709.7077458176477 L 1048.2324933726234 709.6052919882361 L 1048.1605133449716 709.5025076359067 L 1048.090810592857 709.3994030390091 L 1048.0233920864964 709.2959885079172 L 1047.9582645676844 709.1922743839976 L 1047.8954345491186 709.0882710385767 L 1047.8349083137484 708.983988871902 L 1047.776691914147 708.8794383121036 L 1047.7207911719056 708.7746298141501 L 1047.6672116770521 708.6695738588039 L 1047.6159587874915 708.5642809515733 L 1047.5670376284695 708.458761621661 L 1047.5204530920619 708.3530264209122 L 1047.4762098366828 708.2470859227587 L 1047.4343122866214 708.1409507211623 L 1047.3947646315976 708.0346314295546 L 1047.357570826344 707.928138679776 L 1047.32273459021 707.8214831210129 L 1047.2902594067905 707.7146754187323 L 1047.2601485235764 707.6077262536154 L 1047.2324049516312 707.5006463204895 L 1047.2070314652888 707.3934463272587 L 1047.1840306018769 707.2861369938331 L 1047.1634046614624 707.1787290510566 L 1047.1451557066223 707.0712332396339 L 1047.1292855622369 706.9636603090566 L 1047.1157958153074 706.8560210165281 L 1047.1046878147972 706.748326125888 L 1047.095962671497 706.6405864065355 L 1047.0896212579141 706.5328126323528 L 1047.0856642081844 706.4250155806276 L 1047.0840919180098 706.3172060309752 L 1047.0849045446178 706.2093947642607 L 1047.0881020067463 706.1015925615209 L 1047.093683984652 705.9938102028863 L 1047.1016499201417 705.8860584665028 L 1047.1119990166285 705.7783481274545 L 1047.1247302392112 705.6706899566854 L 1047.1398423147784 705.5630947199228 L 1047.157333732135 705.4555731766009 L 1047.1772027421537 705.3481360787841 L 1047.1994473579505 705.2407941700931 L 1047.2240653550818 705.133558184629 L 1047.251054271769 705.026438845901 L 1047.2804114091423 704.9194468657539 L 1047.3121338315127 704.8125929432963 L 1047.3462183666645 704.7058877638316 L 1047.3826616061726 704.5993419977888 L 1047.4214599057434 704.4929662996556 L 1047.462609385579 704.3867713069133 L 1047.5061059307661 704.2807676389725 L 1047.5519451916862 704.1749658961119 L 1047.6001225844514 704.0693766584175 L 1047.6506332913625 703.964010484725 L 1047.7034722613912 703.858877911564 L 1047.7586342106842 703.7539894521044 L 1047.8161136230929 703.6493555951045 L 1047.8759047507237 703.5449868038629 L 1047.9380016145137 703.4408935151716 L 1048.0023980048281 703.3370861382731 L 1048.0690874820818 703.2335750538182 L 1048.1380633773827 703.1303706128293 L 1048.2093187931985 703.0274831356644 L 1048.282846604047 702.9249229109855 L 1048.3586394572087 702.8227001947296 L 1048.4366897734612 702.7208252090832 L 1048.516989747838 702.6193081414599 L 1048.5995313504084 702.5181591434819 L 1048.6843063270812 702.4173883299646 L 1048.771306200429 702.3170057779056 L 1048.8605222705376 702.2170215254762 L 1048.9519456158735 702.1174455710185 L 1049.045567094179 702.0182878720449 L 1049.1413773433842 701.9195583442427 L 1049.2393667825438 701.8212668604823 L 1049.3395256127956 701.7234232498304 L 1049.44184381834 701.6260372965662 L 1049.546311167442 701.5291187392041 L 1049.6529172134533 701.4326772695191 L 1049.7616512958587 701.3367225315777 L 1049.87250254134 701.2412641207737 L 1049.9854598648653 701.1463115828687 L 1050.1005119707963 701.0518744130375 L 1050.2176473540185 700.9579620549181 L 1050.336854301091 700.8645838996681 L 1050.4581208914185 700.7717492850254 L 1050.5814349984428 700.6794674943741 L 1050.7067842908564 700.587747755816 L 1050.834156233834 700.496599241249 L 1050.9635380902878 700.4060310654484 L 1051.0949169221399 700.3160522851562 L 1051.2282795916165 700.2266718981755 L 1051.3636127625618 700.1378988424707 L 1051.5009029017717 700.049741995273 L 1051.6401362803465 699.9622101721942 L 1051.7812989750644 699.8753121263433 L 1051.9243768697736 699.7890565474523 L 1052.0693556568037 699.7034520610077 L 1052.216220838397 699.6185072273865 L 1052.3649577281576 699.5342305410013 L 1052.5155514525206 699.4506304294506 L 1052.6679869522388 699.3677152526757 L 1052.8222489838897 699.2854933021255 L 1052.9783221213984 699.2039727999262 L 1053.1361907575813 699.1231618980603 L 1053.2958391057061 699.0430686775505 L 1053.4572512010714 698.9637011476523 L 1053.6204109026016 698.8850672450523 L 1053.7853018944634 698.8071748330755 L 1053.9519076876943 698.7300317008979 L 1054.120211621854 698.6536455627687 L 1054.2901968666893 698.5780240572379 L 1054.4618464238176 698.5031747463931 L 1054.6351431284259 698.429105115103 L 1054.8100696509885 698.355822570269 L 1054.9866084989985 698.2833344400844 L 1055.1647420187187 698.2116479733021 L 1055.3444523969451 698.1407703385088 L 1055.5257216627901 698.0707086234089 L 1055.708531689478 698.0014698341157 L 1055.8928641961581 697.9330608944503 L 1056.0787007497338 697.8654886452497 L 1056.2660227667043 697.7987598436824 L 1056.4548115150244 697.7328811625732 L 1056.6450481159761 697.667859189735 L 1056.8367135460583 697.6037004273113 L 1057.0297886388873 697.5404112911244 L 1057.224254087115 697.4779981100355 L 1057.4200904443585 697.4164671253106 L 1057.6172781271455 697.3558244899971 L 1057.8157974168716 697.2960762683076 L 1058.0156284617735 697.2372284350147 L 1058.2167512789135 697.1792868748528 L 1058.4191457561772 697.1222573819293 L 1058.6227916542853 697.0661456591464 L 1058.8276686088182 697.0109573176293 L 1059.0337561322508 696.9566978761662 L 1059.2410336160028 696.9033727606561 L 1059.4494803324983 696.8509873035662 L 1059.6590754372394 696.7995467433984 L 1059.8697979708904 696.7490562241659 L 1060.0816268613735 696.6995207948785 L 1060.294540925976 696.650945409038 L 1060.508518873469 696.6033349241424 L 1060.7235393062363 696.5566941012004 L 1060.9395807224134 696.5110276042557 L 1061.1566215180392 696.4663399999197 L 1061.3746399892143 696.4226357569156 L 1061.593614334274 696.3799192456315 L 1061.8135226559657 696.3381947376827 L 1062.034342963641 696.2974664054854 L 1062.2560531754525 696.2577383218387 L 1062.4786311205644 696.2190144595181 L 1062.7020545413675 696.1812986908773 L 1062.9263010957056 696.1445947874619 L 1063.1513483591107 696.1089064196316 L 1063.3771738270434 696.0742371561935 L 1063.6037549171454 696.0405904640448 L 1063.8310689714965 696.0079697078271 L 1064.0590932588807 695.9763781495885 L 1064.287804977059 695.9458189484586 L 1064.5171812550507 695.9162951603322 L 1064.7471991554187 695.8878097375633 L 1064.9778356765648 695.8603655286705 L 1065.2090677550293 695.8339652780518 L 1065.4408722677967 695.8086116257103 L 1065.6732260346091 695.7843071069901 L 1065.9061058202833 695.7610541523228 L 1066.139488337035 695.7388550869846 L 1066.3733502468065 695.7177121308633 L 1066.6076681636023 695.6976273982372 L 1066.842418655826 695.6786028975625 L 1067.0775782486235 695.6606405312737 L 1067.3131234262319 695.6437420955922 L 1067.5490306343295 695.6279092803477 L 1067.7852762823923 695.6131436688084 L 1068.021836746052 695.5994467375232 L 1068.2586883694598 695.5868198561739 L 1068.4958074676504 695.5752642874379 L 1068.733170328912 695.5647811868627 L 1068.9707532171556 695.5553716027493 L 1069.208532374291 695.5470364760487 L 1069.4464840226003 695.5397766402663 L 1069.6845843671172 695.5335928213796 L 1069.9228095980052 695.5284856377656 L 1070.1611358929401 695.5244556001381 L 1070.3995394194912 695.5215031114977 L 1070.637996337504 695.5196284670909 L 1070.876482801486 695.5188318543803 L 1071.114974962989 695.5191133530267 L 1071.353448972996 695.5204729348804 L 1071.5918809843042 695.5229104639843 L 1071.8302471539116 695.5264256965877 L 1072.0685236454 695.5310182811702 L 1072.3066866313184 695.536687758477 L 1072.544712295567 695.5434335615653 L 1072.7825768357775 695.5512550158602 L 1073.0202564656943 695.560151339223 L 1073.2577274175521 695.5701216420287 L 1073.4949659444542 695.5811649272554 L 1073.7319483227452 695.5932800905836 L 1073.9686508543848 695.6064659205072 L 1074.205049869317 695.620721098454 L 1074.4411217278375 695.6360441989185 L 1074.6768428229573 695.6524336896031 L 1074.912189582763 695.6698879315725 L 1075.1471384727747 695.6884051794169 L 1075.3816659982997 695.707983581427 L 1075.6157487067803 695.7286211797791 L 1075.849363190141 695.7503159107305 L 1076.0824860871282 695.7730656048259 L 1076.3150940856463 695.7968679871152 L 1076.5471639250893 695.8217206773799 L 1076.778672398667 695.8476211903716 L 1077.0095963557242 695.8745669360605 L 1077.2399127040585 695.9025552198949 L 1077.4695984122263 695.9315832430693 L 1077.6986305118487 695.9616481028057 L 1077.9269860999063 695.9927467926433 L 1078.154642341031 696.0248762027389 L 1078.3815764697877 696.0580331201784 L 1078.6077657929532 696.0922142292976 L 1078.8331876917832 696.127416112014 L 1079.0578196242764 696.1636352481687 L 1079.281639127426 696.2008680158784 L 1079.5046238194684 696.2391106918972 L 1079.7267514021205 696.2783594519894 L 1079.947999662809 696.3186103713118 L 1080.168346476892 696.3598594248059 L 1080.387769809872 696.4021024876008 L 1080.6062477195985 696.4453353354253 L 1080.8237583584623 696.4895536450308 L 1081.0402799755811 696.5347529946231 L 1081.2557909189736 696.5809288643048 L 1081.4702696377249 696.6280766365277 L 1081.6836946841418 696.6761915965536 L 1081.8960447158977 696.7252689329267 L 1082.1072984981663 696.7753037379543 L 1082.3174349057456 696.8262910081976 L 1082.5264329251697 696.878225644972 L 1082.7342716568107 696.931102454857 L 1082.9409303169691 696.9849161502158 L 1083.1463882399507 697.0396613497238 L 1083.3506248801348 697.0953325789064 L 1083.5536198140271 697.1519242706875 L 1083.7553527423038 697.2094307659446 L 1083.9558034918398 697.2678463140763 L 1084.1549520177275 697.3271650735767 L 1084.35277840528 697.3873811126189 L 1084.5492628720237 697.4484884096494 L 1084.7443857696753 697.5104808539893 L 1084.938127586108 697.573352246446 L 1085.1304689473016 697.6370962999324 L 1085.32139061928 697.7017066400965 L 1085.5108735100353 697.767176805958 L 1085.6988986714362 697.833500250555 L 1085.8854473011231 697.900670341598 L 1086.070500744389 697.9686803621343 L 1086.2540404960432 698.0375235112182 L 1086.436048202264 698.1071929045922 L 1086.6165056624318 698.1776815753752 L 1086.7953948309516 698.2489824747588 L 1086.9726978190556 698.3210884727123 L 1087.1483968965922 698.3939923586962 L 1087.3224744938007 698.4676868423826 L 1087.4949132030658 698.5421645543844 L 1087.6656957806608 698.6174180469926 L 1087.8348051484702 698.6934397949207 L 1088.0022243956978 698.7702221960571 L 1088.1679367805586 698.8477575722259 L 1088.3319257319524 698.9260381699539 L 1088.4941748511203 699.0050561612467 L 1088.654667913286 699.0848036443707 L 1088.8133888692767 699.1652726446445 L 1088.9703218471293 699.2464551152349 L 1089.1254511536767 699.3283429379624 L 1089.2787612761174 699.4109279241131 L 1089.4302368835672 699.4942018152572 L 1089.5798628285913 699.5781562840749 L 1089.7276241487202 699.6627829351894 L 1089.8735060679446 699.7480733060061 L 1090.0174939981946 699.8340188675588 L 1090.1595735407968 699.9206110253632 L 1090.2997304879154 700.0078411202755 L 1090.4379508239726 700.0957004293591 L 1090.57422072705 700.1841801667562 L 1090.7085265702708 700.2732714845667 L 1090.8408549231626 700.3629654737332 L 1090.9711925530003 700.4532531649314 L 1091.0995264261296 700.5441255294676 L 1091.2258437092703 700.6355734801809 L 1091.350131770799 700.7275878723526 L 1091.4723781820135 700.8201595046199 L 1091.5925707183742 700.9132791198971 L 1091.7106973607276 701.0069374062999 L 1091.8267462965084 701.1011249980779 L 1091.9407059209193 701.1958324765503 L 1092.0525648380928 701.2910503710484 L 1092.1623118622308 701.3867691598618 L 1092.2699360187219 701.4829792711917 L 1092.3754265452403 701.5796710841068 L 1092.4787728928216 701.6768349295066 L 1092.5799647269164 701.7744610910876 L 1092.6789919284263 701.8725398063148 L 1092.7758445947134 701.9710612673985 L 1092.8705130405917 702.0700156222746 L 1092.9629877992957 702.1693929755902 L 1093.0532596234264 702.2691833896928 L 1093.1413194858767 702.3693768856241 L 1093.2271585807339 702.469963444118 L 1093.3107683241597 702.5709330066023 L 1093.3921403552497 702.6722754762053 L 1093.4712665368686 702.773980718764 L 1093.548138956464 702.8760385638393 L 1093.6227499268582 702.9784388057316 L 1093.6950919870162 703.081171204502 L 1093.7651579027925 703.1842254869963 L 1093.8329406676535 703.287591347872 L 1093.8984335033795 703.3912584506293 L 1093.9616298607414 703.4952164286442 L 1094.022523420156 703.5994548862056 L 1094.0811080923186 703.7039633995547 L 1094.13737801881 703.8087315179271 L 1094.1913275726854 703.9137487645983 L 1094.2429513590334 704.0190046379312 L 1094.2922442155193 704.124488612426 L 1094.3392012128977 704.2301901397735 L 1094.3838176555087 704.3360986499088 L 1094.4260890817447 704.442203552069 L 1094.4660112644985 704.5484942358528 L 1094.5035802115851 704.6549600722799 L 1094.5387921661413 704.7615904148556 L 1094.5716436070006 704.8683746006345 L 1094.6021312490464 704.975301951287 L 1094.6302520435402 705.082361774167 L 1094.6560031784256 705.1895433633817 L 1094.6793820786106 705.2968360008613 L 1094.700386406225 705.4042289574314 L 1094.7190140608532 705.5117114938861 L 1094.7352631797455 705.6192728620612 L 1094.7491321380035 705.7269023059093 L 1094.7606195487426 705.834589062576 L 1094.7697242632319 705.9423223634753 L 1094.776445371007 706.0500914353668 L 1094.7807821999631 706.1578855014332 L 1094.7827343164206 706.2656937823576 M 1094.7828553064767 740.6039621969181 L 1094.781662846573 740.7117727418348 L 1094.778085586107 740.8195725057867 L 1094.7721238828015 740.9273507088875 L 1094.7637783328223 741.0350965734066 L 1094.753049770717 741.1427993248473 L 1094.7399392693333 741.2504481930241 L 1094.72444813971 741.3580324131402 L 1094.7065779309473 741.465541226863 L 1094.6863304300514 741.5729638834008 L 1094.663707661755 741.6802896405775 L 1094.6387118883167 741.7875077659066 L 1094.6113456092928 741.8946075376653 L 1094.5816115612881 742.0015782459653 L 1094.549512717683 742.1084091938252 L 1094.5150522883348 742.215089698239 L 1094.478233719258 742.3216090912454 L 1094.4390606922789 742.4279567209935 L 1094.397537124667 742.5341219528094 L 1094.353667168745 742.6400941702581 L 1094.3074552114717 742.7458627762062 L 1094.2589058740043 742.8514171938814 L 1094.2080240112364 742.9567468679296 L 1094.1548147113112 743.0618412654715 L 1094.0992832951151 743.1666898771547 L 1094.0414353157432 743.2712822182056 L 1093.981276557945 743.375607829477 L 1093.9188130375462 743.4796562784948 L 1093.8540510008472 743.5834171605009 L 1093.786996923997 743.6868800994936 L 1093.717657512348 743.790034749265 L 1093.6460396997836 743.8928707944362 L 1093.572150648025 743.9953779514885 L 1093.4959977459157 744.0975459697916 L 1093.417588608683 744.1993646326285 L 1093.336931077175 744.3008237582181 L 1093.2540332170774 744.4019132007322 L 1093.1689033181076 744.502622851311 L 1093.0815498931843 744.6029426390731 L 1092.991981677577 744.7028625321236 L 1092.9002076280328 744.8023725385563 L 1092.8062369218806 744.9014627074534 L 1092.710078956112 745.0001231298808 L 1092.6117433464437 745.0983439398782 L 1092.511239926355 745.1961153154467 L 1092.4085787461038 745.2934274795301 L 1092.3037700717227 745.3902707009931 L 1092.196824383992 745.4866352955944 L 1092.087752377391 745.5825116269547 L 1091.9765649590297 745.6778901075206 L 1091.8632732475571 745.7727611995239 L 1091.7478885720502 745.8671154159341 L 1091.6304224708801 745.9609433214084 L 1091.5108866905593 746.0542355332344 L 1091.389293184566 746.1469827222686 L 1091.2656541121496 746.2391756138695 L 1091.1399818371142 746.3308049888246 L 1091.0122889265826 746.4218616842729 L 1090.8825881497398 746.5123365946208 L 1090.7508924765548 746.6022206724525 L 1090.6172150764855 746.6915049294352 L 1090.4815693171606 746.7801804372175 L 1090.3439687630428 746.8682383283226 L 1090.2044271740729 746.9556697970348 L 1090.0629585042936 747.0424661002802 L 1089.9195769004539 747.1286185585005 L 1089.7742967005945 747.2141185565218 L 1089.6271324326149 747.2989575444158 L 1089.4780988128186 747.383127038354 L 1089.3272107444438 747.4666186214574 L 1089.1744833161715 747.5494239446373 L 1089.019931800617 747.6315347274301 L 1088.8635716528036 747.7129427588263 L 1088.7054185086154 747.7936398980904 L 1088.5454881832352 747.8736180755758 L 1088.383796669562 747.9528692935312 L 1088.2203601366125 748.0313856269012 L 1088.055194927904 748.1091592241175 L 1087.8883175598198 748.1861823078856 L 1087.7197447199574 748.262447175961 L 1087.5494932654601 748.3379462019205 L 1087.377580221332 748.4126718359246 L 1087.204022778734 748.4866166054719 L 1087.0288382932656 748.5597731161473 L 1086.8520442832296 748.6321340523605 L 1086.6736584278794 748.7036921780783 L 1086.4936985656523 748.7744403375478 L 1086.312182692384 748.8443714560119 L 1086.1291289595113 748.9134785404171 L 1085.9445556722542 748.9817546801125 L 1085.758481287788 749.049193047541 L 1085.5709244133961 749.1157868989222 L 1085.3819038046095 749.1815295749263 L 1085.1914383633316 749.2464145013406 L 1084.9995471359478 749.3104351897265 L 1084.806249311421 749.3735852380685 L 1084.6115642193724 749.4358583314142 L 1084.4155113281493 749.4972482425065 L 1084.2181102428772 749.5577488324053 L 1084.0193807035 749.617354051102 L 1083.8193425828063 749.6760579381244 L 1083.6180158844413 749.7338546231326 L 1083.4154207409072 749.7907383265066 L 1083.2115774115496 749.8467033599231 L 1083.006506280531 749.9017441269257 L 1082.8002278547945 749.9558551234834 L 1082.5927627620101 750.0090309385416 L 1082.3841317485144 750.0612662545632 L 1082.1743556772349 750.1125558480601 L 1081.9634555256039 750.1628945901157 L 1081.751452383461 750.2122774468976 L 1081.5383674509433 750.2606994801615 L 1081.3242220363668 750.3081558477444 L 1081.1090375540946 750.3546418040489 L 1080.8928355223954 750.4001527005183 L 1080.6756375612922 750.4446839861008 L 1080.4574653904 750.488231207705 L 1080.2383408267547 750.5307900106449 L 1080.0182857826294 750.5723561390757 L 1079.7973222633452 750.6129254364195 L 1079.5754723650703 750.6524938457799 L 1079.3527582726092 750.6910574103492 L 1079.1292022571859 750.728612273803 L 1078.9048266742152 750.7651546806865 L 1078.6796539610689 750.8006809767891 L 1078.4537066348305 750.8351876095109 L 1078.2270072900444 750.8686711282176 L 1077.9995785964559 750.9011281845849 L 1077.7714432967452 750.9325555329344 L 1077.5426242042518 750.9629500305575 L 1077.3131442006945 750.9923086380296 L 1077.0830262338825 751.0206284195147 L 1076.8522933154204 751.0479065430578 L 1076.620968518408 751.0741402808698 L 1076.3890749751322 751.0993270095984 L 1076.156635874754 751.1234642105918 L 1075.92367446099 751.1465494701501 L 1075.690214029787 751.1685804797665 L 1075.456277926994 751.1895550363586 L 1075.2218895460262 751.209471042488 L 1074.9870723255262 751.2283265065706 L 1074.7518497470205 751.2461195430759 L 1074.5162453325709 751.2628483727151 L 1074.2802826424227 751.278511322619 L 1074.043985272648 751.2931068265058 L 1073.8073768527868 751.3066334248372 L 1073.5704810434843 751.3190897649647 L 1073.3333215341238 751.3304746012647 L 1073.0959220404586 751.3407867952628 L 1072.8583063022402 751.3500253157486 L 1072.6204980808445 751.3581892388775 L 1072.3825211568956 751.3652777482639 L 1072.1443993278872 751.371290135063 L 1071.9061564058038 751.376225798041 L 1071.6678162147396 751.3800842436358 L 1071.4294025885144 751.382865086006 L 1071.190939368293 751.3845680470696 L 1070.9524504001977 751.385192956532 L 1070.7139595329272 751.3847397519028 L 1070.4754906153694 751.3832084785021 L 1070.2370674942172 751.3805992894559 L 1069.998714011584 751.3769124456808 L 1069.7604540026198 751.3721483158585 L 1069.5223112931264 751.3663073763976 L 1069.2843096971767 751.3593902113873 L 1069.0464730147319 751.3513975125385 L 1068.808825029262 751.3423300791143 L 1068.5713895053675 751.3321888178504 L 1068.3341901864028 751.3209747428646 L 1068.0972507921024 751.308688975555 L 1067.860595016208 751.2953327444882 L 1067.6242465241003 751.280907385276 L 1067.3882289504313 751.2654143404425 L 1067.1525658967616 751.2488551592791 L 1066.9172809292006 751.2312314976901 L 1066.6823975760485 751.2125451180272 L 1066.4479393254453 751.1927978889124 L 1066.2139296230202 751.1719917850527 L 1065.980391869549 751.1501288870406 L 1065.747349418612 751.1272113811481 L 1065.5148255742604 751.1032415591064 L 1065.2828435886845 751.078221817878 L 1065.0514266598898 751.0521546594159 L 1064.8205979293764 751.0250426904144 L 1064.5903804798247 750.9968886220478 L 1064.3607973327883 750.9676952696993 L 1064.13187144639 750.93746555268 L 1063.903625713028 750.9062024939363 L 1063.6760829570853 750.8739092197483 L 1063.4492659326481 750.840588959416 L 1063.2231973212295 750.8062450449381 L 1062.9978997295025 750.7708809106772 L 1062.7733956870386 750.7345000930173 L 1062.5497076440547 750.69710623001 L 1062.3268579691687 750.6587030610102 L 1062.1048689471627 750.619294426303 L 1061.8837627767534 750.5788842667189 L 1061.6635615683742 750.5374766232402 L 1061.4442873419619 750.4950756365968 L 1061.2259620247567 750.451685546852 L 1061.0086074491085 750.4073106929786 L 1060.7922453502933 750.3619555124251 L 1060.576897364341 750.3156245406716 L 1060.3625850258707 750.2683224107767 L 1060.1493297659376 750.2200538529141 L 1059.93715290989 750.1708236938994 L 1059.7260756752369 750.1206368567072 L 1059.5161191695256 750.0694983599795 L 1059.3073043882316 750.0174133175235 L 1059.0996522126593 749.9643869378 L 1058.893183407853 749.9104245234028 L 1058.6879186205215 749.8555314705281 L 1058.483878376972 749.7997132684358 L 1058.281083081059 749.7429754988995 L 1058.0795530121434 749.6853238356487 L 1057.8793083230635 749.6267640438018 L 1057.680369038122 749.5673019792893 L 1057.4827550510813 749.5069435882679 L 1057.2864861231753 749.4456949065265 L 1057.0915818811336 749.3835620588821 L 1056.8980618152175 749.320551258568 L 1056.7059452772728 749.2566688066115 L 1056.515251478793 749.1919210912046 L 1056.325999488999 749.1263145870648 L 1056.1382082329321 749.059855854788 L 1055.9518964895615 748.9925515401919 L 1055.767082889906 748.924408373652 L 1055.583785915172 748.8554331694281 L 1055.4020238949038 748.7856328249832 L 1055.2218150051522 748.7150143202934 L 1055.043177266656 748.6435847171506 L 1054.86612854304 748.5713511584553 L 1054.6906865390292 748.4983208675034 L 1054.5168687986777 748.4245011472631 L 1054.3446927036148 748.3498993796447 L 1054.1741754713066 748.2745230247631 L 1054.005334153334 748.1983796201907 L 1053.838185633688 748.1214767802047 L 1053.6727466270816 748.043822195025 L 1053.5090336772776 747.9654236300453 L 1053.3470631554342 747.8862889250569 L 1053.1868512584688 747.8064259934641 L 1053.0284140074377 747.7258428214938 L 1052.871767245934 747.6445474673959 L 1052.716926638503 747.562548060638 L 1052.5639076690768 747.4798528010926 L 1052.4127256394245 747.3964699582168 L 1052.2633956676232 747.3124078702251 L 1052.1159326865456 747.2276749432565 L 1051.9703514423672 747.142279650533 L 1051.8266664930907 747.0562305315127 L 1051.6848922070915 746.9695361910359 L 1051.54504276168 746.8822052984642 L 1051.4071321416843 746.7942465868142 L 1051.2711741380513 746.7056688518838 L 1051.1371823464683 746.6164809513726 L 1051.0051701660025 746.5266918039965 L 1050.8751507977622 746.4363103885952 L 1050.7471372435757 746.3453457432349 L 1050.6211423046918 746.2538069643047 L 1050.4971785804994 746.1617032056057 L 1050.3752584672677 746.0690436774373 L 1050.2553941569063 745.9758376456751 L 1050.1375976357463 745.8820944308446 L 1050.0218806833418 745.7878234071892 L 1049.9082548712918 745.6930340017326 L 1049.7967315620822 745.5977356933363 L 1049.6873219079516 745.5019380117519 L 1049.580036849774 745.4056505366677 L 1049.4748871159657 745.3088828967509 L 1049.3718832214126 745.2116447686848 L 1049.2710354664184 745.1139458762012 L 1049.1723539356742 745.0157959891081 L 1049.0758484972514 744.9172049223123 L 1048.9815288016127 744.8181825348382 L 1048.8894042806498 744.7187387288423 L 1048.7994841467375 744.6188834486221 L 1048.7117773918146 744.5186266796225 L 1048.6262927864834 744.4179784474368 L 1048.543038879133 744.3169488168044 L 1048.4620239950852 744.2155478906042 L 1048.3832562357604 744.1137858088441 L 1048.306743477869 744.0116727476478 L 1048.2324933726234 743.9092189182362 L 1048.1605133449716 743.8064345659068 L 1048.090810592857 743.7033299690092 L 1048.0233920864964 743.5999154379173 L 1047.9582645676844 743.4962013139977 L 1047.8954345491186 743.3921979685769 L 1047.8349083137484 743.2879158019022 L 1047.776691914147 743.1833652421037 L 1047.7207911719056 743.0785567441502 L 1047.6672116770521 742.973500788804 L 1047.6159587874915 742.8682078815734 L 1047.5670376284695 742.7626885516611 L 1047.5204530920619 742.6569533509123 L 1047.4762098366828 742.5510128527588 L 1047.4343122866214 742.4448776511624 L 1047.3947646315976 742.3385583595547 L 1047.357570826344 742.2320656097761 L 1047.32273459021 742.125410051013 L 1047.2902594067905 742.0186023487324 L 1047.2601485235764 741.9116531836155 L 1047.2324049516312 741.8045732504896 L 1047.2070314652888 741.6973732572588 L 1047.1840306018769 741.5900639238332 L 1047.1634046614624 741.4826559810567 L 1047.1451557066223 741.375160169634 L 1047.1292855622369 741.2675872390568 L 1047.1157958153074 741.1599479465282 L 1047.1046878147972 741.0522530558881 L 1047.095962671497 740.9445133365356 L 1047.0896212579141 740.8367395623529 L 1047.0856642081844 740.7289425106277 L 1047.0840919180098 740.6211329609753" stroke-miterlimit="10" stroke-width="2.7769845610000004" stroke-dasharray=""/></g><g><g/><text fill="black" stroke="none" font-family="sans-serif" font-size="11pt" font-style="normal" font-weight="normal" text-decoration="normal" x="1039.5555135421876" y="689.0337253788182" text-anchor="start" dominant-baseline="alphabetic" xml:space="preserve">Database</text></g></g><g><path fill="white" stroke="black" paint-order="fill stroke markers" d=" M 73.50841485 136.90385383881818 L 89.84361814999998 136.90385383881818 L 89.84361814999998 615.5253105288182 L 73.50841485 615.5253105288182 L 73.50841485 136.90385383881818" stroke-miterlimit="10" stroke-width="1.3612669416666667" stroke-dasharray=""/><path fill="white" stroke="black" paint-order="fill stroke markers" d=" M 359.1664283497396 136.90385383881818 L 375.5016316497396 136.90385383881818 L 375.5016316497396 615.5253105288182 L 359.1664283497396 615.5253105288182 L 359.1664283497396 136.90385383881818" stroke-miterlimit="10" stroke-width="1.3612669416666667" stroke-dasharray=""/><path fill="white" stroke="black" paint-order="fill stroke markers" d=" M 736.1057223670573 182.64242307881818 L 752.4409256670574 182.64242307881818 L 752.4409256670574 545.2839363388182 L 736.1057223670573 545.2839363388182 L 736.1057223670573 182.64242307881818" stroke-miterlimit="10" stroke-width="1.3612669416666667" stroke-dasharray=""/><path fill="white" stroke="black" paint-order="fill stroke markers" d=" M 1062.7658568384766 228.3809923188182 L 1079.1010601384767 228.3809923188182 L 1079.1010601384767 319.8581307988182 L 1062.7658568384766 319.8581307988182 L 1062.7658568384766 228.3809923188182" stroke-miterlimit="10" stroke-width="1.3612669416666667" stroke-dasharray=""/><g><text fill="black" stroke="none" font-family="sans-serif" font-size="16pt" font-style="normal" font-weight="normal" text-decoration="normal" x="483.7560729980469" y="24.651306798181814" text-anchor="start" dominant-baseline="alphabetic" xml:space="preserve">Danhschnh</text></g><g><rect fill="white" stroke="none" x="121.8042315854362" y="161.4066587888182" width="205.4015833288672" height="21.23576429"/><text fill="black" stroke="none" font-family="sans-serif" font-size="11pt" font-style="normal" font-weight="normal" text-decoration="normal" x="124.2545120804362" y="176.10834175881817" text-anchor="start" dominant-baseline="alphabetic" xml:space="preserve">Chnmnhnhdanhschnh</text></g><g><path fill="none" stroke="black" paint-order="fill stroke markers" d=" M 89.84361814999998 182.64242307881818 L 345.71711096607294 182.64242307881818" stroke-miterlimit="10" stroke-width="1.3612669416666667" stroke-dasharray=""/><g transform="translate(359.1664283497396,182.64242307881818) translate(-359.1664283497396,-182.64242307881818)"><path fill="black" stroke="none" paint-order="stroke fill markers" d=" M 345.5537589330729 175.83608837048484 L 359.1664283497396 182.64242307881818 L 345.5537589330729 189.44875778715152 Z"/></g></g><g><rect fill="white" stroke="none" x="394.8316222214062" y="207.1452280288182" width="321.9440790564062" height="21.23576429"/><text fill="black" stroke="none" font-family="sans-serif" font-size="11pt" font-style="normal" font-weight="normal" text-decoration="normal" x="397.2819027164062" y="221.84691099881817" text-anchor="start" dominant-baseline="alphabetic" xml:space="preserve">Giyuculydanhschnh(baogmblc)</text></g><g><path fill="none" stroke="black" paint-order="fill stroke markers" d=" M 375.5016316497396 228.3809923188182 L 722.6564049833906 228.3809923188182" stroke-miterlimit="10" stroke-width="1.3612669416666667" stroke-dasharray=""/><g transform="translate(736.1057223670573,228.3809923188182) translate(-736.1057223670573,-228.3809923188182)"><path fill="black" stroke="none" paint-order="stroke fill markers" d=" M 722.4930529503906 221.57465761048485 L 736.1057223670573 228.3809923188182 L 722.4930529503906 235.18732702715153 Z"/></g></g><g><rect fill="white" stroke="none" x="771.770916238724" y="252.88379726881823" width="271.664965286875" height="21.23576429"/><text fill="black" stroke="none" font-family="sans-serif" font-size="11pt" font-style="normal" font-weight="normal" text-decoration="normal" x="774.221196733724" y="267.5854802388182" text-anchor="start" dominant-baseline="alphabetic" xml:space="preserve">Truyvndanhschnh(pdngblc)</text></g><g><path fill="none" stroke="black" paint-order="fill stroke markers" d=" M 752.4409256670574 274.1195615588182 L 1049.3165394548098 274.1195615588182" stroke-miterlimit="10" stroke-width="1.3612669416666667" stroke-dasharray=""/><g transform="translate(1062.7658568384766,274.1195615588182) translate(-1062.7658568384766,-274.1195615588182)"><path fill="black" stroke="none" paint-order="stroke fill markers" d=" M 1049.15318742181 267.31322685048485 L 1062.7658568384766 274.1195615588182 L 1049.15318742181 280.92589626715153 Z"/></g></g><g><rect fill="white" stroke="none" x="812.9269449862826" y="298.6223665088182" width="189.35289253296875" height="21.23576429"/><text fill="black" stroke="none" font-family="sans-serif" font-size="11pt" font-style="normal" font-weight="normal" text-decoration="normal" x="815.3772254812826" y="313.32404947881815" text-anchor="start" dominant-baseline="alphabetic" xml:space="preserve">Trvdanhschnhlc</text></g><g><path fill="none" stroke="black" paint-order="fill stroke markers" d=" M 1062.7658568384766 319.8581307988182 L 765.890243050724 319.8581307988182" stroke-miterlimit="10" stroke-width="1.3612669416666667" stroke-dasharray="6.53408132"/><g transform="translate(752.4409256670574,319.8581307988182) translate(-752.4409256670574,-319.8581307988182)"><path fill="black" stroke="none" paint-order="stroke fill markers" d=" M 766.0535950837241 313.05179609048486 L 752.4409256670574 319.8581307988182 L 766.0535950837241 326.66446550715153 Z"/></g></g><g><rect fill="white" stroke="none" x="469.39136038058587" y="388.4659846588182" width="172.824633255625" height="21.23576429"/><text fill="black" stroke="none" font-family="sans-serif" font-size="11pt" font-style="normal" font-weight="normal" text-decoration="normal" x="471.8416408755859" y="403.16766762881815" text-anchor="start" dominant-baseline="alphabetic" xml:space="preserve">Gidanhschnhlc</text></g><g><path fill="none" stroke="black" paint-order="fill stroke markers" d=" M 736.1057223670573 409.7017489488182 L 388.95094903340623 409.7017489488182" stroke-miterlimit="10" stroke-width="1.3612669416666667" stroke-dasharray="6.53408132"/><g transform="translate(375.5016316497396,409.7017489488182) translate(-375.5016316497396,-409.7017489488182)"><path fill="black" stroke="none" paint-order="stroke fill markers" d=" M 389.11430106640626 402.89541424048485 L 375.5016316497396 409.7017489488182 L 389.11430106640626 416.50808365715153 Z"/></g></g><g><rect fill="white" stroke="none" x="109.17360872166667" y="434.2045538988182" width="230.66282905640625" height="21.23576429"/><text fill="black" stroke="none" font-family="sans-serif" font-size="11pt" font-style="normal" font-weight="normal" text-decoration="normal" x="111.62388921666667" y="448.90623686881816" text-anchor="start" dominant-baseline="alphabetic" xml:space="preserve">Hinthdanhschnhtheoblc</text></g><g><path fill="none" stroke="black" paint-order="fill stroke markers" d=" M 359.1664283497396 455.4403181888182 L 103.29293553366665 455.4403181888182" stroke-miterlimit="10" stroke-width="1.3612669416666667" stroke-dasharray="6.53408132"/><g transform="translate(89.84361814999998,455.4403181888182) translate(-89.84361814999998,-455.4403181888182)"><path fill="black" stroke="none" paint-order="stroke fill markers" d=" M 103.45628756666665 448.63398348048486 L 89.84361814999998 455.4403181888182 L 103.45628756666665 462.24665289715153 Z"/></g></g><g><rect fill="white" stroke="none" x="453.90102682345696" y="524.0481720488182" width="203.80530036988281" height="21.23576429"/><text fill="black" stroke="none" font-family="sans-serif" font-size="11pt" font-style="normal" font-weight="normal" text-decoration="normal" x="456.351307318457" y="538.7498550188182" text-anchor="start" dominant-baseline="alphabetic" xml:space="preserve">Githngbodanhschrng</text></g><g><path fill="none" stroke="black" paint-order="fill stroke markers" d=" M 736.1057223670573 545.2839363388182 L 388.95094903340623 545.2839363388182" stroke-miterlimit="10" stroke-width="1.3612669416666667" stroke-dasharray="6.53408132"/><g transform="translate(375.5016316497396,545.2839363388182) translate(-375.5016316497396,-545.2839363388182)"><path fill="black" stroke="none" paint-order="stroke fill markers" d=" M 389.11430106640626 538.4776016304849 L 375.5016316497396 545.2839363388182 L 389.11430106640626 552.0902710471515 Z"/></g></g><g><rect fill="white" stroke="none" x="160.11489290135418" y="569.7867412888181" width="128.78026069703125" height="21.23576429"/><text fill="black" stroke="none" font-family="sans-serif" font-size="11pt" font-style="normal" font-weight="normal" text-decoration="normal" x="162.56517339635417" y="584.4884242588181" text-anchor="start" dominant-baseline="alphabetic" xml:space="preserve">Hinthbngtrng</text></g><g><path fill="none" stroke="black" paint-order="fill stroke markers" d=" M 359.1664283497396 591.0225055788181 L 103.29293553366665 591.0225055788181" stroke-miterlimit="10" stroke-width="1.3612669416666667" stroke-dasharray="6.53408132"/><g transform="translate(89.84361814999998,591.0225055788181) translate(-89.84361814999998,-591.0225055788181)"><path fill="black" stroke="none" paint-order="stroke fill markers" d=" M 103.45628756666665 584.2161708704848 L 89.84361814999998 591.0225055788181 L 103.45628756666665 597.8288402871515 Z"/></g></g><g><g/><path fill="none" stroke="black" paint-order="fill stroke markers" d=" M 16.33520329999999 344.3609357488182 L 801.4465355670574 344.3609357488182 L 801.4465355670574 615.5253105288182 L 16.33520329999999 615.5253105288182 L 16.33520329999999 344.3609357488182 Z" stroke-miterlimit="10" stroke-width="2.3336004714285714" stroke-dasharray=""/><path fill="white" stroke="black" paint-order="fill stroke markers" d=" M 16.33520329999999 344.3609357488182 L 16.33520329999999 363.9631797088182 L 62.6944068970703 363.9631797088182 L 72.4955288770703 354.1620577288182 L 72.4955288770703 344.3609357488182 L 16.33520329999999 344.3609357488182" stroke-miterlimit="10" stroke-width="2.3336004714285714" stroke-dasharray=""/><text fill="black" stroke="none" font-family="sans-serif" font-size="8.8pt" font-style="normal" font-weight="bold" text-decoration="normal" x="32.67040659999999" y="357.4290983888182" text-anchor="start" dominant-baseline="alphabetic" xml:space="preserve">alt</text><g><rect fill="white" stroke="none" x="86.3804516820703" y="345.6677520128182" width="70.73279060425781" height="16.988611432000003"/></g><text fill="black" stroke="none" font-family="sans-serif" font-size="8.8pt" font-style="normal" font-weight="bold" text-decoration="normal" x="88.8307321770703" y="357.4290983888182" text-anchor="start" dominant-baseline="alphabetic" xml:space="preserve">[Cdliu]</text><g><path fill="none" stroke="black" paint-order="fill stroke markers" d=" M 16.33520329999999 479.9431231388182 L 801.4465355670574 479.9431231388182" stroke-miterlimit="10" stroke-width="2.3336004714285714" stroke-dasharray="4.083800825"/></g><g/><g><rect fill="white" stroke="none" x="86.3804516820703" y="481.2499394028182" width="109.17599739136719" height="16.988611432000003"/></g><text fill="black" stroke="none" font-family="sans-serif" font-size="8.8pt" font-style="normal" font-weight="bold" text-decoration="normal" x="88.8307321770703" y="493.0112857788182" text-anchor="start" dominant-baseline="alphabetic" xml:space="preserve">[Khngcdliu]</text></g><g/></g><g/><g/><g/><g/></g></svg>