<svg xmlns="http://www.w3.org/2000/svg" xmlns:xlink="http://www.w3.org/1999/xlink" version="1.1" width="1182.1276628723306" height="1005.1199092338179"><desc>title%20Nh%E1%BA%ADn%20th%C3%B4ng%20b%C3%A1o%0A%0Abottomparticipants%0A%0Aactor%20Renter%0Aactor%20Landlord%0Aentity%20Client%0Aentity%20Backend%0Adatabase%20Database%0A%0Anote%20over%20Renter%2CLandlord%3A%20Ng%C6%B0%E1%BB%9Di%20d%C3%B9ng%20t%E1%BA%A1o%20h%C3%A0nh%20%C4%91%E1%BB%99ng%20g%C3%A2y%20ra%20th%C3%B4ng%20b%C3%A1o%0A%0ARenter-%3EClient%3A%20Truy%20c%E1%BA%ADp%20trang%20t%E1%BA%A1o%20v%E1%BA%A5n%20%C4%91%E1%BB%81%0A%0Aactivate%20Renter%0Aactivate%20Client%0A%0AClient-%3ERenter%3A%20Hi%E1%BB%83n%20th%E1%BB%8B%20form%20nh%E1%BA%ADp%20v%E1%BA%A5n%20%C4%91%E1%BB%81%0A%0ARenter-%3EClient%3A%20Nh%E1%BA%ADp%20th%C3%B4ng%20tin%0A%0AClient-%3EClient%3A%20Validate%20th%C3%B4ng%20tin%0A%0Aalt%20Th%C3%B4ng%20tin%20kh%C3%B4ng%20ch%C3%ADnh%20x%C3%A1c%0A%0A%20%20Client-%3ERenter%3ATh%C3%B4ng%20b%C3%A1o%20l%E1%BB%97i%0A%0Aelse%20Th%C3%B4ng%20tin%20ch%C3%ADnh%20x%C3%A1c%0A%20Client-%3EBackend%3A%20G%E1%BB%ADi%20th%C3%B4ng%20tin%0A%20%0A%20activate%20Backend%0A%20%0A%20Backend-%3EDatabase%3A%20G%E1%BB%ADi%20th%C3%B4ng%20tin%0A%20%0A%20activate%20Database%0A%20%0A%20Database-%3EDatabase%3A%20L%C6%B0u%20th%C3%B4ng%20tin%0A%20%0A%20Database--%3EBackend%3A%20Th%C3%B4ng%20b%C3%A1o%20%C4%91%C3%A3%20%C4%91%C6%B0%E1%BB%A3c%20l%C6%B0u%0A%20%0A%20deactivate%20Database%0A%20%0A%20Backend-%3EClient%3A%20G%E1%BB%ADi%20th%C3%B4ng%20b%C3%A1o%20qua%20Firebase%0A%20%0A%20deactivate%20Backend%0A%20%0A%20Client-%3ELandlord%3A%20Hi%E1%BB%83n%20th%E1%BB%8B%20th%C3%B4ng%20b%C3%A1o%0A%20%0A%20activate%20Landlord%0A%20%0A%20deactivate%20Client%0Aend%0A%0Adeactivate%20Landlord</desc><defs/><g><g/><g/><g/><g/><g/><g/><g/><g/><g/><g/><g/><g/><g/><g/><g/><g/><g/><g/><g/><g/><g/><g/><g/><g/><g/><g/><g/><g/><g/><g/><g/><g/><g/><g/><g/><g/><g/><g/><g/><g/><g/><g/><g/><g/><g/><g/><g/><g/><g/><g/><g/><g/><g/><g/><g/><g/><g/><g/><g/><g/><g/><g/><g/><g/><g/><g/><g/><g/><g/><g/><g/><g/><g/><g/><g/><g/><g/><g/><g/><g/><g/><g/><g/><g/><g/><g/><g/><g/><g/><g/><g/><g/><g/><g/><g/><g/><g/><g/><g/><g/><g/><g/><g/><g/><g/><g/><g/><g/><g/><g/><g/><g/><g><rect fill="white" stroke="none" x="0" y="0" width="1182" height="1005"/></g><g/><g><path fill="none" stroke="black" paint-order="fill stroke markers" d=" M 81.67601649999999 128.73625218881818 L 81.67601649999999 914.4595309188179" stroke-miterlimit="10" stroke-width="1.3612669416666667" stroke-dasharray="12.565541,5.445067766666667"/><path fill="none" stroke="black" paint-order="fill stroke markers" d=" M 404.3893002972656 128.73625218881818 L 404.3893002972656 914.4595309188179" stroke-miterlimit="10" stroke-width="1.3612669416666667" stroke-dasharray="12.565541,5.445067766666667"/><path fill="none" stroke="black" paint-order="fill stroke markers" d=" M 583.282863723763 128.73625218881818 L 583.282863723763 914.4595309188179" stroke-miterlimit="10" stroke-width="1.3612669416666667" stroke-dasharray="12.565541,5.445067766666667"/><path fill="none" stroke="black" paint-order="fill stroke markers" d=" M 826.5858662371744 128.73625218881818 L 826.5858662371744 914.4595309188179" stroke-miterlimit="10" stroke-width="1.3612669416666667" stroke-dasharray="12.565541,5.445067766666667"/><path fill="none" stroke="black" paint-order="fill stroke markers" d=" M 1041.2417892828123 128.73625218881818 L 1041.2417892828123 914.4595309188179" stroke-miterlimit="10" stroke-width="1.3612669416666667" stroke-dasharray="12.565541,5.445067766666667"/></g><g><g><path fill="white" stroke="black" paint-order="fill stroke markers" d=" M 90.987082381 59.63834222981819 A 9.311065881 9.311065881 0 1 1 90.98707772546743 59.62903116548903 M 81.67601649999999 68.9494081108182 L 81.67601649999999 88.8783561368182 M 69.914670124 76.13689756281819 L 93.43736287599998 76.13689756281819 M 81.67601649999999 88.8783561368182 L 69.914670124 107.50048789881819 M 81.67601649999999 88.8783561368182 L 93.43736287599998 107.50048789881819" stroke-miterlimit="10" stroke-width="2.7769845610000004" stroke-dasharray=""/></g><g><g/><text fill="black" stroke="none" font-family="sans-serif" font-size="11pt" font-style="normal" font-weight="normal" text-decoration="normal" x="59.67530696630858" y="123.83569119881818" text-anchor="start" dominant-baseline="alphabetic" xml:space="preserve">Renter</text></g><g><path fill="white" stroke="black" paint-order="fill stroke markers" d=" M 413.7003661782656 59.63834222981819 A 9.311065881 9.311065881 0 1 1 413.70036152273303 59.62903116548903 M 404.3893002972656 68.9494081108182 L 404.3893002972656 88.8783561368182 M 392.6279539212656 76.13689756281819 L 416.1506466732656 76.13689756281819 M 404.3893002972656 88.8783561368182 L 392.6279539212656 107.50048789881819 M 404.3893002972656 88.8783561368182 L 416.1506466732656 107.50048789881819" stroke-miterlimit="10" stroke-width="2.7769845610000004" stroke-dasharray=""/></g><g><g/><text fill="black" stroke="none" font-family="sans-serif" font-size="11pt" font-style="normal" font-weight="normal" text-decoration="normal" x="375.8603238568359" y="123.83569119881818" text-anchor="start" dominant-baseline="alphabetic" xml:space="preserve">Landlord</text></g><g><path fill="white" stroke="black" paint-order="fill stroke markers" d=" M 607.5406406242629 79.63263106901819 A 24.2577769005 24.2577769005 0 1 1 607.5406284953755 79.60837329616064 M 557.636594542763 106.11199561831819 L 608.9291329047629 106.11199561831819" stroke-miterlimit="10" stroke-width="2.7769845610000004" stroke-dasharray=""/></g><g><g/><text fill="black" stroke="none" font-family="sans-serif" font-size="11pt" font-style="normal" font-weight="normal" text-decoration="normal" x="564.5427132721028" y="123.83569119881818" text-anchor="start" dominant-baseline="alphabetic" xml:space="preserve">Client</text></g><g><path fill="white" stroke="black" paint-order="fill stroke markers" d=" M 850.8436431376743 79.63263106901819 A 24.2577769005 24.2577769005 0 1 1 850.8436310087869 79.60837329616064 M 800.9395970561744 106.11199561831819 L 852.2321354181744 106.11199561831819" stroke-miterlimit="10" stroke-width="2.7769845610000004" stroke-dasharray=""/></g><g><g/><text fill="black" stroke="none" font-family="sans-serif" font-size="11pt" font-style="normal" font-weight="normal" text-decoration="normal" x="798.0604679827799" y="123.83569119881818" text-anchor="start" dominant-baseline="alphabetic" xml:space="preserve">Backend</text></g><g><path fill="white" stroke="black" paint-order="fill stroke markers" d=" M 1017.3923924648124 96.71925372081819 L 1017.3923924648124 62.41532679081819 L 1065.0911861008124 62.41532679081819 L 1065.0911861008124 96.71925372081819" stroke-miterlimit="10" stroke-width="2.7769845610000004" stroke-dasharray=""/><path fill="white" stroke="black" paint-order="fill stroke markers" d=" M 1065.0911861008124 61.22285694991819 L 1065.0899936409087 61.33066749483481 L 1065.0864163804426 61.43846725878678 L 1065.0804546771371 61.546245461887544 L 1065.072109127158 61.65399132640659 L 1065.0613805650528 61.761694077847274 L 1065.048270063669 61.86934294602419 L 1065.0327789340456 61.976927166140236 L 1065.014908725283 62.084435979863045 L 1064.994661224387 62.19185863640084 L 1064.9720384560908 62.299184393577484 L 1064.9470426826524 62.4064025189067 L 1064.9196764036285 62.51350229066531 L 1064.8899423556238 62.62047299896537 L 1064.8578435120187 62.7273039468252 L 1064.8233830826705 62.83398445123905 L 1064.7865645135937 62.94050384424536 L 1064.7473914866146 63.04685147399361 L 1064.7058679190027 63.15301670580944 L 1064.6619979630807 63.25898892325815 L 1064.6157860058074 63.364757529206294 L 1064.56723666834 63.47031194688142 L 1064.516354805572 63.575641620929716 L 1064.463145505647 63.68073601847156 L 1064.4076140894508 63.78558463015478 L 1064.349766110079 63.89017697120557 L 1064.2896073522807 63.994502582477 L 1064.227143831882 64.09855103149486 L 1064.162381795183 64.20231191350096 L 1064.0953277183328 64.3057748524936 L 1064.0259883066838 64.40892950226505 L 1063.9543704941193 64.51176554743633 L 1063.8804814423606 64.61427270448858 L 1063.8043285402514 64.71644072279157 L 1063.7259194030187 64.81825938562858 L 1063.6452618715107 64.91971851121816 L 1063.5623640114131 65.02080795373233 L 1063.4772341124433 65.12151760431107 L 1063.38988068752 65.22183739207324 L 1063.3003124719128 65.32175728512367 L 1063.2085384223685 65.42126729155632 L 1063.1145677162162 65.52035746045347 L 1063.0184097504477 65.6190178828808 L 1062.9200741407794 65.71723869287828 L 1062.8195707206908 65.81501006844678 L 1062.7169095404395 65.91232223253022 L 1062.6121008660584 66.00916545399325 L 1062.5051551783276 66.10553004859446 L 1062.3960831717268 66.20140637995469 L 1062.2848957533654 66.29678486052069 L 1062.1716040418928 66.39165595252388 L 1062.056219366386 66.48601016893414 L 1061.9387532652158 66.57983807440844 L 1061.819217484895 66.67313028623443 L 1061.6976239789017 66.76587747526865 L 1061.5739849064853 66.85807036686953 L 1061.4483126314499 66.94969974182469 L 1061.3206197209183 67.04075643727302 L 1061.1909189440755 67.13123134762085 L 1061.0592232708905 67.22111542545254 L 1060.9255458708212 67.3103996824352 L 1060.7899001114963 67.39907519021754 L 1060.6522995573785 67.4871330813227 L 1060.5127579684086 67.57456455003492 L 1060.3712892986293 67.6613608532802 L 1060.2279076947896 67.74751331150055 L 1060.0826274949302 67.83301330952195 L 1059.9354632269506 67.91785229741582 L 1059.7864296071543 68.00202179135408 L 1059.6355415387795 68.08551337445749 L 1059.4828141105072 68.1683186976373 L 1059.3282625949528 68.25042948043021 L 1059.1719024471392 68.33183751182635 L 1059.013749302951 68.41253465109044 L 1058.8538189775709 68.4925128285758 L 1058.6921274638976 68.5717640465313 L 1058.5286909309482 68.65028037990122 L 1058.3635257222397 68.72805397711764 L 1058.1966483541555 68.80507706088565 L 1058.028075514293 68.88134192896105 L 1057.8578240597958 68.95684095492061 L 1057.6859110156677 69.03156658892462 L 1057.5123535730697 69.10551135847197 L 1057.3371690876013 69.17866786914732 L 1057.1603750775653 69.25102880536058 L 1056.9819892222151 69.3225869310784 L 1056.802029359988 69.39333509054786 L 1056.6205134867198 69.46326620901198 L 1056.437459753847 69.53237329341717 L 1056.2528864665899 69.60064943311258 L 1056.0668120821238 69.66808780054113 L 1055.8792552077318 69.7346816519223 L 1055.6902345989452 69.80042432792644 L 1055.4997691576673 69.86530925434072 L 1055.3078779302834 69.92932994272657 L 1055.1145801057567 69.9924799910685 L 1054.9198950137081 70.05475308441433 L 1054.723842122485 70.1161429955066 L 1054.5264410372129 70.17664358540536 L 1054.3277114978357 70.23624880410202 L 1054.127673377142 70.29495269112441 L 1053.926346678777 70.35274937613272 L 1053.7237515352429 70.40963307950663 L 1053.5199082058853 70.46559811292322 L 1053.3148370748668 70.52063887992576 L 1053.1085586491301 70.57474987648341 L 1052.9010935563458 70.62792569154163 L 1052.69246254285 70.68016100756323 L 1052.4826864715706 70.73145060106012 L 1052.2717863199396 70.78178934311569 L 1052.0597831777966 70.8311721998977 L 1051.846698245279 70.8795942331616 L 1051.6325528307025 70.92705060074444 L 1051.4173683484303 70.973536557049 L 1051.2011663167311 71.01904745351838 L 1050.983968355628 71.06357873910088 L 1050.7657961847358 71.10712596070502 L 1050.5466716210904 71.14968476364494 L 1050.326616576965 71.19125089207583 L 1050.105653057681 71.23182018941947 L 1049.883803159406 71.27138859877994 L 1049.661089066945 71.30995216334925 L 1049.4375330515215 71.34750702680313 L 1049.213157468551 71.38404943368649 L 1048.9879847554046 71.4195757297891 L 1048.7620374291662 71.45408236251096 L 1048.53533808438 71.48756588121756 L 1048.3079093907916 71.52002293758491 L 1048.079774091081 71.55145028593446 L 1047.8509549985874 71.58184478355753 L 1047.6214749950302 71.61120339102969 L 1047.3913570282182 71.63952317251467 L 1047.160624109756 71.66680129605793 L 1046.9292993127438 71.69303503386982 L 1046.6974057694679 71.71822176259843 L 1046.4649666690898 71.7423589635919 L 1046.2320052553257 71.7654442231502 L 1045.9985448241227 71.78747523276665 L 1045.7646087213298 71.80844978935863 L 1045.530220340362 71.82836579548797 L 1045.295403119862 71.84722125957065 L 1045.0601805413562 71.86501429607597 L 1044.8245761269065 71.8817431257151 L 1044.5886134367584 71.89740607561903 L 1044.3523160669836 71.91200157950583 L 1044.1157076471225 71.92552817783725 L 1043.87881183782 71.93798451796474 L 1043.6416523284595 71.94936935426468 L 1043.4042528347943 71.95968154826289 L 1043.1666370965759 71.96892006874862 L 1042.9288288751802 71.97708399187748 L 1042.6908519512313 71.98417250126396 L 1042.4527301222229 71.99018488806304 L 1042.2144872001395 71.99512055104105 L 1041.9761470090752 71.99897899663581 L 1041.7377333828501 72.00175983900598 L 1041.4992701626286 72.00346280006961 L 1041.2607811945334 72.00408770953204 L 1041.022290327263 72.00363450490285 L 1040.783821409705 72.0021032315021 L 1040.5453982885529 71.99949404245586 L 1040.3070448059198 71.9958071986809 L 1040.0687847969555 71.99104306885846 L 1039.8306420874621 71.98520212939759 L 1039.5926404915124 71.97828496438737 L 1039.3548038090676 71.97029226553852 L 1039.1171558235976 71.96122483211428 L 1038.8797202997032 71.95108357085043 L 1038.6425209807385 71.93986949586466 L 1038.405581586438 71.92758372855508 L 1038.1689258105437 71.91422749748824 L 1037.932577318436 71.89980213827607 L 1037.696559744767 71.8843090934425 L 1037.4608966910973 71.86774991227908 L 1037.2256117235363 71.85012625069015 L 1036.9907283703842 71.83143987102717 L 1036.756270119781 71.81169264191253 L 1036.522260417356 71.79088653805269 L 1036.2887226638848 71.7690236400407 L 1036.0556802129477 71.74610613414815 L 1035.823156368596 71.72213631210651 L 1035.5911743830202 71.69711657087802 L 1035.3597574542255 71.67104941241597 L 1035.128928723712 71.64393744341446 L 1034.8987112741604 71.6157833750478 L 1034.669128127124 71.58659002269937 L 1034.4402022407257 71.55636030568009 L 1034.2119565073638 71.52509724693644 L 1033.984413751421 71.49280397274828 L 1033.7575967269838 71.45948371241609 L 1033.5315281155652 71.42513979793813 L 1033.3062305238382 71.38977566367726 L 1033.0817264813743 71.35339484601741 L 1032.8580384383904 71.31600098301004 L 1032.6351887635044 71.27759781401028 L 1032.4131997414984 71.23818917930303 L 1032.1920935710891 71.19777901971894 L 1031.97189236271 71.15637137624027 L 1031.7526181362975 71.11397038959687 L 1031.5342928190923 71.07058029985207 L 1031.3169382434442 71.02620544597868 L 1031.100576144629 70.98085026542512 L 1030.8852281586767 70.93451929367163 L 1030.6709158202063 70.8872171637768 L 1030.4576605602733 70.8389486059142 L 1030.2454837042258 70.78971844689937 L 1030.0344064695726 70.7395316097072 L 1029.8244499638613 70.6883931129796 L 1029.6156351825673 70.6363080705236 L 1029.407983006995 70.58328169080006 L 1029.2015142021887 70.52931927640276 L 1028.9962494148572 70.47442622352818 L 1028.7922091713076 70.41860802143584 L 1028.5894138753947 70.36187025189946 L 1028.387883806479 70.3042185886487 L 1028.1876391173992 70.24565879680183 L 1027.9886998324578 70.18619673228926 L 1027.791085845417 70.12583834126788 L 1027.594816917511 70.06458965952649 L 1027.3999126754693 70.00245681188221 L 1027.2063926095532 69.93944601156807 L 1027.0142760716085 69.87556355961155 L 1026.8235822731287 69.81081584420461 L 1026.6343302833347 69.74520934006487 L 1026.4465390272678 69.67875060778805 L 1026.2602272838972 69.61144629319199 L 1026.0754136842418 69.54330312665208 L 1025.8921167095077 69.47432792242817 L 1025.7103546892395 69.40452757798322 L 1025.5301457994879 69.3339090732935 L 1025.3515080609916 69.26247947015062 L 1025.1744593373758 69.19024591145539 L 1024.999017333365 69.11721562050347 L 1024.8251995930134 69.0433959002631 L 1024.6530234979505 68.96879413264479 L 1024.4825062656423 68.89341777776313 L 1024.3136649476696 68.81727437319081 L 1024.1465164280237 68.74037153320482 L 1023.9810774214174 68.66271694802508 L 1023.8173644716131 68.58431838304537 L 1023.6553939497699 68.5051836780569 L 1023.4951820528046 68.4253207464642 L 1023.3367448017734 68.34473757449386 L 1023.1800980402696 68.26344222039596 L 1023.0252574328388 68.18144281363814 L 1022.8722384634125 68.09874755409275 L 1022.7210564337602 68.01536471121685 L 1022.5717264619589 67.9313026232252 L 1022.4242634808813 67.84656969625658 L 1022.2786822367028 67.76117440353308 L 1022.1349972874264 67.67512528451279 L 1021.9932230014272 67.5884309440359 L 1021.8533735560158 67.50110005146425 L 1021.71546293602 67.41314133981427 L 1021.579504932387 67.32456360488388 L 1021.4455131408039 67.23537570437271 L 1021.3135009603382 67.14558655699653 L 1021.1834815920978 67.05520514159522 L 1021.0554680379113 66.96424049623502 L 1020.9294730990274 66.87270171730466 L 1020.8055093748351 66.78059795860575 L 1020.6835892616034 66.68793843043741 L 1020.563724951242 66.59473239867523 L 1020.4459284300821 66.50098918384472 L 1020.3302114776776 66.40671816018926 L 1020.2165856656273 66.31192875473263 L 1020.105062356418 66.2166304463364 L 1019.9956527022873 66.120832764752 L 1019.8883676441096 66.02454528966774 L 1019.7832179103013 65.92777764975091 L 1019.6802140157483 65.83053952168484 L 1019.579366260754 65.73284062920132 L 1019.4806847300099 65.63469074210818 L 1019.384179291587 65.53609967531233 L 1019.2898595959485 65.4370772878383 L 1019.1977350749855 65.33763348184232 L 1019.1078149410733 65.23777820162212 L 1019.0201081861504 65.13752143262249 L 1018.9346235808191 65.03687320043682 L 1018.8513696734689 64.93584356980442 L 1018.7703547894208 64.83444264360419 L 1018.691587030096 64.73268056184422 L 1018.6150742722048 64.63056750064791 L 1018.5408241669589 64.52811367123628 L 1018.4688441393074 64.42532931890689 L 1018.3991413871927 64.32222472200931 L 1018.3317228808322 64.21881019091732 L 1018.2665953620202 64.11509606699785 L 1018.2037653434543 64.01109272157687 L 1018.1432391080841 63.90681055490224 L 1018.0850227084826 63.80225999510374 L 1018.0291219662414 63.697451497150205 L 1017.9755424713879 63.59239554180411 L 1017.9242895818271 63.48710263457343 L 1017.8753684228053 63.381583304661156 L 1017.8287838863974 63.27584810391234 L 1017.7845406310186 63.16990760575894 L 1017.7426430809571 63.06377240416249 L 1017.7030954259334 62.95745311255472 L 1017.6659016206797 62.85096036277616 L 1017.6310653845459 62.744304804013076 L 1017.5985902011262 62.63749710173245 L 1017.5684793179122 62.530547936615505 L 1017.5407357459669 62.423468003489624 L 1017.5153622596246 62.316268010258895 L 1017.4923613962126 62.208958676833305 L 1017.4717354557981 62.10155073405677 L 1017.453486500958 61.99405492263407 L 1017.4376163565726 61.88648199205676 L 1017.424126609643 61.77884269952825 L 1017.4130186091328 61.6711478088881 L 1017.4042934658328 61.56340808953563 L 1017.3979520522498 61.45563431535299 L 1017.3939950025202 61.34783726362778 L 1017.3924227123455 61.24002771397536 L 1017.3932353389534 61.13221644726084 L 1017.396432801082 61.02441424452105 L 1017.4020147789877 60.916631885886424 L 1017.4099807144773 60.808880149503025 L 1017.4203298109641 60.70116981045468 L 1017.4330610335469 60.59351163968555 L 1017.448173109114 60.48591640292299 L 1017.4656645264706 60.378394859601016 L 1017.4855335364894 60.27095776178435 L 1017.507778152286 60.163615853093255 L 1017.5323961494175 60.05637986762915 L 1017.5593850661045 59.949260528901206 L 1017.5887422034779 59.84226854875404 L 1017.6204646258484 59.7354146262965 L 1017.6545491610003 59.62870944683179 L 1017.6909924005083 59.52216368078894 L 1017.7297907000791 59.41578798265577 L 1017.7709401799148 59.30959298991343 L 1017.8144367251018 59.203589321972714 L 1017.8602759860219 59.09778757911208 L 1017.908453378787 58.992198341417634 L 1017.9589640856983 58.88683216772516 L 1018.0118030557269 58.78169959456423 L 1018.06696500502 58.67681113510454 L 1018.1244444174287 58.57217727810464 L 1018.1842355450594 58.46780848686303 L 1018.2463324088493 58.36371519817185 L 1018.3107287991638 58.25990782127324 L 1018.3774182764176 58.15639673681838 L 1018.4463941717185 58.053192295829454 L 1018.5176495875343 57.950304818664556 L 1018.5911773983829 57.84774459398567 L 1018.6669702515445 57.745521877729786 L 1018.7450205677969 57.64364689208335 L 1018.8253205421737 57.54212982446004 L 1018.9078621447441 57.44098082648201 L 1018.9926371214168 57.340210012964775 L 1019.0796369947648 57.2398274609057 L 1019.1688530648731 57.13984320847635 L 1019.2602764102093 57.040267254018644 L 1019.3538978885148 56.94110955504505 L 1019.4497081377198 56.84238002724283 L 1019.5476975768794 56.74408854348249 L 1019.6478564071313 56.646244932830506 L 1019.7501746126758 56.54885897956639 L 1019.8546419617776 56.45194042220433 L 1019.9612480077891 56.35549895251929 L 1020.0699820901943 56.25954421457787 L 1020.1808333356756 56.16408580377391 L 1020.293790659201 56.06913326586893 L 1020.4088427651321 55.974696096037604 L 1020.5259781483543 55.88078373791821 L 1020.6451850954267 55.7874055826683 L 1020.7664516857541 55.694570968025594 L 1020.8897657927785 55.60228917737418 L 1021.015115085192 55.51056943881623 L 1021.1424870281696 55.41942092424918 L 1021.2718688846235 55.328852748448504 L 1021.4032477164756 55.23887396815633 L 1021.5366103859521 55.14949358117568 L 1021.6719435568975 55.0607205254708 L 1021.8092336961074 54.97256367827326 L 1021.9484670746822 54.88503185519433 L 1022.0896297694001 54.79813380934336 L 1022.2327076641092 54.71187823045254 L 1022.3776864511393 54.62627374400786 L 1022.5245516327326 54.541328910386646 L 1022.6732885224933 54.45705222400146 L 1022.8238822468562 54.373452112450714 L 1022.9763177465746 54.290536935675895 L 1023.1305797782254 54.20831498512558 L 1023.2866529157341 54.12679448292632 L 1023.4445215519169 54.0459835810604 L 1023.6041699000418 53.965890360550645 L 1023.7655819954069 53.88652283065238 L 1023.9287416969374 53.80788892805245 L 1024.093632688799 53.72999651607559 L 1024.26023848203 53.652853383898076 L 1024.4285424161897 53.57646724576885 L 1024.598527661025 53.50084574023808 L 1024.7701772181533 53.42599642939328 L 1024.9434739227615 53.35192679810317 L 1025.1184004453241 53.278644253269164 L 1025.2949392933342 53.20615612308466 L 1025.4730728130544 53.13446965630228 L 1025.6527831912808 53.06359202150896 L 1025.8340524571258 52.99353030640911 L 1026.0168624838136 52.924291517115876 L 1026.2011949904938 52.85588257745046 L 1026.3870315440695 52.78831032824984 L 1026.57435356104 52.72158152668263 L 1026.76314230936 52.65570284557336 L 1026.9533789103118 52.590680872735255 L 1027.145044340394 52.52652211031142 L 1027.338119433223 52.463232974124615 L 1027.5325848814507 52.40081979303573 L 1027.7284212386942 52.33928880831086 L 1027.9256089214812 52.278646172997206 L 1028.1241282112073 52.21889795130775 L 1028.3239592561092 52.160050118014894 L 1028.5250820732492 52.1021085578529 L 1028.7274765505128 52.045079064929524 L 1028.931122448621 51.98896734214652 L 1029.1359994031538 51.933779000629414 L 1029.3420869265865 51.87951955916637 L 1029.5493644103385 51.826194443656306 L 1029.757811126834 51.77380898656634 L 1029.967406231575 51.72236842639853 L 1030.1781287652261 51.67187790716602 L 1030.3899576557092 51.622342477878675 L 1030.6028717203117 51.57376709203812 L 1030.8168496678047 51.526156607142475 L 1031.031870100572 51.47951578420055 L 1031.2479115167491 51.43384928725578 L 1031.4649523123749 51.38916168291979 L 1031.68297078355 51.34545743991578 L 1031.9019451286097 51.302740928631636 L 1032.1218534503014 51.261016420682886 L 1032.3426737579766 51.220288088485546 L 1032.5643839697882 51.18056000483891 L 1032.7869619149 51.14183614251822 L 1033.0103853357032 51.10412037387746 L 1033.2346318900413 51.06741647046204 L 1033.4596791534464 51.03172810263173 L 1033.685504621379 50.99705883919358 L 1033.912085711481 50.96341214704502 L 1034.1393997658322 50.930791390827245 L 1034.3674240532164 50.899199832588685 L 1034.5961357713948 50.86864063145883 L 1034.8255120493864 50.83911684333235 L 1035.0555299497544 50.81063142056343 L 1035.2861664709005 50.78318721167063 L 1035.517398549365 50.75678696105195 L 1035.7492030621324 50.731433308710464 L 1035.9815568289448 50.70712878999027 L 1036.214436614619 50.683875835323 L 1036.4478191313706 50.66167676998473 L 1036.6816810411422 50.6405338138635 L 1036.915998957938 50.6204490812373 L 1037.1507494501616 50.60142458056266 L 1037.3859090429592 50.583462214273794 L 1037.6214542205676 50.566563778592354 L 1037.8573614286652 50.55073096334783 L 1038.093607076728 50.53596535180856 L 1038.3301675403877 50.52226842052339 L 1038.5670191637955 50.50964153917403 L 1038.804138261986 50.49808597043808 L 1039.0415011232476 50.48760286986282 L 1039.2790840114912 50.47819328574954 L 1039.5168631686267 50.46985815904882 L 1039.754814816936 50.462598323266384 L 1039.9929151614529 50.456414504379765 L 1040.2311403923409 50.45130732076569 L 1040.4694666872758 50.44727728313828 L 1040.707870213827 50.444324794497916 L 1040.9463271318398 50.44245015009101 L 1041.1848135958217 50.44165353738045 L 1041.4233057573247 50.44193503602685 L 1041.6617797673316 50.443294617880554 L 1041.90021177864 50.445732146984525 L 1042.1385779482473 50.44924737958788 L 1042.3768544397358 50.45383996417029 L 1042.615017425654 50.459509441477124 L 1042.8530430899027 50.46625524456538 L 1043.0909076301132 50.474076698860365 L 1043.32858726003 50.48297302222316 L 1043.5660582118878 50.49294332502887 L 1043.8032967387899 50.50398661025549 L 1044.040279117081 50.51610177358371 L 1044.2769816487205 50.52928760350731 L 1044.5133806636527 50.54354278145426 L 1044.7494525221732 50.55886588191867 L 1044.985173617293 50.575255372603245 L 1045.2205203770986 50.592709614572584 L 1045.4554692671104 50.61122686241703 L 1045.6899967926354 50.630805264427224 L 1045.924079501116 50.651442862779284 L 1046.1576939844767 50.67313759373059 L 1046.390816881464 50.695887287826096 L 1046.623424879982 50.71968967011537 L 1046.855494719425 50.74454236038002 L 1047.0870031930026 50.77044287337172 L 1047.3179271500599 50.797388619060754 L 1047.5482434983942 50.825376902895016 L 1047.777929206562 50.85440492606945 L 1048.0069613061844 50.88446978580591 L 1048.235316894242 50.9155684756435 L 1048.4629731353666 50.947697885739125 L 1048.6899072641233 50.980854803178566 L 1048.9160965872888 51.01503591229771 L 1049.141518486119 51.05023779501413 L 1049.366150418612 51.08645693116888 L 1049.5899699217616 51.12368969887854 L 1049.812954613804 51.16193237489736 L 1050.0350821964562 51.201181134989596 L 1050.2563304571447 51.241432054311964 L 1050.4766772712278 51.28268110780607 L 1050.6961006042077 51.32492417060092 L 1050.9145785139342 51.368157018425464 L 1051.132089152798 51.41237532803093 L 1051.3486107699168 51.45757467762322 L 1051.5641217133093 51.503750547305025 L 1051.7786004320606 51.55089831952786 L 1051.9920254784774 51.5990132795538 L 1052.2043755102334 51.64809061592693 L 1052.415629292502 51.69812542095451 L 1052.6257657000813 51.749112691197745 L 1052.8347637195054 51.801047327972086 L 1053.0426024511464 51.85392413785714 L 1053.2492611113048 51.90773783321599 L 1053.4547190342864 51.962483032723924 L 1053.6589556744705 52.01815426190663 L 1053.8619506083628 52.07474595368758 L 1054.0636835366395 52.132252448944755 L 1054.2641342861755 52.190667997076545 L 1054.4632828120632 52.24998675657682 L 1054.6611091996158 52.310202795619055 L 1054.8575936663594 52.371310092649544 L 1055.052716564011 52.43330253698949 L 1055.2464583804438 52.49617392944612 L 1055.4387997416372 52.559917982932596 L 1055.6297214136157 52.62452832309667 L 1055.819204304371 52.68999848895818 L 1056.0072294657718 52.7563219335551 L 1056.1937780954588 52.823492024598224 L 1056.3788315387246 52.89150204513444 L 1056.562371290379 52.960345194218355 L 1056.7443789965996 53.03001458759244 L 1056.9248364567675 53.10050325837541 L 1057.1037256252873 53.171804157758935 L 1057.2810286133913 53.243910155712484 L 1057.456727690928 53.31681404169635 L 1057.6308052881363 53.39050852538269 L 1057.8032439974015 53.46498623738456 L 1057.9740265749965 53.5402397299928 L 1058.1431359428059 53.61626147792087 L 1058.3105551900335 53.69304387905734 L 1058.4762675748943 53.770579255226075 L 1058.640256526288 53.848859852954064 L 1058.802505645456 53.92787784424677 L 1058.9629987076216 54.00762532737092 L 1059.1217196636123 54.08809432764465 L 1059.278652641465 54.16927679823499 L 1059.4337819480124 54.251164620962534 L 1059.587092070453 54.33374960711325 L 1059.738567677903 54.41702349825734 L 1059.888193622927 54.500977967075094 L 1060.035954943056 54.58560461818958 L 1060.1818368622803 54.670894989006214 L 1060.3258247925303 54.75684055055899 L 1060.4679043351325 54.84343270836337 L 1060.6080612822511 54.93066280327574 L 1060.7462816183083 55.0185221123593 L 1060.8825515213857 55.107001849756344 L 1061.0168573646065 55.196093167566886 L 1061.1491857174983 55.28578715673337 L 1061.279523347336 55.37607484793163 L 1061.4078572204653 55.46694721246779 L 1061.534174503606 55.55839516318112 L 1061.6584625651346 55.65040955535275 L 1061.7807089763492 55.742981187620146 L 1061.9009015127099 55.83610080289723 L 1062.0190281550633 55.92975908930006 L 1062.135077090844 56.02394668107806 L 1062.249036715255 56.11865415955053 L 1062.3608956324285 56.213872054048544 L 1062.4706426565665 56.30959084286201 L 1062.5782668130576 56.405800954191804 L 1062.683757339576 56.50249276710697 L 1062.7871036871572 56.5996566125068 L 1062.888295521252 56.69728277408771 L 1062.987322722762 56.79536148931491 L 1063.084175389049 56.89388295039859 L 1063.1788438349274 56.99283730527477 L 1063.2713185936313 57.09221465859041 L 1063.361590417762 57.19200507269298 L 1063.4496502802124 57.29219856862425 L 1063.5354893750696 57.39278512711811 L 1063.6190991184953 57.49375468960253 L 1063.7004711495854 57.59509715920541 L 1063.7795973312043 57.69680240176424 L 1063.8564697507998 57.79886024683951 L 1063.931080721194 57.90126048873177 L 1064.003422781352 58.003992887502164 L 1064.0734886971281 58.10704716999642 L 1064.1412714619892 58.21041303087217 L 1064.2067642977152 58.31408013362946 L 1064.269960655077 58.41803811164441 L 1064.3308542144916 58.52227656920584 L 1064.3894388866543 58.62678508255487 L 1064.4457088131458 58.731553200927245 L 1064.499658367021 58.83657044759845 L 1064.5512821533691 58.94182632093131 L 1064.600575009855 59.04731029542622 L 1064.6475320072334 59.153011822773635 L 1064.6921484498444 59.25892033290889 L 1064.7344198760804 59.36502523506925 L 1064.7743420588342 59.471315918852895 L 1064.8119110059208 59.57778175528004 L 1064.847122960477 59.684412097855756 L 1064.8799744013363 59.79119628363465 L 1064.910462043382 59.89812363428712 L 1064.9385828378759 60.005183457167206 L 1064.9643339727613 60.11236504638185 L 1064.9877128729463 60.21965768386144 L 1065.0087172005608 60.327050640431644 L 1065.0273448551889 60.43453317688629 L 1065.0435939740812 60.5420945450613 L 1065.0574629323391 60.6497239889095 L 1065.0689503430783 60.757410745576195 L 1065.0780550575676 60.86514404647545 L 1065.0847761653426 60.972913118366954 L 1065.0891129942988 61.08070718443333 L 1065.0910651107563 61.188515465357796 M 1065.0911861008124 95.52678387991818 L 1065.0899936409087 95.6345944248348 L 1065.0864163804426 95.74239418878678 L 1065.0804546771371 95.85017239188754 L 1065.072109127158 95.95791825640659 L 1065.0613805650528 96.06562100784727 L 1065.048270063669 96.1732698760242 L 1065.0327789340456 96.28085409614023 L 1065.014908725283 96.38836290986303 L 1064.994661224387 96.49578556640084 L 1064.9720384560908 96.60311132357748 L 1064.9470426826524 96.7103294489067 L 1064.9196764036285 96.8174292206653 L 1064.8899423556238 96.92439992896537 L 1064.8578435120187 97.0312308768252 L 1064.8233830826705 97.13791138123905 L 1064.7865645135937 97.24443077424536 L 1064.7473914866146 97.35077840399362 L 1064.7058679190027 97.45694363580944 L 1064.6619979630807 97.56291585325815 L 1064.6157860058074 97.66868445920629 L 1064.56723666834 97.77423887688141 L 1064.516354805572 97.8795685509297 L 1064.463145505647 97.98466294847155 L 1064.4076140894508 98.08951156015478 L 1064.349766110079 98.19410390120557 L 1064.2896073522807 98.29842951247699 L 1064.227143831882 98.40247796149485 L 1064.162381795183 98.50623884350097 L 1064.0953277183328 98.60970178249359 L 1064.0259883066838 98.71285643226504 L 1063.9543704941193 98.81569247743631 L 1063.8804814423606 98.91819963448859 L 1063.8043285402514 99.02036765279156 L 1063.7259194030187 99.12218631562857 L 1063.6452618715107 99.22364544121817 L 1063.5623640114131 99.32473488373233 L 1063.4772341124433 99.42544453431107 L 1063.38988068752 99.52576432207324 L 1063.3003124719128 99.62568421512367 L 1063.2085384223685 99.72519422155631 L 1063.1145677162162 99.82428439045346 L 1063.0184097504477 99.92294481288079 L 1062.9200741407794 100.02116562287829 L 1062.8195707206908 100.11893699844678 L 1062.7169095404395 100.2162491625302 L 1062.6121008660584 100.31309238399325 L 1062.5051551783276 100.40945697859446 L 1062.3960831717268 100.50533330995468 L 1062.2848957533654 100.60071179052068 L 1062.1716040418928 100.69558288252388 L 1062.056219366386 100.78993709893413 L 1061.9387532652158 100.88376500440843 L 1061.819217484895 100.97705721623441 L 1061.6976239789017 101.06980440526866 L 1061.5739849064853 101.16199729686952 L 1061.4483126314499 101.25362667182469 L 1061.3206197209183 101.34468336727302 L 1061.1909189440755 101.43515827762084 L 1061.0592232708905 101.52504235545253 L 1060.9255458708212 101.61432661243519 L 1060.7899001114963 101.70300212021755 L 1060.6522995573785 101.7910600113227 L 1060.5127579684086 101.87849148003492 L 1060.3712892986293 101.9652877832802 L 1060.2279076947896 102.05144024150056 L 1060.0826274949302 102.13694023952193 L 1059.9354632269506 102.22177922741581 L 1059.7864296071543 102.30594872135407 L 1059.6355415387795 102.38944030445748 L 1059.4828141105072 102.47224562763729 L 1059.3282625949528 102.5543564104302 L 1059.1719024471392 102.63576444182635 L 1059.013749302951 102.71646158109044 L 1058.8538189775709 102.79643975857579 L 1058.6921274638976 102.8756909765313 L 1058.5286909309482 102.95420730990122 L 1058.3635257222397 103.03198090711763 L 1058.1966483541555 103.10900399088564 L 1058.028075514293 103.18526885896105 L 1057.8578240597958 103.2607678849206 L 1057.6859110156677 103.33549351892461 L 1057.5123535730697 103.40943828847196 L 1057.3371690876013 103.48259479914732 L 1057.1603750775653 103.55495573536056 L 1056.9819892222151 103.6265138610784 L 1056.802029359988 103.69726202054787 L 1056.6205134867198 103.76719313901197 L 1056.437459753847 103.83630022341715 L 1056.2528864665899 103.90457636311257 L 1056.0668120821238 103.97201473054113 L 1055.8792552077318 104.03860858192229 L 1055.6902345989452 104.10435125792642 L 1055.4997691576673 104.1692361843407 L 1055.3078779302834 104.23325687272656 L 1055.1145801057567 104.29640692106851 L 1054.9198950137081 104.35868001441433 L 1054.723842122485 104.4200699255066 L 1054.5264410372129 104.48057051540535 L 1054.3277114978357 104.54017573410202 L 1054.127673377142 104.5988796211244 L 1053.926346678777 104.65667630613272 L 1053.7237515352429 104.71356000950664 L 1053.5199082058853 104.7695250429232 L 1053.3148370748668 104.82456580992574 L 1053.1085586491301 104.87867680648341 L 1052.9010935563458 104.93185262154162 L 1052.69246254285 104.98408793756322 L 1052.4826864715706 105.0353775310601 L 1052.2717863199396 105.08571627311568 L 1052.0597831777966 105.13509912989768 L 1051.846698245279 105.1835211631616 L 1051.6325528307025 105.23097753074444 L 1051.4173683484303 105.27746348704899 L 1051.2011663167311 105.32297438351839 L 1050.983968355628 105.36750566910086 L 1050.7657961847358 105.41105289070501 L 1050.5466716210904 105.45361169364494 L 1050.326616576965 105.49517782207583 L 1050.105653057681 105.53574711941947 L 1049.883803159406 105.57531552877992 L 1049.661089066945 105.61387909334925 L 1049.4375330515215 105.65143395680312 L 1049.213157468551 105.68797636368647 L 1048.9879847554046 105.72350265978909 L 1048.7620374291662 105.75800929251095 L 1048.53533808438 105.79149281121755 L 1048.3079093907916 105.82394986758491 L 1048.079774091081 105.85537721593445 L 1047.8509549985874 105.88577171355752 L 1047.6214749950302 105.9151303210297 L 1047.3913570282182 105.94345010251467 L 1047.160624109756 105.97072822605791 L 1046.9292993127438 105.99696196386981 L 1046.6974057694679 106.02214869259844 L 1046.4649666690898 106.04628589359189 L 1046.2320052553257 106.0693711531502 L 1045.9985448241227 106.09140216276666 L 1045.7646087213298 106.11237671935864 L 1045.530220340362 106.13229272548797 L 1045.295403119862 106.15114818957065 L 1045.0601805413562 106.16894122607596 L 1044.8245761269065 106.1856700557151 L 1044.5886134367584 106.20133300561903 L 1044.3523160669836 106.21592850950582 L 1044.1157076471225 106.22945510783724 L 1043.87881183782 106.24191144796474 L 1043.6416523284595 106.25329628426466 L 1043.4042528347943 106.2636084782629 L 1043.1666370965759 106.2728469987486 L 1042.9288288751802 106.28101092187747 L 1042.6908519512313 106.28809943126396 L 1042.4527301222229 106.29411181806304 L 1042.2144872001395 106.29904748104106 L 1041.9761470090752 106.30290592663582 L 1041.7377333828501 106.30568676900597 L 1041.4992701626286 106.30738973006962 L 1041.2607811945334 106.30801463953205 L 1041.022290327263 106.30756143490284 L 1040.783821409705 106.3060301615021 L 1040.5453982885529 106.30342097245587 L 1040.3070448059198 106.29973412868088 L 1040.0687847969555 106.29496999885845 L 1039.8306420874621 106.28912905939758 L 1039.5926404915124 106.28221189438736 L 1039.3548038090676 106.27421919553852 L 1039.1171558235976 106.26515176211427 L 1038.8797202997032 106.25501050085043 L 1038.6425209807385 106.24379642586464 L 1038.405581586438 106.23151065855508 L 1038.1689258105437 106.21815442748823 L 1037.932577318436 106.20372906827606 L 1037.696559744767 106.1882360234425 L 1037.4608966910973 106.17167684227908 L 1037.2256117235363 106.15405318069014 L 1036.9907283703842 106.13536680102716 L 1036.756270119781 106.11561957191253 L 1036.522260417356 106.09481346805269 L 1036.2887226638848 106.0729505700407 L 1036.0556802129477 106.05003306414814 L 1035.823156368596 106.0260632421065 L 1035.5911743830202 106.00104350087803 L 1035.3597574542255 105.97497634241597 L 1035.128928723712 105.94786437341445 L 1034.8987112741604 105.9197103050478 L 1034.669128127124 105.89051695269937 L 1034.4402022407257 105.86028723568009 L 1034.2119565073638 105.82902417693644 L 1033.984413751421 105.79673090274827 L 1033.7575967269838 105.76341064241608 L 1033.5315281155652 105.72906672793813 L 1033.3062305238382 105.69370259367726 L 1033.0817264813743 105.6573217760174 L 1032.8580384383904 105.61992791301003 L 1032.6351887635044 105.58152474401028 L 1032.4131997414984 105.54211610930304 L 1032.1920935710891 105.50170594971894 L 1031.97189236271 105.46029830624026 L 1031.7526181362975 105.41789731959686 L 1031.5342928190923 105.37450722985206 L 1031.3169382434442 105.33013237597868 L 1031.100576144629 105.28477719542511 L 1030.8852281586767 105.23844622367163 L 1030.6709158202063 105.1911440937768 L 1030.4576605602733 105.14287553591419 L 1030.2454837042258 105.09364537689936 L 1030.0344064695726 105.0434585397072 L 1029.8244499638613 104.99232004297959 L 1029.6156351825673 104.9402350005236 L 1029.407983006995 104.88720862080007 L 1029.2015142021887 104.83324620640276 L 1028.9962494148572 104.77835315352817 L 1028.7922091713076 104.72253495143585 L 1028.5894138753947 104.66579718189945 L 1028.387883806479 104.60814551864868 L 1028.1876391173992 104.54958572680184 L 1027.9886998324578 104.49012366228926 L 1027.791085845417 104.42976527126788 L 1027.594816917511 104.36851658952648 L 1027.3999126754693 104.30638374188221 L 1027.2063926095532 104.24337294156805 L 1027.0142760716085 104.17949048961154 L 1026.8235822731287 104.11474277420461 L 1026.6343302833347 104.04913627006486 L 1026.4465390272678 103.98267753778805 L 1026.2602272838972 103.91537322319199 L 1026.0754136842418 103.84723005665208 L 1025.8921167095077 103.77825485242818 L 1025.7103546892395 103.70845450798322 L 1025.5301457994879 103.63783600329349 L 1025.3515080609916 103.56640640015061 L 1025.1744593373758 103.49417284145538 L 1024.999017333365 103.42114255050346 L 1024.8251995930134 103.3473228302631 L 1024.6530234979505 103.27272106264479 L 1024.4825062656423 103.19734470776314 L 1024.3136649476696 103.1212013031908 L 1024.1465164280237 103.04429846320481 L 1023.9810774214174 102.96664387802507 L 1023.8173644716131 102.88824531304537 L 1023.6553939497699 102.8091106080569 L 1023.4951820528046 102.72924767646418 L 1023.3367448017734 102.64866450449387 L 1023.1800980402696 102.56736915039596 L 1023.0252574328388 102.48536974363815 L 1022.8722384634125 102.40267448409276 L 1022.7210564337602 102.31929164121684 L 1022.5717264619589 102.2352295532252 L 1022.4242634808813 102.15049662625658 L 1022.2786822367028 102.06510133353308 L 1022.1349972874264 101.97905221451278 L 1021.9932230014272 101.89235787403591 L 1021.8533735560158 101.80502698146424 L 1021.71546293602 101.71706826981428 L 1021.579504932387 101.62849053488388 L 1021.4455131408039 101.53930263437272 L 1021.3135009603382 101.44951348699652 L 1021.1834815920978 101.35913207159521 L 1021.0554680379113 101.26816742623502 L 1020.9294730990274 101.17662864730465 L 1020.8055093748351 101.08452488860574 L 1020.6835892616034 100.9918653604374 L 1020.563724951242 100.89865932867522 L 1020.4459284300821 100.80491611384473 L 1020.3302114776776 100.71064509018925 L 1020.2165856656273 100.61585568473262 L 1020.105062356418 100.5205573763364 L 1019.9956527022873 100.424759694752 L 1019.8883676441096 100.32847221966773 L 1019.7832179103013 100.2317045797509 L 1019.6802140157483 100.13446645168483 L 1019.579366260754 100.03676755920131 L 1019.4806847300099 99.93861767210817 L 1019.384179291587 99.84002660531232 L 1019.2898595959485 99.7410042178383 L 1019.1977350749855 99.64156041184232 L 1019.1078149410733 99.54170513162211 L 1019.0201081861504 99.4414483626225 L 1018.9346235808191 99.34080013043682 L 1018.8513696734689 99.23977049980442 L 1018.7703547894208 99.13836957360418 L 1018.691587030096 99.03660749184422 L 1018.6150742722048 98.9344944306479 L 1018.5408241669589 98.83204060123627 L 1018.4688441393074 98.72925624890688 L 1018.3991413871927 98.6261516520093 L 1018.3317228808322 98.52273712091731 L 1018.2665953620202 98.41902299699785 L 1018.2037653434543 98.31501965157686 L 1018.1432391080841 98.21073748490224 L 1018.0850227084826 98.10618692510373 L 1018.0291219662414 98.0013784271502 L 1017.9755424713879 97.89632247180411 L 1017.9242895818271 97.79102956457344 L 1017.8753684228053 97.68551023466115 L 1017.8287838863974 97.57977503391233 L 1017.7845406310186 97.47383453575894 L 1017.7426430809571 97.3676993341625 L 1017.7030954259334 97.2613800425547 L 1017.6659016206797 97.15488729277617 L 1017.6310653845459 97.04823173401307 L 1017.5985902011262 96.94142403173245 L 1017.5684793179122 96.8344748666155 L 1017.5407357459669 96.72739493348962 L 1017.5153622596246 96.6201949402589 L 1017.4923613962126 96.51288560683331 L 1017.4717354557981 96.40547766405678 L 1017.453486500958 96.29798185263407 L 1017.4376163565726 96.19040892205675 L 1017.424126609643 96.08276962952824 L 1017.4130186091328 95.9750747388881 L 1017.4042934658328 95.86733501953563 L 1017.3979520522498 95.75956124535298 L 1017.3939950025202 95.65176419362778 L 1017.3924227123455 95.54395464397535" stroke-miterlimit="10" stroke-width="2.7769845610000004" stroke-dasharray=""/></g><g><g/><text fill="black" stroke="none" font-family="sans-serif" font-size="11pt" font-style="normal" font-weight="normal" text-decoration="normal" x="1009.8638443365232" y="123.83569119881818" text-anchor="start" dominant-baseline="alphabetic" xml:space="preserve">Database</text></g><g><path fill="white" stroke="black" paint-order="fill stroke markers" d=" M 90.987082381 946.394853370318 A 9.311065881 9.311065881 0 1 1 90.98707772546743 946.3855423059888 M 81.67601649999999 955.7059192513179 L 81.67601649999999 975.6348672773179 M 69.914670124 962.893408703318 L 93.43736287599998 962.893408703318 M 81.67601649999999 975.6348672773179 L 69.914670124 994.256999039318 M 81.67601649999999 975.6348672773179 L 93.43736287599998 994.256999039318" stroke-miterlimit="10" stroke-width="2.7769845610000004" stroke-dasharray=""/></g><g><g/><text fill="black" stroke="none" font-family="sans-serif" font-size="11pt" font-style="normal" font-weight="normal" text-decoration="normal" x="59.67530696630858" y="930.7947342188179" text-anchor="start" dominant-baseline="alphabetic" xml:space="preserve">Renter</text></g><g><path fill="white" stroke="black" paint-order="fill stroke markers" d=" M 413.7003661782656 946.394853370318 A 9.311065881 9.311065881 0 1 1 413.70036152273303 946.3855423059888 M 404.3893002972656 955.7059192513179 L 404.3893002972656 975.6348672773179 M 392.6279539212656 962.893408703318 L 416.1506466732656 962.893408703318 M 404.3893002972656 975.6348672773179 L 392.6279539212656 994.256999039318 M 404.3893002972656 975.6348672773179 L 416.1506466732656 994.256999039318" stroke-miterlimit="10" stroke-width="2.7769845610000004" stroke-dasharray=""/></g><g><g/><text fill="black" stroke="none" font-family="sans-serif" font-size="11pt" font-style="normal" font-weight="normal" text-decoration="normal" x="375.8603238568359" y="930.7947342188179" text-anchor="start" dominant-baseline="alphabetic" xml:space="preserve">Landlord</text></g><g><path fill="white" stroke="black" paint-order="fill stroke markers" d=" M 607.5406406242629 961.8969613020179 A 24.2577769005 24.2577769005 0 1 1 607.5406284953755 961.8727035291603 M 557.636594542763 988.3763258513178 L 608.9291329047629 988.3763258513178" stroke-miterlimit="10" stroke-width="2.7769845610000004" stroke-dasharray=""/></g><g><g/><text fill="black" stroke="none" font-family="sans-serif" font-size="11pt" font-style="normal" font-weight="normal" text-decoration="normal" x="564.5427132721028" y="930.7947342188179" text-anchor="start" dominant-baseline="alphabetic" xml:space="preserve">Client</text></g><g><path fill="white" stroke="black" paint-order="fill stroke markers" d=" M 850.8436431376743 961.8969613020179 A 24.2577769005 24.2577769005 0 1 1 850.8436310087869 961.8727035291603 M 800.9395970561744 988.3763258513178 L 852.2321354181744 988.3763258513178" stroke-miterlimit="10" stroke-width="2.7769845610000004" stroke-dasharray=""/></g><g><g/><text fill="black" stroke="none" font-family="sans-serif" font-size="11pt" font-style="normal" font-weight="normal" text-decoration="normal" x="798.0604679827799" y="930.7947342188179" text-anchor="start" dominant-baseline="alphabetic" xml:space="preserve">Backend</text></g><g><path fill="white" stroke="black" paint-order="fill stroke markers" d=" M 1017.3923924648124 983.5574408778178 L 1017.3923924648124 949.2535139478177 L 1065.0911861008124 949.2535139478177 L 1065.0911861008124 983.5574408778178" stroke-miterlimit="10" stroke-width="2.7769845610000004" stroke-dasharray=""/><path fill="white" stroke="black" paint-order="fill stroke markers" d=" M 1065.0911861008124 948.0610441069177 L 1065.0899936409087 948.1688546518344 L 1065.0864163804426 948.2766544157863 L 1065.0804546771371 948.3844326188871 L 1065.072109127158 948.4921784834062 L 1065.0613805650528 948.5998812348469 L 1065.048270063669 948.7075301030237 L 1065.0327789340456 948.8151143231398 L 1065.014908725283 948.9226231368626 L 1064.994661224387 949.0300457934004 L 1064.9720384560908 949.1373715505771 L 1064.9470426826524 949.2445896759062 L 1064.9196764036285 949.3516894476649 L 1064.8899423556238 949.4586601559649 L 1064.8578435120187 949.5654911038248 L 1064.8233830826705 949.6721716082386 L 1064.7865645135937 949.7786910012449 L 1064.7473914866146 949.8850386309931 L 1064.7058679190027 949.991203862809 L 1064.6619979630807 950.0971760802577 L 1064.6157860058074 950.2029446862058 L 1064.56723666834 950.308499103881 L 1064.516354805572 950.4138287779292 L 1064.463145505647 950.5189231754711 L 1064.4076140894508 950.6237717871543 L 1064.349766110079 950.7283641282052 L 1064.2896073522807 950.8326897394766 L 1064.227143831882 950.9367381884944 L 1064.162381795183 951.0404990705005 L 1064.0953277183328 951.1439620094932 L 1064.0259883066838 951.2471166592646 L 1063.9543704941193 951.3499527044359 L 1063.8804814423606 951.4524598614881 L 1063.8043285402514 951.5546278797912 L 1063.7259194030187 951.6564465426281 L 1063.6452618715107 951.7579056682177 L 1063.5623640114131 951.8589951107318 L 1063.4772341124433 951.9597047613106 L 1063.38988068752 952.0600245490728 L 1063.3003124719128 952.1599444421232 L 1063.2085384223685 952.2594544485559 L 1063.1145677162162 952.358544617453 L 1063.0184097504477 952.4572050398804 L 1062.9200741407794 952.5554258498778 L 1062.8195707206908 952.6531972254463 L 1062.7169095404395 952.7505093895297 L 1062.6121008660584 952.8473526109927 L 1062.5051551783276 952.943717205594 L 1062.3960831717268 953.0395935369543 L 1062.2848957533654 953.1349720175202 L 1062.1716040418928 953.2298431095235 L 1062.056219366386 953.3241973259337 L 1061.9387532652158 953.418025231408 L 1061.819217484895 953.511317443234 L 1061.6976239789017 953.6040646322682 L 1061.5739849064853 953.6962575238691 L 1061.4483126314499 953.7878868988242 L 1061.3206197209183 953.8789435942725 L 1061.1909189440755 953.9694185046204 L 1061.0592232708905 954.0593025824521 L 1060.9255458708212 954.1485868394348 L 1060.7899001114963 954.2372623472171 L 1060.6522995573785 954.3253202383222 L 1060.5127579684086 954.4127517070344 L 1060.3712892986293 954.4995480102798 L 1060.2279076947896 954.5857004685001 L 1060.0826274949302 954.6712004665214 L 1059.9354632269506 954.7560394544154 L 1059.7864296071543 954.8402089483536 L 1059.6355415387795 954.923700531457 L 1059.4828141105072 955.0065058546369 L 1059.3282625949528 955.0886166374297 L 1059.1719024471392 955.1700246688259 L 1059.013749302951 955.25072180809 L 1058.8538189775709 955.3306999855754 L 1058.6921274638976 955.4099512035308 L 1058.5286909309482 955.4884675369008 L 1058.3635257222397 955.5662411341171 L 1058.1966483541555 955.6432642178852 L 1058.028075514293 955.7195290859606 L 1057.8578240597958 955.7950281119201 L 1057.6859110156677 955.8697537459242 L 1057.5123535730697 955.9436985154715 L 1057.3371690876013 956.0168550261469 L 1057.1603750775653 956.0892159623601 L 1056.9819892222151 956.1607740880779 L 1056.802029359988 956.2315222475474 L 1056.6205134867198 956.3014533660115 L 1056.437459753847 956.3705604504167 L 1056.2528864665899 956.4388365901121 L 1056.0668120821238 956.5062749575407 L 1055.8792552077318 956.5728688089218 L 1055.6902345989452 956.638611484926 L 1055.4997691576673 956.7034964113402 L 1055.3078779302834 956.7675170997261 L 1055.1145801057567 956.8306671480681 L 1054.9198950137081 956.8929402414138 L 1054.723842122485 956.9543301525061 L 1054.5264410372129 957.0148307424049 L 1054.3277114978357 957.0744359611016 L 1054.127673377142 957.133139848124 L 1053.926346678777 957.1909365331322 L 1053.7237515352429 957.2478202365062 L 1053.5199082058853 957.3037852699227 L 1053.3148370748668 957.3588260369253 L 1053.1085586491301 957.412937033483 L 1052.9010935563458 957.4661128485412 L 1052.69246254285 957.5183481645628 L 1052.4826864715706 957.5696377580597 L 1052.2717863199396 957.6199765001153 L 1052.0597831777966 957.6693593568972 L 1051.846698245279 957.7177813901611 L 1051.6325528307025 957.765237757744 L 1051.4173683484303 957.8117237140485 L 1051.2011663167311 957.8572346105179 L 1050.983968355628 957.9017658961004 L 1050.7657961847358 957.9453131177046 L 1050.5466716210904 957.9878719206445 L 1050.326616576965 958.0294380490753 L 1050.105653057681 958.0700073464191 L 1049.883803159406 958.1095757557795 L 1049.661089066945 958.1481393203488 L 1049.4375330515215 958.1856941838026 L 1049.213157468551 958.2222365906861 L 1048.9879847554046 958.2577628867887 L 1048.7620374291662 958.2922695195105 L 1048.53533808438 958.325753038217 L 1048.3079093907916 958.3582100945845 L 1048.079774091081 958.389637442934 L 1047.8509549985874 958.4200319405571 L 1047.6214749950302 958.4493905480292 L 1047.3913570282182 958.4777103295143 L 1047.160624109756 958.5049884530574 L 1046.9292993127438 958.5312221908694 L 1046.6974057694679 958.556408919598 L 1046.4649666690898 958.5805461205914 L 1046.2320052553257 958.6036313801497 L 1045.9985448241227 958.6256623897661 L 1045.7646087213298 958.6466369463582 L 1045.530220340362 958.6665529524876 L 1045.295403119862 958.6854084165702 L 1045.0601805413562 958.7032014530755 L 1044.8245761269065 958.7199302827147 L 1044.5886134367584 958.7355932326186 L 1044.3523160669836 958.7501887365054 L 1044.1157076471225 958.7637153348368 L 1043.87881183782 958.7761716749643 L 1043.6416523284595 958.7875565112643 L 1043.4042528347943 958.7978687052624 L 1043.1666370965759 958.8071072257482 L 1042.9288288751802 958.8152711488771 L 1042.6908519512313 958.8223596582635 L 1042.4527301222229 958.8283720450626 L 1042.2144872001395 958.8333077080406 L 1041.9761470090752 958.8371661536354 L 1041.7377333828501 958.8399469960056 L 1041.4992701626286 958.8416499570692 L 1041.2607811945334 958.8422748665316 L 1041.022290327263 958.8418216619024 L 1040.783821409705 958.8402903885017 L 1040.5453982885529 958.8376811994555 L 1040.3070448059198 958.8339943556805 L 1040.0687847969555 958.829230225858 L 1039.8306420874621 958.8233892863972 L 1039.5926404915124 958.8164721213869 L 1039.3548038090676 958.8084794225381 L 1039.1171558235976 958.7994119891139 L 1038.8797202997032 958.78927072785 L 1038.6425209807385 958.7780566528642 L 1038.405581586438 958.7657708855546 L 1038.1689258105437 958.7524146544878 L 1037.932577318436 958.7379892952756 L 1037.696559744767 958.7224962504421 L 1037.4608966910973 958.7059370692787 L 1037.2256117235363 958.6883134076897 L 1036.9907283703842 958.6696270280268 L 1036.756270119781 958.649879798912 L 1036.522260417356 958.6290736950523 L 1036.2887226638848 958.6072107970402 L 1036.0556802129477 958.5842932911477 L 1035.823156368596 958.560323469106 L 1035.5911743830202 958.5353037278776 L 1035.3597574542255 958.5092365694155 L 1035.128928723712 958.482124600414 L 1034.8987112741604 958.4539705320474 L 1034.669128127124 958.4247771796989 L 1034.4402022407257 958.3945474626796 L 1034.2119565073638 958.363284403936 L 1033.984413751421 958.3309911297479 L 1033.7575967269838 958.2976708694156 L 1033.5315281155652 958.2633269549377 L 1033.3062305238382 958.2279628206768 L 1033.0817264813743 958.191582003017 L 1032.8580384383904 958.1541881400096 L 1032.6351887635044 958.1157849710098 L 1032.4131997414984 958.0763763363026 L 1032.1920935710891 958.0359661767185 L 1031.97189236271 957.9945585332398 L 1031.7526181362975 957.9521575465964 L 1031.5342928190923 957.9087674568516 L 1031.3169382434442 957.8643926029782 L 1031.100576144629 957.8190374224247 L 1030.8852281586767 957.7727064506712 L 1030.6709158202063 957.7254043207763 L 1030.4576605602733 957.6771357629137 L 1030.2454837042258 957.627905603899 L 1030.0344064695726 957.5777187667068 L 1029.8244499638613 957.5265802699791 L 1029.6156351825673 957.4744952275231 L 1029.407983006995 957.4214688477996 L 1029.2015142021887 957.3675064334024 L 1028.9962494148572 957.3126133805278 L 1028.7922091713076 957.2567951784354 L 1028.5894138753947 957.200057408899 L 1028.387883806479 957.1424057456483 L 1028.1876391173992 957.0838459538014 L 1027.9886998324578 957.0243838892889 L 1027.791085845417 956.9640254982675 L 1027.594816917511 956.902776816526 L 1027.3999126754693 956.8406439688817 L 1027.2063926095532 956.7776331685676 L 1027.0142760716085 956.7137507166111 L 1026.8235822731287 956.6490030012042 L 1026.6343302833347 956.5833964970644 L 1026.4465390272678 956.5169377647876 L 1026.2602272838972 956.4496334501915 L 1026.0754136842418 956.3814902836516 L 1025.8921167095077 956.3125150794277 L 1025.7103546892395 956.2427147349828 L 1025.5301457994879 956.172096230293 L 1025.3515080609916 956.1006666271502 L 1025.1744593373758 956.0284330684549 L 1024.999017333365 955.955402777503 L 1024.8251995930134 955.8815830572627 L 1024.6530234979505 955.8069812896443 L 1024.4825062656423 955.7316049347627 L 1024.3136649476696 955.6554615301903 L 1024.1465164280237 955.5785586902043 L 1023.9810774214174 955.5009041050246 L 1023.8173644716131 955.4225055400449 L 1023.6553939497699 955.3433708350565 L 1023.4951820528046 955.2635079034637 L 1023.3367448017734 955.1829247314934 L 1023.1800980402696 955.1016293773955 L 1023.0252574328388 955.0196299706377 L 1022.8722384634125 954.9369347110922 L 1022.7210564337602 954.8535518682164 L 1022.5717264619589 954.7694897802247 L 1022.4242634808813 954.6847568532561 L 1022.2786822367028 954.5993615605327 L 1022.1349972874264 954.5133124415123 L 1021.9932230014272 954.4266181010355 L 1021.8533735560158 954.3392872084638 L 1021.71546293602 954.2513284968138 L 1021.579504932387 954.1627507618834 L 1021.4455131408039 954.0735628613722 L 1021.3135009603382 953.9837737139961 L 1021.1834815920978 953.8933922985948 L 1021.0554680379113 953.8024276532345 L 1020.9294730990274 953.7108888743043 L 1020.8055093748351 953.6187851156053 L 1020.6835892616034 953.5261255874369 L 1020.563724951242 953.4329195556747 L 1020.4459284300821 953.3391763408442 L 1020.3302114776776 953.2449053171888 L 1020.2165856656273 953.1501159117322 L 1020.105062356418 953.0548176033359 L 1019.9956527022873 952.9590199217515 L 1019.8883676441096 952.8627324466673 L 1019.7832179103013 952.7659648067505 L 1019.6802140157483 952.6687266786844 L 1019.579366260754 952.5710277862008 L 1019.4806847300099 952.4728778991077 L 1019.384179291587 952.3742868323119 L 1019.2898595959485 952.2752644448378 L 1019.1977350749855 952.1758206388419 L 1019.1078149410733 952.0759653586217 L 1019.0201081861504 951.9757085896221 L 1018.9346235808191 951.8750603574364 L 1018.8513696734689 951.774030726804 L 1018.7703547894208 951.6726298006038 L 1018.691587030096 951.5708677188437 L 1018.6150742722048 951.4687546576474 L 1018.5408241669589 951.3663008282358 L 1018.4688441393074 951.2635164759064 L 1018.3991413871927 951.1604118790088 L 1018.3317228808322 951.0569973479169 L 1018.2665953620202 950.9532832239973 L 1018.2037653434543 950.8492798785765 L 1018.1432391080841 950.7449977119018 L 1018.0850227084826 950.6404471521033 L 1018.0291219662414 950.5356386541498 L 1017.9755424713879 950.4305826988036 L 1017.9242895818271 950.325289791573 L 1017.8753684228053 950.2197704616607 L 1017.8287838863974 950.1140352609119 L 1017.7845406310186 950.0080947627584 L 1017.7426430809571 949.901959561162 L 1017.7030954259334 949.7956402695543 L 1017.6659016206797 949.6891475197757 L 1017.6310653845459 949.5824919610126 L 1017.5985902011262 949.475684258732 L 1017.5684793179122 949.3687350936151 L 1017.5407357459669 949.2616551604892 L 1017.5153622596246 949.1544551672584 L 1017.4923613962126 949.0471458338328 L 1017.4717354557981 948.9397378910563 L 1017.453486500958 948.8322420796336 L 1017.4376163565726 948.7246691490564 L 1017.424126609643 948.6170298565278 L 1017.4130186091328 948.5093349658877 L 1017.4042934658328 948.4015952465352 L 1017.3979520522498 948.2938214723525 L 1017.3939950025202 948.1860244206273 L 1017.3924227123455 948.0782148709749 L 1017.3932353389534 947.9704036042604 L 1017.396432801082 947.8626014015206 L 1017.4020147789877 947.754819042886 L 1017.4099807144773 947.6470673065025 L 1017.4203298109641 947.5393569674542 L 1017.4330610335469 947.431698796685 L 1017.448173109114 947.3241035599225 L 1017.4656645264706 947.2165820166006 L 1017.4855335364894 947.1091449187838 L 1017.507778152286 947.0018030100928 L 1017.5323961494175 946.8945670246287 L 1017.5593850661045 946.7874476859007 L 1017.5887422034779 946.6804557057536 L 1017.6204646258484 946.573601783296 L 1017.6545491610003 946.4668966038313 L 1017.6909924005083 946.3603508377885 L 1017.7297907000791 946.2539751396553 L 1017.7709401799148 946.147780146913 L 1017.8144367251018 946.0417764789722 L 1017.8602759860219 945.9359747361116 L 1017.908453378787 945.8303854984172 L 1017.9589640856983 945.7250193247247 L 1018.0118030557269 945.6198867515637 L 1018.06696500502 945.5149982921041 L 1018.1244444174287 945.4103644351042 L 1018.1842355450594 945.3059956438626 L 1018.2463324088493 945.2019023551713 L 1018.3107287991638 945.0980949782728 L 1018.3774182764176 944.9945838938179 L 1018.4463941717185 944.891379452829 L 1018.5176495875343 944.7884919756641 L 1018.5911773983829 944.6859317509852 L 1018.6669702515445 944.5837090347293 L 1018.7450205677969 944.4818340490829 L 1018.8253205421737 944.3803169814596 L 1018.9078621447441 944.2791679834816 L 1018.9926371214168 944.1783971699643 L 1019.0796369947648 944.0780146179053 L 1019.1688530648731 943.9780303654759 L 1019.2602764102093 943.8784544110182 L 1019.3538978885148 943.7792967120446 L 1019.4497081377198 943.6805671842424 L 1019.5476975768794 943.582275700482 L 1019.6478564071313 943.4844320898301 L 1019.7501746126758 943.3870461365659 L 1019.8546419617776 943.2901275792038 L 1019.9612480077891 943.1936861095188 L 1020.0699820901943 943.0977313715774 L 1020.1808333356756 943.0022729607734 L 1020.293790659201 942.9073204228685 L 1020.4088427651321 942.8128832530372 L 1020.5259781483543 942.7189708949178 L 1020.6451850954267 942.6255927396678 L 1020.7664516857541 942.5327581250251 L 1020.8897657927785 942.4404763343738 L 1021.015115085192 942.3487565958158 L 1021.1424870281696 942.2576080812487 L 1021.2718688846235 942.1670399054481 L 1021.4032477164756 942.0770611251559 L 1021.5366103859521 941.9876807381752 L 1021.6719435568975 941.8989076824704 L 1021.8092336961074 941.8107508352728 L 1021.9484670746822 941.7232190121939 L 1022.0896297694001 941.636320966343 L 1022.2327076641092 941.550065387452 L 1022.3776864511393 941.4644609010074 L 1022.5245516327326 941.3795160673862 L 1022.6732885224933 941.295239381001 L 1022.8238822468562 941.2116392694503 L 1022.9763177465746 941.1287240926754 L 1023.1305797782254 941.0465021421252 L 1023.2866529157341 940.9649816399259 L 1023.4445215519169 940.88417073806 L 1023.6041699000418 940.8040775175502 L 1023.7655819954069 940.724709987652 L 1023.9287416969374 940.646076085052 L 1024.093632688799 940.5681836730752 L 1024.26023848203 940.4910405408976 L 1024.4285424161897 940.4146544027684 L 1024.598527661025 940.3390328972376 L 1024.7701772181533 940.2641835863928 L 1024.9434739227615 940.1901139551027 L 1025.1184004453241 940.1168314102687 L 1025.2949392933342 940.0443432800841 L 1025.4730728130544 939.9726568133018 L 1025.6527831912808 939.9017791785085 L 1025.8340524571258 939.8317174634086 L 1026.0168624838136 939.7624786741154 L 1026.2011949904938 939.69406973445 L 1026.3870315440695 939.6264974852494 L 1026.57435356104 939.5597686836821 L 1026.76314230936 939.4938900025729 L 1026.9533789103118 939.4288680297348 L 1027.145044340394 939.364709267311 L 1027.338119433223 939.3014201311241 L 1027.5325848814507 939.2390069500352 L 1027.7284212386942 939.1774759653104 L 1027.9256089214812 939.1168333299968 L 1028.1241282112073 939.0570851083073 L 1028.3239592561092 938.9982372750144 L 1028.5250820732492 938.9402957148525 L 1028.7274765505128 938.883266221929 L 1028.931122448621 938.8271544991461 L 1029.1359994031538 938.771966157629 L 1029.3420869265865 938.7177067161659 L 1029.5493644103385 938.6643816006558 L 1029.757811126834 938.6119961435659 L 1029.967406231575 938.5605555833981 L 1030.1781287652261 938.5100650641656 L 1030.3899576557092 938.4605296348782 L 1030.6028717203117 938.4119542490376 L 1030.8168496678047 938.3643437641421 L 1031.031870100572 938.3177029412001 L 1031.2479115167491 938.2720364442554 L 1031.4649523123749 938.2273488399194 L 1031.68297078355 938.1836445969153 L 1031.9019451286097 938.1409280856312 L 1032.1218534503014 938.0992035776824 L 1032.3426737579766 938.058475245485 L 1032.5643839697882 938.0187471618384 L 1032.7869619149 937.9800232995178 L 1033.0103853357032 937.942307530877 L 1033.2346318900413 937.9056036274616 L 1033.4596791534464 937.8699152596313 L 1033.685504621379 937.8352459961932 L 1033.912085711481 937.8015993040445 L 1034.1393997658322 937.7689785478268 L 1034.3674240532164 937.7373869895882 L 1034.5961357713948 937.7068277884583 L 1034.8255120493864 937.6773040003319 L 1035.0555299497544 937.648818577563 L 1035.2861664709005 937.6213743686702 L 1035.517398549365 937.5949741180515 L 1035.7492030621324 937.56962046571 L 1035.9815568289448 937.5453159469898 L 1036.214436614619 937.5220629923225 L 1036.4478191313706 937.4998639269843 L 1036.6816810411422 937.478720970863 L 1036.915998957938 937.4586362382369 L 1037.1507494501616 937.4396117375622 L 1037.3859090429592 937.4216493712734 L 1037.6214542205676 937.4047509355919 L 1037.8573614286652 937.3889181203474 L 1038.093607076728 937.3741525088082 L 1038.3301675403877 937.3604555775229 L 1038.5670191637955 937.3478286961736 L 1038.804138261986 937.3362731274376 L 1039.0415011232476 937.3257900268624 L 1039.2790840114912 937.316380442749 L 1039.5168631686267 937.3080453160484 L 1039.754814816936 937.300785480266 L 1039.9929151614529 937.2946016613793 L 1040.2311403923409 937.2894944777653 L 1040.4694666872758 937.2854644401378 L 1040.707870213827 937.2825119514974 L 1040.9463271318398 937.2806373070906 L 1041.1848135958217 937.27984069438 L 1041.4233057573247 937.2801221930264 L 1041.6617797673316 937.2814817748801 L 1041.90021177864 937.283919303984 L 1042.1385779482473 937.2874345365874 L 1042.3768544397358 937.2920271211699 L 1042.615017425654 937.2976965984767 L 1042.8530430899027 937.304442401565 L 1043.0909076301132 937.3122638558599 L 1043.32858726003 937.3211601792227 L 1043.5660582118878 937.3311304820284 L 1043.8032967387899 937.3421737672551 L 1044.040279117081 937.3542889305833 L 1044.2769816487205 937.3674747605069 L 1044.5133806636527 937.3817299384538 L 1044.7494525221732 937.3970530389182 L 1044.985173617293 937.4134425296028 L 1045.2205203770986 937.4308967715722 L 1045.4554692671104 937.4494140194166 L 1045.6899967926354 937.4689924214267 L 1045.924079501116 937.4896300197788 L 1046.1576939844767 937.5113247507302 L 1046.390816881464 937.5340744448256 L 1046.623424879982 937.5578768271149 L 1046.855494719425 937.5827295173796 L 1047.0870031930026 937.6086300303713 L 1047.3179271500599 937.6355757760603 L 1047.5482434983942 937.6635640598946 L 1047.777929206562 937.692592083069 L 1048.0069613061844 937.7226569428054 L 1048.235316894242 937.753755632643 L 1048.4629731353666 937.7858850427386 L 1048.6899072641233 937.8190419601781 L 1048.9160965872888 937.8532230692973 L 1049.141518486119 937.8884249520137 L 1049.366150418612 937.9246440881684 L 1049.5899699217616 937.9618768558781 L 1049.812954613804 938.0001195318969 L 1050.0350821964562 938.0393682919891 L 1050.2563304571447 938.0796192113115 L 1050.4766772712278 938.1208682648056 L 1050.6961006042077 938.1631113276005 L 1050.9145785139342 938.206344175425 L 1051.132089152798 938.2505624850305 L 1051.3486107699168 938.2957618346228 L 1051.5641217133093 938.3419377043045 L 1051.7786004320606 938.3890854765274 L 1051.9920254784774 938.4372004365533 L 1052.2043755102334 938.4862777729264 L 1052.415629292502 938.536312577954 L 1052.6257657000813 938.5872998481973 L 1052.8347637195054 938.6392344849717 L 1053.0426024511464 938.6921112948567 L 1053.2492611113048 938.7459249902155 L 1053.4547190342864 938.8006701897235 L 1053.6589556744705 938.8563414189061 L 1053.8619506083628 938.9129331106872 L 1054.0636835366395 938.9704396059443 L 1054.2641342861755 939.028855154076 L 1054.4632828120632 939.0881739135764 L 1054.6611091996158 939.1483899526186 L 1054.8575936663594 939.2094972496491 L 1055.052716564011 939.271489693989 L 1055.2464583804438 939.3343610864457 L 1055.4387997416372 939.3981051399321 L 1055.6297214136157 939.4627154800962 L 1055.819204304371 939.5281856459577 L 1056.0072294657718 939.5945090905547 L 1056.1937780954588 939.6616791815977 L 1056.3788315387246 939.729689202134 L 1056.562371290379 939.7985323512179 L 1056.7443789965996 939.8682017445919 L 1056.9248364567675 939.9386904153749 L 1057.1037256252873 940.0099913147585 L 1057.2810286133913 940.082097312712 L 1057.456727690928 940.1550011986959 L 1057.6308052881363 940.2286956823823 L 1057.8032439974015 940.3031733943841 L 1057.9740265749965 940.3784268869923 L 1058.1431359428059 940.4544486349204 L 1058.3105551900335 940.5312310360569 L 1058.4762675748943 940.6087664122256 L 1058.640256526288 940.6870470099536 L 1058.802505645456 940.7660650012464 L 1058.9629987076216 940.8458124843704 L 1059.1217196636123 940.9262814846442 L 1059.278652641465 941.0074639552346 L 1059.4337819480124 941.0893517779621 L 1059.587092070453 941.1719367641128 L 1059.738567677903 941.2552106552569 L 1059.888193622927 941.3391651240746 L 1060.035954943056 941.4237917751891 L 1060.1818368622803 941.5090821460058 L 1060.3258247925303 941.5950277075585 L 1060.4679043351325 941.6816198653629 L 1060.6080612822511 941.7688499602752 L 1060.7462816183083 941.8567092693588 L 1060.8825515213857 941.9451890067559 L 1061.0168573646065 942.0342803245665 L 1061.1491857174983 942.1239743137329 L 1061.279523347336 942.2142620049311 L 1061.4078572204653 942.3051343694673 L 1061.534174503606 942.3965823201806 L 1061.6584625651346 942.4885967123523 L 1061.7807089763492 942.5811683446196 L 1061.9009015127099 942.6742879598968 L 1062.0190281550633 942.7679462462996 L 1062.135077090844 942.8621338380776 L 1062.249036715255 942.95684131655 L 1062.3608956324285 943.0520592110481 L 1062.4706426565665 943.1477779998615 L 1062.5782668130576 943.2439881111914 L 1062.683757339576 943.3406799241066 L 1062.7871036871572 943.4378437695063 L 1062.888295521252 943.5354699310873 L 1062.987322722762 943.6335486463145 L 1063.084175389049 943.7320701073982 L 1063.1788438349274 943.8310244622743 L 1063.2713185936313 943.9304018155899 L 1063.361590417762 944.0301922296925 L 1063.4496502802124 944.1303857256238 L 1063.5354893750696 944.2309722841177 L 1063.6190991184953 944.331941846602 L 1063.7004711495854 944.433284316205 L 1063.7795973312043 944.5349895587638 L 1063.8564697507998 944.637047403839 L 1063.931080721194 944.7394476457313 L 1064.003422781352 944.8421800445017 L 1064.0734886971281 944.945234326996 L 1064.1412714619892 945.0486001878717 L 1064.2067642977152 945.152267290629 L 1064.269960655077 945.2562252686439 L 1064.3308542144916 945.3604637262054 L 1064.3894388866543 945.4649722395544 L 1064.4457088131458 945.5697403579268 L 1064.499658367021 945.674757604598 L 1064.5512821533691 945.7800134779309 L 1064.600575009855 945.8854974524257 L 1064.6475320072334 945.9911989797732 L 1064.6921484498444 946.0971074899085 L 1064.7344198760804 946.2032123920687 L 1064.7743420588342 946.3095030758525 L 1064.8119110059208 946.4159689122796 L 1064.847122960477 946.5225992548553 L 1064.8799744013363 946.6293834406342 L 1064.910462043382 946.7363107912867 L 1064.9385828378759 946.8433706141667 L 1064.9643339727613 946.9505522033814 L 1064.9877128729463 947.057844840861 L 1065.0087172005608 947.1652377974311 L 1065.0273448551889 947.2727203338858 L 1065.0435939740812 947.3802817020609 L 1065.0574629323391 947.487911145909 L 1065.0689503430783 947.5955979025757 L 1065.0780550575676 947.703331203475 L 1065.0847761653426 947.8111002753665 L 1065.0891129942988 947.9188943414329 L 1065.0910651107563 948.0267026223573 M 1065.0911861008124 982.3649710369178 L 1065.0899936409087 982.4727815818345 L 1065.0864163804426 982.5805813457864 L 1065.0804546771371 982.6883595488872 L 1065.072109127158 982.7961054134063 L 1065.0613805650528 982.903808164847 L 1065.048270063669 983.0114570330238 L 1065.0327789340456 983.1190412531399 L 1065.014908725283 983.2265500668627 L 1064.994661224387 983.3339727234005 L 1064.9720384560908 983.4412984805772 L 1064.9470426826524 983.5485166059063 L 1064.9196764036285 983.655616377665 L 1064.8899423556238 983.762587085965 L 1064.8578435120187 983.8694180338249 L 1064.8233830826705 983.9760985382387 L 1064.7865645135937 984.0826179312451 L 1064.7473914866146 984.1889655609932 L 1064.7058679190027 984.2951307928091 L 1064.6619979630807 984.4011030102578 L 1064.6157860058074 984.5068716162059 L 1064.56723666834 984.6124260338811 L 1064.516354805572 984.7177557079293 L 1064.463145505647 984.8228501054712 L 1064.4076140894508 984.9276987171544 L 1064.349766110079 985.0322910582053 L 1064.2896073522807 985.1366166694767 L 1064.227143831882 985.2406651184945 L 1064.162381795183 985.3444260005006 L 1064.0953277183328 985.4478889394933 L 1064.0259883066838 985.5510435892647 L 1063.9543704941193 985.653879634436 L 1063.8804814423606 985.7563867914882 L 1063.8043285402514 985.8585548097913 L 1063.7259194030187 985.9603734726282 L 1063.6452618715107 986.0618325982178 L 1063.5623640114131 986.1629220407319 L 1063.4772341124433 986.2636316913107 L 1063.38988068752 986.3639514790729 L 1063.3003124719128 986.4638713721233 L 1063.2085384223685 986.563381378556 L 1063.1145677162162 986.6624715474532 L 1063.0184097504477 986.7611319698805 L 1062.9200741407794 986.8593527798779 L 1062.8195707206908 986.9571241554464 L 1062.7169095404395 987.0544363195298 L 1062.6121008660584 987.1512795409928 L 1062.5051551783276 987.2476441355941 L 1062.3960831717268 987.3435204669544 L 1062.2848957533654 987.4388989475203 L 1062.1716040418928 987.5337700395236 L 1062.056219366386 987.6281242559338 L 1061.9387532652158 987.7219521614081 L 1061.819217484895 987.8152443732341 L 1061.6976239789017 987.9079915622683 L 1061.5739849064853 988.0001844538692 L 1061.4483126314499 988.0918138288243 L 1061.3206197209183 988.1828705242726 L 1061.1909189440755 988.2733454346205 L 1061.0592232708905 988.3632295124522 L 1060.9255458708212 988.4525137694349 L 1060.7899001114963 988.5411892772172 L 1060.6522995573785 988.6292471683223 L 1060.5127579684086 988.7166786370345 L 1060.3712892986293 988.8034749402799 L 1060.2279076947896 988.8896273985002 L 1060.0826274949302 988.9751273965215 L 1059.9354632269506 989.0599663844155 L 1059.7864296071543 989.1441358783537 L 1059.6355415387795 989.2276274614571 L 1059.4828141105072 989.310432784637 L 1059.3282625949528 989.3925435674298 L 1059.1719024471392 989.473951598826 L 1059.013749302951 989.5546487380901 L 1058.8538189775709 989.6346269155755 L 1058.6921274638976 989.7138781335309 L 1058.5286909309482 989.7923944669009 L 1058.3635257222397 989.8701680641173 L 1058.1966483541555 989.9471911478853 L 1058.028075514293 990.0234560159607 L 1057.8578240597958 990.0989550419202 L 1057.6859110156677 990.1736806759243 L 1057.5123535730697 990.2476254454716 L 1057.3371690876013 990.320781956147 L 1057.1603750775653 990.3931428923602 L 1056.9819892222151 990.464701018078 L 1056.802029359988 990.5354491775475 L 1056.6205134867198 990.6053802960116 L 1056.437459753847 990.6744873804168 L 1056.2528864665899 990.7427635201122 L 1056.0668120821238 990.8102018875408 L 1055.8792552077318 990.8767957389219 L 1055.6902345989452 990.942538414926 L 1055.4997691576673 991.0074233413403 L 1055.3078779302834 991.0714440297262 L 1055.1145801057567 991.1345940780682 L 1054.9198950137081 991.1968671714139 L 1054.723842122485 991.2582570825062 L 1054.5264410372129 991.318757672405 L 1054.3277114978357 991.3783628911017 L 1054.127673377142 991.4370667781241 L 1053.926346678777 991.4948634631323 L 1053.7237515352429 991.5517471665063 L 1053.5199082058853 991.6077121999228 L 1053.3148370748668 991.6627529669254 L 1053.1085586491301 991.7168639634831 L 1052.9010935563458 991.7700397785413 L 1052.69246254285 991.8222750945629 L 1052.4826864715706 991.8735646880598 L 1052.2717863199396 991.9239034301154 L 1052.0597831777966 991.9732862868973 L 1051.846698245279 992.0217083201612 L 1051.6325528307025 992.0691646877441 L 1051.4173683484303 992.1156506440486 L 1051.2011663167311 992.161161540518 L 1050.983968355628 992.2056928261005 L 1050.7657961847358 992.2492400477047 L 1050.5466716210904 992.2917988506446 L 1050.326616576965 992.3333649790754 L 1050.105653057681 992.3739342764192 L 1049.883803159406 992.4135026857796 L 1049.661089066945 992.4520662503489 L 1049.4375330515215 992.4896211138027 L 1049.213157468551 992.5261635206862 L 1048.9879847554046 992.5616898167888 L 1048.7620374291662 992.5961964495106 L 1048.53533808438 992.6296799682173 L 1048.3079093907916 992.6621370245846 L 1048.079774091081 992.6935643729341 L 1047.8509549985874 992.7239588705572 L 1047.6214749950302 992.7533174780293 L 1047.3913570282182 992.7816372595144 L 1047.160624109756 992.8089153830575 L 1046.9292993127438 992.8351491208695 L 1046.6974057694679 992.8603358495981 L 1046.4649666690898 992.8844730505915 L 1046.2320052553257 992.9075583101499 L 1045.9985448241227 992.9295893197663 L 1045.7646087213298 992.9505638763583 L 1045.530220340362 992.9704798824877 L 1045.295403119862 992.9893353465703 L 1045.0601805413562 993.0071283830756 L 1044.8245761269065 993.0238572127148 L 1044.5886134367584 993.0395201626187 L 1044.3523160669836 993.0541156665055 L 1044.1157076471225 993.0676422648369 L 1043.87881183782 993.0800986049644 L 1043.6416523284595 993.0914834412644 L 1043.4042528347943 993.1017956352625 L 1043.1666370965759 993.1110341557483 L 1042.9288288751802 993.1191980788772 L 1042.6908519512313 993.1262865882636 L 1042.4527301222229 993.1322989750627 L 1042.2144872001395 993.1372346380407 L 1041.9761470090752 993.1410930836355 L 1041.7377333828501 993.1438739260057 L 1041.4992701626286 993.1455768870693 L 1041.2607811945334 993.1462017965317 L 1041.022290327263 993.1457485919025 L 1040.783821409705 993.1442173185018 L 1040.5453982885529 993.1416081294556 L 1040.3070448059198 993.1379212856805 L 1040.0687847969555 993.1331571558582 L 1039.8306420874621 993.1273162163973 L 1039.5926404915124 993.120399051387 L 1039.3548038090676 993.1124063525382 L 1039.1171558235976 993.103338919114 L 1038.8797202997032 993.09319765785 L 1038.6425209807385 993.0819835828643 L 1038.405581586438 993.0696978155547 L 1038.1689258105437 993.0563415844879 L 1037.932577318436 993.0419162252757 L 1037.696559744767 993.0264231804422 L 1037.4608966910973 993.0098639992788 L 1037.2256117235363 992.9922403376899 L 1036.9907283703842 992.9735539580269 L 1036.756270119781 992.9538067289121 L 1036.522260417356 992.9330006250524 L 1036.2887226638848 992.9111377270403 L 1036.0556802129477 992.8882202211478 L 1035.823156368596 992.8642503991061 L 1035.5911743830202 992.8392306578777 L 1035.3597574542255 992.8131634994156 L 1035.128928723712 992.786051530414 L 1034.8987112741604 992.7578974620475 L 1034.669128127124 992.728704109699 L 1034.4402022407257 992.6984743926797 L 1034.2119565073638 992.667211333936 L 1033.984413751421 992.634918059748 L 1033.7575967269838 992.6015977994157 L 1033.5315281155652 992.5672538849378 L 1033.3062305238382 992.5318897506769 L 1033.0817264813743 992.495508933017 L 1032.8580384383904 992.4581150700097 L 1032.6351887635044 992.4197119010099 L 1032.4131997414984 992.3803032663027 L 1032.1920935710891 992.3398931067186 L 1031.97189236271 992.2984854632399 L 1031.7526181362975 992.2560844765965 L 1031.5342928190923 992.2126943868517 L 1031.3169382434442 992.1683195329783 L 1031.100576144629 992.1229643524248 L 1030.8852281586767 992.0766333806713 L 1030.6709158202063 992.0293312507764 L 1030.4576605602733 991.9810626929138 L 1030.2454837042258 991.9318325338991 L 1030.0344064695726 991.8816456967069 L 1029.8244499638613 991.8305071999793 L 1029.6156351825673 991.7784221575232 L 1029.407983006995 991.7253957777997 L 1029.2015142021887 991.6714333634025 L 1028.9962494148572 991.6165403105279 L 1028.7922091713076 991.5607221084355 L 1028.5894138753947 991.5039843388992 L 1028.387883806479 991.4463326756484 L 1028.1876391173992 991.3877728838015 L 1027.9886998324578 991.328310819289 L 1027.791085845417 991.2679524282676 L 1027.594816917511 991.2067037465262 L 1027.3999126754693 991.1445708988819 L 1027.2063926095532 991.0815600985677 L 1027.0142760716085 991.0176776466112 L 1026.8235822731287 990.9529299312043 L 1026.6343302833347 990.8873234270645 L 1026.4465390272678 990.8208646947877 L 1026.2602272838972 990.7535603801916 L 1026.0754136842418 990.6854172136517 L 1025.8921167095077 990.6164420094278 L 1025.7103546892395 990.5466416649829 L 1025.5301457994879 990.4760231602932 L 1025.3515080609916 990.4045935571503 L 1025.1744593373758 990.332359998455 L 1024.999017333365 990.2593297075031 L 1024.8251995930134 990.1855099872628 L 1024.6530234979505 990.1109082196444 L 1024.4825062656423 990.0355318647628 L 1024.3136649476696 989.9593884601904 L 1024.1465164280237 989.8824856202044 L 1023.9810774214174 989.8048310350247 L 1023.8173644716131 989.726432470045 L 1023.6553939497699 989.6472977650566 L 1023.4951820528046 989.5674348334638 L 1023.3367448017734 989.4868516614935 L 1023.1800980402696 989.4055563073956 L 1023.0252574328388 989.3235569006378 L 1022.8722384634125 989.2408616410924 L 1022.7210564337602 989.1574787982165 L 1022.5717264619589 989.0734167102248 L 1022.4242634808813 988.9886837832562 L 1022.2786822367028 988.9032884905328 L 1022.1349972874264 988.8172393715124 L 1021.9932230014272 988.7305450310356 L 1021.8533735560158 988.6432141384639 L 1021.71546293602 988.5552554268139 L 1021.579504932387 988.4666776918835 L 1021.4455131408039 988.3774897913723 L 1021.3135009603382 988.2877006439962 L 1021.1834815920978 988.1973192285949 L 1021.0554680379113 988.1063545832346 L 1020.9294730990274 988.0148158043044 L 1020.8055093748351 987.9227120456054 L 1020.6835892616034 987.830052517437 L 1020.563724951242 987.7368464856748 L 1020.4459284300821 987.6431032708443 L 1020.3302114776776 987.5488322471889 L 1020.2165856656273 987.4540428417323 L 1020.105062356418 987.358744533336 L 1019.9956527022873 987.2629468517516 L 1019.8883676441096 987.1666593766674 L 1019.7832179103013 987.0698917367506 L 1019.6802140157483 986.9726536086845 L 1019.579366260754 986.8749547162009 L 1019.4806847300099 986.7768048291078 L 1019.384179291587 986.678213762312 L 1019.2898595959485 986.5791913748379 L 1019.1977350749855 986.479747568842 L 1019.1078149410733 986.3798922886218 L 1019.0201081861504 986.2796355196222 L 1018.9346235808191 986.1789872874365 L 1018.8513696734689 986.0779576568041 L 1018.7703547894208 985.9765567306039 L 1018.691587030096 985.8747946488438 L 1018.6150742722048 985.7726815876475 L 1018.5408241669589 985.6702277582359 L 1018.4688441393074 985.5674434059065 L 1018.3991413871927 985.464338809009 L 1018.3317228808322 985.360924277917 L 1018.2665953620202 985.2572101539974 L 1018.2037653434543 985.1532068085766 L 1018.1432391080841 985.0489246419019 L 1018.0850227084826 984.9443740821034 L 1018.0291219662414 984.8395655841499 L 1017.9755424713879 984.7345096288037 L 1017.9242895818271 984.6292167215731 L 1017.8753684228053 984.5236973916608 L 1017.8287838863974 984.417962190912 L 1017.7845406310186 984.3120216927585 L 1017.7426430809571 984.2058864911621 L 1017.7030954259334 984.0995671995544 L 1017.6659016206797 983.9930744497758 L 1017.6310653845459 983.8864188910127 L 1017.5985902011262 983.7796111887321 L 1017.5684793179122 983.6726620236152 L 1017.5407357459669 983.5655820904893 L 1017.5153622596246 983.4583820972585 L 1017.4923613962126 983.3510727638329 L 1017.4717354557981 983.2436648210564 L 1017.453486500958 983.1361690096337 L 1017.4376163565726 983.0285960790565 L 1017.424126609643 982.9209567865279 L 1017.4130186091328 982.8132618958878 L 1017.4042934658328 982.7055221765353 L 1017.3979520522498 982.5977484023526 L 1017.3939950025202 982.4899513506274 L 1017.3924227123455 982.382141800975" stroke-miterlimit="10" stroke-width="2.7769845610000004" stroke-dasharray=""/></g><g><g/><text fill="black" stroke="none" font-family="sans-serif" font-size="11pt" font-style="normal" font-weight="normal" text-decoration="normal" x="1009.8638443365232" y="930.7947342188179" text-anchor="start" dominant-baseline="alphabetic" xml:space="preserve">Database</text></g></g><g><path fill="white" stroke="black" paint-order="fill stroke markers" d=" M 73.50841485 244.71619561881818 L 89.84361814999998 244.71619561881818 L 89.84361814999998 898.1243276188179 L 73.50841485 898.1243276188179 L 73.50841485 244.71619561881818" stroke-miterlimit="10" stroke-width="1.3612669416666667" stroke-dasharray=""/><path fill="white" stroke="black" paint-order="fill stroke markers" d=" M 575.1152620737629 244.71619561881818 L 591.450465373763 244.71619561881818 L 591.450465373763 832.7835144188178 L 575.1152620737629 832.7835144188178 L 575.1152620737629 244.71619561881818" stroke-miterlimit="10" stroke-width="1.3612669416666667" stroke-dasharray=""/><path fill="white" stroke="black" paint-order="fill stroke markers" d=" M 818.4182645871743 582.8549039288181 L 834.7534678871745 582.8549039288181 L 834.7534678871745 787.0449451788179 L 818.4182645871743 787.0449451788179 L 818.4182645871743 582.8549039288181" stroke-miterlimit="10" stroke-width="1.3612669416666667" stroke-dasharray=""/><path fill="white" stroke="black" paint-order="fill stroke markers" d=" M 1033.0741876328123 628.593473168818 L 1049.4093909328124 628.593473168818 L 1049.4093909328124 741.306375938818 L 1033.0741876328123 741.306375938818 L 1033.0741876328123 628.593473168818" stroke-miterlimit="10" stroke-width="1.3612669416666667" stroke-dasharray=""/><path fill="white" stroke="black" paint-order="fill stroke markers" d=" M 396.2216986472656 832.7835144188178 L 412.5569019472656 832.7835144188178 L 412.5569019472656 857.2863193688179 L 396.2216986472656 857.2863193688179 L 396.2216986472656 832.7835144188178" stroke-miterlimit="10" stroke-width="1.3612669416666667" stroke-dasharray=""/><g><text fill="black" stroke="none" font-family="sans-serif" font-size="16pt" font-style="normal" font-weight="normal" text-decoration="normal" x="515.0952758789062" y="24.651306798181814" text-anchor="start" dominant-baseline="alphabetic" xml:space="preserve">Nhnthngbo</text></g><path fill="white" stroke="black" paint-order="fill stroke markers" d=" M 66.97433353 161.40665878881816 L 404.38930029726566 161.40665878881816 L 419.09098326726564 176.10834175881817 L 419.09098326726564 198.97762637881817 L 66.97433353 198.97762637881817 L 66.97433353 161.40665878881816 M 404.38930029726566 161.40665878881816 L 404.38930029726566 176.10834175881817 L 419.09098326726564 176.10834175881817" stroke-miterlimit="10" stroke-width="1.3612669416666667" stroke-dasharray=""/><g><text fill="black" stroke="none" font-family="sans-serif" font-size="11pt" font-style="normal" font-weight="normal" text-decoration="normal" x="98.01121979999999" y="184.27594340881814" text-anchor="start" dominant-baseline="alphabetic" xml:space="preserve">Ngidngtohnhnggyrathngbo</text></g><g><rect fill="white" stroke="none" x="246.7722092384635" y="223.48043132881818" width="171.41446174683594" height="21.23576429"/><text fill="black" stroke="none" font-family="sans-serif" font-size="11pt" font-style="normal" font-weight="normal" text-decoration="normal" x="249.22248973346348" y="238.18211429881816" text-anchor="start" dominant-baseline="alphabetic" xml:space="preserve">Truycptrangtovn</text></g><g><path fill="none" stroke="black" paint-order="fill stroke markers" d=" M 89.84361814999998 244.71619561881818 L 561.6659446900962 244.71619561881818" stroke-miterlimit="10" stroke-width="1.3612669416666667" stroke-dasharray=""/><g transform="translate(575.1152620737629,244.71619561881818) translate(-575.1152620737629,-244.71619561881818)"><path fill="black" stroke="none" paint-order="stroke fill markers" d=" M 561.5025926570962 237.90986091048484 L 575.1152620737629 244.71619561881818 L 561.5025926570962 251.52253032715151 Z"/></g></g><g><rect fill="white" stroke="none" x="246.09217841570958" y="269.21900056881816" width="172.77452339234375" height="21.23576429"/><text fill="black" stroke="none" font-family="sans-serif" font-size="11pt" font-style="normal" font-weight="normal" text-decoration="normal" x="248.54245891070957" y="283.92068353881814" text-anchor="start" dominant-baseline="alphabetic" xml:space="preserve">Hinthformnhpvn</text></g><g><path fill="none" stroke="black" paint-order="fill stroke markers" d=" M 575.1152620737629 290.4547648588182 L 103.29293553366665 290.4547648588182" stroke-miterlimit="10" stroke-width="1.3612669416666667" stroke-dasharray=""/><g transform="translate(89.84361814999998,290.4547648588182) translate(-89.84361814999998,-290.4547648588182)"><path fill="black" stroke="none" paint-order="stroke fill markers" d=" M 103.45628756666665 283.64843015048484 L 89.84361814999998 290.4547648588182 L 103.45628756666665 297.2610995671515 Z"/></g></g><g><rect fill="white" stroke="none" x="282.34842688983065" y="314.95756980881816" width="100.26202644410156" height="21.23576429"/><text fill="black" stroke="none" font-family="sans-serif" font-size="11pt" font-style="normal" font-weight="normal" text-decoration="normal" x="284.79870738483066" y="329.65925277881814" text-anchor="start" dominant-baseline="alphabetic" xml:space="preserve">Nhpthngtin</text></g><g><path fill="none" stroke="black" paint-order="fill stroke markers" d=" M 89.84361814999998 336.1933340988182 L 561.6659446900962 336.1933340988182" stroke-miterlimit="10" stroke-width="1.3612669416666667" stroke-dasharray=""/><g transform="translate(575.1152620737629,336.1933340988182) translate(-575.1152620737629,-336.1933340988182)"><path fill="black" stroke="none" paint-order="stroke fill markers" d=" M 561.5025926570962 329.38699939048485 L 575.1152620737629 336.1933340988182 L 561.5025926570962 342.9996688071515 Z"/></g></g><g><rect fill="white" stroke="none" x="610.7804559454297" y="360.6961390488182" width="117.10524238648438" height="21.23576429"/><text fill="black" stroke="none" font-family="sans-serif" font-size="11pt" font-style="normal" font-weight="normal" text-decoration="normal" x="613.2307364404297" y="375.3978220188182" text-anchor="start" dominant-baseline="alphabetic" xml:space="preserve">Validatethngtin</text></g><g><path fill="none" stroke="black" paint-order="fill stroke markers" d=" M 591.450465373763 381.9319033388182 L 656.791278573763 381.9319033388182 L 656.791278573763 403.1676676288182 L 604.8997827574296 403.1676676288182" stroke-miterlimit="10" stroke-width="1.3612669416666667" stroke-dasharray=""/><g transform="translate(591.450465373763,403.1676676288182) translate(-591.450465373763,-403.1676676288182)"><path fill="black" stroke="none" paint-order="stroke fill markers" d=" M 605.0631347904297 396.36133292048487 L 591.450465373763 403.1676676288182 L 605.0631347904297 409.97400233715155 Z"/></g></g><g><rect fill="white" stroke="none" x="285.6089859718619" y="471.7755214888182" width="93.74090828003906" height="21.23576429"/><text fill="black" stroke="none" font-family="sans-serif" font-size="11pt" font-style="normal" font-weight="normal" text-decoration="normal" x="288.0592664668619" y="486.47720445881816" text-anchor="start" dominant-baseline="alphabetic" xml:space="preserve">Thngboli</text></g><g><path fill="none" stroke="black" paint-order="fill stroke markers" d=" M 575.1152620737629 493.0112857788182 L 103.29293553366665 493.0112857788182" stroke-miterlimit="10" stroke-width="1.3612669416666667" stroke-dasharray=""/><g transform="translate(89.84361814999998,493.0112857788182) translate(-89.84361814999998,-493.0112857788182)"><path fill="black" stroke="none" paint-order="stroke fill markers" d=" M 103.45628756666665 486.20495107048487 L 89.84361814999998 493.0112857788182 L 103.45628756666665 499.81762048715154 Z"/></g></g><g><rect fill="white" stroke="none" x="660.0896753057812" y="561.6191396388181" width="89.689379349375" height="21.23576429"/><text fill="black" stroke="none" font-family="sans-serif" font-size="11pt" font-style="normal" font-weight="normal" text-decoration="normal" x="662.5399558007812" y="576.320822608818" text-anchor="start" dominant-baseline="alphabetic" xml:space="preserve">Githngtin</text></g><g><path fill="none" stroke="black" paint-order="fill stroke markers" d=" M 591.450465373763 582.8549039288181 L 804.9689472035077 582.8549039288181" stroke-miterlimit="10" stroke-width="1.3612669416666667" stroke-dasharray=""/><g transform="translate(818.4182645871743,582.8549039288181) translate(-818.4182645871743,-582.8549039288181)"><path fill="black" stroke="none" paint-order="stroke fill markers" d=" M 804.8055951705077 576.0485692204848 L 818.4182645871743 582.8549039288181 L 804.8055951705077 589.6612386371514 Z"/></g></g><g><rect fill="white" stroke="none" x="889.0691380853059" y="607.357708878818" width="89.689379349375" height="21.23576429"/><text fill="black" stroke="none" font-family="sans-serif" font-size="11pt" font-style="normal" font-weight="normal" text-decoration="normal" x="891.5194185803059" y="622.059391848818" text-anchor="start" dominant-baseline="alphabetic" xml:space="preserve">Githngtin</text></g><g><path fill="none" stroke="black" paint-order="fill stroke markers" d=" M 834.7534678871745 628.593473168818 L 1019.6248702491456 628.593473168818" stroke-miterlimit="10" stroke-width="1.3612669416666667" stroke-dasharray=""/><g transform="translate(1033.0741876328123,628.593473168818) translate(-1033.0741876328123,-628.593473168818)"><path fill="black" stroke="none" paint-order="stroke fill markers" d=" M 1019.4615182161456 621.7871384604847 L 1033.0741876328123 628.593473168818 L 1019.4615182161456 635.3998078771514 Z"/></g></g><g><rect fill="white" stroke="none" x="1068.739381504479" y="653.096278118818" width="91.33575691285156" height="21.23576429"/><text fill="black" stroke="none" font-family="sans-serif" font-size="11pt" font-style="normal" font-weight="normal" text-decoration="normal" x="1071.189661999479" y="667.7979610888179" text-anchor="start" dominant-baseline="alphabetic" xml:space="preserve">Luthngtin</text></g><g><path fill="none" stroke="black" paint-order="fill stroke markers" d=" M 1049.4093909328124 674.332042408818 L 1114.7502041328123 674.332042408818 L 1114.7502041328123 695.567806698818 L 1062.8587083164791 695.567806698818" stroke-miterlimit="10" stroke-width="1.3612669416666667" stroke-dasharray=""/><g transform="translate(1049.4093909328124,695.567806698818) translate(-1049.4093909328124,-695.567806698818)"><path fill="black" stroke="none" paint-order="stroke fill markers" d=" M 1063.022060349479 688.7614719904847 L 1049.4093909328124 695.567806698818 L 1063.022060349479 702.3741414071513 Z"/></g></g><g><rect fill="white" stroke="none" x="854.083458458841" y="720.0706116488179" width="159.6607386023047" height="21.23576429"/><text fill="black" stroke="none" font-family="sans-serif" font-size="11pt" font-style="normal" font-weight="normal" text-decoration="normal" x="856.5337389538411" y="734.7722946188179" text-anchor="start" dominant-baseline="alphabetic" xml:space="preserve">Thngboclu</text></g><g><path fill="none" stroke="black" paint-order="fill stroke markers" d=" M 1033.0741876328123 741.306375938818 L 848.2027852708411 741.306375938818" stroke-miterlimit="10" stroke-width="1.3612669416666667" stroke-dasharray="6.53408132"/><g transform="translate(834.7534678871745,741.306375938818) translate(-834.7534678871745,-741.306375938818)"><path fill="black" stroke="none" paint-order="stroke fill markers" d=" M 848.3661373038411 734.5000412304846 L 834.7534678871745 741.306375938818 L 848.3661373038411 748.1127106471513 Z"/></g></g><g><rect fill="white" stroke="none" x="610.7804559454296" y="765.8091808888179" width="188.30781807007813" height="21.23576429"/><text fill="black" stroke="none" font-family="sans-serif" font-size="11pt" font-style="normal" font-weight="normal" text-decoration="normal" x="613.2307364404296" y="780.5108638588179" text-anchor="start" dominant-baseline="alphabetic" xml:space="preserve">GithngboquaFirebase</text></g><g><path fill="none" stroke="black" paint-order="fill stroke markers" d=" M 818.4182645871743 787.0449451788179 L 604.8997827574296 787.0449451788179" stroke-miterlimit="10" stroke-width="1.3612669416666667" stroke-dasharray=""/><g transform="translate(591.450465373763,787.0449451788179) translate(-591.450465373763,-787.0449451788179)"><path fill="black" stroke="none" paint-order="stroke fill markers" d=" M 605.0631347904297 780.2386104704846 L 591.450465373763 787.0449451788179 L 605.0631347904297 793.8512798871512 Z"/></g></g><g><rect fill="white" stroke="none" x="431.8868925189322" y="811.5477501288178" width="123.89837898316406" height="21.23576429"/><text fill="black" stroke="none" font-family="sans-serif" font-size="11pt" font-style="normal" font-weight="normal" text-decoration="normal" x="434.3371730139322" y="826.2494330988178" text-anchor="start" dominant-baseline="alphabetic" xml:space="preserve">Hinththngbo</text></g><g><path fill="none" stroke="black" paint-order="fill stroke markers" d=" M 575.1152620737629 832.7835144188178 L 426.00621933093225 832.7835144188178" stroke-miterlimit="10" stroke-width="1.3612669416666667" stroke-dasharray=""/><g transform="translate(412.5569019472656,832.7835144188178) translate(-412.5569019472656,-832.7835144188178)"><path fill="black" stroke="none" paint-order="stroke fill markers" d=" M 426.1695713639323 825.9771797104845 L 412.5569019472656 832.7835144188178 L 426.1695713639323 839.5898491271512 Z"/></g></g><g><g/><path fill="none" stroke="black" paint-order="fill stroke markers" d=" M 16.33520329999999 427.6704725788182 L 1165.7924595723307 427.6704725788182 L 1165.7924595723307 857.2863193688179 L 16.33520329999999 857.2863193688179 L 16.33520329999999 427.6704725788182 Z" stroke-miterlimit="10" stroke-width="2.3336004714285714" stroke-dasharray=""/><path fill="white" stroke="black" paint-order="fill stroke markers" d=" M 16.33520329999999 427.6704725788182 L 16.33520329999999 447.2727165388182 L 62.6944068970703 447.2727165388182 L 72.4955288770703 437.4715945588182 L 72.4955288770703 427.6704725788182 L 16.33520329999999 427.6704725788182" stroke-miterlimit="10" stroke-width="2.3336004714285714" stroke-dasharray=""/><text fill="black" stroke="none" font-family="sans-serif" font-size="8.8pt" font-style="normal" font-weight="bold" text-decoration="normal" x="32.67040659999999" y="440.7386352188182" text-anchor="start" dominant-baseline="alphabetic" xml:space="preserve">alt</text><g><rect fill="white" stroke="none" x="86.3804516820703" y="428.9772888428182" width="161.93805183472656" height="16.988611432000003"/></g><text fill="black" stroke="none" font-family="sans-serif" font-size="8.8pt" font-style="normal" font-weight="bold" text-decoration="normal" x="88.8307321770703" y="440.7386352188182" text-anchor="start" dominant-baseline="alphabetic" xml:space="preserve">[Thngtinkhngchnhxc]</text><g><path fill="none" stroke="black" paint-order="fill stroke markers" d=" M 16.33520329999999 517.5140907288181 L 1165.7924595723305 517.5140907288181" stroke-miterlimit="10" stroke-width="2.3336004714285714" stroke-dasharray="4.083800825"/></g><g/><g><rect fill="white" stroke="none" x="86.3804516820703" y="518.8209069928181" width="123.49484504761719" height="16.988611432000003"/></g><text fill="black" stroke="none" font-family="sans-serif" font-size="8.8pt" font-style="normal" font-weight="bold" text-decoration="normal" x="88.8307321770703" y="530.5822533688181" text-anchor="start" dominant-baseline="alphabetic" xml:space="preserve">[Thngtinchnhxc]</text></g><g/></g><g/><g/><g/><g/><g/></g></svg>