<svg xmlns="http://www.w3.org/2000/svg" xmlns:xlink="http://www.w3.org/1999/xlink" version="1.1" width="1188.9440283839845" height="763.3589003938182"><desc>title%20L%E1%BA%A5y%20danh%20s%C3%A1ch%20ph%C3%B2ng%20theo%20nh%C3%A0%2F%20t%E1%BA%A7ng%0A%0Abottomparticipants%0A%0Aactor%20Landlord%0Aentity%20Client%0Aentity%20Backend%0Adatabase%20Database%0A%0Aactivate%20Landlord%0Aactivate%20Client%0A%0ALandlord%20-%3E%20Client%3A%20Ch%E1%BB%8Dn%20nh%C3%A0%2F%20t%E1%BA%A7ng%20%C4%91%E1%BB%83%20xem%20danh%20s%C3%A1ch%20ph%C3%B2ng%0A%0Aactivate%20Backend%0AClient%20-%3E%20Backend%3A%20G%E1%BB%ADi%20y%C3%AAu%20c%E1%BA%A7u%20l%E1%BA%A5y%20danh%20s%C3%A1ch%20ph%C3%B2ng%20theo%20nh%C3%A0%2F%20t%E1%BA%A7ng%0A%0Aactivate%20Database%0ABackend%20-%3E%20Database%3A%20Truy%20v%E1%BA%A5n%20danh%20s%C3%A1ch%20ph%C3%B2ng%20theo%20nh%C3%A0%2F%20t%E1%BA%A7ng%0A%0ADatabase%20--%3E%20Backend%3A%20Tr%E1%BA%A3%20v%E1%BB%81%20danh%20s%C3%A1ch%20ph%C3%B2ng%0A%0Adeactivate%20Database%0A%0Aalt%20Danh%20s%C3%A1ch%20kh%C3%B4ng%20tr%E1%BB%91ng%0A%20%20Backend%20--%3E%20Client%3A%20Tr%E1%BA%A3%20v%E1%BB%81%20danh%20s%C3%A1ch%20ph%C3%B2ng%20%C4%91%C3%A3%20l%E1%BB%8Dc%0A%20%20Client%20--%3E%20Landlord%3A%20Hi%E1%BB%83n%20th%E1%BB%8B%20danh%20s%C3%A1ch%20ph%C3%B2ng%0Aelse%20Danh%20s%C3%A1ch%20tr%E1%BB%91ng%0A%20%20Backend%20--%3E%20Client%3A%20Tr%E1%BA%A3%20v%E1%BB%81%20th%C3%B4ng%20b%C3%A1o%20danh%20s%C3%A1ch%20tr%E1%BB%91ng%0A%20%20Client%20--%3E%20Landlord%3A%20Hi%E1%BB%83n%20th%E1%BB%8B%20th%C3%B4ng%20b%C3%A1o%20%22Kh%C3%B4ng%20c%C3%B3%20ph%C3%B2ng%20ph%C3%B9%20h%E1%BB%A3p%22%0Aend%0A%0Adeactivate%20Backend%0Adeactivate%20Client%0Adeactivate%20Landlord%0A</desc><defs/><g><g/><g/><g/><g/><g/><g/><g/><g/><g/><g/><g/><g/><g/><g/><g/><g/><g/><g/><g/><g/><g/><g/><g/><g/><g/><g/><g/><g/><g/><g/><g/><g/><g/><g/><g/><g/><g/><g/><g/><g/><g/><g/><g/><g/><g/><g/><g/><g/><g/><g/><g/><g/><g/><g/><g/><g/><g/><g/><g/><g/><g/><g/><g/><g/><g/><g/><g/><g/><g/><g/><g/><g/><g/><g/><g/><g/><g/><g/><g/><g/><g/><g/><g/><g/><g/><g/><g/><g/><g/><g/><g/><g/><g/><g/><g/><g/><g/><g/><g/><g/><g/><g/><g/><g/><g/><g/><g/><g/><g/><g/><g/><g/><g/><g/><g/><g/><g/><g/><g/><g/><g/><g/><g/><g/><g/><g/><g/><g/><g/><g/><g/><g/><g><rect fill="white" stroke="none" x="0" y="0" width="1188" height="763"/></g><g/><g><path fill="none" stroke="black" paint-order="fill stroke markers" d=" M 81.67601649999999 128.73625218881818 L 81.67601649999999 672.6985220788182" stroke-miterlimit="10" stroke-width="1.3612669416666667" stroke-dasharray="12.565541,5.445067766666667"/><path fill="none" stroke="black" paint-order="fill stroke markers" d=" M 440.36195358372396 128.73625218881818 L 440.36195358372396 672.6985220788182" stroke-miterlimit="10" stroke-width="1.3612669416666667" stroke-dasharray="12.565541,5.445067766666667"/><path fill="none" stroke="black" paint-order="fill stroke markers" d=" M 817.3442163510417 128.73625218881818 L 817.3442163510417 672.6985220788182" stroke-miterlimit="10" stroke-width="1.3612669416666667" stroke-dasharray="12.565541,5.445067766666667"/><path fill="none" stroke="black" paint-order="fill stroke markers" d=" M 1148.1060201339844 128.73625218881818 L 1148.1060201339844 672.6985220788182" stroke-miterlimit="10" stroke-width="1.3612669416666667" stroke-dasharray="12.565541,5.445067766666667"/></g><g><g><path fill="white" stroke="black" paint-order="fill stroke markers" d=" M 90.987082381 59.63834222981819 A 9.311065881 9.311065881 0 1 1 90.98707772546743 59.62903116548903 M 81.67601649999999 68.9494081108182 L 81.67601649999999 88.8783561368182 M 69.914670124 76.13689756281819 L 93.43736287599998 76.13689756281819 M 81.67601649999999 88.8783561368182 L 69.914670124 107.50048789881819 M 81.67601649999999 88.8783561368182 L 93.43736287599998 107.50048789881819" stroke-miterlimit="10" stroke-width="2.7769845610000004" stroke-dasharray=""/></g><g><g/><text fill="black" stroke="none" font-family="sans-serif" font-size="11pt" font-style="normal" font-weight="normal" text-decoration="normal" x="53.1470400595703" y="123.83569119881818" text-anchor="start" dominant-baseline="alphabetic" xml:space="preserve">Landlord</text></g><g><path fill="white" stroke="black" paint-order="fill stroke markers" d=" M 464.61973048422396 79.63263106901819 A 24.2577769005 24.2577769005 0 1 1 464.61971835533654 79.60837329616064 M 414.715684402724 106.11199561831819 L 466.00822276472394 106.11199561831819" stroke-miterlimit="10" stroke-width="2.7769845610000004" stroke-dasharray=""/></g><g><g/><text fill="black" stroke="none" font-family="sans-serif" font-size="11pt" font-style="normal" font-weight="normal" text-decoration="normal" x="421.6218031320638" y="123.83569119881818" text-anchor="start" dominant-baseline="alphabetic" xml:space="preserve">Client</text></g><g><path fill="white" stroke="black" paint-order="fill stroke markers" d=" M 841.6019932515417 79.63263106901819 A 24.2577769005 24.2577769005 0 1 1 841.6019811226543 79.60837329616064 M 791.6979471700417 106.11199561831819 L 842.9904855320417 106.11199561831819" stroke-miterlimit="10" stroke-width="2.7769845610000004" stroke-dasharray=""/></g><g><g/><text fill="black" stroke="none" font-family="sans-serif" font-size="11pt" font-style="normal" font-weight="normal" text-decoration="normal" x="788.8188180966472" y="123.83569119881818" text-anchor="start" dominant-baseline="alphabetic" xml:space="preserve">Backend</text></g><g><path fill="white" stroke="black" paint-order="fill stroke markers" d=" M 1124.2566233159844 96.71925372081819 L 1124.2566233159844 62.41532679081819 L 1171.9554169519845 62.41532679081819 L 1171.9554169519845 96.71925372081819" stroke-miterlimit="10" stroke-width="2.7769845610000004" stroke-dasharray=""/><path fill="white" stroke="black" paint-order="fill stroke markers" d=" M 1171.9554169519845 61.22285694991819 L 1171.9542244920808 61.33066749483481 L 1171.9506472316148 61.43846725878678 L 1171.9446855283093 61.546245461887544 L 1171.9363399783301 61.65399132640659 L 1171.925611416225 61.761694077847274 L 1171.912500914841 61.86934294602419 L 1171.8970097852177 61.976927166140236 L 1171.8791395764551 62.084435979863045 L 1171.8588920755592 62.19185863640084 L 1171.836269307263 62.299184393577484 L 1171.8112735338245 62.4064025189067 L 1171.7839072548006 62.51350229066531 L 1171.754173206796 62.62047299896537 L 1171.7220743631908 62.7273039468252 L 1171.6876139338426 62.83398445123905 L 1171.6507953647658 62.94050384424536 L 1171.6116223377867 63.04685147399361 L 1171.5700987701748 63.15301670580944 L 1171.5262288142528 63.25898892325815 L 1171.4800168569795 63.364757529206294 L 1171.4314675195121 63.47031194688142 L 1171.3805856567442 63.575641620929716 L 1171.327376356819 63.68073601847156 L 1171.271844940623 63.78558463015478 L 1171.213996961251 63.89017697120557 L 1171.1538382034528 63.994502582477 L 1171.091374683054 64.09855103149486 L 1171.026612646355 64.20231191350096 L 1170.959558569505 64.3057748524936 L 1170.8902191578559 64.40892950226505 L 1170.8186013452914 64.51176554743633 L 1170.7447122935328 64.61427270448858 L 1170.6685593914235 64.71644072279157 L 1170.5901502541908 64.81825938562858 L 1170.5094927226828 64.91971851121816 L 1170.4265948625853 65.02080795373233 L 1170.3414649636154 65.12151760431107 L 1170.254111538692 65.22183739207324 L 1170.164543323085 65.32175728512367 L 1170.0727692735406 65.42126729155632 L 1169.9787985673884 65.52035746045347 L 1169.8826406016199 65.6190178828808 L 1169.7843049919516 65.71723869287828 L 1169.683801571863 65.81501006844678 L 1169.5811403916116 65.91232223253022 L 1169.4763317172306 66.00916545399325 L 1169.3693860294998 66.10553004859446 L 1169.260314022899 66.20140637995469 L 1169.1491266045375 66.29678486052069 L 1169.035834893065 66.39165595252388 L 1168.920450217558 66.48601016893414 L 1168.802984116388 66.57983807440844 L 1168.6834483360672 66.67313028623443 L 1168.5618548300738 66.76587747526865 L 1168.4382157576574 66.85807036686953 L 1168.312543482622 66.94969974182469 L 1168.1848505720905 67.04075643727302 L 1168.0551497952476 67.13123134762085 L 1167.9234541220626 67.22111542545254 L 1167.7897767219933 67.3103996824352 L 1167.6541309626684 67.39907519021754 L 1167.5165304085506 67.4871330813227 L 1167.3769888195807 67.57456455003492 L 1167.2355201498015 67.6613608532802 L 1167.0921385459617 67.74751331150055 L 1166.9468583461023 67.83301330952195 L 1166.7996940781227 67.91785229741582 L 1166.6506604583265 68.00202179135408 L 1166.4997723899517 68.08551337445749 L 1166.3470449616793 68.1683186976373 L 1166.192493446125 68.25042948043021 L 1166.0361332983114 68.33183751182635 L 1165.8779801541232 68.41253465109044 L 1165.718049828743 68.4925128285758 L 1165.5563583150697 68.5717640465313 L 1165.3929217821203 68.65028037990122 L 1165.2277565734119 68.72805397711764 L 1165.0608792053276 68.80507706088565 L 1164.8923063654652 68.88134192896105 L 1164.722054910968 68.95684095492061 L 1164.5501418668398 69.03156658892462 L 1164.3765844242419 69.10551135847197 L 1164.2013999387734 69.17866786914732 L 1164.0246059287374 69.25102880536058 L 1163.8462200733873 69.3225869310784 L 1163.66626021116 69.39333509054786 L 1163.484744337892 69.46326620901198 L 1163.301690605019 69.53237329341717 L 1163.117117317762 69.60064943311258 L 1162.9310429332959 69.66808780054113 L 1162.743486058904 69.7346816519223 L 1162.5544654501173 69.80042432792644 L 1162.3640000088394 69.86530925434072 L 1162.1721087814556 69.92932994272657 L 1161.9788109569288 69.9924799910685 L 1161.7841258648803 70.05475308441433 L 1161.588072973657 70.1161429955066 L 1161.390671888385 70.17664358540536 L 1161.1919423490078 70.23624880410202 L 1160.991904228314 70.29495269112441 L 1160.7905775299491 70.35274937613272 L 1160.587982386415 70.40963307950663 L 1160.3841390570574 70.46559811292322 L 1160.179067926039 70.52063887992576 L 1159.9727895003023 70.57474987648341 L 1159.765324407518 70.62792569154163 L 1159.5566933940222 70.68016100756323 L 1159.3469173227427 70.73145060106012 L 1159.1360171711117 70.78178934311569 L 1158.9240140289687 70.8311721998977 L 1158.710929096451 70.8795942331616 L 1158.4967836818746 70.92705060074444 L 1158.2815991996024 70.973536557049 L 1158.0653971679033 71.01904745351838 L 1157.8481992068 71.06357873910088 L 1157.630027035908 71.10712596070502 L 1157.4109024722625 71.14968476364494 L 1157.1908474281372 71.19125089207583 L 1156.969883908853 71.23182018941947 L 1156.748034010578 71.27138859877994 L 1156.525319918117 71.30995216334925 L 1156.3017639026937 71.34750702680313 L 1156.077388319723 71.38404943368649 L 1155.8522156065767 71.4195757297891 L 1155.6262682803383 71.45408236251096 L 1155.3995689355522 71.48756588121756 L 1155.1721402419637 71.52002293758491 L 1154.944004942253 71.55145028593446 L 1154.7151858497596 71.58184478355753 L 1154.4857058462023 71.61120339102969 L 1154.2555878793903 71.63952317251467 L 1154.0248549609282 71.66680129605793 L 1153.7935301639159 71.69303503386982 L 1153.56163662064 71.71822176259843 L 1153.329197520262 71.7423589635919 L 1153.0962361064978 71.7654442231502 L 1152.8627756752949 71.78747523276665 L 1152.6288395725019 71.80844978935863 L 1152.394451191534 71.82836579548797 L 1152.159633971034 71.84722125957065 L 1151.9244113925283 71.86501429607597 L 1151.6888069780787 71.8817431257151 L 1151.4528442879305 71.89740607561903 L 1151.2165469181557 71.91200157950583 L 1150.9799384982946 71.92552817783725 L 1150.743042688992 71.93798451796474 L 1150.5058831796316 71.94936935426468 L 1150.2684836859664 71.95968154826289 L 1150.030867947748 71.96892006874862 L 1149.7930597263523 71.97708399187748 L 1149.5550828024034 71.98417250126396 L 1149.316960973395 71.99018488806304 L 1149.0787180513116 71.99512055104105 L 1148.8403778602474 71.99897899663581 L 1148.6019642340223 72.00175983900598 L 1148.3635010138007 72.00346280006961 L 1148.1250120457055 72.00408770953204 L 1147.886521178435 72.00363450490285 L 1147.6480522608772 72.0021032315021 L 1147.409629139725 71.99949404245586 L 1147.1712756570919 71.9958071986809 L 1146.9330156481276 71.99104306885846 L 1146.6948729386343 71.98520212939759 L 1146.4568713426845 71.97828496438737 L 1146.2190346602397 71.97029226553852 L 1145.9813866747697 71.96122483211428 L 1145.7439511508753 71.95108357085043 L 1145.5067518319106 71.93986949586466 L 1145.2698124376102 71.92758372855508 L 1145.0331566617158 71.91422749748824 L 1144.796808169608 71.89980213827607 L 1144.5607905959391 71.8843090934425 L 1144.3251275422695 71.86774991227908 L 1144.0898425747084 71.85012625069015 L 1143.8549592215563 71.83143987102717 L 1143.6205009709531 71.81169264191253 L 1143.386491268528 71.79088653805269 L 1143.1529535150569 71.7690236400407 L 1142.9199110641198 71.74610613414815 L 1142.6873872197682 71.72213631210651 L 1142.4554052341923 71.69711657087802 L 1142.2239883053976 71.67104941241597 L 1141.9931595748842 71.64393744341446 L 1141.7629421253325 71.6157833750478 L 1141.533358978296 71.58659002269937 L 1141.3044330918979 71.55636030568009 L 1141.076187358536 71.52509724693644 L 1140.8486446025931 71.49280397274828 L 1140.621827578156 71.45948371241609 L 1140.3957589667373 71.42513979793813 L 1140.1704613750103 71.38977566367726 L 1139.9459573325464 71.35339484601741 L 1139.7222692895625 71.31600098301004 L 1139.4994196146765 71.27759781401028 L 1139.2774305926705 71.23818917930303 L 1139.0563244222612 71.19777901971894 L 1138.836123213882 71.15637137624027 L 1138.6168489874697 71.11397038959687 L 1138.3985236702645 71.07058029985207 L 1138.1811690946163 71.02620544597868 L 1137.9648069958012 70.98085026542512 L 1137.7494590098488 70.93451929367163 L 1137.5351466713785 70.8872171637768 L 1137.3218914114454 70.8389486059142 L 1137.1097145553979 70.78971844689937 L 1136.8986373207447 70.7395316097072 L 1136.6886808150334 70.6883931129796 L 1136.4798660337394 70.6363080705236 L 1136.272213858167 70.58328169080006 L 1136.0657450533608 70.52931927640276 L 1135.8604802660293 70.47442622352818 L 1135.6564400224797 70.41860802143584 L 1135.4536447265668 70.36187025189946 L 1135.2521146576512 70.3042185886487 L 1135.0518699685713 70.24565879680183 L 1134.85293068363 70.18619673228926 L 1134.6553166965891 70.12583834126788 L 1134.4590477686831 70.06458965952649 L 1134.2641435266414 70.00245681188221 L 1134.0706234607253 69.93944601156807 L 1133.8785069227806 69.87556355961155 L 1133.6878131243009 69.81081584420461 L 1133.4985611345069 69.74520934006487 L 1133.31076987844 69.67875060778805 L 1133.1244581350693 69.61144629319199 L 1132.939644535414 69.54330312665208 L 1132.7563475606798 69.47432792242817 L 1132.5745855404116 69.40452757798322 L 1132.39437665066 69.3339090732935 L 1132.2157389121637 69.26247947015062 L 1132.038690188548 69.19024591145539 L 1131.863248184537 69.11721562050347 L 1131.6894304441855 69.0433959002631 L 1131.5172543491226 68.96879413264479 L 1131.3467371168144 68.89341777776313 L 1131.1778957988417 68.81727437319081 L 1131.0107472791958 68.74037153320482 L 1130.8453082725894 68.66271694802508 L 1130.6815953227854 68.58431838304537 L 1130.519624800942 68.5051836780569 L 1130.3594129039766 68.4253207464642 L 1130.2009756529455 68.34473757449386 L 1130.0443288914419 68.26344222039596 L 1129.889488284011 68.18144281363814 L 1129.7364693145846 68.09874755409275 L 1129.5852872849323 68.01536471121685 L 1129.435957313131 67.9313026232252 L 1129.2884943320535 67.84656969625658 L 1129.142913087875 67.76117440353308 L 1128.9992281385985 67.67512528451279 L 1128.8574538525993 67.5884309440359 L 1128.7176044071878 67.50110005146425 L 1128.5796937871921 67.41314133981427 L 1128.443735783559 67.32456360488388 L 1128.3097439919761 67.23537570437271 L 1128.1777318115103 67.14558655699653 L 1128.04771244327 67.05520514159522 L 1127.9196988890835 66.96424049623502 L 1127.7937039501996 66.87270171730466 L 1127.6697402260072 66.78059795860575 L 1127.5478201127755 66.68793843043741 L 1127.427955802414 66.59473239867523 L 1127.310159281254 66.50098918384472 L 1127.1944423288496 66.40671816018926 L 1127.0808165167996 66.31192875473263 L 1126.96929320759 66.2166304463364 L 1126.8598835534594 66.120832764752 L 1126.7525984952817 66.02454528966774 L 1126.6474487614735 65.92777764975091 L 1126.5444448669205 65.83053952168484 L 1126.4435971119262 65.73284062920132 L 1126.344915581182 65.63469074210818 L 1126.2484101427592 65.53609967531233 L 1126.1540904471206 65.4370772878383 L 1126.0619659261577 65.33763348184232 L 1125.9720457922454 65.23777820162212 L 1125.8843390373224 65.13752143262249 L 1125.7988544319912 65.03687320043682 L 1125.7156005246409 64.93584356980442 L 1125.634585640593 64.83444264360419 L 1125.5558178812682 64.73268056184422 L 1125.479305123377 64.63056750064791 L 1125.4050550181312 64.52811367123628 L 1125.3330749904794 64.42532931890689 L 1125.2633722383648 64.32222472200931 L 1125.1959537320042 64.21881019091732 L 1125.1308262131922 64.11509606699785 L 1125.0679961946264 64.01109272157687 L 1125.0074699592562 63.90681055490224 L 1124.9492535596548 63.80225999510374 L 1124.8933528174134 63.697451497150205 L 1124.83977332256 63.59239554180411 L 1124.7885204329993 63.48710263457343 L 1124.7395992739773 63.381583304661156 L 1124.6930147375697 63.27584810391234 L 1124.6487714821906 63.16990760575894 L 1124.6068739321292 63.06377240416249 L 1124.5673262771054 62.95745311255472 L 1124.5301324718519 62.85096036277616 L 1124.495296235718 62.744304804013076 L 1124.4628210522983 62.63749710173245 L 1124.4327101690842 62.530547936615505 L 1124.404966597139 62.423468003489624 L 1124.3795931107966 62.316268010258895 L 1124.3565922473847 62.208958676833305 L 1124.3359663069702 62.10155073405677 L 1124.31771735213 61.99405492263407 L 1124.3018472077447 61.88648199205676 L 1124.2883574608152 61.77884269952825 L 1124.277249460305 61.6711478088881 L 1124.268524317005 61.56340808953563 L 1124.262182903422 61.45563431535299 L 1124.2582258536922 61.34783726362778 L 1124.2566535635176 61.24002771397536 L 1124.2574661901256 61.13221644726084 L 1124.2606636522542 61.02441424452105 L 1124.2662456301598 60.916631885886424 L 1124.2742115656495 60.808880149503025 L 1124.2845606621363 60.70116981045468 L 1124.297291884719 60.59351163968555 L 1124.3124039602862 60.48591640292299 L 1124.3298953776427 60.378394859601016 L 1124.3497643876615 60.27095776178435 L 1124.3720090034583 60.163615853093255 L 1124.3966270005897 60.05637986762915 L 1124.4236159172767 59.949260528901206 L 1124.45297305465 59.84226854875404 L 1124.4846954770205 59.7354146262965 L 1124.5187800121723 59.62870944683179 L 1124.5552232516804 59.52216368078894 L 1124.5940215512512 59.41578798265577 L 1124.6351710310869 59.30959298991343 L 1124.678667576274 59.203589321972714 L 1124.724506837194 59.09778757911208 L 1124.7726842299592 58.992198341417634 L 1124.8231949368703 58.88683216772516 L 1124.876033906899 58.78169959456423 L 1124.931195856192 58.67681113510454 L 1124.9886752686007 58.57217727810464 L 1125.0484663962316 58.46780848686303 L 1125.1105632600215 58.36371519817185 L 1125.174959650336 58.25990782127324 L 1125.2416491275897 58.15639673681838 L 1125.3106250228905 58.053192295829454 L 1125.3818804387063 57.950304818664556 L 1125.455408249555 57.84774459398567 L 1125.5312011027165 57.745521877729786 L 1125.609251418969 57.64364689208335 L 1125.6895513933457 57.54212982446004 L 1125.7720929959162 57.44098082648201 L 1125.856867972589 57.340210012964775 L 1125.943867845937 57.2398274609057 L 1126.0330839160454 57.13984320847635 L 1126.1245072613813 57.040267254018644 L 1126.2181287396868 56.94110955504505 L 1126.313938988892 56.84238002724283 L 1126.4119284280516 56.74408854348249 L 1126.5120872583034 56.646244932830506 L 1126.6144054638478 56.54885897956639 L 1126.7188728129497 56.45194042220433 L 1126.825478858961 56.35549895251929 L 1126.9342129413665 56.25954421457787 L 1127.0450641868479 56.16408580377391 L 1127.1580215103731 56.06913326586893 L 1127.2730736163041 55.974696096037604 L 1127.3902089995263 55.88078373791821 L 1127.509415946599 55.7874055826683 L 1127.6306825369263 55.694570968025594 L 1127.7539966439506 55.60228917737418 L 1127.8793459363642 55.51056943881623 L 1128.0067178793417 55.41942092424918 L 1128.1360997357956 55.328852748448504 L 1128.2674785676477 55.23887396815633 L 1128.4008412371243 55.14949358117568 L 1128.5361744080697 55.0607205254708 L 1128.6734645472795 54.97256367827326 L 1128.8126979258543 54.88503185519433 L 1128.9538606205722 54.79813380934336 L 1129.0969385152814 54.71187823045254 L 1129.2419173023115 54.62627374400786 L 1129.3887824839048 54.541328910386646 L 1129.5375193736654 54.45705222400146 L 1129.6881130980285 54.373452112450714 L 1129.8405485977466 54.290536935675895 L 1129.9948106293975 54.20831498512558 L 1130.1508837669062 54.12679448292632 L 1130.308752403089 54.0459835810604 L 1130.468400751214 53.965890360550645 L 1130.6298128465792 53.88652283065238 L 1130.7929725481094 53.80788892805245 L 1130.9578635399712 53.72999651607559 L 1131.1244693332021 53.652853383898076 L 1131.2927732673618 53.57646724576885 L 1131.462758512197 53.50084574023808 L 1131.6344080693254 53.42599642939328 L 1131.8077047739337 53.35192679810317 L 1131.9826312964963 53.278644253269164 L 1132.1591701445063 53.20615612308466 L 1132.3373036642265 53.13446965630228 L 1132.517014042453 53.06359202150896 L 1132.698283308298 52.99353030640911 L 1132.8810933349857 52.924291517115876 L 1133.065425841666 52.85588257745046 L 1133.2512623952416 52.78831032824984 L 1133.438584412212 52.72158152668263 L 1133.6273731605322 52.65570284557336 L 1133.817609761484 52.590680872735255 L 1134.009275191566 52.52652211031142 L 1134.2023502843952 52.463232974124615 L 1134.3968157326228 52.40081979303573 L 1134.5926520898663 52.33928880831086 L 1134.7898397726533 52.278646172997206 L 1134.9883590623795 52.21889795130775 L 1135.1881901072813 52.160050118014894 L 1135.3893129244213 52.1021085578529 L 1135.591707401685 52.045079064929524 L 1135.795353299793 51.98896734214652 L 1136.000230254326 51.933779000629414 L 1136.2063177777586 51.87951955916637 L 1136.4135952615106 51.826194443656306 L 1136.622041978006 51.77380898656634 L 1136.8316370827472 51.72236842639853 L 1137.0423596163982 51.67187790716602 L 1137.2541885068813 51.622342477878675 L 1137.4671025714838 51.57376709203812 L 1137.6810805189768 51.526156607142475 L 1137.896100951744 51.47951578420055 L 1138.1121423679213 51.43384928725578 L 1138.329183163547 51.38916168291979 L 1138.5472016347221 51.34545743991578 L 1138.7661759797818 51.302740928631636 L 1138.9860843014735 51.261016420682886 L 1139.2069046091488 51.220288088485546 L 1139.4286148209603 51.18056000483891 L 1139.6511927660722 51.14183614251822 L 1139.8746161868753 51.10412037387746 L 1140.0988627412135 51.06741647046204 L 1140.3239100046185 51.03172810263173 L 1140.5497354725512 50.99705883919358 L 1140.7763165626532 50.96341214704502 L 1141.0036306170043 50.930791390827245 L 1141.2316549043885 50.899199832588685 L 1141.4603666225669 50.86864063145883 L 1141.6897429005585 50.83911684333235 L 1141.9197608009265 50.81063142056343 L 1142.1503973220726 50.78318721167063 L 1142.3816294005371 50.75678696105195 L 1142.6134339133046 50.731433308710464 L 1142.845787680117 50.70712878999027 L 1143.078667465791 50.683875835323 L 1143.3120499825427 50.66167676998473 L 1143.5459118923143 50.6405338138635 L 1143.78022980911 50.6204490812373 L 1144.0149803013337 50.60142458056266 L 1144.2501398941313 50.583462214273794 L 1144.4856850717397 50.566563778592354 L 1144.7215922798373 50.55073096334783 L 1144.9578379279 50.53596535180856 L 1145.1943983915598 50.52226842052339 L 1145.4312500149676 50.50964153917403 L 1145.6683691131582 50.49808597043808 L 1145.9057319744197 50.48760286986282 L 1146.1433148626634 50.47819328574954 L 1146.3810940197989 50.46985815904882 L 1146.6190456681081 50.462598323266384 L 1146.857146012625 50.456414504379765 L 1147.095371243513 50.45130732076569 L 1147.333697538448 50.44727728313828 L 1147.572101064999 50.444324794497916 L 1147.810557983012 50.44245015009101 L 1148.0490444469938 50.44165353738045 L 1148.2875366084968 50.44193503602685 L 1148.5260106185037 50.443294617880554 L 1148.764442629812 50.445732146984525 L 1149.0028087994194 50.44924737958788 L 1149.241085290908 50.45383996417029 L 1149.4792482768262 50.459509441477124 L 1149.7172739410748 50.46625524456538 L 1149.9551384812853 50.474076698860365 L 1150.192818111202 50.48297302222316 L 1150.43028906306 50.49294332502887 L 1150.667527589962 50.50398661025549 L 1150.904509968253 50.51610177358371 L 1151.1412124998926 50.52928760350731 L 1151.3776115148248 50.54354278145426 L 1151.6136833733453 50.55886588191867 L 1151.849404468465 50.575255372603245 L 1152.0847512282708 50.592709614572584 L 1152.3197001182825 50.61122686241703 L 1152.5542276438075 50.630805264427224 L 1152.7883103522881 50.651442862779284 L 1153.0219248356489 50.67313759373059 L 1153.255047732636 50.695887287826096 L 1153.487655731154 50.71968967011537 L 1153.7197255705971 50.74454236038002 L 1153.9512340441747 50.77044287337172 L 1154.182158001232 50.797388619060754 L 1154.4124743495663 50.825376902895016 L 1154.6421600577341 50.85440492606945 L 1154.8711921573565 50.88446978580591 L 1155.0995477454142 50.9155684756435 L 1155.3272039865387 50.947697885739125 L 1155.5541381152955 50.980854803178566 L 1155.780327438461 51.01503591229771 L 1156.005749337291 51.05023779501413 L 1156.2303812697842 51.08645693116888 L 1156.4542007729337 51.12368969887854 L 1156.6771854649762 51.16193237489736 L 1156.8993130476283 51.201181134989596 L 1157.1205613083168 51.241432054311964 L 1157.3409081224 51.28268110780607 L 1157.5603314553798 51.32492417060092 L 1157.7788093651063 51.368157018425464 L 1157.9963200039701 51.41237532803093 L 1158.212841621089 51.45757467762322 L 1158.4283525644814 51.503750547305025 L 1158.6428312832327 51.55089831952786 L 1158.8562563296496 51.5990132795538 L 1159.0686063614055 51.64809061592693 L 1159.2798601436741 51.69812542095451 L 1159.4899965512534 51.749112691197745 L 1159.6989945706775 51.801047327972086 L 1159.9068333023185 51.85392413785714 L 1160.113491962477 51.90773783321599 L 1160.3189498854586 51.962483032723924 L 1160.5231865256426 52.01815426190663 L 1160.726181459535 52.07474595368758 L 1160.9279143878116 52.132252448944755 L 1161.1283651373476 52.190667997076545 L 1161.3275136632353 52.24998675657682 L 1161.525340050788 52.310202795619055 L 1161.7218245175316 52.371310092649544 L 1161.9169474151831 52.43330253698949 L 1162.1106892316159 52.49617392944612 L 1162.3030305928094 52.559917982932596 L 1162.4939522647878 52.62452832309667 L 1162.683435155543 52.68999848895818 L 1162.871460316944 52.7563219335551 L 1163.058008946631 52.823492024598224 L 1163.2430623898967 52.89150204513444 L 1163.426602141551 52.960345194218355 L 1163.6086098477717 53.03001458759244 L 1163.7890673079396 53.10050325837541 L 1163.9679564764594 53.171804157758935 L 1164.1452594645634 53.243910155712484 L 1164.3209585421 53.31681404169635 L 1164.4950361393085 53.39050852538269 L 1164.6674748485736 53.46498623738456 L 1164.8382574261686 53.5402397299928 L 1165.007366793978 53.61626147792087 L 1165.1747860412056 53.69304387905734 L 1165.3404984260665 53.770579255226075 L 1165.5044873774602 53.848859852954064 L 1165.6667364966281 53.92787784424677 L 1165.8272295587938 54.00762532737092 L 1165.9859505147845 54.08809432764465 L 1166.142883492637 54.16927679823499 L 1166.2980127991846 54.251164620962534 L 1166.4513229216252 54.33374960711325 L 1166.602798529075 54.41702349825734 L 1166.7524244740991 54.500977967075094 L 1166.900185794228 54.58560461818958 L 1167.0460677134524 54.670894989006214 L 1167.1900556437024 54.75684055055899 L 1167.3321351863046 54.84343270836337 L 1167.4722921334233 54.93066280327574 L 1167.6105124694805 55.0185221123593 L 1167.7467823725578 55.107001849756344 L 1167.8810882157786 55.196093167566886 L 1168.0134165686704 55.28578715673337 L 1168.143754198508 55.37607484793163 L 1168.2720880716374 55.46694721246779 L 1168.398405354778 55.55839516318112 L 1168.5226934163068 55.65040955535275 L 1168.6449398275213 55.742981187620146 L 1168.765132363882 55.83610080289723 L 1168.8832590062354 55.92975908930006 L 1168.9993079420162 56.02394668107806 L 1169.113267566427 56.11865415955053 L 1169.2251264836007 56.213872054048544 L 1169.3348735077386 56.30959084286201 L 1169.4424976642297 56.405800954191804 L 1169.5479881907481 56.50249276710697 L 1169.6513345383294 56.5996566125068 L 1169.7525263724242 56.69728277408771 L 1169.851553573934 56.79536148931491 L 1169.9484062402212 56.89388295039859 L 1170.0430746860995 56.99283730527477 L 1170.1355494448035 57.09221465859041 L 1170.2258212689342 57.19200507269298 L 1170.3138811313845 57.29219856862425 L 1170.3997202262417 57.39278512711811 L 1170.4833299696675 57.49375468960253 L 1170.5647020007575 57.59509715920541 L 1170.6438281823764 57.69680240176424 L 1170.7207006019719 57.79886024683951 L 1170.795311572366 57.90126048873177 L 1170.867653632524 58.003992887502164 L 1170.9377195483003 58.10704716999642 L 1171.0055023131613 58.21041303087217 L 1171.0709951488873 58.31408013362946 L 1171.1341915062492 58.41803811164441 L 1171.1950850656638 58.52227656920584 L 1171.2536697378264 58.62678508255487 L 1171.3099396643179 58.731553200927245 L 1171.3638892181932 58.83657044759845 L 1171.4155130045413 58.94182632093131 L 1171.4648058610271 59.04731029542622 L 1171.5117628584055 59.153011822773635 L 1171.5563793010165 59.25892033290889 L 1171.5986507272526 59.36502523506925 L 1171.6385729100064 59.471315918852895 L 1171.676141857093 59.57778175528004 L 1171.7113538116491 59.684412097855756 L 1171.7442052525084 59.79119628363465 L 1171.7746928945542 59.89812363428712 L 1171.802813689048 60.005183457167206 L 1171.8285648239334 60.11236504638185 L 1171.8519437241184 60.21965768386144 L 1171.872948051733 60.327050640431644 L 1171.891575706361 60.43453317688629 L 1171.9078248252533 60.5420945450613 L 1171.9216937835113 60.6497239889095 L 1171.9331811942504 60.757410745576195 L 1171.9422859087397 60.86514404647545 L 1171.9490070165148 60.972913118366954 L 1171.953343845471 61.08070718443333 L 1171.9552959619284 61.188515465357796 M 1171.9554169519845 95.52678387991818 L 1171.9542244920808 95.6345944248348 L 1171.9506472316148 95.74239418878678 L 1171.9446855283093 95.85017239188754 L 1171.9363399783301 95.95791825640659 L 1171.925611416225 96.06562100784727 L 1171.912500914841 96.1732698760242 L 1171.8970097852177 96.28085409614023 L 1171.8791395764551 96.38836290986303 L 1171.8588920755592 96.49578556640084 L 1171.836269307263 96.60311132357748 L 1171.8112735338245 96.7103294489067 L 1171.7839072548006 96.8174292206653 L 1171.754173206796 96.92439992896537 L 1171.7220743631908 97.0312308768252 L 1171.6876139338426 97.13791138123905 L 1171.6507953647658 97.24443077424536 L 1171.6116223377867 97.35077840399362 L 1171.5700987701748 97.45694363580944 L 1171.5262288142528 97.56291585325815 L 1171.4800168569795 97.66868445920629 L 1171.4314675195121 97.77423887688141 L 1171.3805856567442 97.8795685509297 L 1171.327376356819 97.98466294847155 L 1171.271844940623 98.08951156015478 L 1171.213996961251 98.19410390120557 L 1171.1538382034528 98.29842951247699 L 1171.091374683054 98.40247796149485 L 1171.026612646355 98.50623884350097 L 1170.959558569505 98.60970178249359 L 1170.8902191578559 98.71285643226504 L 1170.8186013452914 98.81569247743631 L 1170.7447122935328 98.91819963448859 L 1170.6685593914235 99.02036765279156 L 1170.5901502541908 99.12218631562857 L 1170.5094927226828 99.22364544121817 L 1170.4265948625853 99.32473488373233 L 1170.3414649636154 99.42544453431107 L 1170.254111538692 99.52576432207324 L 1170.164543323085 99.62568421512367 L 1170.0727692735406 99.72519422155631 L 1169.9787985673884 99.82428439045346 L 1169.8826406016199 99.92294481288079 L 1169.7843049919516 100.02116562287829 L 1169.683801571863 100.11893699844678 L 1169.5811403916116 100.2162491625302 L 1169.4763317172306 100.31309238399325 L 1169.3693860294998 100.40945697859446 L 1169.260314022899 100.50533330995468 L 1169.1491266045375 100.60071179052068 L 1169.035834893065 100.69558288252388 L 1168.920450217558 100.78993709893413 L 1168.802984116388 100.88376500440843 L 1168.6834483360672 100.97705721623441 L 1168.5618548300738 101.06980440526866 L 1168.4382157576574 101.16199729686952 L 1168.312543482622 101.25362667182469 L 1168.1848505720905 101.34468336727302 L 1168.0551497952476 101.43515827762084 L 1167.9234541220626 101.52504235545253 L 1167.7897767219933 101.61432661243519 L 1167.6541309626684 101.70300212021755 L 1167.5165304085506 101.7910600113227 L 1167.3769888195807 101.87849148003492 L 1167.2355201498015 101.9652877832802 L 1167.0921385459617 102.05144024150056 L 1166.9468583461023 102.13694023952193 L 1166.7996940781227 102.22177922741581 L 1166.6506604583265 102.30594872135407 L 1166.4997723899517 102.38944030445748 L 1166.3470449616793 102.47224562763729 L 1166.192493446125 102.5543564104302 L 1166.0361332983114 102.63576444182635 L 1165.8779801541232 102.71646158109044 L 1165.718049828743 102.79643975857579 L 1165.5563583150697 102.8756909765313 L 1165.3929217821203 102.95420730990122 L 1165.2277565734119 103.03198090711763 L 1165.0608792053276 103.10900399088564 L 1164.8923063654652 103.18526885896105 L 1164.722054910968 103.2607678849206 L 1164.5501418668398 103.33549351892461 L 1164.3765844242419 103.40943828847196 L 1164.2013999387734 103.48259479914732 L 1164.0246059287374 103.55495573536056 L 1163.8462200733873 103.6265138610784 L 1163.66626021116 103.69726202054787 L 1163.484744337892 103.76719313901197 L 1163.301690605019 103.83630022341715 L 1163.117117317762 103.90457636311257 L 1162.9310429332959 103.97201473054113 L 1162.743486058904 104.03860858192229 L 1162.5544654501173 104.10435125792642 L 1162.3640000088394 104.1692361843407 L 1162.1721087814556 104.23325687272656 L 1161.9788109569288 104.29640692106851 L 1161.7841258648803 104.35868001441433 L 1161.588072973657 104.4200699255066 L 1161.390671888385 104.48057051540535 L 1161.1919423490078 104.54017573410202 L 1160.991904228314 104.5988796211244 L 1160.7905775299491 104.65667630613272 L 1160.587982386415 104.71356000950664 L 1160.3841390570574 104.7695250429232 L 1160.179067926039 104.82456580992574 L 1159.9727895003023 104.87867680648341 L 1159.765324407518 104.93185262154162 L 1159.5566933940222 104.98408793756322 L 1159.3469173227427 105.0353775310601 L 1159.1360171711117 105.08571627311568 L 1158.9240140289687 105.13509912989768 L 1158.710929096451 105.1835211631616 L 1158.4967836818746 105.23097753074444 L 1158.2815991996024 105.27746348704899 L 1158.0653971679033 105.32297438351839 L 1157.8481992068 105.36750566910086 L 1157.630027035908 105.41105289070501 L 1157.4109024722625 105.45361169364494 L 1157.1908474281372 105.49517782207583 L 1156.969883908853 105.53574711941947 L 1156.748034010578 105.57531552877992 L 1156.525319918117 105.61387909334925 L 1156.3017639026937 105.65143395680312 L 1156.077388319723 105.68797636368647 L 1155.8522156065767 105.72350265978909 L 1155.6262682803383 105.75800929251095 L 1155.3995689355522 105.79149281121755 L 1155.1721402419637 105.82394986758491 L 1154.944004942253 105.85537721593445 L 1154.7151858497596 105.88577171355752 L 1154.4857058462023 105.9151303210297 L 1154.2555878793903 105.94345010251467 L 1154.0248549609282 105.97072822605791 L 1153.7935301639159 105.99696196386981 L 1153.56163662064 106.02214869259844 L 1153.329197520262 106.04628589359189 L 1153.0962361064978 106.0693711531502 L 1152.8627756752949 106.09140216276666 L 1152.6288395725019 106.11237671935864 L 1152.394451191534 106.13229272548797 L 1152.159633971034 106.15114818957065 L 1151.9244113925283 106.16894122607596 L 1151.6888069780787 106.1856700557151 L 1151.4528442879305 106.20133300561903 L 1151.2165469181557 106.21592850950582 L 1150.9799384982946 106.22945510783724 L 1150.743042688992 106.24191144796474 L 1150.5058831796316 106.25329628426466 L 1150.2684836859664 106.2636084782629 L 1150.030867947748 106.2728469987486 L 1149.7930597263523 106.28101092187747 L 1149.5550828024034 106.28809943126396 L 1149.316960973395 106.29411181806304 L 1149.0787180513116 106.29904748104106 L 1148.8403778602474 106.30290592663582 L 1148.6019642340223 106.30568676900597 L 1148.3635010138007 106.30738973006962 L 1148.1250120457055 106.30801463953205 L 1147.886521178435 106.30756143490284 L 1147.6480522608772 106.3060301615021 L 1147.409629139725 106.30342097245587 L 1147.1712756570919 106.29973412868088 L 1146.9330156481276 106.29496999885845 L 1146.6948729386343 106.28912905939758 L 1146.4568713426845 106.28221189438736 L 1146.2190346602397 106.27421919553852 L 1145.9813866747697 106.26515176211427 L 1145.7439511508753 106.25501050085043 L 1145.5067518319106 106.24379642586464 L 1145.2698124376102 106.23151065855508 L 1145.0331566617158 106.21815442748823 L 1144.796808169608 106.20372906827606 L 1144.5607905959391 106.1882360234425 L 1144.3251275422695 106.17167684227908 L 1144.0898425747084 106.15405318069014 L 1143.8549592215563 106.13536680102716 L 1143.6205009709531 106.11561957191253 L 1143.386491268528 106.09481346805269 L 1143.1529535150569 106.0729505700407 L 1142.9199110641198 106.05003306414814 L 1142.6873872197682 106.0260632421065 L 1142.4554052341923 106.00104350087803 L 1142.2239883053976 105.97497634241597 L 1141.9931595748842 105.94786437341445 L 1141.7629421253325 105.9197103050478 L 1141.533358978296 105.89051695269937 L 1141.3044330918979 105.86028723568009 L 1141.076187358536 105.82902417693644 L 1140.8486446025931 105.79673090274827 L 1140.621827578156 105.76341064241608 L 1140.3957589667373 105.72906672793813 L 1140.1704613750103 105.69370259367726 L 1139.9459573325464 105.6573217760174 L 1139.7222692895625 105.61992791301003 L 1139.4994196146765 105.58152474401028 L 1139.2774305926705 105.54211610930304 L 1139.0563244222612 105.50170594971894 L 1138.836123213882 105.46029830624026 L 1138.6168489874697 105.41789731959686 L 1138.3985236702645 105.37450722985206 L 1138.1811690946163 105.33013237597868 L 1137.9648069958012 105.28477719542511 L 1137.7494590098488 105.23844622367163 L 1137.5351466713785 105.1911440937768 L 1137.3218914114454 105.14287553591419 L 1137.1097145553979 105.09364537689936 L 1136.8986373207447 105.0434585397072 L 1136.6886808150334 104.99232004297959 L 1136.4798660337394 104.9402350005236 L 1136.272213858167 104.88720862080007 L 1136.0657450533608 104.83324620640276 L 1135.8604802660293 104.77835315352817 L 1135.6564400224797 104.72253495143585 L 1135.4536447265668 104.66579718189945 L 1135.2521146576512 104.60814551864868 L 1135.0518699685713 104.54958572680184 L 1134.85293068363 104.49012366228926 L 1134.6553166965891 104.42976527126788 L 1134.4590477686831 104.36851658952648 L 1134.2641435266414 104.30638374188221 L 1134.0706234607253 104.24337294156805 L 1133.8785069227806 104.17949048961154 L 1133.6878131243009 104.11474277420461 L 1133.4985611345069 104.04913627006486 L 1133.31076987844 103.98267753778805 L 1133.1244581350693 103.91537322319199 L 1132.939644535414 103.84723005665208 L 1132.7563475606798 103.77825485242818 L 1132.5745855404116 103.70845450798322 L 1132.39437665066 103.63783600329349 L 1132.2157389121637 103.56640640015061 L 1132.038690188548 103.49417284145538 L 1131.863248184537 103.42114255050346 L 1131.6894304441855 103.3473228302631 L 1131.5172543491226 103.27272106264479 L 1131.3467371168144 103.19734470776314 L 1131.1778957988417 103.1212013031908 L 1131.0107472791958 103.04429846320481 L 1130.8453082725894 102.96664387802507 L 1130.6815953227854 102.88824531304537 L 1130.519624800942 102.8091106080569 L 1130.3594129039766 102.72924767646418 L 1130.2009756529455 102.64866450449387 L 1130.0443288914419 102.56736915039596 L 1129.889488284011 102.48536974363815 L 1129.7364693145846 102.40267448409276 L 1129.5852872849323 102.31929164121684 L 1129.435957313131 102.2352295532252 L 1129.2884943320535 102.15049662625658 L 1129.142913087875 102.06510133353308 L 1128.9992281385985 101.97905221451278 L 1128.8574538525993 101.89235787403591 L 1128.7176044071878 101.80502698146424 L 1128.5796937871921 101.71706826981428 L 1128.443735783559 101.62849053488388 L 1128.3097439919761 101.53930263437272 L 1128.1777318115103 101.44951348699652 L 1128.04771244327 101.35913207159521 L 1127.9196988890835 101.26816742623502 L 1127.7937039501996 101.17662864730465 L 1127.6697402260072 101.08452488860574 L 1127.5478201127755 100.9918653604374 L 1127.427955802414 100.89865932867522 L 1127.310159281254 100.80491611384473 L 1127.1944423288496 100.71064509018925 L 1127.0808165167996 100.61585568473262 L 1126.96929320759 100.5205573763364 L 1126.8598835534594 100.424759694752 L 1126.7525984952817 100.32847221966773 L 1126.6474487614735 100.2317045797509 L 1126.5444448669205 100.13446645168483 L 1126.4435971119262 100.03676755920131 L 1126.344915581182 99.93861767210817 L 1126.2484101427592 99.84002660531232 L 1126.1540904471206 99.7410042178383 L 1126.0619659261577 99.64156041184232 L 1125.9720457922454 99.54170513162211 L 1125.8843390373224 99.4414483626225 L 1125.7988544319912 99.34080013043682 L 1125.7156005246409 99.23977049980442 L 1125.634585640593 99.13836957360418 L 1125.5558178812682 99.03660749184422 L 1125.479305123377 98.9344944306479 L 1125.4050550181312 98.83204060123627 L 1125.3330749904794 98.72925624890688 L 1125.2633722383648 98.6261516520093 L 1125.1959537320042 98.52273712091731 L 1125.1308262131922 98.41902299699785 L 1125.0679961946264 98.31501965157686 L 1125.0074699592562 98.21073748490224 L 1124.9492535596548 98.10618692510373 L 1124.8933528174134 98.0013784271502 L 1124.83977332256 97.89632247180411 L 1124.7885204329993 97.79102956457344 L 1124.7395992739773 97.68551023466115 L 1124.6930147375697 97.57977503391233 L 1124.6487714821906 97.47383453575894 L 1124.6068739321292 97.3676993341625 L 1124.5673262771054 97.2613800425547 L 1124.5301324718519 97.15488729277617 L 1124.495296235718 97.04823173401307 L 1124.4628210522983 96.94142403173245 L 1124.4327101690842 96.8344748666155 L 1124.404966597139 96.72739493348962 L 1124.3795931107966 96.6201949402589 L 1124.3565922473847 96.51288560683331 L 1124.3359663069702 96.40547766405678 L 1124.31771735213 96.29798185263407 L 1124.3018472077447 96.19040892205675 L 1124.2883574608152 96.08276962952824 L 1124.277249460305 95.9750747388881 L 1124.268524317005 95.86733501953563 L 1124.262182903422 95.75956124535298 L 1124.2582258536922 95.65176419362778 L 1124.2566535635176 95.54395464397535" stroke-miterlimit="10" stroke-width="2.7769845610000004" stroke-dasharray=""/></g><g><g/><text fill="black" stroke="none" font-family="sans-serif" font-size="11pt" font-style="normal" font-weight="normal" text-decoration="normal" x="1116.7280751876954" y="123.83569119881818" text-anchor="start" dominant-baseline="alphabetic" xml:space="preserve">Database</text></g><g><path fill="white" stroke="black" paint-order="fill stroke markers" d=" M 90.987082381 704.6338445303182 A 9.311065881 9.311065881 0 1 1 90.98707772546743 704.6245334659891 M 81.67601649999999 713.9449104113182 L 81.67601649999999 733.8738584373182 M 69.914670124 721.1323998633183 L 93.43736287599998 721.1323998633183 M 81.67601649999999 733.8738584373182 L 69.914670124 752.4959901993183 M 81.67601649999999 733.8738584373182 L 93.43736287599998 752.4959901993183" stroke-miterlimit="10" stroke-width="2.7769845610000004" stroke-dasharray=""/></g><g><g/><text fill="black" stroke="none" font-family="sans-serif" font-size="11pt" font-style="normal" font-weight="normal" text-decoration="normal" x="53.1470400595703" y="689.0337253788182" text-anchor="start" dominant-baseline="alphabetic" xml:space="preserve">Landlord</text></g><g><path fill="white" stroke="black" paint-order="fill stroke markers" d=" M 464.61973048422396 720.1359524620182 A 24.2577769005 24.2577769005 0 1 1 464.61971835533654 720.1116946891606 M 414.715684402724 746.6153170113181 L 466.00822276472394 746.6153170113181" stroke-miterlimit="10" stroke-width="2.7769845610000004" stroke-dasharray=""/></g><g><g/><text fill="black" stroke="none" font-family="sans-serif" font-size="11pt" font-style="normal" font-weight="normal" text-decoration="normal" x="421.6218031320638" y="689.0337253788182" text-anchor="start" dominant-baseline="alphabetic" xml:space="preserve">Client</text></g><g><path fill="white" stroke="black" paint-order="fill stroke markers" d=" M 841.6019932515417 720.1359524620182 A 24.2577769005 24.2577769005 0 1 1 841.6019811226543 720.1116946891606 M 791.6979471700417 746.6153170113181 L 842.9904855320417 746.6153170113181" stroke-miterlimit="10" stroke-width="2.7769845610000004" stroke-dasharray=""/></g><g><g/><text fill="black" stroke="none" font-family="sans-serif" font-size="11pt" font-style="normal" font-weight="normal" text-decoration="normal" x="788.8188180966472" y="689.0337253788182" text-anchor="start" dominant-baseline="alphabetic" xml:space="preserve">Backend</text></g><g><path fill="white" stroke="black" paint-order="fill stroke markers" d=" M 1124.2566233159844 741.7964320378181 L 1124.2566233159844 707.492505107818 L 1171.9554169519845 707.492505107818 L 1171.9554169519845 741.7964320378181" stroke-miterlimit="10" stroke-width="2.7769845610000004" stroke-dasharray=""/><path fill="white" stroke="black" paint-order="fill stroke markers" d=" M 1171.9554169519845 706.300035266918 L 1171.9542244920808 706.4078458118347 L 1171.9506472316148 706.5156455757866 L 1171.9446855283093 706.6234237788874 L 1171.9363399783301 706.7311696434065 L 1171.925611416225 706.8388723948472 L 1171.912500914841 706.946521263024 L 1171.8970097852177 707.0541054831401 L 1171.8791395764551 707.1616142968629 L 1171.8588920755592 707.2690369534007 L 1171.836269307263 707.3763627105774 L 1171.8112735338245 707.4835808359065 L 1171.7839072548006 707.5906806076651 L 1171.754173206796 707.6976513159652 L 1171.7220743631908 707.8044822638251 L 1171.6876139338426 707.9111627682389 L 1171.6507953647658 708.0176821612451 L 1171.6116223377867 708.1240297909934 L 1171.5700987701748 708.2301950228093 L 1171.5262288142528 708.336167240258 L 1171.4800168569795 708.4419358462061 L 1171.4314675195121 708.5474902638813 L 1171.3805856567442 708.6528199379295 L 1171.327376356819 708.7579143354714 L 1171.271844940623 708.8627629471546 L 1171.213996961251 708.9673552882055 L 1171.1538382034528 709.0716808994769 L 1171.091374683054 709.1757293484947 L 1171.026612646355 709.2794902305008 L 1170.959558569505 709.3829531694935 L 1170.8902191578559 709.4861078192649 L 1170.8186013452914 709.5889438644361 L 1170.7447122935328 709.6914510214884 L 1170.6685593914235 709.7936190397915 L 1170.5901502541908 709.8954377026284 L 1170.5094927226828 709.996896828218 L 1170.4265948625853 710.0979862707321 L 1170.3414649636154 710.1986959213109 L 1170.254111538692 710.299015709073 L 1170.164543323085 710.3989356021235 L 1170.0727692735406 710.4984456085562 L 1169.9787985673884 710.5975357774533 L 1169.8826406016199 710.6961961998807 L 1169.7843049919516 710.7944170098781 L 1169.683801571863 710.8921883854466 L 1169.5811403916116 710.98950054953 L 1169.4763317172306 711.086343770993 L 1169.3693860294998 711.1827083655943 L 1169.260314022899 711.2785846969546 L 1169.1491266045375 711.3739631775205 L 1169.035834893065 711.4688342695238 L 1168.920450217558 711.563188485934 L 1168.802984116388 711.6570163914083 L 1168.6834483360672 711.7503086032343 L 1168.5618548300738 711.8430557922685 L 1168.4382157576574 711.9352486838694 L 1168.312543482622 712.0268780588245 L 1168.1848505720905 712.1179347542728 L 1168.0551497952476 712.2084096646207 L 1167.9234541220626 712.2982937424524 L 1167.7897767219933 712.387577999435 L 1167.6541309626684 712.4762535072174 L 1167.5165304085506 712.5643113983225 L 1167.3769888195807 712.6517428670347 L 1167.2355201498015 712.7385391702801 L 1167.0921385459617 712.8246916285004 L 1166.9468583461023 712.9101916265217 L 1166.7996940781227 712.9950306144157 L 1166.6506604583265 713.0792001083539 L 1166.4997723899517 713.1626916914573 L 1166.3470449616793 713.2454970146372 L 1166.192493446125 713.32760779743 L 1166.0361332983114 713.4090158288262 L 1165.8779801541232 713.4897129680903 L 1165.718049828743 713.5696911455757 L 1165.5563583150697 713.6489423635311 L 1165.3929217821203 713.7274586969011 L 1165.2277565734119 713.8052322941174 L 1165.0608792053276 713.8822553778855 L 1164.8923063654652 713.9585202459609 L 1164.722054910968 714.0340192719204 L 1164.5501418668398 714.1087449059245 L 1164.3765844242419 714.1826896754718 L 1164.2013999387734 714.2558461861472 L 1164.0246059287374 714.3282071223604 L 1163.8462200733873 714.3997652480782 L 1163.66626021116 714.4705134075477 L 1163.484744337892 714.5404445260118 L 1163.301690605019 714.609551610417 L 1163.117117317762 714.6778277501124 L 1162.9310429332959 714.745266117541 L 1162.743486058904 714.8118599689221 L 1162.5544654501173 714.8776026449262 L 1162.3640000088394 714.9424875713405 L 1162.1721087814556 715.0065082597264 L 1161.9788109569288 715.0696583080684 L 1161.7841258648803 715.1319314014141 L 1161.588072973657 715.1933213125064 L 1161.390671888385 715.2538219024052 L 1161.1919423490078 715.3134271211019 L 1160.991904228314 715.3721310081243 L 1160.7905775299491 715.4299276931325 L 1160.587982386415 715.4868113965065 L 1160.3841390570574 715.542776429923 L 1160.179067926039 715.5978171969256 L 1159.9727895003023 715.6519281934833 L 1159.765324407518 715.7051040085415 L 1159.5566933940222 715.7573393245631 L 1159.3469173227427 715.80862891806 L 1159.1360171711117 715.8589676601156 L 1158.9240140289687 715.9083505168975 L 1158.710929096451 715.9567725501614 L 1158.4967836818746 716.0042289177443 L 1158.2815991996024 716.0507148740488 L 1158.0653971679033 716.0962257705182 L 1157.8481992068 716.1407570561007 L 1157.630027035908 716.1843042777049 L 1157.4109024722625 716.2268630806448 L 1157.1908474281372 716.2684292090756 L 1156.969883908853 716.3089985064194 L 1156.748034010578 716.3485669157798 L 1156.525319918117 716.3871304803491 L 1156.3017639026937 716.4246853438029 L 1156.077388319723 716.4612277506864 L 1155.8522156065767 716.496754046789 L 1155.6262682803383 716.5312606795108 L 1155.3995689355522 716.5647441982173 L 1155.1721402419637 716.5972012545848 L 1154.944004942253 716.6286286029343 L 1154.7151858497596 716.6590231005574 L 1154.4857058462023 716.6883817080295 L 1154.2555878793903 716.7167014895145 L 1154.0248549609282 716.7439796130577 L 1153.7935301639159 716.7702133508697 L 1153.56163662064 716.7954000795983 L 1153.329197520262 716.8195372805917 L 1153.0962361064978 716.84262254015 L 1152.8627756752949 716.8646535497664 L 1152.6288395725019 716.8856281063585 L 1152.394451191534 716.9055441124879 L 1152.159633971034 716.9243995765705 L 1151.9244113925283 716.9421926130758 L 1151.6888069780787 716.958921442715 L 1151.4528442879305 716.9745843926189 L 1151.2165469181557 716.9891798965057 L 1150.9799384982946 717.0027064948371 L 1150.743042688992 717.0151628349646 L 1150.5058831796316 717.0265476712646 L 1150.2684836859664 717.0368598652627 L 1150.030867947748 717.0460983857485 L 1149.7930597263523 717.0542623088774 L 1149.5550828024034 717.0613508182638 L 1149.316960973395 717.0673632050629 L 1149.0787180513116 717.0722988680409 L 1148.8403778602474 717.0761573136357 L 1148.6019642340223 717.0789381560058 L 1148.3635010138007 717.0806411170695 L 1148.1250120457055 717.0812660265319 L 1147.886521178435 717.0808128219027 L 1147.6480522608772 717.079281548502 L 1147.409629139725 717.0766723594558 L 1147.1712756570919 717.0729855156808 L 1146.9330156481276 717.0682213858584 L 1146.6948729386343 717.0623804463975 L 1146.4568713426845 717.0554632813872 L 1146.2190346602397 717.0474705825384 L 1145.9813866747697 717.0384031491142 L 1145.7439511508753 717.0282618878502 L 1145.5067518319106 717.0170478128645 L 1145.2698124376102 717.0047620455549 L 1145.0331566617158 716.9914058144881 L 1144.796808169608 716.9769804552759 L 1144.5607905959391 716.9614874104424 L 1144.3251275422695 716.944928229279 L 1144.0898425747084 716.92730456769 L 1143.8549592215563 716.908618188027 L 1143.6205009709531 716.8888709589123 L 1143.386491268528 716.8680648550526 L 1143.1529535150569 716.8462019570405 L 1142.9199110641198 716.823284451148 L 1142.6873872197682 716.7993146291063 L 1142.4554052341923 716.7742948878779 L 1142.2239883053976 716.7482277294158 L 1141.9931595748842 716.7211157604142 L 1141.7629421253325 716.6929616920477 L 1141.533358978296 716.6637683396992 L 1141.3044330918979 716.6335386226799 L 1141.076187358536 716.6022755639362 L 1140.8486446025931 716.5699822897482 L 1140.621827578156 716.5366620294159 L 1140.3957589667373 716.502318114938 L 1140.1704613750103 716.4669539806771 L 1139.9459573325464 716.4305731630172 L 1139.7222692895625 716.3931793000099 L 1139.4994196146765 716.3547761310101 L 1139.2774305926705 716.3153674963029 L 1139.0563244222612 716.2749573367188 L 1138.836123213882 716.2335496932401 L 1138.6168489874697 716.1911487065967 L 1138.3985236702645 716.1477586168519 L 1138.1811690946163 716.1033837629785 L 1137.9648069958012 716.058028582425 L 1137.7494590098488 716.0116976106715 L 1137.5351466713785 715.9643954807766 L 1137.3218914114454 715.916126922914 L 1137.1097145553979 715.8668967638993 L 1136.8986373207447 715.8167099267071 L 1136.6886808150334 715.7655714299794 L 1136.4798660337394 715.7134863875234 L 1136.272213858167 715.6604600077999 L 1136.0657450533608 715.6064975934027 L 1135.8604802660293 715.551604540528 L 1135.6564400224797 715.4957863384357 L 1135.4536447265668 715.4390485688994 L 1135.2521146576512 715.3813969056486 L 1135.0518699685713 715.3228371138017 L 1134.85293068363 715.2633750492892 L 1134.6553166965891 715.2030166582678 L 1134.4590477686831 715.1417679765264 L 1134.2641435266414 715.079635128882 L 1134.0706234607253 715.0166243285679 L 1133.8785069227806 714.9527418766114 L 1133.6878131243009 714.8879941612045 L 1133.4985611345069 714.8223876570647 L 1133.31076987844 714.7559289247879 L 1133.1244581350693 714.6886246101918 L 1132.939644535414 714.6204814436519 L 1132.7563475606798 714.551506239428 L 1132.5745855404116 714.4817058949831 L 1132.39437665066 714.4110873902933 L 1132.2157389121637 714.3396577871505 L 1132.038690188548 714.2674242284552 L 1131.863248184537 714.1943939375033 L 1131.6894304441855 714.120574217263 L 1131.5172543491226 714.0459724496446 L 1131.3467371168144 713.970596094763 L 1131.1778957988417 713.8944526901906 L 1131.0107472791958 713.8175498502046 L 1130.8453082725894 713.7398952650249 L 1130.6815953227854 713.6614967000452 L 1130.519624800942 713.5823619950568 L 1130.3594129039766 713.502499063464 L 1130.2009756529455 713.4219158914937 L 1130.0443288914419 713.3406205373958 L 1129.889488284011 713.258621130638 L 1129.7364693145846 713.1759258710925 L 1129.5852872849323 713.0925430282167 L 1129.435957313131 713.008480940225 L 1129.2884943320535 712.9237480132564 L 1129.142913087875 712.838352720533 L 1128.9992281385985 712.7523036015126 L 1128.8574538525993 712.6656092610358 L 1128.7176044071878 712.5782783684641 L 1128.5796937871921 712.4903196568141 L 1128.443735783559 712.4017419218837 L 1128.3097439919761 712.3125540213725 L 1128.1777318115103 712.2227648739964 L 1128.04771244327 712.1323834585951 L 1127.9196988890835 712.0414188132348 L 1127.7937039501996 711.9498800343046 L 1127.6697402260072 711.8577762756056 L 1127.5478201127755 711.7651167474372 L 1127.427955802414 711.671910715675 L 1127.310159281254 711.5781675008445 L 1127.1944423288496 711.4838964771891 L 1127.0808165167996 711.3891070717325 L 1126.96929320759 711.2938087633362 L 1126.8598835534594 711.1980110817518 L 1126.7525984952817 711.1017236066676 L 1126.6474487614735 711.0049559667508 L 1126.5444448669205 710.9077178386847 L 1126.4435971119262 710.8100189462011 L 1126.344915581182 710.711869059108 L 1126.2484101427592 710.6132779923122 L 1126.1540904471206 710.5142556048381 L 1126.0619659261577 710.4148117988422 L 1125.9720457922454 710.314956518622 L 1125.8843390373224 710.2146997496224 L 1125.7988544319912 710.1140515174367 L 1125.7156005246409 710.0130218868043 L 1125.634585640593 709.9116209606041 L 1125.5558178812682 709.809858878844 L 1125.479305123377 709.7077458176477 L 1125.4050550181312 709.6052919882361 L 1125.3330749904794 709.5025076359067 L 1125.2633722383648 709.3994030390091 L 1125.1959537320042 709.2959885079172 L 1125.1308262131922 709.1922743839976 L 1125.0679961946264 709.0882710385767 L 1125.0074699592562 708.983988871902 L 1124.9492535596548 708.8794383121036 L 1124.8933528174134 708.7746298141501 L 1124.83977332256 708.6695738588039 L 1124.7885204329993 708.5642809515733 L 1124.7395992739773 708.458761621661 L 1124.6930147375697 708.3530264209122 L 1124.6487714821906 708.2470859227587 L 1124.6068739321292 708.1409507211623 L 1124.5673262771054 708.0346314295546 L 1124.5301324718519 707.928138679776 L 1124.495296235718 707.8214831210129 L 1124.4628210522983 707.7146754187323 L 1124.4327101690842 707.6077262536154 L 1124.404966597139 707.5006463204895 L 1124.3795931107966 707.3934463272587 L 1124.3565922473847 707.2861369938331 L 1124.3359663069702 707.1787290510566 L 1124.31771735213 707.0712332396339 L 1124.3018472077447 706.9636603090566 L 1124.2883574608152 706.8560210165281 L 1124.277249460305 706.748326125888 L 1124.268524317005 706.6405864065355 L 1124.262182903422 706.5328126323528 L 1124.2582258536922 706.4250155806276 L 1124.2566535635176 706.3172060309752 L 1124.2574661901256 706.2093947642607 L 1124.2606636522542 706.1015925615209 L 1124.2662456301598 705.9938102028863 L 1124.2742115656495 705.8860584665028 L 1124.2845606621363 705.7783481274545 L 1124.297291884719 705.6706899566854 L 1124.3124039602862 705.5630947199228 L 1124.3298953776427 705.4555731766009 L 1124.3497643876615 705.3481360787841 L 1124.3720090034583 705.2407941700931 L 1124.3966270005897 705.133558184629 L 1124.4236159172767 705.026438845901 L 1124.45297305465 704.9194468657539 L 1124.4846954770205 704.8125929432963 L 1124.5187800121723 704.7058877638316 L 1124.5552232516804 704.5993419977888 L 1124.5940215512512 704.4929662996556 L 1124.6351710310869 704.3867713069133 L 1124.678667576274 704.2807676389725 L 1124.724506837194 704.1749658961119 L 1124.7726842299592 704.0693766584175 L 1124.8231949368703 703.964010484725 L 1124.876033906899 703.858877911564 L 1124.931195856192 703.7539894521044 L 1124.9886752686007 703.6493555951045 L 1125.0484663962316 703.5449868038629 L 1125.1105632600215 703.4408935151716 L 1125.174959650336 703.3370861382731 L 1125.2416491275897 703.2335750538182 L 1125.3106250228905 703.1303706128293 L 1125.3818804387063 703.0274831356644 L 1125.455408249555 702.9249229109855 L 1125.5312011027165 702.8227001947296 L 1125.609251418969 702.7208252090832 L 1125.6895513933457 702.6193081414599 L 1125.7720929959162 702.5181591434819 L 1125.856867972589 702.4173883299646 L 1125.943867845937 702.3170057779056 L 1126.0330839160454 702.2170215254762 L 1126.1245072613813 702.1174455710185 L 1126.2181287396868 702.0182878720449 L 1126.313938988892 701.9195583442427 L 1126.4119284280516 701.8212668604823 L 1126.5120872583034 701.7234232498304 L 1126.6144054638478 701.6260372965662 L 1126.7188728129497 701.5291187392041 L 1126.825478858961 701.4326772695191 L 1126.9342129413665 701.3367225315777 L 1127.0450641868479 701.2412641207737 L 1127.1580215103731 701.1463115828687 L 1127.2730736163041 701.0518744130375 L 1127.3902089995263 700.9579620549181 L 1127.509415946599 700.8645838996681 L 1127.6306825369263 700.7717492850254 L 1127.7539966439506 700.6794674943741 L 1127.8793459363642 700.587747755816 L 1128.0067178793417 700.496599241249 L 1128.1360997357956 700.4060310654484 L 1128.2674785676477 700.3160522851562 L 1128.4008412371243 700.2266718981755 L 1128.5361744080697 700.1378988424707 L 1128.6734645472795 700.049741995273 L 1128.8126979258543 699.9622101721942 L 1128.9538606205722 699.8753121263433 L 1129.0969385152814 699.7890565474523 L 1129.2419173023115 699.7034520610077 L 1129.3887824839048 699.6185072273865 L 1129.5375193736654 699.5342305410013 L 1129.6881130980285 699.4506304294506 L 1129.8405485977466 699.3677152526757 L 1129.9948106293975 699.2854933021255 L 1130.1508837669062 699.2039727999262 L 1130.308752403089 699.1231618980603 L 1130.468400751214 699.0430686775505 L 1130.6298128465792 698.9637011476523 L 1130.7929725481094 698.8850672450523 L 1130.9578635399712 698.8071748330755 L 1131.1244693332021 698.7300317008979 L 1131.2927732673618 698.6536455627687 L 1131.462758512197 698.5780240572379 L 1131.6344080693254 698.5031747463931 L 1131.8077047739337 698.429105115103 L 1131.9826312964963 698.355822570269 L 1132.1591701445063 698.2833344400844 L 1132.3373036642265 698.2116479733021 L 1132.517014042453 698.1407703385088 L 1132.698283308298 698.0707086234089 L 1132.8810933349857 698.0014698341157 L 1133.065425841666 697.9330608944503 L 1133.2512623952416 697.8654886452497 L 1133.438584412212 697.7987598436824 L 1133.6273731605322 697.7328811625732 L 1133.817609761484 697.667859189735 L 1134.009275191566 697.6037004273113 L 1134.2023502843952 697.5404112911244 L 1134.3968157326228 697.4779981100355 L 1134.5926520898663 697.4164671253106 L 1134.7898397726533 697.3558244899971 L 1134.9883590623795 697.2960762683076 L 1135.1881901072813 697.2372284350147 L 1135.3893129244213 697.1792868748528 L 1135.591707401685 697.1222573819293 L 1135.795353299793 697.0661456591464 L 1136.000230254326 697.0109573176293 L 1136.2063177777586 696.9566978761662 L 1136.4135952615106 696.9033727606561 L 1136.622041978006 696.8509873035662 L 1136.8316370827472 696.7995467433984 L 1137.0423596163982 696.7490562241659 L 1137.2541885068813 696.6995207948785 L 1137.4671025714838 696.650945409038 L 1137.6810805189768 696.6033349241424 L 1137.896100951744 696.5566941012004 L 1138.1121423679213 696.5110276042557 L 1138.329183163547 696.4663399999197 L 1138.5472016347221 696.4226357569156 L 1138.7661759797818 696.3799192456315 L 1138.9860843014735 696.3381947376827 L 1139.2069046091488 696.2974664054854 L 1139.4286148209603 696.2577383218387 L 1139.6511927660722 696.2190144595181 L 1139.8746161868753 696.1812986908773 L 1140.0988627412135 696.1445947874619 L 1140.3239100046185 696.1089064196316 L 1140.5497354725512 696.0742371561935 L 1140.7763165626532 696.0405904640448 L 1141.0036306170043 696.0079697078271 L 1141.2316549043885 695.9763781495885 L 1141.4603666225669 695.9458189484586 L 1141.6897429005585 695.9162951603322 L 1141.9197608009265 695.8878097375633 L 1142.1503973220726 695.8603655286705 L 1142.3816294005371 695.8339652780518 L 1142.6134339133046 695.8086116257103 L 1142.845787680117 695.7843071069901 L 1143.078667465791 695.7610541523228 L 1143.3120499825427 695.7388550869846 L 1143.5459118923143 695.7177121308633 L 1143.78022980911 695.6976273982372 L 1144.0149803013337 695.6786028975625 L 1144.2501398941313 695.6606405312737 L 1144.4856850717397 695.6437420955922 L 1144.7215922798373 695.6279092803477 L 1144.9578379279 695.6131436688084 L 1145.1943983915598 695.5994467375232 L 1145.4312500149676 695.5868198561739 L 1145.6683691131582 695.5752642874379 L 1145.9057319744197 695.5647811868627 L 1146.1433148626634 695.5553716027493 L 1146.3810940197989 695.5470364760487 L 1146.6190456681081 695.5397766402663 L 1146.857146012625 695.5335928213796 L 1147.095371243513 695.5284856377656 L 1147.333697538448 695.5244556001381 L 1147.572101064999 695.5215031114977 L 1147.810557983012 695.5196284670909 L 1148.0490444469938 695.5188318543803 L 1148.2875366084968 695.5191133530267 L 1148.5260106185037 695.5204729348804 L 1148.764442629812 695.5229104639843 L 1149.0028087994194 695.5264256965877 L 1149.241085290908 695.5310182811702 L 1149.4792482768262 695.536687758477 L 1149.7172739410748 695.5434335615653 L 1149.9551384812853 695.5512550158602 L 1150.192818111202 695.560151339223 L 1150.43028906306 695.5701216420287 L 1150.667527589962 695.5811649272554 L 1150.904509968253 695.5932800905836 L 1151.1412124998926 695.6064659205072 L 1151.3776115148248 695.620721098454 L 1151.6136833733453 695.6360441989185 L 1151.849404468465 695.6524336896031 L 1152.0847512282708 695.6698879315725 L 1152.3197001182825 695.6884051794169 L 1152.5542276438075 695.707983581427 L 1152.7883103522881 695.7286211797791 L 1153.0219248356489 695.7503159107305 L 1153.255047732636 695.7730656048259 L 1153.487655731154 695.7968679871152 L 1153.7197255705971 695.8217206773799 L 1153.9512340441747 695.8476211903716 L 1154.182158001232 695.8745669360605 L 1154.4124743495663 695.9025552198949 L 1154.6421600577341 695.9315832430693 L 1154.8711921573565 695.9616481028057 L 1155.0995477454142 695.9927467926433 L 1155.3272039865387 696.0248762027389 L 1155.5541381152955 696.0580331201784 L 1155.780327438461 696.0922142292976 L 1156.005749337291 696.127416112014 L 1156.2303812697842 696.1636352481687 L 1156.4542007729337 696.2008680158784 L 1156.6771854649762 696.2391106918972 L 1156.8993130476283 696.2783594519894 L 1157.1205613083168 696.3186103713118 L 1157.3409081224 696.3598594248059 L 1157.5603314553798 696.4021024876008 L 1157.7788093651063 696.4453353354253 L 1157.9963200039701 696.4895536450308 L 1158.212841621089 696.5347529946231 L 1158.4283525644814 696.5809288643048 L 1158.6428312832327 696.6280766365277 L 1158.8562563296496 696.6761915965536 L 1159.0686063614055 696.7252689329267 L 1159.2798601436741 696.7753037379543 L 1159.4899965512534 696.8262910081976 L 1159.6989945706775 696.878225644972 L 1159.9068333023185 696.931102454857 L 1160.113491962477 696.9849161502158 L 1160.3189498854586 697.0396613497238 L 1160.5231865256426 697.0953325789064 L 1160.726181459535 697.1519242706875 L 1160.9279143878116 697.2094307659446 L 1161.1283651373476 697.2678463140763 L 1161.3275136632353 697.3271650735767 L 1161.525340050788 697.3873811126189 L 1161.7218245175316 697.4484884096494 L 1161.9169474151831 697.5104808539893 L 1162.1106892316159 697.573352246446 L 1162.3030305928094 697.6370962999324 L 1162.4939522647878 697.7017066400965 L 1162.683435155543 697.767176805958 L 1162.871460316944 697.833500250555 L 1163.058008946631 697.900670341598 L 1163.2430623898967 697.9686803621343 L 1163.426602141551 698.0375235112182 L 1163.6086098477717 698.1071929045922 L 1163.7890673079396 698.1776815753752 L 1163.9679564764594 698.2489824747588 L 1164.1452594645634 698.3210884727123 L 1164.3209585421 698.3939923586962 L 1164.4950361393085 698.4676868423826 L 1164.6674748485736 698.5421645543844 L 1164.8382574261686 698.6174180469926 L 1165.007366793978 698.6934397949207 L 1165.1747860412056 698.7702221960571 L 1165.3404984260665 698.8477575722259 L 1165.5044873774602 698.9260381699539 L 1165.6667364966281 699.0050561612467 L 1165.8272295587938 699.0848036443707 L 1165.9859505147845 699.1652726446445 L 1166.142883492637 699.2464551152349 L 1166.2980127991846 699.3283429379624 L 1166.4513229216252 699.4109279241131 L 1166.602798529075 699.4942018152572 L 1166.7524244740991 699.5781562840749 L 1166.900185794228 699.6627829351894 L 1167.0460677134524 699.7480733060061 L 1167.1900556437024 699.8340188675588 L 1167.3321351863046 699.9206110253632 L 1167.4722921334233 700.0078411202755 L 1167.6105124694805 700.0957004293591 L 1167.7467823725578 700.1841801667562 L 1167.8810882157786 700.2732714845667 L 1168.0134165686704 700.3629654737332 L 1168.143754198508 700.4532531649314 L 1168.2720880716374 700.5441255294676 L 1168.398405354778 700.6355734801809 L 1168.5226934163068 700.7275878723526 L 1168.6449398275213 700.8201595046199 L 1168.765132363882 700.9132791198971 L 1168.8832590062354 701.0069374062999 L 1168.9993079420162 701.1011249980779 L 1169.113267566427 701.1958324765503 L 1169.2251264836007 701.2910503710484 L 1169.3348735077386 701.3867691598618 L 1169.4424976642297 701.4829792711917 L 1169.5479881907481 701.5796710841068 L 1169.6513345383294 701.6768349295066 L 1169.7525263724242 701.7744610910876 L 1169.851553573934 701.8725398063148 L 1169.9484062402212 701.9710612673985 L 1170.0430746860995 702.0700156222746 L 1170.1355494448035 702.1693929755902 L 1170.2258212689342 702.2691833896928 L 1170.3138811313845 702.3693768856241 L 1170.3997202262417 702.469963444118 L 1170.4833299696675 702.5709330066023 L 1170.5647020007575 702.6722754762053 L 1170.6438281823764 702.773980718764 L 1170.7207006019719 702.8760385638393 L 1170.795311572366 702.9784388057316 L 1170.867653632524 703.081171204502 L 1170.9377195483003 703.1842254869963 L 1171.0055023131613 703.287591347872 L 1171.0709951488873 703.3912584506293 L 1171.1341915062492 703.4952164286442 L 1171.1950850656638 703.5994548862056 L 1171.2536697378264 703.7039633995547 L 1171.3099396643179 703.8087315179271 L 1171.3638892181932 703.9137487645983 L 1171.4155130045413 704.0190046379312 L 1171.4648058610271 704.124488612426 L 1171.5117628584055 704.2301901397735 L 1171.5563793010165 704.3360986499088 L 1171.5986507272526 704.442203552069 L 1171.6385729100064 704.5484942358528 L 1171.676141857093 704.6549600722799 L 1171.7113538116491 704.7615904148556 L 1171.7442052525084 704.8683746006345 L 1171.7746928945542 704.975301951287 L 1171.802813689048 705.082361774167 L 1171.8285648239334 705.1895433633817 L 1171.8519437241184 705.2968360008613 L 1171.872948051733 705.4042289574314 L 1171.891575706361 705.5117114938861 L 1171.9078248252533 705.6192728620612 L 1171.9216937835113 705.7269023059093 L 1171.9331811942504 705.834589062576 L 1171.9422859087397 705.9423223634753 L 1171.9490070165148 706.0500914353668 L 1171.953343845471 706.1578855014332 L 1171.9552959619284 706.2656937823576 M 1171.9554169519845 740.6039621969181 L 1171.9542244920808 740.7117727418348 L 1171.9506472316148 740.8195725057867 L 1171.9446855283093 740.9273507088875 L 1171.9363399783301 741.0350965734066 L 1171.925611416225 741.1427993248473 L 1171.912500914841 741.2504481930241 L 1171.8970097852177 741.3580324131402 L 1171.8791395764551 741.465541226863 L 1171.8588920755592 741.5729638834008 L 1171.836269307263 741.6802896405775 L 1171.8112735338245 741.7875077659066 L 1171.7839072548006 741.8946075376653 L 1171.754173206796 742.0015782459653 L 1171.7220743631908 742.1084091938252 L 1171.6876139338426 742.215089698239 L 1171.6507953647658 742.3216090912454 L 1171.6116223377867 742.4279567209935 L 1171.5700987701748 742.5341219528094 L 1171.5262288142528 742.6400941702581 L 1171.4800168569795 742.7458627762062 L 1171.4314675195121 742.8514171938814 L 1171.3805856567442 742.9567468679296 L 1171.327376356819 743.0618412654715 L 1171.271844940623 743.1666898771547 L 1171.213996961251 743.2712822182056 L 1171.1538382034528 743.375607829477 L 1171.091374683054 743.4796562784948 L 1171.026612646355 743.5834171605009 L 1170.959558569505 743.6868800994936 L 1170.8902191578559 743.790034749265 L 1170.8186013452914 743.8928707944362 L 1170.7447122935328 743.9953779514885 L 1170.6685593914235 744.0975459697916 L 1170.5901502541908 744.1993646326285 L 1170.5094927226828 744.3008237582181 L 1170.4265948625853 744.4019132007322 L 1170.3414649636154 744.502622851311 L 1170.254111538692 744.6029426390731 L 1170.164543323085 744.7028625321236 L 1170.0727692735406 744.8023725385563 L 1169.9787985673884 744.9014627074534 L 1169.8826406016199 745.0001231298808 L 1169.7843049919516 745.0983439398782 L 1169.683801571863 745.1961153154467 L 1169.5811403916116 745.2934274795301 L 1169.4763317172306 745.3902707009931 L 1169.3693860294998 745.4866352955944 L 1169.260314022899 745.5825116269547 L 1169.1491266045375 745.6778901075206 L 1169.035834893065 745.7727611995239 L 1168.920450217558 745.8671154159341 L 1168.802984116388 745.9609433214084 L 1168.6834483360672 746.0542355332344 L 1168.5618548300738 746.1469827222686 L 1168.4382157576574 746.2391756138695 L 1168.312543482622 746.3308049888246 L 1168.1848505720905 746.4218616842729 L 1168.0551497952476 746.5123365946208 L 1167.9234541220626 746.6022206724525 L 1167.7897767219933 746.6915049294352 L 1167.6541309626684 746.7801804372175 L 1167.5165304085506 746.8682383283226 L 1167.3769888195807 746.9556697970348 L 1167.2355201498015 747.0424661002802 L 1167.0921385459617 747.1286185585005 L 1166.9468583461023 747.2141185565218 L 1166.7996940781227 747.2989575444158 L 1166.6506604583265 747.383127038354 L 1166.4997723899517 747.4666186214574 L 1166.3470449616793 747.5494239446373 L 1166.192493446125 747.6315347274301 L 1166.0361332983114 747.7129427588263 L 1165.8779801541232 747.7936398980904 L 1165.718049828743 747.8736180755758 L 1165.5563583150697 747.9528692935312 L 1165.3929217821203 748.0313856269012 L 1165.2277565734119 748.1091592241175 L 1165.0608792053276 748.1861823078856 L 1164.8923063654652 748.262447175961 L 1164.722054910968 748.3379462019205 L 1164.5501418668398 748.4126718359246 L 1164.3765844242419 748.4866166054719 L 1164.2013999387734 748.5597731161473 L 1164.0246059287374 748.6321340523605 L 1163.8462200733873 748.7036921780783 L 1163.66626021116 748.7744403375478 L 1163.484744337892 748.8443714560119 L 1163.301690605019 748.9134785404171 L 1163.117117317762 748.9817546801125 L 1162.9310429332959 749.049193047541 L 1162.743486058904 749.1157868989222 L 1162.5544654501173 749.1815295749263 L 1162.3640000088394 749.2464145013406 L 1162.1721087814556 749.3104351897265 L 1161.9788109569288 749.3735852380685 L 1161.7841258648803 749.4358583314142 L 1161.588072973657 749.4972482425065 L 1161.390671888385 749.5577488324053 L 1161.1919423490078 749.617354051102 L 1160.991904228314 749.6760579381244 L 1160.7905775299491 749.7338546231326 L 1160.587982386415 749.7907383265066 L 1160.3841390570574 749.8467033599231 L 1160.179067926039 749.9017441269257 L 1159.9727895003023 749.9558551234834 L 1159.765324407518 750.0090309385416 L 1159.5566933940222 750.0612662545632 L 1159.3469173227427 750.1125558480601 L 1159.1360171711117 750.1628945901157 L 1158.9240140289687 750.2122774468976 L 1158.710929096451 750.2606994801615 L 1158.4967836818746 750.3081558477444 L 1158.2815991996024 750.3546418040489 L 1158.0653971679033 750.4001527005183 L 1157.8481992068 750.4446839861008 L 1157.630027035908 750.488231207705 L 1157.4109024722625 750.5307900106449 L 1157.1908474281372 750.5723561390757 L 1156.969883908853 750.6129254364195 L 1156.748034010578 750.6524938457799 L 1156.525319918117 750.6910574103492 L 1156.3017639026937 750.728612273803 L 1156.077388319723 750.7651546806865 L 1155.8522156065767 750.8006809767891 L 1155.6262682803383 750.8351876095109 L 1155.3995689355522 750.8686711282176 L 1155.1721402419637 750.9011281845849 L 1154.944004942253 750.9325555329344 L 1154.7151858497596 750.9629500305575 L 1154.4857058462023 750.9923086380296 L 1154.2555878793903 751.0206284195147 L 1154.0248549609282 751.0479065430578 L 1153.7935301639159 751.0741402808698 L 1153.56163662064 751.0993270095984 L 1153.329197520262 751.1234642105918 L 1153.0962361064978 751.1465494701501 L 1152.8627756752949 751.1685804797665 L 1152.6288395725019 751.1895550363586 L 1152.394451191534 751.209471042488 L 1152.159633971034 751.2283265065706 L 1151.9244113925283 751.2461195430759 L 1151.6888069780787 751.2628483727151 L 1151.4528442879305 751.278511322619 L 1151.2165469181557 751.2931068265058 L 1150.9799384982946 751.3066334248372 L 1150.743042688992 751.3190897649647 L 1150.5058831796316 751.3304746012647 L 1150.2684836859664 751.3407867952628 L 1150.030867947748 751.3500253157486 L 1149.7930597263523 751.3581892388775 L 1149.5550828024034 751.3652777482639 L 1149.316960973395 751.371290135063 L 1149.0787180513116 751.376225798041 L 1148.8403778602474 751.3800842436358 L 1148.6019642340223 751.382865086006 L 1148.3635010138007 751.3845680470696 L 1148.1250120457055 751.385192956532 L 1147.886521178435 751.3847397519028 L 1147.6480522608772 751.3832084785021 L 1147.409629139725 751.3805992894559 L 1147.1712756570919 751.3769124456808 L 1146.9330156481276 751.3721483158585 L 1146.6948729386343 751.3663073763976 L 1146.4568713426845 751.3593902113873 L 1146.2190346602397 751.3513975125385 L 1145.9813866747697 751.3423300791143 L 1145.7439511508753 751.3321888178504 L 1145.5067518319106 751.3209747428646 L 1145.2698124376102 751.308688975555 L 1145.0331566617158 751.2953327444882 L 1144.796808169608 751.280907385276 L 1144.5607905959391 751.2654143404425 L 1144.3251275422695 751.2488551592791 L 1144.0898425747084 751.2312314976901 L 1143.8549592215563 751.2125451180272 L 1143.6205009709531 751.1927978889124 L 1143.386491268528 751.1719917850527 L 1143.1529535150569 751.1501288870406 L 1142.9199110641198 751.1272113811481 L 1142.6873872197682 751.1032415591064 L 1142.4554052341923 751.078221817878 L 1142.2239883053976 751.0521546594159 L 1141.9931595748842 751.0250426904144 L 1141.7629421253325 750.9968886220478 L 1141.533358978296 750.9676952696993 L 1141.3044330918979 750.93746555268 L 1141.076187358536 750.9062024939363 L 1140.8486446025931 750.8739092197483 L 1140.621827578156 750.840588959416 L 1140.3957589667373 750.8062450449381 L 1140.1704613750103 750.7708809106772 L 1139.9459573325464 750.7345000930173 L 1139.7222692895625 750.69710623001 L 1139.4994196146765 750.6587030610102 L 1139.2774305926705 750.619294426303 L 1139.0563244222612 750.5788842667189 L 1138.836123213882 750.5374766232402 L 1138.6168489874697 750.4950756365968 L 1138.3985236702645 750.451685546852 L 1138.1811690946163 750.4073106929786 L 1137.9648069958012 750.3619555124251 L 1137.7494590098488 750.3156245406716 L 1137.5351466713785 750.2683224107767 L 1137.3218914114454 750.2200538529141 L 1137.1097145553979 750.1708236938994 L 1136.8986373207447 750.1206368567072 L 1136.6886808150334 750.0694983599795 L 1136.4798660337394 750.0174133175235 L 1136.272213858167 749.9643869378 L 1136.0657450533608 749.9104245234028 L 1135.8604802660293 749.8555314705281 L 1135.6564400224797 749.7997132684358 L 1135.4536447265668 749.7429754988995 L 1135.2521146576512 749.6853238356487 L 1135.0518699685713 749.6267640438018 L 1134.85293068363 749.5673019792893 L 1134.6553166965891 749.5069435882679 L 1134.4590477686831 749.4456949065265 L 1134.2641435266414 749.3835620588821 L 1134.0706234607253 749.320551258568 L 1133.8785069227806 749.2566688066115 L 1133.6878131243009 749.1919210912046 L 1133.4985611345069 749.1263145870648 L 1133.31076987844 749.059855854788 L 1133.1244581350693 748.9925515401919 L 1132.939644535414 748.924408373652 L 1132.7563475606798 748.8554331694281 L 1132.5745855404116 748.7856328249832 L 1132.39437665066 748.7150143202934 L 1132.2157389121637 748.6435847171506 L 1132.038690188548 748.5713511584553 L 1131.863248184537 748.4983208675034 L 1131.6894304441855 748.4245011472631 L 1131.5172543491226 748.3498993796447 L 1131.3467371168144 748.2745230247631 L 1131.1778957988417 748.1983796201907 L 1131.0107472791958 748.1214767802047 L 1130.8453082725894 748.043822195025 L 1130.6815953227854 747.9654236300453 L 1130.519624800942 747.8862889250569 L 1130.3594129039766 747.8064259934641 L 1130.2009756529455 747.7258428214938 L 1130.0443288914419 747.6445474673959 L 1129.889488284011 747.562548060638 L 1129.7364693145846 747.4798528010926 L 1129.5852872849323 747.3964699582168 L 1129.435957313131 747.3124078702251 L 1129.2884943320535 747.2276749432565 L 1129.142913087875 747.142279650533 L 1128.9992281385985 747.0562305315127 L 1128.8574538525993 746.9695361910359 L 1128.7176044071878 746.8822052984642 L 1128.5796937871921 746.7942465868142 L 1128.443735783559 746.7056688518838 L 1128.3097439919761 746.6164809513726 L 1128.1777318115103 746.5266918039965 L 1128.04771244327 746.4363103885952 L 1127.9196988890835 746.3453457432349 L 1127.7937039501996 746.2538069643047 L 1127.6697402260072 746.1617032056057 L 1127.5478201127755 746.0690436774373 L 1127.427955802414 745.9758376456751 L 1127.310159281254 745.8820944308446 L 1127.1944423288496 745.7878234071892 L 1127.0808165167996 745.6930340017326 L 1126.96929320759 745.5977356933363 L 1126.8598835534594 745.5019380117519 L 1126.7525984952817 745.4056505366677 L 1126.6474487614735 745.3088828967509 L 1126.5444448669205 745.2116447686848 L 1126.4435971119262 745.1139458762012 L 1126.344915581182 745.0157959891081 L 1126.2484101427592 744.9172049223123 L 1126.1540904471206 744.8181825348382 L 1126.0619659261577 744.7187387288423 L 1125.9720457922454 744.6188834486221 L 1125.8843390373224 744.5186266796225 L 1125.7988544319912 744.4179784474368 L 1125.7156005246409 744.3169488168044 L 1125.634585640593 744.2155478906042 L 1125.5558178812682 744.1137858088441 L 1125.479305123377 744.0116727476478 L 1125.4050550181312 743.9092189182362 L 1125.3330749904794 743.8064345659068 L 1125.2633722383648 743.7033299690092 L 1125.1959537320042 743.5999154379173 L 1125.1308262131922 743.4962013139977 L 1125.0679961946264 743.3921979685769 L 1125.0074699592562 743.2879158019022 L 1124.9492535596548 743.1833652421037 L 1124.8933528174134 743.0785567441502 L 1124.83977332256 742.973500788804 L 1124.7885204329993 742.8682078815734 L 1124.7395992739773 742.7626885516611 L 1124.6930147375697 742.6569533509123 L 1124.6487714821906 742.5510128527588 L 1124.6068739321292 742.4448776511624 L 1124.5673262771054 742.3385583595547 L 1124.5301324718519 742.2320656097761 L 1124.495296235718 742.125410051013 L 1124.4628210522983 742.0186023487324 L 1124.4327101690842 741.9116531836155 L 1124.404966597139 741.8045732504896 L 1124.3795931107966 741.6973732572588 L 1124.3565922473847 741.5900639238332 L 1124.3359663069702 741.4826559810567 L 1124.31771735213 741.375160169634 L 1124.3018472077447 741.2675872390568 L 1124.2883574608152 741.1599479465282 L 1124.277249460305 741.0522530558881 L 1124.268524317005 740.9445133365356 L 1124.262182903422 740.8367395623529 L 1124.2582258536922 740.7289425106277 L 1124.2566535635176 740.6211329609753" stroke-miterlimit="10" stroke-width="2.7769845610000004" stroke-dasharray=""/></g><g><g/><text fill="black" stroke="none" font-family="sans-serif" font-size="11pt" font-style="normal" font-weight="normal" text-decoration="normal" x="1116.7280751876954" y="689.0337253788182" text-anchor="start" dominant-baseline="alphabetic" xml:space="preserve">Database</text></g></g><g><path fill="white" stroke="black" paint-order="fill stroke markers" d=" M 73.50841485 136.90385383881818 L 89.84361814999998 136.90385383881818 L 89.84361814999998 615.5253105288182 L 73.50841485 615.5253105288182 L 73.50841485 136.90385383881818" stroke-miterlimit="10" stroke-width="1.3612669416666667" stroke-dasharray=""/><path fill="white" stroke="black" paint-order="fill stroke markers" d=" M 432.19435193372396 136.90385383881818 L 448.52955523372395 136.90385383881818 L 448.52955523372395 615.5253105288182 L 432.19435193372396 615.5253105288182 L 432.19435193372396 136.90385383881818" stroke-miterlimit="10" stroke-width="1.3612669416666667" stroke-dasharray=""/><path fill="white" stroke="black" paint-order="fill stroke markers" d=" M 809.1766147010417 182.64242307881818 L 825.5118180010418 182.64242307881818 L 825.5118180010418 615.5253105288182 L 809.1766147010417 615.5253105288182 L 809.1766147010417 182.64242307881818" stroke-miterlimit="10" stroke-width="1.3612669416666667" stroke-dasharray=""/><path fill="white" stroke="black" paint-order="fill stroke markers" d=" M 1139.9384184839844 228.3809923188182 L 1156.2736217839845 228.3809923188182 L 1156.2736217839845 319.8581307988182 L 1139.9384184839844 319.8581307988182 L 1139.9384184839844 228.3809923188182" stroke-miterlimit="10" stroke-width="1.3612669416666667" stroke-dasharray=""/><g><text fill="black" stroke="none" font-family="sans-serif" font-size="16pt" font-style="normal" font-weight="normal" text-decoration="normal" x="420.84496307373047" y="24.651306798181814" text-anchor="start" dominant-baseline="alphabetic" xml:space="preserve">Lydanhschphngtheonh/tng</text></g><g><rect fill="white" stroke="none" x="124.08413118260417" y="161.4066587888182" width="273.8697077185156" height="21.23576429"/><text fill="black" stroke="none" font-family="sans-serif" font-size="11pt" font-style="normal" font-weight="normal" text-decoration="normal" x="126.53441167760417" y="176.10834175881817" text-anchor="start" dominant-baseline="alphabetic" xml:space="preserve">Chnnh/tngxemdanhschphng</text></g><g><path fill="none" stroke="black" paint-order="fill stroke markers" d=" M 89.84361814999998 182.64242307881818 L 418.7450345500573 182.64242307881818" stroke-miterlimit="10" stroke-width="1.3612669416666667" stroke-dasharray=""/><g transform="translate(432.19435193372396,182.64242307881818) translate(-432.19435193372396,-182.64242307881818)"><path fill="black" stroke="none" paint-order="stroke fill markers" d=" M 418.5816825170573 175.83608837048484 L 432.19435193372396 182.64242307881818 L 418.5816825170573 189.44875778715152 Z"/></g></g><g><rect fill="white" stroke="none" x="467.85954580539055" y="207.1452280288182" width="321.98707832398435" height="21.23576429"/><text fill="black" stroke="none" font-family="sans-serif" font-size="11pt" font-style="normal" font-weight="normal" text-decoration="normal" x="470.30982630039057" y="221.84691099881817" text-anchor="start" dominant-baseline="alphabetic" xml:space="preserve">Giyuculydanhschphngtheonh/tng</text></g><g><path fill="none" stroke="black" paint-order="fill stroke markers" d=" M 448.52955523372395 228.3809923188182 L 795.727297317375 228.3809923188182" stroke-miterlimit="10" stroke-width="1.3612669416666667" stroke-dasharray=""/><g transform="translate(809.1766147010417,228.3809923188182) translate(-809.1766147010417,-228.3809923188182)"><path fill="black" stroke="none" paint-order="stroke fill markers" d=" M 795.563945284375 221.57465761048485 L 809.1766147010417 228.3809923188182 L 795.563945284375 235.18732702715153 Z"/></g></g><g><rect fill="white" stroke="none" x="844.8418085727084" y="252.88379726881823" width="275.76661933960935" height="21.23576429"/><text fill="black" stroke="none" font-family="sans-serif" font-size="11pt" font-style="normal" font-weight="normal" text-decoration="normal" x="847.2920890677084" y="267.5854802388182" text-anchor="start" dominant-baseline="alphabetic" xml:space="preserve">Truyvndanhschphngtheonh/tng</text></g><g><path fill="none" stroke="black" paint-order="fill stroke markers" d=" M 825.5118180010418 274.1195615588182 L 1126.4891011003176 274.1195615588182" stroke-miterlimit="10" stroke-width="1.3612669416666667" stroke-dasharray=""/><g transform="translate(1139.9384184839844,274.1195615588182) translate(-1139.9384184839844,-274.1195615588182)"><path fill="black" stroke="none" paint-order="stroke fill markers" d=" M 1126.3257490673177 267.31322685048485 L 1139.9384184839844 274.1195615588182 L 1126.3257490673177 280.92589626715153 Z"/></g></g><g><rect fill="white" stroke="none" x="901.4917566928256" y="298.6223665088182" width="162.466723099375" height="21.23576429"/><text fill="black" stroke="none" font-family="sans-serif" font-size="11pt" font-style="normal" font-weight="normal" text-decoration="normal" x="903.9420371878256" y="313.32404947881815" text-anchor="start" dominant-baseline="alphabetic" xml:space="preserve">Trvdanhschphng</text></g><g><path fill="none" stroke="black" paint-order="fill stroke markers" d=" M 1139.9384184839844 319.8581307988182 L 838.9611353847084 319.8581307988182" stroke-miterlimit="10" stroke-width="1.3612669416666667" stroke-dasharray="6.53408132"/><g transform="translate(825.5118180010418,319.8581307988182) translate(-825.5118180010418,-319.8581307988182)"><path fill="black" stroke="none" paint-order="stroke fill markers" d=" M 839.1244874177085 313.05179609048486 L 825.5118180010418 319.8581307988182 L 839.1244874177085 326.66446550715153 Z"/></g></g><g><rect fill="white" stroke="none" x="526.0234557174999" y="388.4659846588182" width="205.65925849976563" height="21.23576429"/><text fill="black" stroke="none" font-family="sans-serif" font-size="11pt" font-style="normal" font-weight="normal" text-decoration="normal" x="528.4737362125" y="403.16766762881815" text-anchor="start" dominant-baseline="alphabetic" xml:space="preserve">Trvdanhschphnglc</text></g><g><path fill="none" stroke="black" paint-order="fill stroke markers" d=" M 809.1766147010417 409.7017489488182 L 461.9788726173906 409.7017489488182" stroke-miterlimit="10" stroke-width="1.3612669416666667" stroke-dasharray="6.53408132"/><g transform="translate(448.52955523372395,409.7017489488182) translate(-448.52955523372395,-409.7017489488182)"><path fill="black" stroke="none" paint-order="stroke fill markers" d=" M 462.14222465039063 402.89541424048485 L 448.52955523372395 409.7017489488182 L 462.14222465039063 416.50808365715153 Z"/></g></g><g><rect fill="white" stroke="none" x="175.43344301121746" y="434.2045538988182" width="171.17108406128906" height="21.23576429"/><text fill="black" stroke="none" font-family="sans-serif" font-size="11pt" font-style="normal" font-weight="normal" text-decoration="normal" x="177.88372350621745" y="448.90623686881816" text-anchor="start" dominant-baseline="alphabetic" xml:space="preserve">Hinthdanhschphng</text></g><g><path fill="none" stroke="black" paint-order="fill stroke markers" d=" M 432.19435193372396 455.4403181888182 L 103.29293553366665 455.4403181888182" stroke-miterlimit="10" stroke-width="1.3612669416666667" stroke-dasharray="6.53408132"/><g transform="translate(89.84361814999998,455.4403181888182) translate(-89.84361814999998,-455.4403181888182)"><path fill="black" stroke="none" paint-order="stroke fill markers" d=" M 103.45628756666665 448.63398348048486 L 89.84361814999998 455.4403181888182 L 103.45628756666665 462.24665289715153 Z"/></g></g><g><rect fill="white" stroke="none" x="516.6497984909374" y="524.0481720488182" width="224.40657295289063" height="21.23576429"/><text fill="black" stroke="none" font-family="sans-serif" font-size="11pt" font-style="normal" font-weight="normal" text-decoration="normal" x="519.1000789859374" y="538.7498550188182" text-anchor="start" dominant-baseline="alphabetic" xml:space="preserve">Trvthngbodanhschtrng</text></g><g><path fill="none" stroke="black" paint-order="fill stroke markers" d=" M 809.1766147010417 545.2839363388182 L 461.9788726173906 545.2839363388182" stroke-miterlimit="10" stroke-width="1.3612669416666667" stroke-dasharray="6.53408132"/><g transform="translate(448.52955523372395,545.2839363388182) translate(-448.52955523372395,-545.2839363388182)"><path fill="black" stroke="none" paint-order="stroke fill markers" d=" M 462.14222465039063 538.4776016304849 L 448.52955523372395 545.2839363388182 L 462.14222465039063 552.0902710471515 Z"/></g></g><g><rect fill="white" stroke="none" x="109.17360872166667" y="569.7867412888181" width="303.6907221228125" height="21.23576429"/><text fill="black" stroke="none" font-family="sans-serif" font-size="11pt" font-style="normal" font-weight="normal" text-decoration="normal" x="111.62388921666667" y="584.4884242588181" text-anchor="start" dominant-baseline="alphabetic" xml:space="preserve">Hinththngbo"Khngcphngphhp"</text></g><g><path fill="none" stroke="black" paint-order="fill stroke markers" d=" M 432.19435193372396 591.0225055788181 L 103.29293553366665 591.0225055788181" stroke-miterlimit="10" stroke-width="1.3612669416666667" stroke-dasharray="6.53408132"/><g transform="translate(89.84361814999998,591.0225055788181) translate(-89.84361814999998,-591.0225055788181)"><path fill="black" stroke="none" paint-order="stroke fill markers" d=" M 103.45628756666665 584.2161708704848 L 89.84361814999998 591.0225055788181 L 103.45628756666665 597.8288402871515 Z"/></g></g><g><g/><path fill="none" stroke="black" paint-order="fill stroke markers" d=" M 16.33520329999999 344.3609357488182 L 874.5174279010417 344.3609357488182 L 874.5174279010417 615.5253105288182 L 16.33520329999999 615.5253105288182 L 16.33520329999999 344.3609357488182 Z" stroke-miterlimit="10" stroke-width="2.3336004714285714" stroke-dasharray=""/><path fill="white" stroke="black" paint-order="fill stroke markers" d=" M 16.33520329999999 344.3609357488182 L 16.33520329999999 363.9631797088182 L 62.6944068970703 363.9631797088182 L 72.4955288770703 354.1620577288182 L 72.4955288770703 344.3609357488182 L 16.33520329999999 344.3609357488182" stroke-miterlimit="10" stroke-width="2.3336004714285714" stroke-dasharray=""/><text fill="black" stroke="none" font-family="sans-serif" font-size="8.8pt" font-style="normal" font-weight="bold" text-decoration="normal" x="32.67040659999999" y="357.4290983888182" text-anchor="start" dominant-baseline="alphabetic" xml:space="preserve">alt</text><g><rect fill="white" stroke="none" x="86.3804516820703" y="345.6677520128182" width="143.70160163941406" height="16.988611432000003"/></g><text fill="black" stroke="none" font-family="sans-serif" font-size="8.8pt" font-style="normal" font-weight="bold" text-decoration="normal" x="88.8307321770703" y="357.4290983888182" text-anchor="start" dominant-baseline="alphabetic" xml:space="preserve">[Danhschkhngtrng]</text><g><path fill="none" stroke="black" paint-order="fill stroke markers" d=" M 16.33520329999999 479.9431231388182 L 874.5174279010417 479.9431231388182" stroke-miterlimit="10" stroke-width="2.3336004714285714" stroke-dasharray="4.083800825"/></g><g/><g><rect fill="white" stroke="none" x="86.3804516820703" y="481.2499394028182" width="105.25839485230469" height="16.988611432000003"/></g><text fill="black" stroke="none" font-family="sans-serif" font-size="8.8pt" font-style="normal" font-weight="bold" text-decoration="normal" x="88.8307321770703" y="493.0112857788182" text-anchor="start" dominant-baseline="alphabetic" xml:space="preserve">[Danhschtrng]</text></g><g/></g><g/><g/><g/><g/></g></svg>