<svg xmlns="http://www.w3.org/2000/svg" xmlns:xlink="http://www.w3.org/1999/xlink" version="1.1" width="907.2189612453126" height="717.6203311538183"><desc>title%20Chi%20ti%E1%BA%BFt%20ph%C3%B2ng%0A%0Abottomparticipants%20%0A%0Aactor%20Landlord%0Aentity%20Client%0Aentity%20Backend%0Adatabase%20Database%0A%0ALandlord%20-%3E%20Client%3A%20Ch%E1%BB%8Dn%20ph%C3%B2ng%20c%E1%BA%A7n%20xem%20chi%20ti%E1%BA%BFt%0Aactivate%20Landlord%0Aactivate%20Client%0A%0AClient%20-%3E%20Backend%3A%20G%E1%BB%ADi%20ID%20ph%C3%B2ng%20c%E1%BA%A7n%20l%E1%BA%A5y%20chi%20ti%E1%BA%BFt%0Aactivate%20Backend%0A%0Aactivate%20Database%0ABackend%20-%3E%20Database%3A%20Truy%20v%E1%BA%A5n%20l%E1%BA%A5y%20chi%20ti%E1%BA%BFt%20ph%C3%B2ng%0A%0ADatabase%20--%3E%20Backend%3A%20Tr%E1%BA%A3%20v%E1%BB%81%20b%E1%BA%A3n%20ghi%20chi%20ti%E1%BA%BFt%20ph%C3%B2ng%0Adeactivate%20Database%0A%0Aalt%20C%C3%B3%20d%E1%BB%AF%20li%E1%BB%87u%0A%20%20%20%20Backend%20--%3E%20Client%3A%20Tr%E1%BA%A3%20v%E1%BB%81%20th%C3%B4ng%20tin%20chi%20ti%E1%BA%BFt%20ph%C3%B2ng%0A%20%20%20%20Client%20--%3E%20Landlord%3A%20Hi%E1%BB%83n%20th%E1%BB%8B%20th%C3%B4ng%20tin%20chi%20ti%E1%BA%BFt%20ph%C3%B2ng%0Aelse%20Kh%C3%B4ng%20c%C3%B3%20d%E1%BB%AF%20li%E1%BB%87u%0A%20%20%20%20Backend%20--%3E%20Client%3A%20Th%C3%B4ng%20b%C3%A1o%20kh%C3%B4ng%20t%C3%ACm%20th%E1%BA%A5y%20d%E1%BB%AF%20li%E1%BB%87u%0Aend%0A%0Adeactivate%20Backend%0Adeactivate%20Client%0Adeactivate%20Landlord%0A</desc><defs/><g><g/><g/><g/><g/><g/><g/><g/><g/><g/><g/><g/><g/><g/><g/><g/><g/><g/><g/><g/><g/><g/><g/><g/><g/><g/><g/><g/><g/><g/><g/><g/><g/><g/><g/><g/><g/><g/><g/><g/><g/><g/><g/><g/><g/><g/><g/><g/><g/><g/><g/><g/><g/><g/><g/><g/><g/><g/><g/><g/><g/><g/><g/><g/><g/><g/><g/><g/><g/><g/><g/><g/><g/><g/><g/><g/><g/><g/><g/><g/><g/><g/><g/><g/><g/><g/><g/><g/><g/><g/><g/><g/><g/><g/><g/><g/><g/><g/><g/><g/><g/><g><rect fill="white" stroke="none" x="0" y="0" width="907" height="717"/></g><g/><g><path fill="none" stroke="black" paint-order="fill stroke markers" d=" M 81.67601649999999 128.73625218881818 L 81.67601649999999 626.9599528388183" stroke-miterlimit="10" stroke-width="1.3612669416666667" stroke-dasharray="12.565541,5.445067766666667"/><path fill="none" stroke="black" paint-order="fill stroke markers" d=" M 342.8744810495443 128.73625218881818 L 342.8744810495443 626.9599528388183" stroke-miterlimit="10" stroke-width="1.3612669416666667" stroke-dasharray="12.565541,5.445067766666667"/><path fill="none" stroke="black" paint-order="fill stroke markers" d=" M 622.0328760190105 128.73625218881818 L 622.0328760190105 626.9599528388183" stroke-miterlimit="10" stroke-width="1.3612669416666667" stroke-dasharray="12.565541,5.445067766666667"/><path fill="none" stroke="black" paint-order="fill stroke markers" d=" M 866.3809529953126 128.73625218881818 L 866.3809529953126 626.9599528388183" stroke-miterlimit="10" stroke-width="1.3612669416666667" stroke-dasharray="12.565541,5.445067766666667"/></g><g><g><path fill="white" stroke="black" paint-order="fill stroke markers" d=" M 90.987082381 59.63834222981819 A 9.311065881 9.311065881 0 1 1 90.98707772546743 59.62903116548903 M 81.67601649999999 68.9494081108182 L 81.67601649999999 88.8783561368182 M 69.914670124 76.13689756281819 L 93.43736287599998 76.13689756281819 M 81.67601649999999 88.8783561368182 L 69.914670124 107.50048789881819 M 81.67601649999999 88.8783561368182 L 93.43736287599998 107.50048789881819" stroke-miterlimit="10" stroke-width="2.7769845610000004" stroke-dasharray=""/></g><g><g/><text fill="black" stroke="none" font-family="sans-serif" font-size="11pt" font-style="normal" font-weight="normal" text-decoration="normal" x="53.1470400595703" y="123.83569119881818" text-anchor="start" dominant-baseline="alphabetic" xml:space="preserve">Landlord</text></g><g><path fill="white" stroke="black" paint-order="fill stroke markers" d=" M 367.1322579500443 79.63263106901819 A 24.2577769005 24.2577769005 0 1 1 367.13224582115686 79.60837329616064 M 317.2282118685443 106.11199561831819 L 368.52075023054425 106.11199561831819" stroke-miterlimit="10" stroke-width="2.7769845610000004" stroke-dasharray=""/></g><g><g/><text fill="black" stroke="none" font-family="sans-serif" font-size="11pt" font-style="normal" font-weight="normal" text-decoration="normal" x="324.1343305978841" y="123.83569119881818" text-anchor="start" dominant-baseline="alphabetic" xml:space="preserve">Client</text></g><g><path fill="white" stroke="black" paint-order="fill stroke markers" d=" M 646.2906529195104 79.63263106901819 A 24.2577769005 24.2577769005 0 1 1 646.290640790623 79.60837329616064 M 596.3866068380105 106.11199561831819 L 647.6791452000105 106.11199561831819" stroke-miterlimit="10" stroke-width="2.7769845610000004" stroke-dasharray=""/></g><g><g/><text fill="black" stroke="none" font-family="sans-serif" font-size="11pt" font-style="normal" font-weight="normal" text-decoration="normal" x="593.5074777646159" y="123.83569119881818" text-anchor="start" dominant-baseline="alphabetic" xml:space="preserve">Backend</text></g><g><path fill="white" stroke="black" paint-order="fill stroke markers" d=" M 842.5315561773126 96.71925372081819 L 842.5315561773126 62.41532679081819 L 890.2303498133125 62.41532679081819 L 890.2303498133125 96.71925372081819" stroke-miterlimit="10" stroke-width="2.7769845610000004" stroke-dasharray=""/><path fill="white" stroke="black" paint-order="fill stroke markers" d=" M 890.2303498133125 61.22285694991819 L 890.2291573534088 61.33066749483481 L 890.2255800929428 61.43846725878678 L 890.2196183896375 61.546245461887544 L 890.2112728396581 61.65399132640659 L 890.2005442775529 61.761694077847274 L 890.1874337761691 61.86934294602419 L 890.1719426465459 61.976927166140236 L 890.1540724377833 62.084435979863045 L 890.1338249368872 62.19185863640084 L 890.111202168591 62.299184393577484 L 890.0862063951527 62.4064025189067 L 890.0588401161286 62.51350229066531 L 890.0291060681241 62.62047299896537 L 889.9970072245189 62.7273039468252 L 889.9625467951709 62.83398445123905 L 889.9257282260941 62.94050384424536 L 889.8865551991147 63.04685147399361 L 889.8450316315029 63.15301670580944 L 889.8011616755809 63.25898892325815 L 889.7549497183076 63.364757529206294 L 889.7064003808403 63.47031194688142 L 889.6555185180722 63.575641620929716 L 889.6023092181473 63.68073601847156 L 889.5467778019511 63.78558463015478 L 889.488929822579 63.89017697120557 L 889.4287710647809 63.994502582477 L 889.3663075443823 64.09855103149486 L 889.301545507683 64.20231191350096 L 889.234491430833 64.3057748524936 L 889.1651520191841 64.40892950226505 L 889.0935342066194 64.51176554743633 L 889.0196451548608 64.61427270448858 L 888.9434922527518 64.71644072279157 L 888.8650831155189 64.81825938562858 L 888.7844255840108 64.91971851121816 L 888.7015277239134 65.02080795373233 L 888.6163978249435 65.12151760431107 L 888.5290444000201 65.22183739207324 L 888.4394761844129 65.32175728512367 L 888.3477021348689 65.42126729155632 L 888.2537314287165 65.52035746045347 L 888.1575734629479 65.6190178828808 L 888.0592378532798 65.71723869287828 L 887.958734433191 65.81501006844678 L 887.8560732529398 65.91232223253022 L 887.7512645785588 66.00916545399325 L 887.6443188908279 66.10553004859446 L 887.5352468842269 66.20140637995469 L 887.4240594658656 66.29678486052069 L 887.310767754393 66.39165595252388 L 887.1953830788862 66.48601016893414 L 887.0779169777161 66.57983807440844 L 886.9583811973952 66.67313028623443 L 886.8367876914019 66.76587747526865 L 886.7131486189855 66.85807036686953 L 886.5874763439501 66.94969974182469 L 886.4597834334187 67.04075643727302 L 886.3300826565757 67.13123134762085 L 886.1983869833907 67.22111542545254 L 886.0647095833215 67.3103996824352 L 885.9290638239966 67.39907519021754 L 885.7914632698787 67.4871330813227 L 885.6519216809088 67.57456455003492 L 885.5104530111295 67.6613608532802 L 885.3670714072897 67.74751331150055 L 885.2217912074306 67.83301330952195 L 885.0746269394507 67.91785229741582 L 884.9255933196546 68.00202179135408 L 884.7747052512797 68.08551337445749 L 884.6219778230073 68.1683186976373 L 884.467426307453 68.25042948043021 L 884.3110661596396 68.33183751182635 L 884.1529130154513 68.41253465109044 L 883.992982690071 68.4925128285758 L 883.8312911763978 68.5717640465313 L 883.6678546434485 68.65028037990122 L 883.50268943474 68.72805397711764 L 883.3358120666556 68.80507706088565 L 883.1672392267932 68.88134192896105 L 882.996987772296 68.95684095492061 L 882.8250747281679 69.03156658892462 L 882.6515172855699 69.10551135847197 L 882.4763328001015 69.17866786914732 L 882.2995387900655 69.25102880536058 L 882.1211529347155 69.3225869310784 L 881.9411930724882 69.39333509054786 L 881.7596771992202 69.46326620901198 L 881.5766234663472 69.53237329341717 L 881.3920501790902 69.60064943311258 L 881.205975794624 69.66808780054113 L 881.0184189202321 69.7346816519223 L 880.8293983114454 69.80042432792644 L 880.6389328701675 69.86530925434072 L 880.4470416427837 69.92932994272657 L 880.2537438182569 69.9924799910685 L 880.0590587262084 70.05475308441433 L 879.8630058349852 70.1161429955066 L 879.665604749713 70.17664358540536 L 879.466875210336 70.23624880410202 L 879.2668370896422 70.29495269112441 L 879.0655103912773 70.35274937613272 L 878.8629152477432 70.40963307950663 L 878.6590719183854 70.46559811292322 L 878.4540007873671 70.52063887992576 L 878.2477223616304 70.57474987648341 L 878.0402572688461 70.62792569154163 L 877.8316262553503 70.68016100756323 L 877.6218501840709 70.73145060106012 L 877.4109500324399 70.78178934311569 L 877.1989468902968 70.8311721998977 L 876.9858619577792 70.8795942331616 L 876.7717165432028 70.92705060074444 L 876.5565320609305 70.973536557049 L 876.3403300292313 71.01904745351838 L 876.1231320681281 71.06357873910088 L 875.9049598972362 71.10712596070502 L 875.6858353335906 71.14968476364494 L 875.4657802894652 71.19125089207583 L 875.2448167701812 71.23182018941947 L 875.0229668719062 71.27138859877994 L 874.8002527794451 71.30995216334925 L 874.5766967640217 71.34750702680313 L 874.3523211810513 71.38404943368649 L 874.1271484679049 71.4195757297891 L 873.9012011416665 71.45408236251096 L 873.6745017968803 71.48756588121756 L 873.4470731032919 71.52002293758491 L 873.2189378035811 71.55145028593446 L 872.9901187110878 71.58184478355753 L 872.7606387075305 71.61120339102969 L 872.5305207407184 71.63952317251467 L 872.2997878222563 71.66680129605793 L 872.068463025244 71.69303503386982 L 871.8365694819681 71.71822176259843 L 871.60413038159 71.7423589635919 L 871.371168967826 71.7654442231502 L 871.137708536623 71.78747523276665 L 870.90377243383 71.80844978935863 L 870.669384052862 71.82836579548797 L 870.4345668323621 71.84722125957065 L 870.1993442538565 71.86501429607597 L 869.9637398394068 71.8817431257151 L 869.7277771492585 71.89740607561903 L 869.4914797794838 71.91200157950583 L 869.2548713596228 71.92552817783725 L 869.0179755503202 71.93798451796474 L 868.7808160409597 71.94936935426468 L 868.5434165472946 71.95968154826289 L 868.3058008090761 71.96892006874862 L 868.0679925876805 71.97708399187748 L 867.8300156637314 71.98417250126396 L 867.591893834723 71.99018488806304 L 867.3536509126399 71.99512055104105 L 867.1153107215755 71.99897899663581 L 866.8768970953505 72.00175983900598 L 866.6384338751287 72.00346280006961 L 866.3999449070336 72.00408770953204 L 866.161454039763 72.00363450490285 L 865.9229851222052 72.0021032315021 L 865.684562001053 71.99949404245586 L 865.44620851842 71.9958071986809 L 865.2079485094556 71.99104306885846 L 864.9698057999624 71.98520212939759 L 864.7318042040127 71.97828496438737 L 864.4939675215679 71.97029226553852 L 864.256319536098 71.96122483211428 L 864.0188840122034 71.95108357085043 L 863.7816846932387 71.93986949586466 L 863.5447452989383 71.92758372855508 L 863.308089523044 71.91422749748824 L 863.0717410309362 71.89980213827607 L 862.8357234572671 71.8843090934425 L 862.6000604035976 71.86774991227908 L 862.3647754360364 71.85012625069015 L 862.1298920828845 71.83143987102717 L 861.8954338322811 71.81169264191253 L 861.6614241298563 71.79088653805269 L 861.4278863763849 71.7690236400407 L 861.194843925448 71.74610613414815 L 860.9623200810963 71.72213631210651 L 860.7303380955204 71.69711657087802 L 860.4989211667258 71.67104941241597 L 860.2680924362123 71.64393744341446 L 860.0378749866608 71.6157833750478 L 859.8082918396242 71.58659002269937 L 859.5793659532259 71.55636030568009 L 859.3511202198639 71.52509724693644 L 859.1235774639213 71.49280397274828 L 858.896760439484 71.45948371241609 L 858.6706918280655 71.42513979793813 L 858.4453942363385 71.38977566367726 L 858.2208901938744 71.35339484601741 L 857.9972021508905 71.31600098301004 L 857.7743524760047 71.27759781401028 L 857.5523634539985 71.23818917930303 L 857.3312572835895 71.19777901971894 L 857.1110560752101 71.15637137624027 L 856.8917818487979 71.11397038959687 L 856.6734565315927 71.07058029985207 L 856.4561019559443 71.02620544597868 L 856.2397398571293 70.98085026542512 L 856.0243918711769 70.93451929367163 L 855.8100795327067 70.8872171637768 L 855.5968242727736 70.8389486059142 L 855.3846474167261 70.78971844689937 L 855.1735701820728 70.7395316097072 L 854.9636136763614 70.6883931129796 L 854.7547988950676 70.6363080705236 L 854.5471467194952 70.58328169080006 L 854.3406779146891 70.52931927640276 L 854.1354131273574 70.47442622352818 L 853.931372883808 70.41860802143584 L 853.728577587895 70.36187025189946 L 853.5270475189792 70.3042185886487 L 853.3268028298995 70.24565879680183 L 853.1278635449579 70.18619673228926 L 852.9302495579171 70.12583834126788 L 852.7339806300113 70.06458965952649 L 852.5390763879694 70.00245681188221 L 852.3455563220535 69.93944601156807 L 852.1534397841087 69.87556355961155 L 851.962745985629 69.81081584420461 L 851.773493995835 69.74520934006487 L 851.5857027397681 69.67875060778805 L 851.3993909963974 69.61144629319199 L 851.214577396742 69.54330312665208 L 851.031280422008 69.47432792242817 L 850.8495184017397 69.40452757798322 L 850.6693095119882 69.3339090732935 L 850.490671773492 69.26247947015062 L 850.313623049876 69.19024591145539 L 850.1381810458652 69.11721562050347 L 849.9643633055138 69.0433959002631 L 849.7921872104508 68.96879413264479 L 849.6216699781424 68.89341777776313 L 849.4528286601699 68.81727437319081 L 849.2856801405239 68.74037153320482 L 849.1202411339176 68.66271694802508 L 848.9565281841134 68.58431838304537 L 848.7945576622701 68.5051836780569 L 848.6343457653048 68.4253207464642 L 848.4759085142737 68.34473757449386 L 848.3192617527699 68.26344222039596 L 848.164421145339 68.18144281363814 L 848.0114021759127 68.09874755409275 L 847.8602201462604 68.01536471121685 L 847.7108901744591 67.9313026232252 L 847.5634271933816 67.84656969625658 L 847.4178459492031 67.76117440353308 L 847.2741609999266 67.67512528451279 L 847.1323867139274 67.5884309440359 L 846.992537268516 67.50110005146425 L 846.8546266485203 67.41314133981427 L 846.7186686448872 67.32456360488388 L 846.5846768533041 67.23537570437271 L 846.4526646728384 67.14558655699653 L 846.322645304598 67.05520514159522 L 846.1946317504115 66.96424049623502 L 846.0686368115277 66.87270171730466 L 845.9446730873353 66.78059795860575 L 845.8227529741037 66.68793843043741 L 845.7028886637422 66.59473239867523 L 845.5850921425823 66.50098918384472 L 845.4693751901779 66.40671816018926 L 845.3557493781276 66.31192875473263 L 845.2442260689182 66.2166304463364 L 845.1348164147876 66.120832764752 L 845.0275313566099 66.02454528966774 L 844.9223816228016 65.92777764975091 L 844.8193777282486 65.83053952168484 L 844.7185299732542 65.73284062920132 L 844.6198484425101 65.63469074210818 L 844.5233430040872 65.53609967531233 L 844.4290233084488 65.4370772878383 L 844.3368987874858 65.33763348184232 L 844.2469786535736 65.23777820162212 L 844.1592718986507 65.13752143262249 L 844.0737872933194 65.03687320043682 L 843.9905333859691 64.93584356980442 L 843.9095185019211 64.83444264360419 L 843.8307507425963 64.73268056184422 L 843.754237984705 64.63056750064791 L 843.6799878794592 64.52811367123628 L 843.6080078518077 64.42532931890689 L 843.5383050996929 64.32222472200931 L 843.4708865933325 64.21881019091732 L 843.4057590745205 64.11509606699785 L 843.3429290559545 64.01109272157687 L 843.2824028205844 63.90681055490224 L 843.2241864209828 63.80225999510374 L 843.1682856787417 63.697451497150205 L 843.1147061838882 63.59239554180411 L 843.0634532943274 63.48710263457343 L 843.0145321353056 63.381583304661156 L 842.9679475988977 63.27584810391234 L 842.9237043435188 63.16990760575894 L 842.8818067934574 63.06377240416249 L 842.8422591384336 62.95745311255472 L 842.80506533318 62.85096036277616 L 842.7702290970461 62.744304804013076 L 842.7377539136264 62.63749710173245 L 842.7076430304124 62.530547936615505 L 842.6798994584672 62.423468003489624 L 842.6545259721248 62.316268010258895 L 842.6315251087128 62.208958676833305 L 842.6108991682984 62.10155073405677 L 842.5926502134582 61.99405492263407 L 842.5767800690728 61.88648199205676 L 842.5632903221433 61.77884269952825 L 842.552182321633 61.6711478088881 L 842.543457178333 61.56340808953563 L 842.5371157647501 61.45563431535299 L 842.5331587150205 61.34783726362778 L 842.5315864248457 61.24002771397536 L 842.5323990514537 61.13221644726084 L 842.5355965135823 61.02441424452105 L 842.5411784914879 60.916631885886424 L 842.5491444269776 60.808880149503025 L 842.5594935234643 60.70116981045468 L 842.5722247460471 60.59351163968555 L 842.5873368216143 60.48591640292299 L 842.6048282389709 60.378394859601016 L 842.6246972489896 60.27095776178435 L 842.6469418647863 60.163615853093255 L 842.6715598619178 60.05637986762915 L 842.6985487786047 59.949260528901206 L 842.7279059159781 59.84226854875404 L 842.7596283383486 59.7354146262965 L 842.7937128735006 59.62870944683179 L 842.8301561130086 59.52216368078894 L 842.8689544125793 59.41578798265577 L 842.910103892415 59.30959298991343 L 842.9536004376021 59.203589321972714 L 842.9994396985221 59.09778757911208 L 843.0476170912873 58.992198341417634 L 843.0981277981986 58.88683216772516 L 843.1509667682271 58.78169959456423 L 843.2061287175203 58.67681113510454 L 843.2636081299289 58.57217727810464 L 843.3233992575597 58.46780848686303 L 843.3854961213495 58.36371519817185 L 843.4498925116641 58.25990782127324 L 843.5165819889179 58.15639673681838 L 843.5855578842187 58.053192295829454 L 843.6568133000345 57.950304818664556 L 843.7303411108832 57.84774459398567 L 843.8061339640448 57.745521877729786 L 843.8841842802972 57.64364689208335 L 843.964484254674 57.54212982446004 L 844.0470258572443 57.44098082648201 L 844.131800833917 57.340210012964775 L 844.218800707265 57.2398274609057 L 844.3080167773734 57.13984320847635 L 844.3994401227095 57.040267254018644 L 844.493061601015 56.94110955504505 L 844.58887185022 56.84238002724283 L 844.6868612893796 56.74408854348249 L 844.7870201196315 56.646244932830506 L 844.889338325176 56.54885897956639 L 844.9938056742778 56.45194042220433 L 845.1004117202893 56.35549895251929 L 845.2091458026946 56.25954421457787 L 845.3199970481759 56.16408580377391 L 845.4329543717013 56.06913326586893 L 845.5480064776324 55.974696096037604 L 845.6651418608545 55.88078373791821 L 845.7843488079269 55.7874055826683 L 845.9056153982543 55.694570968025594 L 846.0289295052787 55.60228917737418 L 846.1542787976922 55.51056943881623 L 846.2816507406699 55.41942092424918 L 846.4110325971237 55.328852748448504 L 846.5424114289758 55.23887396815633 L 846.6757740984524 55.14949358117568 L 846.8111072693978 55.0607205254708 L 846.9483974086077 54.97256367827326 L 847.0876307871824 54.88503185519433 L 847.2287934819003 54.79813380934336 L 847.3718713766094 54.71187823045254 L 847.5168501636396 54.62627374400786 L 847.6637153452328 54.541328910386646 L 847.8124522349935 54.45705222400146 L 847.9630459593565 54.373452112450714 L 848.1154814590749 54.290536935675895 L 848.2697434907257 54.20831498512558 L 848.4258166282343 54.12679448292632 L 848.5836852644171 54.0459835810604 L 848.7433336125421 53.965890360550645 L 848.9047457079072 53.88652283065238 L 849.0679054094377 53.80788892805245 L 849.2327964012992 53.72999651607559 L 849.3994021945301 53.652853383898076 L 849.5677061286899 53.57646724576885 L 849.7376913735252 53.50084574023808 L 849.9093409306535 53.42599642939328 L 850.0826376352619 53.35192679810317 L 850.2575641578244 53.278644253269164 L 850.4341030058346 53.20615612308466 L 850.6122365255546 53.13446965630228 L 850.7919469037812 53.06359202150896 L 850.9732161696261 52.99353030640911 L 851.1560261963137 52.924291517115876 L 851.340358702994 52.85588257745046 L 851.5261952565697 52.78831032824984 L 851.7135172735403 52.72158152668263 L 851.9023060218602 52.65570284557336 L 852.0925426228121 52.590680872735255 L 852.2842080528942 52.52652211031142 L 852.4772831457233 52.463232974124615 L 852.671748593951 52.40081979303573 L 852.8675849511945 52.33928880831086 L 853.0647726339813 52.278646172997206 L 853.2632919237076 52.21889795130775 L 853.4631229686096 52.160050118014894 L 853.6642457857494 52.1021085578529 L 853.866640263013 52.045079064929524 L 854.0702861611213 51.98896734214652 L 854.2751631156541 51.933779000629414 L 854.4812506390867 51.87951955916637 L 854.6885281228386 51.826194443656306 L 854.8969748393341 51.77380898656634 L 855.1065699440753 51.72236842639853 L 855.3172924777263 51.67187790716602 L 855.5291213682093 51.622342477878675 L 855.7420354328119 51.57376709203812 L 855.9560133803051 51.526156607142475 L 856.1710338130723 51.47951578420055 L 856.3870752292495 51.43384928725578 L 856.604116024875 51.38916168291979 L 856.8221344960504 51.34545743991578 L 857.0411088411099 51.302740928631636 L 857.2610171628016 51.261016420682886 L 857.4818374704769 51.220288088485546 L 857.7035476822886 51.18056000483891 L 857.9261256274004 51.14183614251822 L 858.1495490482034 51.10412037387746 L 858.3737956025416 51.06741647046204 L 858.5988428659465 51.03172810263173 L 858.8246683338792 50.99705883919358 L 859.0512494239813 50.96341214704502 L 859.2785634783324 50.930791390827245 L 859.5065877657165 50.899199832588685 L 859.735299483895 50.86864063145883 L 859.9646757618866 50.83911684333235 L 860.1946936622547 50.81063142056343 L 860.4253301834009 50.78318721167063 L 860.6565622618652 50.75678696105195 L 860.8883667746326 50.731433308710464 L 861.1207205414449 50.70712878999027 L 861.3536003271191 50.683875835323 L 861.5869828438707 50.66167676998473 L 861.8208447536425 50.6405338138635 L 862.0551626704383 50.6204490812373 L 862.2899131626618 50.60142458056266 L 862.5250727554594 50.583462214273794 L 862.7606179330678 50.566563778592354 L 862.9965251411654 50.55073096334783 L 863.2327707892282 50.53596535180856 L 863.469331252888 50.52226842052339 L 863.7061828762958 50.50964153917403 L 863.9433019744864 50.49808597043808 L 864.1806648357478 50.48760286986282 L 864.4182477239916 50.47819328574954 L 864.6560268811269 50.46985815904882 L 864.8939785294363 50.462598323266384 L 865.132078873953 50.456414504379765 L 865.3703041048411 50.45130732076569 L 865.6086303997762 50.44727728313828 L 865.8470339263272 50.444324794497916 L 866.08549084434 50.44245015009101 L 866.3239773083219 50.44165353738045 L 866.5624694698249 50.44193503602685 L 866.8009434798317 50.443294617880554 L 867.0393754911402 50.445732146984525 L 867.2777416607477 50.44924737958788 L 867.5160181522359 50.45383996417029 L 867.7541811381544 50.459509441477124 L 867.992206802403 50.46625524456538 L 868.2300713426134 50.474076698860365 L 868.4677509725301 50.48297302222316 L 868.7052219243882 50.49294332502887 L 868.9424604512901 50.50398661025549 L 869.179442829581 50.51610177358371 L 869.4161453612206 50.52928760350731 L 869.652544376153 50.54354278145426 L 869.8886162346736 50.55886588191867 L 870.1243373297932 50.575255372603245 L 870.3596840895989 50.592709614572584 L 870.5946329796108 50.61122686241703 L 870.8291605051355 50.630805264427224 L 871.0632432136163 50.651442862779284 L 871.296857696977 50.67313759373059 L 871.5299805939641 50.695887287826096 L 871.7625885924822 50.71968967011537 L 871.9946584319252 50.74454236038002 L 872.2261669055027 50.77044287337172 L 872.4570908625602 50.797388619060754 L 872.6874072108944 50.825376902895016 L 872.9170929190624 50.85440492606945 L 873.1461250186848 50.88446978580591 L 873.3744806067424 50.9155684756435 L 873.6021368478669 50.947697885739125 L 873.8290709766236 50.980854803178566 L 874.055260299789 51.01503591229771 L 874.2806821986193 51.05023779501413 L 874.5053141311122 51.08645693116888 L 874.7291336342619 51.12368969887854 L 874.9521183263045 51.16193237489736 L 875.1742459089564 51.201181134989596 L 875.395494169645 51.241432054311964 L 875.615840983728 51.28268110780607 L 875.8352643167079 51.32492417060092 L 876.0537422264343 51.368157018425464 L 876.2712528652983 51.41237532803093 L 876.4877744824171 51.45757467762322 L 876.7032854258094 51.503750547305025 L 876.9177641445607 51.55089831952786 L 877.1311891909777 51.5990132795538 L 877.3435392227336 51.64809061592693 L 877.5547930050024 51.69812542095451 L 877.7649294125815 51.749112691197745 L 877.9739274320056 51.801047327972086 L 878.1817661636468 51.85392413785714 L 878.388424823805 51.90773783321599 L 878.5938827467868 51.962483032723924 L 878.7981193869707 52.01815426190663 L 879.001114320863 52.07474595368758 L 879.2028472491396 52.132252448944755 L 879.4032979986757 52.190667997076545 L 879.6024465245633 52.24998675657682 L 879.8002729121159 52.310202795619055 L 879.9967573788596 52.371310092649544 L 880.1918802765114 52.43330253698949 L 880.3856220929441 52.49617392944612 L 880.5779634541375 52.559917982932596 L 880.768885126116 52.62452832309667 L 880.9583680168711 52.68999848895818 L 881.146393178272 52.7563219335551 L 881.3329418079591 52.823492024598224 L 881.5179952512248 52.89150204513444 L 881.701535002879 52.960345194218355 L 881.8835427090997 53.03001458759244 L 882.0640001692678 53.10050325837541 L 882.2428893377877 53.171804157758935 L 882.4201923258914 53.243910155712484 L 882.5958914034283 53.31681404169635 L 882.7699690006366 53.39050852538269 L 882.9424077099019 53.46498623738456 L 883.1131902874969 53.5402397299928 L 883.2822996553061 53.61626147792087 L 883.4497189025337 53.69304387905734 L 883.6154312873946 53.770579255226075 L 883.7794202387882 53.848859852954064 L 883.9416693579562 53.92787784424677 L 884.1021624201219 54.00762532737092 L 884.2608833761127 54.08809432764465 L 884.4178163539652 54.16927679823499 L 884.5729456605126 54.251164620962534 L 884.7262557829534 54.33374960711325 L 884.8777313904031 54.41702349825734 L 885.0273573354273 54.500977967075094 L 885.175118655556 54.58560461818958 L 885.3210005747806 54.670894989006214 L 885.4649885050304 54.75684055055899 L 885.6070680476327 54.84343270836337 L 885.7472249947514 54.93066280327574 L 885.8854453308086 55.0185221123593 L 886.021715233886 55.107001849756344 L 886.1560210771067 55.196093167566886 L 886.2883494299986 55.28578715673337 L 886.4186870598362 55.37607484793163 L 886.5470209329656 55.46694721246779 L 886.6733382161062 55.55839516318112 L 886.7976262776349 55.65040955535275 L 886.9198726888493 55.742981187620146 L 887.04006522521 55.83610080289723 L 887.1581918675637 55.92975908930006 L 887.2742408033444 56.02394668107806 L 887.3882004277552 56.11865415955053 L 887.5000593449289 56.213872054048544 L 887.6098063690667 56.30959084286201 L 887.7174305255579 56.405800954191804 L 887.8229210520764 56.50249276710697 L 887.9262673996574 56.5996566125068 L 888.0274592337523 56.69728277408771 L 888.1264864352622 56.79536148931491 L 888.2233391015492 56.89388295039859 L 888.3180075474276 56.99283730527477 L 888.4104823061315 57.09221465859041 L 888.5007541302623 57.19200507269298 L 888.5888139927126 57.29219856862425 L 888.6746530875697 57.39278512711811 L 888.7582628309957 57.49375468960253 L 888.8396348620856 57.59509715920541 L 888.9187610437045 57.69680240176424 L 888.9956334633 57.79886024683951 L 889.0702444336941 57.90126048873177 L 889.1425864938521 58.003992887502164 L 889.2126524096284 58.10704716999642 L 889.2804351744894 58.21041303087217 L 889.3459280102154 58.31408013362946 L 889.4091243675773 58.41803811164441 L 889.470017926992 58.52227656920584 L 889.5286025991544 58.62678508255487 L 889.584872525646 58.731553200927245 L 889.6388220795212 58.83657044759845 L 889.6904458658695 58.94182632093131 L 889.7397387223551 59.04731029542622 L 889.7866957197338 59.153011822773635 L 889.8313121623446 59.25892033290889 L 889.8735835885807 59.36502523506925 L 889.9135057713345 59.471315918852895 L 889.9510747184212 59.57778175528004 L 889.9862866729771 59.684412097855756 L 890.0191381138366 59.79119628363465 L 890.0496257558824 59.89812363428712 L 890.0777465503761 60.005183457167206 L 890.1034976852615 60.11236504638185 L 890.1268765854467 60.21965768386144 L 890.1478809130609 60.327050640431644 L 890.1665085676892 60.43453317688629 L 890.1827576865815 60.5420945450613 L 890.1966266448394 60.6497239889095 L 890.2081140555787 60.757410745576195 L 890.2172187700678 60.86514404647545 L 890.223939877843 60.972913118366954 L 890.228276706799 61.08070718443333 L 890.2302288232565 61.188515465357796 M 890.2303498133125 95.52678387991818 L 890.2291573534088 95.6345944248348 L 890.2255800929428 95.74239418878678 L 890.2196183896375 95.85017239188754 L 890.2112728396581 95.95791825640659 L 890.2005442775529 96.06562100784727 L 890.1874337761691 96.1732698760242 L 890.1719426465459 96.28085409614023 L 890.1540724377833 96.38836290986303 L 890.1338249368872 96.49578556640084 L 890.111202168591 96.60311132357748 L 890.0862063951527 96.7103294489067 L 890.0588401161286 96.8174292206653 L 890.0291060681241 96.92439992896537 L 889.9970072245189 97.0312308768252 L 889.9625467951709 97.13791138123905 L 889.9257282260941 97.24443077424536 L 889.8865551991147 97.35077840399362 L 889.8450316315029 97.45694363580944 L 889.8011616755809 97.56291585325815 L 889.7549497183076 97.66868445920629 L 889.7064003808403 97.77423887688141 L 889.6555185180722 97.8795685509297 L 889.6023092181473 97.98466294847155 L 889.5467778019511 98.08951156015478 L 889.488929822579 98.19410390120557 L 889.4287710647809 98.29842951247699 L 889.3663075443823 98.40247796149485 L 889.301545507683 98.50623884350097 L 889.234491430833 98.60970178249359 L 889.1651520191841 98.71285643226504 L 889.0935342066194 98.81569247743631 L 889.0196451548608 98.91819963448859 L 888.9434922527518 99.02036765279156 L 888.8650831155189 99.12218631562857 L 888.7844255840108 99.22364544121817 L 888.7015277239134 99.32473488373233 L 888.6163978249435 99.42544453431107 L 888.5290444000201 99.52576432207324 L 888.4394761844129 99.62568421512367 L 888.3477021348689 99.72519422155631 L 888.2537314287165 99.82428439045346 L 888.1575734629479 99.92294481288079 L 888.0592378532798 100.02116562287829 L 887.958734433191 100.11893699844678 L 887.8560732529398 100.2162491625302 L 887.7512645785588 100.31309238399325 L 887.6443188908279 100.40945697859446 L 887.5352468842269 100.50533330995468 L 887.4240594658656 100.60071179052068 L 887.310767754393 100.69558288252388 L 887.1953830788862 100.78993709893413 L 887.0779169777161 100.88376500440843 L 886.9583811973952 100.97705721623441 L 886.8367876914019 101.06980440526866 L 886.7131486189855 101.16199729686952 L 886.5874763439501 101.25362667182469 L 886.4597834334187 101.34468336727302 L 886.3300826565757 101.43515827762084 L 886.1983869833907 101.52504235545253 L 886.0647095833215 101.61432661243519 L 885.9290638239966 101.70300212021755 L 885.7914632698787 101.7910600113227 L 885.6519216809088 101.87849148003492 L 885.5104530111295 101.9652877832802 L 885.3670714072897 102.05144024150056 L 885.2217912074306 102.13694023952193 L 885.0746269394507 102.22177922741581 L 884.9255933196546 102.30594872135407 L 884.7747052512797 102.38944030445748 L 884.6219778230073 102.47224562763729 L 884.467426307453 102.5543564104302 L 884.3110661596396 102.63576444182635 L 884.1529130154513 102.71646158109044 L 883.992982690071 102.79643975857579 L 883.8312911763978 102.8756909765313 L 883.6678546434485 102.95420730990122 L 883.50268943474 103.03198090711763 L 883.3358120666556 103.10900399088564 L 883.1672392267932 103.18526885896105 L 882.996987772296 103.2607678849206 L 882.8250747281679 103.33549351892461 L 882.6515172855699 103.40943828847196 L 882.4763328001015 103.48259479914732 L 882.2995387900655 103.55495573536056 L 882.1211529347155 103.6265138610784 L 881.9411930724882 103.69726202054787 L 881.7596771992202 103.76719313901197 L 881.5766234663472 103.83630022341715 L 881.3920501790902 103.90457636311257 L 881.205975794624 103.97201473054113 L 881.0184189202321 104.03860858192229 L 880.8293983114454 104.10435125792642 L 880.6389328701675 104.1692361843407 L 880.4470416427837 104.23325687272656 L 880.2537438182569 104.29640692106851 L 880.0590587262084 104.35868001441433 L 879.8630058349852 104.4200699255066 L 879.665604749713 104.48057051540535 L 879.466875210336 104.54017573410202 L 879.2668370896422 104.5988796211244 L 879.0655103912773 104.65667630613272 L 878.8629152477432 104.71356000950664 L 878.6590719183854 104.7695250429232 L 878.4540007873671 104.82456580992574 L 878.2477223616304 104.87867680648341 L 878.0402572688461 104.93185262154162 L 877.8316262553503 104.98408793756322 L 877.6218501840709 105.0353775310601 L 877.4109500324399 105.08571627311568 L 877.1989468902968 105.13509912989768 L 876.9858619577792 105.1835211631616 L 876.7717165432028 105.23097753074444 L 876.5565320609305 105.27746348704899 L 876.3403300292313 105.32297438351839 L 876.1231320681281 105.36750566910086 L 875.9049598972362 105.41105289070501 L 875.6858353335906 105.45361169364494 L 875.4657802894652 105.49517782207583 L 875.2448167701812 105.53574711941947 L 875.0229668719062 105.57531552877992 L 874.8002527794451 105.61387909334925 L 874.5766967640217 105.65143395680312 L 874.3523211810513 105.68797636368647 L 874.1271484679049 105.72350265978909 L 873.9012011416665 105.75800929251095 L 873.6745017968803 105.79149281121755 L 873.4470731032919 105.82394986758491 L 873.2189378035811 105.85537721593445 L 872.9901187110878 105.88577171355752 L 872.7606387075305 105.9151303210297 L 872.5305207407184 105.94345010251467 L 872.2997878222563 105.97072822605791 L 872.068463025244 105.99696196386981 L 871.8365694819681 106.02214869259844 L 871.60413038159 106.04628589359189 L 871.371168967826 106.0693711531502 L 871.137708536623 106.09140216276666 L 870.90377243383 106.11237671935864 L 870.669384052862 106.13229272548797 L 870.4345668323621 106.15114818957065 L 870.1993442538565 106.16894122607596 L 869.9637398394068 106.1856700557151 L 869.7277771492585 106.20133300561903 L 869.4914797794838 106.21592850950582 L 869.2548713596228 106.22945510783724 L 869.0179755503202 106.24191144796474 L 868.7808160409597 106.25329628426466 L 868.5434165472946 106.2636084782629 L 868.3058008090761 106.2728469987486 L 868.0679925876805 106.28101092187747 L 867.8300156637314 106.28809943126396 L 867.591893834723 106.29411181806304 L 867.3536509126399 106.29904748104106 L 867.1153107215755 106.30290592663582 L 866.8768970953505 106.30568676900597 L 866.6384338751287 106.30738973006962 L 866.3999449070336 106.30801463953205 L 866.161454039763 106.30756143490284 L 865.9229851222052 106.3060301615021 L 865.684562001053 106.30342097245587 L 865.44620851842 106.29973412868088 L 865.2079485094556 106.29496999885845 L 864.9698057999624 106.28912905939758 L 864.7318042040127 106.28221189438736 L 864.4939675215679 106.27421919553852 L 864.256319536098 106.26515176211427 L 864.0188840122034 106.25501050085043 L 863.7816846932387 106.24379642586464 L 863.5447452989383 106.23151065855508 L 863.308089523044 106.21815442748823 L 863.0717410309362 106.20372906827606 L 862.8357234572671 106.1882360234425 L 862.6000604035976 106.17167684227908 L 862.3647754360364 106.15405318069014 L 862.1298920828845 106.13536680102716 L 861.8954338322811 106.11561957191253 L 861.6614241298563 106.09481346805269 L 861.4278863763849 106.0729505700407 L 861.194843925448 106.05003306414814 L 860.9623200810963 106.0260632421065 L 860.7303380955204 106.00104350087803 L 860.4989211667258 105.97497634241597 L 860.2680924362123 105.94786437341445 L 860.0378749866608 105.9197103050478 L 859.8082918396242 105.89051695269937 L 859.5793659532259 105.86028723568009 L 859.3511202198639 105.82902417693644 L 859.1235774639213 105.79673090274827 L 858.896760439484 105.76341064241608 L 858.6706918280655 105.72906672793813 L 858.4453942363385 105.69370259367726 L 858.2208901938744 105.6573217760174 L 857.9972021508905 105.61992791301003 L 857.7743524760047 105.58152474401028 L 857.5523634539985 105.54211610930304 L 857.3312572835895 105.50170594971894 L 857.1110560752101 105.46029830624026 L 856.8917818487979 105.41789731959686 L 856.6734565315927 105.37450722985206 L 856.4561019559443 105.33013237597868 L 856.2397398571293 105.28477719542511 L 856.0243918711769 105.23844622367163 L 855.8100795327067 105.1911440937768 L 855.5968242727736 105.14287553591419 L 855.3846474167261 105.09364537689936 L 855.1735701820728 105.0434585397072 L 854.9636136763614 104.99232004297959 L 854.7547988950676 104.9402350005236 L 854.5471467194952 104.88720862080007 L 854.3406779146891 104.83324620640276 L 854.1354131273574 104.77835315352817 L 853.931372883808 104.72253495143585 L 853.728577587895 104.66579718189945 L 853.5270475189792 104.60814551864868 L 853.3268028298995 104.54958572680184 L 853.1278635449579 104.49012366228926 L 852.9302495579171 104.42976527126788 L 852.7339806300113 104.36851658952648 L 852.5390763879694 104.30638374188221 L 852.3455563220535 104.24337294156805 L 852.1534397841087 104.17949048961154 L 851.962745985629 104.11474277420461 L 851.773493995835 104.04913627006486 L 851.5857027397681 103.98267753778805 L 851.3993909963974 103.91537322319199 L 851.214577396742 103.84723005665208 L 851.031280422008 103.77825485242818 L 850.8495184017397 103.70845450798322 L 850.6693095119882 103.63783600329349 L 850.490671773492 103.56640640015061 L 850.313623049876 103.49417284145538 L 850.1381810458652 103.42114255050346 L 849.9643633055138 103.3473228302631 L 849.7921872104508 103.27272106264479 L 849.6216699781424 103.19734470776314 L 849.4528286601699 103.1212013031908 L 849.2856801405239 103.04429846320481 L 849.1202411339176 102.96664387802507 L 848.9565281841134 102.88824531304537 L 848.7945576622701 102.8091106080569 L 848.6343457653048 102.72924767646418 L 848.4759085142737 102.64866450449387 L 848.3192617527699 102.56736915039596 L 848.164421145339 102.48536974363815 L 848.0114021759127 102.40267448409276 L 847.8602201462604 102.31929164121684 L 847.7108901744591 102.2352295532252 L 847.5634271933816 102.15049662625658 L 847.4178459492031 102.06510133353308 L 847.2741609999266 101.97905221451278 L 847.1323867139274 101.89235787403591 L 846.992537268516 101.80502698146424 L 846.8546266485203 101.71706826981428 L 846.7186686448872 101.62849053488388 L 846.5846768533041 101.53930263437272 L 846.4526646728384 101.44951348699652 L 846.322645304598 101.35913207159521 L 846.1946317504115 101.26816742623502 L 846.0686368115277 101.17662864730465 L 845.9446730873353 101.08452488860574 L 845.8227529741037 100.9918653604374 L 845.7028886637422 100.89865932867522 L 845.5850921425823 100.80491611384473 L 845.4693751901779 100.71064509018925 L 845.3557493781276 100.61585568473262 L 845.2442260689182 100.5205573763364 L 845.1348164147876 100.424759694752 L 845.0275313566099 100.32847221966773 L 844.9223816228016 100.2317045797509 L 844.8193777282486 100.13446645168483 L 844.7185299732542 100.03676755920131 L 844.6198484425101 99.93861767210817 L 844.5233430040872 99.84002660531232 L 844.4290233084488 99.7410042178383 L 844.3368987874858 99.64156041184232 L 844.2469786535736 99.54170513162211 L 844.1592718986507 99.4414483626225 L 844.0737872933194 99.34080013043682 L 843.9905333859691 99.23977049980442 L 843.9095185019211 99.13836957360418 L 843.8307507425963 99.03660749184422 L 843.754237984705 98.9344944306479 L 843.6799878794592 98.83204060123627 L 843.6080078518077 98.72925624890688 L 843.5383050996929 98.6261516520093 L 843.4708865933325 98.52273712091731 L 843.4057590745205 98.41902299699785 L 843.3429290559545 98.31501965157686 L 843.2824028205844 98.21073748490224 L 843.2241864209828 98.10618692510373 L 843.1682856787417 98.0013784271502 L 843.1147061838882 97.89632247180411 L 843.0634532943274 97.79102956457344 L 843.0145321353056 97.68551023466115 L 842.9679475988977 97.57977503391233 L 842.9237043435188 97.47383453575894 L 842.8818067934574 97.3676993341625 L 842.8422591384336 97.2613800425547 L 842.80506533318 97.15488729277617 L 842.7702290970461 97.04823173401307 L 842.7377539136264 96.94142403173245 L 842.7076430304124 96.8344748666155 L 842.6798994584672 96.72739493348962 L 842.6545259721248 96.6201949402589 L 842.6315251087128 96.51288560683331 L 842.6108991682984 96.40547766405678 L 842.5926502134582 96.29798185263407 L 842.5767800690728 96.19040892205675 L 842.5632903221433 96.08276962952824 L 842.552182321633 95.9750747388881 L 842.543457178333 95.86733501953563 L 842.5371157647501 95.75956124535298 L 842.5331587150205 95.65176419362778 L 842.5315864248457 95.54395464397535" stroke-miterlimit="10" stroke-width="2.7769845610000004" stroke-dasharray=""/></g><g><g/><text fill="black" stroke="none" font-family="sans-serif" font-size="11pt" font-style="normal" font-weight="normal" text-decoration="normal" x="835.0030080490235" y="123.83569119881818" text-anchor="start" dominant-baseline="alphabetic" xml:space="preserve">Database</text></g><g><path fill="white" stroke="black" paint-order="fill stroke markers" d=" M 90.987082381 658.8952752903183 A 9.311065881 9.311065881 0 1 1 90.98707772546743 658.8859642259891 M 81.67601649999999 668.2063411713183 L 81.67601649999999 688.1352891973183 M 69.914670124 675.3938306233183 L 93.43736287599998 675.3938306233183 M 81.67601649999999 688.1352891973183 L 69.914670124 706.7574209593183 M 81.67601649999999 688.1352891973183 L 93.43736287599998 706.7574209593183" stroke-miterlimit="10" stroke-width="2.7769845610000004" stroke-dasharray=""/></g><g><g/><text fill="black" stroke="none" font-family="sans-serif" font-size="11pt" font-style="normal" font-weight="normal" text-decoration="normal" x="53.1470400595703" y="643.2951561388182" text-anchor="start" dominant-baseline="alphabetic" xml:space="preserve">Landlord</text></g><g><path fill="white" stroke="black" paint-order="fill stroke markers" d=" M 367.1322579500443 674.3973832220182 A 24.2577769005 24.2577769005 0 1 1 367.13224582115686 674.3731254491606 M 317.2282118685443 700.8767477713182 L 368.52075023054425 700.8767477713182" stroke-miterlimit="10" stroke-width="2.7769845610000004" stroke-dasharray=""/></g><g><g/><text fill="black" stroke="none" font-family="sans-serif" font-size="11pt" font-style="normal" font-weight="normal" text-decoration="normal" x="324.1343305978841" y="643.2951561388182" text-anchor="start" dominant-baseline="alphabetic" xml:space="preserve">Client</text></g><g><path fill="white" stroke="black" paint-order="fill stroke markers" d=" M 646.2906529195104 674.3973832220182 A 24.2577769005 24.2577769005 0 1 1 646.290640790623 674.3731254491606 M 596.3866068380105 700.8767477713182 L 647.6791452000105 700.8767477713182" stroke-miterlimit="10" stroke-width="2.7769845610000004" stroke-dasharray=""/></g><g><g/><text fill="black" stroke="none" font-family="sans-serif" font-size="11pt" font-style="normal" font-weight="normal" text-decoration="normal" x="593.5074777646159" y="643.2951561388182" text-anchor="start" dominant-baseline="alphabetic" xml:space="preserve">Backend</text></g><g><path fill="white" stroke="black" paint-order="fill stroke markers" d=" M 842.5315561773126 696.0578627978183 L 842.5315561773126 661.7539358678182 L 890.2303498133125 661.7539358678182 L 890.2303498133125 696.0578627978183" stroke-miterlimit="10" stroke-width="2.7769845610000004" stroke-dasharray=""/><path fill="white" stroke="black" paint-order="fill stroke markers" d=" M 890.2303498133125 660.5614660269182 L 890.2291573534088 660.6692765718349 L 890.2255800929428 660.7770763357868 L 890.2196183896375 660.8848545388876 L 890.2112728396581 660.9926004034066 L 890.2005442775529 661.1003031548473 L 890.1874337761691 661.2079520230242 L 890.1719426465459 661.3155362431403 L 890.1540724377833 661.4230450568631 L 890.1338249368872 661.5304677134009 L 890.111202168591 661.6377934705775 L 890.0862063951527 661.7450115959067 L 890.0588401161286 661.8521113676653 L 890.0291060681241 661.9590820759654 L 889.9970072245189 662.0659130238253 L 889.9625467951709 662.1725935282391 L 889.9257282260941 662.2791129212453 L 889.8865551991147 662.3854605509936 L 889.8450316315029 662.4916257828095 L 889.8011616755809 662.5975980002581 L 889.7549497183076 662.7033666062063 L 889.7064003808403 662.8089210238815 L 889.6555185180722 662.9142506979297 L 889.6023092181473 663.0193450954715 L 889.5467778019511 663.1241937071547 L 889.488929822579 663.2287860482056 L 889.4287710647809 663.333111659477 L 889.3663075443823 663.4371601084948 L 889.301545507683 663.5409209905009 L 889.234491430833 663.6443839294936 L 889.1651520191841 663.7475385792651 L 889.0935342066194 663.8503746244363 L 889.0196451548608 663.9528817814886 L 888.9434922527518 664.0550497997916 L 888.8650831155189 664.1568684626286 L 888.7844255840108 664.2583275882182 L 888.7015277239134 664.3594170307323 L 888.6163978249435 664.4601266813111 L 888.5290444000201 664.5604464690732 L 888.4394761844129 664.6603663621237 L 888.3477021348689 664.7598763685563 L 888.2537314287165 664.8589665374535 L 888.1575734629479 664.9576269598808 L 888.0592378532798 665.0558477698783 L 887.958734433191 665.1536191454468 L 887.8560732529398 665.2509313095302 L 887.7512645785588 665.3477745309932 L 887.6443188908279 665.4441391255945 L 887.5352468842269 665.5400154569547 L 887.4240594658656 665.6353939375207 L 887.310767754393 665.7302650295239 L 887.1953830788862 665.8246192459342 L 887.0779169777161 665.9184471514085 L 886.9583811973952 666.0117393632345 L 886.8367876914019 666.1044865522687 L 886.7131486189855 666.1966794438696 L 886.5874763439501 666.2883088188247 L 886.4597834334187 666.379365514273 L 886.3300826565757 666.4698404246209 L 886.1983869833907 666.5597245024526 L 886.0647095833215 666.6490087594352 L 885.9290638239966 666.7376842672176 L 885.7914632698787 666.8257421583227 L 885.6519216809088 666.9131736270349 L 885.5104530111295 666.9999699302803 L 885.3670714072897 667.0861223885006 L 885.2217912074306 667.1716223865219 L 885.0746269394507 667.2564613744158 L 884.9255933196546 667.3406308683541 L 884.7747052512797 667.4241224514575 L 884.6219778230073 667.5069277746373 L 884.467426307453 667.5890385574302 L 884.3110661596396 667.6704465888264 L 884.1529130154513 667.7511437280905 L 883.992982690071 667.8311219055759 L 883.8312911763978 667.9103731235313 L 883.6678546434485 667.9888894569012 L 883.50268943474 668.0666630541176 L 883.3358120666556 668.1436861378857 L 883.1672392267932 668.2199510059611 L 882.996987772296 668.2954500319206 L 882.8250747281679 668.3701756659246 L 882.6515172855699 668.444120435472 L 882.4763328001015 668.5172769461474 L 882.2995387900655 668.5896378823605 L 882.1211529347155 668.6611960080784 L 881.9411930724882 668.7319441675479 L 881.7596771992202 668.801875286012 L 881.5766234663472 668.8709823704172 L 881.3920501790902 668.9392585101126 L 881.205975794624 669.0066968775411 L 881.0184189202321 669.0732907289223 L 880.8293983114454 669.1390334049264 L 880.6389328701675 669.2039183313407 L 880.4470416427837 669.2679390197266 L 880.2537438182569 669.3310890680685 L 880.0590587262084 669.3933621614143 L 879.8630058349852 669.4547520725066 L 879.665604749713 669.5152526624054 L 879.466875210336 669.574857881102 L 879.2668370896422 669.6335617681244 L 879.0655103912773 669.6913584531327 L 878.8629152477432 669.7482421565066 L 878.6590719183854 669.8042071899232 L 878.4540007873671 669.8592479569257 L 878.2477223616304 669.9133589534835 L 878.0402572688461 669.9665347685417 L 877.8316262553503 670.0187700845632 L 877.6218501840709 670.0700596780601 L 877.4109500324399 670.1203984201157 L 877.1989468902968 670.1697812768977 L 876.9858619577792 670.2182033101616 L 876.7717165432028 670.2656596777445 L 876.5565320609305 670.312145634049 L 876.3403300292313 670.3576565305184 L 876.1231320681281 670.4021878161009 L 875.9049598972362 670.445735037705 L 875.6858353335906 670.4882938406449 L 875.4657802894652 670.5298599690758 L 875.2448167701812 670.5704292664195 L 875.0229668719062 670.6099976757799 L 874.8002527794451 670.6485612403493 L 874.5766967640217 670.6861161038031 L 874.3523211810513 670.7226585106865 L 874.1271484679049 670.7581848067891 L 873.9012011416665 670.7926914395109 L 873.6745017968803 670.8261749582175 L 873.4470731032919 670.8586320145849 L 873.2189378035811 670.8900593629345 L 872.9901187110878 670.9204538605576 L 872.7606387075305 670.9498124680297 L 872.5305207407184 670.9781322495147 L 872.2997878222563 671.0054103730579 L 872.068463025244 671.0316441108698 L 871.8365694819681 671.0568308395984 L 871.60413038159 671.0809680405919 L 871.371168967826 671.1040533001502 L 871.137708536623 671.1260843097666 L 870.90377243383 671.1470588663586 L 870.669384052862 671.166974872488 L 870.4345668323621 671.1858303365707 L 870.1993442538565 671.203623373076 L 869.9637398394068 671.2203522027152 L 869.7277771492585 671.2360151526191 L 869.4914797794838 671.2506106565058 L 869.2548713596228 671.2641372548372 L 869.0179755503202 671.2765935949648 L 868.7808160409597 671.2879784312647 L 868.5434165472946 671.2982906252629 L 868.3058008090761 671.3075291457486 L 868.0679925876805 671.3156930688775 L 867.8300156637314 671.322781578264 L 867.591893834723 671.328793965063 L 867.3536509126399 671.333729628041 L 867.1153107215755 671.3375880736359 L 866.8768970953505 671.340368916006 L 866.6384338751287 671.3420718770697 L 866.3999449070336 671.3426967865321 L 866.161454039763 671.3422435819028 L 865.9229851222052 671.3407123085021 L 865.684562001053 671.3381031194559 L 865.44620851842 671.334416275681 L 865.2079485094556 671.3296521458585 L 864.9698057999624 671.3238112063976 L 864.7318042040127 671.3168940413874 L 864.4939675215679 671.3089013425385 L 864.256319536098 671.2998339091143 L 864.0188840122034 671.2896926478504 L 863.7816846932387 671.2784785728646 L 863.5447452989383 671.2661928055551 L 863.308089523044 671.2528365744882 L 863.0717410309362 671.2384112152761 L 862.8357234572671 671.2229181704425 L 862.6000604035976 671.2063589892791 L 862.3647754360364 671.1887353276902 L 862.1298920828845 671.1700489480272 L 861.8954338322811 671.1503017189125 L 861.6614241298563 671.1294956150527 L 861.4278863763849 671.1076327170407 L 861.194843925448 671.0847152111481 L 860.9623200810963 671.0607453891065 L 860.7303380955204 671.035725647878 L 860.4989211667258 671.009658489416 L 860.2680924362123 670.9825465204144 L 860.0378749866608 670.9543924520478 L 859.8082918396242 670.9251990996994 L 859.5793659532259 670.8949693826801 L 859.3511202198639 670.8637063239364 L 859.1235774639213 670.8314130497483 L 858.896760439484 670.798092789416 L 858.6706918280655 670.7637488749382 L 858.4453942363385 670.7283847406773 L 858.2208901938744 670.6920039230174 L 857.9972021508905 670.6546100600101 L 857.7743524760047 670.6162068910103 L 857.5523634539985 670.576798256303 L 857.3312572835895 670.536388096719 L 857.1110560752101 670.4949804532403 L 856.8917818487979 670.4525794665968 L 856.6734565315927 670.409189376852 L 856.4561019559443 670.3648145229787 L 856.2397398571293 670.3194593424251 L 856.0243918711769 670.2731283706717 L 855.8100795327067 670.2258262407768 L 855.5968242727736 670.1775576829142 L 855.3846474167261 670.1283275238994 L 855.1735701820728 670.0781406867072 L 854.9636136763614 670.0270021899796 L 854.7547988950676 669.9749171475236 L 854.5471467194952 669.9218907678 L 854.3406779146891 669.8679283534028 L 854.1354131273574 669.8130353005282 L 853.931372883808 669.7572170984358 L 853.728577587895 669.7004793288995 L 853.5270475189792 669.6428276656487 L 853.3268028298995 669.5842678738019 L 853.1278635449579 669.5248058092893 L 852.9302495579171 669.4644474182679 L 852.7339806300113 669.4031987365265 L 852.5390763879694 669.3410658888822 L 852.3455563220535 669.2780550885681 L 852.1534397841087 669.2141726366116 L 851.962745985629 669.1494249212046 L 851.773493995835 669.0838184170649 L 851.5857027397681 669.0173596847881 L 851.3993909963974 668.950055370192 L 851.214577396742 668.8819122036521 L 851.031280422008 668.8129369994282 L 850.8495184017397 668.7431366549832 L 850.6693095119882 668.6725181502935 L 850.490671773492 668.6010885471507 L 850.313623049876 668.5288549884554 L 850.1381810458652 668.4558246975034 L 849.9643633055138 668.3820049772631 L 849.7921872104508 668.3074032096448 L 849.6216699781424 668.2320268547631 L 849.4528286601699 668.1558834501908 L 849.2856801405239 668.0789806102048 L 849.1202411339176 668.001326025025 L 848.9565281841134 667.9229274600453 L 848.7945576622701 667.8437927550569 L 848.6343457653048 667.7639298234642 L 848.4759085142737 667.6833466514938 L 848.3192617527699 667.602051297396 L 848.164421145339 667.5200518906381 L 848.0114021759127 667.4373566310927 L 847.8602201462604 667.3539737882169 L 847.7108901744591 667.2699117002252 L 847.5634271933816 667.1851787732566 L 847.4178459492031 667.0997834805331 L 847.2741609999266 667.0137343615128 L 847.1323867139274 666.927040021036 L 846.992537268516 666.8397091284643 L 846.8546266485203 666.7517504168143 L 846.7186686448872 666.6631726818839 L 846.5846768533041 666.5739847813727 L 846.4526646728384 666.4841956339966 L 846.322645304598 666.3938142185953 L 846.1946317504115 666.302849573235 L 846.0686368115277 666.2113107943047 L 845.9446730873353 666.1192070356058 L 845.8227529741037 666.0265475074374 L 845.7028886637422 665.9333414756752 L 845.5850921425823 665.8395982608447 L 845.4693751901779 665.7453272371893 L 845.3557493781276 665.6505378317327 L 845.2442260689182 665.5552395233364 L 845.1348164147876 665.459441841752 L 845.0275313566099 665.3631543666678 L 844.9223816228016 665.266386726751 L 844.8193777282486 665.1691485986848 L 844.7185299732542 665.0714497062013 L 844.6198484425101 664.9732998191082 L 844.5233430040872 664.8747087523124 L 844.4290233084488 664.7756863648383 L 844.3368987874858 664.6762425588423 L 844.2469786535736 664.5763872786222 L 844.1592718986507 664.4761305096225 L 844.0737872933194 664.3754822774368 L 843.9905333859691 664.2744526468044 L 843.9095185019211 664.1730517206042 L 843.8307507425963 664.0712896388442 L 843.754237984705 663.9691765776479 L 843.6799878794592 663.8667227482363 L 843.6080078518077 663.7639383959068 L 843.5383050996929 663.6608337990093 L 843.4708865933325 663.5574192679173 L 843.4057590745205 663.4537051439978 L 843.3429290559545 663.3497017985769 L 843.2824028205844 663.2454196319022 L 843.2241864209828 663.1408690721038 L 843.1682856787417 663.0360605741503 L 843.1147061838882 662.9310046188041 L 843.0634532943274 662.8257117115735 L 843.0145321353056 662.7201923816611 L 842.9679475988977 662.6144571809124 L 842.9237043435188 662.5085166827589 L 842.8818067934574 662.4023814811625 L 842.8422591384336 662.2960621895547 L 842.80506533318 662.1895694397762 L 842.7702290970461 662.082913881013 L 842.7377539136264 661.9761061787325 L 842.7076430304124 661.8691570136156 L 842.6798994584672 661.7620770804897 L 842.6545259721248 661.6548770872589 L 842.6315251087128 661.5475677538333 L 842.6108991682984 661.4401598110568 L 842.5926502134582 661.3326639996341 L 842.5767800690728 661.2250910690568 L 842.5632903221433 661.1174517765282 L 842.552182321633 661.0097568858881 L 842.543457178333 660.9020171665356 L 842.5371157647501 660.794243392353 L 842.5331587150205 660.6864463406278 L 842.5315864248457 660.5786367909753 L 842.5323990514537 660.4708255242608 L 842.5355965135823 660.363023321521 L 842.5411784914879 660.2552409628864 L 842.5491444269776 660.147489226503 L 842.5594935234643 660.0397788874546 L 842.5722247460471 659.9321207166855 L 842.5873368216143 659.824525479923 L 842.6048282389709 659.717003936601 L 842.6246972489896 659.6095668387843 L 842.6469418647863 659.5022249300932 L 842.6715598619178 659.3949889446292 L 842.6985487786047 659.2878696059012 L 842.7279059159781 659.1808776257541 L 842.7596283383486 659.0740237032965 L 842.7937128735006 658.9673185238318 L 842.8301561130086 658.8607727577889 L 842.8689544125793 658.7543970596557 L 842.910103892415 658.6482020669134 L 842.9536004376021 658.5421983989727 L 842.9994396985221 658.436396656112 L 843.0476170912873 658.3308074184176 L 843.0981277981986 658.2254412447252 L 843.1509667682271 658.1203086715642 L 843.2061287175203 658.0154202121046 L 843.2636081299289 657.9107863551046 L 843.3233992575597 657.8064175638631 L 843.3854961213495 657.7023242751718 L 843.4498925116641 657.5985168982733 L 843.5165819889179 657.4950058138184 L 843.5855578842187 657.3918013728295 L 843.6568133000345 657.2889138956646 L 843.7303411108832 657.1863536709857 L 843.8061339640448 657.0841309547297 L 843.8841842802972 656.9822559690833 L 843.964484254674 656.8807389014601 L 844.0470258572443 656.779589903482 L 844.131800833917 656.6788190899648 L 844.218800707265 656.5784365379058 L 844.3080167773734 656.4784522854764 L 844.3994401227095 656.3788763310187 L 844.493061601015 656.279718632045 L 844.58887185022 656.1809891042428 L 844.6868612893796 656.0826976204825 L 844.7870201196315 655.9848540098305 L 844.889338325176 655.8874680565664 L 844.9938056742778 655.7905494992043 L 845.1004117202893 655.6941080295193 L 845.2091458026946 655.5981532915779 L 845.3199970481759 655.5026948807739 L 845.4329543717013 655.4077423428689 L 845.5480064776324 655.3133051730376 L 845.6651418608545 655.2193928149183 L 845.7843488079269 655.1260146596683 L 845.9056153982543 655.0331800450256 L 846.0289295052787 654.9408982543742 L 846.1542787976922 654.8491785158162 L 846.2816507406699 654.7580300012492 L 846.4110325971237 654.6674618254485 L 846.5424114289758 654.5774830451563 L 846.6757740984524 654.4881026581756 L 846.8111072693978 654.3993296024709 L 846.9483974086077 654.3111727552732 L 847.0876307871824 654.2236409321944 L 847.2287934819003 654.1367428863434 L 847.3718713766094 654.0504873074525 L 847.5168501636396 653.9648828210079 L 847.6637153452328 653.8799379873867 L 847.8124522349935 653.7956613010015 L 847.9630459593565 653.7120611894508 L 848.1154814590749 653.6291460126758 L 848.2697434907257 653.5469240621256 L 848.4258166282343 653.4654035599264 L 848.5836852644171 653.3845926580605 L 848.7433336125421 653.3044994375507 L 848.9047457079072 653.2251319076524 L 849.0679054094377 653.1464980050524 L 849.2327964012992 653.0686055930756 L 849.3994021945301 652.9914624608981 L 849.5677061286899 652.9150763227689 L 849.7376913735252 652.8394548172381 L 849.9093409306535 652.7646055063933 L 850.0826376352619 652.6905358751031 L 850.2575641578244 652.6172533302691 L 850.4341030058346 652.5447652000846 L 850.6122365255546 652.4730787333023 L 850.7919469037812 652.402201098509 L 850.9732161696261 652.3321393834091 L 851.1560261963137 652.2629005941159 L 851.340358702994 652.1944916544504 L 851.5261952565697 652.1269194052499 L 851.7135172735403 652.0601906036826 L 851.9023060218602 651.9943119225734 L 852.0925426228121 651.9292899497352 L 852.2842080528942 651.8651311873115 L 852.4772831457233 651.8018420511246 L 852.671748593951 651.7394288700357 L 852.8675849511945 651.6778978853108 L 853.0647726339813 651.6172552499972 L 853.2632919237076 651.5575070283078 L 853.4631229686096 651.4986591950149 L 853.6642457857494 651.440717634853 L 853.866640263013 651.3836881419295 L 854.0702861611213 651.3275764191466 L 854.2751631156541 651.2723880776294 L 854.4812506390867 651.2181286361664 L 854.6885281228386 651.1648035206563 L 854.8969748393341 651.1124180635663 L 855.1065699440753 651.0609775033986 L 855.3172924777263 651.010486984166 L 855.5291213682093 650.9609515548786 L 855.7420354328119 650.9123761690381 L 855.9560133803051 650.8647656841425 L 856.1710338130723 650.8181248612005 L 856.3870752292495 650.7724583642558 L 856.604116024875 650.7277707599198 L 856.8221344960504 650.6840665169158 L 857.0411088411099 650.6413500056317 L 857.2610171628016 650.5996254976828 L 857.4818374704769 650.5588971654855 L 857.7035476822886 650.5191690818389 L 857.9261256274004 650.4804452195183 L 858.1495490482034 650.4427294508774 L 858.3737956025416 650.406025547462 L 858.5988428659465 650.3703371796317 L 858.8246683338792 650.3356679161936 L 859.0512494239813 650.302021224045 L 859.2785634783324 650.2694004678273 L 859.5065877657165 650.2378089095887 L 859.735299483895 650.2072497084588 L 859.9646757618866 650.1777259203324 L 860.1946936622547 650.1492404975635 L 860.4253301834009 650.1217962886707 L 860.6565622618652 650.095396038052 L 860.8883667746326 650.0700423857105 L 861.1207205414449 650.0457378669903 L 861.3536003271191 650.022484912323 L 861.5869828438707 650.0002858469848 L 861.8208447536425 649.9791428908635 L 862.0551626704383 649.9590581582373 L 862.2899131626618 649.9400336575627 L 862.5250727554594 649.9220712912738 L 862.7606179330678 649.9051728555924 L 862.9965251411654 649.8893400403479 L 863.2327707892282 649.8745744288086 L 863.469331252888 649.8608774975233 L 863.7061828762958 649.848250616174 L 863.9433019744864 649.8366950474381 L 864.1806648357478 649.8262119468628 L 864.4182477239916 649.8168023627495 L 864.6560268811269 649.8084672360488 L 864.8939785294363 649.8012074002664 L 865.132078873953 649.7950235813797 L 865.3703041048411 649.7899163977658 L 865.6086303997762 649.7858863601383 L 865.8470339263272 649.7829338714979 L 866.08549084434 649.7810592270911 L 866.3239773083219 649.7802626143805 L 866.5624694698249 649.7805441130268 L 866.8009434798317 649.7819036948806 L 867.0393754911402 649.7843412239845 L 867.2777416607477 649.7878564565879 L 867.5160181522359 649.7924490411704 L 867.7541811381544 649.7981185184772 L 867.992206802403 649.8048643215654 L 868.2300713426134 649.8126857758604 L 868.4677509725301 649.8215820992232 L 868.7052219243882 649.8315524020288 L 868.9424604512901 649.8425956872555 L 869.179442829581 649.8547108505837 L 869.4161453612206 649.8678966805073 L 869.652544376153 649.8821518584542 L 869.8886162346736 649.8974749589187 L 870.1243373297932 649.9138644496032 L 870.3596840895989 649.9313186915726 L 870.5946329796108 649.9498359394171 L 870.8291605051355 649.9694143414272 L 871.0632432136163 649.9900519397793 L 871.296857696977 650.0117466707306 L 871.5299805939641 650.034496364826 L 871.7625885924822 650.0582987471154 L 871.9946584319252 650.08315143738 L 872.2261669055027 650.1090519503717 L 872.4570908625602 650.1359976960607 L 872.6874072108944 650.1639859798951 L 872.9170929190624 650.1930140030695 L 873.1461250186848 650.2230788628059 L 873.3744806067424 650.2541775526435 L 873.6021368478669 650.2863069627391 L 873.8290709766236 650.3194638801785 L 874.055260299789 650.3536449892978 L 874.2806821986193 650.3888468720141 L 874.5053141311122 650.4250660081689 L 874.7291336342619 650.4622987758786 L 874.9521183263045 650.5005414518973 L 875.1742459089564 650.5397902119896 L 875.395494169645 650.580041131312 L 875.615840983728 650.6212901848061 L 875.8352643167079 650.663533247601 L 876.0537422264343 650.7067660954255 L 876.2712528652983 650.750984405031 L 876.4877744824171 650.7961837546233 L 876.7032854258094 650.842359624305 L 876.9177641445607 650.8895073965278 L 877.1311891909777 650.9376223565538 L 877.3435392227336 650.9866996929269 L 877.5547930050024 651.0367344979545 L 877.7649294125815 651.0877217681978 L 877.9739274320056 651.1396564049721 L 878.1817661636468 651.1925332148571 L 878.388424823805 651.246346910216 L 878.5938827467868 651.301092109724 L 878.7981193869707 651.3567633389066 L 879.001114320863 651.4133550306876 L 879.2028472491396 651.4708615259448 L 879.4032979986757 651.5292770740765 L 879.6024465245633 651.5885958335768 L 879.8002729121159 651.648811872619 L 879.9967573788596 651.7099191696495 L 880.1918802765114 651.7719116139895 L 880.3856220929441 651.8347830064462 L 880.5779634541375 651.8985270599326 L 880.768885126116 651.9631374000967 L 880.9583680168711 652.0286075659582 L 881.146393178272 652.0949310105551 L 881.3329418079591 652.1621011015982 L 881.5179952512248 652.2301111221344 L 881.701535002879 652.2989542712183 L 881.8835427090997 652.3686236645924 L 882.0640001692678 652.4391123353754 L 882.2428893377877 652.510413234759 L 882.4201923258914 652.5825192327125 L 882.5958914034283 652.6554231186964 L 882.7699690006366 652.7291176023828 L 882.9424077099019 652.8035953143846 L 883.1131902874969 652.8788488069928 L 883.2822996553061 652.9548705549208 L 883.4497189025337 653.0316529560573 L 883.6154312873946 653.109188332226 L 883.7794202387882 653.1874689299541 L 883.9416693579562 653.2664869212468 L 884.1021624201219 653.3462344043709 L 884.2608833761127 653.4267034046446 L 884.4178163539652 653.507885875235 L 884.5729456605126 653.5897736979625 L 884.7262557829534 653.6723586841133 L 884.8777313904031 653.7556325752573 L 885.0273573354273 653.8395870440751 L 885.175118655556 653.9242136951896 L 885.3210005747806 654.0095040660062 L 885.4649885050304 654.095449627559 L 885.6070680476327 654.1820417853634 L 885.7472249947514 654.2692718802757 L 885.8854453308086 654.3571311893593 L 886.021715233886 654.4456109267563 L 886.1560210771067 654.5347022445669 L 886.2883494299986 654.6243962337334 L 886.4186870598362 654.7146839249316 L 886.5470209329656 654.8055562894677 L 886.6733382161062 654.8970042401811 L 886.7976262776349 654.9890186323528 L 886.9198726888493 655.0815902646201 L 887.04006522521 655.1747098798973 L 887.1581918675637 655.2683681663001 L 887.2742408033444 655.3625557580781 L 887.3882004277552 655.4572632365505 L 887.5000593449289 655.5524811310486 L 887.6098063690667 655.648199919862 L 887.7174305255579 655.7444100311918 L 887.8229210520764 655.841101844107 L 887.9262673996574 655.9382656895068 L 888.0274592337523 656.0358918510877 L 888.1264864352622 656.1339705663149 L 888.2233391015492 656.2324920273986 L 888.3180075474276 656.3314463822747 L 888.4104823061315 656.4308237355904 L 888.5007541302623 656.530614149693 L 888.5888139927126 656.6308076456243 L 888.6746530875697 656.7313942041181 L 888.7582628309957 656.8323637666025 L 888.8396348620856 656.9337062362055 L 888.9187610437045 657.0354114787642 L 888.9956334633 657.1374693238395 L 889.0702444336941 657.2398695657317 L 889.1425864938521 657.3426019645021 L 889.2126524096284 657.4456562469965 L 889.2804351744894 657.5490221078721 L 889.3459280102154 657.6526892106294 L 889.4091243675773 657.7566471886444 L 889.470017926992 657.8608856462058 L 889.5286025991544 657.9653941595549 L 889.584872525646 658.0701622779272 L 889.6388220795212 658.1751795245984 L 889.6904458658695 658.2804353979313 L 889.7397387223551 658.3859193724262 L 889.7866957197338 658.4916208997737 L 889.8313121623446 658.5975294099089 L 889.8735835885807 658.7036343120692 L 889.9135057713345 658.809924995853 L 889.9510747184212 658.9163908322801 L 889.9862866729771 659.0230211748558 L 890.0191381138366 659.1298053606347 L 890.0496257558824 659.2367327112871 L 890.0777465503761 659.3437925341672 L 890.1034976852615 659.4509741233819 L 890.1268765854467 659.5582667608614 L 890.1478809130609 659.6656597174316 L 890.1665085676892 659.7731422538862 L 890.1827576865815 659.8807036220613 L 890.1966266448394 659.9883330659095 L 890.2081140555787 660.0960198225762 L 890.2172187700678 660.2037531234755 L 890.223939877843 660.3115221953669 L 890.228276706799 660.4193162614333 L 890.2302288232565 660.5271245423578 M 890.2303498133125 694.8653929569183 L 890.2291573534088 694.973203501835 L 890.2255800929428 695.0810032657869 L 890.2196183896375 695.1887814688877 L 890.2112728396581 695.2965273334067 L 890.2005442775529 695.4042300848474 L 890.1874337761691 695.5118789530243 L 890.1719426465459 695.6194631731404 L 890.1540724377833 695.7269719868632 L 890.1338249368872 695.834394643401 L 890.111202168591 695.9417204005777 L 890.0862063951527 696.0489385259068 L 890.0588401161286 696.1560382976654 L 890.0291060681241 696.2630090059655 L 889.9970072245189 696.3698399538254 L 889.9625467951709 696.4765204582392 L 889.9257282260941 696.5830398512455 L 889.8865551991147 696.6893874809937 L 889.8450316315029 696.7955527128096 L 889.8011616755809 696.9015249302582 L 889.7549497183076 697.0072935362064 L 889.7064003808403 697.1128479538816 L 889.6555185180722 697.2181776279298 L 889.6023092181473 697.3232720254716 L 889.5467778019511 697.4281206371548 L 889.488929822579 697.5327129782057 L 889.4287710647809 697.6370385894771 L 889.3663075443823 697.7410870384949 L 889.301545507683 697.844847920501 L 889.234491430833 697.9483108594937 L 889.1651520191841 698.0514655092652 L 889.0935342066194 698.1543015544364 L 889.0196451548608 698.2568087114887 L 888.9434922527518 698.3589767297917 L 888.8650831155189 698.4607953926287 L 888.7844255840108 698.5622545182183 L 888.7015277239134 698.6633439607324 L 888.6163978249435 698.7640536113112 L 888.5290444000201 698.8643733990733 L 888.4394761844129 698.9642932921238 L 888.3477021348689 699.0638032985564 L 888.2537314287165 699.1628934674536 L 888.1575734629479 699.2615538898809 L 888.0592378532798 699.3597746998784 L 887.958734433191 699.4575460754469 L 887.8560732529398 699.5548582395303 L 887.7512645785588 699.6517014609933 L 887.6443188908279 699.7480660555946 L 887.5352468842269 699.8439423869548 L 887.4240594658656 699.9393208675208 L 887.310767754393 700.034191959524 L 887.1953830788862 700.1285461759343 L 887.0779169777161 700.2223740814086 L 886.9583811973952 700.3156662932346 L 886.8367876914019 700.4084134822688 L 886.7131486189855 700.5006063738697 L 886.5874763439501 700.5922357488248 L 886.4597834334187 700.6832924442731 L 886.3300826565757 700.773767354621 L 886.1983869833907 700.8636514324527 L 886.0647095833215 700.9529356894353 L 885.9290638239966 701.0416111972177 L 885.7914632698787 701.1296690883228 L 885.6519216809088 701.217100557035 L 885.5104530111295 701.3038968602804 L 885.3670714072897 701.3900493185007 L 885.2217912074306 701.475549316522 L 885.0746269394507 701.5603883044159 L 884.9255933196546 701.6445577983542 L 884.7747052512797 701.7280493814576 L 884.6219778230073 701.8108547046374 L 884.467426307453 701.8929654874303 L 884.3110661596396 701.9743735188265 L 884.1529130154513 702.0550706580906 L 883.992982690071 702.135048835576 L 883.8312911763978 702.2143000535314 L 883.6678546434485 702.2928163869013 L 883.50268943474 702.3705899841177 L 883.3358120666556 702.4476130678858 L 883.1672392267932 702.5238779359612 L 882.996987772296 702.5993769619207 L 882.8250747281679 702.6741025959248 L 882.6515172855699 702.7480473654721 L 882.4763328001015 702.8212038761475 L 882.2995387900655 702.8935648123606 L 882.1211529347155 702.9651229380785 L 881.9411930724882 703.035871097548 L 881.7596771992202 703.1058022160121 L 881.5766234663472 703.1749093004173 L 881.3920501790902 703.2431854401127 L 881.205975794624 703.3106238075412 L 881.0184189202321 703.3772176589224 L 880.8293983114454 703.4429603349265 L 880.6389328701675 703.5078452613408 L 880.4470416427837 703.5718659497267 L 880.2537438182569 703.6350159980686 L 880.0590587262084 703.6972890914144 L 879.8630058349852 703.7586790025067 L 879.665604749713 703.8191795924055 L 879.466875210336 703.8787848111022 L 879.2668370896422 703.9374886981245 L 879.0655103912773 703.9952853831328 L 878.8629152477432 704.0521690865068 L 878.6590719183854 704.1081341199233 L 878.4540007873671 704.1631748869258 L 878.2477223616304 704.2172858834836 L 878.0402572688461 704.2704616985418 L 877.8316262553503 704.3226970145633 L 877.6218501840709 704.3739866080602 L 877.4109500324399 704.4243253501159 L 877.1989468902968 704.4737082068978 L 876.9858619577792 704.5221302401617 L 876.7717165432028 704.5695866077446 L 876.5565320609305 704.6160725640491 L 876.3403300292313 704.6615834605185 L 876.1231320681281 704.706114746101 L 875.9049598972362 704.7496619677052 L 875.6858353335906 704.792220770645 L 875.4657802894652 704.8337868990759 L 875.2448167701812 704.8743561964196 L 875.0229668719062 704.91392460578 L 874.8002527794451 704.9524881703494 L 874.5766967640217 704.9900430338032 L 874.3523211810513 705.0265854406866 L 874.1271484679049 705.0621117367892 L 873.9012011416665 705.096618369511 L 873.6745017968803 705.1301018882177 L 873.4470731032919 705.162558944585 L 873.2189378035811 705.1939862929346 L 872.9901187110878 705.2243807905577 L 872.7606387075305 705.2537393980298 L 872.5305207407184 705.2820591795148 L 872.2997878222563 705.309337303058 L 872.068463025244 705.3355710408699 L 871.8365694819681 705.3607577695985 L 871.60413038159 705.384894970592 L 871.371168967826 705.4079802301503 L 871.137708536623 705.4300112397667 L 870.90377243383 705.4509857963587 L 870.669384052862 705.4709018024881 L 870.4345668323621 705.4897572665708 L 870.1993442538565 705.5075503030761 L 869.9637398394068 705.5242791327153 L 869.7277771492585 705.5399420826192 L 869.4914797794838 705.554537586506 L 869.2548713596228 705.5680641848373 L 869.0179755503202 705.5805205249649 L 868.7808160409597 705.5919053612648 L 868.5434165472946 705.602217555263 L 868.3058008090761 705.6114560757487 L 868.0679925876805 705.6196199988776 L 867.8300156637314 705.6267085082641 L 867.591893834723 705.6327208950631 L 867.3536509126399 705.6376565580412 L 867.1153107215755 705.641515003636 L 866.8768970953505 705.6442958460061 L 866.6384338751287 705.6459988070698 L 866.3999449070336 705.6466237165322 L 866.161454039763 705.6461705119029 L 865.9229851222052 705.6446392385022 L 865.684562001053 705.642030049456 L 865.44620851842 705.6383432056809 L 865.2079485094556 705.6335790758586 L 864.9698057999624 705.6277381363977 L 864.7318042040127 705.6208209713875 L 864.4939675215679 705.6128282725386 L 864.256319536098 705.6037608391144 L 864.0188840122034 705.5936195778505 L 863.7816846932387 705.5824055028647 L 863.5447452989383 705.5701197355552 L 863.308089523044 705.5567635044883 L 863.0717410309362 705.5423381452762 L 862.8357234572671 705.5268451004426 L 862.6000604035976 705.5102859192792 L 862.3647754360364 705.4926622576903 L 862.1298920828845 705.4739758780273 L 861.8954338322811 705.4542286489126 L 861.6614241298563 705.4334225450528 L 861.4278863763849 705.4115596470408 L 861.194843925448 705.3886421411482 L 860.9623200810963 705.3646723191066 L 860.7303380955204 705.3396525778782 L 860.4989211667258 705.3135854194161 L 860.2680924362123 705.2864734504145 L 860.0378749866608 705.258319382048 L 859.8082918396242 705.2291260296995 L 859.5793659532259 705.1988963126802 L 859.3511202198639 705.1676332539365 L 859.1235774639213 705.1353399797484 L 858.896760439484 705.1020197194161 L 858.6706918280655 705.0676758049383 L 858.4453942363385 705.0323116706774 L 858.2208901938744 704.9959308530175 L 857.9972021508905 704.9585369900102 L 857.7743524760047 704.9201338210104 L 857.5523634539985 704.8807251863032 L 857.3312572835895 704.840315026719 L 857.1110560752101 704.7989073832404 L 856.8917818487979 704.7565063965969 L 856.6734565315927 704.7131163068522 L 856.4561019559443 704.6687414529788 L 856.2397398571293 704.6233862724253 L 856.0243918711769 704.5770553006718 L 855.8100795327067 704.5297531707769 L 855.5968242727736 704.4814846129143 L 855.3846474167261 704.4322544538995 L 855.1735701820728 704.3820676167073 L 854.9636136763614 704.3309291199797 L 854.7547988950676 704.2788440775237 L 854.5471467194952 704.2258176978002 L 854.3406779146891 704.1718552834029 L 854.1354131273574 704.1169622305283 L 853.931372883808 704.0611440284359 L 853.728577587895 704.0044062588996 L 853.5270475189792 703.9467545956488 L 853.3268028298995 703.888194803802 L 853.1278635449579 703.8287327392894 L 852.9302495579171 703.768374348268 L 852.7339806300113 703.7071256665266 L 852.5390763879694 703.6449928188823 L 852.3455563220535 703.5819820185682 L 852.1534397841087 703.5180995666117 L 851.962745985629 703.4533518512047 L 851.773493995835 703.387745347065 L 851.5857027397681 703.3212866147882 L 851.3993909963974 703.2539823001921 L 851.214577396742 703.1858391336522 L 851.031280422008 703.1168639294283 L 850.8495184017397 703.0470635849833 L 850.6693095119882 702.9764450802936 L 850.490671773492 702.9050154771508 L 850.313623049876 702.8327819184555 L 850.1381810458652 702.7597516275035 L 849.9643633055138 702.6859319072632 L 849.7921872104508 702.6113301396449 L 849.6216699781424 702.5359537847633 L 849.4528286601699 702.4598103801909 L 849.2856801405239 702.3829075402049 L 849.1202411339176 702.3052529550251 L 848.9565281841134 702.2268543900454 L 848.7945576622701 702.147719685057 L 848.6343457653048 702.0678567534643 L 848.4759085142737 701.9872735814939 L 848.3192617527699 701.9059782273961 L 848.164421145339 701.8239788206382 L 848.0114021759127 701.7412835610928 L 847.8602201462604 701.657900718217 L 847.7108901744591 701.5738386302253 L 847.5634271933816 701.4891057032567 L 847.4178459492031 701.4037104105332 L 847.2741609999266 701.3176612915129 L 847.1323867139274 701.2309669510361 L 846.992537268516 701.1436360584644 L 846.8546266485203 701.0556773468144 L 846.7186686448872 700.967099611884 L 846.5846768533041 700.8779117113728 L 846.4526646728384 700.7881225639967 L 846.322645304598 700.6977411485954 L 846.1946317504115 700.6067765032351 L 846.0686368115277 700.5152377243048 L 845.9446730873353 700.4231339656059 L 845.8227529741037 700.3304744374375 L 845.7028886637422 700.2372684056753 L 845.5850921425823 700.1435251908448 L 845.4693751901779 700.0492541671894 L 845.3557493781276 699.9544647617328 L 845.2442260689182 699.8591664533365 L 845.1348164147876 699.7633687717521 L 845.0275313566099 699.6670812966679 L 844.9223816228016 699.5703136567511 L 844.8193777282486 699.473075528685 L 844.7185299732542 699.3753766362014 L 844.6198484425101 699.2772267491083 L 844.5233430040872 699.1786356823125 L 844.4290233084488 699.0796132948384 L 844.3368987874858 698.9801694888424 L 844.2469786535736 698.8803142086223 L 844.1592718986507 698.7800574396226 L 844.0737872933194 698.679409207437 L 843.9905333859691 698.5783795768045 L 843.9095185019211 698.4769786506043 L 843.8307507425963 698.3752165688443 L 843.754237984705 698.273103507648 L 843.6799878794592 698.1706496782364 L 843.6080078518077 698.067865325907 L 843.5383050996929 697.9647607290094 L 843.4708865933325 697.8613461979174 L 843.4057590745205 697.7576320739979 L 843.3429290559545 697.653628728577 L 843.2824028205844 697.5493465619023 L 843.2241864209828 697.4447960021039 L 843.1682856787417 697.3399875041504 L 843.1147061838882 697.2349315488042 L 843.0634532943274 697.1296386415736 L 843.0145321353056 697.0241193116613 L 842.9679475988977 696.9183841109125 L 842.9237043435188 696.812443612759 L 842.8818067934574 696.7063084111626 L 842.8422591384336 696.5999891195548 L 842.80506533318 696.4934963697763 L 842.7702290970461 696.3868408110131 L 842.7377539136264 696.2800331087326 L 842.7076430304124 696.1730839436157 L 842.6798994584672 696.0660040104898 L 842.6545259721248 695.958804017259 L 842.6315251087128 695.8514946838334 L 842.6108991682984 695.7440867410569 L 842.5926502134582 695.6365909296342 L 842.5767800690728 695.5290179990569 L 842.5632903221433 695.4213787065283 L 842.552182321633 695.3136838158882 L 842.543457178333 695.2059440965357 L 842.5371157647501 695.0981703223531 L 842.5331587150205 694.9903732706279 L 842.5315864248457 694.8825637209754" stroke-miterlimit="10" stroke-width="2.7769845610000004" stroke-dasharray=""/></g><g><g/><text fill="black" stroke="none" font-family="sans-serif" font-size="11pt" font-style="normal" font-weight="normal" text-decoration="normal" x="835.0030080490235" y="643.2951561388182" text-anchor="start" dominant-baseline="alphabetic" xml:space="preserve">Database</text></g></g><g><path fill="white" stroke="black" paint-order="fill stroke markers" d=" M 73.50841485 182.64242307881818 L 89.84361814999998 182.64242307881818 L 89.84361814999998 569.7867412888182 L 73.50841485 569.7867412888182 L 73.50841485 182.64242307881818" stroke-miterlimit="10" stroke-width="1.3612669416666667" stroke-dasharray=""/><path fill="white" stroke="black" paint-order="fill stroke markers" d=" M 334.7068793995443 182.64242307881818 L 351.04208269954427 182.64242307881818 L 351.04208269954427 569.7867412888182 L 334.7068793995443 569.7867412888182 L 334.7068793995443 182.64242307881818" stroke-miterlimit="10" stroke-width="1.3612669416666667" stroke-dasharray=""/><path fill="white" stroke="black" paint-order="fill stroke markers" d=" M 613.8652743690104 228.3809923188182 L 630.2004776690105 228.3809923188182 L 630.2004776690105 569.7867412888182 L 613.8652743690104 569.7867412888182 L 613.8652743690104 228.3809923188182" stroke-miterlimit="10" stroke-width="1.3612669416666667" stroke-dasharray=""/><path fill="white" stroke="black" paint-order="fill stroke markers" d=" M 858.2133513453125 228.3809923188182 L 874.5485546453126 228.3809923188182 L 874.5485546453126 319.8581307988182 L 858.2133513453125 319.8581307988182 L 858.2133513453125 228.3809923188182" stroke-miterlimit="10" stroke-width="1.3612669416666667" stroke-dasharray=""/><g><text fill="black" stroke="none" font-family="sans-serif" font-size="16pt" font-style="normal" font-weight="normal" text-decoration="normal" x="387.6874465942383" y="24.651306798181814" text-anchor="start" dominant-baseline="alphabetic" xml:space="preserve">Chititphng</text></g><g><rect fill="white" stroke="none" x="116.92234987156901" y="161.4066587888182" width="190.70579780640625" height="21.23576429"/><text fill="black" stroke="none" font-family="sans-serif" font-size="11pt" font-style="normal" font-weight="normal" text-decoration="normal" x="119.37263036656901" y="176.10834175881817" text-anchor="start" dominant-baseline="alphabetic" xml:space="preserve">Chnphngcnxemchitit</text></g><g><path fill="none" stroke="black" paint-order="fill stroke markers" d=" M 89.84361814999998 182.64242307881818 L 321.2575620158776 182.64242307881818" stroke-miterlimit="10" stroke-width="1.3612669416666667" stroke-dasharray=""/><g transform="translate(334.7068793995443,182.64242307881818) translate(-334.7068793995443,-182.64242307881818)"><path fill="black" stroke="none" paint-order="stroke fill markers" d=" M 321.0942099828776 175.83608837048484 L 334.7068793995443 182.64242307881818 L 321.0942099828776 189.44875778715152 Z"/></g></g><g><rect fill="white" stroke="none" x="387.49805746310545" y="207.1452280288182" width="189.91124214234375" height="21.23576429"/><text fill="black" stroke="none" font-family="sans-serif" font-size="11pt" font-style="normal" font-weight="normal" text-decoration="normal" x="389.94833795810547" y="221.84691099881817" text-anchor="start" dominant-baseline="alphabetic" xml:space="preserve">GiIDphngcnlychitit</text></g><g><path fill="none" stroke="black" paint-order="fill stroke markers" d=" M 351.04208269954427 228.3809923188182 L 600.4159569853438 228.3809923188182" stroke-miterlimit="10" stroke-width="1.3612669416666667" stroke-dasharray=""/><g transform="translate(613.8652743690104,228.3809923188182) translate(-613.8652743690104,-228.3809923188182)"><path fill="black" stroke="none" paint-order="stroke fill markers" d=" M 600.2526049523437 221.57465761048485 L 613.8652743690104 228.3809923188182 L 600.2526049523437 235.18732702715153 Z"/></g></g><g><rect fill="white" stroke="none" x="656.4667627963412" y="252.88379726881823" width="175.48030342164063" height="21.23576429"/><text fill="black" stroke="none" font-family="sans-serif" font-size="11pt" font-style="normal" font-weight="normal" text-decoration="normal" x="658.9170432913412" y="267.5854802388182" text-anchor="start" dominant-baseline="alphabetic" xml:space="preserve">Truyvnlychititphng</text></g><g><path fill="none" stroke="black" paint-order="fill stroke markers" d=" M 630.2004776690105 274.1195615588182 L 844.7640339616459 274.1195615588182" stroke-miterlimit="10" stroke-width="1.3612669416666667" stroke-dasharray=""/><g transform="translate(858.2133513453125,274.1195615588182) translate(-858.2133513453125,-274.1195615588182)"><path fill="black" stroke="none" paint-order="stroke fill markers" d=" M 844.6006819286458 267.31322685048485 L 858.2133513453125 274.1195615588182 L 844.6006819286458 280.92589626715153 Z"/></g></g><g><rect fill="white" stroke="none" x="649.5304682406771" y="298.6223665088182" width="189.35289253296875" height="21.23576429"/><text fill="black" stroke="none" font-family="sans-serif" font-size="11pt" font-style="normal" font-weight="normal" text-decoration="normal" x="651.9807487356771" y="313.32404947881815" text-anchor="start" dominant-baseline="alphabetic" xml:space="preserve">Trvbnghichititphng</text></g><g><path fill="none" stroke="black" paint-order="fill stroke markers" d=" M 858.2133513453125 319.8581307988182 L 643.6497950526772 319.8581307988182" stroke-miterlimit="10" stroke-width="1.3612669416666667" stroke-dasharray="6.53408132"/><g transform="translate(630.2004776690105,319.8581307988182) translate(-630.2004776690105,-319.8581307988182)"><path fill="black" stroke="none" paint-order="stroke fill markers" d=" M 643.8131470856772 313.05179609048486 L 630.2004776690105 319.8581307988182 L 643.8131470856772 326.66446550715153 Z"/></g></g><g><rect fill="white" stroke="none" x="383.7042189621289" y="388.4659846588182" width="197.49891914429688" height="21.23576429"/><text fill="black" stroke="none" font-family="sans-serif" font-size="11pt" font-style="normal" font-weight="normal" text-decoration="normal" x="386.1544994571289" y="403.16766762881815" text-anchor="start" dominant-baseline="alphabetic" xml:space="preserve">Trvthngtinchititphng</text></g><g><path fill="none" stroke="black" paint-order="fill stroke markers" d=" M 613.8652743690104 409.7017489488182 L 364.4914000832109 409.7017489488182" stroke-miterlimit="10" stroke-width="1.3612669416666667" stroke-dasharray="6.53408132"/><g transform="translate(351.04208269954427,409.7017489488182) translate(-351.04208269954427,-409.7017489488182)"><path fill="black" stroke="none" paint-order="stroke fill markers" d=" M 364.65475211621094 402.89541424048485 L 351.04208269954427 409.7017489488182 L 364.65475211621094 416.50808365715153 Z"/></g></g><g><rect fill="white" stroke="none" x="109.17360872166667" y="434.2045538988182" width="206.20328010621094" height="21.23576429"/><text fill="black" stroke="none" font-family="sans-serif" font-size="11pt" font-style="normal" font-weight="normal" text-decoration="normal" x="111.62388921666667" y="448.90623686881816" text-anchor="start" dominant-baseline="alphabetic" xml:space="preserve">Hinththngtinchititphng</text></g><g><path fill="none" stroke="black" paint-order="fill stroke markers" d=" M 334.7068793995443 455.4403181888182 L 103.29293553366665 455.4403181888182" stroke-miterlimit="10" stroke-width="1.3612669416666667" stroke-dasharray="6.53408132"/><g transform="translate(89.84361814999998,455.4403181888182) translate(-89.84361814999998,-455.4403181888182)"><path fill="black" stroke="none" paint-order="stroke fill markers" d=" M 103.45628756666665 448.63398348048486 L 89.84361814999998 455.4403181888182 L 103.45628756666665 462.24665289715153 Z"/></g></g><g><rect fill="white" stroke="none" x="370.3720732712109" y="524.0481720488182" width="224.16321052613281" height="21.23576429"/><text fill="black" stroke="none" font-family="sans-serif" font-size="11pt" font-style="normal" font-weight="normal" text-decoration="normal" x="372.82235376621094" y="538.7498550188182" text-anchor="start" dominant-baseline="alphabetic" xml:space="preserve">Thngbokhngtmthydliu</text></g><g><path fill="none" stroke="black" paint-order="fill stroke markers" d=" M 613.8652743690104 545.2839363388182 L 364.4914000832109 545.2839363388182" stroke-miterlimit="10" stroke-width="1.3612669416666667" stroke-dasharray="6.53408132"/><g transform="translate(351.04208269954427,545.2839363388182) translate(-351.04208269954427,-545.2839363388182)"><path fill="black" stroke="none" paint-order="stroke fill markers" d=" M 364.65475211621094 538.4776016304849 L 351.04208269954427 545.2839363388182 L 364.65475211621094 552.0902710471515 Z"/></g></g><g><g/><path fill="none" stroke="black" paint-order="fill stroke markers" d=" M 16.33520329999999 344.3609357488182 L 679.2060875690105 344.3609357488182 L 679.2060875690105 569.7867412888182 L 16.33520329999999 569.7867412888182 L 16.33520329999999 344.3609357488182 Z" stroke-miterlimit="10" stroke-width="2.3336004714285714" stroke-dasharray=""/><path fill="white" stroke="black" paint-order="fill stroke markers" d=" M 16.33520329999999 344.3609357488182 L 16.33520329999999 363.9631797088182 L 62.6944068970703 363.9631797088182 L 72.4955288770703 354.1620577288182 L 72.4955288770703 344.3609357488182 L 16.33520329999999 344.3609357488182" stroke-miterlimit="10" stroke-width="2.3336004714285714" stroke-dasharray=""/><text fill="black" stroke="none" font-family="sans-serif" font-size="8.8pt" font-style="normal" font-weight="bold" text-decoration="normal" x="32.67040659999999" y="357.4290983888182" text-anchor="start" dominant-baseline="alphabetic" xml:space="preserve">alt</text><g><rect fill="white" stroke="none" x="86.3804516820703" y="345.6677520128182" width="70.73279060425781" height="16.988611432000003"/></g><text fill="black" stroke="none" font-family="sans-serif" font-size="8.8pt" font-style="normal" font-weight="bold" text-decoration="normal" x="88.8307321770703" y="357.4290983888182" text-anchor="start" dominant-baseline="alphabetic" xml:space="preserve">[Cdliu]</text><g><path fill="none" stroke="black" paint-order="fill stroke markers" d=" M 16.33520329999999 479.9431231388182 L 679.2060875690105 479.9431231388182" stroke-miterlimit="10" stroke-width="2.3336004714285714" stroke-dasharray="4.083800825"/></g><g/><g><rect fill="white" stroke="none" x="86.3804516820703" y="481.2499394028182" width="109.17599739136719" height="16.988611432000003"/></g><text fill="black" stroke="none" font-family="sans-serif" font-size="8.8pt" font-style="normal" font-weight="bold" text-decoration="normal" x="88.8307321770703" y="493.0112857788182" text-anchor="start" dominant-baseline="alphabetic" xml:space="preserve">[Khngcdliu]</text></g><g/></g><g/><g/><g/><g/></g></svg>