<svg xmlns="http://www.w3.org/2000/svg" xmlns:xlink="http://www.w3.org/1999/xlink" version="1.1" width="928.3212866847657" height="830.333233923818"><desc>title%20Xem%20chi%20ti%E1%BA%BFt%20d%E1%BB%8Bch%20v%E1%BB%A5%0A%0Abottomparticipants%0A%0Aactor%20Landlord%0Aentity%20Client%0Aentity%20Backend%0Adatabase%20Database%0A%0ALandlord%20-%3E%20Client%3A%20Ch%E1%BB%8Dn%20d%E1%BB%8Bch%20v%E1%BB%A5%20c%E1%BA%A7n%20xem%20chi%20ti%E1%BA%BFt%0Aactivate%20Landlord%0Aactivate%20Client%0A%0AClient%20-%3E%20Backend%3A%20G%E1%BB%ADi%20ID%20d%E1%BB%8Bch%20v%E1%BB%A5%20c%E1%BA%A7n%20xem%0Aactivate%20Backend%0A%0ABackend%20-%3E%20Backend%3A%20Ki%E1%BB%83m%20tra%20quy%E1%BB%81n%0Aactivate%20Database%0ABackend%20-%3E%20Database%3A%20Truy%20v%E1%BA%A5n%20chi%20ti%E1%BA%BFt%20d%E1%BB%8Bch%20v%E1%BB%A5%0ADatabase%20--%3E%20Backend%3A%20Tr%E1%BA%A3%20v%E1%BB%81%20th%C3%B4ng%20tin%20chi%20ti%E1%BA%BFt%20d%E1%BB%8Bch%20v%E1%BB%A5%0Adeactivate%20Database%0A%0Aalt%20C%C3%B3%20d%E1%BB%AF%20li%E1%BB%87u%0A%20%20%20%20Backend%20--%3E%20Client%3A%20G%E1%BB%ADi%20th%C3%B4ng%20tin%20chi%20ti%E1%BA%BFt%20d%E1%BB%8Bch%20v%E1%BB%A5%0A%20%20%20%20Client%20--%3E%20Landlord%3A%20Hi%E1%BB%83n%20th%E1%BB%8B%20th%C3%B4ng%20tin%20chi%20ti%E1%BA%BFt%20d%E1%BB%8Bch%20v%E1%BB%A5%0Aelse%20Kh%C3%B4ng%20c%C3%B3%20d%E1%BB%AF%20li%E1%BB%87u%0A%20%20%20%20Backend%20--%3E%20Client%3A%20Th%C3%B4ng%20b%C3%A1o%20kh%C3%B4ng%20t%C3%ACm%20th%E1%BA%A5y%20d%E1%BB%8Bch%20v%E1%BB%A5%0A%20%20%20%20Client%20--%3E%20Landlord%3A%20Hi%E1%BB%83n%20th%E1%BB%8B%20th%C3%B4ng%20b%C3%A1o%20l%E1%BB%97i%0Aend%0A%0Adeactivate%20Backend%0Adeactivate%20Client%0Adeactivate%20Landlord%0A</desc><defs/><g><g/><g/><g/><g/><g/><g/><g/><g/><g/><g/><g/><g/><g/><g/><g/><g/><g/><g/><g/><g/><g/><g/><g/><g/><g/><g/><g/><g/><g/><g/><g/><g/><g/><g/><g/><g/><g/><g/><g/><g/><g/><g/><g/><g/><g/><g/><g/><g/><g/><g/><g/><g/><g/><g/><g/><g/><g/><g/><g/><g/><g/><g/><g/><g/><g/><g/><g/><g/><g/><g/><g/><g/><g/><g/><g/><g/><g/><g/><g/><g/><g/><g/><g/><g/><g/><g/><g/><g/><g/><g/><g/><g/><g/><g/><g/><g/><g/><g/><g/><g/><g/><g/><g/><g/><g/><g/><g/><g/><g/><g/><g/><g/><g/><g/><g/><g/><g/><g/><g/><g/><g/><g/><g/><g/><g><rect fill="white" stroke="none" x="0" y="0" width="928" height="830"/></g><g/><g><path fill="none" stroke="black" paint-order="fill stroke markers" d=" M 81.67601649999999 128.73625218881818 L 81.67601649999999 739.672855608818" stroke-miterlimit="10" stroke-width="1.3612669416666667" stroke-dasharray="12.565541,5.445067766666667"/><path fill="none" stroke="black" paint-order="fill stroke markers" d=" M 348.5580747995443 128.73625218881818 L 348.5580747995443 739.672855608818" stroke-miterlimit="10" stroke-width="1.3612669416666667" stroke-dasharray="12.565541,5.445067766666667"/><path fill="none" stroke="black" paint-order="fill stroke markers" d=" M 629.3055810971355 128.73625218881818 L 629.3055810971355 739.672855608818" stroke-miterlimit="10" stroke-width="1.3612669416666667" stroke-dasharray="12.565541,5.445067766666667"/><path fill="none" stroke="black" paint-order="fill stroke markers" d=" M 887.4832784347657 128.73625218881818 L 887.4832784347657 739.672855608818" stroke-miterlimit="10" stroke-width="1.3612669416666667" stroke-dasharray="12.565541,5.445067766666667"/></g><g><g><path fill="white" stroke="black" paint-order="fill stroke markers" d=" M 90.987082381 59.63834222981819 A 9.311065881 9.311065881 0 1 1 90.98707772546743 59.62903116548903 M 81.67601649999999 68.9494081108182 L 81.67601649999999 88.8783561368182 M 69.914670124 76.13689756281819 L 93.43736287599998 76.13689756281819 M 81.67601649999999 88.8783561368182 L 69.914670124 107.50048789881819 M 81.67601649999999 88.8783561368182 L 93.43736287599998 107.50048789881819" stroke-miterlimit="10" stroke-width="2.7769845610000004" stroke-dasharray=""/></g><g><g/><text fill="black" stroke="none" font-family="sans-serif" font-size="11pt" font-style="normal" font-weight="normal" text-decoration="normal" x="53.1470400595703" y="123.83569119881818" text-anchor="start" dominant-baseline="alphabetic" xml:space="preserve">Landlord</text></g><g><path fill="white" stroke="black" paint-order="fill stroke markers" d=" M 372.8158517000443 79.63263106901819 A 24.2577769005 24.2577769005 0 1 1 372.81583957115686 79.60837329616064 M 322.9118056185443 106.11199561831819 L 374.20434398054425 106.11199561831819" stroke-miterlimit="10" stroke-width="2.7769845610000004" stroke-dasharray=""/></g><g><g/><text fill="black" stroke="none" font-family="sans-serif" font-size="11pt" font-style="normal" font-weight="normal" text-decoration="normal" x="329.8179243478841" y="123.83569119881818" text-anchor="start" dominant-baseline="alphabetic" xml:space="preserve">Client</text></g><g><path fill="white" stroke="black" paint-order="fill stroke markers" d=" M 653.5633579976354 79.63263106901819 A 24.2577769005 24.2577769005 0 1 1 653.563345868748 79.60837329616064 M 603.6593119161355 106.11199561831819 L 654.9518502781355 106.11199561831819" stroke-miterlimit="10" stroke-width="2.7769845610000004" stroke-dasharray=""/></g><g><g/><text fill="black" stroke="none" font-family="sans-serif" font-size="11pt" font-style="normal" font-weight="normal" text-decoration="normal" x="600.7801828427409" y="123.83569119881818" text-anchor="start" dominant-baseline="alphabetic" xml:space="preserve">Backend</text></g><g><path fill="white" stroke="black" paint-order="fill stroke markers" d=" M 863.6338816167657 96.71925372081819 L 863.6338816167657 62.41532679081819 L 911.3326752527656 62.41532679081819 L 911.3326752527656 96.71925372081819" stroke-miterlimit="10" stroke-width="2.7769845610000004" stroke-dasharray=""/><path fill="white" stroke="black" paint-order="fill stroke markers" d=" M 911.3326752527656 61.22285694991819 L 911.331482792862 61.33066749483481 L 911.3279055323959 61.43846725878678 L 911.3219438290906 61.546245461887544 L 911.3135982791113 61.65399132640659 L 911.302869717006 61.761694077847274 L 911.2897592156222 61.86934294602419 L 911.274268085999 61.976927166140236 L 911.2563978772364 62.084435979863045 L 911.2361503763403 62.19185863640084 L 911.2135276080442 62.299184393577484 L 911.1885318346058 62.4064025189067 L 911.1611655555818 62.51350229066531 L 911.1314315075772 62.62047299896537 L 911.0993326639721 62.7273039468252 L 911.064872234624 62.83398445123905 L 911.0280536655472 62.94050384424536 L 910.9888806385678 63.04685147399361 L 910.9473570709561 63.15301670580944 L 910.9034871150341 63.25898892325815 L 910.8572751577607 63.364757529206294 L 910.8087258202934 63.47031194688142 L 910.7578439575253 63.575641620929716 L 910.7046346576004 63.68073601847156 L 910.6491032414042 63.78558463015478 L 910.5912552620322 63.89017697120557 L 910.531096504234 63.994502582477 L 910.4686329838354 64.09855103149486 L 910.4038709471362 64.20231191350096 L 910.3368168702862 64.3057748524936 L 910.2674774586372 64.40892950226505 L 910.1958596460726 64.51176554743633 L 910.1219705943139 64.61427270448858 L 910.0458176922049 64.71644072279157 L 909.967408554972 64.81825938562858 L 909.886751023464 64.91971851121816 L 909.8038531633665 65.02080795373233 L 909.7187232643967 65.12151760431107 L 909.6313698394732 65.22183739207324 L 909.541801623866 65.32175728512367 L 909.450027574322 65.42126729155632 L 909.3560568681696 65.52035746045347 L 909.259898902401 65.6190178828808 L 909.1615632927329 65.71723869287828 L 909.0610598726441 65.81501006844678 L 908.958398692393 65.91232223253022 L 908.8535900180119 66.00916545399325 L 908.746644330281 66.10553004859446 L 908.63757232368 66.20140637995469 L 908.5263849053188 66.29678486052069 L 908.4130931938462 66.39165595252388 L 908.2977085183393 66.48601016893414 L 908.1802424171692 66.57983807440844 L 908.0607066368483 66.67313028623443 L 907.939113130855 66.76587747526865 L 907.8154740584387 66.85807036686953 L 907.6898017834033 66.94969974182469 L 907.5621088728718 67.04075643727302 L 907.4324080960288 67.13123134762085 L 907.3007124228438 67.22111542545254 L 907.1670350227746 67.3103996824352 L 907.0313892634497 67.39907519021754 L 906.8937887093318 67.4871330813227 L 906.7542471203619 67.57456455003492 L 906.6127784505826 67.6613608532802 L 906.4693968467428 67.74751331150055 L 906.3241166468837 67.83301330952195 L 906.1769523789038 67.91785229741582 L 906.0279187591077 68.00202179135408 L 905.8770306907328 68.08551337445749 L 905.7243032624605 68.1683186976373 L 905.5697517469061 68.25042948043021 L 905.4133915990927 68.33183751182635 L 905.2552384549044 68.41253465109044 L 905.0953081295241 68.4925128285758 L 904.933616615851 68.5717640465313 L 904.7701800829017 68.65028037990122 L 904.6050148741931 68.72805397711764 L 904.4381375061088 68.80507706088565 L 904.2695646662463 68.88134192896105 L 904.0993132117492 68.95684095492061 L 903.927400167621 69.03156658892462 L 903.753842725023 69.10551135847197 L 903.5786582395547 69.17866786914732 L 903.4018642295187 69.25102880536058 L 903.2234783741686 69.3225869310784 L 903.0435185119413 69.39333509054786 L 902.8620026386733 69.46326620901198 L 902.6789489058003 69.53237329341717 L 902.4943756185434 69.60064943311258 L 902.3083012340771 69.66808780054113 L 902.1207443596852 69.7346816519223 L 901.9317237508985 69.80042432792644 L 901.7412583096207 69.86530925434072 L 901.5493670822368 69.92932994272657 L 901.35606925771 69.9924799910685 L 901.1613841656615 70.05475308441433 L 900.9653312744383 70.1161429955066 L 900.7679301891661 70.17664358540536 L 900.5692006497891 70.23624880410202 L 900.3691625290953 70.29495269112441 L 900.1678358307304 70.35274937613272 L 899.9652406871963 70.40963307950663 L 899.7613973578385 70.46559811292322 L 899.5563262268203 70.52063887992576 L 899.3500478010835 70.57474987648341 L 899.1425827082992 70.62792569154163 L 898.9339516948035 70.68016100756323 L 898.724175623524 70.73145060106012 L 898.513275471893 70.78178934311569 L 898.30127232975 70.8311721998977 L 898.0881873972323 70.8795942331616 L 897.874041982656 70.92705060074444 L 897.6588575003836 70.973536557049 L 897.4426554686844 71.01904745351838 L 897.2254575075813 71.06357873910088 L 897.0072853366893 71.10712596070502 L 896.7881607730437 71.14968476364494 L 896.5681057289183 71.19125089207583 L 896.3471422096343 71.23182018941947 L 896.1252923113593 71.27138859877994 L 895.9025782188983 71.30995216334925 L 895.6790222034748 71.34750702680313 L 895.4546466205044 71.38404943368649 L 895.229473907358 71.4195757297891 L 895.0035265811197 71.45408236251096 L 894.7768272363335 71.48756588121756 L 894.549398542745 71.52002293758491 L 894.3212632430342 71.55145028593446 L 894.0924441505409 71.58184478355753 L 893.8629641469836 71.61120339102969 L 893.6328461801716 71.63952317251467 L 893.4021132617095 71.66680129605793 L 893.1707884646971 71.69303503386982 L 892.9388949214213 71.71822176259843 L 892.7064558210432 71.7423589635919 L 892.4734944072791 71.7654442231502 L 892.2400339760761 71.78747523276665 L 892.0060978732831 71.80844978935863 L 891.7717094923152 71.82836579548797 L 891.5368922718152 71.84722125957065 L 891.3016696933096 71.86501429607597 L 891.0660652788599 71.8817431257151 L 890.8301025887116 71.89740607561903 L 890.593805218937 71.91200157950583 L 890.357196799076 71.92552817783725 L 890.1203009897733 71.93798451796474 L 889.8831414804129 71.94936935426468 L 889.6457419867477 71.95968154826289 L 889.4081262485292 71.96892006874862 L 889.1703180271336 71.97708399187748 L 888.9323411031845 71.98417250126396 L 888.6942192741761 71.99018488806304 L 888.455976352093 71.99512055104105 L 888.2176361610286 71.99897899663581 L 887.9792225348036 72.00175983900598 L 887.7407593145819 72.00346280006961 L 887.5022703464867 72.00408770953204 L 887.2637794792162 72.00363450490285 L 887.0253105616583 72.0021032315021 L 886.7868874405061 71.99949404245586 L 886.5485339578731 71.9958071986809 L 886.3102739489087 71.99104306885846 L 886.0721312394155 71.98520212939759 L 885.8341296434659 71.97828496438737 L 885.596292961021 71.97029226553852 L 885.3586449755511 71.96122483211428 L 885.1212094516566 71.95108357085043 L 884.8840101326919 71.93986949586466 L 884.6470707383914 71.92758372855508 L 884.4104149624972 71.91422749748824 L 884.1740664703893 71.89980213827607 L 883.9380488967203 71.8843090934425 L 883.7023858430507 71.86774991227908 L 883.4671008754896 71.85012625069015 L 883.2322175223376 71.83143987102717 L 882.9977592717343 71.81169264191253 L 882.7637495693094 71.79088653805269 L 882.530211815838 71.7690236400407 L 882.2971693649012 71.74610613414815 L 882.0646455205494 71.72213631210651 L 881.8326635349736 71.69711657087802 L 881.601246606179 71.67104941241597 L 881.3704178756655 71.64393744341446 L 881.1402004261139 71.6157833750478 L 880.9106172790773 71.58659002269937 L 880.681691392679 71.55636030568009 L 880.453445659317 71.52509724693644 L 880.2259029033744 71.49280397274828 L 879.9990858789371 71.45948371241609 L 879.7730172675186 71.42513979793813 L 879.5477196757917 71.38977566367726 L 879.3232156333275 71.35339484601741 L 879.0995275903437 71.31600098301004 L 878.8766779154578 71.27759781401028 L 878.6546888934516 71.23818917930303 L 878.4335827230426 71.19777901971894 L 878.2133815146632 71.15637137624027 L 877.994107288251 71.11397038959687 L 877.7757819710458 71.07058029985207 L 877.5584273953974 71.02620544597868 L 877.3420652965824 70.98085026542512 L 877.12671731063 70.93451929367163 L 876.9124049721598 70.8872171637768 L 876.6991497122267 70.8389486059142 L 876.4869728561792 70.78971844689937 L 876.2758956215259 70.7395316097072 L 876.0659391158146 70.6883931129796 L 875.8571243345207 70.6363080705236 L 875.6494721589484 70.58328169080006 L 875.4430033541422 70.52931927640276 L 875.2377385668105 70.47442622352818 L 875.0336983232611 70.41860802143584 L 874.8309030273481 70.36187025189946 L 874.6293729584323 70.3042185886487 L 874.4291282693526 70.24565879680183 L 874.230188984411 70.18619673228926 L 874.0325749973703 70.12583834126788 L 873.8363060694644 70.06458965952649 L 873.6414018274226 70.00245681188221 L 873.4478817615067 69.93944601156807 L 873.2557652235619 69.87556355961155 L 873.0650714250821 69.81081584420461 L 872.8758194352881 69.74520934006487 L 872.6880281792212 69.67875060778805 L 872.5017164358505 69.61144629319199 L 872.3169028361951 69.54330312665208 L 872.1336058614611 69.47432792242817 L 871.9518438411928 69.40452757798322 L 871.7716349514413 69.3339090732935 L 871.5929972129451 69.26247947015062 L 871.4159484893291 69.19024591145539 L 871.2405064853183 69.11721562050347 L 871.0666887449669 69.0433959002631 L 870.894512649904 68.96879413264479 L 870.7239954175956 68.89341777776313 L 870.555154099623 68.81727437319081 L 870.3880055799771 68.74037153320482 L 870.2225665733707 68.66271694802508 L 870.0588536235665 68.58431838304537 L 869.8968831017232 68.5051836780569 L 869.736671204758 68.4253207464642 L 869.5782339537268 68.34473757449386 L 869.421587192223 68.26344222039596 L 869.2667465847921 68.18144281363814 L 869.1137276153659 68.09874755409275 L 868.9625455857135 68.01536471121685 L 868.8132156139122 67.9313026232252 L 868.6657526328347 67.84656969625658 L 868.5201713886562 67.76117440353308 L 868.3764864393797 67.67512528451279 L 868.2347121533805 67.5884309440359 L 868.0948627079691 67.50110005146425 L 867.9569520879734 67.41314133981427 L 867.8209940843403 67.32456360488388 L 867.6870022927573 67.23537570437271 L 867.5549901122915 67.14558655699653 L 867.4249707440512 67.05520514159522 L 867.2969571898647 66.96424049623502 L 867.1709622509808 66.87270171730466 L 867.0469985267885 66.78059795860575 L 866.9250784135568 66.68793843043741 L 866.8052141031953 66.59473239867523 L 866.6874175820354 66.50098918384472 L 866.571700629631 66.40671816018926 L 866.4580748175807 66.31192875473263 L 866.3465515083714 66.2166304463364 L 866.2371418542407 66.120832764752 L 866.129856796063 66.02454528966774 L 866.0247070622547 65.92777764975091 L 865.9217031677017 65.83053952168484 L 865.8208554127074 65.73284062920132 L 865.7221738819633 65.63469074210818 L 865.6256684435403 65.53609967531233 L 865.5313487479019 65.4370772878383 L 865.4392242269389 65.33763348184232 L 865.3493040930267 65.23777820162212 L 865.2615973381038 65.13752143262249 L 865.1761127327725 65.03687320043682 L 865.0928588254222 64.93584356980442 L 865.0118439413742 64.83444264360419 L 864.9330761820494 64.73268056184422 L 864.8565634241581 64.63056750064791 L 864.7823133189123 64.52811367123628 L 864.7103332912608 64.42532931890689 L 864.6406305391461 64.32222472200931 L 864.5732120327856 64.21881019091732 L 864.5080845139736 64.11509606699785 L 864.4452544954077 64.01109272157687 L 864.3847282600375 63.90681055490224 L 864.326511860436 63.80225999510374 L 864.2706111181948 63.697451497150205 L 864.2170316233413 63.59239554180411 L 864.1657787337805 63.48710263457343 L 864.1168575747587 63.381583304661156 L 864.0702730383508 63.27584810391234 L 864.0260297829719 63.16990760575894 L 863.9841322329105 63.06377240416249 L 863.9445845778868 62.95745311255472 L 863.9073907726331 62.85096036277616 L 863.8725545364993 62.744304804013076 L 863.8400793530795 62.63749710173245 L 863.8099684698656 62.530547936615505 L 863.7822248979203 62.423468003489624 L 863.7568514115779 62.316268010258895 L 863.733850548166 62.208958676833305 L 863.7132246077515 62.10155073405677 L 863.6949756529114 61.99405492263407 L 863.6791055085259 61.88648199205676 L 863.6656157615964 61.77884269952825 L 863.6545077610862 61.6711478088881 L 863.6457826177862 61.56340808953563 L 863.6394412042032 61.45563431535299 L 863.6354841544736 61.34783726362778 L 863.6339118642989 61.24002771397536 L 863.6347244909068 61.13221644726084 L 863.6379219530354 61.02441424452105 L 863.643503930941 60.916631885886424 L 863.6514698664307 60.808880149503025 L 863.6618189629174 60.70116981045468 L 863.6745501855003 60.59351163968555 L 863.6896622610674 60.48591640292299 L 863.707153678424 60.378394859601016 L 863.7270226884427 60.27095776178435 L 863.7492673042394 60.163615853093255 L 863.7738853013709 60.05637986762915 L 863.8008742180579 59.949260528901206 L 863.8302313554312 59.84226854875404 L 863.8619537778018 59.7354146262965 L 863.8960383129537 59.62870944683179 L 863.9324815524617 59.52216368078894 L 863.9712798520325 59.41578798265577 L 864.0124293318681 59.30959298991343 L 864.0559258770552 59.203589321972714 L 864.1017651379752 59.09778757911208 L 864.1499425307404 58.992198341417634 L 864.2004532376517 58.88683216772516 L 864.2532922076803 58.78169959456423 L 864.3084541569734 58.67681113510454 L 864.365933569382 58.57217727810464 L 864.4257246970128 58.46780848686303 L 864.4878215608027 58.36371519817185 L 864.5522179511172 58.25990782127324 L 864.618907428371 58.15639673681838 L 864.6878833236718 58.053192295829454 L 864.7591387394876 57.950304818664556 L 864.8326665503363 57.84774459398567 L 864.9084594034979 57.745521877729786 L 864.9865097197503 57.64364689208335 L 865.0668096941271 57.54212982446004 L 865.1493512966974 57.44098082648201 L 865.2341262733702 57.340210012964775 L 865.3211261467181 57.2398274609057 L 865.4103422168265 57.13984320847635 L 865.5017655621626 57.040267254018644 L 865.5953870404682 56.94110955504505 L 865.6911972896731 56.84238002724283 L 865.7891867288328 56.74408854348249 L 865.8893455590846 56.646244932830506 L 865.9916637646292 56.54885897956639 L 866.096131113731 56.45194042220433 L 866.2027371597425 56.35549895251929 L 866.3114712421477 56.25954421457787 L 866.422322487629 56.16408580377391 L 866.5352798111544 56.06913326586893 L 866.6503319170855 55.974696096037604 L 866.7674673003077 55.88078373791821 L 866.88667424738 55.7874055826683 L 867.0079408377075 55.694570968025594 L 867.1312549447318 55.60228917737418 L 867.2566042371453 55.51056943881623 L 867.383976180123 55.41942092424918 L 867.5133580365768 55.328852748448504 L 867.6447368684289 55.23887396815633 L 867.7780995379055 55.14949358117568 L 867.9134327088509 55.0607205254708 L 868.0507228480608 54.97256367827326 L 868.1899562266356 54.88503185519433 L 868.3311189213534 54.79813380934336 L 868.4741968160625 54.71187823045254 L 868.6191756030927 54.62627374400786 L 868.766040784686 54.541328910386646 L 868.9147776744467 54.45705222400146 L 869.0653713988096 54.373452112450714 L 869.217806898528 54.290536935675895 L 869.3720689301788 54.20831498512558 L 869.5281420676874 54.12679448292632 L 869.6860107038702 54.0459835810604 L 869.8456590519952 53.965890360550645 L 870.0070711473603 53.88652283065238 L 870.1702308488908 53.80788892805245 L 870.3351218407523 53.72999651607559 L 870.5017276339833 53.652853383898076 L 870.670031568143 53.57646724576885 L 870.8400168129783 53.50084574023808 L 871.0116663701066 53.42599642939328 L 871.184963074715 53.35192679810317 L 871.3598895972775 53.278644253269164 L 871.5364284452877 53.20615612308466 L 871.7145619650078 53.13446965630228 L 871.8942723432343 53.06359202150896 L 872.0755416090792 52.99353030640911 L 872.2583516357669 52.924291517115876 L 872.4426841424471 52.85588257745046 L 872.6285206960229 52.78831032824984 L 872.8158427129935 52.72158152668263 L 873.0046314613134 52.65570284557336 L 873.1948680622652 52.590680872735255 L 873.3865334923473 52.52652211031142 L 873.5796085851764 52.463232974124615 L 873.7740740334041 52.40081979303573 L 873.9699103906477 52.33928880831086 L 874.1670980734344 52.278646172997206 L 874.3656173631607 52.21889795130775 L 874.5654484080627 52.160050118014894 L 874.7665712252025 52.1021085578529 L 874.9689657024661 52.045079064929524 L 875.1726116005744 51.98896734214652 L 875.3774885551072 51.933779000629414 L 875.5835760785399 51.87951955916637 L 875.7908535622918 51.826194443656306 L 875.9993002787872 51.77380898656634 L 876.2088953835284 51.72236842639853 L 876.4196179171794 51.67187790716602 L 876.6314468076624 51.622342477878675 L 876.844360872265 51.57376709203812 L 877.0583388197582 51.526156607142475 L 877.2733592525254 51.47951578420055 L 877.4894006687026 51.43384928725578 L 877.7064414643281 51.38916168291979 L 877.9244599355035 51.34545743991578 L 878.143434280563 51.302740928631636 L 878.3633426022548 51.261016420682886 L 878.58416290993 51.220288088485546 L 878.8058731217417 51.18056000483891 L 879.0284510668536 51.14183614251822 L 879.2518744876566 51.10412037387746 L 879.4761210419947 51.06741647046204 L 879.7011683053996 51.03172810263173 L 879.9269937733324 50.99705883919358 L 880.1535748634344 50.96341214704502 L 880.3808889177856 50.930791390827245 L 880.6089132051696 50.899199832588685 L 880.8376249233481 50.86864063145883 L 881.0670012013397 50.83911684333235 L 881.2970191017079 50.81063142056343 L 881.527655622854 50.78318721167063 L 881.7588877013184 50.75678696105195 L 881.9906922140857 50.731433308710464 L 882.2230459808981 50.70712878999027 L 882.4559257665722 50.683875835323 L 882.6893082833238 50.66167676998473 L 882.9231701930956 50.6405338138635 L 883.1574881098915 50.6204490812373 L 883.392238602115 50.60142458056266 L 883.6273981949125 50.583462214273794 L 883.8629433725209 50.566563778592354 L 884.0988505806185 50.55073096334783 L 884.3350962286813 50.53596535180856 L 884.5716566923411 50.52226842052339 L 884.8085083157489 50.50964153917403 L 885.0456274139395 50.49808597043808 L 885.282990275201 50.48760286986282 L 885.5205731634447 50.47819328574954 L 885.75835232058 50.46985815904882 L 885.9963039688894 50.462598323266384 L 886.2344043134061 50.456414504379765 L 886.4726295442943 50.45130732076569 L 886.7109558392293 50.44727728313828 L 886.9493593657803 50.444324794497916 L 887.1878162837932 50.44245015009101 L 887.426302747775 50.44165353738045 L 887.664794909278 50.44193503602685 L 887.9032689192849 50.443294617880554 L 888.1417009305933 50.445732146984525 L 888.3800671002008 50.44924737958788 L 888.618343591689 50.45383996417029 L 888.8565065776075 50.459509441477124 L 889.0945322418561 50.46625524456538 L 889.3323967820666 50.474076698860365 L 889.5700764119832 50.48297302222316 L 889.8075473638413 50.49294332502887 L 890.0447858907432 50.50398661025549 L 890.2817682690342 50.51610177358371 L 890.5184708006738 50.52928760350731 L 890.7548698156061 50.54354278145426 L 890.9909416741267 50.55886588191867 L 891.2266627692463 50.575255372603245 L 891.462009529052 50.592709614572584 L 891.6969584190639 50.61122686241703 L 891.9314859445886 50.630805264427224 L 892.1655686530694 50.651442862779284 L 892.3991831364301 50.67313759373059 L 892.6323060334172 50.695887287826096 L 892.8649140319353 50.71968967011537 L 893.0969838713784 50.74454236038002 L 893.3284923449559 50.77044287337172 L 893.5594163020133 50.797388619060754 L 893.7897326503476 50.825376902895016 L 894.0194183585155 50.85440492606945 L 894.2484504581379 50.88446978580591 L 894.4768060461955 50.9155684756435 L 894.70446228732 50.947697885739125 L 894.9313964160767 50.980854803178566 L 895.1575857392421 51.01503591229771 L 895.3830076380724 51.05023779501413 L 895.6076395705653 51.08645693116888 L 895.831459073715 51.12368969887854 L 896.0544437657576 51.16193237489736 L 896.2765713484096 51.201181134989596 L 896.4978196090981 51.241432054311964 L 896.7181664231812 51.28268110780607 L 896.9375897561611 51.32492417060092 L 897.1560676658875 51.368157018425464 L 897.3735783047514 51.41237532803093 L 897.5900999218702 51.45757467762322 L 897.8056108652626 51.503750547305025 L 898.0200895840138 51.55089831952786 L 898.2335146304308 51.5990132795538 L 898.4458646621868 51.64809061592693 L 898.6571184444555 51.69812542095451 L 898.8672548520346 51.749112691197745 L 899.0762528714587 51.801047327972086 L 899.2840916030999 51.85392413785714 L 899.4907502632582 51.90773783321599 L 899.6962081862399 51.962483032723924 L 899.9004448264238 52.01815426190663 L 900.1034397603162 52.07474595368758 L 900.3051726885927 52.132252448944755 L 900.5056234381289 52.190667997076545 L 900.7047719640165 52.24998675657682 L 900.902598351569 52.310202795619055 L 901.0990828183127 52.371310092649544 L 901.2942057159645 52.43330253698949 L 901.4879475323972 52.49617392944612 L 901.6802888935906 52.559917982932596 L 901.8712105655691 52.62452832309667 L 902.0606934563242 52.68999848895818 L 902.2487186177251 52.7563219335551 L 902.4352672474122 52.823492024598224 L 902.6203206906779 52.89150204513444 L 902.8038604423322 52.960345194218355 L 902.9858681485529 53.03001458759244 L 903.166325608721 53.10050325837541 L 903.3452147772408 53.171804157758935 L 903.5225177653446 53.243910155712484 L 903.6982168428814 53.31681404169635 L 903.8722944400897 53.39050852538269 L 904.044733149355 53.46498623738456 L 904.21551572695 53.5402397299928 L 904.3846250947593 53.61626147792087 L 904.5520443419869 53.69304387905734 L 904.7177567268477 53.770579255226075 L 904.8817456782414 53.848859852954064 L 905.0439947974094 53.92787784424677 L 905.204487859575 54.00762532737092 L 905.3632088155658 54.08809432764465 L 905.5201417934184 54.16927679823499 L 905.6752710999657 54.251164620962534 L 905.8285812224066 54.33374960711325 L 905.9800568298563 54.41702349825734 L 906.1296827748804 54.500977967075094 L 906.2774440950092 54.58560461818958 L 906.4233260142337 54.670894989006214 L 906.5673139444835 54.75684055055899 L 906.7093934870858 54.84343270836337 L 906.8495504342045 54.93066280327574 L 906.9877707702617 55.0185221123593 L 907.1240406733391 55.107001849756344 L 907.2583465165599 55.196093167566886 L 907.3906748694517 55.28578715673337 L 907.5210124992893 55.37607484793163 L 907.6493463724187 55.46694721246779 L 907.7756636555594 55.55839516318112 L 907.899951717088 55.65040955535275 L 908.0221981283024 55.742981187620146 L 908.1423906646631 55.83610080289723 L 908.2605173070168 55.92975908930006 L 908.3765662427975 56.02394668107806 L 908.4905258672084 56.11865415955053 L 908.602384784382 56.213872054048544 L 908.7121318085199 56.30959084286201 L 908.819755965011 56.405800954191804 L 908.9252464915295 56.50249276710697 L 909.0285928391105 56.5996566125068 L 909.1297846732054 56.69728277408771 L 909.2288118747153 56.79536148931491 L 909.3256645410023 56.89388295039859 L 909.4203329868807 56.99283730527477 L 909.5128077455846 57.09221465859041 L 909.6030795697154 57.19200507269298 L 909.6911394321658 57.29219856862425 L 909.7769785270228 57.39278512711811 L 909.8605882704488 57.49375468960253 L 909.9419603015388 57.59509715920541 L 910.0210864831577 57.69680240176424 L 910.0979589027531 57.79886024683951 L 910.1725698731473 57.90126048873177 L 910.2449119333053 58.003992887502164 L 910.3149778490815 58.10704716999642 L 910.3827606139425 58.21041303087217 L 910.4482534496685 58.31408013362946 L 910.5114498070304 58.41803811164441 L 910.5723433664451 58.52227656920584 L 910.6309280386075 58.62678508255487 L 910.6871979650991 58.731553200927245 L 910.7411475189743 58.83657044759845 L 910.7927713053226 58.94182632093131 L 910.8420641618083 59.04731029542622 L 910.8890211591869 59.153011822773635 L 910.9336376017977 59.25892033290889 L 910.9759090280338 59.36502523506925 L 911.0158312107876 59.471315918852895 L 911.0534001578743 59.57778175528004 L 911.0886121124303 59.684412097855756 L 911.1214635532897 59.79119628363465 L 911.1519511953355 59.89812363428712 L 911.1800719898292 60.005183457167206 L 911.2058231247146 60.11236504638185 L 911.2292020248998 60.21965768386144 L 911.250206352514 60.327050640431644 L 911.2688340071423 60.43453317688629 L 911.2850831260346 60.5420945450613 L 911.2989520842925 60.6497239889095 L 911.3104394950318 60.757410745576195 L 911.3195442095209 60.86514404647545 L 911.3262653172961 60.972913118366954 L 911.3306021462521 61.08070718443333 L 911.3325542627097 61.188515465357796 M 911.3326752527656 95.52678387991818 L 911.331482792862 95.6345944248348 L 911.3279055323959 95.74239418878678 L 911.3219438290906 95.85017239188754 L 911.3135982791113 95.95791825640659 L 911.302869717006 96.06562100784727 L 911.2897592156222 96.1732698760242 L 911.274268085999 96.28085409614023 L 911.2563978772364 96.38836290986303 L 911.2361503763403 96.49578556640084 L 911.2135276080442 96.60311132357748 L 911.1885318346058 96.7103294489067 L 911.1611655555818 96.8174292206653 L 911.1314315075772 96.92439992896537 L 911.0993326639721 97.0312308768252 L 911.064872234624 97.13791138123905 L 911.0280536655472 97.24443077424536 L 910.9888806385678 97.35077840399362 L 910.9473570709561 97.45694363580944 L 910.9034871150341 97.56291585325815 L 910.8572751577607 97.66868445920629 L 910.8087258202934 97.77423887688141 L 910.7578439575253 97.8795685509297 L 910.7046346576004 97.98466294847155 L 910.6491032414042 98.08951156015478 L 910.5912552620322 98.19410390120557 L 910.531096504234 98.29842951247699 L 910.4686329838354 98.40247796149485 L 910.4038709471362 98.50623884350097 L 910.3368168702862 98.60970178249359 L 910.2674774586372 98.71285643226504 L 910.1958596460726 98.81569247743631 L 910.1219705943139 98.91819963448859 L 910.0458176922049 99.02036765279156 L 909.967408554972 99.12218631562857 L 909.886751023464 99.22364544121817 L 909.8038531633665 99.32473488373233 L 909.7187232643967 99.42544453431107 L 909.6313698394732 99.52576432207324 L 909.541801623866 99.62568421512367 L 909.450027574322 99.72519422155631 L 909.3560568681696 99.82428439045346 L 909.259898902401 99.92294481288079 L 909.1615632927329 100.02116562287829 L 909.0610598726441 100.11893699844678 L 908.958398692393 100.2162491625302 L 908.8535900180119 100.31309238399325 L 908.746644330281 100.40945697859446 L 908.63757232368 100.50533330995468 L 908.5263849053188 100.60071179052068 L 908.4130931938462 100.69558288252388 L 908.2977085183393 100.78993709893413 L 908.1802424171692 100.88376500440843 L 908.0607066368483 100.97705721623441 L 907.939113130855 101.06980440526866 L 907.8154740584387 101.16199729686952 L 907.6898017834033 101.25362667182469 L 907.5621088728718 101.34468336727302 L 907.4324080960288 101.43515827762084 L 907.3007124228438 101.52504235545253 L 907.1670350227746 101.61432661243519 L 907.0313892634497 101.70300212021755 L 906.8937887093318 101.7910600113227 L 906.7542471203619 101.87849148003492 L 906.6127784505826 101.9652877832802 L 906.4693968467428 102.05144024150056 L 906.3241166468837 102.13694023952193 L 906.1769523789038 102.22177922741581 L 906.0279187591077 102.30594872135407 L 905.8770306907328 102.38944030445748 L 905.7243032624605 102.47224562763729 L 905.5697517469061 102.5543564104302 L 905.4133915990927 102.63576444182635 L 905.2552384549044 102.71646158109044 L 905.0953081295241 102.79643975857579 L 904.933616615851 102.8756909765313 L 904.7701800829017 102.95420730990122 L 904.6050148741931 103.03198090711763 L 904.4381375061088 103.10900399088564 L 904.2695646662463 103.18526885896105 L 904.0993132117492 103.2607678849206 L 903.927400167621 103.33549351892461 L 903.753842725023 103.40943828847196 L 903.5786582395547 103.48259479914732 L 903.4018642295187 103.55495573536056 L 903.2234783741686 103.6265138610784 L 903.0435185119413 103.69726202054787 L 902.8620026386733 103.76719313901197 L 902.6789489058003 103.83630022341715 L 902.4943756185434 103.90457636311257 L 902.3083012340771 103.97201473054113 L 902.1207443596852 104.03860858192229 L 901.9317237508985 104.10435125792642 L 901.7412583096207 104.1692361843407 L 901.5493670822368 104.23325687272656 L 901.35606925771 104.29640692106851 L 901.1613841656615 104.35868001441433 L 900.9653312744383 104.4200699255066 L 900.7679301891661 104.48057051540535 L 900.5692006497891 104.54017573410202 L 900.3691625290953 104.5988796211244 L 900.1678358307304 104.65667630613272 L 899.9652406871963 104.71356000950664 L 899.7613973578385 104.7695250429232 L 899.5563262268203 104.82456580992574 L 899.3500478010835 104.87867680648341 L 899.1425827082992 104.93185262154162 L 898.9339516948035 104.98408793756322 L 898.724175623524 105.0353775310601 L 898.513275471893 105.08571627311568 L 898.30127232975 105.13509912989768 L 898.0881873972323 105.1835211631616 L 897.874041982656 105.23097753074444 L 897.6588575003836 105.27746348704899 L 897.4426554686844 105.32297438351839 L 897.2254575075813 105.36750566910086 L 897.0072853366893 105.41105289070501 L 896.7881607730437 105.45361169364494 L 896.5681057289183 105.49517782207583 L 896.3471422096343 105.53574711941947 L 896.1252923113593 105.57531552877992 L 895.9025782188983 105.61387909334925 L 895.6790222034748 105.65143395680312 L 895.4546466205044 105.68797636368647 L 895.229473907358 105.72350265978909 L 895.0035265811197 105.75800929251095 L 894.7768272363335 105.79149281121755 L 894.549398542745 105.82394986758491 L 894.3212632430342 105.85537721593445 L 894.0924441505409 105.88577171355752 L 893.8629641469836 105.9151303210297 L 893.6328461801716 105.94345010251467 L 893.4021132617095 105.97072822605791 L 893.1707884646971 105.99696196386981 L 892.9388949214213 106.02214869259844 L 892.7064558210432 106.04628589359189 L 892.4734944072791 106.0693711531502 L 892.2400339760761 106.09140216276666 L 892.0060978732831 106.11237671935864 L 891.7717094923152 106.13229272548797 L 891.5368922718152 106.15114818957065 L 891.3016696933096 106.16894122607596 L 891.0660652788599 106.1856700557151 L 890.8301025887116 106.20133300561903 L 890.593805218937 106.21592850950582 L 890.357196799076 106.22945510783724 L 890.1203009897733 106.24191144796474 L 889.8831414804129 106.25329628426466 L 889.6457419867477 106.2636084782629 L 889.4081262485292 106.2728469987486 L 889.1703180271336 106.28101092187747 L 888.9323411031845 106.28809943126396 L 888.6942192741761 106.29411181806304 L 888.455976352093 106.29904748104106 L 888.2176361610286 106.30290592663582 L 887.9792225348036 106.30568676900597 L 887.7407593145819 106.30738973006962 L 887.5022703464867 106.30801463953205 L 887.2637794792162 106.30756143490284 L 887.0253105616583 106.3060301615021 L 886.7868874405061 106.30342097245587 L 886.5485339578731 106.29973412868088 L 886.3102739489087 106.29496999885845 L 886.0721312394155 106.28912905939758 L 885.8341296434659 106.28221189438736 L 885.596292961021 106.27421919553852 L 885.3586449755511 106.26515176211427 L 885.1212094516566 106.25501050085043 L 884.8840101326919 106.24379642586464 L 884.6470707383914 106.23151065855508 L 884.4104149624972 106.21815442748823 L 884.1740664703893 106.20372906827606 L 883.9380488967203 106.1882360234425 L 883.7023858430507 106.17167684227908 L 883.4671008754896 106.15405318069014 L 883.2322175223376 106.13536680102716 L 882.9977592717343 106.11561957191253 L 882.7637495693094 106.09481346805269 L 882.530211815838 106.0729505700407 L 882.2971693649012 106.05003306414814 L 882.0646455205494 106.0260632421065 L 881.8326635349736 106.00104350087803 L 881.601246606179 105.97497634241597 L 881.3704178756655 105.94786437341445 L 881.1402004261139 105.9197103050478 L 880.9106172790773 105.89051695269937 L 880.681691392679 105.86028723568009 L 880.453445659317 105.82902417693644 L 880.2259029033744 105.79673090274827 L 879.9990858789371 105.76341064241608 L 879.7730172675186 105.72906672793813 L 879.5477196757917 105.69370259367726 L 879.3232156333275 105.6573217760174 L 879.0995275903437 105.61992791301003 L 878.8766779154578 105.58152474401028 L 878.6546888934516 105.54211610930304 L 878.4335827230426 105.50170594971894 L 878.2133815146632 105.46029830624026 L 877.994107288251 105.41789731959686 L 877.7757819710458 105.37450722985206 L 877.5584273953974 105.33013237597868 L 877.3420652965824 105.28477719542511 L 877.12671731063 105.23844622367163 L 876.9124049721598 105.1911440937768 L 876.6991497122267 105.14287553591419 L 876.4869728561792 105.09364537689936 L 876.2758956215259 105.0434585397072 L 876.0659391158146 104.99232004297959 L 875.8571243345207 104.9402350005236 L 875.6494721589484 104.88720862080007 L 875.4430033541422 104.83324620640276 L 875.2377385668105 104.77835315352817 L 875.0336983232611 104.72253495143585 L 874.8309030273481 104.66579718189945 L 874.6293729584323 104.60814551864868 L 874.4291282693526 104.54958572680184 L 874.230188984411 104.49012366228926 L 874.0325749973703 104.42976527126788 L 873.8363060694644 104.36851658952648 L 873.6414018274226 104.30638374188221 L 873.4478817615067 104.24337294156805 L 873.2557652235619 104.17949048961154 L 873.0650714250821 104.11474277420461 L 872.8758194352881 104.04913627006486 L 872.6880281792212 103.98267753778805 L 872.5017164358505 103.91537322319199 L 872.3169028361951 103.84723005665208 L 872.1336058614611 103.77825485242818 L 871.9518438411928 103.70845450798322 L 871.7716349514413 103.63783600329349 L 871.5929972129451 103.56640640015061 L 871.4159484893291 103.49417284145538 L 871.2405064853183 103.42114255050346 L 871.0666887449669 103.3473228302631 L 870.894512649904 103.27272106264479 L 870.7239954175956 103.19734470776314 L 870.555154099623 103.1212013031908 L 870.3880055799771 103.04429846320481 L 870.2225665733707 102.96664387802507 L 870.0588536235665 102.88824531304537 L 869.8968831017232 102.8091106080569 L 869.736671204758 102.72924767646418 L 869.5782339537268 102.64866450449387 L 869.421587192223 102.56736915039596 L 869.2667465847921 102.48536974363815 L 869.1137276153659 102.40267448409276 L 868.9625455857135 102.31929164121684 L 868.8132156139122 102.2352295532252 L 868.6657526328347 102.15049662625658 L 868.5201713886562 102.06510133353308 L 868.3764864393797 101.97905221451278 L 868.2347121533805 101.89235787403591 L 868.0948627079691 101.80502698146424 L 867.9569520879734 101.71706826981428 L 867.8209940843403 101.62849053488388 L 867.6870022927573 101.53930263437272 L 867.5549901122915 101.44951348699652 L 867.4249707440512 101.35913207159521 L 867.2969571898647 101.26816742623502 L 867.1709622509808 101.17662864730465 L 867.0469985267885 101.08452488860574 L 866.9250784135568 100.9918653604374 L 866.8052141031953 100.89865932867522 L 866.6874175820354 100.80491611384473 L 866.571700629631 100.71064509018925 L 866.4580748175807 100.61585568473262 L 866.3465515083714 100.5205573763364 L 866.2371418542407 100.424759694752 L 866.129856796063 100.32847221966773 L 866.0247070622547 100.2317045797509 L 865.9217031677017 100.13446645168483 L 865.8208554127074 100.03676755920131 L 865.7221738819633 99.93861767210817 L 865.6256684435403 99.84002660531232 L 865.5313487479019 99.7410042178383 L 865.4392242269389 99.64156041184232 L 865.3493040930267 99.54170513162211 L 865.2615973381038 99.4414483626225 L 865.1761127327725 99.34080013043682 L 865.0928588254222 99.23977049980442 L 865.0118439413742 99.13836957360418 L 864.9330761820494 99.03660749184422 L 864.8565634241581 98.9344944306479 L 864.7823133189123 98.83204060123627 L 864.7103332912608 98.72925624890688 L 864.6406305391461 98.6261516520093 L 864.5732120327856 98.52273712091731 L 864.5080845139736 98.41902299699785 L 864.4452544954077 98.31501965157686 L 864.3847282600375 98.21073748490224 L 864.326511860436 98.10618692510373 L 864.2706111181948 98.0013784271502 L 864.2170316233413 97.89632247180411 L 864.1657787337805 97.79102956457344 L 864.1168575747587 97.68551023466115 L 864.0702730383508 97.57977503391233 L 864.0260297829719 97.47383453575894 L 863.9841322329105 97.3676993341625 L 863.9445845778868 97.2613800425547 L 863.9073907726331 97.15488729277617 L 863.8725545364993 97.04823173401307 L 863.8400793530795 96.94142403173245 L 863.8099684698656 96.8344748666155 L 863.7822248979203 96.72739493348962 L 863.7568514115779 96.6201949402589 L 863.733850548166 96.51288560683331 L 863.7132246077515 96.40547766405678 L 863.6949756529114 96.29798185263407 L 863.6791055085259 96.19040892205675 L 863.6656157615964 96.08276962952824 L 863.6545077610862 95.9750747388881 L 863.6457826177862 95.86733501953563 L 863.6394412042032 95.75956124535298 L 863.6354841544736 95.65176419362778 L 863.6339118642989 95.54395464397535" stroke-miterlimit="10" stroke-width="2.7769845610000004" stroke-dasharray=""/></g><g><g/><text fill="black" stroke="none" font-family="sans-serif" font-size="11pt" font-style="normal" font-weight="normal" text-decoration="normal" x="856.1053334884766" y="123.83569119881818" text-anchor="start" dominant-baseline="alphabetic" xml:space="preserve">Database</text></g><g><path fill="white" stroke="black" paint-order="fill stroke markers" d=" M 90.987082381 771.6081780603181 A 9.311065881 9.311065881 0 1 1 90.98707772546743 771.5988669959889 M 81.67601649999999 780.9192439413181 L 81.67601649999999 800.8481919673181 M 69.914670124 788.1067333933181 L 93.43736287599998 788.1067333933181 M 81.67601649999999 800.8481919673181 L 69.914670124 819.4703237293181 M 81.67601649999999 800.8481919673181 L 93.43736287599998 819.4703237293181" stroke-miterlimit="10" stroke-width="2.7769845610000004" stroke-dasharray=""/></g><g><g/><text fill="black" stroke="none" font-family="sans-serif" font-size="11pt" font-style="normal" font-weight="normal" text-decoration="normal" x="53.1470400595703" y="756.008058908818" text-anchor="start" dominant-baseline="alphabetic" xml:space="preserve">Landlord</text></g><g><path fill="white" stroke="black" paint-order="fill stroke markers" d=" M 372.8158517000443 787.110285992018 A 24.2577769005 24.2577769005 0 1 1 372.81583957115686 787.0860282191604 M 322.9118056185443 813.589650541318 L 374.20434398054425 813.589650541318" stroke-miterlimit="10" stroke-width="2.7769845610000004" stroke-dasharray=""/></g><g><g/><text fill="black" stroke="none" font-family="sans-serif" font-size="11pt" font-style="normal" font-weight="normal" text-decoration="normal" x="329.8179243478841" y="756.008058908818" text-anchor="start" dominant-baseline="alphabetic" xml:space="preserve">Client</text></g><g><path fill="white" stroke="black" paint-order="fill stroke markers" d=" M 653.5633579976354 787.110285992018 A 24.2577769005 24.2577769005 0 1 1 653.563345868748 787.0860282191604 M 603.6593119161355 813.589650541318 L 654.9518502781355 813.589650541318" stroke-miterlimit="10" stroke-width="2.7769845610000004" stroke-dasharray=""/></g><g><g/><text fill="black" stroke="none" font-family="sans-serif" font-size="11pt" font-style="normal" font-weight="normal" text-decoration="normal" x="600.7801828427409" y="756.008058908818" text-anchor="start" dominant-baseline="alphabetic" xml:space="preserve">Backend</text></g><g><path fill="white" stroke="black" paint-order="fill stroke markers" d=" M 863.6338816167657 808.7707655678181 L 863.6338816167657 774.466838637818 L 911.3326752527656 774.466838637818 L 911.3326752527656 808.7707655678181" stroke-miterlimit="10" stroke-width="2.7769845610000004" stroke-dasharray=""/><path fill="white" stroke="black" paint-order="fill stroke markers" d=" M 911.3326752527656 773.274368796918 L 911.331482792862 773.3821793418347 L 911.3279055323959 773.4899791057866 L 911.3219438290906 773.5977573088874 L 911.3135982791113 773.7055031734064 L 911.302869717006 773.8132059248471 L 911.2897592156222 773.920854793024 L 911.274268085999 774.0284390131401 L 911.2563978772364 774.1359478268629 L 911.2361503763403 774.2433704834007 L 911.2135276080442 774.3506962405773 L 911.1885318346058 774.4579143659065 L 911.1611655555818 774.5650141376651 L 911.1314315075772 774.6719848459652 L 911.0993326639721 774.7788157938251 L 911.064872234624 774.8854962982389 L 911.0280536655472 774.9920156912451 L 910.9888806385678 775.0983633209934 L 910.9473570709561 775.2045285528093 L 910.9034871150341 775.3105007702579 L 910.8572751577607 775.4162693762061 L 910.8087258202934 775.5218237938813 L 910.7578439575253 775.6271534679295 L 910.7046346576004 775.7322478654713 L 910.6491032414042 775.8370964771545 L 910.5912552620322 775.9416888182054 L 910.531096504234 776.0460144294768 L 910.4686329838354 776.1500628784946 L 910.4038709471362 776.2538237605007 L 910.3368168702862 776.3572866994934 L 910.2674774586372 776.4604413492649 L 910.1958596460726 776.5632773944361 L 910.1219705943139 776.6657845514884 L 910.0458176922049 776.7679525697914 L 909.967408554972 776.8697712326284 L 909.886751023464 776.971230358218 L 909.8038531633665 777.0723198007321 L 909.7187232643967 777.1730294513109 L 909.6313698394732 777.273349239073 L 909.541801623866 777.3732691321235 L 909.450027574322 777.4727791385561 L 909.3560568681696 777.5718693074533 L 909.259898902401 777.6705297298806 L 909.1615632927329 777.768750539878 L 909.0610598726441 777.8665219154466 L 908.958398692393 777.96383407953 L 908.8535900180119 778.060677300993 L 908.746644330281 778.1570418955943 L 908.63757232368 778.2529182269545 L 908.5263849053188 778.3482967075205 L 908.4130931938462 778.4431677995237 L 908.2977085183393 778.537522015934 L 908.1802424171692 778.6313499214083 L 908.0607066368483 778.7246421332343 L 907.939113130855 778.8173893222685 L 907.8154740584387 778.9095822138694 L 907.6898017834033 779.0012115888245 L 907.5621088728718 779.0922682842728 L 907.4324080960288 779.1827431946207 L 907.3007124228438 779.2726272724524 L 907.1670350227746 779.361911529435 L 907.0313892634497 779.4505870372174 L 906.8937887093318 779.5386449283225 L 906.7542471203619 779.6260763970347 L 906.6127784505826 779.7128727002801 L 906.4693968467428 779.7990251585004 L 906.3241166468837 779.8845251565217 L 906.1769523789038 779.9693641444156 L 906.0279187591077 780.0535336383539 L 905.8770306907328 780.1370252214573 L 905.7243032624605 780.2198305446371 L 905.5697517469061 780.30194132743 L 905.4133915990927 780.3833493588262 L 905.2552384549044 780.4640464980903 L 905.0953081295241 780.5440246755757 L 904.933616615851 780.6232758935311 L 904.7701800829017 780.701792226901 L 904.6050148741931 780.7795658241174 L 904.4381375061088 780.8565889078855 L 904.2695646662463 780.9328537759609 L 904.0993132117492 781.0083528019204 L 903.927400167621 781.0830784359244 L 903.753842725023 781.1570232054718 L 903.5786582395547 781.2301797161472 L 903.4018642295187 781.3025406523603 L 903.2234783741686 781.3740987780782 L 903.0435185119413 781.4448469375477 L 902.8620026386733 781.5147780560118 L 902.6789489058003 781.583885140417 L 902.4943756185434 781.6521612801124 L 902.3083012340771 781.7195996475409 L 902.1207443596852 781.7861934989221 L 901.9317237508985 781.8519361749262 L 901.7412583096207 781.9168211013405 L 901.5493670822368 781.9808417897264 L 901.35606925771 782.0439918380683 L 901.1613841656615 782.1062649314141 L 900.9653312744383 782.1676548425064 L 900.7679301891661 782.2281554324052 L 900.5692006497891 782.2877606511018 L 900.3691625290953 782.3464645381242 L 900.1678358307304 782.4042612231325 L 899.9652406871963 782.4611449265064 L 899.7613973578385 782.517109959923 L 899.5563262268203 782.5721507269255 L 899.3500478010835 782.6262617234833 L 899.1425827082992 782.6794375385415 L 898.9339516948035 782.731672854563 L 898.724175623524 782.78296244806 L 898.513275471893 782.8333011901155 L 898.30127232975 782.8826840468975 L 898.0881873972323 782.9311060801614 L 897.874041982656 782.9785624477443 L 897.6588575003836 783.0250484040488 L 897.4426554686844 783.0705593005182 L 897.2254575075813 783.1150905861007 L 897.0072853366893 783.1586378077048 L 896.7881607730437 783.2011966106447 L 896.5681057289183 783.2427627390756 L 896.3471422096343 783.2833320364193 L 896.1252923113593 783.3229004457797 L 895.9025782188983 783.3614640103491 L 895.6790222034748 783.3990188738029 L 895.4546466205044 783.4355612806863 L 895.229473907358 783.4710875767889 L 895.0035265811197 783.5055942095107 L 894.7768272363335 783.5390777282173 L 894.549398542745 783.5715347845847 L 894.3212632430342 783.6029621329343 L 894.0924441505409 783.6333566305574 L 893.8629641469836 783.6627152380295 L 893.6328461801716 783.6910350195145 L 893.4021132617095 783.7183131430577 L 893.1707884646971 783.7445468808696 L 892.9388949214213 783.7697336095982 L 892.7064558210432 783.7938708105917 L 892.4734944072791 783.81695607015 L 892.2400339760761 783.8389870797664 L 892.0060978732831 783.8599616363584 L 891.7717094923152 783.8798776424878 L 891.5368922718152 783.8987331065705 L 891.3016696933096 783.9165261430758 L 891.0660652788599 783.933254972715 L 890.8301025887116 783.9489179226189 L 890.593805218937 783.9635134265056 L 890.357196799076 783.977040024837 L 890.1203009897733 783.9894963649646 L 889.8831414804129 784.0008812012645 L 889.6457419867477 784.0111933952627 L 889.4081262485292 784.0204319157484 L 889.1703180271336 784.0285958388773 L 888.9323411031845 784.0356843482638 L 888.6942192741761 784.0416967350628 L 888.455976352093 784.0466323980409 L 888.2176361610286 784.0504908436357 L 887.9792225348036 784.0532716860058 L 887.7407593145819 784.0549746470695 L 887.5022703464867 784.0555995565319 L 887.2637794792162 784.0551463519026 L 887.0253105616583 784.0536150785019 L 886.7868874405061 784.0510058894557 L 886.5485339578731 784.0473190456808 L 886.3102739489087 784.0425549158583 L 886.0721312394155 784.0367139763974 L 885.8341296434659 784.0297968113872 L 885.596292961021 784.0218041125383 L 885.3586449755511 784.0127366791141 L 885.1212094516566 784.0025954178502 L 884.8840101326919 783.9913813428644 L 884.6470707383914 783.9790955755549 L 884.4104149624972 783.965739344488 L 884.1740664703893 783.9513139852759 L 883.9380488967203 783.9358209404423 L 883.7023858430507 783.9192617592789 L 883.4671008754896 783.90163809769 L 883.2322175223376 783.882951718027 L 882.9977592717343 783.8632044889123 L 882.7637495693094 783.8423983850525 L 882.530211815838 783.8205354870405 L 882.2971693649012 783.7976179811479 L 882.0646455205494 783.7736481591063 L 881.8326635349736 783.7486284178779 L 881.601246606179 783.7225612594158 L 881.3704178756655 783.6954492904142 L 881.1402004261139 783.6672952220476 L 880.9106172790773 783.6381018696992 L 880.681691392679 783.6078721526799 L 880.453445659317 783.5766090939362 L 880.2259029033744 783.5443158197481 L 879.9990858789371 783.5109955594158 L 879.7730172675186 783.476651644938 L 879.5477196757917 783.4412875106771 L 879.3232156333275 783.4049066930172 L 879.0995275903437 783.3675128300099 L 878.8766779154578 783.3291096610101 L 878.6546888934516 783.2897010263029 L 878.4335827230426 783.2492908667188 L 878.2133815146632 783.2078832232401 L 877.994107288251 783.1654822365966 L 877.7757819710458 783.1220921468519 L 877.5584273953974 783.0777172929785 L 877.3420652965824 783.032362112425 L 877.12671731063 782.9860311406715 L 876.9124049721598 782.9387290107766 L 876.6991497122267 782.890460452914 L 876.4869728561792 782.8412302938992 L 876.2758956215259 782.791043456707 L 876.0659391158146 782.7399049599794 L 875.8571243345207 782.6878199175234 L 875.6494721589484 782.6347935377999 L 875.4430033541422 782.5808311234026 L 875.2377385668105 782.525938070528 L 875.0336983232611 782.4701198684356 L 874.8309030273481 782.4133820988993 L 874.6293729584323 782.3557304356485 L 874.4291282693526 782.2971706438017 L 874.230188984411 782.2377085792891 L 874.0325749973703 782.1773501882677 L 873.8363060694644 782.1161015065263 L 873.6414018274226 782.053968658882 L 873.4478817615067 781.9909578585679 L 873.2557652235619 781.9270754066114 L 873.0650714250821 781.8623276912044 L 872.8758194352881 781.7967211870647 L 872.6880281792212 781.7302624547879 L 872.5017164358505 781.6629581401918 L 872.3169028361951 781.5948149736519 L 872.1336058614611 781.525839769428 L 871.9518438411928 781.456039424983 L 871.7716349514413 781.3854209202933 L 871.5929972129451 781.3139913171505 L 871.4159484893291 781.2417577584552 L 871.2405064853183 781.1687274675032 L 871.0666887449669 781.0949077472629 L 870.894512649904 781.0203059796446 L 870.7239954175956 780.944929624763 L 870.555154099623 780.8687862201906 L 870.3880055799771 780.7918833802046 L 870.2225665733707 780.7142287950248 L 870.0588536235665 780.6358302300451 L 869.8968831017232 780.5566955250567 L 869.736671204758 780.476832593464 L 869.5782339537268 780.3962494214936 L 869.421587192223 780.3149540673958 L 869.2667465847921 780.2329546606379 L 869.1137276153659 780.1502594010925 L 868.9625455857135 780.0668765582167 L 868.8132156139122 779.982814470225 L 868.6657526328347 779.8980815432564 L 868.5201713886562 779.8126862505329 L 868.3764864393797 779.7266371315126 L 868.2347121533805 779.6399427910358 L 868.0948627079691 779.5526118984641 L 867.9569520879734 779.4646531868141 L 867.8209940843403 779.3760754518837 L 867.6870022927573 779.2868875513725 L 867.5549901122915 779.1970984039964 L 867.4249707440512 779.106716988595 L 867.2969571898647 779.0157523432348 L 867.1709622509808 778.9242135643045 L 867.0469985267885 778.8321098056056 L 866.9250784135568 778.7394502774372 L 866.8052141031953 778.646244245675 L 866.6874175820354 778.5525010308445 L 866.571700629631 778.4582300071891 L 866.4580748175807 778.3634406017325 L 866.3465515083714 778.2681422933362 L 866.2371418542407 778.1723446117518 L 866.129856796063 778.0760571366676 L 866.0247070622547 777.9792894967508 L 865.9217031677017 777.8820513686846 L 865.8208554127074 777.7843524762011 L 865.7221738819633 777.686202589108 L 865.6256684435403 777.5876115223122 L 865.5313487479019 777.4885891348381 L 865.4392242269389 777.3891453288421 L 865.3493040930267 777.289290048622 L 865.2615973381038 777.1890332796223 L 865.1761127327725 777.0883850474366 L 865.0928588254222 776.9873554168042 L 865.0118439413742 776.885954490604 L 864.9330761820494 776.784192408844 L 864.8565634241581 776.6820793476477 L 864.7823133189123 776.5796255182361 L 864.7103332912608 776.4768411659066 L 864.6406305391461 776.3737365690091 L 864.5732120327856 776.2703220379171 L 864.5080845139736 776.1666079139976 L 864.4452544954077 776.0626045685767 L 864.3847282600375 775.958322401902 L 864.326511860436 775.8537718421036 L 864.2706111181948 775.7489633441501 L 864.2170316233413 775.6439073888039 L 864.1657787337805 775.5386144815733 L 864.1168575747587 775.433095151661 L 864.0702730383508 775.3273599509122 L 864.0260297829719 775.2214194527587 L 863.9841322329105 775.1152842511623 L 863.9445845778868 775.0089649595545 L 863.9073907726331 774.902472209776 L 863.8725545364993 774.7958166510128 L 863.8400793530795 774.6890089487323 L 863.8099684698656 774.5820597836154 L 863.7822248979203 774.4749798504895 L 863.7568514115779 774.3677798572587 L 863.733850548166 774.2604705238331 L 863.7132246077515 774.1530625810566 L 863.6949756529114 774.0455667696339 L 863.6791055085259 773.9379938390566 L 863.6656157615964 773.830354546528 L 863.6545077610862 773.7226596558879 L 863.6457826177862 773.6149199365354 L 863.6394412042032 773.5071461623528 L 863.6354841544736 773.3993491106276 L 863.6339118642989 773.2915395609751 L 863.6347244909068 773.1837282942606 L 863.6379219530354 773.0759260915208 L 863.643503930941 772.9681437328862 L 863.6514698664307 772.8603919965028 L 863.6618189629174 772.7526816574544 L 863.6745501855003 772.6450234866853 L 863.6896622610674 772.5374282499228 L 863.707153678424 772.4299067066008 L 863.7270226884427 772.3224696087841 L 863.7492673042394 772.215127700093 L 863.7738853013709 772.107891714629 L 863.8008742180579 772.000772375901 L 863.8302313554312 771.8937803957539 L 863.8619537778018 771.7869264732963 L 863.8960383129537 771.6802212938316 L 863.9324815524617 771.5736755277887 L 863.9712798520325 771.4672998296555 L 864.0124293318681 771.3611048369132 L 864.0559258770552 771.2551011689725 L 864.1017651379752 771.1492994261118 L 864.1499425307404 771.0437101884174 L 864.2004532376517 770.938344014725 L 864.2532922076803 770.833211441564 L 864.3084541569734 770.7283229821044 L 864.365933569382 770.6236891251044 L 864.4257246970128 770.5193203338629 L 864.4878215608027 770.4152270451716 L 864.5522179511172 770.3114196682731 L 864.618907428371 770.2079085838182 L 864.6878833236718 770.1047041428293 L 864.7591387394876 770.0018166656644 L 864.8326665503363 769.8992564409855 L 864.9084594034979 769.7970337247295 L 864.9865097197503 769.6951587390831 L 865.0668096941271 769.5936416714599 L 865.1493512966974 769.4924926734818 L 865.2341262733702 769.3917218599646 L 865.3211261467181 769.2913393079056 L 865.4103422168265 769.1913550554762 L 865.5017655621626 769.0917791010185 L 865.5953870404682 768.9926214020448 L 865.6911972896731 768.8938918742426 L 865.7891867288328 768.7956003904823 L 865.8893455590846 768.6977567798303 L 865.9916637646292 768.6003708265662 L 866.096131113731 768.5034522692041 L 866.2027371597425 768.4070107995191 L 866.3114712421477 768.3110560615777 L 866.422322487629 768.2155976507737 L 866.5352798111544 768.1206451128687 L 866.6503319170855 768.0262079430374 L 866.7674673003077 767.932295584918 L 866.88667424738 767.8389174296681 L 867.0079408377075 767.7460828150254 L 867.1312549447318 767.653801024374 L 867.2566042371453 767.562081285816 L 867.383976180123 767.470932771249 L 867.5133580365768 767.3803645954483 L 867.6447368684289 767.2903858151561 L 867.7780995379055 767.2010054281754 L 867.9134327088509 767.1122323724707 L 868.0507228480608 767.024075525273 L 868.1899562266356 766.9365437021942 L 868.3311189213534 766.8496456563432 L 868.4741968160625 766.7633900774523 L 868.6191756030927 766.6777855910077 L 868.766040784686 766.5928407573865 L 868.9147776744467 766.5085640710013 L 869.0653713988096 766.4249639594506 L 869.217806898528 766.3420487826756 L 869.3720689301788 766.2598268321254 L 869.5281420676874 766.1783063299262 L 869.6860107038702 766.0974954280603 L 869.8456590519952 766.0174022075505 L 870.0070711473603 765.9380346776522 L 870.1702308488908 765.8594007750522 L 870.3351218407523 765.7815083630754 L 870.5017276339833 765.7043652308979 L 870.670031568143 765.6279790927687 L 870.8400168129783 765.5523575872379 L 871.0116663701066 765.4775082763931 L 871.184963074715 765.4034386451029 L 871.3598895972775 765.3301561002689 L 871.5364284452877 765.2576679700844 L 871.7145619650078 765.1859815033021 L 871.8942723432343 765.1151038685088 L 872.0755416090792 765.0450421534089 L 872.2583516357669 764.9758033641157 L 872.4426841424471 764.9073944244502 L 872.6285206960229 764.8398221752497 L 872.8158427129935 764.7730933736824 L 873.0046314613134 764.7072146925732 L 873.1948680622652 764.642192719735 L 873.3865334923473 764.5780339573113 L 873.5796085851764 764.5147448211244 L 873.7740740334041 764.4523316400355 L 873.9699103906477 764.3908006553106 L 874.1670980734344 764.330158019997 L 874.3656173631607 764.2704097983076 L 874.5654484080627 764.2115619650147 L 874.7665712252025 764.1536204048527 L 874.9689657024661 764.0965909119293 L 875.1726116005744 764.0404791891464 L 875.3774885551072 763.9852908476292 L 875.5835760785399 763.9310314061662 L 875.7908535622918 763.8777062906561 L 875.9993002787872 763.8253208335661 L 876.2088953835284 763.7738802733984 L 876.4196179171794 763.7233897541659 L 876.6314468076624 763.6738543248784 L 876.844360872265 763.6252789390379 L 877.0583388197582 763.5776684541423 L 877.2733592525254 763.5310276312003 L 877.4894006687026 763.4853611342556 L 877.7064414643281 763.4406735299196 L 877.9244599355035 763.3969692869156 L 878.143434280563 763.3542527756315 L 878.3633426022548 763.3125282676826 L 878.58416290993 763.2717999354853 L 878.8058731217417 763.2320718518387 L 879.0284510668536 763.1933479895181 L 879.2518744876566 763.1556322208772 L 879.4761210419947 763.1189283174618 L 879.7011683053996 763.0832399496315 L 879.9269937733324 763.0485706861934 L 880.1535748634344 763.0149239940448 L 880.3808889177856 762.9823032378271 L 880.6089132051696 762.9507116795885 L 880.8376249233481 762.9201524784586 L 881.0670012013397 762.8906286903322 L 881.2970191017079 762.8621432675633 L 881.527655622854 762.8346990586705 L 881.7588877013184 762.8082988080517 L 881.9906922140857 762.7829451557103 L 882.2230459808981 762.7586406369901 L 882.4559257665722 762.7353876823228 L 882.6893082833238 762.7131886169846 L 882.9231701930956 762.6920456608633 L 883.1574881098915 762.6719609282371 L 883.392238602115 762.6529364275625 L 883.6273981949125 762.6349740612736 L 883.8629433725209 762.6180756255922 L 884.0988505806185 762.6022428103477 L 884.3350962286813 762.5874771988084 L 884.5716566923411 762.5737802675231 L 884.8085083157489 762.5611533861738 L 885.0456274139395 762.5495978174379 L 885.282990275201 762.5391147168626 L 885.5205731634447 762.5297051327493 L 885.75835232058 762.5213700060486 L 885.9963039688894 762.5141101702662 L 886.2344043134061 762.5079263513795 L 886.4726295442943 762.5028191677656 L 886.7109558392293 762.4987891301381 L 886.9493593657803 762.4958366414977 L 887.1878162837932 762.4939619970909 L 887.426302747775 762.4931653843803 L 887.664794909278 762.4934468830266 L 887.9032689192849 762.4948064648804 L 888.1417009305933 762.4972439939843 L 888.3800671002008 762.5007592265877 L 888.618343591689 762.5053518111702 L 888.8565065776075 762.511021288477 L 889.0945322418561 762.5177670915652 L 889.3323967820666 762.5255885458602 L 889.5700764119832 762.534484869223 L 889.8075473638413 762.5444551720286 L 890.0447858907432 762.5554984572553 L 890.2817682690342 762.5676136205835 L 890.5184708006738 762.5807994505071 L 890.7548698156061 762.595054628454 L 890.9909416741267 762.6103777289185 L 891.2266627692463 762.626767219603 L 891.462009529052 762.6442214615724 L 891.6969584190639 762.6627387094169 L 891.9314859445886 762.682317111427 L 892.1655686530694 762.7029547097791 L 892.3991831364301 762.7246494407304 L 892.6323060334172 762.7473991348259 L 892.8649140319353 762.7712015171152 L 893.0969838713784 762.7960542073798 L 893.3284923449559 762.8219547203715 L 893.5594163020133 762.8489004660605 L 893.7897326503476 762.8768887498949 L 894.0194183585155 762.9059167730693 L 894.2484504581379 762.9359816328057 L 894.4768060461955 762.9670803226433 L 894.70446228732 762.9992097327389 L 894.9313964160767 763.0323666501783 L 895.1575857392421 763.0665477592976 L 895.3830076380724 763.1017496420139 L 895.6076395705653 763.1379687781687 L 895.831459073715 763.1752015458784 L 896.0544437657576 763.2134442218971 L 896.2765713484096 763.2526929819894 L 896.4978196090981 763.2929439013118 L 896.7181664231812 763.3341929548059 L 896.9375897561611 763.3764360176008 L 897.1560676658875 763.4196688654253 L 897.3735783047514 763.4638871750308 L 897.5900999218702 763.5090865246231 L 897.8056108652626 763.5552623943048 L 898.0200895840138 763.6024101665276 L 898.2335146304308 763.6505251265536 L 898.4458646621868 763.6996024629267 L 898.6571184444555 763.7496372679543 L 898.8672548520346 763.8006245381976 L 899.0762528714587 763.8525591749719 L 899.2840916030999 763.9054359848569 L 899.4907502632582 763.9592496802157 L 899.6962081862399 764.0139948797238 L 899.9004448264238 764.0696661089064 L 900.1034397603162 764.1262578006874 L 900.3051726885927 764.1837642959446 L 900.5056234381289 764.2421798440763 L 900.7047719640165 764.3014986035766 L 900.902598351569 764.3617146426188 L 901.0990828183127 764.4228219396493 L 901.2942057159645 764.4848143839893 L 901.4879475323972 764.547685776446 L 901.6802888935906 764.6114298299324 L 901.8712105655691 764.6760401700965 L 902.0606934563242 764.741510335958 L 902.2487186177251 764.8078337805549 L 902.4352672474122 764.875003871598 L 902.6203206906779 764.9430138921342 L 902.8038604423322 765.0118570412181 L 902.9858681485529 765.0815264345922 L 903.166325608721 765.1520151053752 L 903.3452147772408 765.2233160047588 L 903.5225177653446 765.2954220027123 L 903.6982168428814 765.3683258886962 L 903.8722944400897 765.4420203723826 L 904.044733149355 765.5164980843844 L 904.21551572695 765.5917515769926 L 904.3846250947593 765.6677733249206 L 904.5520443419869 765.7445557260571 L 904.7177567268477 765.8220911022258 L 904.8817456782414 765.9003716999539 L 905.0439947974094 765.9793896912466 L 905.204487859575 766.0591371743707 L 905.3632088155658 766.1396061746444 L 905.5201417934184 766.2207886452348 L 905.6752710999657 766.3026764679623 L 905.8285812224066 766.3852614541131 L 905.9800568298563 766.4685353452571 L 906.1296827748804 766.5524898140749 L 906.2774440950092 766.6371164651894 L 906.4233260142337 766.722406836006 L 906.5673139444835 766.8083523975588 L 906.7093934870858 766.8949445553632 L 906.8495504342045 766.9821746502755 L 906.9877707702617 767.0700339593591 L 907.1240406733391 767.1585136967561 L 907.2583465165599 767.2476050145667 L 907.3906748694517 767.3372990037332 L 907.5210124992893 767.4275866949314 L 907.6493463724187 767.5184590594675 L 907.7756636555594 767.6099070101809 L 907.899951717088 767.7019214023526 L 908.0221981283024 767.7944930346199 L 908.1423906646631 767.887612649897 L 908.2605173070168 767.9812709362999 L 908.3765662427975 768.0754585280779 L 908.4905258672084 768.1701660065503 L 908.602384784382 768.2653839010484 L 908.7121318085199 768.3611026898618 L 908.819755965011 768.4573128011916 L 908.9252464915295 768.5540046141068 L 909.0285928391105 768.6511684595066 L 909.1297846732054 768.7487946210875 L 909.2288118747153 768.8468733363147 L 909.3256645410023 768.9453947973984 L 909.4203329868807 769.0443491522745 L 909.5128077455846 769.1437265055902 L 909.6030795697154 769.2435169196928 L 909.6911394321658 769.3437104156241 L 909.7769785270228 769.444296974118 L 909.8605882704488 769.5452665366023 L 909.9419603015388 769.6466090062053 L 910.0210864831577 769.748314248764 L 910.0979589027531 769.8503720938393 L 910.1725698731473 769.9527723357315 L 910.2449119333053 770.0555047345019 L 910.3149778490815 770.1585590169963 L 910.3827606139425 770.2619248778719 L 910.4482534496685 770.3655919806292 L 910.5114498070304 770.4695499586442 L 910.5723433664451 770.5737884162056 L 910.6309280386075 770.6782969295547 L 910.6871979650991 770.783065047927 L 910.7411475189743 770.8880822945982 L 910.7927713053226 770.9933381679311 L 910.8420641618083 771.098822142426 L 910.8890211591869 771.2045236697735 L 910.9336376017977 771.3104321799087 L 910.9759090280338 771.416537082069 L 911.0158312107876 771.5228277658528 L 911.0534001578743 771.6292936022799 L 911.0886121124303 771.7359239448556 L 911.1214635532897 771.8427081306345 L 911.1519511953355 771.9496354812869 L 911.1800719898292 772.056695304167 L 911.2058231247146 772.1638768933817 L 911.2292020248998 772.2711695308612 L 911.250206352514 772.3785624874314 L 911.2688340071423 772.486045023886 L 911.2850831260346 772.5936063920611 L 911.2989520842925 772.7012358359093 L 911.3104394950318 772.808922592576 L 911.3195442095209 772.9166558934753 L 911.3262653172961 773.0244249653667 L 911.3306021462521 773.1322190314331 L 911.3325542627097 773.2400273123576 M 911.3326752527656 807.5782957269181 L 911.331482792862 807.6861062718348 L 911.3279055323959 807.7939060357867 L 911.3219438290906 807.9016842388875 L 911.3135982791113 808.0094301034065 L 911.302869717006 808.1171328548472 L 911.2897592156222 808.2247817230241 L 911.274268085999 808.3323659431402 L 911.2563978772364 808.439874756863 L 911.2361503763403 808.5472974134008 L 911.2135276080442 808.6546231705775 L 911.1885318346058 808.7618412959066 L 911.1611655555818 808.8689410676652 L 911.1314315075772 808.9759117759653 L 911.0993326639721 809.0827427238252 L 911.064872234624 809.189423228239 L 911.0280536655472 809.2959426212453 L 910.9888806385678 809.4022902509935 L 910.9473570709561 809.5084554828094 L 910.9034871150341 809.614427700258 L 910.8572751577607 809.7201963062062 L 910.8087258202934 809.8257507238814 L 910.7578439575253 809.9310803979296 L 910.7046346576004 810.0361747954714 L 910.6491032414042 810.1410234071546 L 910.5912552620322 810.2456157482055 L 910.531096504234 810.3499413594769 L 910.4686329838354 810.4539898084947 L 910.4038709471362 810.5577506905008 L 910.3368168702862 810.6612136294935 L 910.2674774586372 810.764368279265 L 910.1958596460726 810.8672043244362 L 910.1219705943139 810.9697114814885 L 910.0458176922049 811.0718794997915 L 909.967408554972 811.1736981626285 L 909.886751023464 811.2751572882181 L 909.8038531633665 811.3762467307322 L 909.7187232643967 811.476956381311 L 909.6313698394732 811.5772761690731 L 909.541801623866 811.6771960621236 L 909.450027574322 811.7767060685562 L 909.3560568681696 811.8757962374534 L 909.259898902401 811.9744566598807 L 909.1615632927329 812.0726774698782 L 909.0610598726441 812.1704488454467 L 908.958398692393 812.2677610095301 L 908.8535900180119 812.3646042309931 L 908.746644330281 812.4609688255944 L 908.63757232368 812.5568451569546 L 908.5263849053188 812.6522236375206 L 908.4130931938462 812.7470947295238 L 908.2977085183393 812.8414489459341 L 908.1802424171692 812.9352768514084 L 908.0607066368483 813.0285690632344 L 907.939113130855 813.1213162522686 L 907.8154740584387 813.2135091438695 L 907.6898017834033 813.3051385188246 L 907.5621088728718 813.3961952142729 L 907.4324080960288 813.4866701246208 L 907.3007124228438 813.5765542024525 L 907.1670350227746 813.6658384594351 L 907.0313892634497 813.7545139672175 L 906.8937887093318 813.8425718583226 L 906.7542471203619 813.9300033270348 L 906.6127784505826 814.0167996302802 L 906.4693968467428 814.1029520885005 L 906.3241166468837 814.1884520865218 L 906.1769523789038 814.2732910744157 L 906.0279187591077 814.357460568354 L 905.8770306907328 814.4409521514574 L 905.7243032624605 814.5237574746373 L 905.5697517469061 814.6058682574301 L 905.4133915990927 814.6872762888263 L 905.2552384549044 814.7679734280904 L 905.0953081295241 814.8479516055758 L 904.933616615851 814.9272028235312 L 904.7701800829017 815.0057191569011 L 904.6050148741931 815.0834927541175 L 904.4381375061088 815.1605158378856 L 904.2695646662463 815.236780705961 L 904.0993132117492 815.3122797319205 L 903.927400167621 815.3870053659246 L 903.753842725023 815.4609501354719 L 903.5786582395547 815.5341066461473 L 903.4018642295187 815.6064675823604 L 903.2234783741686 815.6780257080783 L 903.0435185119413 815.7487738675478 L 902.8620026386733 815.8187049860119 L 902.6789489058003 815.8878120704171 L 902.4943756185434 815.9560882101125 L 902.3083012340771 816.023526577541 L 902.1207443596852 816.0901204289222 L 901.9317237508985 816.1558631049263 L 901.7412583096207 816.2207480313406 L 901.5493670822368 816.2847687197265 L 901.35606925771 816.3479187680684 L 901.1613841656615 816.4101918614142 L 900.9653312744383 816.4715817725065 L 900.7679301891661 816.5320823624053 L 900.5692006497891 816.591687581102 L 900.3691625290953 816.6503914681243 L 900.1678358307304 816.7081881531326 L 899.9652406871963 816.7650718565066 L 899.7613973578385 816.8210368899231 L 899.5563262268203 816.8760776569256 L 899.3500478010835 816.9301886534834 L 899.1425827082992 816.9833644685416 L 898.9339516948035 817.0355997845631 L 898.724175623524 817.08688937806 L 898.513275471893 817.1372281201157 L 898.30127232975 817.1866109768976 L 898.0881873972323 817.2350330101615 L 897.874041982656 817.2824893777444 L 897.6588575003836 817.3289753340489 L 897.4426554686844 817.3744862305183 L 897.2254575075813 817.4190175161008 L 897.0072853366893 817.462564737705 L 896.7881607730437 817.5051235406448 L 896.5681057289183 817.5466896690757 L 896.3471422096343 817.5872589664194 L 896.1252923113593 817.6268273757798 L 895.9025782188983 817.6653909403492 L 895.6790222034748 817.702945803803 L 895.4546466205044 817.7394882106864 L 895.229473907358 817.775014506789 L 895.0035265811197 817.8095211395108 L 894.7768272363335 817.8430046582175 L 894.549398542745 817.8754617145848 L 894.3212632430342 817.9068890629344 L 894.0924441505409 817.9372835605575 L 893.8629641469836 817.9666421680296 L 893.6328461801716 817.9949619495146 L 893.4021132617095 818.0222400730578 L 893.1707884646971 818.0484738108697 L 892.9388949214213 818.0736605395983 L 892.7064558210432 818.0977977405918 L 892.4734944072791 818.1208830001501 L 892.2400339760761 818.1429140097665 L 892.0060978732831 818.1638885663585 L 891.7717094923152 818.1838045724879 L 891.5368922718152 818.2026600365706 L 891.3016696933096 818.2204530730759 L 891.0660652788599 818.2371819027151 L 890.8301025887116 818.252844852619 L 890.593805218937 818.2674403565057 L 890.357196799076 818.2809669548371 L 890.1203009897733 818.2934232949647 L 889.8831414804129 818.3048081312646 L 889.6457419867477 818.3151203252628 L 889.4081262485292 818.3243588457485 L 889.1703180271336 818.3325227688774 L 888.9323411031845 818.3396112782639 L 888.6942192741761 818.3456236650629 L 888.455976352093 818.350559328041 L 888.2176361610286 818.3544177736358 L 887.9792225348036 818.3571986160059 L 887.7407593145819 818.3589015770696 L 887.5022703464867 818.359526486532 L 887.2637794792162 818.3590732819027 L 887.0253105616583 818.357542008502 L 886.7868874405061 818.3549328194558 L 886.5485339578731 818.3512459756807 L 886.3102739489087 818.3464818458584 L 886.0721312394155 818.3406409063975 L 885.8341296434659 818.3337237413873 L 885.596292961021 818.3257310425385 L 885.3586449755511 818.3166636091142 L 885.1212094516566 818.3065223478503 L 884.8840101326919 818.2953082728645 L 884.6470707383914 818.283022505555 L 884.4104149624972 818.2696662744881 L 884.1740664703893 818.255240915276 L 883.9380488967203 818.2397478704424 L 883.7023858430507 818.223188689279 L 883.4671008754896 818.2055650276901 L 883.2322175223376 818.1868786480271 L 882.9977592717343 818.1671314189124 L 882.7637495693094 818.1463253150526 L 882.530211815838 818.1244624170406 L 882.2971693649012 818.101544911148 L 882.0646455205494 818.0775750891064 L 881.8326635349736 818.052555347878 L 881.601246606179 818.0264881894159 L 881.3704178756655 817.9993762204143 L 881.1402004261139 817.9712221520477 L 880.9106172790773 817.9420287996993 L 880.681691392679 817.91179908268 L 880.453445659317 817.8805360239363 L 880.2259029033744 817.8482427497482 L 879.9990858789371 817.814922489416 L 879.7730172675186 817.7805785749381 L 879.5477196757917 817.7452144406772 L 879.3232156333275 817.7088336230173 L 879.0995275903437 817.67143976001 L 878.8766779154578 817.6330365910102 L 878.6546888934516 817.593627956303 L 878.4335827230426 817.5532177967189 L 878.2133815146632 817.5118101532402 L 877.994107288251 817.4694091665967 L 877.7757819710458 817.426019076852 L 877.5584273953974 817.3816442229786 L 877.3420652965824 817.336289042425 L 877.12671731063 817.2899580706716 L 876.9124049721598 817.2426559407767 L 876.6991497122267 817.1943873829141 L 876.4869728561792 817.1451572238993 L 876.2758956215259 817.0949703867071 L 876.0659391158146 817.0438318899795 L 875.8571243345207 816.9917468475235 L 875.6494721589484 816.9387204678 L 875.4430033541422 816.8847580534027 L 875.2377385668105 816.8298650005281 L 875.0336983232611 816.7740467984357 L 874.8309030273481 816.7173090288994 L 874.6293729584323 816.6596573656486 L 874.4291282693526 816.6010975738018 L 874.230188984411 816.5416355092892 L 874.0325749973703 816.4812771182678 L 873.8363060694644 816.4200284365264 L 873.6414018274226 816.3578955888821 L 873.4478817615067 816.294884788568 L 873.2557652235619 816.2310023366115 L 873.0650714250821 816.1662546212045 L 872.8758194352881 816.1006481170648 L 872.6880281792212 816.034189384788 L 872.5017164358505 815.9668850701919 L 872.3169028361951 815.898741903652 L 872.1336058614611 815.8297666994281 L 871.9518438411928 815.7599663549831 L 871.7716349514413 815.6893478502934 L 871.5929972129451 815.6179182471506 L 871.4159484893291 815.5456846884553 L 871.2405064853183 815.4726543975033 L 871.0666887449669 815.398834677263 L 870.894512649904 815.3242329096447 L 870.7239954175956 815.248856554763 L 870.555154099623 815.1727131501907 L 870.3880055799771 815.0958103102047 L 870.2225665733707 815.0181557250249 L 870.0588536235665 814.9397571600452 L 869.8968831017232 814.8606224550568 L 869.736671204758 814.7807595234641 L 869.5782339537268 814.7001763514937 L 869.421587192223 814.6188809973959 L 869.2667465847921 814.536881590638 L 869.1137276153659 814.4541863310926 L 868.9625455857135 814.3708034882168 L 868.8132156139122 814.2867414002251 L 868.6657526328347 814.2020084732565 L 868.5201713886562 814.116613180533 L 868.3764864393797 814.0305640615127 L 868.2347121533805 813.9438697210359 L 868.0948627079691 813.8565388284642 L 867.9569520879734 813.7685801168142 L 867.8209940843403 813.6800023818838 L 867.6870022927573 813.5908144813726 L 867.5549901122915 813.5010253339965 L 867.4249707440512 813.4106439185952 L 867.2969571898647 813.3196792732349 L 867.1709622509808 813.2281404943046 L 867.0469985267885 813.1360367356057 L 866.9250784135568 813.0433772074373 L 866.8052141031953 812.9501711756751 L 866.6874175820354 812.8564279608446 L 866.571700629631 812.7621569371892 L 866.4580748175807 812.6673675317326 L 866.3465515083714 812.5720692233363 L 866.2371418542407 812.4762715417519 L 866.129856796063 812.3799840666677 L 866.0247070622547 812.2832164267509 L 865.9217031677017 812.1859782986847 L 865.8208554127074 812.0882794062012 L 865.7221738819633 811.9901295191081 L 865.6256684435403 811.8915384523123 L 865.5313487479019 811.7925160648382 L 865.4392242269389 811.6930722588422 L 865.3493040930267 811.5932169786221 L 865.2615973381038 811.4929602096224 L 865.1761127327725 811.3923119774367 L 865.0928588254222 811.2912823468043 L 865.0118439413742 811.1898814206041 L 864.9330761820494 811.0881193388441 L 864.8565634241581 810.9860062776478 L 864.7823133189123 810.8835524482362 L 864.7103332912608 810.7807680959068 L 864.6406305391461 810.6776634990092 L 864.5732120327856 810.5742489679172 L 864.5080845139736 810.4705348439977 L 864.4452544954077 810.3665314985768 L 864.3847282600375 810.2622493319021 L 864.326511860436 810.1576987721037 L 864.2706111181948 810.0528902741502 L 864.2170316233413 809.947834318804 L 864.1657787337805 809.8425414115734 L 864.1168575747587 809.737022081661 L 864.0702730383508 809.6312868809123 L 864.0260297829719 809.5253463827588 L 863.9841322329105 809.4192111811624 L 863.9445845778868 809.3128918895546 L 863.9073907726331 809.2063991397761 L 863.8725545364993 809.099743581013 L 863.8400793530795 808.9929358787324 L 863.8099684698656 808.8859867136155 L 863.7822248979203 808.7789067804896 L 863.7568514115779 808.6717067872588 L 863.733850548166 808.5643974538332 L 863.7132246077515 808.4569895110567 L 863.6949756529114 808.349493699634 L 863.6791055085259 808.2419207690567 L 863.6656157615964 808.1342814765281 L 863.6545077610862 808.026586585888 L 863.6457826177862 807.9188468665355 L 863.6394412042032 807.8110730923529 L 863.6354841544736 807.7032760406277 L 863.6339118642989 807.5954664909752" stroke-miterlimit="10" stroke-width="2.7769845610000004" stroke-dasharray=""/></g><g><g/><text fill="black" stroke="none" font-family="sans-serif" font-size="11pt" font-style="normal" font-weight="normal" text-decoration="normal" x="856.1053334884766" y="756.008058908818" text-anchor="start" dominant-baseline="alphabetic" xml:space="preserve">Database</text></g></g><g><path fill="white" stroke="black" paint-order="fill stroke markers" d=" M 73.50841485 182.64242307881818 L 89.84361814999998 182.64242307881818 L 89.84361814999998 682.499644058818 L 73.50841485 682.499644058818 L 73.50841485 182.64242307881818" stroke-miterlimit="10" stroke-width="1.3612669416666667" stroke-dasharray=""/><path fill="white" stroke="black" paint-order="fill stroke markers" d=" M 340.3904731495443 182.64242307881818 L 356.72567644954427 182.64242307881818 L 356.72567644954427 682.499644058818 L 340.3904731495443 682.499644058818 L 340.3904731495443 182.64242307881818" stroke-miterlimit="10" stroke-width="1.3612669416666667" stroke-dasharray=""/><path fill="white" stroke="black" paint-order="fill stroke markers" d=" M 621.1379794471354 228.3809923188182 L 637.4731827471355 228.3809923188182 L 637.4731827471355 682.499644058818 L 621.1379794471354 682.499644058818 L 621.1379794471354 228.3809923188182" stroke-miterlimit="10" stroke-width="1.3612669416666667" stroke-dasharray=""/><path fill="white" stroke="black" paint-order="fill stroke markers" d=" M 879.3156767847656 295.3553258488182 L 895.6508800847657 295.3553258488182 L 895.6508800847657 386.8324643288182 L 879.3156767847656 386.8324643288182 L 879.3156767847656 295.3553258488182" stroke-miterlimit="10" stroke-width="1.3612669416666667" stroke-dasharray=""/><g><text fill="black" stroke="none" font-family="sans-serif" font-size="16pt" font-style="normal" font-weight="normal" text-decoration="normal" x="371.5301818847656" y="24.651306798181814" text-anchor="start" dominant-baseline="alphabetic" xml:space="preserve">Xemchititdchv</text></g><g><rect fill="white" stroke="none" x="116.92234987156901" y="161.4066587888182" width="196.38939155640625" height="21.23576429"/><text fill="black" stroke="none" font-family="sans-serif" font-size="11pt" font-style="normal" font-weight="normal" text-decoration="normal" x="119.37263036656901" y="176.10834175881817" text-anchor="start" dominant-baseline="alphabetic" xml:space="preserve">Chndchvcnxemchitit</text></g><g><path fill="none" stroke="black" paint-order="fill stroke markers" d=" M 89.84361814999998 182.64242307881818 L 326.9411557658776 182.64242307881818" stroke-miterlimit="10" stroke-width="1.3612669416666667" stroke-dasharray=""/><g transform="translate(340.3904731495443,182.64242307881818) translate(-340.3904731495443,-182.64242307881818)"><path fill="black" stroke="none" paint-order="stroke fill markers" d=" M 326.7778037328776 175.83608837048484 L 340.3904731495443 182.64242307881818 L 326.7778037328776 189.44875778715152 Z"/></g></g><g><rect fill="white" stroke="none" x="409.87813101046873" y="207.1452280288182" width="158.1073938757422" height="21.23576429"/><text fill="black" stroke="none" font-family="sans-serif" font-size="11pt" font-style="normal" font-weight="normal" text-decoration="normal" x="412.32841150546875" y="221.84691099881817" text-anchor="start" dominant-baseline="alphabetic" xml:space="preserve">GiIDdchvcnxem</text></g><g><path fill="none" stroke="black" paint-order="fill stroke markers" d=" M 356.72567644954427 228.3809923188182 L 607.6886620634688 228.3809923188182" stroke-miterlimit="10" stroke-width="1.3612669416666667" stroke-dasharray=""/><g transform="translate(621.1379794471354,228.3809923188182) translate(-621.1379794471354,-228.3809923188182)"><path fill="black" stroke="none" paint-order="stroke fill markers" d=" M 607.5253100304687 221.57465761048485 L 621.1379794471354 228.3809923188182 L 607.5253100304687 235.18732702715153 Z"/></g></g><g><rect fill="white" stroke="none" x="656.8031733188022" y="252.88379726881823" width="103.49751533570313" height="21.23576429"/><text fill="black" stroke="none" font-family="sans-serif" font-size="11pt" font-style="normal" font-weight="normal" text-decoration="normal" x="659.2534538138023" y="267.5854802388182" text-anchor="start" dominant-baseline="alphabetic" xml:space="preserve">Kimtraquyn</text></g><g><path fill="none" stroke="black" paint-order="fill stroke markers" d=" M 637.4731827471355 274.1195615588182 L 702.8139959471355 274.1195615588182 L 702.8139959471355 295.3553258488182 L 650.9225001308022 295.3553258488182" stroke-miterlimit="10" stroke-width="1.3612669416666667" stroke-dasharray=""/><g transform="translate(637.4731827471355,295.3553258488182) translate(-637.4731827471355,-295.3553258488182)"><path fill="black" stroke="none" paint-order="stroke fill markers" d=" M 651.0858521638022 288.5489911404849 L 637.4731827471355 295.3553258488182 L 651.0858521638022 302.16166055715155 Z"/></g></g><g><rect fill="white" stroke="none" x="679.2190592440951" y="319.8581307988182" width="158.35074104371094" height="21.23576429"/><text fill="black" stroke="none" font-family="sans-serif" font-size="11pt" font-style="normal" font-weight="normal" text-decoration="normal" x="681.6693397390951" y="334.5598137688182" text-anchor="start" dominant-baseline="alphabetic" xml:space="preserve">Truyvnchititdchv</text></g><g><path fill="none" stroke="black" paint-order="fill stroke markers" d=" M 637.4731827471355 341.0938950888182 L 865.866359401099 341.0938950888182" stroke-miterlimit="10" stroke-width="1.3612669416666667" stroke-dasharray=""/><g transform="translate(879.3156767847656,341.0938950888182) translate(-879.3156767847656,-341.0938950888182)"><path fill="black" stroke="none" paint-order="stroke fill markers" d=" M 865.703007368099 334.2875603804849 L 879.3156767847656 341.0938950888182 L 865.703007368099 347.90022979715155 Z"/></g></g><g><rect fill="white" stroke="none" x="656.8031733188021" y="365.5967000388182" width="203.18251289429688" height="21.23576429"/><text fill="black" stroke="none" font-family="sans-serif" font-size="11pt" font-style="normal" font-weight="normal" text-decoration="normal" x="659.2534538138021" y="380.2983830088182" text-anchor="start" dominant-baseline="alphabetic" xml:space="preserve">Trvthngtinchititdchv</text></g><g><path fill="none" stroke="black" paint-order="fill stroke markers" d=" M 879.3156767847656 386.8324643288182 L 650.9225001308022 386.8324643288182" stroke-miterlimit="10" stroke-width="1.3612669416666667" stroke-dasharray="6.53408132"/><g transform="translate(637.4731827471355,386.8324643288182) translate(-637.4731827471355,-386.8324643288182)"><path fill="black" stroke="none" paint-order="stroke fill markers" d=" M 651.0858521638022 380.0261296204849 L 637.4731827471355 386.8324643288182 L 651.0858521638022 393.63879903715156 Z"/></g></g><g><rect fill="white" stroke="none" x="395.60470113986327" y="455.4403181888182" width="186.65425361695313" height="21.23576429"/><text fill="black" stroke="none" font-family="sans-serif" font-size="11pt" font-style="normal" font-weight="normal" text-decoration="normal" x="398.0549816348633" y="470.1420011588182" text-anchor="start" dominant-baseline="alphabetic" xml:space="preserve">Githngtinchititdchv</text></g><g><path fill="none" stroke="black" paint-order="fill stroke markers" d=" M 621.1379794471354 476.6760824788182 L 370.1749938332109 476.6760824788182" stroke-miterlimit="10" stroke-width="1.3612669416666667" stroke-dasharray="6.53408132"/><g transform="translate(356.72567644954427,476.6760824788182) translate(-356.72567644954427,-476.6760824788182)"><path fill="black" stroke="none" paint-order="stroke fill markers" d=" M 370.33834586621094 469.8697477704849 L 356.72567644954427 476.6760824788182 L 370.33834586621094 483.48241718715155 Z"/></g></g><g><rect fill="white" stroke="none" x="109.17360872166667" y="501.17888742881814" width="211.88687385621094" height="21.23576429"/><text fill="black" stroke="none" font-family="sans-serif" font-size="11pt" font-style="normal" font-weight="normal" text-decoration="normal" x="111.62388921666667" y="515.8805703988181" text-anchor="start" dominant-baseline="alphabetic" xml:space="preserve">Hinththngtinchititdchv</text></g><g><path fill="none" stroke="black" paint-order="fill stroke markers" d=" M 340.3904731495443 522.4146517188182 L 103.29293553366665 522.4146517188182" stroke-miterlimit="10" stroke-width="1.3612669416666667" stroke-dasharray="6.53408132"/><g transform="translate(89.84361814999998,522.4146517188182) translate(-89.84361814999998,-522.4146517188182)"><path fill="black" stroke="none" paint-order="stroke fill markers" d=" M 103.45628756666665 515.6083170104848 L 89.84361814999998 522.4146517188182 L 103.45628756666665 529.2209864271515 Z"/></g></g><g><rect fill="white" stroke="none" x="376.0556670212109" y="591.022505578818" width="225.75232185425781" height="21.23576429"/><text fill="black" stroke="none" font-family="sans-serif" font-size="11pt" font-style="normal" font-weight="normal" text-decoration="normal" x="378.50594751621094" y="605.724188548818" text-anchor="start" dominant-baseline="alphabetic" xml:space="preserve">Thngbokhngtmthydchv</text></g><g><path fill="none" stroke="black" paint-order="fill stroke markers" d=" M 621.1379794471354 612.258269868818 L 370.1749938332109 612.258269868818" stroke-miterlimit="10" stroke-width="1.3612669416666667" stroke-dasharray="6.53408132"/><g transform="translate(356.72567644954427,612.258269868818) translate(-356.72567644954427,-612.258269868818)"><path fill="black" stroke="none" paint-order="stroke fill markers" d=" M 370.33834586621094 605.4519351604847 L 356.72567644954427 612.258269868818 L 370.33834586621094 619.0646045771514 Z"/></g></g><g><rect fill="white" stroke="none" x="143.7977847470573" y="636.761074818818" width="142.6385218054297" height="21.23576429"/><text fill="black" stroke="none" font-family="sans-serif" font-size="11pt" font-style="normal" font-weight="normal" text-decoration="normal" x="146.2480652420573" y="651.462757788818" text-anchor="start" dominant-baseline="alphabetic" xml:space="preserve">Hinththngboli</text></g><g><path fill="none" stroke="black" paint-order="fill stroke markers" d=" M 340.3904731495443 657.996839108818 L 103.29293553366665 657.996839108818" stroke-miterlimit="10" stroke-width="1.3612669416666667" stroke-dasharray="6.53408132"/><g transform="translate(89.84361814999998,657.996839108818) translate(-89.84361814999998,-657.996839108818)"><path fill="black" stroke="none" paint-order="stroke fill markers" d=" M 103.45628756666665 651.1905044004847 L 89.84361814999998 657.996839108818 L 103.45628756666665 664.8031738171513 Z"/></g></g><g><g/><path fill="none" stroke="black" paint-order="fill stroke markers" d=" M 16.33520329999999 411.3352692788182 L 686.4787926471355 411.3352692788182 L 686.4787926471355 682.499644058818 L 16.33520329999999 682.499644058818 L 16.33520329999999 411.3352692788182 Z" stroke-miterlimit="10" stroke-width="2.3336004714285714" stroke-dasharray=""/><path fill="white" stroke="black" paint-order="fill stroke markers" d=" M 16.33520329999999 411.3352692788182 L 16.33520329999999 430.9375132388182 L 62.6944068970703 430.9375132388182 L 72.4955288770703 421.1363912588182 L 72.4955288770703 411.3352692788182 L 16.33520329999999 411.3352692788182" stroke-miterlimit="10" stroke-width="2.3336004714285714" stroke-dasharray=""/><text fill="black" stroke="none" font-family="sans-serif" font-size="8.8pt" font-style="normal" font-weight="bold" text-decoration="normal" x="32.67040659999999" y="424.4034319188182" text-anchor="start" dominant-baseline="alphabetic" xml:space="preserve">alt</text><g><rect fill="white" stroke="none" x="86.3804516820703" y="412.6420855428182" width="70.73279060425781" height="16.988611432000003"/></g><text fill="black" stroke="none" font-family="sans-serif" font-size="8.8pt" font-style="normal" font-weight="bold" text-decoration="normal" x="88.8307321770703" y="424.4034319188182" text-anchor="start" dominant-baseline="alphabetic" xml:space="preserve">[Cdliu]</text><g><path fill="none" stroke="black" paint-order="fill stroke markers" d=" M 16.33520329999999 546.9174566688181 L 686.4787926471355 546.9174566688181" stroke-miterlimit="10" stroke-width="2.3336004714285714" stroke-dasharray="4.083800825"/></g><g/><g><rect fill="white" stroke="none" x="86.3804516820703" y="548.224272932818" width="109.17599739136719" height="16.988611432000003"/></g><text fill="black" stroke="none" font-family="sans-serif" font-size="8.8pt" font-style="normal" font-weight="bold" text-decoration="normal" x="88.8307321770703" y="559.9856193088181" text-anchor="start" dominant-baseline="alphabetic" xml:space="preserve">[Khngcdliu]</text></g><g/></g><g/><g/><g/><g/></g></svg>