<svg xmlns="http://www.w3.org/2000/svg" xmlns:xlink="http://www.w3.org/1999/xlink" version="1.1" width="1158.063519961133" height="854.8360388738182"><desc>title%20L%E1%BA%A5y%20danh%20s%C3%A1ch%20d%E1%BB%8Bch%20v%E1%BB%A5%20theo%20nh%C3%A0%0A%0Abottomparticipants%0A%0Aactor%20Landlord%0Aentity%20Client%0Aentity%20Backend%0Adatabase%20Database%0A%0Aactivate%20Landlord%0Aactivate%20Client%0A%0ALandlord%20-%3E%20Client%3A%20Ch%E1%BB%8Dn%20nh%C3%A0%20%C4%91%E1%BB%83%20xem%20danh%20s%C3%A1ch%20d%E1%BB%8Bch%20v%E1%BB%A5%0A%0AClient%20--%3E%20Landlord%3A%20Hi%E1%BB%83n%20th%E1%BB%8B%20b%E1%BB%99%20l%E1%BB%8Dc%0A%0ALandlord%20-%3E%20Client%3A%20Nh%E1%BA%ADp%20th%C3%B4ng%20tin%20b%E1%BB%99%20l%E1%BB%8Dc%0A%0Aactivate%20Backend%0AClient%20-%3E%20Backend%3A%20G%E1%BB%ADi%20y%C3%AAu%20c%E1%BA%A7u%20l%E1%BA%A5y%20danh%20s%C3%A1ch%20d%E1%BB%8Bch%20v%E1%BB%A5%20theo%20nh%C3%A0%0A%0Aactivate%20Database%0ABackend%20-%3E%20Database%3A%20Truy%20v%E1%BA%A5n%20danh%20s%C3%A1ch%20d%E1%BB%8Bch%20v%E1%BB%A5%20theo%20nh%C3%A0%0A%0ADatabase%20--%3E%20Backend%3A%20Tr%E1%BA%A3%20v%E1%BB%81%20danh%20s%C3%A1ch%20d%E1%BB%8Bch%20v%E1%BB%A5%0A%0Adeactivate%20Database%0A%0Aalt%20Danh%20s%C3%A1ch%20kh%C3%B4ng%20tr%E1%BB%91ng%0A%20%20Backend%20--%3E%20Client%3A%20Tr%E1%BA%A3%20v%E1%BB%81%20danh%20s%C3%A1ch%20d%E1%BB%8Bch%20v%E1%BB%A5%20%C4%91%C3%A3%20l%E1%BB%8Dc%0A%20%20Client%20--%3E%20Landlord%3A%20Hi%E1%BB%83n%20th%E1%BB%8B%20danh%20s%C3%A1ch%20d%E1%BB%8Bch%20v%E1%BB%A5%20theo%20nh%C3%A0%0Aelse%20Danh%20s%C3%A1ch%20tr%E1%BB%91ng%0A%20%20Backend%20--%3E%20Client%3A%20Tr%E1%BA%A3%20v%E1%BB%81%20th%C3%B4ng%20b%C3%A1o%20danh%20s%C3%A1ch%20tr%E1%BB%91ng%0A%20%20Client%20--%3E%20Landlord%3A%20Hi%E1%BB%83n%20th%E1%BB%8B%20th%C3%B4ng%20b%C3%A1o%20%22Kh%C3%B4ng%20c%C3%B3%20d%E1%BB%8Bch%20v%E1%BB%A5%20cho%20nh%C3%A0%20n%C3%A0y%22%0Aend%0A%0Adeactivate%20Backend%0Adeactivate%20Client%0Adeactivate%20Landlord%0A</desc><defs/><g><g/><g/><g/><g/><g/><g/><g/><g/><g/><g/><g/><g/><g/><g/><g/><g/><g/><g/><g/><g/><g/><g/><g/><g/><g/><g/><g/><g/><g/><g/><g/><g/><g/><g/><g/><g/><g/><g/><g/><g/><g/><g/><g/><g/><g/><g/><g/><g/><g/><g/><g/><g/><g/><g/><g/><g/><g/><g/><g/><g/><g/><g/><g/><g/><g/><g/><g/><g/><g/><g/><g/><g/><g/><g/><g/><g/><g/><g/><g/><g/><g/><g/><g/><g/><g/><g/><g/><g/><g/><g/><g/><g/><g/><g/><g/><g/><g/><g/><g/><g/><g/><g/><g/><g/><g/><g/><g/><g/><g/><g/><g/><g/><g/><g/><g/><g/><g/><g/><g/><g/><g/><g/><g/><g/><g/><g/><g/><g/><g/><g/><g/><g/><g/><g/><g/><g/><g/><g/><g/><g/><g/><g/><g/><g/><g/><g/><g/><g/><g/><g/><g/><g/><g/><g/><g/><g/><g/><g/><g/><g/><g/><g/><g/><g/><g><rect fill="white" stroke="none" x="0" y="0" width="1158" height="854"/></g><g/><g><path fill="none" stroke="black" paint-order="fill stroke markers" d=" M 81.67601649999999 128.73625218881818 L 81.67601649999999 764.1756605588182" stroke-miterlimit="10" stroke-width="1.3612669416666667" stroke-dasharray="12.565541,5.445067766666667"/><path fill="none" stroke="black" paint-order="fill stroke markers" d=" M 471.4714353952474 128.73625218881818 L 471.4714353952474 764.1756605588182" stroke-miterlimit="10" stroke-width="1.3612669416666667" stroke-dasharray="12.565541,5.445067766666667"/><path fill="none" stroke="black" paint-order="fill stroke markers" d=" M 817.4587030453777 128.73625218881818 L 817.4587030453777 764.1756605588182" stroke-miterlimit="10" stroke-width="1.3612669416666667" stroke-dasharray="12.565541,5.445067766666667"/><path fill="none" stroke="black" paint-order="fill stroke markers" d=" M 1117.2255117111329 128.73625218881818 L 1117.2255117111329 764.1756605588182" stroke-miterlimit="10" stroke-width="1.3612669416666667" stroke-dasharray="12.565541,5.445067766666667"/></g><g><g><path fill="white" stroke="black" paint-order="fill stroke markers" d=" M 90.987082381 59.63834222981819 A 9.311065881 9.311065881 0 1 1 90.98707772546743 59.62903116548903 M 81.67601649999999 68.9494081108182 L 81.67601649999999 88.8783561368182 M 69.914670124 76.13689756281819 L 93.43736287599998 76.13689756281819 M 81.67601649999999 88.8783561368182 L 69.914670124 107.50048789881819 M 81.67601649999999 88.8783561368182 L 93.43736287599998 107.50048789881819" stroke-miterlimit="10" stroke-width="2.7769845610000004" stroke-dasharray=""/></g><g><g/><text fill="black" stroke="none" font-family="sans-serif" font-size="11pt" font-style="normal" font-weight="normal" text-decoration="normal" x="53.1470400595703" y="123.83569119881818" text-anchor="start" dominant-baseline="alphabetic" xml:space="preserve">Landlord</text></g><g><path fill="white" stroke="black" paint-order="fill stroke markers" d=" M 495.7292122957474 79.63263106901819 A 24.2577769005 24.2577769005 0 1 1 495.72920016686 79.60837329616064 M 445.8251662142474 106.11199561831819 L 497.1177045762474 106.11199561831819" stroke-miterlimit="10" stroke-width="2.7769845610000004" stroke-dasharray=""/></g><g><g/><text fill="black" stroke="none" font-family="sans-serif" font-size="11pt" font-style="normal" font-weight="normal" text-decoration="normal" x="452.73128494358724" y="123.83569119881818" text-anchor="start" dominant-baseline="alphabetic" xml:space="preserve">Client</text></g><g><path fill="white" stroke="black" paint-order="fill stroke markers" d=" M 841.7164799458776 79.63263106901819 A 24.2577769005 24.2577769005 0 1 1 841.7164678169902 79.60837329616064 M 791.8124338643777 106.11199561831819 L 843.1049722263776 106.11199561831819" stroke-miterlimit="10" stroke-width="2.7769845610000004" stroke-dasharray=""/></g><g><g/><text fill="black" stroke="none" font-family="sans-serif" font-size="11pt" font-style="normal" font-weight="normal" text-decoration="normal" x="788.9333047909831" y="123.83569119881818" text-anchor="start" dominant-baseline="alphabetic" xml:space="preserve">Backend</text></g><g><path fill="white" stroke="black" paint-order="fill stroke markers" d=" M 1093.3761148931328 96.71925372081819 L 1093.3761148931328 62.41532679081819 L 1141.074908529133 62.41532679081819 L 1141.074908529133 96.71925372081819" stroke-miterlimit="10" stroke-width="2.7769845610000004" stroke-dasharray=""/><path fill="white" stroke="black" paint-order="fill stroke markers" d=" M 1141.074908529133 61.22285694991819 L 1141.0737160692292 61.33066749483481 L 1141.0701388087632 61.43846725878678 L 1141.0641771054577 61.546245461887544 L 1141.0558315554786 61.65399132640659 L 1141.0451029933733 61.761694077847274 L 1141.0319924919895 61.86934294602419 L 1141.0165013623662 61.976927166140236 L 1140.9986311536036 62.084435979863045 L 1140.9783836527076 62.19185863640084 L 1140.9557608844113 62.299184393577484 L 1140.930765110973 62.4064025189067 L 1140.903398831949 62.51350229066531 L 1140.8736647839444 62.62047299896537 L 1140.8415659403393 62.7273039468252 L 1140.807105510991 62.83398445123905 L 1140.7702869419143 62.94050384424536 L 1140.7311139149351 63.04685147399361 L 1140.6895903473232 63.15301670580944 L 1140.6457203914013 63.25898892325815 L 1140.599508434128 63.364757529206294 L 1140.5509590966606 63.47031194688142 L 1140.5000772338926 63.575641620929716 L 1140.4468679339675 63.68073601847156 L 1140.3913365177714 63.78558463015478 L 1140.3334885383995 63.89017697120557 L 1140.2733297806012 63.994502582477 L 1140.2108662602025 64.09855103149486 L 1140.1461042235035 64.20231191350096 L 1140.0790501466533 64.3057748524936 L 1140.0097107350043 64.40892950226505 L 1139.9380929224399 64.51176554743633 L 1139.8642038706812 64.61427270448858 L 1139.788050968572 64.71644072279157 L 1139.7096418313392 64.81825938562858 L 1139.6289842998312 64.91971851121816 L 1139.5460864397337 65.02080795373233 L 1139.4609565407638 65.12151760431107 L 1139.3736031158405 65.22183739207324 L 1139.2840349002333 65.32175728512367 L 1139.192260850689 65.42126729155632 L 1139.0982901445368 65.52035746045347 L 1139.0021321787683 65.6190178828808 L 1138.9037965691 65.71723869287828 L 1138.8032931490113 65.81501006844678 L 1138.70063196876 65.91232223253022 L 1138.595823294379 66.00916545399325 L 1138.4888776066482 66.10553004859446 L 1138.3798056000473 66.20140637995469 L 1138.268618181686 66.29678486052069 L 1138.1553264702134 66.39165595252388 L 1138.0399417947065 66.48601016893414 L 1137.9224756935364 66.57983807440844 L 1137.8029399132156 66.67313028623443 L 1137.6813464072222 66.76587747526865 L 1137.5577073348059 66.85807036686953 L 1137.4320350597704 66.94969974182469 L 1137.304342149239 67.04075643727302 L 1137.174641372396 67.13123134762085 L 1137.042945699211 67.22111542545254 L 1136.9092682991418 67.3103996824352 L 1136.7736225398169 67.39907519021754 L 1136.636021985699 67.4871330813227 L 1136.496480396729 67.57456455003492 L 1136.35501172695 67.6613608532802 L 1136.2116301231101 67.74751331150055 L 1136.0663499232508 67.83301330952195 L 1135.9191856552711 67.91785229741582 L 1135.770152035475 68.00202179135408 L 1135.6192639671 68.08551337445749 L 1135.4665365388278 68.1683186976373 L 1135.3119850232733 68.25042948043021 L 1135.1556248754598 68.33183751182635 L 1134.9974717312716 68.41253465109044 L 1134.8375414058914 68.4925128285758 L 1134.6758498922181 68.5717640465313 L 1134.5124133592687 68.65028037990122 L 1134.3472481505603 68.72805397711764 L 1134.180370782476 68.80507706088565 L 1134.0117979426136 68.88134192896105 L 1133.8415464881164 68.95684095492061 L 1133.6696334439882 69.03156658892462 L 1133.4960760013903 69.10551135847197 L 1133.3208915159219 69.17866786914732 L 1133.1440975058858 69.25102880536058 L 1132.9657116505357 69.3225869310784 L 1132.7857517883085 69.39333509054786 L 1132.6042359150404 69.46326620901198 L 1132.4211821821675 69.53237329341717 L 1132.2366088949104 69.60064943311258 L 1132.0505345104443 69.66808780054113 L 1131.8629776360524 69.7346816519223 L 1131.6739570272657 69.80042432792644 L 1131.4834915859878 69.86530925434072 L 1131.291600358604 69.92932994272657 L 1131.0983025340772 69.9924799910685 L 1130.9036174420287 70.05475308441433 L 1130.7075645508055 70.1161429955066 L 1130.5101634655334 70.17664358540536 L 1130.3114339261563 70.23624880410202 L 1130.1113958054625 70.29495269112441 L 1129.9100691070976 70.35274937613272 L 1129.7074739635634 70.40963307950663 L 1129.5036306342058 70.46559811292322 L 1129.2985595031873 70.52063887992576 L 1129.0922810774507 70.57474987648341 L 1128.8848159846664 70.62792569154163 L 1128.6761849711706 70.68016100756323 L 1128.4664088998911 70.73145060106012 L 1128.2555087482601 70.78178934311569 L 1128.0435056061172 70.8311721998977 L 1127.8304206735995 70.8795942331616 L 1127.616275259023 70.92705060074444 L 1127.4010907767508 70.973536557049 L 1127.1848887450517 71.01904745351838 L 1126.9676907839485 71.06357873910088 L 1126.7495186130564 71.10712596070502 L 1126.530394049411 71.14968476364494 L 1126.3103390052856 71.19125089207583 L 1126.0893754860015 71.23182018941947 L 1125.8675255877265 71.27138859877994 L 1125.6448114952655 71.30995216334925 L 1125.421255479842 71.34750702680313 L 1125.1968798968715 71.38404943368649 L 1124.9717071837251 71.4195757297891 L 1124.7457598574867 71.45408236251096 L 1124.5190605127007 71.48756588121756 L 1124.2916318191121 71.52002293758491 L 1124.0634965194015 71.55145028593446 L 1123.834677426908 71.58184478355753 L 1123.6051974233508 71.61120339102969 L 1123.3750794565387 71.63952317251467 L 1123.1443465380767 71.66680129605793 L 1122.9130217410643 71.69303503386982 L 1122.6811281977884 71.71822176259843 L 1122.4486890974104 71.7423589635919 L 1122.2157276836463 71.7654442231502 L 1121.9822672524433 71.78747523276665 L 1121.7483311496503 71.80844978935863 L 1121.5139427686825 71.82836579548797 L 1121.2791255481825 71.84722125957065 L 1121.0439029696768 71.86501429607597 L 1120.808298555227 71.8817431257151 L 1120.572335865079 71.89740607561903 L 1120.3360384953041 71.91200157950583 L 1120.099430075443 71.92552817783725 L 1119.8625342661405 71.93798451796474 L 1119.62537475678 71.94936935426468 L 1119.3879752631149 71.95968154826289 L 1119.1503595248964 71.96892006874862 L 1118.9125513035008 71.97708399187748 L 1118.6745743795518 71.98417250126396 L 1118.4364525505434 71.99018488806304 L 1118.19820962846 71.99512055104105 L 1117.9598694373958 71.99897899663581 L 1117.7214558111707 72.00175983900598 L 1117.4829925909492 72.00346280006961 L 1117.244503622854 72.00408770953204 L 1117.0060127555835 72.00363450490285 L 1116.7675438380256 72.0021032315021 L 1116.5291207168734 71.99949404245586 L 1116.2907672342403 71.9958071986809 L 1116.052507225276 71.99104306885846 L 1115.8143645157827 71.98520212939759 L 1115.576362919833 71.97828496438737 L 1115.3385262373881 71.97029226553852 L 1115.1008782519182 71.96122483211428 L 1114.8634427280238 71.95108357085043 L 1114.626243409059 71.93986949586466 L 1114.3893040147586 71.92758372855508 L 1114.1526482388642 71.91422749748824 L 1113.9162997467565 71.89980213827607 L 1113.6802821730876 71.8843090934425 L 1113.444619119418 71.86774991227908 L 1113.2093341518569 71.85012625069015 L 1112.9744507987048 71.83143987102717 L 1112.7399925481016 71.81169264191253 L 1112.5059828456765 71.79088653805269 L 1112.2724450922053 71.7690236400407 L 1112.0394026412682 71.74610613414815 L 1111.8068787969166 71.72213631210651 L 1111.5748968113407 71.69711657087802 L 1111.343479882546 71.67104941241597 L 1111.1126511520326 71.64393744341446 L 1110.882433702481 71.6157833750478 L 1110.6528505554445 71.58659002269937 L 1110.4239246690463 71.55636030568009 L 1110.1956789356843 71.52509724693644 L 1109.9681361797416 71.49280397274828 L 1109.7413191553044 71.45948371241609 L 1109.5152505438857 71.42513979793813 L 1109.2899529521587 71.38977566367726 L 1109.0654489096949 71.35339484601741 L 1108.841760866711 71.31600098301004 L 1108.618911191825 71.27759781401028 L 1108.396922169819 71.23818917930303 L 1108.1758159994097 71.19777901971894 L 1107.9556147910305 71.15637137624027 L 1107.736340564618 71.11397038959687 L 1107.518015247413 71.07058029985207 L 1107.3006606717647 71.02620544597868 L 1107.0842985729496 70.98085026542512 L 1106.8689505869972 70.93451929367163 L 1106.654638248527 70.8872171637768 L 1106.441382988594 70.8389486059142 L 1106.2292061325463 70.78971844689937 L 1106.0181288978931 70.7395316097072 L 1105.8081723921819 70.6883931129796 L 1105.5993576108879 70.6363080705236 L 1105.3917054353155 70.58328169080006 L 1105.1852366305093 70.52931927640276 L 1104.9799718431777 70.47442622352818 L 1104.7759315996282 70.41860802143584 L 1104.5731363037153 70.36187025189946 L 1104.3716062347996 70.3042185886487 L 1104.1713615457197 70.24565879680183 L 1103.9724222607783 70.18619673228926 L 1103.7748082737376 70.12583834126788 L 1103.5785393458316 70.06458965952649 L 1103.3836351037899 70.00245681188221 L 1103.1901150378737 69.93944601156807 L 1102.997998499929 69.87556355961155 L 1102.8073047014493 69.81081584420461 L 1102.6180527116553 69.74520934006487 L 1102.4302614555884 69.67875060778805 L 1102.2439497122177 69.61144629319199 L 1102.0591361125623 69.54330312665208 L 1101.8758391378283 69.47432792242817 L 1101.69407711756 69.40452757798322 L 1101.5138682278084 69.3339090732935 L 1101.3352304893122 69.26247947015062 L 1101.1581817656963 69.19024591145539 L 1100.9827397616855 69.11721562050347 L 1100.808922021334 69.0433959002631 L 1100.636745926271 68.96879413264479 L 1100.4662286939629 68.89341777776313 L 1100.2973873759902 68.81727437319081 L 1100.1302388563442 68.74037153320482 L 1099.9647998497378 68.66271694802508 L 1099.8010868999338 68.58431838304537 L 1099.6391163780904 68.5051836780569 L 1099.478904481125 68.4253207464642 L 1099.320467230094 68.34473757449386 L 1099.1638204685903 68.26344222039596 L 1099.0089798611593 68.18144281363814 L 1098.855960891733 68.09874755409275 L 1098.7047788620807 68.01536471121685 L 1098.5554488902794 67.9313026232252 L 1098.407985909202 67.84656969625658 L 1098.2624046650235 67.76117440353308 L 1098.118719715747 67.67512528451279 L 1097.9769454297477 67.5884309440359 L 1097.8370959843362 67.50110005146425 L 1097.6991853643406 67.41314133981427 L 1097.5632273607075 67.32456360488388 L 1097.4292355691246 67.23537570437271 L 1097.2972233886587 67.14558655699653 L 1097.1672040204185 67.05520514159522 L 1097.039190466232 66.96424049623502 L 1096.913195527348 66.87270171730466 L 1096.7892318031556 66.78059795860575 L 1096.667311689924 66.68793843043741 L 1096.5474473795625 66.59473239867523 L 1096.4296508584025 66.50098918384472 L 1096.313933905998 66.40671816018926 L 1096.200308093948 66.31192875473263 L 1096.0887847847384 66.2166304463364 L 1095.9793751306079 66.120832764752 L 1095.8720900724302 66.02454528966774 L 1095.766940338622 65.92777764975091 L 1095.663936444069 65.83053952168484 L 1095.5630886890747 65.73284062920132 L 1095.4644071583305 65.63469074210818 L 1095.3679017199076 65.53609967531233 L 1095.273582024269 65.4370772878383 L 1095.181457503306 65.33763348184232 L 1095.0915373693938 65.23777820162212 L 1095.0038306144709 65.13752143262249 L 1094.9183460091397 65.03687320043682 L 1094.8350921017893 64.93584356980442 L 1094.7540772177415 64.83444264360419 L 1094.6753094584167 64.73268056184422 L 1094.5987967005253 64.63056750064791 L 1094.5245465952796 64.52811367123628 L 1094.4525665676279 64.42532931890689 L 1094.3828638155132 64.32222472200931 L 1094.3154453091527 64.21881019091732 L 1094.2503177903407 64.11509606699785 L 1094.1874877717748 64.01109272157687 L 1094.1269615364047 63.90681055490224 L 1094.0687451368033 63.80225999510374 L 1094.0128443945619 63.697451497150205 L 1093.9592648997084 63.59239554180411 L 1093.9080120101478 63.48710263457343 L 1093.8590908511258 63.381583304661156 L 1093.8125063147181 63.27584810391234 L 1093.768263059339 63.16990760575894 L 1093.7263655092777 63.06377240416249 L 1093.6868178542538 62.95745311255472 L 1093.6496240490003 62.85096036277616 L 1093.6147878128663 62.744304804013076 L 1093.5823126294467 62.63749710173245 L 1093.5522017462326 62.530547936615505 L 1093.5244581742875 62.423468003489624 L 1093.499084687945 62.316268010258895 L 1093.4760838245331 62.208958676833305 L 1093.4554578841187 62.10155073405677 L 1093.4372089292785 61.99405492263407 L 1093.4213387848931 61.88648199205676 L 1093.4078490379636 61.77884269952825 L 1093.3967410374535 61.6711478088881 L 1093.3880158941533 61.56340808953563 L 1093.3816744805704 61.45563431535299 L 1093.3777174308407 61.34783726362778 L 1093.376145140666 61.24002771397536 L 1093.376957767274 61.13221644726084 L 1093.3801552294026 61.02441424452105 L 1093.3857372073082 60.916631885886424 L 1093.393703142798 60.808880149503025 L 1093.4040522392847 60.70116981045468 L 1093.4167834618675 60.59351163968555 L 1093.4318955374347 60.48591640292299 L 1093.4493869547912 60.378394859601016 L 1093.46925596481 60.27095776178435 L 1093.4915005806067 60.163615853093255 L 1093.516118577738 60.05637986762915 L 1093.5431074944252 59.949260528901206 L 1093.5724646317985 59.84226854875404 L 1093.604187054169 59.7354146262965 L 1093.6382715893208 59.62870944683179 L 1093.6747148288289 59.52216368078894 L 1093.7135131283997 59.41578798265577 L 1093.7546626082353 59.30959298991343 L 1093.7981591534224 59.203589321972714 L 1093.8439984143424 59.09778757911208 L 1093.8921758071076 58.992198341417634 L 1093.9426865140188 58.88683216772516 L 1093.9955254840474 58.78169959456423 L 1094.0506874333405 58.67681113510454 L 1094.108166845749 58.57217727810464 L 1094.16795797338 58.46780848686303 L 1094.23005483717 58.36371519817185 L 1094.2944512274844 58.25990782127324 L 1094.361140704738 58.15639673681838 L 1094.430116600039 58.053192295829454 L 1094.5013720158547 57.950304818664556 L 1094.5748998267034 57.84774459398567 L 1094.650692679865 57.745521877729786 L 1094.7287429961175 57.64364689208335 L 1094.8090429704941 57.54212982446004 L 1094.8915845730646 57.44098082648201 L 1094.9763595497375 57.340210012964775 L 1095.0633594230853 57.2398274609057 L 1095.1525754931938 57.13984320847635 L 1095.2439988385297 57.040267254018644 L 1095.3376203168352 56.94110955504505 L 1095.4334305660404 56.84238002724283 L 1095.5314200052 56.74408854348249 L 1095.6315788354518 56.646244932830506 L 1095.7338970409962 56.54885897956639 L 1095.8383643900981 56.45194042220433 L 1095.9449704361095 56.35549895251929 L 1096.053704518515 56.25954421457787 L 1096.1645557639963 56.16408580377391 L 1096.2775130875216 56.06913326586893 L 1096.3925651934526 55.974696096037604 L 1096.5097005766747 55.88078373791821 L 1096.6289075237473 55.7874055826683 L 1096.7501741140748 55.694570968025594 L 1096.873488221099 55.60228917737418 L 1096.9988375135126 55.51056943881623 L 1097.1262094564902 55.41942092424918 L 1097.255591312944 55.328852748448504 L 1097.3869701447961 55.23887396815633 L 1097.5203328142727 55.14949358117568 L 1097.655665985218 55.0607205254708 L 1097.792956124428 54.97256367827326 L 1097.9321895030027 54.88503185519433 L 1098.0733521977206 54.79813380934336 L 1098.2164300924298 54.71187823045254 L 1098.36140887946 54.62627374400786 L 1098.5082740610533 54.541328910386646 L 1098.6570109508139 54.45705222400146 L 1098.807604675177 54.373452112450714 L 1098.960040174895 54.290536935675895 L 1099.114302206546 54.20831498512558 L 1099.2703753440546 54.12679448292632 L 1099.4282439802375 54.0459835810604 L 1099.5878923283624 53.965890360550645 L 1099.7493044237276 53.88652283065238 L 1099.9124641252579 53.80788892805245 L 1100.0773551171196 53.72999651607559 L 1100.2439609103506 53.652853383898076 L 1100.4122648445102 53.57646724576885 L 1100.5822500893455 53.50084574023808 L 1100.7538996464739 53.42599642939328 L 1100.927196351082 53.35192679810317 L 1101.1021228736447 53.278644253269164 L 1101.2786617216548 53.20615612308466 L 1101.456795241375 53.13446965630228 L 1101.6365056196014 53.06359202150896 L 1101.8177748854464 52.99353030640911 L 1102.0005849121342 52.924291517115876 L 1102.1849174188144 52.85588257745046 L 1102.37075397239 52.78831032824984 L 1102.5580759893605 52.72158152668263 L 1102.7468647376807 52.65570284557336 L 1102.9371013386324 52.590680872735255 L 1103.1287667687145 52.52652211031142 L 1103.3218418615436 52.463232974124615 L 1103.5163073097713 52.40081979303573 L 1103.7121436670147 52.33928880831086 L 1103.9093313498017 52.278646172997206 L 1104.107850639528 52.21889795130775 L 1104.3076816844298 52.160050118014894 L 1104.5088045015698 52.1021085578529 L 1104.7111989788334 52.045079064929524 L 1104.9148448769415 51.98896734214652 L 1105.1197218314744 51.933779000629414 L 1105.325809354907 51.87951955916637 L 1105.533086838659 51.826194443656306 L 1105.7415335551545 51.77380898656634 L 1105.9511286598956 51.72236842639853 L 1106.1618511935467 51.67187790716602 L 1106.3736800840297 51.622342477878675 L 1106.5865941486322 51.57376709203812 L 1106.8005720961253 51.526156607142475 L 1107.0155925288925 51.47951578420055 L 1107.2316339450697 51.43384928725578 L 1107.4486747406954 51.38916168291979 L 1107.6666932118706 51.34545743991578 L 1107.8856675569302 51.302740928631636 L 1108.105575878622 51.261016420682886 L 1108.3263961862972 51.220288088485546 L 1108.5481063981088 51.18056000483891 L 1108.7706843432206 51.14183614251822 L 1108.9941077640237 51.10412037387746 L 1109.218354318362 51.06741647046204 L 1109.443401581767 51.03172810263173 L 1109.6692270496997 50.99705883919358 L 1109.8958081398016 50.96341214704502 L 1110.1231221941528 50.930791390827245 L 1110.351146481537 50.899199832588685 L 1110.5798581997153 50.86864063145883 L 1110.809234477707 50.83911684333235 L 1111.039252378075 50.81063142056343 L 1111.269888899221 50.78318721167063 L 1111.5011209776856 50.75678696105195 L 1111.732925490453 50.731433308710464 L 1111.9652792572654 50.70712878999027 L 1112.1981590429396 50.683875835323 L 1112.4315415596911 50.66167676998473 L 1112.6654034694627 50.6405338138635 L 1112.8997213862585 50.6204490812373 L 1113.1344718784821 50.60142458056266 L 1113.3696314712797 50.583462214273794 L 1113.6051766488881 50.566563778592354 L 1113.8410838569857 50.55073096334783 L 1114.0773295050485 50.53596535180856 L 1114.3138899687083 50.52226842052339 L 1114.550741592116 50.50964153917403 L 1114.7878606903066 50.49808597043808 L 1115.0252235515682 50.48760286986282 L 1115.2628064398118 50.47819328574954 L 1115.5005855969473 50.46985815904882 L 1115.7385372452566 50.462598323266384 L 1115.9766375897734 50.456414504379765 L 1116.2148628206614 50.45130732076569 L 1116.4531891155964 50.44727728313828 L 1116.6915926421475 50.444324794497916 L 1116.9300495601603 50.44245015009101 L 1117.1685360241422 50.44165353738045 L 1117.4070281856452 50.44193503602685 L 1117.6455021956522 50.443294617880554 L 1117.8839342069605 50.445732146984525 L 1118.1223003765679 50.44924737958788 L 1118.3605768680563 50.45383996417029 L 1118.5987398539746 50.459509441477124 L 1118.8367655182233 50.46625524456538 L 1119.0746300584337 50.474076698860365 L 1119.3123096883505 50.48297302222316 L 1119.5497806402084 50.49294332502887 L 1119.7870191671104 50.50398661025549 L 1120.0240015454015 50.51610177358371 L 1120.260704077041 50.52928760350731 L 1120.4971030919733 50.54354278145426 L 1120.7331749504938 50.55886588191867 L 1120.9688960456135 50.575255372603245 L 1121.2042428054192 50.592709614572584 L 1121.439191695431 50.61122686241703 L 1121.673719220956 50.630805264427224 L 1121.9078019294366 50.651442862779284 L 1122.1414164127973 50.67313759373059 L 1122.3745393097845 50.695887287826096 L 1122.6071473083025 50.71968967011537 L 1122.8392171477456 50.74454236038002 L 1123.0707256213232 50.77044287337172 L 1123.3016495783804 50.797388619060754 L 1123.5319659267147 50.825376902895016 L 1123.7616516348826 50.85440492606945 L 1123.990683734505 50.88446978580591 L 1124.2190393225626 50.9155684756435 L 1124.4466955636872 50.947697885739125 L 1124.673629692444 50.980854803178566 L 1124.8998190156094 51.01503591229771 L 1125.1252409144395 51.05023779501413 L 1125.3498728469326 51.08645693116888 L 1125.5736923500822 51.12368969887854 L 1125.7966770421247 51.16193237489736 L 1126.0188046247767 51.201181134989596 L 1126.2400528854653 51.241432054311964 L 1126.4603996995484 51.28268110780607 L 1126.6798230325282 51.32492417060092 L 1126.8983009422548 51.368157018425464 L 1127.1158115811186 51.41237532803093 L 1127.3323331982374 51.45757467762322 L 1127.5478441416299 51.503750547305025 L 1127.7623228603811 51.55089831952786 L 1127.975747906798 51.5990132795538 L 1128.188097938554 51.64809061592693 L 1128.3993517208226 51.69812542095451 L 1128.6094881284018 51.749112691197745 L 1128.818486147826 51.801047327972086 L 1129.026324879467 51.85392413785714 L 1129.2329835396254 51.90773783321599 L 1129.438441462607 51.962483032723924 L 1129.642678102791 52.01815426190663 L 1129.8456730366834 52.07474595368758 L 1130.04740596496 52.132252448944755 L 1130.247856714496 52.190667997076545 L 1130.4470052403838 52.24998675657682 L 1130.6448316279364 52.310202795619055 L 1130.84131609468 52.371310092649544 L 1131.0364389923316 52.43330253698949 L 1131.2301808087643 52.49617392944612 L 1131.4225221699578 52.559917982932596 L 1131.6134438419363 52.62452832309667 L 1131.8029267326915 52.68999848895818 L 1131.9909518940924 52.7563219335551 L 1132.1775005237794 52.823492024598224 L 1132.3625539670452 52.89150204513444 L 1132.5460937186995 52.960345194218355 L 1132.7281014249202 53.03001458759244 L 1132.908558885088 53.10050325837541 L 1133.087448053608 53.171804157758935 L 1133.2647510417119 53.243910155712484 L 1133.4404501192485 53.31681404169635 L 1133.614527716457 53.39050852538269 L 1133.786966425722 53.46498623738456 L 1133.957749003317 53.5402397299928 L 1134.1268583711264 53.61626147792087 L 1134.294277618354 53.69304387905734 L 1134.459990003215 53.770579255226075 L 1134.6239789546087 53.848859852954064 L 1134.7862280737766 53.92787784424677 L 1134.9467211359422 54.00762532737092 L 1135.105442091933 54.08809432764465 L 1135.2623750697855 54.16927679823499 L 1135.417504376333 54.251164620962534 L 1135.5708144987736 54.33374960711325 L 1135.7222901062235 54.41702349825734 L 1135.8719160512476 54.500977967075094 L 1136.0196773713765 54.58560461818958 L 1136.1655592906009 54.670894989006214 L 1136.3095472208508 54.75684055055899 L 1136.451626763453 54.84343270836337 L 1136.5917837105717 54.93066280327574 L 1136.730004046629 55.0185221123593 L 1136.8662739497063 55.107001849756344 L 1137.000579792927 55.196093167566886 L 1137.1329081458189 55.28578715673337 L 1137.2632457756565 55.37607484793163 L 1137.3915796487859 55.46694721246779 L 1137.5178969319265 55.55839516318112 L 1137.6421849934552 55.65040955535275 L 1137.7644314046697 55.742981187620146 L 1137.8846239410304 55.83610080289723 L 1138.0027505833839 55.92975908930006 L 1138.1187995191647 56.02394668107806 L 1138.2327591435755 56.11865415955053 L 1138.344618060749 56.213872054048544 L 1138.454365084887 56.30959084286201 L 1138.5619892413781 56.405800954191804 L 1138.6674797678966 56.50249276710697 L 1138.7708261154778 56.5996566125068 L 1138.8720179495726 56.69728277408771 L 1138.9710451510825 56.79536148931491 L 1139.0678978173696 56.89388295039859 L 1139.162566263248 56.99283730527477 L 1139.255041021952 57.09221465859041 L 1139.3453128460826 57.19200507269298 L 1139.433372708533 57.29219856862425 L 1139.5192118033901 57.39278512711811 L 1139.602821546816 57.49375468960253 L 1139.684193577906 57.59509715920541 L 1139.7633197595248 57.69680240176424 L 1139.8401921791203 57.79886024683951 L 1139.9148031495145 57.90126048873177 L 1139.9871452096725 58.003992887502164 L 1140.0572111254487 58.10704716999642 L 1140.1249938903097 58.21041303087217 L 1140.1904867260357 58.31408013362946 L 1140.2536830833976 58.41803811164441 L 1140.3145766428122 58.52227656920584 L 1140.3731613149748 58.62678508255487 L 1140.4294312414663 58.731553200927245 L 1140.4833807953416 58.83657044759845 L 1140.5350045816897 58.94182632093131 L 1140.5842974381756 59.04731029542622 L 1140.631254435554 59.153011822773635 L 1140.675870878165 59.25892033290889 L 1140.718142304401 59.36502523506925 L 1140.7580644871548 59.471315918852895 L 1140.7956334342414 59.57778175528004 L 1140.8308453887976 59.684412097855756 L 1140.8636968296569 59.79119628363465 L 1140.8941844717026 59.89812363428712 L 1140.9223052661964 60.005183457167206 L 1140.9480564010819 60.11236504638185 L 1140.9714353012669 60.21965768386144 L 1140.9924396288814 60.327050640431644 L 1141.0110672835094 60.43453317688629 L 1141.0273164024018 60.5420945450613 L 1141.0411853606597 60.6497239889095 L 1141.0526727713989 60.757410745576195 L 1141.0617774858881 60.86514404647545 L 1141.0684985936632 60.972913118366954 L 1141.0728354226194 61.08070718443333 L 1141.0747875390769 61.188515465357796 M 1141.074908529133 95.52678387991818 L 1141.0737160692292 95.6345944248348 L 1141.0701388087632 95.74239418878678 L 1141.0641771054577 95.85017239188754 L 1141.0558315554786 95.95791825640659 L 1141.0451029933733 96.06562100784727 L 1141.0319924919895 96.1732698760242 L 1141.0165013623662 96.28085409614023 L 1140.9986311536036 96.38836290986303 L 1140.9783836527076 96.49578556640084 L 1140.9557608844113 96.60311132357748 L 1140.930765110973 96.7103294489067 L 1140.903398831949 96.8174292206653 L 1140.8736647839444 96.92439992896537 L 1140.8415659403393 97.0312308768252 L 1140.807105510991 97.13791138123905 L 1140.7702869419143 97.24443077424536 L 1140.7311139149351 97.35077840399362 L 1140.6895903473232 97.45694363580944 L 1140.6457203914013 97.56291585325815 L 1140.599508434128 97.66868445920629 L 1140.5509590966606 97.77423887688141 L 1140.5000772338926 97.8795685509297 L 1140.4468679339675 97.98466294847155 L 1140.3913365177714 98.08951156015478 L 1140.3334885383995 98.19410390120557 L 1140.2733297806012 98.29842951247699 L 1140.2108662602025 98.40247796149485 L 1140.1461042235035 98.50623884350097 L 1140.0790501466533 98.60970178249359 L 1140.0097107350043 98.71285643226504 L 1139.9380929224399 98.81569247743631 L 1139.8642038706812 98.91819963448859 L 1139.788050968572 99.02036765279156 L 1139.7096418313392 99.12218631562857 L 1139.6289842998312 99.22364544121817 L 1139.5460864397337 99.32473488373233 L 1139.4609565407638 99.42544453431107 L 1139.3736031158405 99.52576432207324 L 1139.2840349002333 99.62568421512367 L 1139.192260850689 99.72519422155631 L 1139.0982901445368 99.82428439045346 L 1139.0021321787683 99.92294481288079 L 1138.9037965691 100.02116562287829 L 1138.8032931490113 100.11893699844678 L 1138.70063196876 100.2162491625302 L 1138.595823294379 100.31309238399325 L 1138.4888776066482 100.40945697859446 L 1138.3798056000473 100.50533330995468 L 1138.268618181686 100.60071179052068 L 1138.1553264702134 100.69558288252388 L 1138.0399417947065 100.78993709893413 L 1137.9224756935364 100.88376500440843 L 1137.8029399132156 100.97705721623441 L 1137.6813464072222 101.06980440526866 L 1137.5577073348059 101.16199729686952 L 1137.4320350597704 101.25362667182469 L 1137.304342149239 101.34468336727302 L 1137.174641372396 101.43515827762084 L 1137.042945699211 101.52504235545253 L 1136.9092682991418 101.61432661243519 L 1136.7736225398169 101.70300212021755 L 1136.636021985699 101.7910600113227 L 1136.496480396729 101.87849148003492 L 1136.35501172695 101.9652877832802 L 1136.2116301231101 102.05144024150056 L 1136.0663499232508 102.13694023952193 L 1135.9191856552711 102.22177922741581 L 1135.770152035475 102.30594872135407 L 1135.6192639671 102.38944030445748 L 1135.4665365388278 102.47224562763729 L 1135.3119850232733 102.5543564104302 L 1135.1556248754598 102.63576444182635 L 1134.9974717312716 102.71646158109044 L 1134.8375414058914 102.79643975857579 L 1134.6758498922181 102.8756909765313 L 1134.5124133592687 102.95420730990122 L 1134.3472481505603 103.03198090711763 L 1134.180370782476 103.10900399088564 L 1134.0117979426136 103.18526885896105 L 1133.8415464881164 103.2607678849206 L 1133.6696334439882 103.33549351892461 L 1133.4960760013903 103.40943828847196 L 1133.3208915159219 103.48259479914732 L 1133.1440975058858 103.55495573536056 L 1132.9657116505357 103.6265138610784 L 1132.7857517883085 103.69726202054787 L 1132.6042359150404 103.76719313901197 L 1132.4211821821675 103.83630022341715 L 1132.2366088949104 103.90457636311257 L 1132.0505345104443 103.97201473054113 L 1131.8629776360524 104.03860858192229 L 1131.6739570272657 104.10435125792642 L 1131.4834915859878 104.1692361843407 L 1131.291600358604 104.23325687272656 L 1131.0983025340772 104.29640692106851 L 1130.9036174420287 104.35868001441433 L 1130.7075645508055 104.4200699255066 L 1130.5101634655334 104.48057051540535 L 1130.3114339261563 104.54017573410202 L 1130.1113958054625 104.5988796211244 L 1129.9100691070976 104.65667630613272 L 1129.7074739635634 104.71356000950664 L 1129.5036306342058 104.7695250429232 L 1129.2985595031873 104.82456580992574 L 1129.0922810774507 104.87867680648341 L 1128.8848159846664 104.93185262154162 L 1128.6761849711706 104.98408793756322 L 1128.4664088998911 105.0353775310601 L 1128.2555087482601 105.08571627311568 L 1128.0435056061172 105.13509912989768 L 1127.8304206735995 105.1835211631616 L 1127.616275259023 105.23097753074444 L 1127.4010907767508 105.27746348704899 L 1127.1848887450517 105.32297438351839 L 1126.9676907839485 105.36750566910086 L 1126.7495186130564 105.41105289070501 L 1126.530394049411 105.45361169364494 L 1126.3103390052856 105.49517782207583 L 1126.0893754860015 105.53574711941947 L 1125.8675255877265 105.57531552877992 L 1125.6448114952655 105.61387909334925 L 1125.421255479842 105.65143395680312 L 1125.1968798968715 105.68797636368647 L 1124.9717071837251 105.72350265978909 L 1124.7457598574867 105.75800929251095 L 1124.5190605127007 105.79149281121755 L 1124.2916318191121 105.82394986758491 L 1124.0634965194015 105.85537721593445 L 1123.834677426908 105.88577171355752 L 1123.6051974233508 105.9151303210297 L 1123.3750794565387 105.94345010251467 L 1123.1443465380767 105.97072822605791 L 1122.9130217410643 105.99696196386981 L 1122.6811281977884 106.02214869259844 L 1122.4486890974104 106.04628589359189 L 1122.2157276836463 106.0693711531502 L 1121.9822672524433 106.09140216276666 L 1121.7483311496503 106.11237671935864 L 1121.5139427686825 106.13229272548797 L 1121.2791255481825 106.15114818957065 L 1121.0439029696768 106.16894122607596 L 1120.808298555227 106.1856700557151 L 1120.572335865079 106.20133300561903 L 1120.3360384953041 106.21592850950582 L 1120.099430075443 106.22945510783724 L 1119.8625342661405 106.24191144796474 L 1119.62537475678 106.25329628426466 L 1119.3879752631149 106.2636084782629 L 1119.1503595248964 106.2728469987486 L 1118.9125513035008 106.28101092187747 L 1118.6745743795518 106.28809943126396 L 1118.4364525505434 106.29411181806304 L 1118.19820962846 106.29904748104106 L 1117.9598694373958 106.30290592663582 L 1117.7214558111707 106.30568676900597 L 1117.4829925909492 106.30738973006962 L 1117.244503622854 106.30801463953205 L 1117.0060127555835 106.30756143490284 L 1116.7675438380256 106.3060301615021 L 1116.5291207168734 106.30342097245587 L 1116.2907672342403 106.29973412868088 L 1116.052507225276 106.29496999885845 L 1115.8143645157827 106.28912905939758 L 1115.576362919833 106.28221189438736 L 1115.3385262373881 106.27421919553852 L 1115.1008782519182 106.26515176211427 L 1114.8634427280238 106.25501050085043 L 1114.626243409059 106.24379642586464 L 1114.3893040147586 106.23151065855508 L 1114.1526482388642 106.21815442748823 L 1113.9162997467565 106.20372906827606 L 1113.6802821730876 106.1882360234425 L 1113.444619119418 106.17167684227908 L 1113.2093341518569 106.15405318069014 L 1112.9744507987048 106.13536680102716 L 1112.7399925481016 106.11561957191253 L 1112.5059828456765 106.09481346805269 L 1112.2724450922053 106.0729505700407 L 1112.0394026412682 106.05003306414814 L 1111.8068787969166 106.0260632421065 L 1111.5748968113407 106.00104350087803 L 1111.343479882546 105.97497634241597 L 1111.1126511520326 105.94786437341445 L 1110.882433702481 105.9197103050478 L 1110.6528505554445 105.89051695269937 L 1110.4239246690463 105.86028723568009 L 1110.1956789356843 105.82902417693644 L 1109.9681361797416 105.79673090274827 L 1109.7413191553044 105.76341064241608 L 1109.5152505438857 105.72906672793813 L 1109.2899529521587 105.69370259367726 L 1109.0654489096949 105.6573217760174 L 1108.841760866711 105.61992791301003 L 1108.618911191825 105.58152474401028 L 1108.396922169819 105.54211610930304 L 1108.1758159994097 105.50170594971894 L 1107.9556147910305 105.46029830624026 L 1107.736340564618 105.41789731959686 L 1107.518015247413 105.37450722985206 L 1107.3006606717647 105.33013237597868 L 1107.0842985729496 105.28477719542511 L 1106.8689505869972 105.23844622367163 L 1106.654638248527 105.1911440937768 L 1106.441382988594 105.14287553591419 L 1106.2292061325463 105.09364537689936 L 1106.0181288978931 105.0434585397072 L 1105.8081723921819 104.99232004297959 L 1105.5993576108879 104.9402350005236 L 1105.3917054353155 104.88720862080007 L 1105.1852366305093 104.83324620640276 L 1104.9799718431777 104.77835315352817 L 1104.7759315996282 104.72253495143585 L 1104.5731363037153 104.66579718189945 L 1104.3716062347996 104.60814551864868 L 1104.1713615457197 104.54958572680184 L 1103.9724222607783 104.49012366228926 L 1103.7748082737376 104.42976527126788 L 1103.5785393458316 104.36851658952648 L 1103.3836351037899 104.30638374188221 L 1103.1901150378737 104.24337294156805 L 1102.997998499929 104.17949048961154 L 1102.8073047014493 104.11474277420461 L 1102.6180527116553 104.04913627006486 L 1102.4302614555884 103.98267753778805 L 1102.2439497122177 103.91537322319199 L 1102.0591361125623 103.84723005665208 L 1101.8758391378283 103.77825485242818 L 1101.69407711756 103.70845450798322 L 1101.5138682278084 103.63783600329349 L 1101.3352304893122 103.56640640015061 L 1101.1581817656963 103.49417284145538 L 1100.9827397616855 103.42114255050346 L 1100.808922021334 103.3473228302631 L 1100.636745926271 103.27272106264479 L 1100.4662286939629 103.19734470776314 L 1100.2973873759902 103.1212013031908 L 1100.1302388563442 103.04429846320481 L 1099.9647998497378 102.96664387802507 L 1099.8010868999338 102.88824531304537 L 1099.6391163780904 102.8091106080569 L 1099.478904481125 102.72924767646418 L 1099.320467230094 102.64866450449387 L 1099.1638204685903 102.56736915039596 L 1099.0089798611593 102.48536974363815 L 1098.855960891733 102.40267448409276 L 1098.7047788620807 102.31929164121684 L 1098.5554488902794 102.2352295532252 L 1098.407985909202 102.15049662625658 L 1098.2624046650235 102.06510133353308 L 1098.118719715747 101.97905221451278 L 1097.9769454297477 101.89235787403591 L 1097.8370959843362 101.80502698146424 L 1097.6991853643406 101.71706826981428 L 1097.5632273607075 101.62849053488388 L 1097.4292355691246 101.53930263437272 L 1097.2972233886587 101.44951348699652 L 1097.1672040204185 101.35913207159521 L 1097.039190466232 101.26816742623502 L 1096.913195527348 101.17662864730465 L 1096.7892318031556 101.08452488860574 L 1096.667311689924 100.9918653604374 L 1096.5474473795625 100.89865932867522 L 1096.4296508584025 100.80491611384473 L 1096.313933905998 100.71064509018925 L 1096.200308093948 100.61585568473262 L 1096.0887847847384 100.5205573763364 L 1095.9793751306079 100.424759694752 L 1095.8720900724302 100.32847221966773 L 1095.766940338622 100.2317045797509 L 1095.663936444069 100.13446645168483 L 1095.5630886890747 100.03676755920131 L 1095.4644071583305 99.93861767210817 L 1095.3679017199076 99.84002660531232 L 1095.273582024269 99.7410042178383 L 1095.181457503306 99.64156041184232 L 1095.0915373693938 99.54170513162211 L 1095.0038306144709 99.4414483626225 L 1094.9183460091397 99.34080013043682 L 1094.8350921017893 99.23977049980442 L 1094.7540772177415 99.13836957360418 L 1094.6753094584167 99.03660749184422 L 1094.5987967005253 98.9344944306479 L 1094.5245465952796 98.83204060123627 L 1094.4525665676279 98.72925624890688 L 1094.3828638155132 98.6261516520093 L 1094.3154453091527 98.52273712091731 L 1094.2503177903407 98.41902299699785 L 1094.1874877717748 98.31501965157686 L 1094.1269615364047 98.21073748490224 L 1094.0687451368033 98.10618692510373 L 1094.0128443945619 98.0013784271502 L 1093.9592648997084 97.89632247180411 L 1093.9080120101478 97.79102956457344 L 1093.8590908511258 97.68551023466115 L 1093.8125063147181 97.57977503391233 L 1093.768263059339 97.47383453575894 L 1093.7263655092777 97.3676993341625 L 1093.6868178542538 97.2613800425547 L 1093.6496240490003 97.15488729277617 L 1093.6147878128663 97.04823173401307 L 1093.5823126294467 96.94142403173245 L 1093.5522017462326 96.8344748666155 L 1093.5244581742875 96.72739493348962 L 1093.499084687945 96.6201949402589 L 1093.4760838245331 96.51288560683331 L 1093.4554578841187 96.40547766405678 L 1093.4372089292785 96.29798185263407 L 1093.4213387848931 96.19040892205675 L 1093.4078490379636 96.08276962952824 L 1093.3967410374535 95.9750747388881 L 1093.3880158941533 95.86733501953563 L 1093.3816744805704 95.75956124535298 L 1093.3777174308407 95.65176419362778 L 1093.376145140666 95.54395464397535" stroke-miterlimit="10" stroke-width="2.7769845610000004" stroke-dasharray=""/></g><g><g/><text fill="black" stroke="none" font-family="sans-serif" font-size="11pt" font-style="normal" font-weight="normal" text-decoration="normal" x="1085.8475667648438" y="123.83569119881818" text-anchor="start" dominant-baseline="alphabetic" xml:space="preserve">Database</text></g><g><path fill="white" stroke="black" paint-order="fill stroke markers" d=" M 90.987082381 796.1109830103183 A 9.311065881 9.311065881 0 1 1 90.98707772546743 796.1016719459891 M 81.67601649999999 805.4220488913182 L 81.67601649999999 825.3509969173183 M 69.914670124 812.6095383433183 L 93.43736287599998 812.6095383433183 M 81.67601649999999 825.3509969173183 L 69.914670124 843.9731286793183 M 81.67601649999999 825.3509969173183 L 93.43736287599998 843.9731286793183" stroke-miterlimit="10" stroke-width="2.7769845610000004" stroke-dasharray=""/></g><g><g/><text fill="black" stroke="none" font-family="sans-serif" font-size="11pt" font-style="normal" font-weight="normal" text-decoration="normal" x="53.1470400595703" y="780.5108638588182" text-anchor="start" dominant-baseline="alphabetic" xml:space="preserve">Landlord</text></g><g><path fill="white" stroke="black" paint-order="fill stroke markers" d=" M 495.7292122957474 811.6130909420182 A 24.2577769005 24.2577769005 0 1 1 495.72920016686 811.5888331691606 M 445.8251662142474 838.0924554913181 L 497.1177045762474 838.0924554913181" stroke-miterlimit="10" stroke-width="2.7769845610000004" stroke-dasharray=""/></g><g><g/><text fill="black" stroke="none" font-family="sans-serif" font-size="11pt" font-style="normal" font-weight="normal" text-decoration="normal" x="452.73128494358724" y="780.5108638588182" text-anchor="start" dominant-baseline="alphabetic" xml:space="preserve">Client</text></g><g><path fill="white" stroke="black" paint-order="fill stroke markers" d=" M 841.7164799458776 811.6130909420182 A 24.2577769005 24.2577769005 0 1 1 841.7164678169902 811.5888331691606 M 791.8124338643777 838.0924554913181 L 843.1049722263776 838.0924554913181" stroke-miterlimit="10" stroke-width="2.7769845610000004" stroke-dasharray=""/></g><g><g/><text fill="black" stroke="none" font-family="sans-serif" font-size="11pt" font-style="normal" font-weight="normal" text-decoration="normal" x="788.9333047909831" y="780.5108638588182" text-anchor="start" dominant-baseline="alphabetic" xml:space="preserve">Backend</text></g><g><path fill="white" stroke="black" paint-order="fill stroke markers" d=" M 1093.3761148931328 833.2735705178183 L 1093.3761148931328 798.9696435878182 L 1141.074908529133 798.9696435878182 L 1141.074908529133 833.2735705178183" stroke-miterlimit="10" stroke-width="2.7769845610000004" stroke-dasharray=""/><path fill="white" stroke="black" paint-order="fill stroke markers" d=" M 1141.074908529133 797.7771737469182 L 1141.0737160692292 797.8849842918348 L 1141.0701388087632 797.9927840557867 L 1141.0641771054577 798.1005622588875 L 1141.0558315554786 798.2083081234066 L 1141.0451029933733 798.3160108748473 L 1141.0319924919895 798.4236597430241 L 1141.0165013623662 798.5312439631402 L 1140.9986311536036 798.638752776863 L 1140.9783836527076 798.7461754334008 L 1140.9557608844113 798.8535011905775 L 1140.930765110973 798.9607193159067 L 1140.903398831949 799.0678190876653 L 1140.8736647839444 799.1747897959654 L 1140.8415659403393 799.2816207438252 L 1140.807105510991 799.388301248239 L 1140.7702869419143 799.4948206412453 L 1140.7311139149351 799.6011682709935 L 1140.6895903473232 799.7073335028094 L 1140.6457203914013 799.8133057202581 L 1140.599508434128 799.9190743262062 L 1140.5509590966606 800.0246287438814 L 1140.5000772338926 800.1299584179296 L 1140.4468679339675 800.2350528154715 L 1140.3913365177714 800.3399014271547 L 1140.3334885383995 800.4444937682056 L 1140.2733297806012 800.548819379477 L 1140.2108662602025 800.6528678284948 L 1140.1461042235035 800.7566287105009 L 1140.0790501466533 800.8600916494936 L 1140.0097107350043 800.963246299265 L 1139.9380929224399 801.0660823444363 L 1139.8642038706812 801.1685895014886 L 1139.788050968572 801.2707575197916 L 1139.7096418313392 801.3725761826286 L 1139.6289842998312 801.4740353082182 L 1139.5460864397337 801.5751247507322 L 1139.4609565407638 801.675834401311 L 1139.3736031158405 801.7761541890732 L 1139.2840349002333 801.8760740821236 L 1139.192260850689 801.9755840885563 L 1139.0982901445368 802.0746742574535 L 1139.0021321787683 802.1733346798808 L 1138.9037965691 802.2715554898782 L 1138.8032931490113 802.3693268654467 L 1138.70063196876 802.4666390295301 L 1138.595823294379 802.5634822509932 L 1138.4888776066482 802.6598468455944 L 1138.3798056000473 802.7557231769547 L 1138.268618181686 802.8511016575206 L 1138.1553264702134 802.9459727495239 L 1138.0399417947065 803.0403269659341 L 1137.9224756935364 803.1341548714084 L 1137.8029399132156 803.2274470832344 L 1137.6813464072222 803.3201942722686 L 1137.5577073348059 803.4123871638695 L 1137.4320350597704 803.5040165388247 L 1137.304342149239 803.595073234273 L 1137.174641372396 803.6855481446208 L 1137.042945699211 803.7754322224525 L 1136.9092682991418 803.8647164794352 L 1136.7736225398169 803.9533919872175 L 1136.636021985699 804.0414498783226 L 1136.496480396729 804.1288813470348 L 1136.35501172695 804.2156776502802 L 1136.2116301231101 804.3018301085006 L 1136.0663499232508 804.3873301065219 L 1135.9191856552711 804.4721690944158 L 1135.770152035475 804.556338588354 L 1135.6192639671 804.6398301714574 L 1135.4665365388278 804.7226354946373 L 1135.3119850232733 804.8047462774301 L 1135.1556248754598 804.8861543088263 L 1134.9974717312716 804.9668514480904 L 1134.8375414058914 805.0468296255758 L 1134.6758498922181 805.1260808435312 L 1134.5124133592687 805.2045971769012 L 1134.3472481505603 805.2823707741176 L 1134.180370782476 805.3593938578856 L 1134.0117979426136 805.435658725961 L 1133.8415464881164 805.5111577519206 L 1133.6696334439882 805.5858833859246 L 1133.4960760013903 805.6598281554719 L 1133.3208915159219 805.7329846661473 L 1133.1440975058858 805.8053456023605 L 1132.9657116505357 805.8769037280783 L 1132.7857517883085 805.9476518875479 L 1132.6042359150404 806.0175830060119 L 1132.4211821821675 806.0866900904172 L 1132.2366088949104 806.1549662301126 L 1132.0505345104443 806.2224045975411 L 1131.8629776360524 806.2889984489223 L 1131.6739570272657 806.3547411249264 L 1131.4834915859878 806.4196260513406 L 1131.291600358604 806.4836467397265 L 1131.0983025340772 806.5467967880685 L 1130.9036174420287 806.6090698814143 L 1130.7075645508055 806.6704597925066 L 1130.5101634655334 806.7309603824053 L 1130.3114339261563 806.790565601102 L 1130.1113958054625 806.8492694881244 L 1129.9100691070976 806.9070661731326 L 1129.7074739635634 806.9639498765066 L 1129.5036306342058 807.0199149099232 L 1129.2985595031873 807.0749556769257 L 1129.0922810774507 807.1290666734834 L 1128.8848159846664 807.1822424885416 L 1128.6761849711706 807.2344778045632 L 1128.4664088998911 807.2857673980601 L 1128.2555087482601 807.3361061401157 L 1128.0435056061172 807.3854889968976 L 1127.8304206735995 807.4339110301615 L 1127.616275259023 807.4813673977444 L 1127.4010907767508 807.527853354049 L 1127.1848887450517 807.5733642505184 L 1126.9676907839485 807.6178955361008 L 1126.7495186130564 807.661442757705 L 1126.530394049411 807.7040015606449 L 1126.3103390052856 807.7455676890758 L 1126.0893754860015 807.7861369864195 L 1125.8675255877265 807.8257053957799 L 1125.6448114952655 807.8642689603492 L 1125.421255479842 807.901823823803 L 1125.1968798968715 807.9383662306865 L 1124.9717071837251 807.9738925267891 L 1124.7457598574867 808.0083991595109 L 1124.5190605127007 808.0418826782175 L 1124.2916318191121 808.0743397345849 L 1124.0634965194015 808.1057670829344 L 1123.834677426908 808.1361615805575 L 1123.6051974233508 808.1655201880296 L 1123.3750794565387 808.1938399695147 L 1123.1443465380767 808.2211180930578 L 1122.9130217410643 808.2473518308698 L 1122.6811281977884 808.2725385595984 L 1122.4486890974104 808.2966757605918 L 1122.2157276836463 808.3197610201502 L 1121.9822672524433 808.3417920297666 L 1121.7483311496503 808.3627665863586 L 1121.5139427686825 808.382682592488 L 1121.2791255481825 808.4015380565706 L 1121.0439029696768 808.4193310930759 L 1120.808298555227 808.4360599227151 L 1120.572335865079 808.451722872619 L 1120.3360384953041 808.4663183765058 L 1120.099430075443 808.4798449748372 L 1119.8625342661405 808.4923013149647 L 1119.62537475678 808.5036861512647 L 1119.3879752631149 808.5139983452628 L 1119.1503595248964 808.5232368657486 L 1118.9125513035008 808.5314007888775 L 1118.6745743795518 808.5384892982639 L 1118.4364525505434 808.544501685063 L 1118.19820962846 808.549437348041 L 1117.9598694373958 808.5532957936358 L 1117.7214558111707 808.556076636006 L 1117.4829925909492 808.5577795970696 L 1117.244503622854 808.558404506532 L 1117.0060127555835 808.5579513019028 L 1116.7675438380256 808.5564200285021 L 1116.5291207168734 808.5538108394559 L 1116.2907672342403 808.5501239956809 L 1116.052507225276 808.5453598658585 L 1115.8143645157827 808.5395189263976 L 1115.576362919833 808.5326017613874 L 1115.3385262373881 808.5246090625385 L 1115.1008782519182 808.5155416291143 L 1114.8634427280238 808.5054003678504 L 1114.626243409059 808.4941862928646 L 1114.3893040147586 808.481900525555 L 1114.1526482388642 808.4685442944882 L 1113.9162997467565 808.454118935276 L 1113.6802821730876 808.4386258904425 L 1113.444619119418 808.4220667092791 L 1113.2093341518569 808.4044430476902 L 1112.9744507987048 808.3857566680272 L 1112.7399925481016 808.3660094389124 L 1112.5059828456765 808.3452033350527 L 1112.2724450922053 808.3233404370407 L 1112.0394026412682 808.3004229311481 L 1111.8068787969166 808.2764531091065 L 1111.5748968113407 808.251433367878 L 1111.343479882546 808.2253662094159 L 1111.1126511520326 808.1982542404144 L 1110.882433702481 808.1701001720478 L 1110.6528505554445 808.1409068196994 L 1110.4239246690463 808.11067710268 L 1110.1956789356843 808.0794140439364 L 1109.9681361797416 808.0471207697483 L 1109.7413191553044 808.013800509416 L 1109.5152505438857 807.9794565949381 L 1109.2899529521587 807.9440924606772 L 1109.0654489096949 807.9077116430174 L 1108.841760866711 807.87031778001 L 1108.618911191825 807.8319146110102 L 1108.396922169819 807.792505976303 L 1108.1758159994097 807.7520958167189 L 1107.9556147910305 807.7106881732402 L 1107.736340564618 807.6682871865968 L 1107.518015247413 807.624897096852 L 1107.3006606717647 807.5805222429786 L 1107.0842985729496 807.5351670624251 L 1106.8689505869972 807.4888360906716 L 1106.654638248527 807.4415339607767 L 1106.441382988594 807.3932654029142 L 1106.2292061325463 807.3440352438994 L 1106.0181288978931 807.2938484067072 L 1105.8081723921819 807.2427099099796 L 1105.5993576108879 807.1906248675235 L 1105.3917054353155 807.1375984878 L 1105.1852366305093 807.0836360734028 L 1104.9799718431777 807.0287430205282 L 1104.7759315996282 806.9729248184358 L 1104.5731363037153 806.9161870488995 L 1104.3716062347996 806.8585353856487 L 1104.1713615457197 806.7999755938018 L 1103.9724222607783 806.7405135292893 L 1103.7748082737376 806.6801551382679 L 1103.5785393458316 806.6189064565265 L 1103.3836351037899 806.5567736088822 L 1103.1901150378737 806.493762808568 L 1102.997998499929 806.4298803566115 L 1102.8073047014493 806.3651326412046 L 1102.6180527116553 806.2995261370648 L 1102.4302614555884 806.233067404788 L 1102.2439497122177 806.165763090192 L 1102.0591361125623 806.097619923652 L 1101.8758391378283 806.0286447194281 L 1101.69407711756 805.9588443749832 L 1101.5138682278084 805.8882258702935 L 1101.3352304893122 805.8167962671506 L 1101.1581817656963 805.7445627084553 L 1100.9827397616855 805.6715324175034 L 1100.808922021334 805.5977126972631 L 1100.636745926271 805.5231109296448 L 1100.4662286939629 805.4477345747631 L 1100.2973873759902 805.3715911701908 L 1100.1302388563442 805.2946883302047 L 1099.9647998497378 805.217033745025 L 1099.8010868999338 805.1386351800453 L 1099.6391163780904 805.0595004750569 L 1099.478904481125 804.9796375434642 L 1099.320467230094 804.8990543714938 L 1099.1638204685903 804.8177590173959 L 1099.0089798611593 804.7357596106381 L 1098.855960891733 804.6530643510927 L 1098.7047788620807 804.5696815082168 L 1098.5554488902794 804.4856194202251 L 1098.407985909202 804.4008864932565 L 1098.2624046650235 804.3154912005331 L 1098.118719715747 804.2294420815127 L 1097.9769454297477 804.1427477410359 L 1097.8370959843362 804.0554168484642 L 1097.6991853643406 803.9674581368142 L 1097.5632273607075 803.8788804018839 L 1097.4292355691246 803.7896925013727 L 1097.2972233886587 803.6999033539965 L 1097.1672040204185 803.6095219385952 L 1097.039190466232 803.518557293235 L 1096.913195527348 803.4270185143047 L 1096.7892318031556 803.3349147556057 L 1096.667311689924 803.2422552274373 L 1096.5474473795625 803.1490491956752 L 1096.4296508584025 803.0553059808447 L 1096.313933905998 802.9610349571892 L 1096.200308093948 802.8662455517326 L 1096.0887847847384 802.7709472433363 L 1095.9793751306079 802.6751495617519 L 1095.8720900724302 802.5788620866678 L 1095.766940338622 802.4820944467509 L 1095.663936444069 802.3848563186848 L 1095.5630886890747 802.2871574262012 L 1095.4644071583305 802.1890075391082 L 1095.3679017199076 802.0904164723123 L 1095.273582024269 801.9913940848382 L 1095.181457503306 801.8919502788423 L 1095.0915373693938 801.7920949986221 L 1095.0038306144709 801.6918382296225 L 1094.9183460091397 801.5911899974368 L 1094.8350921017893 801.4901603668044 L 1094.7540772177415 801.3887594406042 L 1094.6753094584167 801.2869973588441 L 1094.5987967005253 801.1848842976478 L 1094.5245465952796 801.0824304682362 L 1094.4525665676279 800.9796461159068 L 1094.3828638155132 800.8765415190093 L 1094.3154453091527 800.7731269879173 L 1094.2503177903407 800.6694128639978 L 1094.1874877717748 800.5654095185769 L 1094.1269615364047 800.4611273519022 L 1094.0687451368033 800.3565767921037 L 1094.0128443945619 800.2517682941502 L 1093.9592648997084 800.146712338804 L 1093.9080120101478 800.0414194315734 L 1093.8590908511258 799.9359001016611 L 1093.8125063147181 799.8301649009123 L 1093.768263059339 799.7242244027589 L 1093.7263655092777 799.6180892011624 L 1093.6868178542538 799.5117699095547 L 1093.6496240490003 799.4052771597761 L 1093.6147878128663 799.298621601013 L 1093.5823126294467 799.1918138987324 L 1093.5522017462326 799.0848647336155 L 1093.5244581742875 798.9777848004896 L 1093.499084687945 798.8705848072589 L 1093.4760838245331 798.7632754738332 L 1093.4554578841187 798.6558675310567 L 1093.4372089292785 798.548371719634 L 1093.4213387848931 798.4407987890568 L 1093.4078490379636 798.3331594965282 L 1093.3967410374535 798.2254646058881 L 1093.3880158941533 798.1177248865356 L 1093.3816744805704 798.009951112353 L 1093.3777174308407 797.9021540606277 L 1093.376145140666 797.7943445109753 L 1093.376957767274 797.6865332442608 L 1093.3801552294026 797.578731041521 L 1093.3857372073082 797.4709486828864 L 1093.393703142798 797.363196946503 L 1093.4040522392847 797.2554866074546 L 1093.4167834618675 797.1478284366855 L 1093.4318955374347 797.0402331999229 L 1093.4493869547912 796.932711656601 L 1093.46925596481 796.8252745587843 L 1093.4915005806067 796.7179326500932 L 1093.516118577738 796.6106966646291 L 1093.5431074944252 796.5035773259011 L 1093.5724646317985 796.396585345754 L 1093.604187054169 796.2897314232964 L 1093.6382715893208 796.1830262438317 L 1093.6747148288289 796.0764804777889 L 1093.7135131283997 795.9701047796557 L 1093.7546626082353 795.8639097869134 L 1093.7981591534224 795.7579061189726 L 1093.8439984143424 795.652104376112 L 1093.8921758071076 795.5465151384176 L 1093.9426865140188 795.4411489647251 L 1093.9955254840474 795.3360163915642 L 1094.0506874333405 795.2311279321045 L 1094.108166845749 795.1264940751046 L 1094.16795797338 795.022125283863 L 1094.23005483717 794.9180319951718 L 1094.2944512274844 794.8142246182732 L 1094.361140704738 794.7107135338183 L 1094.430116600039 794.6075090928294 L 1094.5013720158547 794.5046216156645 L 1094.5748998267034 794.4020613909856 L 1094.650692679865 794.2998386747297 L 1094.7287429961175 794.1979636890833 L 1094.8090429704941 794.09644662146 L 1094.8915845730646 793.995297623482 L 1094.9763595497375 793.8945268099648 L 1095.0633594230853 793.7941442579057 L 1095.1525754931938 793.6941600054763 L 1095.2439988385297 793.5945840510186 L 1095.3376203168352 793.495426352045 L 1095.4334305660404 793.3966968242428 L 1095.5314200052 793.2984053404824 L 1095.6315788354518 793.2005617298305 L 1095.7338970409962 793.1031757765663 L 1095.8383643900981 793.0062572192043 L 1095.9449704361095 792.9098157495192 L 1096.053704518515 792.8138610115778 L 1096.1645557639963 792.7184026007739 L 1096.2775130875216 792.6234500628689 L 1096.3925651934526 792.5290128930376 L 1096.5097005766747 792.4351005349182 L 1096.6289075237473 792.3417223796682 L 1096.7501741140748 792.2488877650255 L 1096.873488221099 792.1566059743742 L 1096.9988375135126 792.0648862358162 L 1097.1262094564902 791.9737377212491 L 1097.255591312944 791.8831695454485 L 1097.3869701447961 791.7931907651563 L 1097.5203328142727 791.7038103781756 L 1097.655665985218 791.6150373224708 L 1097.792956124428 791.5268804752732 L 1097.9321895030027 791.4393486521943 L 1098.0733521977206 791.3524506063434 L 1098.2164300924298 791.2661950274525 L 1098.36140887946 791.1805905410079 L 1098.5082740610533 791.0956457073867 L 1098.6570109508139 791.0113690210014 L 1098.807604675177 790.9277689094507 L 1098.960040174895 790.8448537326758 L 1099.114302206546 790.7626317821256 L 1099.2703753440546 790.6811112799263 L 1099.4282439802375 790.6003003780604 L 1099.5878923283624 790.5202071575507 L 1099.7493044237276 790.4408396276524 L 1099.9124641252579 790.3622057250524 L 1100.0773551171196 790.2843133130756 L 1100.2439609103506 790.2071701808981 L 1100.4122648445102 790.1307840427688 L 1100.5822500893455 790.0551625372381 L 1100.7538996464739 789.9803132263933 L 1100.927196351082 789.9062435951031 L 1101.1021228736447 789.8329610502691 L 1101.2786617216548 789.7604729200846 L 1101.456795241375 789.6887864533022 L 1101.6365056196014 789.6179088185089 L 1101.8177748854464 789.547847103409 L 1102.0005849121342 789.4786083141158 L 1102.1849174188144 789.4101993744504 L 1102.37075397239 789.3426271252498 L 1102.5580759893605 789.2758983236826 L 1102.7468647376807 789.2100196425733 L 1102.9371013386324 789.1449976697352 L 1103.1287667687145 789.0808389073114 L 1103.3218418615436 789.0175497711245 L 1103.5163073097713 788.9551365900356 L 1103.7121436670147 788.8936056053108 L 1103.9093313498017 788.8329629699972 L 1104.107850639528 788.7732147483077 L 1104.3076816844298 788.7143669150148 L 1104.5088045015698 788.6564253548529 L 1104.7111989788334 788.5993958619295 L 1104.9148448769415 788.5432841391465 L 1105.1197218314744 788.4880957976294 L 1105.325809354907 788.4338363561664 L 1105.533086838659 788.3805112406562 L 1105.7415335551545 788.3281257835663 L 1105.9511286598956 788.2766852233985 L 1106.1618511935467 788.226194704166 L 1106.3736800840297 788.1766592748786 L 1106.5865941486322 788.1280838890381 L 1106.8005720961253 788.0804734041425 L 1107.0155925288925 788.0338325812005 L 1107.2316339450697 787.9881660842558 L 1107.4486747406954 787.9434784799198 L 1107.6666932118706 787.8997742369157 L 1107.8856675569302 787.8570577256316 L 1108.105575878622 787.8153332176828 L 1108.3263961862972 787.7746048854855 L 1108.5481063981088 787.7348768018388 L 1108.7706843432206 787.6961529395182 L 1108.9941077640237 787.6584371708774 L 1109.218354318362 787.621733267462 L 1109.443401581767 787.5860448996317 L 1109.6692270496997 787.5513756361936 L 1109.8958081398016 787.517728944045 L 1110.1231221941528 787.4851081878272 L 1110.351146481537 787.4535166295886 L 1110.5798581997153 787.4229574284587 L 1110.809234477707 787.3934336403323 L 1111.039252378075 787.3649482175634 L 1111.269888899221 787.3375040086706 L 1111.5011209776856 787.3111037580519 L 1111.732925490453 787.2857501057105 L 1111.9652792572654 787.2614455869902 L 1112.1981590429396 787.2381926323229 L 1112.4315415596911 787.2159935669847 L 1112.6654034694627 787.1948506108635 L 1112.8997213862585 787.1747658782373 L 1113.1344718784821 787.1557413775627 L 1113.3696314712797 787.1377790112738 L 1113.6051766488881 787.1208805755923 L 1113.8410838569857 787.1050477603478 L 1114.0773295050485 787.0902821488086 L 1114.3138899687083 787.0765852175233 L 1114.550741592116 787.063958336174 L 1114.7878606903066 787.052402767438 L 1115.0252235515682 787.0419196668628 L 1115.2628064398118 787.0325100827495 L 1115.5005855969473 787.0241749560488 L 1115.7385372452566 787.0169151202664 L 1115.9766375897734 787.0107313013797 L 1116.2148628206614 787.0056241177657 L 1116.4531891155964 787.0015940801383 L 1116.6915926421475 786.9986415914979 L 1116.9300495601603 786.996766947091 L 1117.1685360241422 786.9959703343804 L 1117.4070281856452 786.9962518330268 L 1117.6455021956522 786.9976114148806 L 1117.8839342069605 787.0000489439844 L 1118.1223003765679 787.0035641765878 L 1118.3605768680563 787.0081567611703 L 1118.5987398539746 787.0138262384771 L 1118.8367655182233 787.0205720415654 L 1119.0746300584337 787.0283934958603 L 1119.3123096883505 787.0372898192231 L 1119.5497806402084 787.0472601220288 L 1119.7870191671104 787.0583034072555 L 1120.0240015454015 787.0704185705837 L 1120.260704077041 787.0836044005073 L 1120.4971030919733 787.0978595784542 L 1120.7331749504938 787.1131826789186 L 1120.9688960456135 787.1295721696032 L 1121.2042428054192 787.1470264115726 L 1121.439191695431 787.165543659417 L 1121.673719220956 787.1851220614271 L 1121.9078019294366 787.2057596597792 L 1122.1414164127973 787.2274543907306 L 1122.3745393097845 787.250204084826 L 1122.6071473083025 787.2740064671153 L 1122.8392171477456 787.29885915738 L 1123.0707256213232 787.3247596703717 L 1123.3016495783804 787.3517054160607 L 1123.5319659267147 787.379693699895 L 1123.7616516348826 787.4087217230694 L 1123.990683734505 787.4387865828058 L 1124.2190393225626 787.4698852726434 L 1124.4466955636872 787.5020146827391 L 1124.673629692444 787.5351716001785 L 1124.8998190156094 787.5693527092977 L 1125.1252409144395 787.6045545920141 L 1125.3498728469326 787.6407737281688 L 1125.5736923500822 787.6780064958785 L 1125.7966770421247 787.7162491718973 L 1126.0188046247767 787.7554979319896 L 1126.2400528854653 787.7957488513119 L 1126.4603996995484 787.836997904806 L 1126.6798230325282 787.8792409676009 L 1126.8983009422548 787.9224738154254 L 1127.1158115811186 787.9666921250309 L 1127.3323331982374 788.0118914746232 L 1127.5478441416299 788.058067344305 L 1127.7623228603811 788.1052151165278 L 1127.975747906798 788.1533300765537 L 1128.188097938554 788.2024074129268 L 1128.3993517208226 788.2524422179545 L 1128.6094881284018 788.3034294881977 L 1128.818486147826 788.3553641249721 L 1129.026324879467 788.4082409348571 L 1129.2329835396254 788.4620546302159 L 1129.438441462607 788.5167998297239 L 1129.642678102791 788.5724710589066 L 1129.8456730366834 788.6290627506876 L 1130.04740596496 788.6865692459447 L 1130.247856714496 788.7449847940765 L 1130.4470052403838 788.8043035535768 L 1130.6448316279364 788.864519592619 L 1130.84131609468 788.9256268896495 L 1131.0364389923316 788.9876193339894 L 1131.2301808087643 789.0504907264461 L 1131.4225221699578 789.1142347799325 L 1131.6134438419363 789.1788451200966 L 1131.8029267326915 789.2443152859581 L 1131.9909518940924 789.3106387305551 L 1132.1775005237794 789.3778088215981 L 1132.3625539670452 789.4458188421344 L 1132.5460937186995 789.5146619912183 L 1132.7281014249202 789.5843313845924 L 1132.908558885088 789.6548200553754 L 1133.087448053608 789.7261209547589 L 1133.2647510417119 789.7982269527124 L 1133.4404501192485 789.8711308386963 L 1133.614527716457 789.9448253223827 L 1133.786966425722 790.0193030343845 L 1133.957749003317 790.0945565269927 L 1134.1268583711264 790.1705782749208 L 1134.294277618354 790.2473606760573 L 1134.459990003215 790.324896052226 L 1134.6239789546087 790.403176649954 L 1134.7862280737766 790.4821946412468 L 1134.9467211359422 790.5619421243708 L 1135.105442091933 790.6424111246446 L 1135.2623750697855 790.723593595235 L 1135.417504376333 790.8054814179625 L 1135.5708144987736 790.8880664041133 L 1135.7222901062235 790.9713402952573 L 1135.8719160512476 791.055294764075 L 1136.0196773713765 791.1399214151895 L 1136.1655592906009 791.2252117860062 L 1136.3095472208508 791.311157347559 L 1136.451626763453 791.3977495053633 L 1136.5917837105717 791.4849796002757 L 1136.730004046629 791.5728389093592 L 1136.8662739497063 791.6613186467563 L 1137.000579792927 791.7504099645669 L 1137.1329081458189 791.8401039537333 L 1137.2632457756565 791.9303916449315 L 1137.3915796487859 792.0212640094677 L 1137.5178969319265 792.1127119601811 L 1137.6421849934552 792.2047263523527 L 1137.7644314046697 792.2972979846201 L 1137.8846239410304 792.3904175998972 L 1138.0027505833839 792.4840758863 L 1138.1187995191647 792.578263478078 L 1138.2327591435755 792.6729709565504 L 1138.344618060749 792.7681888510485 L 1138.454365084887 792.863907639862 L 1138.5619892413781 792.9601177511918 L 1138.6674797678966 793.056809564107 L 1138.7708261154778 793.1539734095068 L 1138.8720179495726 793.2515995710877 L 1138.9710451510825 793.3496782863149 L 1139.0678978173696 793.4481997473986 L 1139.162566263248 793.5471541022747 L 1139.255041021952 793.6465314555903 L 1139.3453128460826 793.7463218696929 L 1139.433372708533 793.8465153656242 L 1139.5192118033901 793.9471019241181 L 1139.602821546816 794.0480714866025 L 1139.684193577906 794.1494139562054 L 1139.7633197595248 794.2511191987642 L 1139.8401921791203 794.3531770438394 L 1139.9148031495145 794.4555772857317 L 1139.9871452096725 794.5583096845021 L 1140.0572111254487 794.6613639669964 L 1140.1249938903097 794.7647298278721 L 1140.1904867260357 794.8683969306294 L 1140.2536830833976 794.9723549086443 L 1140.3145766428122 795.0765933662058 L 1140.3731613149748 795.1811018795548 L 1140.4294312414663 795.2858699979272 L 1140.4833807953416 795.3908872445984 L 1140.5350045816897 795.4961431179313 L 1140.5842974381756 795.6016270924262 L 1140.631254435554 795.7073286197736 L 1140.675870878165 795.8132371299089 L 1140.718142304401 795.9193420320692 L 1140.7580644871548 796.0256327158529 L 1140.7956334342414 796.13209855228 L 1140.8308453887976 796.2387288948557 L 1140.8636968296569 796.3455130806346 L 1140.8941844717026 796.4524404312871 L 1140.9223052661964 796.5595002541671 L 1140.9480564010819 796.6666818433819 L 1140.9714353012669 796.7739744808614 L 1140.9924396288814 796.8813674374315 L 1141.0110672835094 796.9888499738862 L 1141.0273164024018 797.0964113420613 L 1141.0411853606597 797.2040407859095 L 1141.0526727713989 797.3117275425761 L 1141.0617774858881 797.4194608434755 L 1141.0684985936632 797.5272299153669 L 1141.0728354226194 797.6350239814333 L 1141.0747875390769 797.7428322623578 M 1141.074908529133 832.0811006769183 L 1141.0737160692292 832.1889112218349 L 1141.0701388087632 832.2967109857868 L 1141.0641771054577 832.4044891888876 L 1141.0558315554786 832.5122350534067 L 1141.0451029933733 832.6199378048474 L 1141.0319924919895 832.7275866730242 L 1141.0165013623662 832.8351708931403 L 1140.9986311536036 832.9426797068631 L 1140.9783836527076 833.0501023634009 L 1140.9557608844113 833.1574281205776 L 1140.930765110973 833.2646462459068 L 1140.903398831949 833.3717460176654 L 1140.8736647839444 833.4787167259655 L 1140.8415659403393 833.5855476738253 L 1140.807105510991 833.6922281782391 L 1140.7702869419143 833.7987475712455 L 1140.7311139149351 833.9050952009936 L 1140.6895903473232 834.0112604328095 L 1140.6457203914013 834.1172326502582 L 1140.599508434128 834.2230012562063 L 1140.5509590966606 834.3285556738815 L 1140.5000772338926 834.4338853479297 L 1140.4468679339675 834.5389797454716 L 1140.3913365177714 834.6438283571548 L 1140.3334885383995 834.7484206982057 L 1140.2733297806012 834.8527463094771 L 1140.2108662602025 834.9567947584949 L 1140.1461042235035 835.060555640501 L 1140.0790501466533 835.1640185794937 L 1140.0097107350043 835.2671732292652 L 1139.9380929224399 835.3700092744364 L 1139.8642038706812 835.4725164314887 L 1139.788050968572 835.5746844497917 L 1139.7096418313392 835.6765031126287 L 1139.6289842998312 835.7779622382183 L 1139.5460864397337 835.8790516807323 L 1139.4609565407638 835.9797613313111 L 1139.3736031158405 836.0800811190733 L 1139.2840349002333 836.1800010121237 L 1139.192260850689 836.2795110185564 L 1139.0982901445368 836.3786011874536 L 1139.0021321787683 836.4772616098809 L 1138.9037965691 836.5754824198783 L 1138.8032931490113 836.6732537954468 L 1138.70063196876 836.7705659595302 L 1138.595823294379 836.8674091809933 L 1138.4888776066482 836.9637737755945 L 1138.3798056000473 837.0596501069548 L 1138.268618181686 837.1550285875207 L 1138.1553264702134 837.249899679524 L 1138.0399417947065 837.3442538959342 L 1137.9224756935364 837.4380818014085 L 1137.8029399132156 837.5313740132345 L 1137.6813464072222 837.6241212022687 L 1137.5577073348059 837.7163140938696 L 1137.4320350597704 837.8079434688248 L 1137.304342149239 837.899000164273 L 1137.174641372396 837.9894750746209 L 1137.042945699211 838.0793591524526 L 1136.9092682991418 838.1686434094353 L 1136.7736225398169 838.2573189172176 L 1136.636021985699 838.3453768083227 L 1136.496480396729 838.432808277035 L 1136.35501172695 838.5196045802803 L 1136.2116301231101 838.6057570385007 L 1136.0663499232508 838.691257036522 L 1135.9191856552711 838.7760960244159 L 1135.770152035475 838.8602655183541 L 1135.6192639671 838.9437571014575 L 1135.4665365388278 839.0265624246374 L 1135.3119850232733 839.1086732074302 L 1135.1556248754598 839.1900812388265 L 1134.9974717312716 839.2707783780905 L 1134.8375414058914 839.3507565555759 L 1134.6758498922181 839.4300077735313 L 1134.5124133592687 839.5085241069013 L 1134.3472481505603 839.5862977041177 L 1134.180370782476 839.6633207878857 L 1134.0117979426136 839.7395856559612 L 1133.8415464881164 839.8150846819207 L 1133.6696334439882 839.8898103159247 L 1133.4960760013903 839.963755085472 L 1133.3208915159219 840.0369115961474 L 1133.1440975058858 840.1092725323606 L 1132.9657116505357 840.1808306580784 L 1132.7857517883085 840.251578817548 L 1132.6042359150404 840.321509936012 L 1132.4211821821675 840.3906170204173 L 1132.2366088949104 840.4588931601127 L 1132.0505345104443 840.5263315275412 L 1131.8629776360524 840.5929253789224 L 1131.6739570272657 840.6586680549265 L 1131.4834915859878 840.7235529813407 L 1131.291600358604 840.7875736697266 L 1131.0983025340772 840.8507237180686 L 1130.9036174420287 840.9129968114144 L 1130.7075645508055 840.9743867225067 L 1130.5101634655334 841.0348873124054 L 1130.3114339261563 841.0944925311021 L 1130.1113958054625 841.1531964181245 L 1129.9100691070976 841.2109931031328 L 1129.7074739635634 841.2678768065067 L 1129.5036306342058 841.3238418399233 L 1129.2985595031873 841.3788826069258 L 1129.0922810774507 841.4329936034835 L 1128.8848159846664 841.4861694185417 L 1128.6761849711706 841.5384047345633 L 1128.4664088998911 841.5896943280602 L 1128.2555087482601 841.6400330701158 L 1128.0435056061172 841.6894159268977 L 1127.8304206735995 841.7378379601616 L 1127.616275259023 841.7852943277445 L 1127.4010907767508 841.831780284049 L 1127.1848887450517 841.8772911805185 L 1126.9676907839485 841.9218224661009 L 1126.7495186130564 841.9653696877051 L 1126.530394049411 842.007928490645 L 1126.3103390052856 842.0494946190759 L 1126.0893754860015 842.0900639164196 L 1125.8675255877265 842.12963232578 L 1125.6448114952655 842.1681958903494 L 1125.421255479842 842.2057507538032 L 1125.1968798968715 842.2422931606866 L 1124.9717071837251 842.2778194567892 L 1124.7457598574867 842.312326089511 L 1124.5190605127007 842.3458096082177 L 1124.2916318191121 842.378266664585 L 1124.0634965194015 842.4096940129346 L 1123.834677426908 842.4400885105576 L 1123.6051974233508 842.4694471180297 L 1123.3750794565387 842.4977668995148 L 1123.1443465380767 842.5250450230579 L 1122.9130217410643 842.5512787608699 L 1122.6811281977884 842.5764654895985 L 1122.4486890974104 842.6006026905919 L 1122.2157276836463 842.6236879501503 L 1121.9822672524433 842.6457189597667 L 1121.7483311496503 842.6666935163587 L 1121.5139427686825 842.6866095224881 L 1121.2791255481825 842.7054649865707 L 1121.0439029696768 842.723258023076 L 1120.808298555227 842.7399868527152 L 1120.572335865079 842.7556498026191 L 1120.3360384953041 842.7702453065059 L 1120.099430075443 842.7837719048373 L 1119.8625342661405 842.7962282449648 L 1119.62537475678 842.8076130812648 L 1119.3879752631149 842.817925275263 L 1119.1503595248964 842.8271637957487 L 1118.9125513035008 842.8353277188776 L 1118.6745743795518 842.842416228264 L 1118.4364525505434 842.8484286150631 L 1118.19820962846 842.8533642780411 L 1117.9598694373958 842.8572227236359 L 1117.7214558111707 842.8600035660061 L 1117.4829925909492 842.8617065270697 L 1117.244503622854 842.8623314365321 L 1117.0060127555835 842.8618782319029 L 1116.7675438380256 842.8603469585022 L 1116.5291207168734 842.857737769456 L 1116.2907672342403 842.8540509256809 L 1116.052507225276 842.8492867958586 L 1115.8143645157827 842.8434458563977 L 1115.576362919833 842.8365286913875 L 1115.3385262373881 842.8285359925386 L 1115.1008782519182 842.8194685591144 L 1114.8634427280238 842.8093272978505 L 1114.626243409059 842.7981132228647 L 1114.3893040147586 842.7858274555551 L 1114.1526482388642 842.7724712244883 L 1113.9162997467565 842.7580458652761 L 1113.6802821730876 842.7425528204426 L 1113.444619119418 842.7259936392792 L 1113.2093341518569 842.7083699776903 L 1112.9744507987048 842.6896835980273 L 1112.7399925481016 842.6699363689125 L 1112.5059828456765 842.6491302650528 L 1112.2724450922053 842.6272673670408 L 1112.0394026412682 842.6043498611482 L 1111.8068787969166 842.5803800391066 L 1111.5748968113407 842.5553602978781 L 1111.343479882546 842.529293139416 L 1111.1126511520326 842.5021811704145 L 1110.882433702481 842.4740271020479 L 1110.6528505554445 842.4448337496995 L 1110.4239246690463 842.4146040326801 L 1110.1956789356843 842.3833409739365 L 1109.9681361797416 842.3510476997484 L 1109.7413191553044 842.3177274394161 L 1109.5152505438857 842.2833835249382 L 1109.2899529521587 842.2480193906773 L 1109.0654489096949 842.2116385730175 L 1108.841760866711 842.1742447100102 L 1108.618911191825 842.1358415410103 L 1108.396922169819 842.0964329063031 L 1108.1758159994097 842.056022746719 L 1107.9556147910305 842.0146151032403 L 1107.736340564618 841.9722141165969 L 1107.518015247413 841.9288240268521 L 1107.3006606717647 841.8844491729787 L 1107.0842985729496 841.8390939924252 L 1106.8689505869972 841.7927630206717 L 1106.654638248527 841.7454608907768 L 1106.441382988594 841.6971923329143 L 1106.2292061325463 841.6479621738995 L 1106.0181288978931 841.5977753367073 L 1105.8081723921819 841.5466368399797 L 1105.5993576108879 841.4945517975236 L 1105.3917054353155 841.4415254178001 L 1105.1852366305093 841.3875630034029 L 1104.9799718431777 841.3326699505283 L 1104.7759315996282 841.2768517484359 L 1104.5731363037153 841.2201139788996 L 1104.3716062347996 841.1624623156488 L 1104.1713615457197 841.1039025238019 L 1103.9724222607783 841.0444404592894 L 1103.7748082737376 840.984082068268 L 1103.5785393458316 840.9228333865266 L 1103.3836351037899 840.8607005388823 L 1103.1901150378737 840.7976897385681 L 1102.997998499929 840.7338072866116 L 1102.8073047014493 840.6690595712047 L 1102.6180527116553 840.603453067065 L 1102.4302614555884 840.5369943347881 L 1102.2439497122177 840.469690020192 L 1102.0591361125623 840.4015468536521 L 1101.8758391378283 840.3325716494282 L 1101.69407711756 840.2627713049833 L 1101.5138682278084 840.1921528002936 L 1101.3352304893122 840.1207231971507 L 1101.1581817656963 840.0484896384554 L 1100.9827397616855 839.9754593475035 L 1100.808922021334 839.9016396272632 L 1100.636745926271 839.8270378596449 L 1100.4662286939629 839.7516615047632 L 1100.2973873759902 839.6755181001909 L 1100.1302388563442 839.5986152602048 L 1099.9647998497378 839.5209606750251 L 1099.8010868999338 839.4425621100454 L 1099.6391163780904 839.363427405057 L 1099.478904481125 839.2835644734643 L 1099.320467230094 839.2029813014939 L 1099.1638204685903 839.121685947396 L 1099.0089798611593 839.0396865406382 L 1098.855960891733 838.9569912810928 L 1098.7047788620807 838.8736084382169 L 1098.5554488902794 838.7895463502252 L 1098.407985909202 838.7048134232566 L 1098.2624046650235 838.6194181305332 L 1098.118719715747 838.5333690115128 L 1097.9769454297477 838.446674671036 L 1097.8370959843362 838.3593437784643 L 1097.6991853643406 838.2713850668143 L 1097.5632273607075 838.182807331884 L 1097.4292355691246 838.0936194313728 L 1097.2972233886587 838.0038302839966 L 1097.1672040204185 837.9134488685953 L 1097.039190466232 837.822484223235 L 1096.913195527348 837.7309454443048 L 1096.7892318031556 837.6388416856058 L 1096.667311689924 837.5461821574374 L 1096.5474473795625 837.4529761256753 L 1096.4296508584025 837.3592329108448 L 1096.313933905998 837.2649618871893 L 1096.200308093948 837.1701724817327 L 1096.0887847847384 837.0748741733364 L 1095.9793751306079 836.979076491752 L 1095.8720900724302 836.8827890166679 L 1095.766940338622 836.786021376751 L 1095.663936444069 836.6887832486849 L 1095.5630886890747 836.5910843562013 L 1095.4644071583305 836.4929344691083 L 1095.3679017199076 836.3943434023124 L 1095.273582024269 836.2953210148384 L 1095.181457503306 836.1958772088424 L 1095.0915373693938 836.0960219286222 L 1095.0038306144709 835.9957651596226 L 1094.9183460091397 835.8951169274369 L 1094.8350921017893 835.7940872968045 L 1094.7540772177415 835.6926863706043 L 1094.6753094584167 835.5909242888442 L 1094.5987967005253 835.488811227648 L 1094.5245465952796 835.3863573982363 L 1094.4525665676279 835.2835730459069 L 1094.3828638155132 835.1804684490094 L 1094.3154453091527 835.0770539179174 L 1094.2503177903407 834.9733397939979 L 1094.1874877717748 834.869336448577 L 1094.1269615364047 834.7650542819023 L 1094.0687451368033 834.6605037221038 L 1094.0128443945619 834.5556952241503 L 1093.9592648997084 834.4506392688041 L 1093.9080120101478 834.3453463615735 L 1093.8590908511258 834.2398270316612 L 1093.8125063147181 834.1340918309124 L 1093.768263059339 834.028151332759 L 1093.7263655092777 833.9220161311625 L 1093.6868178542538 833.8156968395548 L 1093.6496240490003 833.7092040897762 L 1093.6147878128663 833.6025485310131 L 1093.5823126294467 833.4957408287326 L 1093.5522017462326 833.3887916636156 L 1093.5244581742875 833.2817117304897 L 1093.499084687945 833.174511737259 L 1093.4760838245331 833.0672024038333 L 1093.4554578841187 832.9597944610568 L 1093.4372089292785 832.8522986496341 L 1093.4213387848931 832.7447257190569 L 1093.4078490379636 832.6370864265283 L 1093.3967410374535 832.5293915358882 L 1093.3880158941533 832.4216518165357 L 1093.3816744805704 832.313878042353 L 1093.3777174308407 832.2060809906278 L 1093.376145140666 832.0982714409754" stroke-miterlimit="10" stroke-width="2.7769845610000004" stroke-dasharray=""/></g><g><g/><text fill="black" stroke="none" font-family="sans-serif" font-size="11pt" font-style="normal" font-weight="normal" text-decoration="normal" x="1085.8475667648438" y="780.5108638588182" text-anchor="start" dominant-baseline="alphabetic" xml:space="preserve">Database</text></g></g><g><path fill="white" stroke="black" paint-order="fill stroke markers" d=" M 73.50841485 136.90385383881818 L 89.84361814999998 136.90385383881818 L 89.84361814999998 707.0024490088182 L 73.50841485 707.0024490088182 L 73.50841485 136.90385383881818" stroke-miterlimit="10" stroke-width="1.3612669416666667" stroke-dasharray=""/><path fill="white" stroke="black" paint-order="fill stroke markers" d=" M 463.3038337452474 136.90385383881818 L 479.6390370452474 136.90385383881818 L 479.6390370452474 707.0024490088182 L 463.3038337452474 707.0024490088182 L 463.3038337452474 136.90385383881818" stroke-miterlimit="10" stroke-width="1.3612669416666667" stroke-dasharray=""/><path fill="white" stroke="black" paint-order="fill stroke markers" d=" M 809.2911013953776 274.1195615588182 L 825.6263046953777 274.1195615588182 L 825.6263046953777 707.0024490088182 L 809.2911013953776 707.0024490088182 L 809.2911013953776 274.1195615588182" stroke-miterlimit="10" stroke-width="1.3612669416666667" stroke-dasharray=""/><path fill="white" stroke="black" paint-order="fill stroke markers" d=" M 1109.0579100611328 319.8581307988182 L 1125.393113361133 319.8581307988182 L 1125.393113361133 411.3352692788182 L 1109.0579100611328 411.3352692788182 L 1109.0579100611328 319.8581307988182" stroke-miterlimit="10" stroke-width="1.3612669416666667" stroke-dasharray=""/><g><text fill="black" stroke="none" font-family="sans-serif" font-size="16pt" font-style="normal" font-weight="normal" text-decoration="normal" x="428.39349365234375" y="24.651306798181814" text-anchor="start" dominant-baseline="alphabetic" xml:space="preserve">Lydanhschdchvtheonh</text></g><g><rect fill="white" stroke="none" x="155.13636964695965" y="161.4066587888182" width="242.87471260132813" height="21.23576429"/><text fill="black" stroke="none" font-family="sans-serif" font-size="11pt" font-style="normal" font-weight="normal" text-decoration="normal" x="157.58665014195964" y="176.10834175881817" text-anchor="start" dominant-baseline="alphabetic" xml:space="preserve">Chnnhxemdanhschdchv</text></g><g><path fill="none" stroke="black" paint-order="fill stroke markers" d=" M 89.84361814999998 182.64242307881818 L 449.85451636158075 182.64242307881818" stroke-miterlimit="10" stroke-width="1.3612669416666667" stroke-dasharray=""/><g transform="translate(463.3038337452474,182.64242307881818) translate(-463.3038337452474,-182.64242307881818)"><path fill="black" stroke="none" paint-order="stroke fill markers" d=" M 449.6911643285807 175.83608837048484 L 463.3038337452474 182.64242307881818 L 449.6911643285807 189.44875778715152 Z"/></g></g><g><rect fill="white" stroke="none" x="227.673929156237" y="207.1452280288182" width="97.79959358277344" height="21.23576429"/><text fill="black" stroke="none" font-family="sans-serif" font-size="11pt" font-style="normal" font-weight="normal" text-decoration="normal" x="230.12420965123698" y="221.84691099881817" text-anchor="start" dominant-baseline="alphabetic" xml:space="preserve">Hinthblc</text></g><g><path fill="none" stroke="black" paint-order="fill stroke markers" d=" M 463.3038337452474 228.3809923188182 L 103.29293553366665 228.3809923188182" stroke-miterlimit="10" stroke-width="1.3612669416666667" stroke-dasharray="6.53408132"/><g transform="translate(89.84361814999998,228.3809923188182) translate(-89.84361814999998,-228.3809923188182)"><path fill="black" stroke="none" paint-order="stroke fill markers" d=" M 103.45628756666665 221.57465761048485 L 89.84361814999998 228.3809923188182 L 103.45628756666665 235.18732702715153 Z"/></g></g><g><rect fill="white" stroke="none" x="204.84644502537762" y="252.88379726881823" width="143.4545618444922" height="21.23576429"/><text fill="black" stroke="none" font-family="sans-serif" font-size="11pt" font-style="normal" font-weight="normal" text-decoration="normal" x="207.2967255203776" y="267.5854802388182" text-anchor="start" dominant-baseline="alphabetic" xml:space="preserve">Nhpthngtinblc</text></g><g><path fill="none" stroke="black" paint-order="fill stroke markers" d=" M 89.84361814999998 274.1195615588182 L 449.85451636158075 274.1195615588182" stroke-miterlimit="10" stroke-width="1.3612669416666667" stroke-dasharray=""/><g transform="translate(463.3038337452474,274.1195615588182) translate(-463.3038337452474,-274.1195615588182)"><path fill="black" stroke="none" paint-order="stroke fill markers" d=" M 449.6911643285807 267.31322685048485 L 463.3038337452474 274.1195615588182 L 449.6911643285807 280.92589626715153 Z"/></g></g><g><rect fill="white" stroke="none" x="498.969027616914" y="298.6223665088182" width="290.9920526892187" height="21.23576429"/><text fill="black" stroke="none" font-family="sans-serif" font-size="11pt" font-style="normal" font-weight="normal" text-decoration="normal" x="501.419308111914" y="313.32404947881815" text-anchor="start" dominant-baseline="alphabetic" xml:space="preserve">Giyuculydanhschdchvtheonh</text></g><g><path fill="none" stroke="black" paint-order="fill stroke markers" d=" M 479.6390370452474 319.8581307988182 L 795.841784011711 319.8581307988182" stroke-miterlimit="10" stroke-width="1.3612669416666667" stroke-dasharray=""/><g transform="translate(809.2911013953776,319.8581307988182) translate(-809.2911013953776,-319.8581307988182)"><path fill="black" stroke="none" paint-order="stroke fill markers" d=" M 795.6784319787109 313.05179609048486 L 809.2911013953776 319.8581307988182 L 795.6784319787109 326.66446550715153 Z"/></g></g><g><rect fill="white" stroke="none" x="844.9562952670443" y="344.3609357488182" width="244.77162422242188" height="21.23576429"/><text fill="black" stroke="none" font-family="sans-serif" font-size="11pt" font-style="normal" font-weight="normal" text-decoration="normal" x="847.4065757620443" y="359.06261871881816" text-anchor="start" dominant-baseline="alphabetic" xml:space="preserve">Truyvndanhschdchvtheonh</text></g><g><path fill="none" stroke="black" paint-order="fill stroke markers" d=" M 825.6263046953777 365.5967000388182 L 1095.608592677466 365.5967000388182" stroke-miterlimit="10" stroke-width="1.3612669416666667" stroke-dasharray=""/><g transform="translate(1109.0579100611328,365.5967000388182) translate(-1109.0579100611328,-365.5967000388182)"><path fill="black" stroke="none" paint-order="stroke fill markers" d=" M 1095.4452406444661 358.79036533048486 L 1109.0579100611328 365.5967000388182 L 1095.4452406444661 372.40303474715154 Z"/></g></g><g><rect fill="white" stroke="none" x="883.2669489535677" y="390.0995049888182" width="168.150316849375" height="21.23576429"/><text fill="black" stroke="none" font-family="sans-serif" font-size="11pt" font-style="normal" font-weight="normal" text-decoration="normal" x="885.7172294485678" y="404.80118795881816" text-anchor="start" dominant-baseline="alphabetic" xml:space="preserve">Trvdanhschdchv</text></g><g><path fill="none" stroke="black" paint-order="fill stroke markers" d=" M 1109.0579100611328 411.3352692788182 L 839.0756220790444 411.3352692788182" stroke-miterlimit="10" stroke-width="1.3612669416666667" stroke-dasharray="6.53408132"/><g transform="translate(825.6263046953777,411.3352692788182) translate(-825.6263046953777,-411.3352692788182)"><path fill="black" stroke="none" paint-order="stroke fill markers" d=" M 839.2389741120444 404.52893457048486 L 825.6263046953777 411.3352692788182 L 839.2389741120444 418.14160398715154 Z"/></g></g><g><rect fill="white" stroke="none" x="538.7936430954296" y="479.9431231388182" width="211.34285224976563" height="21.23576429"/><text fill="black" stroke="none" font-family="sans-serif" font-size="11pt" font-style="normal" font-weight="normal" text-decoration="normal" x="541.2439235904296" y="494.64480610881816" text-anchor="start" dominant-baseline="alphabetic" xml:space="preserve">Trvdanhschdchvlc</text></g><g><path fill="none" stroke="black" paint-order="fill stroke markers" d=" M 809.2911013953776 501.1788874288182 L 493.08835442891404 501.1788874288182" stroke-miterlimit="10" stroke-width="1.3612669416666667" stroke-dasharray="6.53408132"/><g transform="translate(479.6390370452474,501.1788874288182) translate(-479.6390370452474,-501.1788874288182)"><path fill="black" stroke="none" paint-order="stroke fill markers" d=" M 493.25170646191407 494.37255272048486 L 479.6390370452474 501.1788874288182 L 493.25170646191407 507.98522213715154 Z"/></g></g><g><rect fill="white" stroke="none" x="157.57731813328778" y="525.6816923788182" width="237.99281562867188" height="21.23576429"/><text fill="black" stroke="none" font-family="sans-serif" font-size="11pt" font-style="normal" font-weight="normal" text-decoration="normal" x="160.02759862828776" y="540.3833753488182" text-anchor="start" dominant-baseline="alphabetic" xml:space="preserve">Hinthdanhschdchvtheonh</text></g><g><path fill="none" stroke="black" paint-order="fill stroke markers" d=" M 463.3038337452474 546.9174566688182 L 103.29293553366665 546.9174566688182" stroke-miterlimit="10" stroke-width="1.3612669416666667" stroke-dasharray="6.53408132"/><g transform="translate(89.84361814999998,546.9174566688182) translate(-89.84361814999998,-546.9174566688182)"><path fill="black" stroke="none" paint-order="stroke fill markers" d=" M 103.45628756666665 540.1111219604849 L 89.84361814999998 546.9174566688182 L 103.45628756666665 553.7237913771515 Z"/></g></g><g><rect fill="white" stroke="none" x="532.2617827438671" y="615.5253105288182" width="224.40657295289063" height="21.23576429"/><text fill="black" stroke="none" font-family="sans-serif" font-size="11pt" font-style="normal" font-weight="normal" text-decoration="normal" x="534.7120632388671" y="630.2269934988182" text-anchor="start" dominant-baseline="alphabetic" xml:space="preserve">Trvthngbodanhschtrng</text></g><g><path fill="none" stroke="black" paint-order="fill stroke markers" d=" M 809.2911013953776 636.7610748188182 L 493.08835442891404 636.7610748188182" stroke-miterlimit="10" stroke-width="1.3612669416666667" stroke-dasharray="6.53408132"/><g transform="translate(479.6390370452474,636.7610748188182) translate(-479.6390370452474,-636.7610748188182)"><path fill="black" stroke="none" paint-order="stroke fill markers" d=" M 493.25170646191407 629.9547401104849 L 479.6390370452474 636.7610748188182 L 493.25170646191407 643.5674095271515 Z"/></g></g><g><rect fill="white" stroke="none" x="109.17360872166667" y="661.2638797688181" width="334.80018867554685" height="21.23576429"/><text fill="black" stroke="none" font-family="sans-serif" font-size="11pt" font-style="normal" font-weight="normal" text-decoration="normal" x="111.62388921666667" y="675.9655627388181" text-anchor="start" dominant-baseline="alphabetic" xml:space="preserve">Hinththngbo"Khngcdchvchonhny"</text></g><g><path fill="none" stroke="black" paint-order="fill stroke markers" d=" M 463.3038337452474 682.4996440588181 L 103.29293553366665 682.4996440588181" stroke-miterlimit="10" stroke-width="1.3612669416666667" stroke-dasharray="6.53408132"/><g transform="translate(89.84361814999998,682.4996440588181) translate(-89.84361814999998,-682.4996440588181)"><path fill="black" stroke="none" paint-order="stroke fill markers" d=" M 103.45628756666665 675.6933093504848 L 89.84361814999998 682.4996440588181 L 103.45628756666665 689.3059787671515 Z"/></g></g><g><g/><path fill="none" stroke="black" paint-order="fill stroke markers" d=" M 16.33520329999999 435.8380742288182 L 874.6319145953777 435.8380742288182 L 874.6319145953777 707.0024490088182 L 16.33520329999999 707.0024490088182 L 16.33520329999999 435.8380742288182 Z" stroke-miterlimit="10" stroke-width="2.3336004714285714" stroke-dasharray=""/><path fill="white" stroke="black" paint-order="fill stroke markers" d=" M 16.33520329999999 435.8380742288182 L 16.33520329999999 455.4403181888182 L 62.6944068970703 455.4403181888182 L 72.4955288770703 445.6391962088182 L 72.4955288770703 435.8380742288182 L 16.33520329999999 435.8380742288182" stroke-miterlimit="10" stroke-width="2.3336004714285714" stroke-dasharray=""/><text fill="black" stroke="none" font-family="sans-serif" font-size="8.8pt" font-style="normal" font-weight="bold" text-decoration="normal" x="32.67040659999999" y="448.9062368688182" text-anchor="start" dominant-baseline="alphabetic" xml:space="preserve">alt</text><g><rect fill="white" stroke="none" x="86.3804516820703" y="437.1448904928182" width="143.70160163941406" height="16.988611432000003"/></g><text fill="black" stroke="none" font-family="sans-serif" font-size="8.8pt" font-style="normal" font-weight="bold" text-decoration="normal" x="88.8307321770703" y="448.9062368688182" text-anchor="start" dominant-baseline="alphabetic" xml:space="preserve">[Danhschkhngtrng]</text><g><path fill="none" stroke="black" paint-order="fill stroke markers" d=" M 16.33520329999999 571.4202616188182 L 874.6319145953777 571.4202616188182" stroke-miterlimit="10" stroke-width="2.3336004714285714" stroke-dasharray="4.083800825"/></g><g/><g><rect fill="white" stroke="none" x="86.3804516820703" y="572.7270778828182" width="105.25839485230469" height="16.988611432000003"/></g><text fill="black" stroke="none" font-family="sans-serif" font-size="8.8pt" font-style="normal" font-weight="bold" text-decoration="normal" x="88.8307321770703" y="584.4884242588182" text-anchor="start" dominant-baseline="alphabetic" xml:space="preserve">[Danhschtrng]</text></g><g/></g><g/><g/><g/><g/></g></svg>