<svg xmlns="http://www.w3.org/2000/svg" xmlns:xlink="http://www.w3.org/1999/xlink" version="1.1" width="1084.6138390021486" height="830.333233923818"><desc>title%20Ch%E1%BB%89nh%20s%E1%BB%ADa%20d%E1%BB%8Bch%20v%E1%BB%A5%0A%0Abottomparticipants%0A%0Aactor%20Landlord%0Aentity%20Client%0Aentity%20Backend%0Adatabase%20Database%0A%0ALandlord%20-%3E%20Client%3A%20Ch%E1%BB%8Dn%20d%E1%BB%8Bch%20v%E1%BB%A5%20c%E1%BA%A7n%20ch%E1%BB%89nh%20s%E1%BB%ADa%20v%C3%A0%20nh%E1%BA%ADp%20th%C3%B4ng%20tin%20m%E1%BB%9Bi%0Aactivate%20Landlord%0Aactivate%20Client%0A%0AClient%20-%3E%20Backend%3A%20G%E1%BB%ADi%20ID%20d%E1%BB%8Bch%20v%E1%BB%A5%20v%C3%A0%20th%C3%B4ng%20tin%20m%E1%BB%9Bi%0Aactivate%20Backend%0A%0ABackend%20-%3E%20Backend%3A%20Ki%E1%BB%83m%20tra%20quy%E1%BB%81n%0Aalt%20Quy%E1%BB%81n%20h%E1%BB%A3p%20l%E1%BB%87%0A%20%20%20%20Backend%20-%3E%20Database%3A%20C%E1%BA%ADp%20nh%E1%BA%ADt%20th%C3%B4ng%20tin%20d%E1%BB%8Bch%20v%E1%BB%A5%0A%20%20%20%20activate%20Database%0A%20%20Database%20--%3E%20Backend%3A%20X%C3%A1c%20nh%E1%BA%ADn%20c%E1%BA%ADp%20nh%E1%BA%ADt%20th%C3%A0nh%20c%C3%B4ng%0A%20%20%20%20Backend%20--%3E%20Client%3A%20Th%C3%B4ng%20b%C3%A1o%20ch%E1%BB%89nh%20s%E1%BB%ADa%20th%C3%A0nh%20c%C3%B4ng%0A%20%20%20%20Client%20--%3E%20Landlord%3A%20Hi%E1%BB%83n%20th%E1%BB%8B%20th%C3%B4ng%20b%C3%A1o%20th%C3%A0nh%20c%C3%B4ng%0Aelse%20Quy%E1%BB%81n%20kh%C3%B4ng%20h%E1%BB%A3p%20l%E1%BB%87%0A%20%20%20%20Backend%20--%3E%20Client%3A%20Th%C3%B4ng%20b%C3%A1o%20l%E1%BB%97i%20quy%E1%BB%81n%20truy%20c%E1%BA%ADp%0A%20%20%20%20Client%20--%3E%20Landlord%3A%20Hi%E1%BB%83n%20th%E1%BB%8B%20th%C3%B4ng%20b%C3%A1o%20th%E1%BA%A5t%20b%E1%BA%A1i%0Aend%0A%0Adeactivate%20Backend%0Adeactivate%20Client%0Adeactivate%20Landlord%0Adeactivate%20Database</desc><defs/><g><g/><g/><g/><g/><g/><g/><g/><g/><g/><g/><g/><g/><g/><g/><g/><g/><g/><g/><g/><g/><g/><g/><g/><g/><g/><g/><g/><g/><g/><g/><g/><g/><g/><g/><g/><g/><g/><g/><g/><g/><g/><g/><g/><g/><g/><g/><g/><g/><g/><g/><g/><g/><g/><g/><g/><g/><g/><g/><g/><g/><g/><g/><g/><g/><g/><g/><g/><g/><g/><g/><g/><g/><g/><g/><g/><g/><g/><g/><g/><g/><g/><g/><g/><g/><g/><g/><g/><g/><g/><g/><g/><g/><g/><g/><g/><g/><g/><g/><g/><g/><g/><g/><g/><g/><g/><g/><g/><g/><g/><g/><g/><g/><g/><g/><g/><g/><g/><g/><g/><g/><g/><g/><g/><g/><g><rect fill="white" stroke="none" x="0" y="0" width="1084" height="830"/></g><g/><g><path fill="none" stroke="black" paint-order="fill stroke markers" d=" M 81.67601649999999 128.73625218881818 L 81.67601649999999 739.672855608818" stroke-miterlimit="10" stroke-width="1.3612669416666667" stroke-dasharray="12.565541,5.445067766666667"/><path fill="none" stroke="black" paint-order="fill stroke markers" d=" M 469.0519712839193 128.73625218881818 L 469.0519712839193 739.672855608818" stroke-miterlimit="10" stroke-width="1.3612669416666667" stroke-dasharray="12.565541,5.445067766666667"/><path fill="none" stroke="black" paint-order="fill stroke markers" d=" M 744.1588220639323 128.73625218881818 L 744.1588220639323 739.672855608818" stroke-miterlimit="10" stroke-width="1.3612669416666667" stroke-dasharray="12.565541,5.445067766666667"/><path fill="none" stroke="black" paint-order="fill stroke markers" d=" M 1002.9378225021485 128.73625218881818 L 1002.9378225021485 739.672855608818" stroke-miterlimit="10" stroke-width="1.3612669416666667" stroke-dasharray="12.565541,5.445067766666667"/></g><g><g><path fill="white" stroke="black" paint-order="fill stroke markers" d=" M 90.987082381 59.63834222981819 A 9.311065881 9.311065881 0 1 1 90.98707772546743 59.62903116548903 M 81.67601649999999 68.9494081108182 L 81.67601649999999 88.8783561368182 M 69.914670124 76.13689756281819 L 93.43736287599998 76.13689756281819 M 81.67601649999999 88.8783561368182 L 69.914670124 107.50048789881819 M 81.67601649999999 88.8783561368182 L 93.43736287599998 107.50048789881819" stroke-miterlimit="10" stroke-width="2.7769845610000004" stroke-dasharray=""/></g><g><g/><text fill="black" stroke="none" font-family="sans-serif" font-size="11pt" font-style="normal" font-weight="normal" text-decoration="normal" x="53.1470400595703" y="123.83569119881818" text-anchor="start" dominant-baseline="alphabetic" xml:space="preserve">Landlord</text></g><g><path fill="white" stroke="black" paint-order="fill stroke markers" d=" M 493.3097481844193 79.63263106901819 A 24.2577769005 24.2577769005 0 1 1 493.30973605553186 79.60837329616064 M 443.4057021029193 106.11199561831819 L 494.69824046491925 106.11199561831819" stroke-miterlimit="10" stroke-width="2.7769845610000004" stroke-dasharray=""/></g><g><g/><text fill="black" stroke="none" font-family="sans-serif" font-size="11pt" font-style="normal" font-weight="normal" text-decoration="normal" x="450.3118208322591" y="123.83569119881818" text-anchor="start" dominant-baseline="alphabetic" xml:space="preserve">Client</text></g><g><path fill="white" stroke="black" paint-order="fill stroke markers" d=" M 768.4165989644323 79.63263106901819 A 24.2577769005 24.2577769005 0 1 1 768.4165868355449 79.60837329616064 M 718.5125528829324 106.11199561831819 L 769.8050912449323 106.11199561831819" stroke-miterlimit="10" stroke-width="2.7769845610000004" stroke-dasharray=""/></g><g><g/><text fill="black" stroke="none" font-family="sans-serif" font-size="11pt" font-style="normal" font-weight="normal" text-decoration="normal" x="715.6334238095378" y="123.83569119881818" text-anchor="start" dominant-baseline="alphabetic" xml:space="preserve">Backend</text></g><g><path fill="white" stroke="black" paint-order="fill stroke markers" d=" M 979.0884256841485 96.71925372081819 L 979.0884256841485 62.41532679081819 L 1026.7872193201486 62.41532679081819 L 1026.7872193201486 96.71925372081819" stroke-miterlimit="10" stroke-width="2.7769845610000004" stroke-dasharray=""/><path fill="white" stroke="black" paint-order="fill stroke markers" d=" M 1026.7872193201486 61.22285694991819 L 1026.7860268602449 61.33066749483481 L 1026.7824495997788 61.43846725878678 L 1026.7764878964733 61.546245461887544 L 1026.7681423464942 61.65399132640659 L 1026.757413784389 61.761694077847274 L 1026.7443032830051 61.86934294602419 L 1026.7288121533818 61.976927166140236 L 1026.7109419446192 62.084435979863045 L 1026.6906944437233 62.19185863640084 L 1026.668071675427 62.299184393577484 L 1026.6430759019886 62.4064025189067 L 1026.6157096229647 62.51350229066531 L 1026.58597557496 62.62047299896537 L 1026.5538767313549 62.7273039468252 L 1026.5194163020067 62.83398445123905 L 1026.48259773293 62.94050384424536 L 1026.4434247059507 63.04685147399361 L 1026.4019011383389 63.15301670580944 L 1026.3580311824169 63.25898892325815 L 1026.3118192251436 63.364757529206294 L 1026.2632698876762 63.47031194688142 L 1026.2123880249083 63.575641620929716 L 1026.1591787249831 63.68073601847156 L 1026.103647308787 63.78558463015478 L 1026.045799329415 63.89017697120557 L 1025.9856405716168 63.994502582477 L 1025.923177051218 64.09855103149486 L 1025.858415014519 64.20231191350096 L 1025.791360937669 64.3057748524936 L 1025.72202152602 64.40892950226505 L 1025.6504037134555 64.51176554743633 L 1025.5765146616968 64.61427270448858 L 1025.5003617595876 64.71644072279157 L 1025.4219526223549 64.81825938562858 L 1025.3412950908469 64.91971851121816 L 1025.2583972307493 65.02080795373233 L 1025.1732673317795 65.12151760431107 L 1025.0859139068561 65.22183739207324 L 1024.996345691249 65.32175728512367 L 1024.9045716417047 65.42126729155632 L 1024.8106009355524 65.52035746045347 L 1024.714442969784 65.6190178828808 L 1024.6161073601156 65.71723869287828 L 1024.515603940027 65.81501006844678 L 1024.4129427597757 65.91232223253022 L 1024.3081340853946 66.00916545399325 L 1024.2011883976638 66.10553004859446 L 1024.092116391063 66.20140637995469 L 1023.9809289727016 66.29678486052069 L 1023.867637261229 66.39165595252388 L 1023.7522525857221 66.48601016893414 L 1023.634786484552 66.57983807440844 L 1023.5152507042311 66.67313028623443 L 1023.3936571982379 66.76587747526865 L 1023.2700181258215 66.85807036686953 L 1023.1443458507861 66.94969974182469 L 1023.0166529402546 67.04075643727302 L 1022.8869521634116 67.13123134762085 L 1022.7552564902267 67.22111542545254 L 1022.6215790901574 67.3103996824352 L 1022.4859333308325 67.39907519021754 L 1022.3483327767146 67.4871330813227 L 1022.2087911877447 67.57456455003492 L 1022.0673225179654 67.6613608532802 L 1021.9239409141256 67.74751331150055 L 1021.7786607142665 67.83301330952195 L 1021.6314964462866 67.91785229741582 L 1021.4824628264905 68.00202179135408 L 1021.3315747581156 68.08551337445749 L 1021.1788473298433 68.1683186976373 L 1021.024295814289 68.25042948043021 L 1020.8679356664755 68.33183751182635 L 1020.7097825222872 68.41253465109044 L 1020.549852196907 68.4925128285758 L 1020.3881606832338 68.5717640465313 L 1020.2247241502845 68.65028037990122 L 1020.0595589415759 68.72805397711764 L 1019.8926815734916 68.80507706088565 L 1019.7241087336291 68.88134192896105 L 1019.553857279132 68.95684095492061 L 1019.3819442350039 69.03156658892462 L 1019.2083867924058 69.10551135847197 L 1019.0332023069375 69.17866786914732 L 1018.8564082969015 69.25102880536058 L 1018.6780224415514 69.3225869310784 L 1018.4980625793241 69.39333509054786 L 1018.3165467060561 69.46326620901198 L 1018.1334929731831 69.53237329341717 L 1017.9489196859262 69.60064943311258 L 1017.76284530146 69.66808780054113 L 1017.575288427068 69.7346816519223 L 1017.3862678182813 69.80042432792644 L 1017.1958023770035 69.86530925434072 L 1017.0039111496196 69.92932994272657 L 1016.8106133250928 69.9924799910685 L 1016.6159282330443 70.05475308441433 L 1016.4198753418211 70.1161429955066 L 1016.2224742565489 70.17664358540536 L 1016.0237447171719 70.23624880410202 L 1015.8237065964781 70.29495269112441 L 1015.6223798981132 70.35274937613272 L 1015.4197847545792 70.40963307950663 L 1015.2159414252213 70.46559811292322 L 1015.0108702942031 70.52063887992576 L 1014.8045918684663 70.57474987648341 L 1014.597126775682 70.62792569154163 L 1014.3884957621863 70.68016100756323 L 1014.1787196909069 70.73145060106012 L 1013.9678195392759 70.78178934311569 L 1013.7558163971328 70.8311721998977 L 1013.5427314646151 70.8795942331616 L 1013.3285860500388 70.92705060074444 L 1013.1134015677665 70.973536557049 L 1012.8971995360672 71.01904745351838 L 1012.6800015749641 71.06357873910088 L 1012.4618294040721 71.10712596070502 L 1012.2427048404265 71.14968476364494 L 1012.0226497963012 71.19125089207583 L 1011.8016862770171 71.23182018941947 L 1011.5798363787421 71.27138859877994 L 1011.3571222862811 71.30995216334925 L 1011.1335662708576 71.34750702680313 L 1010.9091906878872 71.38404943368649 L 1010.6840179747409 71.4195757297891 L 1010.4580706485025 71.45408236251096 L 1010.2313713037163 71.48756588121756 L 1010.0039426101279 71.52002293758491 L 1009.775807310417 71.55145028593446 L 1009.5469882179237 71.58184478355753 L 1009.3175082143664 71.61120339102969 L 1009.0873902475544 71.63952317251467 L 1008.8566573290923 71.66680129605793 L 1008.6253325320799 71.69303503386982 L 1008.3934389888041 71.71822176259843 L 1008.160999888426 71.7423589635919 L 1007.9280384746619 71.7654442231502 L 1007.6945780434589 71.78747523276665 L 1007.4606419406659 71.80844978935863 L 1007.226253559698 71.82836579548797 L 1006.991436339198 71.84722125957065 L 1006.7562137606924 71.86501429607597 L 1006.5206093462427 71.8817431257151 L 1006.2846466560944 71.89740607561903 L 1006.0483492863198 71.91200157950583 L 1005.8117408664588 71.92552817783725 L 1005.5748450571562 71.93798451796474 L 1005.3376855477957 71.94936935426468 L 1005.1002860541305 71.95968154826289 L 1004.862670315912 71.96892006874862 L 1004.6248620945164 71.97708399187748 L 1004.3868851705673 71.98417250126396 L 1004.148763341559 71.99018488806304 L 1003.9105204194758 71.99512055104105 L 1003.6721802284114 71.99897899663581 L 1003.4337666021864 72.00175983900598 L 1003.1953033819647 72.00346280006961 L 1002.9568144138696 72.00408770953204 L 1002.718323546599 72.00363450490285 L 1002.4798546290411 72.0021032315021 L 1002.2414315078889 71.99949404245586 L 1002.003078025256 71.9958071986809 L 1001.7648180162915 71.99104306885846 L 1001.5266753067983 71.98520212939759 L 1001.2886737108487 71.97828496438737 L 1001.0508370284039 71.97029226553852 L 1000.8131890429339 71.96122483211428 L 1000.5757535190394 71.95108357085043 L 1000.3385542000747 71.93986949586466 L 1000.1016148057743 71.92758372855508 L 999.86495902988 71.91422749748824 L 999.6286105377721 71.89980213827607 L 999.3925929641031 71.8843090934425 L 999.1569299104335 71.86774991227908 L 998.9216449428724 71.85012625069015 L 998.6867615897204 71.83143987102717 L 998.4523033391171 71.81169264191253 L 998.2182936366922 71.79088653805269 L 997.9847558832208 71.7690236400407 L 997.751713432284 71.74610613414815 L 997.5191895879323 71.72213631210651 L 997.2872076023564 71.69711657087802 L 997.0557906735618 71.67104941241597 L 996.8249619430483 71.64393744341446 L 996.5947444934967 71.6157833750478 L 996.3651613464601 71.58659002269937 L 996.1362354600618 71.55636030568009 L 995.9079897266998 71.52509724693644 L 995.6804469707572 71.49280397274828 L 995.4536299463199 71.45948371241609 L 995.2275613349015 71.42513979793813 L 995.0022637431745 71.38977566367726 L 994.7777597007104 71.35339484601741 L 994.5540716577265 71.31600098301004 L 994.3312219828406 71.27759781401028 L 994.1092329608344 71.23818917930303 L 993.8881267904254 71.19777901971894 L 993.667925582046 71.15637137624027 L 993.4486513556338 71.11397038959687 L 993.2303260384286 71.07058029985207 L 993.0129714627802 71.02620544597868 L 992.7966093639652 70.98085026542512 L 992.5812613780129 70.93451929367163 L 992.3669490395426 70.8872171637768 L 992.1536937796095 70.8389486059142 L 991.9415169235621 70.78971844689937 L 991.7304396889087 70.7395316097072 L 991.5204831831974 70.6883931129796 L 991.3116684019035 70.6363080705236 L 991.1040162263312 70.58328169080006 L 990.897547421525 70.52931927640276 L 990.6922826341934 70.47442622352818 L 990.4882423906439 70.41860802143584 L 990.2854470947309 70.36187025189946 L 990.0839170258151 70.3042185886487 L 989.8836723367355 70.24565879680183 L 989.6847330517938 70.18619673228926 L 989.4871190647531 70.12583834126788 L 989.2908501368472 70.06458965952649 L 989.0959458948054 70.00245681188221 L 988.9024258288895 69.93944601156807 L 988.7103092909447 69.87556355961155 L 988.5196154924649 69.81081584420461 L 988.3303635026709 69.74520934006487 L 988.142572246604 69.67875060778805 L 987.9562605032334 69.61144629319199 L 987.771446903578 69.54330312665208 L 987.5881499288439 69.47432792242817 L 987.4063879085757 69.40452757798322 L 987.2261790188242 69.3339090732935 L 987.0475412803279 69.26247947015062 L 986.870492556712 69.19024591145539 L 986.6950505527011 69.11721562050347 L 986.5212328123497 69.0433959002631 L 986.3490567172868 68.96879413264479 L 986.1785394849784 68.89341777776313 L 986.0096981670058 68.81727437319081 L 985.8425496473599 68.74037153320482 L 985.6771106407535 68.66271694802508 L 985.5133976909493 68.58431838304537 L 985.351427169106 68.5051836780569 L 985.1912152721408 68.4253207464642 L 985.0327780211096 68.34473757449386 L 984.8761312596058 68.26344222039596 L 984.721290652175 68.18144281363814 L 984.5682716827487 68.09874755409275 L 984.4170896530964 68.01536471121685 L 984.267759681295 67.9313026232252 L 984.1202967002175 67.84656969625658 L 983.974715456039 67.76117440353308 L 983.8310305067625 67.67512528451279 L 983.6892562207634 67.5884309440359 L 983.5494067753519 67.50110005146425 L 983.4114961553562 67.41314133981427 L 983.2755381517231 67.32456360488388 L 983.1415463601401 67.23537570437271 L 983.0095341796743 67.14558655699653 L 982.879514811434 67.05520514159522 L 982.7515012572475 66.96424049623502 L 982.6255063183636 66.87270171730466 L 982.5015425941713 66.78059795860575 L 982.3796224809396 66.68793843043741 L 982.2597581705782 66.59473239867523 L 982.1419616494182 66.50098918384472 L 982.0262446970138 66.40671816018926 L 981.9126188849635 66.31192875473263 L 981.8010955757542 66.2166304463364 L 981.6916859216235 66.120832764752 L 981.5844008634458 66.02454528966774 L 981.4792511296375 65.92777764975091 L 981.3762472350845 65.83053952168484 L 981.2753994800902 65.73284062920132 L 981.1767179493461 65.63469074210818 L 981.0802125109232 65.53609967531233 L 980.9858928152847 65.4370772878383 L 980.8937682943217 65.33763348184232 L 980.8038481604095 65.23777820162212 L 980.7161414054866 65.13752143262249 L 980.6306568001553 65.03687320043682 L 980.547402892805 64.93584356980442 L 980.466388008757 64.83444264360419 L 980.3876202494322 64.73268056184422 L 980.311107491541 64.63056750064791 L 980.2368573862951 64.52811367123628 L 980.1648773586436 64.42532931890689 L 980.0951746065289 64.32222472200931 L 980.0277561001684 64.21881019091732 L 979.9626285813564 64.11509606699785 L 979.8997985627905 64.01109272157687 L 979.8392723274203 63.90681055490224 L 979.7810559278188 63.80225999510374 L 979.7251551855776 63.697451497150205 L 979.6715756907241 63.59239554180411 L 979.6203228011633 63.48710263457343 L 979.5714016421415 63.381583304661156 L 979.5248171057336 63.27584810391234 L 979.4805738503547 63.16990760575894 L 979.4386763002933 63.06377240416249 L 979.3991286452696 62.95745311255472 L 979.3619348400159 62.85096036277616 L 979.3270986038821 62.744304804013076 L 979.2946234204624 62.63749710173245 L 979.2645125372484 62.530547936615505 L 979.2367689653031 62.423468003489624 L 979.2113954789608 62.316268010258895 L 979.1883946155488 62.208958676833305 L 979.1677686751343 62.10155073405677 L 979.1495197202942 61.99405492263407 L 979.1336495759087 61.88648199205676 L 979.1201598289792 61.77884269952825 L 979.109051828469 61.6711478088881 L 979.100326685169 61.56340808953563 L 979.093985271586 61.45563431535299 L 979.0900282218564 61.34783726362778 L 979.0884559316817 61.24002771397536 L 979.0892685582896 61.13221644726084 L 979.0924660204182 61.02441424452105 L 979.0980479983239 60.916631885886424 L 979.1060139338135 60.808880149503025 L 979.1163630303002 60.70116981045468 L 979.1290942528831 60.59351163968555 L 979.1442063284502 60.48591640292299 L 979.1616977458068 60.378394859601016 L 979.1815667558255 60.27095776178435 L 979.2038113716222 60.163615853093255 L 979.2284293687537 60.05637986762915 L 979.2554182854407 59.949260528901206 L 979.284775422814 59.84226854875404 L 979.3164978451846 59.7354146262965 L 979.3505823803365 59.62870944683179 L 979.3870256198445 59.52216368078894 L 979.4258239194153 59.41578798265577 L 979.466973399251 59.30959298991343 L 979.510469944438 59.203589321972714 L 979.556309205358 59.09778757911208 L 979.6044865981232 58.992198341417634 L 979.6549973050345 58.88683216772516 L 979.7078362750631 58.78169959456423 L 979.7629982243562 58.67681113510454 L 979.8204776367648 58.57217727810464 L 979.8802687643956 58.46780848686303 L 979.9423656281855 58.36371519817185 L 980.0067620185 58.25990782127324 L 980.0734514957538 58.15639673681838 L 980.1424273910546 58.053192295829454 L 980.2136828068705 57.950304818664556 L 980.2872106177191 57.84774459398567 L 980.3630034708807 57.745521877729786 L 980.4410537871331 57.64364689208335 L 980.5213537615099 57.54212982446004 L 980.6038953640802 57.44098082648201 L 980.688670340753 57.340210012964775 L 980.775670214101 57.2398274609057 L 980.8648862842093 57.13984320847635 L 980.9563096295454 57.040267254018644 L 981.049931107851 56.94110955504505 L 981.145741357056 56.84238002724283 L 981.2437307962156 56.74408854348249 L 981.3438896264674 56.646244932830506 L 981.446207832012 56.54885897956639 L 981.5506751811138 56.45194042220433 L 981.6572812271253 56.35549895251929 L 981.7660153095305 56.25954421457787 L 981.8768665550118 56.16408580377391 L 981.9898238785372 56.06913326586893 L 982.1048759844683 55.974696096037604 L 982.2220113676905 55.88078373791821 L 982.3412183147628 55.7874055826683 L 982.4624849050903 55.694570968025594 L 982.5857990121146 55.60228917737418 L 982.7111483045281 55.51056943881623 L 982.8385202475058 55.41942092424918 L 982.9679021039597 55.328852748448504 L 983.0992809358117 55.23887396815633 L 983.2326436052883 55.14949358117568 L 983.3679767762337 55.0607205254708 L 983.5052669154436 54.97256367827326 L 983.6445002940184 54.88503185519433 L 983.7856629887362 54.79813380934336 L 983.9287408834454 54.71187823045254 L 984.0737196704755 54.62627374400786 L 984.2205848520688 54.541328910386646 L 984.3693217418295 54.45705222400146 L 984.5199154661924 54.373452112450714 L 984.6723509659108 54.290536935675895 L 984.8266129975616 54.20831498512558 L 984.9826861350703 54.12679448292632 L 985.140554771253 54.0459835810604 L 985.300203119378 53.965890360550645 L 985.4616152147431 53.88652283065238 L 985.6247749162736 53.80788892805245 L 985.7896659081351 53.72999651607559 L 985.9562717013661 53.652853383898076 L 986.1245756355258 53.57646724576885 L 986.2945608803611 53.50084574023808 L 986.4662104374894 53.42599642939328 L 986.6395071420978 53.35192679810317 L 986.8144336646603 53.278644253269164 L 986.9909725126705 53.20615612308466 L 987.1691060323906 53.13446965630228 L 987.3488164106171 53.06359202150896 L 987.530085676462 52.99353030640911 L 987.7128957031497 52.924291517115876 L 987.8972282098299 52.85588257745046 L 988.0830647634057 52.78831032824984 L 988.2703867803763 52.72158152668263 L 988.4591755286962 52.65570284557336 L 988.649412129648 52.590680872735255 L 988.8410775597301 52.52652211031142 L 989.0341526525592 52.463232974124615 L 989.2286181007869 52.40081979303573 L 989.4244544580305 52.33928880831086 L 989.6216421408172 52.278646172997206 L 989.8201614305435 52.21889795130775 L 990.0199924754455 52.160050118014894 L 990.2211152925853 52.1021085578529 L 990.4235097698489 52.045079064929524 L 990.6271556679573 51.98896734214652 L 990.83203262249 51.933779000629414 L 991.0381201459227 51.87951955916637 L 991.2453976296746 51.826194443656306 L 991.4538443461701 51.77380898656634 L 991.6634394509113 51.72236842639853 L 991.8741619845622 51.67187790716602 L 992.0859908750452 51.622342477878675 L 992.2989049396479 51.57376709203812 L 992.512882887141 51.526156607142475 L 992.7279033199083 51.47951578420055 L 992.9439447360854 51.43384928725578 L 993.1609855317109 51.38916168291979 L 993.3790040028863 51.34545743991578 L 993.5979783479459 51.302740928631636 L 993.8178866696376 51.261016420682886 L 994.0387069773128 51.220288088485546 L 994.2604171891245 51.18056000483891 L 994.4829951342364 51.14183614251822 L 994.7064185550394 51.10412037387746 L 994.9306651093775 51.06741647046204 L 995.1557123727824 51.03172810263173 L 995.3815378407152 50.99705883919358 L 995.6081189308172 50.96341214704502 L 995.8354329851684 50.930791390827245 L 996.0634572725525 50.899199832588685 L 996.2921689907309 50.86864063145883 L 996.5215452687225 50.83911684333235 L 996.7515631690907 50.81063142056343 L 996.9821996902368 50.78318721167063 L 997.2134317687012 50.75678696105195 L 997.4452362814685 50.731433308710464 L 997.6775900482809 50.70712878999027 L 997.9104698339551 50.683875835323 L 998.1438523507067 50.66167676998473 L 998.3777142604785 50.6405338138635 L 998.6120321772743 50.6204490812373 L 998.8467826694978 50.60142458056266 L 999.0819422622953 50.583462214273794 L 999.3174874399037 50.566563778592354 L 999.5533946480014 50.55073096334783 L 999.7896402960641 50.53596535180856 L 1000.0262007597239 50.52226842052339 L 1000.2630523831317 50.50964153917403 L 1000.5001714813224 50.49808597043808 L 1000.7375343425838 50.48760286986282 L 1000.9751172308275 50.47819328574954 L 1001.2128963879628 50.46985815904882 L 1001.4508480362722 50.462598323266384 L 1001.6889483807889 50.456414504379765 L 1001.9271736116771 50.45130732076569 L 1002.1654999066121 50.44727728313828 L 1002.4039034331631 50.444324794497916 L 1002.642360351176 50.44245015009101 L 1002.8808468151578 50.44165353738045 L 1003.1193389766609 50.44193503602685 L 1003.3578129866677 50.443294617880554 L 1003.5962449979761 50.445732146984525 L 1003.8346111675836 50.44924737958788 L 1004.0728876590719 50.45383996417029 L 1004.3110506449904 50.459509441477124 L 1004.5490763092389 50.46625524456538 L 1004.7869408494494 50.474076698860365 L 1005.024620479366 50.48297302222316 L 1005.2620914312241 50.49294332502887 L 1005.499329958126 50.50398661025549 L 1005.736312336417 50.51610177358371 L 1005.9730148680566 50.52928760350731 L 1006.2094138829889 50.54354278145426 L 1006.4454857415095 50.55886588191867 L 1006.6812068366291 50.575255372603245 L 1006.9165535964348 50.592709614572584 L 1007.1515024864467 50.61122686241703 L 1007.3860300119715 50.630805264427224 L 1007.6201127204522 50.651442862779284 L 1007.8537272038129 50.67313759373059 L 1008.0868501008 50.695887287826096 L 1008.3194580993181 50.71968967011537 L 1008.5515279387612 50.74454236038002 L 1008.7830364123387 50.77044287337172 L 1009.0139603693962 50.797388619060754 L 1009.2442767177304 50.825376902895016 L 1009.4739624258983 50.85440492606945 L 1009.7029945255207 50.88446978580591 L 1009.9313501135783 50.9155684756435 L 1010.1590063547028 50.947697885739125 L 1010.3859404834595 50.980854803178566 L 1010.6121298066249 51.01503591229771 L 1010.8375517054552 51.05023779501413 L 1011.0621836379481 51.08645693116888 L 1011.2860031410978 51.12368969887854 L 1011.5089878331404 51.16193237489736 L 1011.7311154157924 51.201181134989596 L 1011.9523636764809 51.241432054311964 L 1012.172710490564 51.28268110780607 L 1012.3921338235439 51.32492417060092 L 1012.6106117332703 51.368157018425464 L 1012.8281223721342 51.41237532803093 L 1013.044643989253 51.45757467762322 L 1013.2601549326454 51.503750547305025 L 1013.4746336513966 51.55089831952786 L 1013.6880586978136 51.5990132795538 L 1013.9004087295696 51.64809061592693 L 1014.1116625118383 51.69812542095451 L 1014.3217989194175 51.749112691197745 L 1014.5307969388415 51.801047327972086 L 1014.7386356704827 51.85392413785714 L 1014.945294330641 51.90773783321599 L 1015.1507522536227 51.962483032723924 L 1015.3549888938066 52.01815426190663 L 1015.557983827699 52.07474595368758 L 1015.7597167559755 52.132252448944755 L 1015.9601675055117 52.190667997076545 L 1016.1593160313993 52.24998675657682 L 1016.3571424189519 52.310202795619055 L 1016.5536268856955 52.371310092649544 L 1016.7487497833473 52.43330253698949 L 1016.94249159978 52.49617392944612 L 1017.1348329609734 52.559917982932596 L 1017.3257546329519 52.62452832309667 L 1017.515237523707 52.68999848895818 L 1017.7032626851079 52.7563219335551 L 1017.889811314795 52.823492024598224 L 1018.0748647580607 52.89150204513444 L 1018.258404509715 52.960345194218355 L 1018.4404122159357 53.03001458759244 L 1018.6208696761038 53.10050325837541 L 1018.7997588446236 53.171804157758935 L 1018.9770618327274 53.243910155712484 L 1019.1527609102642 53.31681404169635 L 1019.3268385074725 53.39050852538269 L 1019.4992772167378 53.46498623738456 L 1019.6700597943328 53.5402397299928 L 1019.8391691621421 53.61626147792087 L 1020.0065884093697 53.69304387905734 L 1020.1723007942305 53.770579255226075 L 1020.3362897456242 53.848859852954064 L 1020.4985388647922 53.92787784424677 L 1020.6590319269578 54.00762532737092 L 1020.8177528829486 54.08809432764465 L 1020.9746858608012 54.16927679823499 L 1021.1298151673485 54.251164620962534 L 1021.2831252897894 54.33374960711325 L 1021.4346008972391 54.41702349825734 L 1021.5842268422632 54.500977967075094 L 1021.731988162392 54.58560461818958 L 1021.8778700816165 54.670894989006214 L 1022.0218580118664 54.75684055055899 L 1022.1639375544686 54.84343270836337 L 1022.3040945015873 54.93066280327574 L 1022.4423148376445 55.0185221123593 L 1022.5785847407219 55.107001849756344 L 1022.7128905839427 55.196093167566886 L 1022.8452189368345 55.28578715673337 L 1022.9755565666721 55.37607484793163 L 1023.1038904398015 55.46694721246779 L 1023.2302077229422 55.55839516318112 L 1023.3544957844708 55.65040955535275 L 1023.4767421956852 55.742981187620146 L 1023.596934732046 55.83610080289723 L 1023.7150613743996 55.92975908930006 L 1023.8311103101803 56.02394668107806 L 1023.9450699345912 56.11865415955053 L 1024.0569288517647 56.213872054048544 L 1024.1666758759027 56.30959084286201 L 1024.2743000323937 56.405800954191804 L 1024.3797905589122 56.50249276710697 L 1024.4831369064934 56.5996566125068 L 1024.5843287405883 56.69728277408771 L 1024.6833559420982 56.79536148931491 L 1024.7802086083852 56.89388295039859 L 1024.8748770542636 56.99283730527477 L 1024.9673518129675 57.09221465859041 L 1025.0576236370982 57.19200507269298 L 1025.1456834995486 57.29219856862425 L 1025.2315225944058 57.39278512711811 L 1025.3151323378315 57.49375468960253 L 1025.3965043689216 57.59509715920541 L 1025.4756305505405 57.69680240176424 L 1025.552502970136 57.79886024683951 L 1025.62711394053 57.90126048873177 L 1025.699456000688 58.003992887502164 L 1025.7695219164643 58.10704716999642 L 1025.8373046813253 58.21041303087217 L 1025.9027975170513 58.31408013362946 L 1025.9659938744132 58.41803811164441 L 1026.0268874338278 58.52227656920584 L 1026.0854721059904 58.62678508255487 L 1026.141742032482 58.731553200927245 L 1026.1956915863573 58.83657044759845 L 1026.2473153727053 58.94182632093131 L 1026.2966082291912 59.04731029542622 L 1026.3435652265696 59.153011822773635 L 1026.3881816691805 59.25892033290889 L 1026.4304530954166 59.36502523506925 L 1026.4703752781704 59.471315918852895 L 1026.507944225257 59.57778175528004 L 1026.5431561798132 59.684412097855756 L 1026.5760076206725 59.79119628363465 L 1026.6064952627182 59.89812363428712 L 1026.634616057212 60.005183457167206 L 1026.6603671920975 60.11236504638185 L 1026.6837460922825 60.21965768386144 L 1026.704750419897 60.327050640431644 L 1026.723378074525 60.43453317688629 L 1026.7396271934174 60.5420945450613 L 1026.7534961516753 60.6497239889095 L 1026.7649835624145 60.757410745576195 L 1026.7740882769037 60.86514404647545 L 1026.7808093846788 60.972913118366954 L 1026.785146213635 61.08070718443333 L 1026.7870983300925 61.188515465357796 M 1026.7872193201486 95.52678387991818 L 1026.7860268602449 95.6345944248348 L 1026.7824495997788 95.74239418878678 L 1026.7764878964733 95.85017239188754 L 1026.7681423464942 95.95791825640659 L 1026.757413784389 96.06562100784727 L 1026.7443032830051 96.1732698760242 L 1026.7288121533818 96.28085409614023 L 1026.7109419446192 96.38836290986303 L 1026.6906944437233 96.49578556640084 L 1026.668071675427 96.60311132357748 L 1026.6430759019886 96.7103294489067 L 1026.6157096229647 96.8174292206653 L 1026.58597557496 96.92439992896537 L 1026.5538767313549 97.0312308768252 L 1026.5194163020067 97.13791138123905 L 1026.48259773293 97.24443077424536 L 1026.4434247059507 97.35077840399362 L 1026.4019011383389 97.45694363580944 L 1026.3580311824169 97.56291585325815 L 1026.3118192251436 97.66868445920629 L 1026.2632698876762 97.77423887688141 L 1026.2123880249083 97.8795685509297 L 1026.1591787249831 97.98466294847155 L 1026.103647308787 98.08951156015478 L 1026.045799329415 98.19410390120557 L 1025.9856405716168 98.29842951247699 L 1025.923177051218 98.40247796149485 L 1025.858415014519 98.50623884350097 L 1025.791360937669 98.60970178249359 L 1025.72202152602 98.71285643226504 L 1025.6504037134555 98.81569247743631 L 1025.5765146616968 98.91819963448859 L 1025.5003617595876 99.02036765279156 L 1025.4219526223549 99.12218631562857 L 1025.3412950908469 99.22364544121817 L 1025.2583972307493 99.32473488373233 L 1025.1732673317795 99.42544453431107 L 1025.0859139068561 99.52576432207324 L 1024.996345691249 99.62568421512367 L 1024.9045716417047 99.72519422155631 L 1024.8106009355524 99.82428439045346 L 1024.714442969784 99.92294481288079 L 1024.6161073601156 100.02116562287829 L 1024.515603940027 100.11893699844678 L 1024.4129427597757 100.2162491625302 L 1024.3081340853946 100.31309238399325 L 1024.2011883976638 100.40945697859446 L 1024.092116391063 100.50533330995468 L 1023.9809289727016 100.60071179052068 L 1023.867637261229 100.69558288252388 L 1023.7522525857221 100.78993709893413 L 1023.634786484552 100.88376500440843 L 1023.5152507042311 100.97705721623441 L 1023.3936571982379 101.06980440526866 L 1023.2700181258215 101.16199729686952 L 1023.1443458507861 101.25362667182469 L 1023.0166529402546 101.34468336727302 L 1022.8869521634116 101.43515827762084 L 1022.7552564902267 101.52504235545253 L 1022.6215790901574 101.61432661243519 L 1022.4859333308325 101.70300212021755 L 1022.3483327767146 101.7910600113227 L 1022.2087911877447 101.87849148003492 L 1022.0673225179654 101.9652877832802 L 1021.9239409141256 102.05144024150056 L 1021.7786607142665 102.13694023952193 L 1021.6314964462866 102.22177922741581 L 1021.4824628264905 102.30594872135407 L 1021.3315747581156 102.38944030445748 L 1021.1788473298433 102.47224562763729 L 1021.024295814289 102.5543564104302 L 1020.8679356664755 102.63576444182635 L 1020.7097825222872 102.71646158109044 L 1020.549852196907 102.79643975857579 L 1020.3881606832338 102.8756909765313 L 1020.2247241502845 102.95420730990122 L 1020.0595589415759 103.03198090711763 L 1019.8926815734916 103.10900399088564 L 1019.7241087336291 103.18526885896105 L 1019.553857279132 103.2607678849206 L 1019.3819442350039 103.33549351892461 L 1019.2083867924058 103.40943828847196 L 1019.0332023069375 103.48259479914732 L 1018.8564082969015 103.55495573536056 L 1018.6780224415514 103.6265138610784 L 1018.4980625793241 103.69726202054787 L 1018.3165467060561 103.76719313901197 L 1018.1334929731831 103.83630022341715 L 1017.9489196859262 103.90457636311257 L 1017.76284530146 103.97201473054113 L 1017.575288427068 104.03860858192229 L 1017.3862678182813 104.10435125792642 L 1017.1958023770035 104.1692361843407 L 1017.0039111496196 104.23325687272656 L 1016.8106133250928 104.29640692106851 L 1016.6159282330443 104.35868001441433 L 1016.4198753418211 104.4200699255066 L 1016.2224742565489 104.48057051540535 L 1016.0237447171719 104.54017573410202 L 1015.8237065964781 104.5988796211244 L 1015.6223798981132 104.65667630613272 L 1015.4197847545792 104.71356000950664 L 1015.2159414252213 104.7695250429232 L 1015.0108702942031 104.82456580992574 L 1014.8045918684663 104.87867680648341 L 1014.597126775682 104.93185262154162 L 1014.3884957621863 104.98408793756322 L 1014.1787196909069 105.0353775310601 L 1013.9678195392759 105.08571627311568 L 1013.7558163971328 105.13509912989768 L 1013.5427314646151 105.1835211631616 L 1013.3285860500388 105.23097753074444 L 1013.1134015677665 105.27746348704899 L 1012.8971995360672 105.32297438351839 L 1012.6800015749641 105.36750566910086 L 1012.4618294040721 105.41105289070501 L 1012.2427048404265 105.45361169364494 L 1012.0226497963012 105.49517782207583 L 1011.8016862770171 105.53574711941947 L 1011.5798363787421 105.57531552877992 L 1011.3571222862811 105.61387909334925 L 1011.1335662708576 105.65143395680312 L 1010.9091906878872 105.68797636368647 L 1010.6840179747409 105.72350265978909 L 1010.4580706485025 105.75800929251095 L 1010.2313713037163 105.79149281121755 L 1010.0039426101279 105.82394986758491 L 1009.775807310417 105.85537721593445 L 1009.5469882179237 105.88577171355752 L 1009.3175082143664 105.9151303210297 L 1009.0873902475544 105.94345010251467 L 1008.8566573290923 105.97072822605791 L 1008.6253325320799 105.99696196386981 L 1008.3934389888041 106.02214869259844 L 1008.160999888426 106.04628589359189 L 1007.9280384746619 106.0693711531502 L 1007.6945780434589 106.09140216276666 L 1007.4606419406659 106.11237671935864 L 1007.226253559698 106.13229272548797 L 1006.991436339198 106.15114818957065 L 1006.7562137606924 106.16894122607596 L 1006.5206093462427 106.1856700557151 L 1006.2846466560944 106.20133300561903 L 1006.0483492863198 106.21592850950582 L 1005.8117408664588 106.22945510783724 L 1005.5748450571562 106.24191144796474 L 1005.3376855477957 106.25329628426466 L 1005.1002860541305 106.2636084782629 L 1004.862670315912 106.2728469987486 L 1004.6248620945164 106.28101092187747 L 1004.3868851705673 106.28809943126396 L 1004.148763341559 106.29411181806304 L 1003.9105204194758 106.29904748104106 L 1003.6721802284114 106.30290592663582 L 1003.4337666021864 106.30568676900597 L 1003.1953033819647 106.30738973006962 L 1002.9568144138696 106.30801463953205 L 1002.718323546599 106.30756143490284 L 1002.4798546290411 106.3060301615021 L 1002.2414315078889 106.30342097245587 L 1002.003078025256 106.29973412868088 L 1001.7648180162915 106.29496999885845 L 1001.5266753067983 106.28912905939758 L 1001.2886737108487 106.28221189438736 L 1001.0508370284039 106.27421919553852 L 1000.8131890429339 106.26515176211427 L 1000.5757535190394 106.25501050085043 L 1000.3385542000747 106.24379642586464 L 1000.1016148057743 106.23151065855508 L 999.86495902988 106.21815442748823 L 999.6286105377721 106.20372906827606 L 999.3925929641031 106.1882360234425 L 999.1569299104335 106.17167684227908 L 998.9216449428724 106.15405318069014 L 998.6867615897204 106.13536680102716 L 998.4523033391171 106.11561957191253 L 998.2182936366922 106.09481346805269 L 997.9847558832208 106.0729505700407 L 997.751713432284 106.05003306414814 L 997.5191895879323 106.0260632421065 L 997.2872076023564 106.00104350087803 L 997.0557906735618 105.97497634241597 L 996.8249619430483 105.94786437341445 L 996.5947444934967 105.9197103050478 L 996.3651613464601 105.89051695269937 L 996.1362354600618 105.86028723568009 L 995.9079897266998 105.82902417693644 L 995.6804469707572 105.79673090274827 L 995.4536299463199 105.76341064241608 L 995.2275613349015 105.72906672793813 L 995.0022637431745 105.69370259367726 L 994.7777597007104 105.6573217760174 L 994.5540716577265 105.61992791301003 L 994.3312219828406 105.58152474401028 L 994.1092329608344 105.54211610930304 L 993.8881267904254 105.50170594971894 L 993.667925582046 105.46029830624026 L 993.4486513556338 105.41789731959686 L 993.2303260384286 105.37450722985206 L 993.0129714627802 105.33013237597868 L 992.7966093639652 105.28477719542511 L 992.5812613780129 105.23844622367163 L 992.3669490395426 105.1911440937768 L 992.1536937796095 105.14287553591419 L 991.9415169235621 105.09364537689936 L 991.7304396889087 105.0434585397072 L 991.5204831831974 104.99232004297959 L 991.3116684019035 104.9402350005236 L 991.1040162263312 104.88720862080007 L 990.897547421525 104.83324620640276 L 990.6922826341934 104.77835315352817 L 990.4882423906439 104.72253495143585 L 990.2854470947309 104.66579718189945 L 990.0839170258151 104.60814551864868 L 989.8836723367355 104.54958572680184 L 989.6847330517938 104.49012366228926 L 989.4871190647531 104.42976527126788 L 989.2908501368472 104.36851658952648 L 989.0959458948054 104.30638374188221 L 988.9024258288895 104.24337294156805 L 988.7103092909447 104.17949048961154 L 988.5196154924649 104.11474277420461 L 988.3303635026709 104.04913627006486 L 988.142572246604 103.98267753778805 L 987.9562605032334 103.91537322319199 L 987.771446903578 103.84723005665208 L 987.5881499288439 103.77825485242818 L 987.4063879085757 103.70845450798322 L 987.2261790188242 103.63783600329349 L 987.0475412803279 103.56640640015061 L 986.870492556712 103.49417284145538 L 986.6950505527011 103.42114255050346 L 986.5212328123497 103.3473228302631 L 986.3490567172868 103.27272106264479 L 986.1785394849784 103.19734470776314 L 986.0096981670058 103.1212013031908 L 985.8425496473599 103.04429846320481 L 985.6771106407535 102.96664387802507 L 985.5133976909493 102.88824531304537 L 985.351427169106 102.8091106080569 L 985.1912152721408 102.72924767646418 L 985.0327780211096 102.64866450449387 L 984.8761312596058 102.56736915039596 L 984.721290652175 102.48536974363815 L 984.5682716827487 102.40267448409276 L 984.4170896530964 102.31929164121684 L 984.267759681295 102.2352295532252 L 984.1202967002175 102.15049662625658 L 983.974715456039 102.06510133353308 L 983.8310305067625 101.97905221451278 L 983.6892562207634 101.89235787403591 L 983.5494067753519 101.80502698146424 L 983.4114961553562 101.71706826981428 L 983.2755381517231 101.62849053488388 L 983.1415463601401 101.53930263437272 L 983.0095341796743 101.44951348699652 L 982.879514811434 101.35913207159521 L 982.7515012572475 101.26816742623502 L 982.6255063183636 101.17662864730465 L 982.5015425941713 101.08452488860574 L 982.3796224809396 100.9918653604374 L 982.2597581705782 100.89865932867522 L 982.1419616494182 100.80491611384473 L 982.0262446970138 100.71064509018925 L 981.9126188849635 100.61585568473262 L 981.8010955757542 100.5205573763364 L 981.6916859216235 100.424759694752 L 981.5844008634458 100.32847221966773 L 981.4792511296375 100.2317045797509 L 981.3762472350845 100.13446645168483 L 981.2753994800902 100.03676755920131 L 981.1767179493461 99.93861767210817 L 981.0802125109232 99.84002660531232 L 980.9858928152847 99.7410042178383 L 980.8937682943217 99.64156041184232 L 980.8038481604095 99.54170513162211 L 980.7161414054866 99.4414483626225 L 980.6306568001553 99.34080013043682 L 980.547402892805 99.23977049980442 L 980.466388008757 99.13836957360418 L 980.3876202494322 99.03660749184422 L 980.311107491541 98.9344944306479 L 980.2368573862951 98.83204060123627 L 980.1648773586436 98.72925624890688 L 980.0951746065289 98.6261516520093 L 980.0277561001684 98.52273712091731 L 979.9626285813564 98.41902299699785 L 979.8997985627905 98.31501965157686 L 979.8392723274203 98.21073748490224 L 979.7810559278188 98.10618692510373 L 979.7251551855776 98.0013784271502 L 979.6715756907241 97.89632247180411 L 979.6203228011633 97.79102956457344 L 979.5714016421415 97.68551023466115 L 979.5248171057336 97.57977503391233 L 979.4805738503547 97.47383453575894 L 979.4386763002933 97.3676993341625 L 979.3991286452696 97.2613800425547 L 979.3619348400159 97.15488729277617 L 979.3270986038821 97.04823173401307 L 979.2946234204624 96.94142403173245 L 979.2645125372484 96.8344748666155 L 979.2367689653031 96.72739493348962 L 979.2113954789608 96.6201949402589 L 979.1883946155488 96.51288560683331 L 979.1677686751343 96.40547766405678 L 979.1495197202942 96.29798185263407 L 979.1336495759087 96.19040892205675 L 979.1201598289792 96.08276962952824 L 979.109051828469 95.9750747388881 L 979.100326685169 95.86733501953563 L 979.093985271586 95.75956124535298 L 979.0900282218564 95.65176419362778 L 979.0884559316817 95.54395464397535" stroke-miterlimit="10" stroke-width="2.7769845610000004" stroke-dasharray=""/></g><g><g/><text fill="black" stroke="none" font-family="sans-serif" font-size="11pt" font-style="normal" font-weight="normal" text-decoration="normal" x="971.5598775558594" y="123.83569119881818" text-anchor="start" dominant-baseline="alphabetic" xml:space="preserve">Database</text></g><g><path fill="white" stroke="black" paint-order="fill stroke markers" d=" M 90.987082381 771.6081780603181 A 9.311065881 9.311065881 0 1 1 90.98707772546743 771.5988669959889 M 81.67601649999999 780.9192439413181 L 81.67601649999999 800.8481919673181 M 69.914670124 788.1067333933181 L 93.43736287599998 788.1067333933181 M 81.67601649999999 800.8481919673181 L 69.914670124 819.4703237293181 M 81.67601649999999 800.8481919673181 L 93.43736287599998 819.4703237293181" stroke-miterlimit="10" stroke-width="2.7769845610000004" stroke-dasharray=""/></g><g><g/><text fill="black" stroke="none" font-family="sans-serif" font-size="11pt" font-style="normal" font-weight="normal" text-decoration="normal" x="53.1470400595703" y="756.008058908818" text-anchor="start" dominant-baseline="alphabetic" xml:space="preserve">Landlord</text></g><g><path fill="white" stroke="black" paint-order="fill stroke markers" d=" M 493.3097481844193 787.110285992018 A 24.2577769005 24.2577769005 0 1 1 493.30973605553186 787.0860282191604 M 443.4057021029193 813.589650541318 L 494.69824046491925 813.589650541318" stroke-miterlimit="10" stroke-width="2.7769845610000004" stroke-dasharray=""/></g><g><g/><text fill="black" stroke="none" font-family="sans-serif" font-size="11pt" font-style="normal" font-weight="normal" text-decoration="normal" x="450.3118208322591" y="756.008058908818" text-anchor="start" dominant-baseline="alphabetic" xml:space="preserve">Client</text></g><g><path fill="white" stroke="black" paint-order="fill stroke markers" d=" M 768.4165989644323 787.110285992018 A 24.2577769005 24.2577769005 0 1 1 768.4165868355449 787.0860282191604 M 718.5125528829324 813.589650541318 L 769.8050912449323 813.589650541318" stroke-miterlimit="10" stroke-width="2.7769845610000004" stroke-dasharray=""/></g><g><g/><text fill="black" stroke="none" font-family="sans-serif" font-size="11pt" font-style="normal" font-weight="normal" text-decoration="normal" x="715.6334238095378" y="756.008058908818" text-anchor="start" dominant-baseline="alphabetic" xml:space="preserve">Backend</text></g><g><path fill="white" stroke="black" paint-order="fill stroke markers" d=" M 979.0884256841485 808.7707655678181 L 979.0884256841485 774.466838637818 L 1026.7872193201486 774.466838637818 L 1026.7872193201486 808.7707655678181" stroke-miterlimit="10" stroke-width="2.7769845610000004" stroke-dasharray=""/><path fill="white" stroke="black" paint-order="fill stroke markers" d=" M 1026.7872193201486 773.274368796918 L 1026.7860268602449 773.3821793418347 L 1026.7824495997788 773.4899791057866 L 1026.7764878964733 773.5977573088874 L 1026.7681423464942 773.7055031734064 L 1026.757413784389 773.8132059248471 L 1026.7443032830051 773.920854793024 L 1026.7288121533818 774.0284390131401 L 1026.7109419446192 774.1359478268629 L 1026.6906944437233 774.2433704834007 L 1026.668071675427 774.3506962405773 L 1026.6430759019886 774.4579143659065 L 1026.6157096229647 774.5650141376651 L 1026.58597557496 774.6719848459652 L 1026.5538767313549 774.7788157938251 L 1026.5194163020067 774.8854962982389 L 1026.48259773293 774.9920156912451 L 1026.4434247059507 775.0983633209934 L 1026.4019011383389 775.2045285528093 L 1026.3580311824169 775.3105007702579 L 1026.3118192251436 775.4162693762061 L 1026.2632698876762 775.5218237938813 L 1026.2123880249083 775.6271534679295 L 1026.1591787249831 775.7322478654713 L 1026.103647308787 775.8370964771545 L 1026.045799329415 775.9416888182054 L 1025.9856405716168 776.0460144294768 L 1025.923177051218 776.1500628784946 L 1025.858415014519 776.2538237605007 L 1025.791360937669 776.3572866994934 L 1025.72202152602 776.4604413492649 L 1025.6504037134555 776.5632773944361 L 1025.5765146616968 776.6657845514884 L 1025.5003617595876 776.7679525697914 L 1025.4219526223549 776.8697712326284 L 1025.3412950908469 776.971230358218 L 1025.2583972307493 777.0723198007321 L 1025.1732673317795 777.1730294513109 L 1025.0859139068561 777.273349239073 L 1024.996345691249 777.3732691321235 L 1024.9045716417047 777.4727791385561 L 1024.8106009355524 777.5718693074533 L 1024.714442969784 777.6705297298806 L 1024.6161073601156 777.768750539878 L 1024.515603940027 777.8665219154466 L 1024.4129427597757 777.96383407953 L 1024.3081340853946 778.060677300993 L 1024.2011883976638 778.1570418955943 L 1024.092116391063 778.2529182269545 L 1023.9809289727016 778.3482967075205 L 1023.867637261229 778.4431677995237 L 1023.7522525857221 778.537522015934 L 1023.634786484552 778.6313499214083 L 1023.5152507042311 778.7246421332343 L 1023.3936571982379 778.8173893222685 L 1023.2700181258215 778.9095822138694 L 1023.1443458507861 779.0012115888245 L 1023.0166529402546 779.0922682842728 L 1022.8869521634116 779.1827431946207 L 1022.7552564902267 779.2726272724524 L 1022.6215790901574 779.361911529435 L 1022.4859333308325 779.4505870372174 L 1022.3483327767146 779.5386449283225 L 1022.2087911877447 779.6260763970347 L 1022.0673225179654 779.7128727002801 L 1021.9239409141256 779.7990251585004 L 1021.7786607142665 779.8845251565217 L 1021.6314964462866 779.9693641444156 L 1021.4824628264905 780.0535336383539 L 1021.3315747581156 780.1370252214573 L 1021.1788473298433 780.2198305446371 L 1021.024295814289 780.30194132743 L 1020.8679356664755 780.3833493588262 L 1020.7097825222872 780.4640464980903 L 1020.549852196907 780.5440246755757 L 1020.3881606832338 780.6232758935311 L 1020.2247241502845 780.701792226901 L 1020.0595589415759 780.7795658241174 L 1019.8926815734916 780.8565889078855 L 1019.7241087336291 780.9328537759609 L 1019.553857279132 781.0083528019204 L 1019.3819442350039 781.0830784359244 L 1019.2083867924058 781.1570232054718 L 1019.0332023069375 781.2301797161472 L 1018.8564082969015 781.3025406523603 L 1018.6780224415514 781.3740987780782 L 1018.4980625793241 781.4448469375477 L 1018.3165467060561 781.5147780560118 L 1018.1334929731831 781.583885140417 L 1017.9489196859262 781.6521612801124 L 1017.76284530146 781.7195996475409 L 1017.575288427068 781.7861934989221 L 1017.3862678182813 781.8519361749262 L 1017.1958023770035 781.9168211013405 L 1017.0039111496196 781.9808417897264 L 1016.8106133250928 782.0439918380683 L 1016.6159282330443 782.1062649314141 L 1016.4198753418211 782.1676548425064 L 1016.2224742565489 782.2281554324052 L 1016.0237447171719 782.2877606511018 L 1015.8237065964781 782.3464645381242 L 1015.6223798981132 782.4042612231325 L 1015.4197847545792 782.4611449265064 L 1015.2159414252213 782.517109959923 L 1015.0108702942031 782.5721507269255 L 1014.8045918684663 782.6262617234833 L 1014.597126775682 782.6794375385415 L 1014.3884957621863 782.731672854563 L 1014.1787196909069 782.78296244806 L 1013.9678195392759 782.8333011901155 L 1013.7558163971328 782.8826840468975 L 1013.5427314646151 782.9311060801614 L 1013.3285860500388 782.9785624477443 L 1013.1134015677665 783.0250484040488 L 1012.8971995360672 783.0705593005182 L 1012.6800015749641 783.1150905861007 L 1012.4618294040721 783.1586378077048 L 1012.2427048404265 783.2011966106447 L 1012.0226497963012 783.2427627390756 L 1011.8016862770171 783.2833320364193 L 1011.5798363787421 783.3229004457797 L 1011.3571222862811 783.3614640103491 L 1011.1335662708576 783.3990188738029 L 1010.9091906878872 783.4355612806863 L 1010.6840179747409 783.4710875767889 L 1010.4580706485025 783.5055942095107 L 1010.2313713037163 783.5390777282173 L 1010.0039426101279 783.5715347845847 L 1009.775807310417 783.6029621329343 L 1009.5469882179237 783.6333566305574 L 1009.3175082143664 783.6627152380295 L 1009.0873902475544 783.6910350195145 L 1008.8566573290923 783.7183131430577 L 1008.6253325320799 783.7445468808696 L 1008.3934389888041 783.7697336095982 L 1008.160999888426 783.7938708105917 L 1007.9280384746619 783.81695607015 L 1007.6945780434589 783.8389870797664 L 1007.4606419406659 783.8599616363584 L 1007.226253559698 783.8798776424878 L 1006.991436339198 783.8987331065705 L 1006.7562137606924 783.9165261430758 L 1006.5206093462427 783.933254972715 L 1006.2846466560944 783.9489179226189 L 1006.0483492863198 783.9635134265056 L 1005.8117408664588 783.977040024837 L 1005.5748450571562 783.9894963649646 L 1005.3376855477957 784.0008812012645 L 1005.1002860541305 784.0111933952627 L 1004.862670315912 784.0204319157484 L 1004.6248620945164 784.0285958388773 L 1004.3868851705673 784.0356843482638 L 1004.148763341559 784.0416967350628 L 1003.9105204194758 784.0466323980409 L 1003.6721802284114 784.0504908436357 L 1003.4337666021864 784.0532716860058 L 1003.1953033819647 784.0549746470695 L 1002.9568144138696 784.0555995565319 L 1002.718323546599 784.0551463519026 L 1002.4798546290411 784.0536150785019 L 1002.2414315078889 784.0510058894557 L 1002.003078025256 784.0473190456808 L 1001.7648180162915 784.0425549158583 L 1001.5266753067983 784.0367139763974 L 1001.2886737108487 784.0297968113872 L 1001.0508370284039 784.0218041125383 L 1000.8131890429339 784.0127366791141 L 1000.5757535190394 784.0025954178502 L 1000.3385542000747 783.9913813428644 L 1000.1016148057743 783.9790955755549 L 999.86495902988 783.965739344488 L 999.6286105377721 783.9513139852759 L 999.3925929641031 783.9358209404423 L 999.1569299104335 783.9192617592789 L 998.9216449428724 783.90163809769 L 998.6867615897204 783.882951718027 L 998.4523033391171 783.8632044889123 L 998.2182936366922 783.8423983850525 L 997.9847558832208 783.8205354870405 L 997.751713432284 783.7976179811479 L 997.5191895879323 783.7736481591063 L 997.2872076023564 783.7486284178779 L 997.0557906735618 783.7225612594158 L 996.8249619430483 783.6954492904142 L 996.5947444934967 783.6672952220476 L 996.3651613464601 783.6381018696992 L 996.1362354600618 783.6078721526799 L 995.9079897266998 783.5766090939362 L 995.6804469707572 783.5443158197481 L 995.4536299463199 783.5109955594158 L 995.2275613349015 783.476651644938 L 995.0022637431745 783.4412875106771 L 994.7777597007104 783.4049066930172 L 994.5540716577265 783.3675128300099 L 994.3312219828406 783.3291096610101 L 994.1092329608344 783.2897010263029 L 993.8881267904254 783.2492908667188 L 993.667925582046 783.2078832232401 L 993.4486513556338 783.1654822365966 L 993.2303260384286 783.1220921468519 L 993.0129714627802 783.0777172929785 L 992.7966093639652 783.032362112425 L 992.5812613780129 782.9860311406715 L 992.3669490395426 782.9387290107766 L 992.1536937796095 782.890460452914 L 991.9415169235621 782.8412302938992 L 991.7304396889087 782.791043456707 L 991.5204831831974 782.7399049599794 L 991.3116684019035 782.6878199175234 L 991.1040162263312 782.6347935377999 L 990.897547421525 782.5808311234026 L 990.6922826341934 782.525938070528 L 990.4882423906439 782.4701198684356 L 990.2854470947309 782.4133820988993 L 990.0839170258151 782.3557304356485 L 989.8836723367355 782.2971706438017 L 989.6847330517938 782.2377085792891 L 989.4871190647531 782.1773501882677 L 989.2908501368472 782.1161015065263 L 989.0959458948054 782.053968658882 L 988.9024258288895 781.9909578585679 L 988.7103092909447 781.9270754066114 L 988.5196154924649 781.8623276912044 L 988.3303635026709 781.7967211870647 L 988.142572246604 781.7302624547879 L 987.9562605032334 781.6629581401918 L 987.771446903578 781.5948149736519 L 987.5881499288439 781.525839769428 L 987.4063879085757 781.456039424983 L 987.2261790188242 781.3854209202933 L 987.0475412803279 781.3139913171505 L 986.870492556712 781.2417577584552 L 986.6950505527011 781.1687274675032 L 986.5212328123497 781.0949077472629 L 986.3490567172868 781.0203059796446 L 986.1785394849784 780.944929624763 L 986.0096981670058 780.8687862201906 L 985.8425496473599 780.7918833802046 L 985.6771106407535 780.7142287950248 L 985.5133976909493 780.6358302300451 L 985.351427169106 780.5566955250567 L 985.1912152721408 780.476832593464 L 985.0327780211096 780.3962494214936 L 984.8761312596058 780.3149540673958 L 984.721290652175 780.2329546606379 L 984.5682716827487 780.1502594010925 L 984.4170896530964 780.0668765582167 L 984.267759681295 779.982814470225 L 984.1202967002175 779.8980815432564 L 983.974715456039 779.8126862505329 L 983.8310305067625 779.7266371315126 L 983.6892562207634 779.6399427910358 L 983.5494067753519 779.5526118984641 L 983.4114961553562 779.4646531868141 L 983.2755381517231 779.3760754518837 L 983.1415463601401 779.2868875513725 L 983.0095341796743 779.1970984039964 L 982.879514811434 779.106716988595 L 982.7515012572475 779.0157523432348 L 982.6255063183636 778.9242135643045 L 982.5015425941713 778.8321098056056 L 982.3796224809396 778.7394502774372 L 982.2597581705782 778.646244245675 L 982.1419616494182 778.5525010308445 L 982.0262446970138 778.4582300071891 L 981.9126188849635 778.3634406017325 L 981.8010955757542 778.2681422933362 L 981.6916859216235 778.1723446117518 L 981.5844008634458 778.0760571366676 L 981.4792511296375 777.9792894967508 L 981.3762472350845 777.8820513686846 L 981.2753994800902 777.7843524762011 L 981.1767179493461 777.686202589108 L 981.0802125109232 777.5876115223122 L 980.9858928152847 777.4885891348381 L 980.8937682943217 777.3891453288421 L 980.8038481604095 777.289290048622 L 980.7161414054866 777.1890332796223 L 980.6306568001553 777.0883850474366 L 980.547402892805 776.9873554168042 L 980.466388008757 776.885954490604 L 980.3876202494322 776.784192408844 L 980.311107491541 776.6820793476477 L 980.2368573862951 776.5796255182361 L 980.1648773586436 776.4768411659066 L 980.0951746065289 776.3737365690091 L 980.0277561001684 776.2703220379171 L 979.9626285813564 776.1666079139976 L 979.8997985627905 776.0626045685767 L 979.8392723274203 775.958322401902 L 979.7810559278188 775.8537718421036 L 979.7251551855776 775.7489633441501 L 979.6715756907241 775.6439073888039 L 979.6203228011633 775.5386144815733 L 979.5714016421415 775.433095151661 L 979.5248171057336 775.3273599509122 L 979.4805738503547 775.2214194527587 L 979.4386763002933 775.1152842511623 L 979.3991286452696 775.0089649595545 L 979.3619348400159 774.902472209776 L 979.3270986038821 774.7958166510128 L 979.2946234204624 774.6890089487323 L 979.2645125372484 774.5820597836154 L 979.2367689653031 774.4749798504895 L 979.2113954789608 774.3677798572587 L 979.1883946155488 774.2604705238331 L 979.1677686751343 774.1530625810566 L 979.1495197202942 774.0455667696339 L 979.1336495759087 773.9379938390566 L 979.1201598289792 773.830354546528 L 979.109051828469 773.7226596558879 L 979.100326685169 773.6149199365354 L 979.093985271586 773.5071461623528 L 979.0900282218564 773.3993491106276 L 979.0884559316817 773.2915395609751 L 979.0892685582896 773.1837282942606 L 979.0924660204182 773.0759260915208 L 979.0980479983239 772.9681437328862 L 979.1060139338135 772.8603919965028 L 979.1163630303002 772.7526816574544 L 979.1290942528831 772.6450234866853 L 979.1442063284502 772.5374282499228 L 979.1616977458068 772.4299067066008 L 979.1815667558255 772.3224696087841 L 979.2038113716222 772.215127700093 L 979.2284293687537 772.107891714629 L 979.2554182854407 772.000772375901 L 979.284775422814 771.8937803957539 L 979.3164978451846 771.7869264732963 L 979.3505823803365 771.6802212938316 L 979.3870256198445 771.5736755277887 L 979.4258239194153 771.4672998296555 L 979.466973399251 771.3611048369132 L 979.510469944438 771.2551011689725 L 979.556309205358 771.1492994261118 L 979.6044865981232 771.0437101884174 L 979.6549973050345 770.938344014725 L 979.7078362750631 770.833211441564 L 979.7629982243562 770.7283229821044 L 979.8204776367648 770.6236891251044 L 979.8802687643956 770.5193203338629 L 979.9423656281855 770.4152270451716 L 980.0067620185 770.3114196682731 L 980.0734514957538 770.2079085838182 L 980.1424273910546 770.1047041428293 L 980.2136828068705 770.0018166656644 L 980.2872106177191 769.8992564409855 L 980.3630034708807 769.7970337247295 L 980.4410537871331 769.6951587390831 L 980.5213537615099 769.5936416714599 L 980.6038953640802 769.4924926734818 L 980.688670340753 769.3917218599646 L 980.775670214101 769.2913393079056 L 980.8648862842093 769.1913550554762 L 980.9563096295454 769.0917791010185 L 981.049931107851 768.9926214020448 L 981.145741357056 768.8938918742426 L 981.2437307962156 768.7956003904823 L 981.3438896264674 768.6977567798303 L 981.446207832012 768.6003708265662 L 981.5506751811138 768.5034522692041 L 981.6572812271253 768.4070107995191 L 981.7660153095305 768.3110560615777 L 981.8768665550118 768.2155976507737 L 981.9898238785372 768.1206451128687 L 982.1048759844683 768.0262079430374 L 982.2220113676905 767.932295584918 L 982.3412183147628 767.8389174296681 L 982.4624849050903 767.7460828150254 L 982.5857990121146 767.653801024374 L 982.7111483045281 767.562081285816 L 982.8385202475058 767.470932771249 L 982.9679021039597 767.3803645954483 L 983.0992809358117 767.2903858151561 L 983.2326436052883 767.2010054281754 L 983.3679767762337 767.1122323724707 L 983.5052669154436 767.024075525273 L 983.6445002940184 766.9365437021942 L 983.7856629887362 766.8496456563432 L 983.9287408834454 766.7633900774523 L 984.0737196704755 766.6777855910077 L 984.2205848520688 766.5928407573865 L 984.3693217418295 766.5085640710013 L 984.5199154661924 766.4249639594506 L 984.6723509659108 766.3420487826756 L 984.8266129975616 766.2598268321254 L 984.9826861350703 766.1783063299262 L 985.140554771253 766.0974954280603 L 985.300203119378 766.0174022075505 L 985.4616152147431 765.9380346776522 L 985.6247749162736 765.8594007750522 L 985.7896659081351 765.7815083630754 L 985.9562717013661 765.7043652308979 L 986.1245756355258 765.6279790927687 L 986.2945608803611 765.5523575872379 L 986.4662104374894 765.4775082763931 L 986.6395071420978 765.4034386451029 L 986.8144336646603 765.3301561002689 L 986.9909725126705 765.2576679700844 L 987.1691060323906 765.1859815033021 L 987.3488164106171 765.1151038685088 L 987.530085676462 765.0450421534089 L 987.7128957031497 764.9758033641157 L 987.8972282098299 764.9073944244502 L 988.0830647634057 764.8398221752497 L 988.2703867803763 764.7730933736824 L 988.4591755286962 764.7072146925732 L 988.649412129648 764.642192719735 L 988.8410775597301 764.5780339573113 L 989.0341526525592 764.5147448211244 L 989.2286181007869 764.4523316400355 L 989.4244544580305 764.3908006553106 L 989.6216421408172 764.330158019997 L 989.8201614305435 764.2704097983076 L 990.0199924754455 764.2115619650147 L 990.2211152925853 764.1536204048527 L 990.4235097698489 764.0965909119293 L 990.6271556679573 764.0404791891464 L 990.83203262249 763.9852908476292 L 991.0381201459227 763.9310314061662 L 991.2453976296746 763.8777062906561 L 991.4538443461701 763.8253208335661 L 991.6634394509113 763.7738802733984 L 991.8741619845622 763.7233897541659 L 992.0859908750452 763.6738543248784 L 992.2989049396479 763.6252789390379 L 992.512882887141 763.5776684541423 L 992.7279033199083 763.5310276312003 L 992.9439447360854 763.4853611342556 L 993.1609855317109 763.4406735299196 L 993.3790040028863 763.3969692869156 L 993.5979783479459 763.3542527756315 L 993.8178866696376 763.3125282676826 L 994.0387069773128 763.2717999354853 L 994.2604171891245 763.2320718518387 L 994.4829951342364 763.1933479895181 L 994.7064185550394 763.1556322208772 L 994.9306651093775 763.1189283174618 L 995.1557123727824 763.0832399496315 L 995.3815378407152 763.0485706861934 L 995.6081189308172 763.0149239940448 L 995.8354329851684 762.9823032378271 L 996.0634572725525 762.9507116795885 L 996.2921689907309 762.9201524784586 L 996.5215452687225 762.8906286903322 L 996.7515631690907 762.8621432675633 L 996.9821996902368 762.8346990586705 L 997.2134317687012 762.8082988080517 L 997.4452362814685 762.7829451557103 L 997.6775900482809 762.7586406369901 L 997.9104698339551 762.7353876823228 L 998.1438523507067 762.7131886169846 L 998.3777142604785 762.6920456608633 L 998.6120321772743 762.6719609282371 L 998.8467826694978 762.6529364275625 L 999.0819422622953 762.6349740612736 L 999.3174874399037 762.6180756255922 L 999.5533946480014 762.6022428103477 L 999.7896402960641 762.5874771988084 L 1000.0262007597239 762.5737802675231 L 1000.2630523831317 762.5611533861738 L 1000.5001714813224 762.5495978174379 L 1000.7375343425838 762.5391147168626 L 1000.9751172308275 762.5297051327493 L 1001.2128963879628 762.5213700060486 L 1001.4508480362722 762.5141101702662 L 1001.6889483807889 762.5079263513795 L 1001.9271736116771 762.5028191677656 L 1002.1654999066121 762.4987891301381 L 1002.4039034331631 762.4958366414977 L 1002.642360351176 762.4939619970909 L 1002.8808468151578 762.4931653843803 L 1003.1193389766609 762.4934468830266 L 1003.3578129866677 762.4948064648804 L 1003.5962449979761 762.4972439939843 L 1003.8346111675836 762.5007592265877 L 1004.0728876590719 762.5053518111702 L 1004.3110506449904 762.511021288477 L 1004.5490763092389 762.5177670915652 L 1004.7869408494494 762.5255885458602 L 1005.024620479366 762.534484869223 L 1005.2620914312241 762.5444551720286 L 1005.499329958126 762.5554984572553 L 1005.736312336417 762.5676136205835 L 1005.9730148680566 762.5807994505071 L 1006.2094138829889 762.595054628454 L 1006.4454857415095 762.6103777289185 L 1006.6812068366291 762.626767219603 L 1006.9165535964348 762.6442214615724 L 1007.1515024864467 762.6627387094169 L 1007.3860300119715 762.682317111427 L 1007.6201127204522 762.7029547097791 L 1007.8537272038129 762.7246494407304 L 1008.0868501008 762.7473991348259 L 1008.3194580993181 762.7712015171152 L 1008.5515279387612 762.7960542073798 L 1008.7830364123387 762.8219547203715 L 1009.0139603693962 762.8489004660605 L 1009.2442767177304 762.8768887498949 L 1009.4739624258983 762.9059167730693 L 1009.7029945255207 762.9359816328057 L 1009.9313501135783 762.9670803226433 L 1010.1590063547028 762.9992097327389 L 1010.3859404834595 763.0323666501783 L 1010.6121298066249 763.0665477592976 L 1010.8375517054552 763.1017496420139 L 1011.0621836379481 763.1379687781687 L 1011.2860031410978 763.1752015458784 L 1011.5089878331404 763.2134442218971 L 1011.7311154157924 763.2526929819894 L 1011.9523636764809 763.2929439013118 L 1012.172710490564 763.3341929548059 L 1012.3921338235439 763.3764360176008 L 1012.6106117332703 763.4196688654253 L 1012.8281223721342 763.4638871750308 L 1013.044643989253 763.5090865246231 L 1013.2601549326454 763.5552623943048 L 1013.4746336513966 763.6024101665276 L 1013.6880586978136 763.6505251265536 L 1013.9004087295696 763.6996024629267 L 1014.1116625118383 763.7496372679543 L 1014.3217989194175 763.8006245381976 L 1014.5307969388415 763.8525591749719 L 1014.7386356704827 763.9054359848569 L 1014.945294330641 763.9592496802157 L 1015.1507522536227 764.0139948797238 L 1015.3549888938066 764.0696661089064 L 1015.557983827699 764.1262578006874 L 1015.7597167559755 764.1837642959446 L 1015.9601675055117 764.2421798440763 L 1016.1593160313993 764.3014986035766 L 1016.3571424189519 764.3617146426188 L 1016.5536268856955 764.4228219396493 L 1016.7487497833473 764.4848143839893 L 1016.94249159978 764.547685776446 L 1017.1348329609734 764.6114298299324 L 1017.3257546329519 764.6760401700965 L 1017.515237523707 764.741510335958 L 1017.7032626851079 764.8078337805549 L 1017.889811314795 764.875003871598 L 1018.0748647580607 764.9430138921342 L 1018.258404509715 765.0118570412181 L 1018.4404122159357 765.0815264345922 L 1018.6208696761038 765.1520151053752 L 1018.7997588446236 765.2233160047588 L 1018.9770618327274 765.2954220027123 L 1019.1527609102642 765.3683258886962 L 1019.3268385074725 765.4420203723826 L 1019.4992772167378 765.5164980843844 L 1019.6700597943328 765.5917515769926 L 1019.8391691621421 765.6677733249206 L 1020.0065884093697 765.7445557260571 L 1020.1723007942305 765.8220911022258 L 1020.3362897456242 765.9003716999539 L 1020.4985388647922 765.9793896912466 L 1020.6590319269578 766.0591371743707 L 1020.8177528829486 766.1396061746444 L 1020.9746858608012 766.2207886452348 L 1021.1298151673485 766.3026764679623 L 1021.2831252897894 766.3852614541131 L 1021.4346008972391 766.4685353452571 L 1021.5842268422632 766.5524898140749 L 1021.731988162392 766.6371164651894 L 1021.8778700816165 766.722406836006 L 1022.0218580118664 766.8083523975588 L 1022.1639375544686 766.8949445553632 L 1022.3040945015873 766.9821746502755 L 1022.4423148376445 767.0700339593591 L 1022.5785847407219 767.1585136967561 L 1022.7128905839427 767.2476050145667 L 1022.8452189368345 767.3372990037332 L 1022.9755565666721 767.4275866949314 L 1023.1038904398015 767.5184590594675 L 1023.2302077229422 767.6099070101809 L 1023.3544957844708 767.7019214023526 L 1023.4767421956852 767.7944930346199 L 1023.596934732046 767.887612649897 L 1023.7150613743996 767.9812709362999 L 1023.8311103101803 768.0754585280779 L 1023.9450699345912 768.1701660065503 L 1024.0569288517647 768.2653839010484 L 1024.1666758759027 768.3611026898618 L 1024.2743000323937 768.4573128011916 L 1024.3797905589122 768.5540046141068 L 1024.4831369064934 768.6511684595066 L 1024.5843287405883 768.7487946210875 L 1024.6833559420982 768.8468733363147 L 1024.7802086083852 768.9453947973984 L 1024.8748770542636 769.0443491522745 L 1024.9673518129675 769.1437265055902 L 1025.0576236370982 769.2435169196928 L 1025.1456834995486 769.3437104156241 L 1025.2315225944058 769.444296974118 L 1025.3151323378315 769.5452665366023 L 1025.3965043689216 769.6466090062053 L 1025.4756305505405 769.748314248764 L 1025.552502970136 769.8503720938393 L 1025.62711394053 769.9527723357315 L 1025.699456000688 770.0555047345019 L 1025.7695219164643 770.1585590169963 L 1025.8373046813253 770.2619248778719 L 1025.9027975170513 770.3655919806292 L 1025.9659938744132 770.4695499586442 L 1026.0268874338278 770.5737884162056 L 1026.0854721059904 770.6782969295547 L 1026.141742032482 770.783065047927 L 1026.1956915863573 770.8880822945982 L 1026.2473153727053 770.9933381679311 L 1026.2966082291912 771.098822142426 L 1026.3435652265696 771.2045236697735 L 1026.3881816691805 771.3104321799087 L 1026.4304530954166 771.416537082069 L 1026.4703752781704 771.5228277658528 L 1026.507944225257 771.6292936022799 L 1026.5431561798132 771.7359239448556 L 1026.5760076206725 771.8427081306345 L 1026.6064952627182 771.9496354812869 L 1026.634616057212 772.056695304167 L 1026.6603671920975 772.1638768933817 L 1026.6837460922825 772.2711695308612 L 1026.704750419897 772.3785624874314 L 1026.723378074525 772.486045023886 L 1026.7396271934174 772.5936063920611 L 1026.7534961516753 772.7012358359093 L 1026.7649835624145 772.808922592576 L 1026.7740882769037 772.9166558934753 L 1026.7808093846788 773.0244249653667 L 1026.785146213635 773.1322190314331 L 1026.7870983300925 773.2400273123576 M 1026.7872193201486 807.5782957269181 L 1026.7860268602449 807.6861062718348 L 1026.7824495997788 807.7939060357867 L 1026.7764878964733 807.9016842388875 L 1026.7681423464942 808.0094301034065 L 1026.757413784389 808.1171328548472 L 1026.7443032830051 808.2247817230241 L 1026.7288121533818 808.3323659431402 L 1026.7109419446192 808.439874756863 L 1026.6906944437233 808.5472974134008 L 1026.668071675427 808.6546231705775 L 1026.6430759019886 808.7618412959066 L 1026.6157096229647 808.8689410676652 L 1026.58597557496 808.9759117759653 L 1026.5538767313549 809.0827427238252 L 1026.5194163020067 809.189423228239 L 1026.48259773293 809.2959426212453 L 1026.4434247059507 809.4022902509935 L 1026.4019011383389 809.5084554828094 L 1026.3580311824169 809.614427700258 L 1026.3118192251436 809.7201963062062 L 1026.2632698876762 809.8257507238814 L 1026.2123880249083 809.9310803979296 L 1026.1591787249831 810.0361747954714 L 1026.103647308787 810.1410234071546 L 1026.045799329415 810.2456157482055 L 1025.9856405716168 810.3499413594769 L 1025.923177051218 810.4539898084947 L 1025.858415014519 810.5577506905008 L 1025.791360937669 810.6612136294935 L 1025.72202152602 810.764368279265 L 1025.6504037134555 810.8672043244362 L 1025.5765146616968 810.9697114814885 L 1025.5003617595876 811.0718794997915 L 1025.4219526223549 811.1736981626285 L 1025.3412950908469 811.2751572882181 L 1025.2583972307493 811.3762467307322 L 1025.1732673317795 811.476956381311 L 1025.0859139068561 811.5772761690731 L 1024.996345691249 811.6771960621236 L 1024.9045716417047 811.7767060685562 L 1024.8106009355524 811.8757962374534 L 1024.714442969784 811.9744566598807 L 1024.6161073601156 812.0726774698782 L 1024.515603940027 812.1704488454467 L 1024.4129427597757 812.2677610095301 L 1024.3081340853946 812.3646042309931 L 1024.2011883976638 812.4609688255944 L 1024.092116391063 812.5568451569546 L 1023.9809289727016 812.6522236375206 L 1023.867637261229 812.7470947295238 L 1023.7522525857221 812.8414489459341 L 1023.634786484552 812.9352768514084 L 1023.5152507042311 813.0285690632344 L 1023.3936571982379 813.1213162522686 L 1023.2700181258215 813.2135091438695 L 1023.1443458507861 813.3051385188246 L 1023.0166529402546 813.3961952142729 L 1022.8869521634116 813.4866701246208 L 1022.7552564902267 813.5765542024525 L 1022.6215790901574 813.6658384594351 L 1022.4859333308325 813.7545139672175 L 1022.3483327767146 813.8425718583226 L 1022.2087911877447 813.9300033270348 L 1022.0673225179654 814.0167996302802 L 1021.9239409141256 814.1029520885005 L 1021.7786607142665 814.1884520865218 L 1021.6314964462866 814.2732910744157 L 1021.4824628264905 814.357460568354 L 1021.3315747581156 814.4409521514574 L 1021.1788473298433 814.5237574746373 L 1021.024295814289 814.6058682574301 L 1020.8679356664755 814.6872762888263 L 1020.7097825222872 814.7679734280904 L 1020.549852196907 814.8479516055758 L 1020.3881606832338 814.9272028235312 L 1020.2247241502845 815.0057191569011 L 1020.0595589415759 815.0834927541175 L 1019.8926815734916 815.1605158378856 L 1019.7241087336291 815.236780705961 L 1019.553857279132 815.3122797319205 L 1019.3819442350039 815.3870053659246 L 1019.2083867924058 815.4609501354719 L 1019.0332023069375 815.5341066461473 L 1018.8564082969015 815.6064675823604 L 1018.6780224415514 815.6780257080783 L 1018.4980625793241 815.7487738675478 L 1018.3165467060561 815.8187049860119 L 1018.1334929731831 815.8878120704171 L 1017.9489196859262 815.9560882101125 L 1017.76284530146 816.023526577541 L 1017.575288427068 816.0901204289222 L 1017.3862678182813 816.1558631049263 L 1017.1958023770035 816.2207480313406 L 1017.0039111496196 816.2847687197265 L 1016.8106133250928 816.3479187680684 L 1016.6159282330443 816.4101918614142 L 1016.4198753418211 816.4715817725065 L 1016.2224742565489 816.5320823624053 L 1016.0237447171719 816.591687581102 L 1015.8237065964781 816.6503914681243 L 1015.6223798981132 816.7081881531326 L 1015.4197847545792 816.7650718565066 L 1015.2159414252213 816.8210368899231 L 1015.0108702942031 816.8760776569256 L 1014.8045918684663 816.9301886534834 L 1014.597126775682 816.9833644685416 L 1014.3884957621863 817.0355997845631 L 1014.1787196909069 817.08688937806 L 1013.9678195392759 817.1372281201157 L 1013.7558163971328 817.1866109768976 L 1013.5427314646151 817.2350330101615 L 1013.3285860500388 817.2824893777444 L 1013.1134015677665 817.3289753340489 L 1012.8971995360672 817.3744862305183 L 1012.6800015749641 817.4190175161008 L 1012.4618294040721 817.462564737705 L 1012.2427048404265 817.5051235406448 L 1012.0226497963012 817.5466896690757 L 1011.8016862770171 817.5872589664194 L 1011.5798363787421 817.6268273757798 L 1011.3571222862811 817.6653909403492 L 1011.1335662708576 817.702945803803 L 1010.9091906878872 817.7394882106864 L 1010.6840179747409 817.775014506789 L 1010.4580706485025 817.8095211395108 L 1010.2313713037163 817.8430046582175 L 1010.0039426101279 817.8754617145848 L 1009.775807310417 817.9068890629344 L 1009.5469882179237 817.9372835605575 L 1009.3175082143664 817.9666421680296 L 1009.0873902475544 817.9949619495146 L 1008.8566573290923 818.0222400730578 L 1008.6253325320799 818.0484738108697 L 1008.3934389888041 818.0736605395983 L 1008.160999888426 818.0977977405918 L 1007.9280384746619 818.1208830001501 L 1007.6945780434589 818.1429140097665 L 1007.4606419406659 818.1638885663585 L 1007.226253559698 818.1838045724879 L 1006.991436339198 818.2026600365706 L 1006.7562137606924 818.2204530730759 L 1006.5206093462427 818.2371819027151 L 1006.2846466560944 818.252844852619 L 1006.0483492863198 818.2674403565057 L 1005.8117408664588 818.2809669548371 L 1005.5748450571562 818.2934232949647 L 1005.3376855477957 818.3048081312646 L 1005.1002860541305 818.3151203252628 L 1004.862670315912 818.3243588457485 L 1004.6248620945164 818.3325227688774 L 1004.3868851705673 818.3396112782639 L 1004.148763341559 818.3456236650629 L 1003.9105204194758 818.350559328041 L 1003.6721802284114 818.3544177736358 L 1003.4337666021864 818.3571986160059 L 1003.1953033819647 818.3589015770696 L 1002.9568144138696 818.359526486532 L 1002.718323546599 818.3590732819027 L 1002.4798546290411 818.357542008502 L 1002.2414315078889 818.3549328194558 L 1002.003078025256 818.3512459756807 L 1001.7648180162915 818.3464818458584 L 1001.5266753067983 818.3406409063975 L 1001.2886737108487 818.3337237413873 L 1001.0508370284039 818.3257310425385 L 1000.8131890429339 818.3166636091142 L 1000.5757535190394 818.3065223478503 L 1000.3385542000747 818.2953082728645 L 1000.1016148057743 818.283022505555 L 999.86495902988 818.2696662744881 L 999.6286105377721 818.255240915276 L 999.3925929641031 818.2397478704424 L 999.1569299104335 818.223188689279 L 998.9216449428724 818.2055650276901 L 998.6867615897204 818.1868786480271 L 998.4523033391171 818.1671314189124 L 998.2182936366922 818.1463253150526 L 997.9847558832208 818.1244624170406 L 997.751713432284 818.101544911148 L 997.5191895879323 818.0775750891064 L 997.2872076023564 818.052555347878 L 997.0557906735618 818.0264881894159 L 996.8249619430483 817.9993762204143 L 996.5947444934967 817.9712221520477 L 996.3651613464601 817.9420287996993 L 996.1362354600618 817.91179908268 L 995.9079897266998 817.8805360239363 L 995.6804469707572 817.8482427497482 L 995.4536299463199 817.814922489416 L 995.2275613349015 817.7805785749381 L 995.0022637431745 817.7452144406772 L 994.7777597007104 817.7088336230173 L 994.5540716577265 817.67143976001 L 994.3312219828406 817.6330365910102 L 994.1092329608344 817.593627956303 L 993.8881267904254 817.5532177967189 L 993.667925582046 817.5118101532402 L 993.4486513556338 817.4694091665967 L 993.2303260384286 817.426019076852 L 993.0129714627802 817.3816442229786 L 992.7966093639652 817.336289042425 L 992.5812613780129 817.2899580706716 L 992.3669490395426 817.2426559407767 L 992.1536937796095 817.1943873829141 L 991.9415169235621 817.1451572238993 L 991.7304396889087 817.0949703867071 L 991.5204831831974 817.0438318899795 L 991.3116684019035 816.9917468475235 L 991.1040162263312 816.9387204678 L 990.897547421525 816.8847580534027 L 990.6922826341934 816.8298650005281 L 990.4882423906439 816.7740467984357 L 990.2854470947309 816.7173090288994 L 990.0839170258151 816.6596573656486 L 989.8836723367355 816.6010975738018 L 989.6847330517938 816.5416355092892 L 989.4871190647531 816.4812771182678 L 989.2908501368472 816.4200284365264 L 989.0959458948054 816.3578955888821 L 988.9024258288895 816.294884788568 L 988.7103092909447 816.2310023366115 L 988.5196154924649 816.1662546212045 L 988.3303635026709 816.1006481170648 L 988.142572246604 816.034189384788 L 987.9562605032334 815.9668850701919 L 987.771446903578 815.898741903652 L 987.5881499288439 815.8297666994281 L 987.4063879085757 815.7599663549831 L 987.2261790188242 815.6893478502934 L 987.0475412803279 815.6179182471506 L 986.870492556712 815.5456846884553 L 986.6950505527011 815.4726543975033 L 986.5212328123497 815.398834677263 L 986.3490567172868 815.3242329096447 L 986.1785394849784 815.248856554763 L 986.0096981670058 815.1727131501907 L 985.8425496473599 815.0958103102047 L 985.6771106407535 815.0181557250249 L 985.5133976909493 814.9397571600452 L 985.351427169106 814.8606224550568 L 985.1912152721408 814.7807595234641 L 985.0327780211096 814.7001763514937 L 984.8761312596058 814.6188809973959 L 984.721290652175 814.536881590638 L 984.5682716827487 814.4541863310926 L 984.4170896530964 814.3708034882168 L 984.267759681295 814.2867414002251 L 984.1202967002175 814.2020084732565 L 983.974715456039 814.116613180533 L 983.8310305067625 814.0305640615127 L 983.6892562207634 813.9438697210359 L 983.5494067753519 813.8565388284642 L 983.4114961553562 813.7685801168142 L 983.2755381517231 813.6800023818838 L 983.1415463601401 813.5908144813726 L 983.0095341796743 813.5010253339965 L 982.879514811434 813.4106439185952 L 982.7515012572475 813.3196792732349 L 982.6255063183636 813.2281404943046 L 982.5015425941713 813.1360367356057 L 982.3796224809396 813.0433772074373 L 982.2597581705782 812.9501711756751 L 982.1419616494182 812.8564279608446 L 982.0262446970138 812.7621569371892 L 981.9126188849635 812.6673675317326 L 981.8010955757542 812.5720692233363 L 981.6916859216235 812.4762715417519 L 981.5844008634458 812.3799840666677 L 981.4792511296375 812.2832164267509 L 981.3762472350845 812.1859782986847 L 981.2753994800902 812.0882794062012 L 981.1767179493461 811.9901295191081 L 981.0802125109232 811.8915384523123 L 980.9858928152847 811.7925160648382 L 980.8937682943217 811.6930722588422 L 980.8038481604095 811.5932169786221 L 980.7161414054866 811.4929602096224 L 980.6306568001553 811.3923119774367 L 980.547402892805 811.2912823468043 L 980.466388008757 811.1898814206041 L 980.3876202494322 811.0881193388441 L 980.311107491541 810.9860062776478 L 980.2368573862951 810.8835524482362 L 980.1648773586436 810.7807680959068 L 980.0951746065289 810.6776634990092 L 980.0277561001684 810.5742489679172 L 979.9626285813564 810.4705348439977 L 979.8997985627905 810.3665314985768 L 979.8392723274203 810.2622493319021 L 979.7810559278188 810.1576987721037 L 979.7251551855776 810.0528902741502 L 979.6715756907241 809.947834318804 L 979.6203228011633 809.8425414115734 L 979.5714016421415 809.737022081661 L 979.5248171057336 809.6312868809123 L 979.4805738503547 809.5253463827588 L 979.4386763002933 809.4192111811624 L 979.3991286452696 809.3128918895546 L 979.3619348400159 809.2063991397761 L 979.3270986038821 809.099743581013 L 979.2946234204624 808.9929358787324 L 979.2645125372484 808.8859867136155 L 979.2367689653031 808.7789067804896 L 979.2113954789608 808.6717067872588 L 979.1883946155488 808.5643974538332 L 979.1677686751343 808.4569895110567 L 979.1495197202942 808.349493699634 L 979.1336495759087 808.2419207690567 L 979.1201598289792 808.1342814765281 L 979.109051828469 808.026586585888 L 979.100326685169 807.9188468665355 L 979.093985271586 807.8110730923529 L 979.0900282218564 807.7032760406277 L 979.0884559316817 807.5954664909752" stroke-miterlimit="10" stroke-width="2.7769845610000004" stroke-dasharray=""/></g><g><g/><text fill="black" stroke="none" font-family="sans-serif" font-size="11pt" font-style="normal" font-weight="normal" text-decoration="normal" x="971.5598775558594" y="756.008058908818" text-anchor="start" dominant-baseline="alphabetic" xml:space="preserve">Database</text></g></g><g><path fill="white" stroke="black" paint-order="fill stroke markers" d=" M 73.50841485 182.64242307881818 L 89.84361814999998 182.64242307881818 L 89.84361814999998 682.499644058818 L 73.50841485 682.499644058818 L 73.50841485 182.64242307881818" stroke-miterlimit="10" stroke-width="1.3612669416666667" stroke-dasharray=""/><path fill="white" stroke="black" paint-order="fill stroke markers" d=" M 460.8843696339193 182.64242307881818 L 477.21957293391927 182.64242307881818 L 477.21957293391927 682.499644058818 L 460.8843696339193 682.499644058818 L 460.8843696339193 182.64242307881818" stroke-miterlimit="10" stroke-width="1.3612669416666667" stroke-dasharray=""/><path fill="white" stroke="black" paint-order="fill stroke markers" d=" M 735.9912204139323 228.3809923188182 L 752.3264237139324 228.3809923188182 L 752.3264237139324 682.499644058818 L 735.9912204139323 682.499644058818 L 735.9912204139323 228.3809923188182" stroke-miterlimit="10" stroke-width="1.3612669416666667" stroke-dasharray=""/><path fill="white" stroke="black" paint-order="fill stroke markers" d=" M 994.7702208521484 385.1989439988182 L 1011.1054241521485 385.1989439988182 L 1011.1054241521485 682.499644058818 L 994.7702208521484 682.499644058818 L 994.7702208521484 385.1989439988182" stroke-miterlimit="10" stroke-width="1.3612669416666667" stroke-dasharray=""/><g><text fill="black" stroke="none" font-family="sans-serif" font-size="16pt" font-style="normal" font-weight="normal" text-decoration="normal" x="456.0135269165039" y="24.651306798181814" text-anchor="start" dominant-baseline="alphabetic" xml:space="preserve">Chnhsadchv</text></g><g><rect fill="white" stroke="none" x="109.17360872166667" y="161.4066587888182" width="332.3807245642187" height="21.23576429"/><text fill="black" stroke="none" font-family="sans-serif" font-size="11pt" font-style="normal" font-weight="normal" text-decoration="normal" x="111.62388921666667" y="176.10834175881817" text-anchor="start" dominant-baseline="alphabetic" xml:space="preserve">Chndchvcnchnhsavnhpthngtinmi</text></g><g><path fill="none" stroke="black" paint-order="fill stroke markers" d=" M 89.84361814999998 182.64242307881818 L 447.4350522502526 182.64242307881818" stroke-miterlimit="10" stroke-width="1.3612669416666667" stroke-dasharray=""/><g transform="translate(460.8843696339193,182.64242307881818) translate(-460.8843696339193,-182.64242307881818)"><path fill="black" stroke="none" paint-order="stroke fill markers" d=" M 447.2717002172526 175.83608837048484 L 460.8843696339193 182.64242307881818 L 447.2717002172526 189.44875778715152 Z"/></g></g><g><rect fill="white" stroke="none" x="502.7771864914257" y="207.1452280288182" width="207.656420365" height="21.23576429"/><text fill="black" stroke="none" font-family="sans-serif" font-size="11pt" font-style="normal" font-weight="normal" text-decoration="normal" x="505.2274669864257" y="221.84691099881817" text-anchor="start" dominant-baseline="alphabetic" xml:space="preserve">GiIDdchvvthngtinmi</text></g><g><path fill="none" stroke="black" paint-order="fill stroke markers" d=" M 477.21957293391927 228.3809923188182 L 722.5419030302656 228.3809923188182" stroke-miterlimit="10" stroke-width="1.3612669416666667" stroke-dasharray=""/><g transform="translate(735.9912204139323,228.3809923188182) translate(-735.9912204139323,-228.3809923188182)"><path fill="black" stroke="none" paint-order="stroke fill markers" d=" M 722.3785509972656 221.57465761048485 L 735.9912204139323 228.3809923188182 L 722.3785509972656 235.18732702715153 Z"/></g></g><g><rect fill="white" stroke="none" x="771.6564142855991" y="252.88379726881823" width="103.49751533570313" height="21.23576429"/><text fill="black" stroke="none" font-family="sans-serif" font-size="11pt" font-style="normal" font-weight="normal" text-decoration="normal" x="774.1066947805991" y="267.5854802388182" text-anchor="start" dominant-baseline="alphabetic" xml:space="preserve">Kimtraquyn</text></g><g><path fill="none" stroke="black" paint-order="fill stroke markers" d=" M 752.3264237139324 274.1195615588182 L 817.6672369139324 274.1195615588182 L 817.6672369139324 295.3553258488182 L 765.775741097599 295.3553258488182" stroke-miterlimit="10" stroke-width="1.3612669416666667" stroke-dasharray=""/><g transform="translate(752.3264237139324,295.3553258488182) translate(-752.3264237139324,-295.3553258488182)"><path fill="black" stroke="none" paint-order="stroke fill markers" d=" M 765.9390931305991 288.5489911404849 L 752.3264237139324 295.3553258488182 L 765.9390931305991 302.16166055715155 Z"/></g></g><g><rect fill="white" stroke="none" x="785.929851785599" y="363.9631797088182" width="175.23694099488281" height="21.23576429"/><text fill="black" stroke="none" font-family="sans-serif" font-size="11pt" font-style="normal" font-weight="normal" text-decoration="normal" x="788.380132280599" y="378.66486267881817" text-anchor="start" dominant-baseline="alphabetic" xml:space="preserve">Cpnhtthngtindchv</text></g><g><path fill="none" stroke="black" paint-order="fill stroke markers" d=" M 752.3264237139324 385.1989439988182 L 981.3209034684818 385.1989439988182" stroke-miterlimit="10" stroke-width="1.3612669416666667" stroke-dasharray=""/><g transform="translate(994.7702208521484,385.1989439988182) translate(-994.7702208521484,-385.1989439988182)"><path fill="black" stroke="none" paint-order="stroke fill markers" d=" M 981.1575514354818 378.39260929048487 L 994.7702208521484 385.1989439988182 L 981.1575514354818 392.00527870715155 Z"/></g></g><g><rect fill="white" stroke="none" x="771.656414285599" y="409.7017489488182" width="203.78381599488281" height="21.23576429"/><text fill="black" stroke="none" font-family="sans-serif" font-size="11pt" font-style="normal" font-weight="normal" text-decoration="normal" x="774.106694780599" y="424.40343191881817" text-anchor="start" dominant-baseline="alphabetic" xml:space="preserve">Xcnhncpnhtthnhcng</text></g><g><path fill="none" stroke="black" paint-order="fill stroke markers" d=" M 994.7702208521484 430.9375132388182 L 765.775741097599 430.9375132388182" stroke-miterlimit="10" stroke-width="1.3612669416666667" stroke-dasharray="6.53408132"/><g transform="translate(752.3264237139324,430.9375132388182) translate(-752.3264237139324,-430.9375132388182)"><path fill="black" stroke="none" paint-order="stroke fill markers" d=" M 765.9390931305991 424.1311785304849 L 752.3264237139324 430.9375132388182 L 765.9390931305991 437.74384794715155 Z"/></g></g><g><rect fill="white" stroke="none" x="496.54956350558587" y="455.4403181888182" width="220.1116663366797" height="21.23576429"/><text fill="black" stroke="none" font-family="sans-serif" font-size="11pt" font-style="normal" font-weight="normal" text-decoration="normal" x="498.9998440005859" y="470.1420011588182" text-anchor="start" dominant-baseline="alphabetic" xml:space="preserve">Thngbochnhsathnhcng</text></g><g><path fill="none" stroke="black" paint-order="fill stroke markers" d=" M 735.9912204139323 476.6760824788182 L 490.6688903175859 476.6760824788182" stroke-miterlimit="10" stroke-width="1.3612669416666667" stroke-dasharray="6.53408132"/><g transform="translate(477.21957293391927,476.6760824788182) translate(-477.21957293391927,-476.6760824788182)"><path fill="black" stroke="none" paint-order="stroke fill markers" d=" M 490.83224235058594 469.8697477704849 L 477.21957293391927 476.6760824788182 L 490.83224235058594 483.48241718715155 Z"/></g></g><g><rect fill="white" stroke="none" x="175.10415071385418" y="501.17888742881814" width="200.51968635621094" height="21.23576429"/><text fill="black" stroke="none" font-family="sans-serif" font-size="11pt" font-style="normal" font-weight="normal" text-decoration="normal" x="177.55443120885417" y="515.8805703988181" text-anchor="start" dominant-baseline="alphabetic" xml:space="preserve">Hinththngbothnhcng</text></g><g><path fill="none" stroke="black" paint-order="fill stroke markers" d=" M 460.8843696339193 522.4146517188182 L 103.29293553366665 522.4146517188182" stroke-miterlimit="10" stroke-width="1.3612669416666667" stroke-dasharray="6.53408132"/><g transform="translate(89.84361814999998,522.4146517188182) translate(-89.84361814999998,-522.4146517188182)"><path fill="black" stroke="none" paint-order="stroke fill markers" d=" M 103.45628756666665 515.6083170104848 L 89.84361814999998 522.4146517188182 L 103.45628756666665 529.2209864271515 Z"/></g></g><g><rect fill="white" stroke="none" x="509.6168547653515" y="591.022505578818" width="193.97708381714844" height="21.23576429"/><text fill="black" stroke="none" font-family="sans-serif" font-size="11pt" font-style="normal" font-weight="normal" text-decoration="normal" x="512.0671352603515" y="605.724188548818" text-anchor="start" dominant-baseline="alphabetic" xml:space="preserve">Thngboliquyntruycp</text></g><g><path fill="none" stroke="black" paint-order="fill stroke markers" d=" M 735.9912204139323 612.258269868818 L 490.6688903175859 612.258269868818" stroke-miterlimit="10" stroke-width="1.3612669416666667" stroke-dasharray="6.53408132"/><g transform="translate(477.21957293391927,612.258269868818) translate(-477.21957293391927,-612.258269868818)"><path fill="black" stroke="none" paint-order="stroke fill markers" d=" M 490.83224235058594 605.4519351604847 L 477.21957293391927 612.258269868818 L 490.83224235058594 619.0646045771514 Z"/></g></g><g><rect fill="white" stroke="none" x="187.33392518895184" y="636.761074818818" width="176.06013740601563" height="21.23576429"/><text fill="black" stroke="none" font-family="sans-serif" font-size="11pt" font-style="normal" font-weight="normal" text-decoration="normal" x="189.78420568395182" y="651.462757788818" text-anchor="start" dominant-baseline="alphabetic" xml:space="preserve">Hinththngbothtbi</text></g><g><path fill="none" stroke="black" paint-order="fill stroke markers" d=" M 460.8843696339193 657.996839108818 L 103.29293553366665 657.996839108818" stroke-miterlimit="10" stroke-width="1.3612669416666667" stroke-dasharray="6.53408132"/><g transform="translate(89.84361814999998,657.996839108818) translate(-89.84361814999998,-657.996839108818)"><path fill="black" stroke="none" paint-order="stroke fill markers" d=" M 103.45628756666665 651.1905044004847 L 89.84361814999998 657.996839108818 L 103.45628756666665 664.8031738171513 Z"/></g></g><g><g/><path fill="none" stroke="black" paint-order="fill stroke markers" d=" M 16.33520329999999 319.8581307988182 L 1060.1110340521486 319.8581307988182 L 1060.1110340521486 682.499644058818 L 16.33520329999999 682.499644058818 L 16.33520329999999 319.8581307988182 Z" stroke-miterlimit="10" stroke-width="2.3336004714285714" stroke-dasharray=""/><path fill="white" stroke="black" paint-order="fill stroke markers" d=" M 16.33520329999999 319.8581307988182 L 16.33520329999999 339.4603747588182 L 62.6944068970703 339.4603747588182 L 72.4955288770703 329.6592527788182 L 72.4955288770703 319.8581307988182 L 16.33520329999999 319.8581307988182" stroke-miterlimit="10" stroke-width="2.3336004714285714" stroke-dasharray=""/><text fill="black" stroke="none" font-family="sans-serif" font-size="8.8pt" font-style="normal" font-weight="bold" text-decoration="normal" x="32.67040659999999" y="332.9262934388182" text-anchor="start" dominant-baseline="alphabetic" xml:space="preserve">alt</text><g><rect fill="white" stroke="none" x="86.3804516820703" y="321.1649470628182" width="88.1846186071875" height="16.988611432000003"/></g><text fill="black" stroke="none" font-family="sans-serif" font-size="8.8pt" font-style="normal" font-weight="bold" text-decoration="normal" x="88.8307321770703" y="332.9262934388182" text-anchor="start" dominant-baseline="alphabetic" xml:space="preserve">[Quynhpl]</text><g><path fill="none" stroke="black" paint-order="fill stroke markers" d=" M 16.33520329999999 546.9174566688181 L 1060.1110340521484 546.9174566688181" stroke-miterlimit="10" stroke-width="2.3336004714285714" stroke-dasharray="4.083800825"/></g><g/><g><rect fill="white" stroke="none" x="86.3804516820703" y="548.224272932818" width="126.62782539429688" height="16.988611432000003"/></g><text fill="black" stroke="none" font-family="sans-serif" font-size="8.8pt" font-style="normal" font-weight="bold" text-decoration="normal" x="88.8307321770703" y="559.9856193088181" text-anchor="start" dominant-baseline="alphabetic" xml:space="preserve">[Quynkhnghpl]</text></g><g/></g><g/><g/><g/><g/></g></svg>